<?xml version="1.0" encoding="UTF-8" standalone="no"?>
<!DOCTYPE svg PUBLIC "-//W3C//DTD SVG 1.1//EN"
 "http://www.w3.org/Graphics/SVG/1.1/DTD/svg11.dtd">
<!-- Generated by graphviz version 2.38.0 (20140413.2041)
 -->
<!-- Title: Modules/FT0/src/ChannelsCheck.cxx Pages: 1 -->
<svg width="1255pt" height="263pt"
 viewBox="0.00 0.00 1255.00 263.00" xmlns="http://www.w3.org/2000/svg" xmlns:xlink="http://www.w3.org/1999/xlink">
<g id="graph0" class="graph" transform="scale(1 1) rotate(0) translate(4 259)">
<title>Modules/FT0/src/ChannelsCheck.cxx</title>
<!-- Node1 -->
<g id="node1" class="node"><title>Node1</title>
<polygon fill="#bfbfbf" stroke="black" points="364.5,-224.5 364.5,-254.5 498.5,-254.5 498.5,-224.5 364.5,-224.5"/>
<text text-anchor="start" x="372.5" y="-242.5" font-family="Helvetica,sans-Serif" font-size="10.00">Modules/FT0/src/Channels</text>
<text text-anchor="middle" x="431.5" y="-231.5" font-family="Helvetica,sans-Serif" font-size="10.00">Check.cxx</text>
</g>
<!-- Node2 -->
<g id="node2" class="node"><title>Node2</title>
<polygon fill="none" stroke="#bfbfbf" points="0,-168.5 0,-187.5 97,-187.5 97,-168.5 0,-168.5"/>
<text text-anchor="middle" x="48.5" y="-175.5" font-family="Helvetica,sans-Serif" font-size="10.00">fairlogger/Logger.h</text>
</g>
<!-- Node1&#45;&gt;Node2 -->
<g id="edge1" class="edge"><title>Node1&#45;&gt;Node2</title>
<path fill="none" stroke="midnightblue" d="M364.373,-228.16C300.709,-218.34 202.07,-203.091 107.078,-188.244"/>
<polygon fill="midnightblue" stroke="midnightblue" points="107.429,-184.756 97.0084,-186.669 106.348,-191.672 107.429,-184.756"/>
</g>
<!-- Node3 -->
<g id="node3" class="node"><title>Node3</title>
<polygon fill="none" stroke="#bfbfbf" points="114.5,-168.5 114.5,-187.5 158.5,-187.5 158.5,-168.5 114.5,-168.5"/>
<text text-anchor="middle" x="136.5" y="-175.5" font-family="Helvetica,sans-Serif" font-size="10.00">TH1.h</text>
</g>
<!-- Node1&#45;&gt;Node3 -->
<g id="edge2" class="edge"><title>Node1&#45;&gt;Node3</title>
<path fill="none" stroke="midnightblue" d="M364.402,-227.451C313.228,-218.615 240.829,-205.238 168.925,-188.172"/>
<polygon fill="midnightblue" stroke="midnightblue" points="169.325,-184.669 158.784,-185.74 167.692,-191.476 169.325,-184.669"/>
</g>
<!-- Node4 -->
<g id="node4" class="node"><title>Node4</title>
<polygon fill="none" stroke="#bfbfbf" points="176.5,-168.5 176.5,-187.5 226.5,-187.5 226.5,-168.5 176.5,-168.5"/>
<text text-anchor="middle" x="201.5" y="-175.5" font-family="Helvetica,sans-Serif" font-size="10.00">TTree.h</text>
</g>
<!-- Node1&#45;&gt;Node4 -->
<g id="edge3" class="edge"><title>Node1&#45;&gt;Node4</title>
<path fill="none" stroke="midnightblue" d="M377.284,-224.475C333.825,-213.232 274.112,-197.784 236.675,-188.1"/>
<polygon fill="midnightblue" stroke="midnightblue" points="237.296,-184.645 226.738,-185.529 235.543,-191.422 237.296,-184.645"/>
</g>
<!-- Node5 -->
<g id="node5" class="node"><title>Node5</title>
<g id="a_node5"><a xlink:href="ChannelsCheck_8h.html" target="_top" xlink:title="FT0/ChannelsCheck.h">
<polygon fill="none" stroke="black" points="296,-168.5 296,-187.5 411,-187.5 411,-168.5 296,-168.5"/>
<text text-anchor="middle" x="353.5" y="-175.5" font-family="Helvetica,sans-Serif" font-size="10.00">FT0/ChannelsCheck.h</text>
</a>
</g>
</g>
<!-- Node1&#45;&gt;Node5 -->
<g id="edge4" class="edge"><title>Node1&#45;&gt;Node5</title>
<path fill="none" stroke="midnightblue" d="M413.015,-224.399C400.98,-215.218 385.3,-203.258 373.057,-193.918"/>
<polygon fill="midnightblue" stroke="midnightblue" points="374.923,-190.94 364.85,-187.658 370.678,-196.506 374.923,-190.94"/>
</g>
<!-- Node11 -->
<g id="node11" class="node"><title>Node11</title>
<g id="a_node11"><a xlink:href="MonitorObject_8h.html" target="_top" xlink:title="QualityControl/MonitorObject.h">
<polygon fill="none" stroke="black" points="551,-56.5 551,-75.5 702,-75.5 702,-56.5 551,-56.5"/>
<text text-anchor="middle" x="626.5" y="-63.5" font-family="Helvetica,sans-Serif" font-size="10.00">QualityControl/MonitorObject.h</text>
</a>
</g>
</g>
<!-- Node1&#45;&gt;Node11 -->
<g id="edge20" class="edge"><title>Node1&#45;&gt;Node11</title>
<path fill="none" stroke="midnightblue" d="M498.609,-226.589C586.238,-209.506 732.189,-175.281 763.5,-132 784.285,-103.269 745.267,-86.777 703.625,-77.599"/>
<polygon fill="midnightblue" stroke="midnightblue" points="704.09,-74.1212 693.589,-75.5301 702.676,-80.977 704.09,-74.1212"/>
</g>
<!-- Node14 -->
<g id="node14" class="node"><title>Node14</title>
<g id="a_node14"><a xlink:href="Quality_8h.html" target="_top" xlink:title="QualityControl/Quality.h">
<polygon fill="none" stroke="black" points="234,-56.5 234,-75.5 355,-75.5 355,-56.5 234,-56.5"/>
<text text-anchor="middle" x="294.5" y="-63.5" font-family="Helvetica,sans-Serif" font-size="10.00">QualityControl/Quality.h</text>
</a>
</g>
</g>
<!-- Node1&#45;&gt;Node14 -->
<g id="edge21" class="edge"><title>Node1&#45;&gt;Node14</title>
<path fill="none" stroke="midnightblue" d="M364.425,-226.8C337.689,-219.366 308.184,-207.34 286.5,-188 259.749,-164.14 247.867,-145.906 259.5,-112 263.219,-101.161 270.733,-90.9216 277.849,-82.9566"/>
<polygon fill="midnightblue" stroke="midnightblue" points="280.554,-85.1922 284.944,-75.5497 275.499,-80.3498 280.554,-85.1922"/>
</g>
<!-- Node15 -->
<g id="node15" class="node"><title>Node15</title>
<g id="a_node15"><a xlink:href="QcInfoLogger_8h.html" target="_top" xlink:title="QualityControl/QcInfoLogger.h">
<polygon fill="none" stroke="black" points="435,-168.5 435,-187.5 584,-187.5 584,-168.5 435,-168.5"/>
<text text-anchor="middle" x="509.5" y="-175.5" font-family="Helvetica,sans-Serif" font-size="10.00">QualityControl/QcInfoLogger.h</text>
</a>
</g>
</g>
<!-- Node1&#45;&gt;Node15 -->
<g id="edge22" class="edge"><title>Node1&#45;&gt;Node15</title>
<path fill="none" stroke="midnightblue" d="M449.985,-224.399C462.02,-215.218 477.7,-203.258 489.943,-193.918"/>
<polygon fill="midnightblue" stroke="midnightblue" points="492.322,-196.506 498.15,-187.658 488.077,-190.94 492.322,-196.506"/>
</g>
<!-- Node18 -->
<g id="node18" class="node"><title>Node18</title>
<polygon fill="none" stroke="#bfbfbf" points="810.5,-112.5 810.5,-131.5 932.5,-131.5 932.5,-112.5 810.5,-112.5"/>
<text text-anchor="middle" x="871.5" y="-119.5" font-family="Helvetica,sans-Serif" font-size="10.00">DataFormatsFT0/Digit.h</text>
</g>
<!-- Node1&#45;&gt;Node18 -->
<g id="edge25" class="edge"><title>Node1&#45;&gt;Node18</title>
<path fill="none" stroke="midnightblue" d="M498.828,-233.782C589.317,-226.659 744.794,-211.45 796.5,-188 821.127,-176.831 843.745,-154.928 857.563,-139.649"/>
<polygon fill="midnightblue" stroke="midnightblue" points="860.344,-141.785 864.291,-131.953 855.074,-137.178 860.344,-141.785"/>
</g>
<!-- Node19 -->
<g id="node19" class="node"><title>Node19</title>
<polygon fill="none" stroke="#bfbfbf" points="1088,-112.5 1088,-131.5 1247,-131.5 1247,-112.5 1088,-112.5"/>
<text text-anchor="middle" x="1167.5" y="-119.5" font-family="Helvetica,sans-Serif" font-size="10.00">DataFormatsFT0/ChannelData.h</text>
</g>
<!-- Node1&#45;&gt;Node19 -->
<g id="edge26" class="edge"><title>Node1&#45;&gt;Node19</title>
<path fill="none" stroke="midnightblue" d="M498.612,-235.969C633.772,-230.364 934.313,-215.201 1033.5,-188 1075.25,-176.55 1119.71,-152.272 1145.48,-136.844"/>
<polygon fill="midnightblue" stroke="midnightblue" points="1147.36,-139.793 1154.08,-131.601 1143.72,-133.815 1147.36,-139.793"/>
</g>
<!-- Node20 -->
<g id="node20" class="node"><title>Node20</title>
<g id="a_node20"><a xlink:href="Utilities_8h.html" target="_top" xlink:title="FT0/Utilities.h">
<polygon fill="none" stroke="black" points="946.5,-168.5 946.5,-187.5 1024.5,-187.5 1024.5,-168.5 946.5,-168.5"/>
<text text-anchor="middle" x="985.5" y="-175.5" font-family="Helvetica,sans-Serif" font-size="10.00">FT0/Utilities.h</text>
</a>
</g>
</g>
<!-- Node1&#45;&gt;Node20 -->
<g id="edge27" class="edge"><title>Node1&#45;&gt;Node20</title>
<path fill="none" stroke="midnightblue" d="M498.601,-231.293C611.423,-219.176 836.532,-194.999 936.134,-184.302"/>
<polygon fill="midnightblue" stroke="midnightblue" points="936.658,-187.766 946.227,-183.218 935.91,-180.806 936.658,-187.766"/>
</g>
<!-- Node6 -->
<g id="node6" class="node"><title>Node6</title>
<g id="a_node6"><a xlink:href="CheckInterface_8h.html" target="_top" xlink:title="QualityControl/CheckInterface.h">
<polygon fill="none" stroke="black" points="269,-112.5 269,-131.5 426,-131.5 426,-112.5 269,-112.5"/>
<text text-anchor="middle" x="347.5" y="-119.5" font-family="Helvetica,sans-Serif" font-size="10.00">QualityControl/CheckInterface.h</text>
</a>
</g>
</g>
<!-- Node5&#45;&gt;Node6 -->
<g id="edge5" class="edge"><title>Node5&#45;&gt;Node6</title>
<path fill="none" stroke="midnightblue" d="M352.509,-168.083C351.714,-160.927 350.571,-150.635 349.577,-141.691"/>
<polygon fill="midnightblue" stroke="midnightblue" points="353.055,-141.303 348.472,-131.751 346.098,-142.076 353.055,-141.303"/>
</g>
<!-- Node7 -->
<g id="node7" class="node"><title>Node7</title>
<polygon fill="none" stroke="#bfbfbf" points="449,-0.5 449,-19.5 490,-19.5 490,-0.5 449,-0.5"/>
<text text-anchor="middle" x="469.5" y="-7.5" font-family="Helvetica,sans-Serif" font-size="10.00">string</text>
</g>
<!-- Node6&#45;&gt;Node7 -->
<g id="edge6" class="edge"><title>Node6&#45;&gt;Node7</title>
<path fill="none" stroke="midnightblue" d="M405.844,-112.486C428.066,-106.17 451.409,-95.1664 465.5,-76 475.223,-62.7747 475.204,-43.6435 473.366,-29.5593"/>
<polygon fill="midnightblue" stroke="midnightblue" points="476.791,-28.8211 471.653,-19.5552 469.891,-30.0025 476.791,-28.8211"/>
</g>
<!-- Node8 -->
<g id="node8" class="node"><title>Node8</title>
<polygon fill="none" stroke="#bfbfbf" points="277,-0.5 277,-19.5 312,-19.5 312,-0.5 277,-0.5"/>
<text text-anchor="middle" x="294.5" y="-7.5" font-family="Helvetica,sans-Serif" font-size="10.00">map</text>
</g>
<!-- Node6&#45;&gt;Node8 -->
<g id="edge7" class="edge"><title>Node6&#45;&gt;Node8</title>
<path fill="none" stroke="midnightblue" d="M282.267,-112.47C260.231,-106.123 237.852,-95.103 224.5,-76 208.999,-53.8224 241.689,-33.5114 267.44,-21.696"/>
<polygon fill="midnightblue" stroke="midnightblue" points="269.083,-24.7982 276.855,-17.5975 266.289,-18.38 269.083,-24.7982"/>
</g>
<!-- Node9 -->
<g id="node9" class="node"><title>Node9</title>
<polygon fill="none" stroke="#bfbfbf" points="373,-56.5 373,-75.5 456,-75.5 456,-56.5 373,-56.5"/>
<text text-anchor="middle" x="414.5" y="-63.5" font-family="Helvetica,sans-Serif" font-size="10.00">unordered_map</text>
</g>
<!-- Node6&#45;&gt;Node9 -->
<g id="edge8" class="edge"><title>Node6&#45;&gt;Node9</title>
<path fill="none" stroke="midnightblue" d="M358.265,-112.324C368.266,-104.263 383.387,-92.0765 395.43,-82.3695"/>
<polygon fill="midnightblue" stroke="midnightblue" points="397.95,-84.8343 403.539,-75.8339 393.557,-79.3841 397.95,-84.8343"/>
</g>
<!-- Node10 -->
<g id="node10" class="node"><title>Node10</title>
<polygon fill="none" stroke="#bfbfbf" points="508.5,-0.5 508.5,-19.5 564.5,-19.5 564.5,-0.5 508.5,-0.5"/>
<text text-anchor="middle" x="536.5" y="-7.5" font-family="Helvetica,sans-Serif" font-size="10.00">Rtypes.h</text>
</g>
<!-- Node6&#45;&gt;Node10 -->
<g id="edge9" class="edge"><title>Node6&#45;&gt;Node10</title>
<path fill="none" stroke="midnightblue" d="M393.203,-112.432C420.793,-105.707 455.681,-94.3347 482.5,-76 500.78,-63.5028 516.276,-43.1465 525.917,-28.5429"/>
<polygon fill="midnightblue" stroke="midnightblue" points="528.985,-30.2389 531.377,-19.9174 523.071,-26.495 528.985,-30.2389"/>
</g>
<!-- Node6&#45;&gt;Node11 -->
<g id="edge10" class="edge"><title>Node6&#45;&gt;Node11</title>
<path fill="none" stroke="midnightblue" d="M391.708,-112.444C440.787,-102.944 520.01,-87.611 572.664,-77.4198"/>
<polygon fill="midnightblue" stroke="midnightblue" points="573.346,-80.853 582.498,-75.5164 572.016,-73.9805 573.346,-80.853"/>
</g>
<!-- Node6&#45;&gt;Node14 -->
<g id="edge16" class="edge"><title>Node6&#45;&gt;Node14</title>
<path fill="none" stroke="midnightblue" d="M338.748,-112.083C331.03,-104.22 319.595,-92.5688 310.283,-83.0813"/>
<polygon fill="midnightblue" stroke="midnightblue" points="312.592,-80.4363 303.089,-75.7511 307.596,-85.3396 312.592,-80.4363"/>
</g>
<!-- Node11&#45;&gt;Node7 -->
<g id="edge11" class="edge"><title>Node11&#45;&gt;Node7</title>
<path fill="none" stroke="midnightblue" d="M601.623,-56.4435C574.088,-46.973 529.693,-31.7032 500.063,-21.512"/>
<polygon fill="midnightblue" stroke="midnightblue" points="500.844,-18.0797 490.25,-18.1368 498.568,-24.6991 500.844,-18.0797"/>
</g>
<!-- Node11&#45;&gt;Node8 -->
<g id="edge12" class="edge"><title>Node11&#45;&gt;Node8</title>
<path fill="none" stroke="midnightblue" d="M573.894,-56.4435C502.585,-44.8452 377.802,-24.5492 322.384,-15.5354"/>
<polygon fill="midnightblue" stroke="midnightblue" points="322.694,-12.0398 312.262,-13.889 321.57,-18.949 322.694,-12.0398"/>
</g>
<!-- Node11&#45;&gt;Node10 -->
<g id="edge13" class="edge"><title>Node11&#45;&gt;Node10</title>
<path fill="none" stroke="midnightblue" d="M612.04,-56.324C598,-47.9002 576.452,-34.9709 559.957,-25.0741"/>
<polygon fill="midnightblue" stroke="midnightblue" points="561.3,-21.7983 550.924,-19.6545 557.698,-27.8007 561.3,-21.7983"/>
</g>
<!-- Node12 -->
<g id="node12" class="node"><title>Node12</title>
<polygon fill="none" stroke="#bfbfbf" points="854,-0.5 854,-19.5 913,-19.5 913,-0.5 854,-0.5"/>
<text text-anchor="middle" x="883.5" y="-7.5" font-family="Helvetica,sans-Serif" font-size="10.00">TObject.h</text>
</g>
<!-- Node11&#45;&gt;Node12 -->
<g id="edge14" class="edge"><title>Node11&#45;&gt;Node12</title>
<path fill="none" stroke="midnightblue" d="M667.222,-56.4435C715.616,-46.2753 795.825,-29.422 843.776,-19.3468"/>
<polygon fill="midnightblue" stroke="midnightblue" points="844.718,-22.7253 853.784,-17.2437 843.278,-15.8749 844.718,-22.7253"/>
</g>
<!-- Node13 -->
<g id="node13" class="node"><title>Node13</title>
<polygon fill="none" stroke="#bfbfbf" points="582.5,-0.5 582.5,-19.5 698.5,-19.5 698.5,-0.5 582.5,-0.5"/>
<text text-anchor="middle" x="640.5" y="-7.5" font-family="Helvetica,sans-Serif" font-size="10.00">Common/Exceptions.h</text>
</g>
<!-- Node11&#45;&gt;Node13 -->
<g id="edge15" class="edge"><title>Node11&#45;&gt;Node13</title>
<path fill="none" stroke="midnightblue" d="M628.812,-56.083C630.667,-48.9272 633.335,-38.6353 635.654,-29.6911"/>
<polygon fill="midnightblue" stroke="midnightblue" points="639.109,-30.3094 638.231,-19.7511 632.334,-28.5527 639.109,-30.3094"/>
</g>
<!-- Node14&#45;&gt;Node7 -->
<g id="edge18" class="edge"><title>Node14&#45;&gt;Node7</title>
<path fill="none" stroke="midnightblue" d="M322.229,-56.4435C354.109,-46.6063 406.266,-30.5122 439.193,-20.3518"/>
<polygon fill="midnightblue" stroke="midnightblue" points="440.227,-23.6956 448.751,-17.4026 438.163,-17.0068 440.227,-23.6956"/>
</g>
<!-- Node14&#45;&gt;Node8 -->
<g id="edge19" class="edge"><title>Node14&#45;&gt;Node8</title>
<path fill="none" stroke="midnightblue" d="M294.5,-56.083C294.5,-49.0059 294.5,-38.8611 294.5,-29.9865"/>
<polygon fill="midnightblue" stroke="midnightblue" points="298,-29.751 294.5,-19.7511 291,-29.7511 298,-29.751"/>
</g>
<!-- Node14&#45;&gt;Node10 -->
<g id="edge17" class="edge"><title>Node14&#45;&gt;Node10</title>
<path fill="none" stroke="midnightblue" d="M334.627,-56.4711C373.897,-48.0621 435.671,-34.6698 498.196,-20.2649"/>
<polygon fill="midnightblue" stroke="midnightblue" points="499.279,-23.6069 508.234,-17.9449 497.702,-16.7867 499.279,-23.6069"/>
</g>
<!-- Node16 -->
<g id="node16" class="node"><title>Node16</title>
<polygon fill="none" stroke="#bfbfbf" points="444.5,-112.5 444.5,-131.5 574.5,-131.5 574.5,-112.5 444.5,-112.5"/>
<text text-anchor="middle" x="509.5" y="-119.5" font-family="Helvetica,sans-Serif" font-size="10.00">InfoLogger/InfoLogger.hxx</text>
</g>
<!-- Node15&#45;&gt;Node16 -->
<g id="edge23" class="edge"><title>Node15&#45;&gt;Node16</title>
<path fill="none" stroke="midnightblue" d="M509.5,-168.083C509.5,-161.006 509.5,-150.861 509.5,-141.986"/>
<polygon fill="midnightblue" stroke="midnightblue" points="513,-141.751 509.5,-131.751 506,-141.751 513,-141.751"/>
</g>
<!-- Node17 -->
<g id="node17" class="node"><title>Node17</title>
<polygon fill="none" stroke="#bfbfbf" points="592.5,-112.5 592.5,-131.5 754.5,-131.5 754.5,-112.5 592.5,-112.5"/>
<text text-anchor="middle" x="673.5" y="-119.5" font-family="Helvetica,sans-Serif" font-size="10.00">InfoLogger/InfoLoggerMacros.hxx</text>
</g>
<!-- Node15&#45;&gt;Node17 -->
<g id="edge24" class="edge"><title>Node15&#45;&gt;Node17</title>
<path fill="none" stroke="midnightblue" d="M535.486,-168.444C563.196,-159.32 607.252,-144.813 638.116,-134.651"/>
<polygon fill="midnightblue" stroke="midnightblue" points="639.232,-137.968 647.635,-131.516 637.042,-131.32 639.232,-137.968"/>
</g>
<!-- Node20&#45;&gt;Node10 -->
<g id="edge31" class="edge"><title>Node20&#45;&gt;Node10</title>
<path fill="none" stroke="midnightblue" d="M982.089,-168.335C976.088,-154.254 962.274,-126.521 941.5,-112 937.655,-109.312 674.803,-44.8309 574.666,-20.3293"/>
<polygon fill="midnightblue" stroke="midnightblue" points="575.21,-16.8592 564.665,-17.8827 573.547,-23.6587 575.21,-16.8592"/>
</g>
<!-- Node20&#45;&gt;Node12 -->
<g id="edge32" class="edge"><title>Node20&#45;&gt;Node12</title>
<path fill="none" stroke="midnightblue" d="M1002.43,-168.492C1022.66,-157.069 1052.48,-135.479 1041.5,-112 1019.13,-64.1482 961.649,-36.3818 922.549,-22.4624"/>
<polygon fill="midnightblue" stroke="midnightblue" points="923.631,-19.1337 913.036,-19.2182 921.371,-25.7589 923.631,-19.1337"/>
</g>
<!-- Node20&#45;&gt;Node18 -->
<g id="edge29" class="edge"><title>Node20&#45;&gt;Node18</title>
<path fill="none" stroke="midnightblue" d="M967.436,-168.444C948.925,-159.675 919.919,-145.935 898.645,-135.858"/>
<polygon fill="midnightblue" stroke="midnightblue" points="900.015,-132.634 889.479,-131.516 897.018,-138.96 900.015,-132.634"/>
</g>
<!-- Node20&#45;&gt;Node19 -->
<g id="edge30" class="edge"><title>Node20&#45;&gt;Node19</title>
<path fill="none" stroke="midnightblue" d="M1014.34,-168.444C1045.36,-159.241 1094.83,-144.562 1129.12,-134.388"/>
<polygon fill="midnightblue" stroke="midnightblue" points="1130.21,-137.716 1138.8,-131.516 1128.21,-131.006 1130.21,-137.716"/>
</g>
<!-- Node21 -->
<g id="node21" class="node"><title>Node21</title>
<polygon fill="none" stroke="#bfbfbf" points="988.5,-112.5 988.5,-131.5 1032.5,-131.5 1032.5,-112.5 988.5,-112.5"/>
<text text-anchor="middle" x="1010.5" y="-119.5" font-family="Helvetica,sans-Serif" font-size="10.00">vector</text>
</g>
<!-- Node20&#45;&gt;Node21 -->
<g id="edge28" class="edge"><title>Node20&#45;&gt;Node21</title>
<path fill="none" stroke="midnightblue" d="M989.628,-168.083C993.014,-160.77 997.916,-150.181 1002.12,-141.103"/>
<polygon fill="midnightblue" stroke="midnightblue" points="1005.42,-142.296 1006.45,-131.751 999.071,-139.355 1005.42,-142.296"/>
</g>
</g>
</svg>
