<?xml version="1.0" encoding="UTF-8" standalone="no"?>
<!DOCTYPE svg PUBLIC "-//W3C//DTD SVG 1.1//EN"
 "http://www.w3.org/Graphics/SVG/1.1/DTD/svg11.dtd">
<!-- Generated by graphviz version 2.38.0 (20140413.2041)
 -->
<!-- Title: Modules/TOF/src/CheckCompressedData.cxx Pages: 1 -->
<!--zoomable 263 -->
<svg id="main" version="1.1" xmlns="http://www.w3.org/2000/svg" xmlns:xlink="http://www.w3.org/1999/xlink" xml:space="preserve" onload="init(evt)">
<style type="text/css"><![CDATA[
.edge:hover path { stroke: red; }
.edge:hover polygon { stroke: red; fill: red; }
]]></style>
<script type="text/javascript"><![CDATA[
var edges = document.getElementsByTagName('g');
if (edges && edges.length) {
  for (var i=0;i<edges.length;i++) {
    if (edges[i].id.substr(0,4)=='edge') {
      edges[i].setAttribute('class','edge');
    }
  }
}
]]></script>
        <defs>
                <circle id="rim" cx="0" cy="0" r="7"/>
                <circle id="rim2" cx="0" cy="0" r="3.5"/>
                <g id="zoomPlus">
                        <use xlink:href="#rim" fill="#404040">
                                <set attributeName="fill" to="#808080" begin="zoomplus.mouseover" end="zoomplus.mouseout"/>
                        </use>
                        <path d="M-4,0h8M0,-4v8" fill="none" stroke="white" stroke-width="1.5" pointer-events="none"/>
                </g>
                <g id="zoomMin">
                        <use xlink:href="#rim" fill="#404040">
                                <set attributeName="fill" to="#808080" begin="zoomminus.mouseover" end="zoomminus.mouseout"/>
                        </use>
                        <path d="M-4,0h8" fill="none" stroke="white" stroke-width="1.5" pointer-events="none"/>
                </g>
                <g id="dirArrow">
                        <path fill="none" stroke="white" stroke-width="1.5" d="M0,-3.0v7 M-2.5,-0.5L0,-3.0L2.5,-0.5"/>
                </g>
               <g id="resetDef">
                       <use xlink:href="#rim2" fill="#404040">
                               <set attributeName="fill" to="#808080" begin="reset.mouseover" end="reset.mouseout"/>
                       </use>
               </g>
        </defs>

<script type="text/javascript">
var viewWidth = 898;
var viewHeight = 263;
var sectionId = 'dynsection-0';
</script>
<script xlink:href="svgpan.js"/>
<svg id="graph" class="graph">
<g id="viewport">
<title>Modules/TOF/src/CheckCompressedData.cxx</title>
<!-- Node1 -->
<g id="node1" class="node"><title>Node1</title>
<polygon fill="#bfbfbf" stroke="black" points="591,-224.5 591,-254.5 770,-254.5 770,-224.5 591,-224.5"/>
<text text-anchor="start" x="599" y="-242.5" font-family="Helvetica,sans-Serif" font-size="10.00">Modules/TOF/src/CheckCompressed</text>
<text text-anchor="middle" x="680.5" y="-231.5" font-family="Helvetica,sans-Serif" font-size="10.00">Data.cxx</text>
</g>
<!-- Node2 -->
<g id="node2" class="node"><title>Node2</title>
<g id="a_node2"><a xlink:href="CheckCompressedData_8h.html" target="_top" xlink:title="Checker for the raw compressed data for TOF. ">
<polygon fill="none" stroke="black" points="274.5,-168.5 274.5,-187.5 426.5,-187.5 426.5,-168.5 274.5,-168.5"/>
<text text-anchor="middle" x="350.5" y="-175.5" font-family="Helvetica,sans-Serif" font-size="10.00">TOF/CheckCompressedData.h</text>
</a>
</g>
</g>
<!-- Node1&#45;&gt;Node2 -->
<g id="edge1" class="edge"><title>Node1&#45;&gt;Node2</title>
<path fill="none" stroke="midnightblue" d="M602.712,-224.475C542.922,-213.694 461.69,-199.048 407.753,-189.323"/>
<polygon fill="midnightblue" stroke="midnightblue" points="408.141,-185.836 397.678,-187.506 406.898,-192.725 408.141,-185.836"/>
</g>
<!-- Node12 -->
<g id="node12" class="node"><title>Node12</title>
<g id="a_node12"><a xlink:href="QcInfoLogger_8h.html" target="_top" xlink:title="QualityControl/QcInfoLogger.h">
<polygon fill="none" stroke="black" points="461,-168.5 461,-187.5 610,-187.5 610,-168.5 461,-168.5"/>
<text text-anchor="middle" x="535.5" y="-175.5" font-family="Helvetica,sans-Serif" font-size="10.00">QualityControl/QcInfoLogger.h</text>
</a>
</g>
</g>
<!-- Node1&#45;&gt;Node12 -->
<g id="edge19" class="edge"><title>Node1&#45;&gt;Node12</title>
<path fill="none" stroke="midnightblue" d="M646.137,-224.399C621.809,-214.416 589.471,-201.147 566.044,-191.534"/>
<polygon fill="midnightblue" stroke="midnightblue" points="567.179,-188.216 556.599,-187.658 564.521,-194.692 567.179,-188.216"/>
</g>
<!-- Node15 -->
<g id="node15" class="node"><title>Node15</title>
<polygon fill="none" stroke="#bfbfbf" points="627.5,-168.5 627.5,-187.5 671.5,-187.5 671.5,-168.5 627.5,-168.5"/>
<text text-anchor="middle" x="649.5" y="-175.5" font-family="Helvetica,sans-Serif" font-size="10.00">TH1.h</text>
</g>
<!-- Node1&#45;&gt;Node15 -->
<g id="edge22" class="edge"><title>Node1&#45;&gt;Node15</title>
<path fill="none" stroke="midnightblue" d="M673.153,-224.399C668.835,-216.11 663.335,-205.554 658.726,-196.708"/>
<polygon fill="midnightblue" stroke="midnightblue" points="661.735,-194.909 654.011,-187.658 655.527,-198.144 661.735,-194.909"/>
</g>
<!-- Node16 -->
<g id="node16" class="node"><title>Node16</title>
<polygon fill="none" stroke="#bfbfbf" points="689.5,-168.5 689.5,-187.5 733.5,-187.5 733.5,-168.5 689.5,-168.5"/>
<text text-anchor="middle" x="711.5" y="-175.5" font-family="Helvetica,sans-Serif" font-size="10.00">TH2.h</text>
</g>
<!-- Node1&#45;&gt;Node16 -->
<g id="edge23" class="edge"><title>Node1&#45;&gt;Node16</title>
<path fill="none" stroke="midnightblue" d="M687.847,-224.399C692.165,-216.11 697.665,-205.554 702.274,-196.708"/>
<polygon fill="midnightblue" stroke="midnightblue" points="705.473,-198.144 706.989,-187.658 699.265,-194.909 705.473,-198.144"/>
</g>
<!-- Node17 -->
<g id="node17" class="node"><title>Node17</title>
<polygon fill="none" stroke="#bfbfbf" points="752,-168.5 752,-187.5 825,-187.5 825,-168.5 752,-168.5"/>
<text text-anchor="middle" x="788.5" y="-175.5" font-family="Helvetica,sans-Serif" font-size="10.00">TPaveText.h</text>
</g>
<!-- Node1&#45;&gt;Node17 -->
<g id="edge24" class="edge"><title>Node1&#45;&gt;Node17</title>
<path fill="none" stroke="midnightblue" d="M706.094,-224.399C723.568,-214.773 746.588,-202.09 763.856,-192.577"/>
<polygon fill="midnightblue" stroke="midnightblue" points="765.715,-195.549 772.785,-187.658 762.337,-189.418 765.715,-195.549"/>
</g>
<!-- Node18 -->
<g id="node18" class="node"><title>Node18</title>
<polygon fill="none" stroke="#bfbfbf" points="843,-168.5 843,-187.5 890,-187.5 890,-168.5 843,-168.5"/>
<text text-anchor="middle" x="866.5" y="-175.5" font-family="Helvetica,sans-Serif" font-size="10.00">TList.h</text>
</g>
<!-- Node1&#45;&gt;Node18 -->
<g id="edge25" class="edge"><title>Node1&#45;&gt;Node18</title>
<path fill="none" stroke="midnightblue" d="M724.579,-224.399C757.878,-213.747 802.873,-199.354 833.199,-189.653"/>
<polygon fill="midnightblue" stroke="midnightblue" points="834.424,-192.936 842.883,-186.555 832.292,-186.268 834.424,-192.936"/>
</g>
<!-- Node3 -->
<g id="node3" class="node"><title>Node3</title>
<g id="a_node3"><a xlink:href="CheckInterface_8h.html" target="_top" xlink:title="QualityControl/CheckInterface.h">
<polygon fill="none" stroke="black" points="257,-112.5 257,-131.5 414,-131.5 414,-112.5 257,-112.5"/>
<text text-anchor="middle" x="335.5" y="-119.5" font-family="Helvetica,sans-Serif" font-size="10.00">QualityControl/CheckInterface.h</text>
</a>
</g>
</g>
<!-- Node2&#45;&gt;Node3 -->
<g id="edge2" class="edge"><title>Node2&#45;&gt;Node3</title>
<path fill="none" stroke="midnightblue" d="M348.023,-168.083C346.014,-160.849 343.114,-150.409 340.61,-141.397"/>
<polygon fill="midnightblue" stroke="midnightblue" points="343.98,-140.449 337.931,-131.751 337.235,-142.323 343.98,-140.449"/>
</g>
<!-- Node8 -->
<g id="node8" class="node"><title>Node8</title>
<g id="a_node8"><a xlink:href="MonitorObject_8h.html" target="_top" xlink:title="QualityControl/MonitorObject.h">
<polygon fill="none" stroke="black" points="60,-56.5 60,-75.5 211,-75.5 211,-56.5 60,-56.5"/>
<text text-anchor="middle" x="135.5" y="-63.5" font-family="Helvetica,sans-Serif" font-size="10.00">QualityControl/MonitorObject.h</text>
</a>
</g>
</g>
<!-- Node2&#45;&gt;Node8 -->
<g id="edge17" class="edge"><title>Node2&#45;&gt;Node8</title>
<path fill="none" stroke="midnightblue" d="M328.866,-168.391C307.793,-159.809 275.005,-145.933 247.5,-132 215.562,-115.822 180.018,-94.6182 157.714,-80.9023"/>
<polygon fill="midnightblue" stroke="midnightblue" points="159.36,-77.805 149.015,-75.5189 155.677,-83.7574 159.36,-77.805"/>
</g>
<!-- Node11 -->
<g id="node11" class="node"><title>Node11</title>
<g id="a_node11"><a xlink:href="Quality_8h.html" target="_top" xlink:title="QualityControl/Quality.h">
<polygon fill="none" stroke="black" points="408,-56.5 408,-75.5 529,-75.5 529,-56.5 408,-56.5"/>
<text text-anchor="middle" x="468.5" y="-63.5" font-family="Helvetica,sans-Serif" font-size="10.00">QualityControl/Quality.h</text>
</a>
</g>
</g>
<!-- Node2&#45;&gt;Node11 -->
<g id="edge18" class="edge"><title>Node2&#45;&gt;Node11</title>
<path fill="none" stroke="midnightblue" d="M368.428,-168.37C383.881,-160.363 406.21,-147.383 422.5,-132 437.364,-117.964 450.404,-98.4554 458.768,-84.4797"/>
<polygon fill="midnightblue" stroke="midnightblue" points="461.798,-86.2319 463.777,-75.8234 455.739,-82.7262 461.798,-86.2319"/>
</g>
<!-- Node4 -->
<g id="node4" class="node"><title>Node4</title>
<polygon fill="none" stroke="#bfbfbf" points="359,-0.5 359,-19.5 400,-19.5 400,-0.5 359,-0.5"/>
<text text-anchor="middle" x="379.5" y="-7.5" font-family="Helvetica,sans-Serif" font-size="10.00">string</text>
</g>
<!-- Node3&#45;&gt;Node4 -->
<g id="edge3" class="edge"><title>Node3&#45;&gt;Node4</title>
<path fill="none" stroke="midnightblue" d="M340.798,-112.28C346.044,-103.388 354.059,-89.08 359.5,-76 365.877,-60.6702 371.283,-42.5686 374.861,-29.3661"/>
<polygon fill="midnightblue" stroke="midnightblue" points="378.271,-30.157 377.417,-19.5967 371.499,-28.385 378.271,-30.157"/>
</g>
<!-- Node5 -->
<g id="node5" class="node"><title>Node5</title>
<polygon fill="none" stroke="#bfbfbf" points="451,-0.5 451,-19.5 486,-19.5 486,-0.5 451,-0.5"/>
<text text-anchor="middle" x="468.5" y="-7.5" font-family="Helvetica,sans-Serif" font-size="10.00">map</text>
</g>
<!-- Node3&#45;&gt;Node5 -->
<g id="edge4" class="edge"><title>Node3&#45;&gt;Node5</title>
<path fill="none" stroke="midnightblue" d="M414.264,-113.531C464.088,-106.991 521.936,-95.4122 537.5,-76 554.37,-54.9582 521.367,-34.2203 495.43,-22.0196"/>
<polygon fill="midnightblue" stroke="midnightblue" points="496.856,-18.8233 486.299,-17.9261 493.992,-25.2108 496.856,-18.8233"/>
</g>
<!-- Node6 -->
<g id="node6" class="node"><title>Node6</title>
<polygon fill="none" stroke="#bfbfbf" points="268,-56.5 268,-75.5 351,-75.5 351,-56.5 268,-56.5"/>
<text text-anchor="middle" x="309.5" y="-63.5" font-family="Helvetica,sans-Serif" font-size="10.00">unordered_map</text>
</g>
<!-- Node3&#45;&gt;Node6 -->
<g id="edge5" class="edge"><title>Node3&#45;&gt;Node6</title>
<path fill="none" stroke="midnightblue" d="M331.207,-112.083C327.648,-104.691 322.478,-93.9533 318.076,-84.8111"/>
<polygon fill="midnightblue" stroke="midnightblue" points="321.205,-83.2427 313.713,-75.7511 314.898,-86.2795 321.205,-83.2427"/>
</g>
<!-- Node7 -->
<g id="node7" class="node"><title>Node7</title>
<polygon fill="none" stroke="#bfbfbf" points="211.5,-0.5 211.5,-19.5 267.5,-19.5 267.5,-0.5 211.5,-0.5"/>
<text text-anchor="middle" x="239.5" y="-7.5" font-family="Helvetica,sans-Serif" font-size="10.00">Rtypes.h</text>
</g>
<!-- Node3&#45;&gt;Node7 -->
<g id="edge6" class="edge"><title>Node3&#45;&gt;Node7</title>
<path fill="none" stroke="midnightblue" d="M311.343,-112.485C294.246,-105.277 272.035,-93.3267 258.5,-76 248.106,-62.6944 243.394,-43.862 241.261,-29.8908"/>
<polygon fill="midnightblue" stroke="midnightblue" points="244.73,-29.4283 240.043,-19.9268 237.782,-30.2775 244.73,-29.4283"/>
</g>
<!-- Node3&#45;&gt;Node8 -->
<g id="edge7" class="edge"><title>Node3&#45;&gt;Node8</title>
<path fill="none" stroke="midnightblue" d="M303.809,-112.444C269.432,-103.162 214.423,-88.3093 176.711,-78.127"/>
<polygon fill="midnightblue" stroke="midnightblue" points="177.609,-74.7442 167.042,-75.5164 175.784,-81.5022 177.609,-74.7442"/>
</g>
<!-- Node3&#45;&gt;Node11 -->
<g id="edge13" class="edge"><title>Node3&#45;&gt;Node11</title>
<path fill="none" stroke="midnightblue" d="M356.574,-112.444C378.56,-103.517 413.234,-89.4387 438.164,-79.3168"/>
<polygon fill="midnightblue" stroke="midnightblue" points="439.576,-82.5213 447.524,-75.5164 436.942,-76.0355 439.576,-82.5213"/>
</g>
<!-- Node8&#45;&gt;Node4 -->
<g id="edge8" class="edge"><title>Node8&#45;&gt;Node4</title>
<path fill="none" stroke="midnightblue" d="M174.163,-56.4435C222.556,-45.7335 304.46,-27.6072 348.792,-17.7961"/>
<polygon fill="midnightblue" stroke="midnightblue" points="349.685,-21.1831 358.693,-15.6049 348.173,-14.3485 349.685,-21.1831"/>
</g>
<!-- Node8&#45;&gt;Node5 -->
<g id="edge9" class="edge"><title>Node8&#45;&gt;Node5</title>
<path fill="none" stroke="midnightblue" d="M188.265,-56.4435C259.788,-44.8452 384.947,-24.5492 440.532,-15.5354"/>
<polygon fill="midnightblue" stroke="midnightblue" points="441.374,-18.9446 450.685,-13.889 440.253,-12.0349 441.374,-18.9446"/>
</g>
<!-- Node8&#45;&gt;Node7 -->
<g id="edge10" class="edge"><title>Node8&#45;&gt;Node7</title>
<path fill="none" stroke="midnightblue" d="M152.209,-56.324C168.812,-47.7034 194.502,-34.3643 213.72,-24.3855"/>
<polygon fill="midnightblue" stroke="midnightblue" points="215.57,-27.3689 222.832,-19.6545 212.344,-21.1565 215.57,-27.3689"/>
</g>
<!-- Node9 -->
<g id="node9" class="node"><title>Node9</title>
<polygon fill="none" stroke="#bfbfbf" points="0,-0.5 0,-19.5 59,-19.5 59,-0.5 0,-0.5"/>
<text text-anchor="middle" x="29.5" y="-7.5" font-family="Helvetica,sans-Serif" font-size="10.00">TObject.h</text>
</g>
<!-- Node8&#45;&gt;Node9 -->
<g id="edge11" class="edge"><title>Node8&#45;&gt;Node9</title>
<path fill="none" stroke="midnightblue" d="M118.469,-56.324C101.47,-47.6641 75.1239,-34.2424 55.5074,-24.249"/>
<polygon fill="midnightblue" stroke="midnightblue" points="56.9876,-21.0752 46.4885,-19.6545 53.8101,-27.3125 56.9876,-21.0752"/>
</g>
<!-- Node10 -->
<g id="node10" class="node"><title>Node10</title>
<polygon fill="none" stroke="#bfbfbf" points="77.5,-0.5 77.5,-19.5 193.5,-19.5 193.5,-0.5 77.5,-0.5"/>
<text text-anchor="middle" x="135.5" y="-7.5" font-family="Helvetica,sans-Serif" font-size="10.00">Common/Exceptions.h</text>
</g>
<!-- Node8&#45;&gt;Node10 -->
<g id="edge12" class="edge"><title>Node8&#45;&gt;Node10</title>
<path fill="none" stroke="midnightblue" d="M135.5,-56.083C135.5,-49.0059 135.5,-38.8611 135.5,-29.9865"/>
<polygon fill="midnightblue" stroke="midnightblue" points="139,-29.751 135.5,-19.7511 132,-29.7511 139,-29.751"/>
</g>
<!-- Node11&#45;&gt;Node4 -->
<g id="edge15" class="edge"><title>Node11&#45;&gt;Node4</title>
<path fill="none" stroke="midnightblue" d="M454.201,-56.324C440.317,-47.9002 419.008,-34.9709 402.696,-25.0741"/>
<polygon fill="midnightblue" stroke="midnightblue" points="404.129,-21.8495 393.764,-19.6545 400.498,-27.8341 404.129,-21.8495"/>
</g>
<!-- Node11&#45;&gt;Node5 -->
<g id="edge16" class="edge"><title>Node11&#45;&gt;Node5</title>
<path fill="none" stroke="midnightblue" d="M468.5,-56.083C468.5,-49.0059 468.5,-38.8611 468.5,-29.9865"/>
<polygon fill="midnightblue" stroke="midnightblue" points="472,-29.751 468.5,-19.7511 465,-29.7511 472,-29.751"/>
</g>
<!-- Node11&#45;&gt;Node7 -->
<g id="edge14" class="edge"><title>Node11&#45;&gt;Node7</title>
<path fill="none" stroke="midnightblue" d="M432.214,-56.4435C389.948,-46.4769 320.446,-30.0877 277.471,-19.954"/>
<polygon fill="midnightblue" stroke="midnightblue" points="278.211,-16.5325 267.675,-17.6439 276.605,-23.3456 278.211,-16.5325"/>
</g>
<!-- Node13 -->
<g id="node13" class="node"><title>Node13</title>
<polygon fill="none" stroke="#bfbfbf" points="470.5,-112.5 470.5,-131.5 600.5,-131.5 600.5,-112.5 470.5,-112.5"/>
<text text-anchor="middle" x="535.5" y="-119.5" font-family="Helvetica,sans-Serif" font-size="10.00">InfoLogger/InfoLogger.hxx</text>
</g>
<!-- Node12&#45;&gt;Node13 -->
<g id="edge20" class="edge"><title>Node12&#45;&gt;Node13</title>
<path fill="none" stroke="midnightblue" d="M535.5,-168.083C535.5,-161.006 535.5,-150.861 535.5,-141.986"/>
<polygon fill="midnightblue" stroke="midnightblue" points="539,-141.751 535.5,-131.751 532,-141.751 539,-141.751"/>
</g>
<!-- Node14 -->
<g id="node14" class="node"><title>Node14</title>
<polygon fill="none" stroke="#bfbfbf" points="618.5,-112.5 618.5,-131.5 780.5,-131.5 780.5,-112.5 618.5,-112.5"/>
<text text-anchor="middle" x="699.5" y="-119.5" font-family="Helvetica,sans-Serif" font-size="10.00">InfoLogger/InfoLoggerMacros.hxx</text>
</g>
<!-- Node12&#45;&gt;Node14 -->
<g id="edge21" class="edge"><title>Node12&#45;&gt;Node14</title>
<path fill="none" stroke="midnightblue" d="M561.486,-168.444C589.196,-159.32 633.252,-144.813 664.116,-134.651"/>
<polygon fill="midnightblue" stroke="midnightblue" points="665.232,-137.968 673.635,-131.516 663.042,-131.32 665.232,-137.968"/>
</g>
</g>
</svg>
        <g id="navigator" transform="translate(0 0)" fill="#404254">
                <rect fill="#f2f5e9" fill-opacity="0.5" stroke="#606060" stroke-width=".5" x="0" y="0" width="60" height="60"/>
                <use id="zoomplus" xlink:href="#zoomPlus" x="17" y="9" onmousedown="handleZoom(evt,'in')"/>
                <use id="zoomminus" xlink:href="#zoomMin" x="42" y="9" onmousedown="handleZoom(evt,'out')"/>
                <use id="reset" xlink:href="#resetDef" x="30" y="36" onmousedown="handleReset()"/>
                <g id="arrowUp" xlink:href="#dirArrow" transform="translate(30 24)" onmousedown="handlePan(0,-1)">
                  <use xlink:href="#rim" fill="#404040">
                        <set attributeName="fill" to="#808080" begin="arrowUp.mouseover" end="arrowUp.mouseout"/>
                  </use>
                  <path fill="none" stroke="white" stroke-width="1.5" d="M0,-3.0v7 M-2.5,-0.5L0,-3.0L2.5,-0.5"/>
                </g>
                <g id="arrowRight" xlink:href="#dirArrow" transform="rotate(90) translate(36 -43)" onmousedown="handlePan(1,0)">
                  <use xlink:href="#rim" fill="#404040">
                        <set attributeName="fill" to="#808080" begin="arrowRight.mouseover" end="arrowRight.mouseout"/>
                  </use>
                  <path fill="none" stroke="white" stroke-width="1.5" d="M0,-3.0v7 M-2.5,-0.5L0,-3.0L2.5,-0.5"/>
                </g>
                <g id="arrowDown" xlink:href="#dirArrow" transform="rotate(180) translate(-30 -48)" onmousedown="handlePan(0,1)">
                  <use xlink:href="#rim" fill="#404040">
                        <set attributeName="fill" to="#808080" begin="arrowDown.mouseover" end="arrowDown.mouseout"/>
                  </use>
                  <path fill="none" stroke="white" stroke-width="1.5" d="M0,-3.0v7 M-2.5,-0.5L0,-3.0L2.5,-0.5"/>
                </g>
                <g id="arrowLeft" xlink:href="#dirArrow" transform="rotate(270) translate(-36 17)" onmousedown="handlePan(-1,0)">
                  <use xlink:href="#rim" fill="#404040">
                        <set attributeName="fill" to="#808080" begin="arrowLeft.mouseover" end="arrowLeft.mouseout"/>
                  </use>
                  <path fill="none" stroke="white" stroke-width="1.5" d="M0,-3.0v7 M-2.5,-0.5L0,-3.0L2.5,-0.5"/>
                </g>
        </g>
        <svg viewBox="0 0 15 15" width="100%" height="30px" preserveAspectRatio="xMaxYMin meet">
         <g id="arrow_out" transform="scale(0.3 0.3)">
          <a xlink:href="CheckCompressedData_8cxx__incl_org.svg" target="_base">
           <rect id="button" ry="5" rx="5" y="6" x="6" height="38" width="38"
                fill="#f2f5e9" fill-opacity="0.5" stroke="#606060" stroke-width="1.0"/>
           <path id="arrow"
             d="M 11.500037,31.436501 C 11.940474,20.09759 22.043105,11.32322 32.158766,21.979434 L 37.068811,17.246167 C 37.068811,17.246167 37.088388,32 37.088388,32 L 22.160133,31.978069 C 22.160133,31.978069 26.997745,27.140456 26.997745,27.140456 C 18.528582,18.264221 13.291696,25.230495 11.500037,31.436501 z"
             style="fill:#404040;"/>
          </a>
         </g>
        </svg>
</svg>
