<?xml version="1.0" encoding="UTF-8" standalone="no"?>
<!DOCTYPE svg PUBLIC "-//W3C//DTD SVG 1.1//EN"
 "http://www.w3.org/Graphics/SVG/1.1/DTD/svg11.dtd">
<!-- Generated by graphviz version 2.38.0 (20140413.2041)
 -->
<!-- Title: Framework/include/QualityControl/CheckRunner.h Pages: 1 -->
<svg width="2303pt" height="274pt"
 viewBox="0.00 0.00 2302.50 274.00" xmlns="http://www.w3.org/2000/svg" xmlns:xlink="http://www.w3.org/1999/xlink">
<g id="graph0" class="graph" transform="scale(1 1) rotate(0) translate(4 270)">
<title>Framework/include/QualityControl/CheckRunner.h</title>
<!-- Node1 -->
<g id="node1" class="node"><title>Node1</title>
<polygon fill="#bfbfbf" stroke="black" points="1223.5,-235.5 1223.5,-265.5 1356.5,-265.5 1356.5,-235.5 1223.5,-235.5"/>
<text text-anchor="start" x="1231.5" y="-253.5" font-family="Helvetica,sans-Serif" font-size="10.00">Framework/include/Quality</text>
<text text-anchor="middle" x="1290" y="-242.5" font-family="Helvetica,sans-Serif" font-size="10.00">Control/CheckRunner.h</text>
</g>
<!-- Node2 -->
<g id="node2" class="node"><title>Node2</title>
<polygon fill="none" stroke="#bfbfbf" points="0,-174 0,-193 46,-193 46,-174 0,-174"/>
<text text-anchor="middle" x="23" y="-181" font-family="Helvetica,sans-Serif" font-size="10.00">chrono</text>
</g>
<!-- Node1&#45;&gt;Node2 -->
<g id="edge1" class="edge"><title>Node1&#45;&gt;Node2</title>
<path fill="none" stroke="midnightblue" d="M1223.15,-249.667C1000.41,-249.768 284.964,-246.307 60,-199 56.9913,-198.367 53.9089,-197.516 50.8697,-196.54"/>
<polygon fill="midnightblue" stroke="midnightblue" points="52.0454,-193.243 41.4513,-193.12 49.656,-199.823 52.0454,-193.243"/>
</g>
<!-- Node3 -->
<g id="node3" class="node"><title>Node3</title>
<polygon fill="none" stroke="#bfbfbf" points="546,-112.5 546,-131.5 598,-131.5 598,-112.5 546,-112.5"/>
<text text-anchor="middle" x="572" y="-119.5" font-family="Helvetica,sans-Serif" font-size="10.00">memory</text>
</g>
<!-- Node1&#45;&gt;Node3 -->
<g id="edge2" class="edge"><title>Node1&#45;&gt;Node3</title>
<path fill="none" stroke="midnightblue" d="M1223.38,-248.174C1062.5,-244.462 662.311,-231.986 612,-199 592.174,-186.001 581.545,-159.832 576.337,-141.866"/>
<polygon fill="midnightblue" stroke="midnightblue" points="579.659,-140.733 573.761,-131.932 572.883,-142.49 579.659,-140.733"/>
</g>
<!-- Node4 -->
<g id="node4" class="node"><title>Node4</title>
<polygon fill="none" stroke="#bfbfbf" points="645.5,-0.5 645.5,-19.5 686.5,-19.5 686.5,-0.5 645.5,-0.5"/>
<text text-anchor="middle" x="666" y="-7.5" font-family="Helvetica,sans-Serif" font-size="10.00">string</text>
</g>
<!-- Node1&#45;&gt;Node4 -->
<g id="edge3" class="edge"><title>Node1&#45;&gt;Node4</title>
<path fill="none" stroke="midnightblue" d="M1223.49,-246.655C1080.82,-239.039 752.693,-212.928 683,-132 658.281,-103.296 659.776,-55.7603 662.941,-29.6325"/>
<polygon fill="midnightblue" stroke="midnightblue" points="666.429,-29.964 664.377,-19.5699 659.499,-28.9754 666.429,-29.964"/>
</g>
<!-- Node5 -->
<g id="node5" class="node"><title>Node5</title>
<polygon fill="none" stroke="#bfbfbf" points="826.5,-0.5 826.5,-19.5 861.5,-19.5 861.5,-0.5 826.5,-0.5"/>
<text text-anchor="middle" x="844" y="-7.5" font-family="Helvetica,sans-Serif" font-size="10.00">map</text>
</g>
<!-- Node1&#45;&gt;Node5 -->
<g id="edge4" class="edge"><title>Node1&#45;&gt;Node5</title>
<path fill="none" stroke="midnightblue" d="M1356.53,-239.738C1395.71,-232.219 1445.39,-219.537 1486,-199 1505.45,-189.163 1504.42,-177.576 1524,-168 1588.31,-136.549 1636.39,-187.993 1681,-132 1702.05,-105.581 1704.23,-80.5172 1681,-56 1652.53,-25.9532 1013.25,-13.7662 871.62,-11.43"/>
<polygon fill="midnightblue" stroke="midnightblue" points="871.639,-7.9299 861.583,-11.2673 871.525,-14.929 871.639,-7.9299"/>
</g>
<!-- Node6 -->
<g id="node6" class="node"><title>Node6</title>
<polygon fill="none" stroke="#bfbfbf" points="1148,-112.5 1148,-131.5 1192,-131.5 1192,-112.5 1148,-112.5"/>
<text text-anchor="middle" x="1170" y="-119.5" font-family="Helvetica,sans-Serif" font-size="10.00">vector</text>
</g>
<!-- Node1&#45;&gt;Node6 -->
<g id="edge5" class="edge"><title>Node1&#45;&gt;Node6</title>
<path fill="none" stroke="midnightblue" d="M1276.7,-235.479C1254.33,-211.899 1209.3,-164.429 1185.52,-139.363"/>
<polygon fill="midnightblue" stroke="midnightblue" points="1187.76,-136.635 1178.34,-131.789 1182.68,-141.452 1187.76,-136.635"/>
</g>
<!-- Node7 -->
<g id="node7" class="node"><title>Node7</title>
<polygon fill="none" stroke="#bfbfbf" points="1533,-174 1533,-193 1611,-193 1611,-174 1533,-174"/>
<text text-anchor="middle" x="1572" y="-181" font-family="Helvetica,sans-Serif" font-size="10.00">unordered_set</text>
</g>
<!-- Node1&#45;&gt;Node7 -->
<g id="edge6" class="edge"><title>Node1&#45;&gt;Node7</title>
<path fill="none" stroke="midnightblue" d="M1356.59,-235.734C1402.4,-226.04 1464.55,-212.442 1519,-199 1523.17,-197.971 1527.51,-196.856 1531.83,-195.716"/>
<polygon fill="midnightblue" stroke="midnightblue" points="1533.05,-199.014 1541.8,-193.043 1531.23,-192.253 1533.05,-199.014"/>
</g>
<!-- Node8 -->
<g id="node8" class="node"><title>Node8</title>
<polygon fill="none" stroke="#bfbfbf" points="1629,-174 1629,-193 1721,-193 1721,-174 1629,-174"/>
<text text-anchor="middle" x="1675" y="-181" font-family="Helvetica,sans-Serif" font-size="10.00">Common/Timer.h</text>
</g>
<!-- Node1&#45;&gt;Node8 -->
<g id="edge7" class="edge"><title>Node1&#45;&gt;Node8</title>
<path fill="none" stroke="midnightblue" d="M1356.74,-241.397C1423.66,-232.778 1529.49,-217.802 1620,-199 1624.82,-197.998 1629.85,-196.837 1634.83,-195.615"/>
<polygon fill="midnightblue" stroke="midnightblue" points="1636.05,-198.916 1644.88,-193.056 1634.32,-192.132 1636.05,-198.916"/>
</g>
<!-- Node9 -->
<g id="node9" class="node"><title>Node9</title>
<polygon fill="none" stroke="#bfbfbf" points="1739,-174 1739,-193 1837,-193 1837,-174 1739,-174"/>
<text text-anchor="middle" x="1788" y="-181" font-family="Helvetica,sans-Serif" font-size="10.00">Framework/Task.h</text>
</g>
<!-- Node1&#45;&gt;Node9 -->
<g id="edge8" class="edge"><title>Node1&#45;&gt;Node9</title>
<path fill="none" stroke="midnightblue" d="M1356.74,-244.572C1443.3,-237.558 1598.74,-222.834 1730,-199 1735.55,-197.992 1741.36,-196.758 1747.07,-195.439"/>
<polygon fill="midnightblue" stroke="midnightblue" points="1748.26,-198.753 1757.16,-193.005 1746.62,-191.948 1748.26,-198.753"/>
</g>
<!-- Node10 -->
<g id="node10" class="node"><title>Node10</title>
<polygon fill="none" stroke="#bfbfbf" points="1855.5,-174 1855.5,-193 1972.5,-193 1972.5,-174 1855.5,-174"/>
<text text-anchor="middle" x="1914" y="-181" font-family="Helvetica,sans-Serif" font-size="10.00">Headers/DataHeader.h</text>
</g>
<!-- Node1&#45;&gt;Node10 -->
<g id="edge9" class="edge"><title>Node1&#45;&gt;Node10</title>
<path fill="none" stroke="midnightblue" d="M1356.64,-246.028C1461.3,-239.995 1670.39,-225.601 1846,-199 1853.14,-197.919 1860.65,-196.551 1867.98,-195.09"/>
<polygon fill="midnightblue" stroke="midnightblue" points="1868.71,-198.512 1877.8,-193.058 1867.3,-191.657 1868.71,-198.512"/>
</g>
<!-- Node11 -->
<g id="node11" class="node"><title>Node11</title>
<polygon fill="none" stroke="#bfbfbf" points="1990.5,-174 1990.5,-193 2141.5,-193 2141.5,-174 1990.5,-174"/>
<text text-anchor="middle" x="2066" y="-181" font-family="Helvetica,sans-Serif" font-size="10.00">Monitoring/MonitoringFactory.h</text>
</g>
<!-- Node1&#45;&gt;Node11 -->
<g id="edge10" class="edge"><title>Node1&#45;&gt;Node11</title>
<path fill="none" stroke="midnightblue" d="M1356.53,-246.818C1480.11,-241.355 1753.33,-227.011 1982,-199 1991.48,-197.838 2001.53,-196.34 2011.25,-194.749"/>
<polygon fill="midnightblue" stroke="midnightblue" points="2011.94,-198.182 2021.22,-193.068 2010.78,-191.279 2011.94,-198.182"/>
</g>
<!-- Node12 -->
<g id="node12" class="node"><title>Node12</title>
<polygon fill="none" stroke="#bfbfbf" points="2159.5,-168.5 2159.5,-198.5 2294.5,-198.5 2294.5,-168.5 2159.5,-168.5"/>
<text text-anchor="start" x="2167.5" y="-186.5" font-family="Helvetica,sans-Serif" font-size="10.00">Configuration/Configuration</text>
<text text-anchor="middle" x="2227" y="-175.5" font-family="Helvetica,sans-Serif" font-size="10.00">Interface.h</text>
</g>
<!-- Node1&#45;&gt;Node12 -->
<g id="edge11" class="edge"><title>Node1&#45;&gt;Node12</title>
<path fill="none" stroke="midnightblue" d="M1356.7,-248.535C1500.1,-245.822 1848.47,-235.813 2148.9,-199.163"/>
<polygon fill="midnightblue" stroke="midnightblue" points="2149.62,-202.601 2159.12,-197.904 2148.76,-195.654 2149.62,-202.601"/>
</g>
<!-- Node13 -->
<g id="node13" class="node"><title>Node13</title>
<polygon fill="none" stroke="#bfbfbf" points="1210,-112.5 1210,-131.5 1374,-131.5 1374,-112.5 1210,-112.5"/>
<text text-anchor="middle" x="1292" y="-119.5" font-family="Helvetica,sans-Serif" font-size="10.00">Framework/DataProcessorSpec.h</text>
</g>
<!-- Node1&#45;&gt;Node13 -->
<g id="edge12" class="edge"><title>Node1&#45;&gt;Node13</title>
<path fill="none" stroke="midnightblue" d="M1290.22,-235.479C1290.58,-212.719 1291.29,-167.702 1291.7,-142.058"/>
<polygon fill="midnightblue" stroke="midnightblue" points="1295.2,-141.843 1291.86,-131.789 1288.2,-141.732 1295.2,-141.843"/>
</g>
<!-- Node14 -->
<g id="node14" class="node"><title>Node14</title>
<g id="a_node14"><a xlink:href="CheckInterface_8h.html" target="_top" xlink:title="QualityControl/CheckInterface.h">
<polygon fill="none" stroke="black" points="692.5,-112.5 692.5,-131.5 849.5,-131.5 849.5,-112.5 692.5,-112.5"/>
<text text-anchor="middle" x="771" y="-119.5" font-family="Helvetica,sans-Serif" font-size="10.00">QualityControl/CheckInterface.h</text>
</a>
</g>
</g>
<!-- Node1&#45;&gt;Node14 -->
<g id="edge13" class="edge"><title>Node1&#45;&gt;Node14</title>
<path fill="none" stroke="midnightblue" d="M1223.25,-244.705C1153.73,-238.535 1042.16,-225.313 949,-199 892.492,-183.039 830.189,-153.455 796.333,-136.284"/>
<polygon fill="midnightblue" stroke="midnightblue" points="797.667,-133.035 787.171,-131.587 794.473,-139.264 797.667,-133.035"/>
</g>
<!-- Node17 -->
<g id="node17" class="node"><title>Node17</title>
<g id="a_node17"><a xlink:href="MonitorObject_8h.html" target="_top" xlink:title="QualityControl/MonitorObject.h">
<polygon fill="none" stroke="black" points="332.5,-56.5 332.5,-75.5 483.5,-75.5 483.5,-56.5 332.5,-56.5"/>
<text text-anchor="middle" x="408" y="-63.5" font-family="Helvetica,sans-Serif" font-size="10.00">QualityControl/MonitorObject.h</text>
</a>
</g>
</g>
<!-- Node1&#45;&gt;Node17 -->
<g id="edge40" class="edge"><title>Node1&#45;&gt;Node17</title>
<path fill="none" stroke="midnightblue" d="M1223.3,-248.461C981.634,-243.97 162.454,-222.15 93,-132 87.5751,-124.959 87.176,-118.715 93,-112 122.143,-78.3977 239.264,-69.2636 322.148,-67.111"/>
<polygon fill="midnightblue" stroke="midnightblue" points="322.415,-70.6059 332.331,-66.8768 322.254,-63.6077 322.415,-70.6059"/>
</g>
<!-- Node21 -->
<g id="node21" class="node"><title>Node21</title>
<g id="a_node21"><a xlink:href="DatabaseInterface_8h.html" target="_top" xlink:title="QualityControl/DatabaseInterface.h">
<polygon fill="none" stroke="black" points="356,-174 356,-193 526,-193 526,-174 356,-174"/>
<text text-anchor="middle" x="441" y="-181" font-family="Helvetica,sans-Serif" font-size="10.00">QualityControl/DatabaseInterface.h</text>
</a>
</g>
</g>
<!-- Node1&#45;&gt;Node21 -->
<g id="edge28" class="edge"><title>Node1&#45;&gt;Node21</title>
<path fill="none" stroke="midnightblue" d="M1223.04,-245.858C1095.19,-238.676 807.511,-221.419 566,-199 550.921,-197.6 534.844,-195.896 519.414,-194.153"/>
<polygon fill="midnightblue" stroke="midnightblue" points="519.718,-190.666 509.385,-193.006 518.922,-197.62 519.718,-190.666"/>
</g>
<!-- Node24 -->
<g id="node24" class="node"><title>Node24</title>
<g id="a_node24"><a xlink:href="QcInfoLogger_8h.html" target="_top" xlink:title="QualityControl/QcInfoLogger.h">
<polygon fill="none" stroke="black" points="1392.5,-112.5 1392.5,-131.5 1541.5,-131.5 1541.5,-112.5 1392.5,-112.5"/>
<text text-anchor="middle" x="1467" y="-119.5" font-family="Helvetica,sans-Serif" font-size="10.00">QualityControl/QcInfoLogger.h</text>
</a>
</g>
</g>
<!-- Node1&#45;&gt;Node24 -->
<g id="edge41" class="edge"><title>Node1&#45;&gt;Node24</title>
<path fill="none" stroke="midnightblue" d="M1292.93,-235.308C1297.41,-217.175 1307.65,-185.989 1328,-168 1347.04,-151.17 1372.47,-140.62 1396.37,-134.014"/>
<polygon fill="midnightblue" stroke="midnightblue" points="1397.33,-137.381 1406.14,-131.501 1395.59,-130.602 1397.33,-137.381"/>
</g>
<!-- Node27 -->
<g id="node27" class="node"><title>Node27</title>
<g id="a_node27"><a xlink:href="Check_8h_source.html" target="_top" xlink:title="QualityControl/Check.h">
<polygon fill="none" stroke="black" points="958.5,-174 958.5,-193 1077.5,-193 1077.5,-174 958.5,-174"/>
<text text-anchor="middle" x="1018" y="-181" font-family="Helvetica,sans-Serif" font-size="10.00">QualityControl/Check.h</text>
</a>
</g>
</g>
<!-- Node1&#45;&gt;Node27 -->
<g id="edge44" class="edge"><title>Node1&#45;&gt;Node27</title>
<path fill="none" stroke="midnightblue" d="M1231.31,-235.476C1181.08,-223.471 1109.77,-206.43 1063.69,-195.419"/>
<polygon fill="midnightblue" stroke="midnightblue" points="1064.23,-191.949 1053.69,-193.029 1062.6,-198.757 1064.23,-191.949"/>
</g>
<!-- Node30 -->
<g id="node30" class="node"><title>Node30</title>
<g id="a_node30"><a xlink:href="UpdatePolicyManager_8h.html" target="_top" xlink:title="QualityControl/UpdatePolicy\lManager.h">
<polygon fill="none" stroke="black" points="1337,-168.5 1337,-198.5 1477,-198.5 1477,-168.5 1337,-168.5"/>
<text text-anchor="start" x="1345" y="-186.5" font-family="Helvetica,sans-Serif" font-size="10.00">QualityControl/UpdatePolicy</text>
<text text-anchor="middle" x="1407" y="-175.5" font-family="Helvetica,sans-Serif" font-size="10.00">Manager.h</text>
</a>
</g>
</g>
<!-- Node1&#45;&gt;Node30 -->
<g id="edge59" class="edge"><title>Node1&#45;&gt;Node30</title>
<path fill="none" stroke="midnightblue" d="M1315.39,-235.396C1332.18,-226.069 1354.39,-213.728 1372.74,-203.534"/>
<polygon fill="midnightblue" stroke="midnightblue" points="1374.62,-206.493 1381.66,-198.577 1371.22,-200.373 1374.62,-206.493"/>
</g>
<!-- Node14&#45;&gt;Node4 -->
<g id="edge14" class="edge"><title>Node14&#45;&gt;Node4</title>
<path fill="none" stroke="midnightblue" d="M742.014,-112.444C723.234,-105.488 699.634,-93.8555 685,-76 674.18,-62.7977 669.522,-43.6635 667.516,-29.5722"/>
<polygon fill="midnightblue" stroke="midnightblue" points="670.987,-29.117 666.409,-19.5622 664.03,-29.8863 670.987,-29.117"/>
</g>
<!-- Node14&#45;&gt;Node5 -->
<g id="edge15" class="edge"><title>Node14&#45;&gt;Node5</title>
<path fill="none" stroke="midnightblue" d="M785.136,-112.339C797.113,-104.312 813.904,-91.32 824,-76 833.238,-61.9823 838.384,-43.484 841.133,-29.8068"/>
<polygon fill="midnightblue" stroke="midnightblue" points="844.633,-30.1108 842.917,-19.656 837.739,-28.8995 844.633,-30.1108"/>
</g>
<!-- Node15 -->
<g id="node15" class="node"><title>Node15</title>
<polygon fill="none" stroke="#bfbfbf" points="873.5,-56.5 873.5,-75.5 956.5,-75.5 956.5,-56.5 873.5,-56.5"/>
<text text-anchor="middle" x="915" y="-63.5" font-family="Helvetica,sans-Serif" font-size="10.00">unordered_map</text>
</g>
<!-- Node14&#45;&gt;Node15 -->
<g id="edge16" class="edge"><title>Node14&#45;&gt;Node15</title>
<path fill="none" stroke="midnightblue" d="M793.817,-112.444C817.832,-103.438 855.829,-89.1891 882.869,-79.049"/>
<polygon fill="midnightblue" stroke="midnightblue" points="884.155,-82.3049 892.29,-75.5164 881.697,-75.7506 884.155,-82.3049"/>
</g>
<!-- Node16 -->
<g id="node16" class="node"><title>Node16</title>
<polygon fill="none" stroke="#bfbfbf" points="560,-0.5 560,-19.5 616,-19.5 616,-0.5 560,-0.5"/>
<text text-anchor="middle" x="588" y="-7.5" font-family="Helvetica,sans-Serif" font-size="10.00">Rtypes.h</text>
</g>
<!-- Node14&#45;&gt;Node16 -->
<g id="edge17" class="edge"><title>Node14&#45;&gt;Node16</title>
<path fill="none" stroke="midnightblue" d="M747.975,-112.483C727.183,-104.369 696.092,-91.1644 671,-76 646.723,-61.3281 621.42,-40.5975 605.231,-26.5216"/>
<polygon fill="midnightblue" stroke="midnightblue" points="607.465,-23.8248 597.65,-19.8348 602.834,-29.0746 607.465,-23.8248"/>
</g>
<!-- Node14&#45;&gt;Node17 -->
<g id="edge18" class="edge"><title>Node14&#45;&gt;Node17</title>
<path fill="none" stroke="midnightblue" d="M713.482,-112.444C648.83,-102.826 543.974,-87.2275 475.497,-77.0409"/>
<polygon fill="midnightblue" stroke="midnightblue" points="475.656,-73.526 465.249,-75.5164 474.625,-80.4498 475.656,-73.526"/>
</g>
<!-- Node20 -->
<g id="node20" class="node"><title>Node20</title>
<g id="a_node20"><a xlink:href="Quality_8h.html" target="_top" xlink:title="QualityControl/Quality.h">
<polygon fill="none" stroke="black" points="694.5,-56.5 694.5,-75.5 815.5,-75.5 815.5,-56.5 694.5,-56.5"/>
<text text-anchor="middle" x="755" y="-63.5" font-family="Helvetica,sans-Serif" font-size="10.00">QualityControl/Quality.h</text>
</a>
</g>
</g>
<!-- Node14&#45;&gt;Node20 -->
<g id="edge24" class="edge"><title>Node14&#45;&gt;Node20</title>
<path fill="none" stroke="midnightblue" d="M768.358,-112.083C766.214,-104.849 763.121,-94.4087 760.451,-85.3968"/>
<polygon fill="midnightblue" stroke="midnightblue" points="763.79,-84.3447 757.593,-75.7511 757.078,-86.3334 763.79,-84.3447"/>
</g>
<!-- Node17&#45;&gt;Node4 -->
<g id="edge19" class="edge"><title>Node17&#45;&gt;Node4</title>
<path fill="none" stroke="midnightblue" d="M450.036,-56.4335C493.773,-47.4849 564.231,-32.9702 625,-20 628.278,-19.3003 631.702,-18.5614 635.114,-17.8201"/>
<polygon fill="midnightblue" stroke="midnightblue" points="636.131,-21.1805 645.152,-15.6254 634.636,-14.3421 636.131,-21.1805"/>
</g>
<!-- Node17&#45;&gt;Node5 -->
<g id="edge20" class="edge"><title>Node17&#45;&gt;Node5</title>
<path fill="none" stroke="midnightblue" d="M477.085,-56.4435C574.664,-44.3582 748.49,-22.8293 816.056,-14.461"/>
<polygon fill="midnightblue" stroke="midnightblue" points="816.827,-17.8924 826.32,-13.1897 815.966,-10.9454 816.827,-17.8924"/>
</g>
<!-- Node17&#45;&gt;Node16 -->
<g id="edge21" class="edge"><title>Node17&#45;&gt;Node16</title>
<path fill="none" stroke="midnightblue" d="M436.522,-56.4435C467.156,-47.2532 515.994,-32.6017 549.901,-22.4296"/>
<polygon fill="midnightblue" stroke="midnightblue" points="551.336,-25.6535 559.908,-19.4275 549.324,-18.9487 551.336,-25.6535"/>
</g>
<!-- Node18 -->
<g id="node18" class="node"><title>Node18</title>
<polygon fill="none" stroke="#bfbfbf" points="360.5,-0.5 360.5,-19.5 419.5,-19.5 419.5,-0.5 360.5,-0.5"/>
<text text-anchor="middle" x="390" y="-7.5" font-family="Helvetica,sans-Serif" font-size="10.00">TObject.h</text>
</g>
<!-- Node17&#45;&gt;Node18 -->
<g id="edge22" class="edge"><title>Node17&#45;&gt;Node18</title>
<path fill="none" stroke="midnightblue" d="M405.028,-56.083C402.616,-48.8486 399.136,-38.4087 396.132,-29.3968"/>
<polygon fill="midnightblue" stroke="midnightblue" points="399.4,-28.1311 392.917,-19.7511 392.759,-30.3447 399.4,-28.1311"/>
</g>
<!-- Node19 -->
<g id="node19" class="node"><title>Node19</title>
<polygon fill="none" stroke="#bfbfbf" points="217,-0.5 217,-19.5 333,-19.5 333,-0.5 217,-0.5"/>
<text text-anchor="middle" x="275" y="-7.5" font-family="Helvetica,sans-Serif" font-size="10.00">Common/Exceptions.h</text>
</g>
<!-- Node17&#45;&gt;Node19 -->
<g id="edge23" class="edge"><title>Node17&#45;&gt;Node19</title>
<path fill="none" stroke="midnightblue" d="M386.926,-56.4435C364.94,-47.5171 330.266,-33.4387 305.336,-23.3168"/>
<polygon fill="midnightblue" stroke="midnightblue" points="306.558,-20.0355 295.976,-19.5164 303.924,-26.5213 306.558,-20.0355"/>
</g>
<!-- Node20&#45;&gt;Node4 -->
<g id="edge26" class="edge"><title>Node20&#45;&gt;Node4</title>
<path fill="none" stroke="midnightblue" d="M740.701,-56.324C726.817,-47.9002 705.508,-34.9709 689.196,-25.0741"/>
<polygon fill="midnightblue" stroke="midnightblue" points="690.629,-21.8495 680.264,-19.6545 686.998,-27.8341 690.629,-21.8495"/>
</g>
<!-- Node20&#45;&gt;Node5 -->
<g id="edge27" class="edge"><title>Node20&#45;&gt;Node5</title>
<path fill="none" stroke="midnightblue" d="M769.299,-56.324C783.183,-47.9002 804.492,-34.9709 820.804,-25.0741"/>
<polygon fill="midnightblue" stroke="midnightblue" points="823.002,-27.8341 829.736,-19.6545 819.371,-21.8495 823.002,-27.8341"/>
</g>
<!-- Node20&#45;&gt;Node16 -->
<g id="edge25" class="edge"><title>Node20&#45;&gt;Node16</title>
<path fill="none" stroke="midnightblue" d="M728.538,-56.4435C700.322,-47.3196 655.46,-32.8133 624.032,-22.6509"/>
<polygon fill="midnightblue" stroke="midnightblue" points="624.93,-19.263 614.338,-19.5164 622.776,-25.9234 624.93,-19.263"/>
</g>
<!-- Node21&#45;&gt;Node3 -->
<g id="edge30" class="edge"><title>Node21&#45;&gt;Node3</title>
<path fill="none" stroke="midnightblue" d="M459.769,-173.975C481.851,-163.945 518.719,-147.2 544.139,-135.655"/>
<polygon fill="midnightblue" stroke="midnightblue" points="545.608,-138.831 553.266,-131.509 542.713,-132.458 545.608,-138.831"/>
</g>
<!-- Node21&#45;&gt;Node4 -->
<g id="edge29" class="edge"><title>Node21&#45;&gt;Node4</title>
<path fill="none" stroke="midnightblue" d="M403.546,-173.912C363.331,-162.939 308.207,-141.741 332,-112 377.533,-55.0833 422.142,-96.8017 492,-76 543.758,-60.5878 602.261,-37.5237 636.534,-23.4147"/>
<polygon fill="midnightblue" stroke="midnightblue" points="638.048,-26.5762 645.946,-19.5142 635.368,-20.1095 638.048,-26.5762"/>
</g>
<!-- Node21&#45;&gt;Node6 -->
<g id="edge31" class="edge"><title>Node21&#45;&gt;Node6</title>
<path fill="none" stroke="midnightblue" d="M526.17,-177.377C651.87,-169.498 894.393,-153.081 1100,-132 1112.44,-130.724 1126.1,-129.034 1138.01,-127.464"/>
<polygon fill="midnightblue" stroke="midnightblue" points="1138.52,-130.927 1147.96,-126.128 1137.59,-123.99 1138.52,-130.927"/>
</g>
<!-- Node21&#45;&gt;Node15 -->
<g id="edge32" class="edge"><title>Node21&#45;&gt;Node15</title>
<path fill="none" stroke="midnightblue" d="M449.319,-173.978C464.906,-158.608 500.263,-126.501 537,-112 551.973,-106.09 763.146,-83.106 863.17,-72.4638"/>
<polygon fill="midnightblue" stroke="midnightblue" points="863.784,-75.9184 873.358,-71.3816 863.044,-68.9575 863.784,-75.9184"/>
</g>
<!-- Node21&#45;&gt;Node17 -->
<g id="edge39" class="edge"><title>Node21&#45;&gt;Node17</title>
<path fill="none" stroke="midnightblue" d="M368.477,-173.918C342.515,-166.95 315.792,-154.43 300,-132 281.633,-105.912 319.214,-88.4566 354.975,-78.2625"/>
<polygon fill="midnightblue" stroke="midnightblue" points="356.216,-81.5534 364.965,-75.5787 354.4,-74.7931 356.216,-81.5534"/>
</g>
<!-- Node22 -->
<g id="node22" class="node"><title>Node22</title>
<polygon fill="none" stroke="#bfbfbf" points="102,-112.5 102,-131.5 248,-131.5 248,-112.5 102,-112.5"/>
<text text-anchor="middle" x="175" y="-119.5" font-family="Helvetica,sans-Serif" font-size="10.00">Framework/ServiceRegistry.h</text>
</g>
<!-- Node21&#45;&gt;Node22 -->
<g id="edge33" class="edge"><title>Node21&#45;&gt;Node22</title>
<path fill="none" stroke="midnightblue" d="M402.889,-173.975C355.483,-163.371 274.516,-145.26 222.944,-133.724"/>
<polygon fill="midnightblue" stroke="midnightblue" points="223.564,-130.276 213.041,-131.509 222.035,-137.108 223.564,-130.276"/>
</g>
<!-- Node23 -->
<g id="node23" class="node"><title>Node23</title>
<g id="a_node23"><a xlink:href="QualityObject_8h_source.html" target="_top" xlink:title="QualityControl/QualityObject.h">
<polygon fill="none" stroke="black" points="341.5,-112.5 341.5,-131.5 490.5,-131.5 490.5,-112.5 341.5,-112.5"/>
<text text-anchor="middle" x="416" y="-119.5" font-family="Helvetica,sans-Serif" font-size="10.00">QualityControl/QualityObject.h</text>
</a>
</g>
</g>
<!-- Node21&#45;&gt;Node23 -->
<g id="edge34" class="edge"><title>Node21&#45;&gt;Node23</title>
<path fill="none" stroke="midnightblue" d="M437.418,-173.975C433.817,-165.404 428.154,-151.927 423.556,-140.983"/>
<polygon fill="midnightblue" stroke="midnightblue" points="426.676,-139.373 419.575,-131.509 420.222,-142.084 426.676,-139.373"/>
</g>
<!-- Node23&#45;&gt;Node5 -->
<g id="edge35" class="edge"><title>Node23&#45;&gt;Node5</title>
<path fill="none" stroke="midnightblue" d="M449.228,-112.46C531.015,-91.4401 740.896,-37.4987 816.411,-18.0905"/>
<polygon fill="midnightblue" stroke="midnightblue" points="817.334,-21.4673 826.148,-15.5881 815.591,-14.6876 817.334,-21.4673"/>
</g>
<!-- Node23&#45;&gt;Node18 -->
<g id="edge36" class="edge"><title>Node23&#45;&gt;Node18</title>
<path fill="none" stroke="midnightblue" d="M376.745,-112.475C357.004,-105.99 334.816,-94.8434 323,-76 309.851,-55.0301 336.237,-35.9463 359.667,-23.9618"/>
<polygon fill="midnightblue" stroke="midnightblue" points="361.26,-27.0791 368.741,-19.5767 358.214,-20.7764 361.26,-27.0791"/>
</g>
<!-- Node23&#45;&gt;Node19 -->
<g id="edge37" class="edge"><title>Node23&#45;&gt;Node19</title>
<path fill="none" stroke="midnightblue" d="M385.402,-112.424C364.139,-105.303 336.118,-93.4834 316,-76 301.089,-63.0417 289.711,-43.3296 282.768,-29.0107"/>
<polygon fill="midnightblue" stroke="midnightblue" points="285.855,-27.3453 278.508,-19.7112 279.49,-30.2604 285.855,-27.3453"/>
</g>
<!-- Node23&#45;&gt;Node20 -->
<g id="edge38" class="edge"><title>Node23&#45;&gt;Node20</title>
<path fill="none" stroke="midnightblue" d="M469.716,-112.444C529.969,-102.846 627.614,-87.2916 691.571,-77.1037"/>
<polygon fill="midnightblue" stroke="midnightblue" points="692.211,-80.546 701.536,-75.5164 691.11,-73.6332 692.211,-80.546"/>
</g>
<!-- Node25 -->
<g id="node25" class="node"><title>Node25</title>
<polygon fill="none" stroke="#bfbfbf" points="1445,-56.5 1445,-75.5 1575,-75.5 1575,-56.5 1445,-56.5"/>
<text text-anchor="middle" x="1510" y="-63.5" font-family="Helvetica,sans-Serif" font-size="10.00">InfoLogger/InfoLogger.hxx</text>
</g>
<!-- Node24&#45;&gt;Node25 -->
<g id="edge42" class="edge"><title>Node24&#45;&gt;Node25</title>
<path fill="none" stroke="midnightblue" d="M1474.1,-112.083C1480.24,-104.377 1489.27,-93.0333 1496.74,-83.6531"/>
<polygon fill="midnightblue" stroke="midnightblue" points="1499.54,-85.7542 1503.03,-75.7511 1494.06,-81.3936 1499.54,-85.7542"/>
</g>
<!-- Node26 -->
<g id="node26" class="node"><title>Node26</title>
<polygon fill="none" stroke="#bfbfbf" points="1265,-56.5 1265,-75.5 1427,-75.5 1427,-56.5 1265,-56.5"/>
<text text-anchor="middle" x="1346" y="-63.5" font-family="Helvetica,sans-Serif" font-size="10.00">InfoLogger/InfoLoggerMacros.hxx</text>
</g>
<!-- Node24&#45;&gt;Node26 -->
<g id="edge43" class="edge"><title>Node24&#45;&gt;Node26</title>
<path fill="none" stroke="midnightblue" d="M1447.83,-112.444C1428.09,-103.636 1397.11,-89.8116 1374.51,-79.722"/>
<polygon fill="midnightblue" stroke="midnightblue" points="1375.64,-76.3957 1365.08,-75.5164 1372.79,-82.788 1375.64,-76.3957"/>
</g>
<!-- Node27&#45;&gt;Node3 -->
<g id="edge48" class="edge"><title>Node27&#45;&gt;Node3</title>
<path fill="none" stroke="midnightblue" d="M958.313,-174.537C864.459,-162.016 685.169,-138.098 608.377,-127.853"/>
<polygon fill="midnightblue" stroke="midnightblue" points="608.616,-124.354 598.241,-126.501 607.69,-131.292 608.616,-124.354"/>
</g>
<!-- Node27&#45;&gt;Node5 -->
<g id="edge46" class="edge"><title>Node27&#45;&gt;Node5</title>
<path fill="none" stroke="midnightblue" d="M1043.35,-173.916C1073.28,-162.302 1116.97,-139.802 1100,-112 1051.34,-32.2886 927.737,-15.4206 872.007,-11.9003"/>
<polygon fill="midnightblue" stroke="midnightblue" points="871.98,-8.39401 861.809,-11.3595 871.609,-15.3842 871.98,-8.39401"/>
</g>
<!-- Node27&#45;&gt;Node6 -->
<g id="edge47" class="edge"><title>Node27&#45;&gt;Node6</title>
<path fill="none" stroke="midnightblue" d="M1039.78,-173.975C1065.74,-163.813 1109.31,-146.756 1138.83,-135.2"/>
<polygon fill="midnightblue" stroke="midnightblue" points="1140.23,-138.413 1148.26,-131.509 1137.67,-131.895 1140.23,-138.413"/>
</g>
<!-- Node27&#45;&gt;Node13 -->
<g id="edge50" class="edge"><title>Node27&#45;&gt;Node13</title>
<path fill="none" stroke="midnightblue" d="M1057.26,-173.975C1106.19,-163.349 1189.84,-145.185 1242.95,-133.652"/>
<polygon fill="midnightblue" stroke="midnightblue" points="1243.79,-137.052 1252.82,-131.509 1242.3,-130.211 1243.79,-137.052"/>
</g>
<!-- Node27&#45;&gt;Node14 -->
<g id="edge54" class="edge"><title>Node27&#45;&gt;Node14</title>
<path fill="none" stroke="midnightblue" d="M982.611,-173.975C938.774,-163.415 864.034,-145.411 816.12,-133.869"/>
<polygon fill="midnightblue" stroke="midnightblue" points="816.865,-130.448 806.323,-131.509 815.226,-137.254 816.865,-130.448"/>
</g>
<!-- Node27&#45;&gt;Node15 -->
<g id="edge49" class="edge"><title>Node27&#45;&gt;Node15</title>
<path fill="none" stroke="midnightblue" d="M995.086,-173.965C976.364,-165.873 950.539,-151.967 935,-132 924.586,-118.619 919.562,-99.7959 917.158,-85.8473"/>
<polygon fill="midnightblue" stroke="midnightblue" points="920.617,-85.308 915.739,-75.9029 913.687,-86.2971 920.617,-85.308"/>
</g>
<!-- Node27&#45;&gt;Node17 -->
<g id="edge53" class="edge"><title>Node27&#45;&gt;Node17</title>
<path fill="none" stroke="midnightblue" d="M958.354,-175.479C891.092,-167.106 778.622,-151.729 683,-132 648.793,-124.942 640.928,-120.298 607,-112 556.25,-99.5883 497.918,-86.5403 457.59,-77.7096"/>
<polygon fill="midnightblue" stroke="midnightblue" points="458.257,-74.2728 447.74,-75.5583 456.763,-81.1116 458.257,-74.2728"/>
</g>
<!-- Node27&#45;&gt;Node20 -->
<g id="edge51" class="edge"><title>Node27&#45;&gt;Node20</title>
<path fill="none" stroke="midnightblue" d="M998.303,-173.797C968.117,-160.466 908.59,-134.197 858,-112 833.009,-101.035 804.584,-88.6205 783.935,-79.6126"/>
<polygon fill="midnightblue" stroke="midnightblue" points="785.319,-76.3981 774.754,-75.6085 782.521,-82.8144 785.319,-76.3981"/>
</g>
<!-- Node27&#45;&gt;Node23 -->
<g id="edge52" class="edge"><title>Node27&#45;&gt;Node23</title>
<path fill="none" stroke="midnightblue" d="M958.354,-176.605C850.885,-165.983 624.45,-143.603 500.867,-131.388"/>
<polygon fill="midnightblue" stroke="midnightblue" points="500.988,-127.883 490.693,-130.382 500.3,-134.849 500.988,-127.883"/>
</g>
<!-- Node27&#45;&gt;Node24 -->
<g id="edge55" class="edge"><title>Node27&#45;&gt;Node24</title>
<path fill="none" stroke="midnightblue" d="M1077.62,-174.599C1158.94,-163.824 1304.56,-144.526 1392.83,-132.829"/>
<polygon fill="midnightblue" stroke="midnightblue" points="1393.32,-136.295 1402.77,-131.512 1392.4,-129.356 1393.32,-136.295"/>
</g>
<!-- Node28 -->
<g id="node28" class="node"><title>Node28</title>
<polygon fill="none" stroke="#bfbfbf" points="1559.5,-112.5 1559.5,-131.5 1618.5,-131.5 1618.5,-112.5 1559.5,-112.5"/>
<text text-anchor="middle" x="1589" y="-119.5" font-family="Helvetica,sans-Serif" font-size="10.00">functional</text>
</g>
<!-- Node27&#45;&gt;Node28 -->
<g id="edge45" class="edge"><title>Node27&#45;&gt;Node28</title>
<path fill="none" stroke="midnightblue" d="M1077.77,-179.409C1174.72,-173.828 1372.38,-160.1 1549.26,-131.902"/>
<polygon fill="midnightblue" stroke="midnightblue" points="1549.95,-135.335 1559.27,-130.287 1548.84,-128.425 1549.95,-135.335"/>
</g>
<!-- Node29 -->
<g id="node29" class="node"><title>Node29</title>
<g id="a_node29"><a xlink:href="CheckConfig_8h.html" target="_top" xlink:title="QualityControl/CheckConfig.h">
<polygon fill="none" stroke="black" points="944.5,-112.5 944.5,-131.5 1091.5,-131.5 1091.5,-112.5 944.5,-112.5"/>
<text text-anchor="middle" x="1018" y="-119.5" font-family="Helvetica,sans-Serif" font-size="10.00">QualityControl/CheckConfig.h</text>
</a>
</g>
</g>
<!-- Node27&#45;&gt;Node29 -->
<g id="edge56" class="edge"><title>Node27&#45;&gt;Node29</title>
<path fill="none" stroke="midnightblue" d="M1018,-173.975C1018,-165.58 1018,-152.481 1018,-141.663"/>
<polygon fill="midnightblue" stroke="midnightblue" points="1021.5,-141.509 1018,-131.509 1014.5,-141.509 1021.5,-141.509"/>
</g>
<!-- Node29&#45;&gt;Node4 -->
<g id="edge57" class="edge"><title>Node29&#45;&gt;Node4</title>
<path fill="none" stroke="midnightblue" d="M1013.56,-112.086C1005.85,-97.6473 988.529,-69.4113 965,-56 919.639,-30.1445 764.234,-17.2997 697.195,-12.8574"/>
<polygon fill="midnightblue" stroke="midnightblue" points="697.058,-9.34149 686.854,-12.1928 696.609,-16.3271 697.058,-9.34149"/>
</g>
<!-- Node29&#45;&gt;Node15 -->
<g id="edge58" class="edge"><title>Node29&#45;&gt;Node15</title>
<path fill="none" stroke="midnightblue" d="M1001.45,-112.324C985.008,-103.703 959.565,-90.3643 940.532,-80.3855"/>
<polygon fill="midnightblue" stroke="midnightblue" points="941.989,-77.198 931.508,-75.6545 938.739,-83.3977 941.989,-77.198"/>
</g>
<!-- Node30&#45;&gt;Node4 -->
<g id="edge60" class="edge"><title>Node30&#45;&gt;Node4</title>
<path fill="none" stroke="midnightblue" d="M1477.23,-168.636C1540.11,-155.89 1623.15,-138.078 1628,-132 1653.24,-100.337 1609.73,-69.2622 1584,-56 1508.16,-16.9161 902.195,-24.5381 817,-20 775.243,-17.7757 727.015,-14.8366 696.519,-12.9324"/>
<polygon fill="midnightblue" stroke="midnightblue" points="696.711,-9.43767 686.511,-12.3049 696.273,-16.4239 696.711,-9.43767"/>
</g>
<!-- Node30&#45;&gt;Node5 -->
<g id="edge61" class="edge"><title>Node30&#45;&gt;Node5</title>
<path fill="none" stroke="midnightblue" d="M1477.01,-169.686C1551.16,-155.952 1658.03,-135.622 1661,-132 1682.43,-105.89 1684.22,-80.5325 1661,-56 1633.28,-26.7117 1011.79,-13.9739 871.826,-11.4712"/>
<polygon fill="midnightblue" stroke="midnightblue" points="871.595,-7.96672 861.535,-11.2903 871.472,-14.9656 871.595,-7.96672"/>
</g>
<!-- Node30&#45;&gt;Node6 -->
<g id="edge62" class="edge"><title>Node30&#45;&gt;Node6</title>
<path fill="none" stroke="midnightblue" d="M1346.89,-168.469C1308.04,-159.24 1256.18,-146.617 1202.09,-132.215"/>
<polygon fill="midnightblue" stroke="midnightblue" points="1202.88,-128.805 1192.32,-129.602 1201.08,-135.567 1202.88,-128.805"/>
</g>
<!-- Node30&#45;&gt;Node28 -->
<g id="edge63" class="edge"><title>Node30&#45;&gt;Node28</title>
<path fill="none" stroke="midnightblue" d="M1450.13,-168.399C1481.58,-158.118 1523.69,-144.351 1553.27,-134.682"/>
<polygon fill="midnightblue" stroke="midnightblue" points="1554.37,-138.005 1562.78,-131.571 1552.19,-131.352 1554.37,-138.005"/>
</g>
</g>
</svg>
