<?xml version="1.0" encoding="UTF-8" standalone="no"?>
<!DOCTYPE svg PUBLIC "-//W3C//DTD SVG 1.1//EN"
 "http://www.w3.org/Graphics/SVG/1.1/DTD/svg11.dtd">
<!-- Generated by graphviz version 2.38.0 (20140413.2041)
 -->
<!-- Title: Framework/src/CheckRunnerFactory.cxx Pages: 1 -->
<svg width="2089pt" height="341pt"
 viewBox="0.00 0.00 2088.91 341.00" xmlns="http://www.w3.org/2000/svg" xmlns:xlink="http://www.w3.org/1999/xlink">
<g id="graph0" class="graph" transform="scale(1 1) rotate(0) translate(4 337)">
<title>Framework/src/CheckRunnerFactory.cxx</title>
<!-- Node1 -->
<g id="node1" class="node"><title>Node1</title>
<polygon fill="#bfbfbf" stroke="black" points="1132.27,-302.5 1132.27,-332.5 1277.27,-332.5 1277.27,-302.5 1132.27,-302.5"/>
<text text-anchor="start" x="1140.27" y="-320.5" font-family="Helvetica,sans-Serif" font-size="10.00">Framework/src/CheckRunner</text>
<text text-anchor="middle" x="1204.77" y="-309.5" font-family="Helvetica,sans-Serif" font-size="10.00">Factory.cxx</text>
</g>
<!-- Node2 -->
<g id="node2" class="node"><title>Node2</title>
<polygon fill="none" stroke="#bfbfbf" points="427.772,-112.5 427.772,-131.5 471.772,-131.5 471.772,-112.5 427.772,-112.5"/>
<text text-anchor="middle" x="449.772" y="-119.5" font-family="Helvetica,sans-Serif" font-size="10.00">vector</text>
</g>
<!-- Node1&#45;&gt;Node2 -->
<g id="edge1" class="edge"><title>Node1&#45;&gt;Node2</title>
<path fill="none" stroke="midnightblue" d="M1131.84,-315.19C882.941,-309.944 78.3847,-286.303 6.7718,-199 -1.96621,-188.348 -2.46517,-178.223 6.7718,-168 34.247,-137.592 320.156,-126.684 417.515,-123.835"/>
<polygon fill="midnightblue" stroke="midnightblue" points="417.748,-127.33 427.645,-123.548 417.55,-120.333 417.748,-127.33"/>
</g>
<!-- Node3 -->
<g id="node3" class="node"><title>Node3</title>
<polygon fill="none" stroke="#bfbfbf" points="15.7718,-174 15.7718,-193 93.7718,-193 93.7718,-174 15.7718,-174"/>
<text text-anchor="middle" x="54.7718" y="-181" font-family="Helvetica,sans-Serif" font-size="10.00">unordered_set</text>
</g>
<!-- Node1&#45;&gt;Node3 -->
<g id="edge2" class="edge"><title>Node1&#45;&gt;Node3</title>
<path fill="none" stroke="midnightblue" d="M1131.98,-312.747C955.187,-302.757 489.595,-271.196 107.772,-199 102.745,-198.05 97.499,-196.861 92.3457,-195.576"/>
<polygon fill="midnightblue" stroke="midnightblue" points="93.1934,-192.18 82.6322,-193.023 91.4138,-198.95 93.1934,-192.18"/>
</g>
<!-- Node4 -->
<g id="node4" class="node"><title>Node4</title>
<polygon fill="none" stroke="#bfbfbf" points="1818.77,-112.5 1818.77,-131.5 1982.77,-131.5 1982.77,-112.5 1818.77,-112.5"/>
<text text-anchor="middle" x="1900.77" y="-119.5" font-family="Helvetica,sans-Serif" font-size="10.00">Framework/DataProcessorSpec.h</text>
</g>
<!-- Node1&#45;&gt;Node4 -->
<g id="edge3" class="edge"><title>Node1&#45;&gt;Node4</title>
<path fill="none" stroke="midnightblue" d="M1277.31,-315.354C1438.57,-312.195 1822.35,-301.116 1946.77,-266 2008.57,-248.558 2041.52,-253.932 2074.77,-199 2098.27,-160.173 2046.17,-141.127 1992.98,-131.815"/>
<polygon fill="midnightblue" stroke="midnightblue" points="1993.49,-128.352 1983.06,-130.187 1992.36,-135.26 1993.49,-128.352"/>
</g>
<!-- Node5 -->
<g id="node5" class="node"><title>Node5</title>
<polygon fill="none" stroke="#bfbfbf" points="1063.77,-241 1063.77,-260 1193.77,-260 1193.77,-241 1063.77,-241"/>
<text text-anchor="middle" x="1128.77" y="-248" font-family="Helvetica,sans-Serif" font-size="10.00">Framework/DeviceSpec.h</text>
</g>
<!-- Node1&#45;&gt;Node5 -->
<g id="edge4" class="edge"><title>Node1&#45;&gt;Node5</title>
<path fill="none" stroke="midnightblue" d="M1188.28,-302.396C1176.08,-291.96 1159.46,-277.751 1146.89,-266.998"/>
<polygon fill="midnightblue" stroke="midnightblue" points="1148.81,-264.034 1138.94,-260.195 1144.26,-269.354 1148.81,-264.034"/>
</g>
<!-- Node6 -->
<g id="node6" class="node"><title>Node6</title>
<polygon fill="none" stroke="#bfbfbf" points="1211.77,-241 1211.77,-260 1351.77,-260 1351.77,-241 1211.77,-241"/>
<text text-anchor="middle" x="1281.77" y="-248" font-family="Helvetica,sans-Serif" font-size="10.00">Framework/DataSpecUtils.h</text>
</g>
<!-- Node1&#45;&gt;Node6 -->
<g id="edge5" class="edge"><title>Node1&#45;&gt;Node6</title>
<path fill="none" stroke="midnightblue" d="M1221.48,-302.396C1233.96,-291.86 1251,-277.477 1263.78,-266.689"/>
<polygon fill="midnightblue" stroke="midnightblue" points="1266.09,-269.32 1271.47,-260.195 1261.57,-263.971 1266.09,-269.32"/>
</g>
<!-- Node7 -->
<g id="node7" class="node"><title>Node7</title>
<polygon fill="none" stroke="#bfbfbf" points="1370.27,-235.5 1370.27,-265.5 1515.27,-265.5 1515.27,-235.5 1370.27,-235.5"/>
<text text-anchor="start" x="1378.27" y="-253.5" font-family="Helvetica,sans-Serif" font-size="10.00">Framework/CompletionPolicy</text>
<text text-anchor="middle" x="1442.77" y="-242.5" font-family="Helvetica,sans-Serif" font-size="10.00">Helpers.h</text>
</g>
<!-- Node1&#45;&gt;Node7 -->
<g id="edge6" class="edge"><title>Node1&#45;&gt;Node7</title>
<path fill="none" stroke="midnightblue" d="M1256.12,-302.476C1292.75,-292.472 1342.18,-278.971 1380.98,-268.377"/>
<polygon fill="midnightblue" stroke="midnightblue" points="1382.38,-271.622 1391.1,-265.611 1380.54,-264.869 1382.38,-271.622"/>
</g>
<!-- Node8 -->
<g id="node8" class="node"><title>Node8</title>
<g id="a_node8"><a xlink:href="CheckRunner_8h.html" target="_top" xlink:title="QualityControl/CheckRunner.h">
<polygon fill="none" stroke="black" points="895.772,-241 895.772,-260 1045.77,-260 1045.77,-241 895.772,-241"/>
<text text-anchor="middle" x="970.772" y="-248" font-family="Helvetica,sans-Serif" font-size="10.00">QualityControl/CheckRunner.h</text>
</a>
</g>
</g>
<!-- Node1&#45;&gt;Node8 -->
<g id="edge7" class="edge"><title>Node1&#45;&gt;Node8</title>
<path fill="none" stroke="midnightblue" d="M1154.29,-302.476C1111.52,-290.597 1051,-273.787 1011.34,-262.768"/>
<polygon fill="midnightblue" stroke="midnightblue" points="1012.05,-259.333 1001.47,-260.029 1010.17,-266.077 1012.05,-259.333"/>
</g>
<!-- Node35 -->
<g id="node35" class="node"><title>Node35</title>
<g id="a_node35"><a xlink:href="CheckRunnerFactory_8h.html" target="_top" xlink:title="QualityControl/CheckRunner\lFactory.h">
<polygon fill="none" stroke="black" points="1795.77,-235.5 1795.77,-265.5 1937.77,-265.5 1937.77,-235.5 1795.77,-235.5"/>
<text text-anchor="start" x="1803.77" y="-253.5" font-family="Helvetica,sans-Serif" font-size="10.00">QualityControl/CheckRunner</text>
<text text-anchor="middle" x="1866.77" y="-242.5" font-family="Helvetica,sans-Serif" font-size="10.00">Factory.h</text>
</a>
</g>
</g>
<!-- Node1&#45;&gt;Node35 -->
<g id="edge71" class="edge"><title>Node1&#45;&gt;Node35</title>
<path fill="none" stroke="midnightblue" d="M1277.51,-309.358C1401.94,-297.14 1654.81,-272.312 1785.11,-259.518"/>
<polygon fill="midnightblue" stroke="midnightblue" points="1785.81,-262.967 1795.42,-258.506 1785.12,-256 1785.81,-262.967"/>
</g>
<!-- Node8&#45;&gt;Node2 -->
<g id="edge12" class="edge"><title>Node8&#45;&gt;Node2</title>
<path fill="none" stroke="midnightblue" d="M895.769,-247.465C702.907,-241.868 203.092,-224.92 178.772,-199 169.345,-188.952 169.863,-178.51 178.772,-168 186.472,-158.916 347.141,-136.612 417.381,-127.248"/>
<polygon fill="midnightblue" stroke="midnightblue" points="417.998,-130.697 427.451,-125.912 417.077,-123.758 417.998,-130.697"/>
</g>
<!-- Node8&#45;&gt;Node3 -->
<g id="edge13" class="edge"><title>Node8&#45;&gt;Node3</title>
<path fill="none" stroke="midnightblue" d="M895.452,-247.11C714.348,-241.039 258.37,-223.729 107.772,-199 102.552,-198.143 97.1063,-196.977 91.7781,-195.676"/>
<polygon fill="midnightblue" stroke="midnightblue" points="92.3267,-192.201 81.7662,-193.053 90.5529,-198.973 92.3267,-192.201"/>
</g>
<!-- Node8&#45;&gt;Node4 -->
<g id="edge19" class="edge"><title>Node8&#45;&gt;Node4</title>
<path fill="none" stroke="midnightblue" d="M1014.23,-240.952C1027.22,-238.679 1041.53,-236.455 1054.77,-235 1220.63,-216.774 1648.54,-257.593 1804.77,-199 1822.41,-192.385 1861.64,-158.502 1884.11,-138.278"/>
<polygon fill="midnightblue" stroke="midnightblue" points="1886.5,-140.832 1891.56,-131.521 1881.8,-135.647 1886.5,-140.832"/>
</g>
<!-- Node9 -->
<g id="node9" class="node"><title>Node9</title>
<polygon fill="none" stroke="#bfbfbf" points="1183.77,-174 1183.77,-193 1229.77,-193 1229.77,-174 1183.77,-174"/>
<text text-anchor="middle" x="1206.77" y="-181" font-family="Helvetica,sans-Serif" font-size="10.00">chrono</text>
</g>
<!-- Node8&#45;&gt;Node9 -->
<g id="edge8" class="edge"><title>Node8&#45;&gt;Node9</title>
<path fill="none" stroke="midnightblue" d="M1010.45,-240.969C1050.92,-231.912 1115.31,-216.507 1169.77,-199 1172.04,-198.27 1174.38,-197.472 1176.71,-196.638"/>
<polygon fill="midnightblue" stroke="midnightblue" points="1178.05,-199.874 1186.19,-193.091 1175.6,-193.318 1178.05,-199.874"/>
</g>
<!-- Node10 -->
<g id="node10" class="node"><title>Node10</title>
<polygon fill="none" stroke="#bfbfbf" points="858.772,-112.5 858.772,-131.5 910.772,-131.5 910.772,-112.5 858.772,-112.5"/>
<text text-anchor="middle" x="884.772" y="-119.5" font-family="Helvetica,sans-Serif" font-size="10.00">memory</text>
</g>
<!-- Node8&#45;&gt;Node10 -->
<g id="edge9" class="edge"><title>Node8&#45;&gt;Node10</title>
<path fill="none" stroke="midnightblue" d="M1017.8,-240.963C1029.83,-238.894 1042.77,-236.77 1054.77,-235 1187.36,-215.451 1439.44,-266.691 1348.77,-168 1316.78,-133.182 971.5,-139.206 924.772,-132 923.506,-131.805 922.22,-131.592 920.923,-131.366"/>
<polygon fill="midnightblue" stroke="midnightblue" points="921.408,-127.895 910.924,-129.422 920.072,-134.767 921.408,-127.895"/>
</g>
<!-- Node11 -->
<g id="node11" class="node"><title>Node11</title>
<polygon fill="none" stroke="#bfbfbf" points="1151.27,-0.5 1151.27,-19.5 1192.27,-19.5 1192.27,-0.5 1151.27,-0.5"/>
<text text-anchor="middle" x="1171.77" y="-7.5" font-family="Helvetica,sans-Serif" font-size="10.00">string</text>
</g>
<!-- Node8&#45;&gt;Node11 -->
<g id="edge10" class="edge"><title>Node8&#45;&gt;Node11</title>
<path fill="none" stroke="midnightblue" d="M1015.11,-240.974C1027.88,-238.757 1041.84,-236.557 1054.77,-235 1214.59,-215.757 1674.88,-260.544 1771.77,-132 1792.12,-105.005 1797.77,-80.7766 1774.77,-56 1735.56,-13.7496 1319.75,-10.8734 1202.43,-10.9086"/>
<polygon fill="midnightblue" stroke="midnightblue" points="1202.33,-7.40858 1192.34,-10.9193 1202.34,-14.4086 1202.33,-7.40858"/>
</g>
<!-- Node12 -->
<g id="node12" class="node"><title>Node12</title>
<polygon fill="none" stroke="#bfbfbf" points="818.272,-0.5 818.272,-19.5 853.272,-19.5 853.272,-0.5 818.272,-0.5"/>
<text text-anchor="middle" x="835.772" y="-7.5" font-family="Helvetica,sans-Serif" font-size="10.00">map</text>
</g>
<!-- Node8&#45;&gt;Node12 -->
<g id="edge11" class="edge"><title>Node8&#45;&gt;Node12</title>
<path fill="none" stroke="midnightblue" d="M920.284,-240.937C883.061,-233.315 831.954,-220.052 790.772,-199 771.056,-188.922 772.265,-176.385 751.772,-168 681.248,-139.143 461.746,-188.639 410.772,-132 333.065,-45.6582 727.088,-33.5738 796.772,-20 800.468,-19.2801 804.346,-18.4617 808.165,-17.6188"/>
<polygon fill="midnightblue" stroke="midnightblue" points="808.995,-21.0194 817.965,-15.381 807.437,-14.195 808.995,-21.0194"/>
</g>
<!-- Node13 -->
<g id="node13" class="node"><title>Node13</title>
<polygon fill="none" stroke="#bfbfbf" points="1247.77,-174 1247.77,-193 1339.77,-193 1339.77,-174 1247.77,-174"/>
<text text-anchor="middle" x="1293.77" y="-181" font-family="Helvetica,sans-Serif" font-size="10.00">Common/Timer.h</text>
</g>
<!-- Node8&#45;&gt;Node13 -->
<g id="edge14" class="edge"><title>Node8&#45;&gt;Node13</title>
<path fill="none" stroke="midnightblue" d="M1018.25,-240.976C1083.52,-229.186 1197.55,-208.305 1238.77,-199 1243.46,-197.941 1248.36,-196.761 1253.21,-195.543"/>
<polygon fill="midnightblue" stroke="midnightblue" points="1254.22,-198.898 1263.03,-193.019 1252.48,-192.118 1254.22,-198.898"/>
</g>
<!-- Node14 -->
<g id="node14" class="node"><title>Node14</title>
<polygon fill="none" stroke="#bfbfbf" points="187.772,-174 187.772,-193 285.772,-193 285.772,-174 187.772,-174"/>
<text text-anchor="middle" x="236.772" y="-181" font-family="Helvetica,sans-Serif" font-size="10.00">Framework/Task.h</text>
</g>
<!-- Node8&#45;&gt;Node14 -->
<g id="edge15" class="edge"><title>Node8&#45;&gt;Node14</title>
<path fill="none" stroke="midnightblue" d="M895.763,-248.062C770.51,-244.733 511.174,-233.872 294.772,-199 288.864,-198.048 282.675,-196.789 276.631,-195.41"/>
<polygon fill="midnightblue" stroke="midnightblue" points="277.215,-191.951 266.673,-193.009 275.574,-198.756 277.215,-191.951"/>
</g>
<!-- Node15 -->
<g id="node15" class="node"><title>Node15</title>
<polygon fill="none" stroke="#bfbfbf" points="304.272,-174 304.272,-193 421.272,-193 421.272,-174 304.272,-174"/>
<text text-anchor="middle" x="362.772" y="-181" font-family="Helvetica,sans-Serif" font-size="10.00">Headers/DataHeader.h</text>
</g>
<!-- Node8&#45;&gt;Node15 -->
<g id="edge16" class="edge"><title>Node8&#45;&gt;Node15</title>
<path fill="none" stroke="midnightblue" d="M895.598,-245.343C790.79,-238.898 595.019,-224.5 429.772,-199 422.897,-197.939 415.668,-196.607 408.606,-195.182"/>
<polygon fill="midnightblue" stroke="midnightblue" points="408.944,-191.677 398.438,-193.05 407.507,-198.528 408.944,-191.677"/>
</g>
<!-- Node16 -->
<g id="node16" class="node"><title>Node16</title>
<polygon fill="none" stroke="#bfbfbf" points="439.272,-174 439.272,-193 590.272,-193 590.272,-174 439.272,-174"/>
<text text-anchor="middle" x="514.772" y="-181" font-family="Helvetica,sans-Serif" font-size="10.00">Monitoring/MonitoringFactory.h</text>
</g>
<!-- Node8&#45;&gt;Node16 -->
<g id="edge17" class="edge"><title>Node8&#45;&gt;Node16</title>
<path fill="none" stroke="midnightblue" d="M902.444,-240.974C827.745,-231.478 704.573,-215.308 598.772,-199 590.164,-197.673 581.075,-196.19 572.18,-194.693"/>
<polygon fill="midnightblue" stroke="midnightblue" points="572.702,-191.231 562.256,-193.004 571.527,-198.132 572.702,-191.231"/>
</g>
<!-- Node17 -->
<g id="node17" class="node"><title>Node17</title>
<polygon fill="none" stroke="#bfbfbf" points="608.272,-168.5 608.272,-198.5 743.272,-198.5 743.272,-168.5 608.272,-168.5"/>
<text text-anchor="start" x="616.272" y="-186.5" font-family="Helvetica,sans-Serif" font-size="10.00">Configuration/Configuration</text>
<text text-anchor="middle" x="675.772" y="-175.5" font-family="Helvetica,sans-Serif" font-size="10.00">Interface.h</text>
</g>
<!-- Node8&#45;&gt;Node17 -->
<g id="edge18" class="edge"><title>Node8&#45;&gt;Node17</title>
<path fill="none" stroke="midnightblue" d="M931.902,-240.936C885.61,-230.735 807.283,-213.477 749.408,-200.725"/>
<polygon fill="midnightblue" stroke="midnightblue" points="750.098,-197.293 739.579,-198.559 748.591,-204.129 750.098,-197.293"/>
</g>
<!-- Node18 -->
<g id="node18" class="node"><title>Node18</title>
<g id="a_node18"><a xlink:href="CheckInterface_8h.html" target="_top" xlink:title="QualityControl/CheckInterface.h">
<polygon fill="none" stroke="black" points="967.272,-112.5 967.272,-131.5 1124.27,-131.5 1124.27,-112.5 967.272,-112.5"/>
<text text-anchor="middle" x="1045.77" y="-119.5" font-family="Helvetica,sans-Serif" font-size="10.00">QualityControl/CheckInterface.h</text>
</a>
</g>
</g>
<!-- Node8&#45;&gt;Node18 -->
<g id="edge20" class="edge"><title>Node8&#45;&gt;Node18</title>
<path fill="none" stroke="midnightblue" d="M1020.99,-240.962C1064.58,-232.407 1122.83,-217.818 1136.77,-199 1144.97,-187.93 1144.04,-179.704 1136.77,-168 1127.06,-152.355 1110.11,-141.985 1093.46,-135.19"/>
<polygon fill="midnightblue" stroke="midnightblue" points="1094.33,-131.782 1083.74,-131.589 1091.9,-138.346 1094.33,-131.782"/>
</g>
<!-- Node21 -->
<g id="node21" class="node"><title>Node21</title>
<g id="a_node21"><a xlink:href="MonitorObject_8h.html" target="_top" xlink:title="QualityControl/MonitorObject.h">
<polygon fill="none" stroke="black" points="580.272,-56.5 580.272,-75.5 731.272,-75.5 731.272,-56.5 580.272,-56.5"/>
<text text-anchor="middle" x="655.772" y="-63.5" font-family="Helvetica,sans-Serif" font-size="10.00">QualityControl/MonitorObject.h</text>
</a>
</g>
</g>
<!-- Node8&#45;&gt;Node21 -->
<g id="edge47" class="edge"><title>Node8&#45;&gt;Node21</title>
<path fill="none" stroke="midnightblue" d="M895.531,-247.52C700.755,-242.031 193.438,-225.268 168.772,-199 159.341,-188.956 160.198,-178.785 168.772,-168 217.755,-106.387 443.963,-81.3064 570.128,-71.9726"/>
<polygon fill="midnightblue" stroke="midnightblue" points="570.431,-75.46 580.152,-71.2485 569.926,-68.4782 570.431,-75.46"/>
</g>
<!-- Node25 -->
<g id="node25" class="node"><title>Node25</title>
<g id="a_node25"><a xlink:href="DatabaseInterface_8h.html" target="_top" xlink:title="QualityControl/DatabaseInterface.h">
<polygon fill="none" stroke="black" points="799.772,-174 799.772,-193 969.772,-193 969.772,-174 799.772,-174"/>
<text text-anchor="middle" x="884.772" y="-181" font-family="Helvetica,sans-Serif" font-size="10.00">QualityControl/DatabaseInterface.h</text>
</a>
</g>
</g>
<!-- Node8&#45;&gt;Node25 -->
<g id="edge35" class="edge"><title>Node8&#45;&gt;Node25</title>
<path fill="none" stroke="midnightblue" d="M959.173,-240.734C945.118,-230.111 921.221,-212.049 904.306,-199.264"/>
<polygon fill="midnightblue" stroke="midnightblue" points="906.274,-196.365 896.186,-193.127 902.054,-201.949 906.274,-196.365"/>
</g>
<!-- Node28 -->
<g id="node28" class="node"><title>Node28</title>
<g id="a_node28"><a xlink:href="QcInfoLogger_8h.html" target="_top" xlink:title="QualityControl/QcInfoLogger.h">
<polygon fill="none" stroke="black" points="1614.27,-112.5 1614.27,-131.5 1763.27,-131.5 1763.27,-112.5 1614.27,-112.5"/>
<text text-anchor="middle" x="1688.77" y="-119.5" font-family="Helvetica,sans-Serif" font-size="10.00">QualityControl/QcInfoLogger.h</text>
</a>
</g>
</g>
<!-- Node8&#45;&gt;Node28 -->
<g id="edge48" class="edge"><title>Node8&#45;&gt;Node28</title>
<path fill="none" stroke="midnightblue" d="M1015.56,-240.964C1028.2,-238.773 1042,-236.59 1054.77,-235 1262.23,-209.191 1321.43,-251.557 1523.77,-199 1577.44,-185.06 1635.22,-154.422 1666.14,-136.596"/>
<polygon fill="midnightblue" stroke="midnightblue" points="1667.98,-139.576 1674.85,-131.507 1664.45,-133.534 1667.98,-139.576"/>
</g>
<!-- Node31 -->
<g id="node31" class="node"><title>Node31</title>
<g id="a_node31"><a xlink:href="Check_8h_source.html" target="_top" xlink:title="QualityControl/Check.h">
<polygon fill="none" stroke="black" points="1396.27,-174 1396.27,-193 1515.27,-193 1515.27,-174 1396.27,-174"/>
<text text-anchor="middle" x="1455.77" y="-181" font-family="Helvetica,sans-Serif" font-size="10.00">QualityControl/Check.h</text>
</a>
</g>
</g>
<!-- Node8&#45;&gt;Node31 -->
<g id="edge51" class="edge"><title>Node8&#45;&gt;Node31</title>
<path fill="none" stroke="midnightblue" d="M1017.34,-240.937C1029.5,-238.846 1042.61,-236.718 1054.77,-235 1199.55,-214.555 1237.24,-221.077 1381.77,-199 1389.51,-197.819 1397.66,-196.399 1405.62,-194.916"/>
<polygon fill="midnightblue" stroke="midnightblue" points="1406.39,-198.333 1415.55,-193.017 1405.07,-191.457 1406.39,-198.333"/>
</g>
<!-- Node34 -->
<g id="node34" class="node"><title>Node34</title>
<g id="a_node34"><a xlink:href="UpdatePolicyManager_8h.html" target="_top" xlink:title="QualityControl/UpdatePolicy\lManager.h">
<polygon fill="none" stroke="black" points="987.772,-168.5 987.772,-198.5 1127.77,-198.5 1127.77,-168.5 987.772,-168.5"/>
<text text-anchor="start" x="995.772" y="-186.5" font-family="Helvetica,sans-Serif" font-size="10.00">QualityControl/UpdatePolicy</text>
<text text-anchor="middle" x="1057.77" y="-175.5" font-family="Helvetica,sans-Serif" font-size="10.00">Manager.h</text>
</a>
</g>
</g>
<!-- Node8&#45;&gt;Node34 -->
<g id="edge66" class="edge"><title>Node8&#45;&gt;Node34</title>
<path fill="none" stroke="midnightblue" d="M982.505,-240.734C994.828,-231.527 1014.63,-216.733 1030.83,-204.629"/>
<polygon fill="midnightblue" stroke="midnightblue" points="1033,-207.378 1038.91,-198.589 1028.81,-201.77 1033,-207.378"/>
</g>
<!-- Node18&#45;&gt;Node11 -->
<g id="edge21" class="edge"><title>Node18&#45;&gt;Node11</title>
<path fill="none" stroke="midnightblue" d="M1055.66,-112.368C1076.91,-93.8137 1127.2,-49.9129 1154.09,-26.4376"/>
<polygon fill="midnightblue" stroke="midnightblue" points="1156.7,-28.8046 1161.93,-19.5914 1152.1,-23.5314 1156.7,-28.8046"/>
</g>
<!-- Node18&#45;&gt;Node12 -->
<g id="edge22" class="edge"><title>Node18&#45;&gt;Node12</title>
<path fill="none" stroke="midnightblue" d="M1024.31,-112.457C1003.41,-103.925 970.916,-90.0847 943.772,-76 912.976,-60.0207 878.903,-38.9041 857.423,-25.1416"/>
<polygon fill="midnightblue" stroke="midnightblue" points="859.066,-22.0364 848.765,-19.5554 855.27,-27.9182 859.066,-22.0364"/>
</g>
<!-- Node19 -->
<g id="node19" class="node"><title>Node19</title>
<polygon fill="none" stroke="#bfbfbf" points="1236.27,-56.5 1236.27,-75.5 1319.27,-75.5 1319.27,-56.5 1236.27,-56.5"/>
<text text-anchor="middle" x="1277.77" y="-63.5" font-family="Helvetica,sans-Serif" font-size="10.00">unordered_map</text>
</g>
<!-- Node18&#45;&gt;Node19 -->
<g id="edge23" class="edge"><title>Node18&#45;&gt;Node19</title>
<path fill="none" stroke="midnightblue" d="M1082.53,-112.444C1122.84,-103.063 1187.58,-87.9926 1231.36,-77.8036"/>
<polygon fill="midnightblue" stroke="midnightblue" points="1232.24,-81.1924 1241.18,-75.5164 1230.65,-74.3746 1232.24,-81.1924"/>
</g>
<!-- Node20 -->
<g id="node20" class="node"><title>Node20</title>
<polygon fill="none" stroke="#bfbfbf" points="731.772,-0.5 731.772,-19.5 787.772,-19.5 787.772,-0.5 731.772,-0.5"/>
<text text-anchor="middle" x="759.772" y="-7.5" font-family="Helvetica,sans-Serif" font-size="10.00">Rtypes.h</text>
</g>
<!-- Node18&#45;&gt;Node20 -->
<g id="edge24" class="edge"><title>Node18&#45;&gt;Node20</title>
<path fill="none" stroke="midnightblue" d="M1016.45,-112.469C988.106,-103.998 944.094,-90.2493 906.772,-76 864.145,-59.7254 815.999,-37.7224 786.776,-23.9485"/>
<polygon fill="midnightblue" stroke="midnightblue" points="788.162,-20.7321 777.626,-19.613 785.164,-27.0579 788.162,-20.7321"/>
</g>
<!-- Node18&#45;&gt;Node21 -->
<g id="edge25" class="edge"><title>Node18&#45;&gt;Node21</title>
<path fill="none" stroke="midnightblue" d="M983.975,-112.444C914.229,-102.786 800.934,-87.0993 727.385,-76.9157"/>
<polygon fill="midnightblue" stroke="midnightblue" points="727.665,-73.4211 717.279,-75.5164 726.705,-80.355 727.665,-73.4211"/>
</g>
<!-- Node24 -->
<g id="node24" class="node"><title>Node24</title>
<g id="a_node24"><a xlink:href="Quality_8h.html" target="_top" xlink:title="QualityControl/Quality.h">
<polygon fill="none" stroke="black" points="953.272,-56.5 953.272,-75.5 1074.27,-75.5 1074.27,-56.5 953.272,-56.5"/>
<text text-anchor="middle" x="1013.77" y="-63.5" font-family="Helvetica,sans-Serif" font-size="10.00">QualityControl/Quality.h</text>
</a>
</g>
</g>
<!-- Node18&#45;&gt;Node24 -->
<g id="edge31" class="edge"><title>Node18&#45;&gt;Node24</title>
<path fill="none" stroke="midnightblue" d="M1040.49,-112.083C1036.06,-104.613 1029.61,-93.7244 1024.15,-84.5199"/>
<polygon fill="midnightblue" stroke="midnightblue" points="1027.07,-82.5697 1018.96,-75.7511 1021.04,-86.1383 1027.07,-82.5697"/>
</g>
<!-- Node21&#45;&gt;Node11 -->
<g id="edge26" class="edge"><title>Node21&#45;&gt;Node11</title>
<path fill="none" stroke="midnightblue" d="M731.355,-57.0901C846.585,-45.0312 1061.21,-22.5705 1140.92,-14.2285"/>
<polygon fill="midnightblue" stroke="midnightblue" points="1141.67,-17.6695 1151.25,-13.1476 1140.94,-10.7076 1141.67,-17.6695"/>
</g>
<!-- Node21&#45;&gt;Node12 -->
<g id="edge27" class="edge"><title>Node21&#45;&gt;Node12</title>
<path fill="none" stroke="midnightblue" d="M684.293,-56.4435C718.432,-46.2021 775.176,-29.1789 808.671,-19.1301"/>
<polygon fill="midnightblue" stroke="midnightblue" points="809.697,-22.4766 818.27,-16.2506 807.686,-15.7718 809.697,-22.4766"/>
</g>
<!-- Node21&#45;&gt;Node20 -->
<g id="edge28" class="edge"><title>Node21&#45;&gt;Node20</title>
<path fill="none" stroke="midnightblue" d="M672.481,-56.324C689.084,-47.7034 714.774,-34.3643 733.992,-24.3855"/>
<polygon fill="midnightblue" stroke="midnightblue" points="735.842,-27.3689 743.104,-19.6545 732.616,-21.1565 735.842,-27.3689"/>
</g>
<!-- Node22 -->
<g id="node22" class="node"><title>Node22</title>
<polygon fill="none" stroke="#bfbfbf" points="336.272,-0.5 336.272,-19.5 395.272,-19.5 395.272,-0.5 336.272,-0.5"/>
<text text-anchor="middle" x="365.772" y="-7.5" font-family="Helvetica,sans-Serif" font-size="10.00">TObject.h</text>
</g>
<!-- Node21&#45;&gt;Node22 -->
<g id="edge29" class="edge"><title>Node21&#45;&gt;Node22</title>
<path fill="none" stroke="midnightblue" d="M609.82,-56.4435C553.522,-45.9604 459.065,-28.3718 405.677,-18.4307"/>
<polygon fill="midnightblue" stroke="midnightblue" points="406.043,-14.9386 395.571,-16.5488 404.761,-21.8203 406.043,-14.9386"/>
</g>
<!-- Node23 -->
<g id="node23" class="node"><title>Node23</title>
<polygon fill="none" stroke="#bfbfbf" points="545.772,-0.5 545.772,-19.5 661.772,-19.5 661.772,-0.5 545.772,-0.5"/>
<text text-anchor="middle" x="603.772" y="-7.5" font-family="Helvetica,sans-Serif" font-size="10.00">Common/Exceptions.h</text>
</g>
<!-- Node21&#45;&gt;Node23 -->
<g id="edge30" class="edge"><title>Node21&#45;&gt;Node23</title>
<path fill="none" stroke="midnightblue" d="M647.185,-56.083C639.613,-48.2195 628.394,-36.5688 619.257,-27.0813"/>
<polygon fill="midnightblue" stroke="midnightblue" points="621.656,-24.5266 612.199,-19.7511 616.614,-29.3821 621.656,-24.5266"/>
</g>
<!-- Node24&#45;&gt;Node11 -->
<g id="edge33" class="edge"><title>Node24&#45;&gt;Node11</title>
<path fill="none" stroke="midnightblue" d="M1038.81,-56.4435C1066.64,-46.9316 1111.59,-31.5697 1141.4,-21.3787"/>
<polygon fill="midnightblue" stroke="midnightblue" points="1142.56,-24.6829 1150.89,-18.1368 1140.3,-18.059 1142.56,-24.6829"/>
</g>
<!-- Node24&#45;&gt;Node12 -->
<g id="edge34" class="edge"><title>Node24&#45;&gt;Node12</title>
<path fill="none" stroke="midnightblue" d="M985.567,-56.4435C952.131,-46.2999 896.765,-29.5034 863.526,-19.4199"/>
<polygon fill="midnightblue" stroke="midnightblue" points="864.154,-15.9527 853.568,-16.3989 862.121,-22.6513 864.154,-15.9527"/>
</g>
<!-- Node24&#45;&gt;Node20 -->
<g id="edge32" class="edge"><title>Node24&#45;&gt;Node20</title>
<path fill="none" stroke="midnightblue" d="M973.525,-56.4435C925.305,-46.1922 845.125,-29.146 797.877,-19.101"/>
<polygon fill="midnightblue" stroke="midnightblue" points="798.543,-15.6645 788.034,-17.0084 797.087,-22.5115 798.543,-15.6645"/>
</g>
<!-- Node25&#45;&gt;Node2 -->
<g id="edge38" class="edge"><title>Node25&#45;&gt;Node2</title>
<path fill="none" stroke="midnightblue" d="M828.529,-173.984C814.568,-171.947 799.635,-169.833 785.772,-168 653.625,-150.527 616.285,-158.713 481.862,-131.924"/>
<polygon fill="midnightblue" stroke="midnightblue" points="482.509,-128.484 472.013,-129.934 481.122,-135.345 482.509,-128.484"/>
</g>
<!-- Node25&#45;&gt;Node10 -->
<g id="edge37" class="edge"><title>Node25&#45;&gt;Node10</title>
<path fill="none" stroke="midnightblue" d="M884.772,-173.975C884.772,-165.58 884.772,-152.481 884.772,-141.663"/>
<polygon fill="midnightblue" stroke="midnightblue" points="888.272,-141.509 884.772,-131.509 881.272,-141.509 888.272,-141.509"/>
</g>
<!-- Node25&#45;&gt;Node11 -->
<g id="edge36" class="edge"><title>Node25&#45;&gt;Node11</title>
<path fill="none" stroke="midnightblue" d="M933.091,-173.951C1003.12,-161.378 1125.32,-138.666 1132.77,-132 1162.29,-105.59 1169.59,-56.7522 1171.31,-29.9048"/>
<polygon fill="midnightblue" stroke="midnightblue" points="1174.82,-29.7188 1171.77,-19.5747 1167.83,-29.4112 1174.82,-29.7188"/>
</g>
<!-- Node25&#45;&gt;Node19 -->
<g id="edge39" class="edge"><title>Node25&#45;&gt;Node19</title>
<path fill="none" stroke="midnightblue" d="M938.079,-173.992C1013.8,-161.749 1145.69,-139.78 1166.77,-132 1200.87,-119.419 1236.48,-96.5634 1257.89,-81.5823"/>
<polygon fill="midnightblue" stroke="midnightblue" points="1260.04,-84.3491 1266.15,-75.6968 1255.98,-78.6474 1260.04,-84.3491"/>
</g>
<!-- Node25&#45;&gt;Node21 -->
<g id="edge46" class="edge"><title>Node25&#45;&gt;Node21</title>
<path fill="none" stroke="midnightblue" d="M829.851,-173.98C815.521,-171.888 800.083,-169.749 785.772,-168 745.101,-163.03 446.294,-162.354 418.772,-132 412.801,-125.415 413.103,-118.847 418.772,-112 437.961,-88.8244 510.272,-77.4882 570.028,-72.0021"/>
<polygon fill="midnightblue" stroke="midnightblue" points="570.603,-75.4653 580.26,-71.1075 569.993,-68.4919 570.603,-75.4653"/>
</g>
<!-- Node26 -->
<g id="node26" class="node"><title>Node26</title>
<polygon fill="none" stroke="#bfbfbf" points="489.772,-112.5 489.772,-131.5 635.772,-131.5 635.772,-112.5 489.772,-112.5"/>
<text text-anchor="middle" x="562.772" y="-119.5" font-family="Helvetica,sans-Serif" font-size="10.00">Framework/ServiceRegistry.h</text>
</g>
<!-- Node25&#45;&gt;Node26 -->
<g id="edge40" class="edge"><title>Node25&#45;&gt;Node26</title>
<path fill="none" stroke="midnightblue" d="M838.637,-173.975C780.653,-163.261 681.192,-144.882 618.871,-133.366"/>
<polygon fill="midnightblue" stroke="midnightblue" points="619.29,-129.884 608.821,-131.509 618.018,-136.768 619.29,-129.884"/>
</g>
<!-- Node27 -->
<g id="node27" class="node"><title>Node27</title>
<g id="a_node27"><a xlink:href="QualityObject_8h_source.html" target="_top" xlink:title="QualityControl/QualityObject.h">
<polygon fill="none" stroke="black" points="654.272,-112.5 654.272,-131.5 803.272,-131.5 803.272,-112.5 654.272,-112.5"/>
<text text-anchor="middle" x="728.772" y="-119.5" font-family="Helvetica,sans-Serif" font-size="10.00">QualityControl/QualityObject.h</text>
</a>
</g>
</g>
<!-- Node25&#45;&gt;Node27 -->
<g id="edge41" class="edge"><title>Node25&#45;&gt;Node27</title>
<path fill="none" stroke="midnightblue" d="M862.421,-173.975C835.777,-163.813 791.058,-146.756 760.757,-135.2"/>
<polygon fill="midnightblue" stroke="midnightblue" points="761.672,-131.803 751.081,-131.509 759.177,-138.343 761.672,-131.803"/>
</g>
<!-- Node27&#45;&gt;Node12 -->
<g id="edge42" class="edge"><title>Node27&#45;&gt;Node12</title>
<path fill="none" stroke="midnightblue" d="M737.168,-112.368C755.06,-93.9744 797.183,-50.6712 820.158,-27.0519"/>
<polygon fill="midnightblue" stroke="midnightblue" points="822.951,-29.2 827.415,-19.5914 817.933,-24.3192 822.951,-29.2"/>
</g>
<!-- Node27&#45;&gt;Node22 -->
<g id="edge43" class="edge"><title>Node27&#45;&gt;Node22</title>
<path fill="none" stroke="midnightblue" d="M695.236,-112.477C661.6,-103.795 608.386,-89.6969 562.772,-76 505.179,-58.7063 438.912,-36.3213 399.784,-22.8425"/>
<polygon fill="midnightblue" stroke="midnightblue" points="400.802,-19.491 390.207,-19.5343 398.516,-26.1074 400.802,-19.491"/>
</g>
<!-- Node27&#45;&gt;Node23 -->
<g id="edge44" class="edge"><title>Node27&#45;&gt;Node23</title>
<path fill="none" stroke="midnightblue" d="M673.689,-112.496C633.284,-105.001 583.36,-92.6738 570.772,-76 559.17,-60.633 573.014,-40.5737 586.156,-26.8269"/>
<polygon fill="midnightblue" stroke="midnightblue" points="588.904,-29.0355 593.615,-19.5456 584.014,-24.0264 588.904,-29.0355"/>
</g>
<!-- Node27&#45;&gt;Node24 -->
<g id="edge45" class="edge"><title>Node27&#45;&gt;Node24</title>
<path fill="none" stroke="midnightblue" d="M773.931,-112.444C824.065,-102.944 904.992,-87.611 958.778,-77.4198"/>
<polygon fill="midnightblue" stroke="midnightblue" points="959.65,-80.8169 968.824,-75.5164 958.347,-73.9393 959.65,-80.8169"/>
</g>
<!-- Node29 -->
<g id="node29" class="node"><title>Node29</title>
<polygon fill="none" stroke="#bfbfbf" points="1455.77,-56.5 1455.77,-75.5 1585.77,-75.5 1585.77,-56.5 1455.77,-56.5"/>
<text text-anchor="middle" x="1520.77" y="-63.5" font-family="Helvetica,sans-Serif" font-size="10.00">InfoLogger/InfoLogger.hxx</text>
</g>
<!-- Node28&#45;&gt;Node29 -->
<g id="edge49" class="edge"><title>Node28&#45;&gt;Node29</title>
<path fill="none" stroke="midnightblue" d="M1662.15,-112.444C1633.77,-103.32 1588.64,-88.8133 1557.02,-78.6509"/>
<polygon fill="midnightblue" stroke="midnightblue" points="1557.86,-75.2445 1547.27,-75.5164 1555.72,-81.9087 1557.86,-75.2445"/>
</g>
<!-- Node30 -->
<g id="node30" class="node"><title>Node30</title>
<polygon fill="none" stroke="#bfbfbf" points="1603.77,-56.5 1603.77,-75.5 1765.77,-75.5 1765.77,-56.5 1603.77,-56.5"/>
<text text-anchor="middle" x="1684.77" y="-63.5" font-family="Helvetica,sans-Serif" font-size="10.00">InfoLogger/InfoLoggerMacros.hxx</text>
</g>
<!-- Node28&#45;&gt;Node30 -->
<g id="edge50" class="edge"><title>Node28&#45;&gt;Node30</title>
<path fill="none" stroke="midnightblue" d="M1688.11,-112.083C1687.59,-105.006 1686.84,-94.8611 1686.18,-85.9865"/>
<polygon fill="midnightblue" stroke="midnightblue" points="1689.65,-85.4652 1685.42,-75.7511 1682.67,-85.9823 1689.65,-85.4652"/>
</g>
<!-- Node31&#45;&gt;Node2 -->
<g id="edge54" class="edge"><title>Node31&#45;&gt;Node2</title>
<path fill="none" stroke="midnightblue" d="M1400.35,-173.988C1383.79,-171.717 1365.58,-169.484 1348.77,-168 967.445,-134.329 863.595,-193.255 481.906,-131.758"/>
<polygon fill="midnightblue" stroke="midnightblue" points="482.408,-128.294 471.975,-130.141 481.283,-135.203 482.408,-128.294"/>
</g>
<!-- Node31&#45;&gt;Node4 -->
<g id="edge57" class="edge"><title>Node31&#45;&gt;Node4</title>
<path fill="none" stroke="midnightblue" d="M1515.32,-174.537C1595.86,-163.77 1739.43,-144.573 1826.79,-132.892"/>
<polygon fill="midnightblue" stroke="midnightblue" points="1827.45,-136.335 1836.9,-131.541 1826.52,-129.397 1827.45,-136.335"/>
</g>
<!-- Node31&#45;&gt;Node10 -->
<g id="edge55" class="edge"><title>Node31&#45;&gt;Node10</title>
<path fill="none" stroke="midnightblue" d="M1416.74,-173.981C1405.5,-171.764 1393.19,-169.563 1381.77,-168 1179.91,-140.366 1126.23,-162.439 924.772,-132 923.505,-131.809 922.218,-131.6 920.921,-131.376"/>
<polygon fill="midnightblue" stroke="midnightblue" points="921.403,-127.905 910.921,-129.445 920.076,-134.778 921.403,-127.905"/>
</g>
<!-- Node31&#45;&gt;Node12 -->
<g id="edge53" class="edge"><title>Node31&#45;&gt;Node12</title>
<path fill="none" stroke="midnightblue" d="M1494.19,-173.986C1535.02,-163.149 1590.67,-142.144 1566.77,-112 1549.83,-90.6268 1354.7,-60.3638 1327.77,-56 1152.25,-27.5513 938.369,-15.6685 863.352,-12.1772"/>
<polygon fill="midnightblue" stroke="midnightblue" points="863.461,-8.67861 853.313,-11.722 863.144,-15.6714 863.461,-8.67861"/>
</g>
<!-- Node31&#45;&gt;Node18 -->
<g id="edge61" class="edge"><title>Node31&#45;&gt;Node18</title>
<path fill="none" stroke="midnightblue" d="M1414.37,-173.929C1403.76,-171.86 1392.36,-169.745 1381.77,-168 1296.02,-153.869 1197.4,-141.068 1129.29,-132.763"/>
<polygon fill="midnightblue" stroke="midnightblue" points="1129.39,-129.251 1119.04,-131.521 1128.55,-136.2 1129.39,-129.251"/>
</g>
<!-- Node31&#45;&gt;Node19 -->
<g id="edge56" class="edge"><title>Node31&#45;&gt;Node19</title>
<path fill="none" stroke="midnightblue" d="M1444.73,-173.795C1427.05,-160.008 1391.07,-132.6 1358.77,-112 1340.75,-100.501 1319.6,-88.8125 1303.44,-80.2305"/>
<polygon fill="midnightblue" stroke="midnightblue" points="1305.04,-77.1173 1294.56,-75.5614 1301.78,-83.3131 1305.04,-77.1173"/>
</g>
<!-- Node31&#45;&gt;Node21 -->
<g id="edge60" class="edge"><title>Node31&#45;&gt;Node21</title>
<path fill="none" stroke="midnightblue" d="M1411.08,-173.963C1398.71,-171.798 1385.25,-169.628 1372.77,-168 1189.19,-144.047 1135.41,-184.142 957.772,-132 939.459,-126.625 937.848,-118.124 919.772,-112 861.854,-92.3781 793.765,-81.0403 741.243,-74.6538"/>
<polygon fill="midnightblue" stroke="midnightblue" points="741.63,-71.1753 731.289,-73.4798 740.81,-78.1271 741.63,-71.1753"/>
</g>
<!-- Node31&#45;&gt;Node24 -->
<g id="edge58" class="edge"><title>Node31&#45;&gt;Node24</title>
<path fill="none" stroke="midnightblue" d="M1438.46,-173.826C1418.94,-163.972 1386.34,-147.272 1358.77,-132 1343.44,-123.505 1341.31,-117.809 1324.77,-112 1245.37,-84.1186 1148.75,-73.499 1084.48,-69.4619"/>
<polygon fill="midnightblue" stroke="midnightblue" points="1084.64,-65.9654 1074.45,-68.8689 1084.23,-72.9531 1084.64,-65.9654"/>
</g>
<!-- Node31&#45;&gt;Node27 -->
<g id="edge59" class="edge"><title>Node31&#45;&gt;Node27</title>
<path fill="none" stroke="midnightblue" d="M1397.82,-173.972C1381.94,-171.82 1364.71,-169.654 1348.77,-168 1127.6,-145.059 1071.53,-148.247 849.772,-132 838.036,-131.14 825.661,-130.227 813.485,-129.325"/>
<polygon fill="midnightblue" stroke="midnightblue" points="813.553,-125.821 803.321,-128.571 813.035,-132.801 813.553,-125.821"/>
</g>
<!-- Node31&#45;&gt;Node28 -->
<g id="edge62" class="edge"><title>Node31&#45;&gt;Node28</title>
<path fill="none" stroke="midnightblue" d="M1489.16,-173.975C1530.33,-163.459 1600.42,-145.562 1645.64,-134.014"/>
<polygon fill="midnightblue" stroke="midnightblue" points="1646.63,-137.375 1655.45,-131.509 1644.9,-130.592 1646.63,-137.375"/>
</g>
<!-- Node32 -->
<g id="node32" class="node"><title>Node32</title>
<polygon fill="none" stroke="#bfbfbf" points="1257.27,-112.5 1257.27,-131.5 1316.27,-131.5 1316.27,-112.5 1257.27,-112.5"/>
<text text-anchor="middle" x="1286.77" y="-119.5" font-family="Helvetica,sans-Serif" font-size="10.00">functional</text>
</g>
<!-- Node31&#45;&gt;Node32 -->
<g id="edge52" class="edge"><title>Node31&#45;&gt;Node32</title>
<path fill="none" stroke="midnightblue" d="M1431.56,-173.975C1402.44,-163.725 1353.4,-146.459 1320.57,-134.899"/>
<polygon fill="midnightblue" stroke="midnightblue" points="1321.54,-131.529 1310.94,-131.509 1319.21,-138.131 1321.54,-131.529"/>
</g>
<!-- Node33 -->
<g id="node33" class="node"><title>Node33</title>
<g id="a_node33"><a xlink:href="CheckConfig_8h.html" target="_top" xlink:title="QualityControl/CheckConfig.h">
<polygon fill="none" stroke="black" points="1411.27,-112.5 1411.27,-131.5 1558.27,-131.5 1558.27,-112.5 1411.27,-112.5"/>
<text text-anchor="middle" x="1484.77" y="-119.5" font-family="Helvetica,sans-Serif" font-size="10.00">QualityControl/CheckConfig.h</text>
</a>
</g>
</g>
<!-- Node31&#45;&gt;Node33 -->
<g id="edge63" class="edge"><title>Node31&#45;&gt;Node33</title>
<path fill="none" stroke="midnightblue" d="M1459.93,-173.975C1464.15,-165.315 1470.81,-151.649 1476.17,-140.645"/>
<polygon fill="midnightblue" stroke="midnightblue" points="1479.39,-142.032 1480.62,-131.509 1473.1,-138.965 1479.39,-142.032"/>
</g>
<!-- Node33&#45;&gt;Node11 -->
<g id="edge64" class="edge"><title>Node33&#45;&gt;Node11</title>
<path fill="none" stroke="midnightblue" d="M1465.7,-112.293C1436.42,-99.1075 1378.45,-73.7373 1327.77,-56 1284.87,-40.9826 1234.11,-27.0277 1202.42,-18.7563"/>
<polygon fill="midnightblue" stroke="midnightblue" points="1203,-15.2915 1192.44,-16.1758 1201.25,-22.0684 1203,-15.2915"/>
</g>
<!-- Node33&#45;&gt;Node19 -->
<g id="edge65" class="edge"><title>Node33&#45;&gt;Node19</title>
<path fill="none" stroke="midnightblue" d="M1451.97,-112.444C1416.39,-103.162 1359.46,-88.3093 1320.43,-78.127"/>
<polygon fill="midnightblue" stroke="midnightblue" points="1320.98,-74.6541 1310.42,-75.5164 1319.21,-81.4274 1320.98,-74.6541"/>
</g>
<!-- Node34&#45;&gt;Node2 -->
<g id="edge69" class="edge"><title>Node34&#45;&gt;Node2</title>
<path fill="none" stroke="midnightblue" d="M987.623,-169.213C984.636,-168.778 981.677,-168.37 978.772,-168 761.868,-140.339 700.978,-170.25 481.868,-131.817"/>
<polygon fill="midnightblue" stroke="midnightblue" points="482.449,-128.366 471.99,-130.057 481.221,-135.257 482.449,-128.366"/>
</g>
<!-- Node34&#45;&gt;Node11 -->
<g id="edge67" class="edge"><title>Node34&#45;&gt;Node11</title>
<path fill="none" stroke="midnightblue" d="M1116.96,-168.414C1136.02,-160.839 1155.18,-149.34 1166.77,-132 1187.53,-100.936 1181.88,-54.6948 1176.48,-29.315"/>
<polygon fill="midnightblue" stroke="midnightblue" points="1179.88,-28.4716 1174.19,-19.5351 1173.06,-30.0701 1179.88,-28.4716"/>
</g>
<!-- Node34&#45;&gt;Node12 -->
<g id="edge68" class="edge"><title>Node34&#45;&gt;Node12</title>
<path fill="none" stroke="midnightblue" d="M987.589,-169.561C930.934,-158.451 859.14,-142.597 849.772,-132 824.761,-103.707 827.831,-56.0091 831.976,-29.7454"/>
<polygon fill="midnightblue" stroke="midnightblue" points="835.47,-30.0883 833.799,-19.6262 828.581,-28.8471 835.47,-30.0883"/>
</g>
<!-- Node34&#45;&gt;Node32 -->
<g id="edge70" class="edge"><title>Node34&#45;&gt;Node32</title>
<path fill="none" stroke="midnightblue" d="M1111.75,-168.475C1153.21,-157.703 1209.52,-143.072 1246.95,-133.347"/>
<polygon fill="midnightblue" stroke="midnightblue" points="1248.18,-136.643 1256.98,-130.741 1246.42,-129.868 1248.18,-136.643"/>
</g>
<!-- Node35&#45;&gt;Node4 -->
<g id="edge73" class="edge"><title>Node35&#45;&gt;Node4</title>
<path fill="none" stroke="midnightblue" d="M1937.83,-239.855C1985.77,-231.723 2042.91,-218.295 2057.77,-199 2084.93,-163.723 2029.11,-143.898 1976.67,-133.413"/>
<polygon fill="midnightblue" stroke="midnightblue" points="1977.07,-129.927 1966.59,-131.5 1975.76,-136.804 1977.07,-129.927"/>
</g>
<!-- Node35&#45;&gt;Node11 -->
<g id="edge72" class="edge"><title>Node35&#45;&gt;Node11</title>
<path fill="none" stroke="midnightblue" d="M1866.15,-235.227C1866.15,-217.297 1868.89,-186.625 1885.77,-168 1921.55,-128.518 2023.86,-154.537 1991.77,-112 1937.21,-39.6721 1884.98,-71.7866 1795.77,-56 1570.69,-16.1706 1293.99,-11.4153 1202.64,-10.9841"/>
<polygon fill="midnightblue" stroke="midnightblue" points="1202.44,-7.48351 1192.43,-10.9508 1202.42,-14.4835 1202.44,-7.48351"/>
</g>
<!-- Node35&#45;&gt;Node31 -->
<g id="edge75" class="edge"><title>Node35&#45;&gt;Node31</title>
<path fill="none" stroke="midnightblue" d="M1795.65,-238.252C1717.97,-225.967 1594.68,-206.468 1519.88,-194.639"/>
<polygon fill="midnightblue" stroke="midnightblue" points="1520.08,-191.128 1509.66,-193.022 1518.99,-198.042 1520.08,-191.128"/>
</g>
<!-- Node36 -->
<g id="node36" class="node"><title>Node36</title>
<polygon fill="none" stroke="#bfbfbf" points="1895.27,-174 1895.27,-193 2048.27,-193 2048.27,-174 1895.27,-174"/>
<text text-anchor="middle" x="1971.77" y="-181" font-family="Helvetica,sans-Serif" font-size="10.00">Framework/CompletionPolicy.h</text>
</g>
<!-- Node35&#45;&gt;Node36 -->
<g id="edge74" class="edge"><title>Node35&#45;&gt;Node36</title>
<path fill="none" stroke="midnightblue" d="M1889.56,-235.396C1907.33,-224.395 1931.87,-209.2 1949.51,-198.282"/>
<polygon fill="midnightblue" stroke="midnightblue" points="1951.37,-201.247 1958.03,-193.007 1947.68,-195.295 1951.37,-201.247"/>
</g>
</g>
</svg>
