<?xml version="1.0" encoding="UTF-8" standalone="no"?>
<!DOCTYPE svg PUBLIC "-//W3C//DTD SVG 1.1//EN"
 "http://www.w3.org/Graphics/SVG/1.1/DTD/svg11.dtd">
<!-- Generated by graphviz version 2.38.0 (20140413.2041)
 -->
<!-- Title: Modules/TOF/src/CheckRawMultiplicity.cxx Pages: 1 -->
<!--zoomable 263 -->
<svg id="main" version="1.1" xmlns="http://www.w3.org/2000/svg" xmlns:xlink="http://www.w3.org/1999/xlink" xml:space="preserve" onload="init(evt)">
<style type="text/css"><![CDATA[
.edge:hover path { stroke: red; }
.edge:hover polygon { stroke: red; fill: red; }
]]></style>
<script type="text/javascript"><![CDATA[
var edges = document.getElementsByTagName('g');
if (edges && edges.length) {
  for (var i=0;i<edges.length;i++) {
    if (edges[i].id.substr(0,4)=='edge') {
      edges[i].setAttribute('class','edge');
    }
  }
}
]]></script>
        <defs>
                <circle id="rim" cx="0" cy="0" r="7"/>
                <circle id="rim2" cx="0" cy="0" r="3.5"/>
                <g id="zoomPlus">
                        <use xlink:href="#rim" fill="#404040">
                                <set attributeName="fill" to="#808080" begin="zoomplus.mouseover" end="zoomplus.mouseout"/>
                        </use>
                        <path d="M-4,0h8M0,-4v8" fill="none" stroke="white" stroke-width="1.5" pointer-events="none"/>
                </g>
                <g id="zoomMin">
                        <use xlink:href="#rim" fill="#404040">
                                <set attributeName="fill" to="#808080" begin="zoomminus.mouseover" end="zoomminus.mouseout"/>
                        </use>
                        <path d="M-4,0h8" fill="none" stroke="white" stroke-width="1.5" pointer-events="none"/>
                </g>
                <g id="dirArrow">
                        <path fill="none" stroke="white" stroke-width="1.5" d="M0,-3.0v7 M-2.5,-0.5L0,-3.0L2.5,-0.5"/>
                </g>
               <g id="resetDef">
                       <use xlink:href="#rim2" fill="#404040">
                               <set attributeName="fill" to="#808080" begin="reset.mouseover" end="reset.mouseout"/>
                       </use>
               </g>
        </defs>

<script type="text/javascript">
var viewWidth = 878;
var viewHeight = 263;
var sectionId = 'dynsection-0';
</script>
<script xlink:href="svgpan.js"/>
<svg id="graph" class="graph">
<g id="viewport">
<title>Modules/TOF/src/CheckRawMultiplicity.cxx</title>
<!-- Node1 -->
<g id="node1" class="node"><title>Node1</title>
<polygon fill="#bfbfbf" stroke="black" points="570.829,-224.5 570.829,-254.5 714.829,-254.5 714.829,-224.5 570.829,-224.5"/>
<text text-anchor="start" x="578.829" y="-242.5" font-family="Helvetica,sans-Serif" font-size="10.00">Modules/TOF/src/CheckRaw</text>
<text text-anchor="middle" x="642.829" y="-231.5" font-family="Helvetica,sans-Serif" font-size="10.00">Multiplicity.cxx</text>
</g>
<!-- Node2 -->
<g id="node2" class="node"><title>Node2</title>
<g id="a_node2"><a xlink:href="CheckRawMultiplicity_8h.html" target="_top" xlink:title="Checker for the raw hit multiplicity obtained with the TaskDigits. ">
<polygon fill="none" stroke="black" points="255.329,-168.5 255.329,-187.5 398.329,-187.5 398.329,-168.5 255.329,-168.5"/>
<text text-anchor="middle" x="326.829" y="-175.5" font-family="Helvetica,sans-Serif" font-size="10.00">TOF/CheckRawMultiplicity.h</text>
</a>
</g>
</g>
<!-- Node1&#45;&gt;Node2 -->
<g id="edge1" class="edge"><title>Node1&#45;&gt;Node2</title>
<path fill="none" stroke="midnightblue" d="M570.728,-224.924C513.52,-214.152 434.725,-199.316 382.351,-189.454"/>
<polygon fill="midnightblue" stroke="midnightblue" points="382.718,-185.962 372.243,-187.551 381.422,-192.841 382.718,-185.962"/>
</g>
<!-- Node13 -->
<g id="node13" class="node"><title>Node13</title>
<g id="a_node13"><a xlink:href="QcInfoLogger_8h.html" target="_top" xlink:title="QualityControl/QcInfoLogger.h">
<polygon fill="none" stroke="black" points="416.329,-168.5 416.329,-187.5 565.329,-187.5 565.329,-168.5 416.329,-168.5"/>
<text text-anchor="middle" x="490.829" y="-175.5" font-family="Helvetica,sans-Serif" font-size="10.00">QualityControl/QcInfoLogger.h</text>
</a>
</g>
</g>
<!-- Node1&#45;&gt;Node13 -->
<g id="edge18" class="edge"><title>Node1&#45;&gt;Node13</title>
<path fill="none" stroke="midnightblue" d="M606.807,-224.399C581.19,-214.372 547.102,-201.028 522.519,-191.405"/>
<polygon fill="midnightblue" stroke="midnightblue" points="523.534,-188.044 512.946,-187.658 520.983,-194.562 523.534,-188.044"/>
</g>
<!-- Node16 -->
<g id="node16" class="node"><title>Node16</title>
<polygon fill="none" stroke="#bfbfbf" points="582.829,-168.5 582.829,-187.5 626.829,-187.5 626.829,-168.5 582.829,-168.5"/>
<text text-anchor="middle" x="604.829" y="-175.5" font-family="Helvetica,sans-Serif" font-size="10.00">TH1.h</text>
</g>
<!-- Node1&#45;&gt;Node16 -->
<g id="edge21" class="edge"><title>Node1&#45;&gt;Node16</title>
<path fill="none" stroke="midnightblue" d="M633.824,-224.399C628.416,-215.932 621.497,-205.099 615.775,-196.139"/>
<polygon fill="midnightblue" stroke="midnightblue" points="618.691,-194.202 610.358,-187.658 612.791,-197.97 618.691,-194.202"/>
</g>
<!-- Node17 -->
<g id="node17" class="node"><title>Node17</title>
<polygon fill="none" stroke="#bfbfbf" points="645.329,-168.5 645.329,-187.5 718.329,-187.5 718.329,-168.5 645.329,-168.5"/>
<text text-anchor="middle" x="681.829" y="-175.5" font-family="Helvetica,sans-Serif" font-size="10.00">TPaveText.h</text>
</g>
<!-- Node1&#45;&gt;Node17 -->
<g id="edge22" class="edge"><title>Node1&#45;&gt;Node17</title>
<path fill="none" stroke="midnightblue" d="M652.072,-224.399C657.622,-215.932 664.722,-205.099 670.595,-196.139"/>
<polygon fill="midnightblue" stroke="midnightblue" points="673.599,-197.94 676.154,-187.658 667.745,-194.103 673.599,-197.94"/>
</g>
<!-- Node18 -->
<g id="node18" class="node"><title>Node18</title>
<polygon fill="none" stroke="#bfbfbf" points="736.329,-168.5 736.329,-187.5 805.329,-187.5 805.329,-168.5 736.329,-168.5"/>
<text text-anchor="middle" x="770.829" y="-175.5" font-family="Helvetica,sans-Serif" font-size="10.00">TObjArray.h</text>
</g>
<!-- Node1&#45;&gt;Node18 -->
<g id="edge23" class="edge"><title>Node1&#45;&gt;Node18</title>
<path fill="none" stroke="midnightblue" d="M673.163,-224.399C694.352,-214.55 722.423,-201.501 743.031,-191.922"/>
<polygon fill="midnightblue" stroke="midnightblue" points="744.611,-195.047 752.204,-187.658 741.66,-188.699 744.611,-195.047"/>
</g>
<!-- Node19 -->
<g id="node19" class="node"><title>Node19</title>
<polygon fill="none" stroke="#bfbfbf" points="823.329,-168.5 823.329,-187.5 870.329,-187.5 870.329,-168.5 823.329,-168.5"/>
<text text-anchor="middle" x="846.829" y="-175.5" font-family="Helvetica,sans-Serif" font-size="10.00">TList.h</text>
</g>
<!-- Node1&#45;&gt;Node19 -->
<g id="edge24" class="edge"><title>Node1&#45;&gt;Node19</title>
<path fill="none" stroke="midnightblue" d="M690.916,-224.475C728.599,-213.484 780.06,-198.474 813.37,-188.759"/>
<polygon fill="midnightblue" stroke="midnightblue" points="814.47,-192.084 823.09,-185.924 812.51,-185.364 814.47,-192.084"/>
</g>
<!-- Node3 -->
<g id="node3" class="node"><title>Node3</title>
<g id="a_node3"><a xlink:href="CheckInterface_8h.html" target="_top" xlink:title="QualityControl/CheckInterface.h">
<polygon fill="none" stroke="black" points="137.329,-112.5 137.329,-131.5 294.329,-131.5 294.329,-112.5 137.329,-112.5"/>
<text text-anchor="middle" x="215.829" y="-119.5" font-family="Helvetica,sans-Serif" font-size="10.00">QualityControl/CheckInterface.h</text>
</a>
</g>
</g>
<!-- Node2&#45;&gt;Node3 -->
<g id="edge2" class="edge"><title>Node2&#45;&gt;Node3</title>
<path fill="none" stroke="midnightblue" d="M308.995,-168.324C291.113,-159.625 263.354,-146.12 242.783,-136.113"/>
<polygon fill="midnightblue" stroke="midnightblue" points="244.142,-132.882 233.619,-131.655 241.08,-139.177 244.142,-132.882"/>
</g>
<!-- Node12 -->
<g id="node12" class="node"><title>Node12</title>
<polygon fill="none" stroke="#bfbfbf" points="312.829,-112.5 312.829,-131.5 368.829,-131.5 368.829,-112.5 312.829,-112.5"/>
<text text-anchor="middle" x="340.829" y="-119.5" font-family="Helvetica,sans-Serif" font-size="10.00">TString.h</text>
</g>
<!-- Node2&#45;&gt;Node12 -->
<g id="edge17" class="edge"><title>Node2&#45;&gt;Node12</title>
<path fill="none" stroke="midnightblue" d="M329.141,-168.083C330.996,-160.927 333.664,-150.635 335.983,-141.691"/>
<polygon fill="midnightblue" stroke="midnightblue" points="339.439,-142.309 338.56,-131.751 332.663,-140.553 339.439,-142.309"/>
</g>
<!-- Node4 -->
<g id="node4" class="node"><title>Node4</title>
<polygon fill="none" stroke="#bfbfbf" points="54.3291,-0.5 54.3291,-19.5 95.3291,-19.5 95.3291,-0.5 54.3291,-0.5"/>
<text text-anchor="middle" x="74.8291" y="-7.5" font-family="Helvetica,sans-Serif" font-size="10.00">string</text>
</g>
<!-- Node3&#45;&gt;Node4 -->
<g id="edge3" class="edge"><title>Node3&#45;&gt;Node4</title>
<path fill="none" stroke="midnightblue" d="M137.241,-114.442C84.4263,-108.216 21.5284,-96.6364 4.82905,-76 -11.7095,-55.5623 19.0794,-35.5106 44.9218,-23.2044"/>
<polygon fill="midnightblue" stroke="midnightblue" points="46.4587,-26.3506 54.1221,-19.0346 43.569,-19.9749 46.4587,-26.3506"/>
</g>
<!-- Node5 -->
<g id="node5" class="node"><title>Node5</title>
<polygon fill="none" stroke="#bfbfbf" points="129.329,-0.5 129.329,-19.5 164.329,-19.5 164.329,-0.5 129.329,-0.5"/>
<text text-anchor="middle" x="146.829" y="-7.5" font-family="Helvetica,sans-Serif" font-size="10.00">map</text>
</g>
<!-- Node3&#45;&gt;Node5 -->
<g id="edge4" class="edge"><title>Node3&#45;&gt;Node5</title>
<path fill="none" stroke="midnightblue" d="M208.913,-112.27C201.986,-103.37 191.184,-89.0563 182.829,-76 172.855,-60.4148 162.757,-41.8884 155.804,-28.6095"/>
<polygon fill="midnightblue" stroke="midnightblue" points="158.855,-26.8903 151.154,-19.6136 152.637,-30.1043 158.855,-26.8903"/>
</g>
<!-- Node6 -->
<g id="node6" class="node"><title>Node6</title>
<polygon fill="none" stroke="#bfbfbf" points="400.329,-56.5 400.329,-75.5 483.329,-75.5 483.329,-56.5 400.329,-56.5"/>
<text text-anchor="middle" x="441.829" y="-63.5" font-family="Helvetica,sans-Serif" font-size="10.00">unordered_map</text>
</g>
<!-- Node3&#45;&gt;Node6 -->
<g id="edge5" class="edge"><title>Node3&#45;&gt;Node6</title>
<path fill="none" stroke="midnightblue" d="M251.639,-112.444C290.817,-103.083 353.706,-88.0561 396.344,-77.868"/>
<polygon fill="midnightblue" stroke="midnightblue" points="397.273,-81.2446 406.186,-75.5164 395.647,-74.4363 397.273,-81.2446"/>
</g>
<!-- Node7 -->
<g id="node7" class="node"><title>Node7</title>
<polygon fill="none" stroke="#bfbfbf" points="182.829,-0.5 182.829,-19.5 238.829,-19.5 238.829,-0.5 182.829,-0.5"/>
<text text-anchor="middle" x="210.829" y="-7.5" font-family="Helvetica,sans-Serif" font-size="10.00">Rtypes.h</text>
</g>
<!-- Node3&#45;&gt;Node7 -->
<g id="edge6" class="edge"><title>Node3&#45;&gt;Node7</title>
<path fill="none" stroke="midnightblue" d="M281.602,-112.488C326.638,-103.769 374.445,-86.957 351.829,-56 345.554,-47.4108 288.406,-31.106 248.821,-20.6603"/>
<polygon fill="midnightblue" stroke="midnightblue" points="249.488,-17.2172 238.928,-18.0746 247.718,-23.9897 249.488,-17.2172"/>
</g>
<!-- Node8 -->
<g id="node8" class="node"><title>Node8</title>
<g id="a_node8"><a xlink:href="MonitorObject_8h.html" target="_top" xlink:title="QualityControl/MonitorObject.h">
<polygon fill="none" stroke="black" points="192.329,-56.5 192.329,-75.5 343.329,-75.5 343.329,-56.5 192.329,-56.5"/>
<text text-anchor="middle" x="267.829" y="-63.5" font-family="Helvetica,sans-Serif" font-size="10.00">QualityControl/MonitorObject.h</text>
</a>
</g>
</g>
<!-- Node3&#45;&gt;Node8 -->
<g id="edge7" class="edge"><title>Node3&#45;&gt;Node8</title>
<path fill="none" stroke="midnightblue" d="M224.416,-112.083C231.988,-104.22 243.207,-92.5688 252.343,-83.0813"/>
<polygon fill="midnightblue" stroke="midnightblue" points="254.987,-85.3821 259.402,-75.7511 249.945,-80.5266 254.987,-85.3821"/>
</g>
<!-- Node11 -->
<g id="node11" class="node"><title>Node11</title>
<g id="a_node11"><a xlink:href="Quality_8h.html" target="_top" xlink:title="QualityControl/Quality.h">
<polygon fill="none" stroke="black" points="14.3291,-56.5 14.3291,-75.5 135.329,-75.5 135.329,-56.5 14.3291,-56.5"/>
<text text-anchor="middle" x="74.8291" y="-63.5" font-family="Helvetica,sans-Serif" font-size="10.00">QualityControl/Quality.h</text>
</a>
</g>
</g>
<!-- Node3&#45;&gt;Node11 -->
<g id="edge13" class="edge"><title>Node3&#45;&gt;Node11</title>
<path fill="none" stroke="midnightblue" d="M193.487,-112.444C170.076,-103.478 133.093,-89.314 106.639,-79.1827"/>
<polygon fill="midnightblue" stroke="midnightblue" points="107.657,-75.8245 97.0664,-75.5164 105.153,-82.3615 107.657,-75.8245"/>
</g>
<!-- Node8&#45;&gt;Node4 -->
<g id="edge8" class="edge"><title>Node8&#45;&gt;Node4</title>
<path fill="none" stroke="midnightblue" d="M237.248,-56.4435C201.163,-46.3474 141.524,-29.6606 105.43,-19.562"/>
<polygon fill="midnightblue" stroke="midnightblue" points="106.049,-16.1007 95.4756,-16.7767 104.163,-22.8418 106.049,-16.1007"/>
</g>
<!-- Node8&#45;&gt;Node5 -->
<g id="edge9" class="edge"><title>Node8&#45;&gt;Node5</title>
<path fill="none" stroke="midnightblue" d="M248.656,-56.4435C228.456,-47.4283 196.48,-33.1583 173.754,-23.0161"/>
<polygon fill="midnightblue" stroke="midnightblue" points="174.899,-19.6944 164.341,-18.8151 172.046,-26.0867 174.899,-19.6944"/>
</g>
<!-- Node8&#45;&gt;Node7 -->
<g id="edge10" class="edge"><title>Node8&#45;&gt;Node7</title>
<path fill="none" stroke="midnightblue" d="M258.671,-56.324C250.328,-48.4196 237.797,-36.5482 227.652,-26.9377"/>
<polygon fill="midnightblue" stroke="midnightblue" points="229.82,-24.1705 220.154,-19.8339 225.006,-29.2522 229.82,-24.1705"/>
</g>
<!-- Node9 -->
<g id="node9" class="node"><title>Node9</title>
<polygon fill="none" stroke="#bfbfbf" points="391.329,-0.5 391.329,-19.5 450.329,-19.5 450.329,-0.5 391.329,-0.5"/>
<text text-anchor="middle" x="420.829" y="-7.5" font-family="Helvetica,sans-Serif" font-size="10.00">TObject.h</text>
</g>
<!-- Node8&#45;&gt;Node9 -->
<g id="edge11" class="edge"><title>Node8&#45;&gt;Node9</title>
<path fill="none" stroke="midnightblue" d="M292.072,-56.4435C317.7,-47.3986 358.314,-33.064 387.067,-22.9158"/>
<polygon fill="midnightblue" stroke="midnightblue" points="388.434,-26.1452 396.699,-19.5164 386.104,-19.5442 388.434,-26.1452"/>
</g>
<!-- Node10 -->
<g id="node10" class="node"><title>Node10</title>
<polygon fill="none" stroke="#bfbfbf" points="256.829,-0.5 256.829,-19.5 372.829,-19.5 372.829,-0.5 256.829,-0.5"/>
<text text-anchor="middle" x="314.829" y="-7.5" font-family="Helvetica,sans-Serif" font-size="10.00">Common/Exceptions.h</text>
</g>
<!-- Node8&#45;&gt;Node10 -->
<g id="edge12" class="edge"><title>Node8&#45;&gt;Node10</title>
<path fill="none" stroke="midnightblue" d="M275.59,-56.083C282.366,-48.2982 292.372,-36.8015 300.584,-27.3665"/>
<polygon fill="midnightblue" stroke="midnightblue" points="303.287,-29.592 307.212,-19.7511 298.007,-24.9963 303.287,-29.592"/>
</g>
<!-- Node11&#45;&gt;Node4 -->
<g id="edge15" class="edge"><title>Node11&#45;&gt;Node4</title>
<path fill="none" stroke="midnightblue" d="M74.8291,-56.083C74.8291,-49.0059 74.8291,-38.8611 74.8291,-29.9865"/>
<polygon fill="midnightblue" stroke="midnightblue" points="78.3292,-29.751 74.8291,-19.7511 71.3292,-29.7511 78.3292,-29.751"/>
</g>
<!-- Node11&#45;&gt;Node5 -->
<g id="edge16" class="edge"><title>Node11&#45;&gt;Node5</title>
<path fill="none" stroke="midnightblue" d="M86.3971,-56.324C97.2492,-48.1849 113.71,-35.8395 126.712,-26.0874"/>
<polygon fill="midnightblue" stroke="midnightblue" points="129.151,-28.6339 135.051,-19.8339 124.95,-23.0339 129.151,-28.6339"/>
</g>
<!-- Node11&#45;&gt;Node7 -->
<g id="edge14" class="edge"><title>Node11&#45;&gt;Node7</title>
<path fill="none" stroke="midnightblue" d="M96.3787,-56.4435C118.86,-47.5171 154.317,-33.4387 179.809,-23.3168"/>
<polygon fill="midnightblue" stroke="midnightblue" points="181.378,-26.4598 189.38,-19.5164 178.794,-19.9539 181.378,-26.4598"/>
</g>
<!-- Node14 -->
<g id="node14" class="node"><title>Node14</title>
<polygon fill="none" stroke="#bfbfbf" points="412.829,-112.5 412.829,-131.5 542.829,-131.5 542.829,-112.5 412.829,-112.5"/>
<text text-anchor="middle" x="477.829" y="-119.5" font-family="Helvetica,sans-Serif" font-size="10.00">InfoLogger/InfoLogger.hxx</text>
</g>
<!-- Node13&#45;&gt;Node14 -->
<g id="edge19" class="edge"><title>Node13&#45;&gt;Node14</title>
<path fill="none" stroke="midnightblue" d="M488.682,-168.083C486.96,-160.927 484.482,-150.635 482.329,-141.691"/>
<polygon fill="midnightblue" stroke="midnightblue" points="485.679,-140.654 479.936,-131.751 478.874,-142.293 485.679,-140.654"/>
</g>
<!-- Node15 -->
<g id="node15" class="node"><title>Node15</title>
<polygon fill="none" stroke="#bfbfbf" points="560.829,-112.5 560.829,-131.5 722.829,-131.5 722.829,-112.5 560.829,-112.5"/>
<text text-anchor="middle" x="641.829" y="-119.5" font-family="Helvetica,sans-Serif" font-size="10.00">InfoLogger/InfoLoggerMacros.hxx</text>
</g>
<!-- Node13&#45;&gt;Node15 -->
<g id="edge20" class="edge"><title>Node13&#45;&gt;Node15</title>
<path fill="none" stroke="midnightblue" d="M514.755,-168.444C540.048,-159.399 580.131,-145.064 608.509,-134.916"/>
<polygon fill="midnightblue" stroke="midnightblue" points="609.777,-138.179 618.015,-131.516 607.42,-131.588 609.777,-138.179"/>
</g>
</g>
</svg>
        <g id="navigator" transform="translate(0 0)" fill="#404254">
                <rect fill="#f2f5e9" fill-opacity="0.5" stroke="#606060" stroke-width=".5" x="0" y="0" width="60" height="60"/>
                <use id="zoomplus" xlink:href="#zoomPlus" x="17" y="9" onmousedown="handleZoom(evt,'in')"/>
                <use id="zoomminus" xlink:href="#zoomMin" x="42" y="9" onmousedown="handleZoom(evt,'out')"/>
                <use id="reset" xlink:href="#resetDef" x="30" y="36" onmousedown="handleReset()"/>
                <g id="arrowUp" xlink:href="#dirArrow" transform="translate(30 24)" onmousedown="handlePan(0,-1)">
                  <use xlink:href="#rim" fill="#404040">
                        <set attributeName="fill" to="#808080" begin="arrowUp.mouseover" end="arrowUp.mouseout"/>
                  </use>
                  <path fill="none" stroke="white" stroke-width="1.5" d="M0,-3.0v7 M-2.5,-0.5L0,-3.0L2.5,-0.5"/>
                </g>
                <g id="arrowRight" xlink:href="#dirArrow" transform="rotate(90) translate(36 -43)" onmousedown="handlePan(1,0)">
                  <use xlink:href="#rim" fill="#404040">
                        <set attributeName="fill" to="#808080" begin="arrowRight.mouseover" end="arrowRight.mouseout"/>
                  </use>
                  <path fill="none" stroke="white" stroke-width="1.5" d="M0,-3.0v7 M-2.5,-0.5L0,-3.0L2.5,-0.5"/>
                </g>
                <g id="arrowDown" xlink:href="#dirArrow" transform="rotate(180) translate(-30 -48)" onmousedown="handlePan(0,1)">
                  <use xlink:href="#rim" fill="#404040">
                        <set attributeName="fill" to="#808080" begin="arrowDown.mouseover" end="arrowDown.mouseout"/>
                  </use>
                  <path fill="none" stroke="white" stroke-width="1.5" d="M0,-3.0v7 M-2.5,-0.5L0,-3.0L2.5,-0.5"/>
                </g>
                <g id="arrowLeft" xlink:href="#dirArrow" transform="rotate(270) translate(-36 17)" onmousedown="handlePan(-1,0)">
                  <use xlink:href="#rim" fill="#404040">
                        <set attributeName="fill" to="#808080" begin="arrowLeft.mouseover" end="arrowLeft.mouseout"/>
                  </use>
                  <path fill="none" stroke="white" stroke-width="1.5" d="M0,-3.0v7 M-2.5,-0.5L0,-3.0L2.5,-0.5"/>
                </g>
        </g>
        <svg viewBox="0 0 15 15" width="100%" height="30px" preserveAspectRatio="xMaxYMin meet">
         <g id="arrow_out" transform="scale(0.3 0.3)">
          <a xlink:href="CheckRawMultiplicity_8cxx__incl_org.svg" target="_base">
           <rect id="button" ry="5" rx="5" y="6" x="6" height="38" width="38"
                fill="#f2f5e9" fill-opacity="0.5" stroke="#606060" stroke-width="1.0"/>
           <path id="arrow"
             d="M 11.500037,31.436501 C 11.940474,20.09759 22.043105,11.32322 32.158766,21.979434 L 37.068811,17.246167 C 37.068811,17.246167 37.088388,32 37.088388,32 L 22.160133,31.978069 C 22.160133,31.978069 26.997745,27.140456 26.997745,27.140456 C 18.528582,18.264221 13.291696,25.230495 11.500037,31.436501 z"
             style="fill:#404040;"/>
          </a>
         </g>
        </svg>
</svg>
