<?xml version="1.0" encoding="UTF-8" standalone="no"?>
<!DOCTYPE svg PUBLIC "-//W3C//DTD SVG 1.1//EN"
 "http://www.w3.org/Graphics/SVG/1.1/DTD/svg11.dtd">
<!-- Generated by graphviz version 2.38.0 (20140413.2041)
 -->
<!-- Title: Framework/include/QualityControl/CheckRunnerFactory.h Pages: 1 -->
<!--zoomable 263 -->
<svg id="main" version="1.1" xmlns="http://www.w3.org/2000/svg" xmlns:xlink="http://www.w3.org/1999/xlink" xml:space="preserve" onload="init(evt)">
<style type="text/css"><![CDATA[
.edge:hover path { stroke: red; }
.edge:hover polygon { stroke: red; fill: red; }
]]></style>
<script type="text/javascript"><![CDATA[
var edges = document.getElementsByTagName('g');
if (edges && edges.length) {
  for (var i=0;i<edges.length;i++) {
    if (edges[i].id.substr(0,4)=='edge') {
      edges[i].setAttribute('class','edge');
    }
  }
}
]]></script>
        <defs>
                <circle id="rim" cx="0" cy="0" r="7"/>
                <circle id="rim2" cx="0" cy="0" r="3.5"/>
                <g id="zoomPlus">
                        <use xlink:href="#rim" fill="#404040">
                                <set attributeName="fill" to="#808080" begin="zoomplus.mouseover" end="zoomplus.mouseout"/>
                        </use>
                        <path d="M-4,0h8M0,-4v8" fill="none" stroke="white" stroke-width="1.5" pointer-events="none"/>
                </g>
                <g id="zoomMin">
                        <use xlink:href="#rim" fill="#404040">
                                <set attributeName="fill" to="#808080" begin="zoomminus.mouseover" end="zoomminus.mouseout"/>
                        </use>
                        <path d="M-4,0h8" fill="none" stroke="white" stroke-width="1.5" pointer-events="none"/>
                </g>
                <g id="dirArrow">
                        <path fill="none" stroke="white" stroke-width="1.5" d="M0,-3.0v7 M-2.5,-0.5L0,-3.0L2.5,-0.5"/>
                </g>
               <g id="resetDef">
                       <use xlink:href="#rim2" fill="#404040">
                               <set attributeName="fill" to="#808080" begin="reset.mouseover" end="reset.mouseout"/>
                       </use>
               </g>
        </defs>

<script type="text/javascript">
var viewWidth = 1252;
var viewHeight = 263;
var sectionId = 'dynsection-0';
</script>
<script xlink:href="svgpan.js"/>
<svg id="graph" class="graph">
<g id="viewport">
<title>Framework/include/QualityControl/CheckRunnerFactory.h</title>
<!-- Node1 -->
<g id="node1" class="node"><title>Node1</title>
<polygon fill="#bfbfbf" stroke="black" points="549,-224.5 549,-254.5 701,-254.5 701,-224.5 549,-224.5"/>
<text text-anchor="start" x="557" y="-242.5" font-family="Helvetica,sans-Serif" font-size="10.00">Framework/include/Quality</text>
<text text-anchor="middle" x="625" y="-231.5" font-family="Helvetica,sans-Serif" font-size="10.00">Control/CheckRunnerFactory.h</text>
</g>
<!-- Node2 -->
<g id="node2" class="node"><title>Node2</title>
<polygon fill="none" stroke="#bfbfbf" points="732.5,-0.5 732.5,-19.5 773.5,-19.5 773.5,-0.5 732.5,-0.5"/>
<text text-anchor="middle" x="753" y="-7.5" font-family="Helvetica,sans-Serif" font-size="10.00">string</text>
</g>
<!-- Node1&#45;&gt;Node2 -->
<g id="edge1" class="edge"><title>Node1&#45;&gt;Node2</title>
<path fill="none" stroke="midnightblue" d="M701.114,-232.823C840.509,-221.12 1129.84,-190.386 1210,-132 1232.82,-115.376 1233.13,-103.386 1240,-76 1242.16,-67.3785 1245.99,-62.5682 1240,-56 1209.23,-22.2516 886.17,-13.4447 783.878,-11.4937"/>
<polygon fill="midnightblue" stroke="midnightblue" points="783.663,-7.98925 773.601,-11.3068 783.536,-14.9881 783.663,-7.98925"/>
</g>
<!-- Node3 -->
<g id="node3" class="node"><title>Node3</title>
<polygon fill="none" stroke="#bfbfbf" points="0,-112.5 0,-131.5 164,-131.5 164,-112.5 0,-112.5"/>
<text text-anchor="middle" x="82" y="-119.5" font-family="Helvetica,sans-Serif" font-size="10.00">Framework/DataProcessorSpec.h</text>
</g>
<!-- Node1&#45;&gt;Node3 -->
<g id="edge2" class="edge"><title>Node1&#45;&gt;Node3</title>
<path fill="none" stroke="midnightblue" d="M558.96,-224.453C448.951,-201.053 230.559,-154.6 132.147,-133.667"/>
<polygon fill="midnightblue" stroke="midnightblue" points="132.669,-130.199 122.16,-131.542 131.213,-137.046 132.669,-130.199"/>
</g>
<!-- Node4 -->
<g id="node4" class="node"><title>Node4</title>
<polygon fill="none" stroke="#bfbfbf" points="625.5,-168.5 625.5,-187.5 778.5,-187.5 778.5,-168.5 625.5,-168.5"/>
<text text-anchor="middle" x="702" y="-175.5" font-family="Helvetica,sans-Serif" font-size="10.00">Framework/CompletionPolicy.h</text>
</g>
<!-- Node1&#45;&gt;Node4 -->
<g id="edge3" class="edge"><title>Node1&#45;&gt;Node4</title>
<path fill="none" stroke="midnightblue" d="M643.248,-224.399C655.129,-215.218 670.607,-203.258 682.694,-193.918"/>
<polygon fill="midnightblue" stroke="midnightblue" points="685.023,-196.542 690.796,-187.658 680.743,-191.003 685.023,-196.542"/>
</g>
<!-- Node5 -->
<g id="node5" class="node"><title>Node5</title>
<g id="a_node5"><a xlink:href="Check_8h_source.html" target="_top" xlink:title="QualityControl/Check.h">
<polygon fill="none" stroke="black" points="488.5,-168.5 488.5,-187.5 607.5,-187.5 607.5,-168.5 488.5,-168.5"/>
<text text-anchor="middle" x="548" y="-175.5" font-family="Helvetica,sans-Serif" font-size="10.00">QualityControl/Check.h</text>
</a>
</g>
</g>
<!-- Node1&#45;&gt;Node5 -->
<g id="edge4" class="edge"><title>Node1&#45;&gt;Node5</title>
<path fill="none" stroke="midnightblue" d="M606.752,-224.399C594.871,-215.218 579.393,-203.258 567.306,-193.918"/>
<polygon fill="midnightblue" stroke="midnightblue" points="569.257,-191.003 559.204,-187.658 564.977,-196.542 569.257,-191.003"/>
</g>
<!-- Node5&#45;&gt;Node3 -->
<g id="edge10" class="edge"><title>Node5&#45;&gt;Node3</title>
<path fill="none" stroke="midnightblue" d="M488.033,-170.051C406.053,-160.551 258.601,-143.464 165.751,-132.705"/>
<polygon fill="midnightblue" stroke="midnightblue" points="165.882,-129.197 155.546,-131.522 165.076,-136.15 165.882,-129.197"/>
</g>
<!-- Node6 -->
<g id="node6" class="node"><title>Node6</title>
<polygon fill="none" stroke="#bfbfbf" points="1141.5,-112.5 1141.5,-131.5 1200.5,-131.5 1200.5,-112.5 1141.5,-112.5"/>
<text text-anchor="middle" x="1171" y="-119.5" font-family="Helvetica,sans-Serif" font-size="10.00">functional</text>
</g>
<!-- Node5&#45;&gt;Node6 -->
<g id="edge5" class="edge"><title>Node5&#45;&gt;Node6</title>
<path fill="none" stroke="midnightblue" d="M607.68,-168.888C610.491,-168.573 613.275,-168.275 616,-168 841.926,-145.205 903.552,-166.049 1131.3,-132.038"/>
<polygon fill="midnightblue" stroke="midnightblue" points="1131.86,-135.494 1141.22,-130.538 1130.81,-128.573 1131.86,-135.494"/>
</g>
<!-- Node7 -->
<g id="node7" class="node"><title>Node7</title>
<polygon fill="none" stroke="#bfbfbf" points="416.5,-0.5 416.5,-19.5 451.5,-19.5 451.5,-0.5 416.5,-0.5"/>
<text text-anchor="middle" x="434" y="-7.5" font-family="Helvetica,sans-Serif" font-size="10.00">map</text>
</g>
<!-- Node5&#45;&gt;Node7 -->
<g id="edge6" class="edge"><title>Node5&#45;&gt;Node7</title>
<path fill="none" stroke="midnightblue" d="M540.013,-168.076C527.065,-154.133 500.094,-127.207 472,-112 421.908,-84.8853 383.155,-121.584 349,-76 329.802,-50.3771 374.979,-29.7938 406.554,-19.0778"/>
<polygon fill="midnightblue" stroke="midnightblue" points="407.789,-22.3569 416.228,-15.9515 405.637,-15.696 407.789,-22.3569"/>
</g>
<!-- Node8 -->
<g id="node8" class="node"><title>Node8</title>
<polygon fill="none" stroke="#bfbfbf" points="349,-112.5 349,-131.5 393,-131.5 393,-112.5 349,-112.5"/>
<text text-anchor="middle" x="371" y="-119.5" font-family="Helvetica,sans-Serif" font-size="10.00">vector</text>
</g>
<!-- Node5&#45;&gt;Node8 -->
<g id="edge7" class="edge"><title>Node5&#45;&gt;Node8</title>
<path fill="none" stroke="midnightblue" d="M519.954,-168.444C488.063,-158.714 436.111,-142.864 402.755,-132.688"/>
<polygon fill="midnightblue" stroke="midnightblue" points="403.629,-129.296 393.043,-129.725 401.587,-135.991 403.629,-129.296"/>
</g>
<!-- Node9 -->
<g id="node9" class="node"><title>Node9</title>
<polygon fill="none" stroke="#bfbfbf" points="411,-112.5 411,-131.5 463,-131.5 463,-112.5 411,-112.5"/>
<text text-anchor="middle" x="437" y="-119.5" font-family="Helvetica,sans-Serif" font-size="10.00">memory</text>
</g>
<!-- Node5&#45;&gt;Node9 -->
<g id="edge8" class="edge"><title>Node5&#45;&gt;Node9</title>
<path fill="none" stroke="midnightblue" d="M530.166,-168.324C512.284,-159.625 484.525,-146.12 463.954,-136.113"/>
<polygon fill="midnightblue" stroke="midnightblue" points="465.313,-132.882 454.79,-131.655 462.251,-139.177 465.313,-132.882"/>
</g>
<!-- Node10 -->
<g id="node10" class="node"><title>Node10</title>
<polygon fill="none" stroke="#bfbfbf" points="781.5,-56.5 781.5,-75.5 864.5,-75.5 864.5,-56.5 781.5,-56.5"/>
<text text-anchor="middle" x="823" y="-63.5" font-family="Helvetica,sans-Serif" font-size="10.00">unordered_map</text>
</g>
<!-- Node5&#45;&gt;Node10 -->
<g id="edge9" class="edge"><title>Node5&#45;&gt;Node10</title>
<path fill="none" stroke="midnightblue" d="M607.604,-168.569C661.419,-160.222 736.022,-146.606 762,-132 782.778,-120.317 800.636,-99.1617 811.566,-84.1619"/>
<polygon fill="midnightblue" stroke="midnightblue" points="814.58,-85.9592 817.44,-75.7577 808.842,-81.9491 814.58,-85.9592"/>
</g>
<!-- Node11 -->
<g id="node11" class="node"><title>Node11</title>
<g id="a_node11"><a xlink:href="Quality_8h.html" target="_top" xlink:title="QualityControl/Quality.h">
<polygon fill="none" stroke="black" points="527.5,-56.5 527.5,-75.5 648.5,-75.5 648.5,-56.5 527.5,-56.5"/>
<text text-anchor="middle" x="588" y="-63.5" font-family="Helvetica,sans-Serif" font-size="10.00">QualityControl/Quality.h</text>
</a>
</g>
</g>
<!-- Node5&#45;&gt;Node11 -->
<g id="edge11" class="edge"><title>Node5&#45;&gt;Node11</title>
<path fill="none" stroke="midnightblue" d="M551.139,-168.368C557.623,-150.537 572.62,-109.295 581.356,-85.2717"/>
<polygon fill="midnightblue" stroke="midnightblue" points="584.748,-86.1855 584.876,-75.5914 578.169,-83.7932 584.748,-86.1855"/>
</g>
<!-- Node13 -->
<g id="node13" class="node"><title>Node13</title>
<g id="a_node13"><a xlink:href="QualityObject_8h_source.html" target="_top" xlink:title="QualityControl/QualityObject.h">
<polygon fill="none" stroke="black" points="182.5,-112.5 182.5,-131.5 331.5,-131.5 331.5,-112.5 182.5,-112.5"/>
<text text-anchor="middle" x="257" y="-119.5" font-family="Helvetica,sans-Serif" font-size="10.00">QualityControl/QualityObject.h</text>
</a>
</g>
</g>
<!-- Node5&#45;&gt;Node13 -->
<g id="edge15" class="edge"><title>Node5&#45;&gt;Node13</title>
<path fill="none" stroke="midnightblue" d="M501.89,-168.444C450.594,-158.925 367.727,-143.547 312.809,-133.356"/>
<polygon fill="midnightblue" stroke="midnightblue" points="313.365,-129.9 302.894,-131.516 312.088,-136.782 313.365,-129.9"/>
</g>
<!-- Node16 -->
<g id="node16" class="node"><title>Node16</title>
<g id="a_node16"><a xlink:href="MonitorObject_8h.html" target="_top" xlink:title="QualityControl/MonitorObject.h">
<polygon fill="none" stroke="black" points="358.5,-56.5 358.5,-75.5 509.5,-75.5 509.5,-56.5 358.5,-56.5"/>
<text text-anchor="middle" x="434" y="-63.5" font-family="Helvetica,sans-Serif" font-size="10.00">QualityControl/MonitorObject.h</text>
</a>
</g>
</g>
<!-- Node5&#45;&gt;Node16 -->
<g id="edge20" class="edge"><title>Node5&#45;&gt;Node16</title>
<path fill="none" stroke="midnightblue" d="M543.706,-168.168C536.898,-154.821 522.582,-129.242 505,-112 492.008,-99.2595 474.829,-88.2545 460.623,-80.3169"/>
<polygon fill="midnightblue" stroke="midnightblue" points="462.254,-77.2202 451.791,-75.5562 458.933,-83.3821 462.254,-77.2202"/>
</g>
<!-- Node17 -->
<g id="node17" class="node"><title>Node17</title>
<g id="a_node17"><a xlink:href="CheckInterface_8h.html" target="_top" xlink:title="QualityControl/CheckInterface.h">
<polygon fill="none" stroke="black" points="595.5,-112.5 595.5,-131.5 752.5,-131.5 752.5,-112.5 595.5,-112.5"/>
<text text-anchor="middle" x="674" y="-119.5" font-family="Helvetica,sans-Serif" font-size="10.00">QualityControl/CheckInterface.h</text>
</a>
</g>
</g>
<!-- Node5&#45;&gt;Node17 -->
<g id="edge26" class="edge"><title>Node5&#45;&gt;Node17</title>
<path fill="none" stroke="midnightblue" d="M567.965,-168.444C588.609,-159.596 621.063,-145.687 644.632,-135.586"/>
<polygon fill="midnightblue" stroke="midnightblue" points="646.316,-138.673 654.128,-131.516 643.558,-132.239 646.316,-138.673"/>
</g>
<!-- Node18 -->
<g id="node18" class="node"><title>Node18</title>
<g id="a_node18"><a xlink:href="QcInfoLogger_8h.html" target="_top" xlink:title="QualityControl/QcInfoLogger.h">
<polygon fill="none" stroke="black" points="974.5,-112.5 974.5,-131.5 1123.5,-131.5 1123.5,-112.5 974.5,-112.5"/>
<text text-anchor="middle" x="1049" y="-119.5" font-family="Helvetica,sans-Serif" font-size="10.00">QualityControl/QcInfoLogger.h</text>
</a>
</g>
</g>
<!-- Node5&#45;&gt;Node18 -->
<g id="edge33" class="edge"><title>Node5&#45;&gt;Node18</title>
<path fill="none" stroke="midnightblue" d="M607.692,-169C610.499,-168.655 613.28,-168.32 616,-168 767.97,-150.131 808.752,-148.493 963.955,-132.209"/>
<polygon fill="midnightblue" stroke="midnightblue" points="964.767,-135.643 974.345,-131.115 964.034,-128.681 964.767,-135.643"/>
</g>
<!-- Node21 -->
<g id="node21" class="node"><title>Node21</title>
<g id="a_node21"><a xlink:href="CheckConfig_8h.html" target="_top" xlink:title="QualityControl/CheckConfig.h">
<polygon fill="none" stroke="black" points="809.5,-112.5 809.5,-131.5 956.5,-131.5 956.5,-112.5 809.5,-112.5"/>
<text text-anchor="middle" x="883" y="-119.5" font-family="Helvetica,sans-Serif" font-size="10.00">QualityControl/CheckConfig.h</text>
</a>
</g>
</g>
<!-- Node5&#45;&gt;Node21 -->
<g id="edge36" class="edge"><title>Node5&#45;&gt;Node21</title>
<path fill="none" stroke="midnightblue" d="M601.082,-168.444C660.502,-158.865 756.72,-143.356 819.929,-133.167"/>
<polygon fill="midnightblue" stroke="midnightblue" points="820.851,-136.563 830.167,-131.516 819.737,-129.653 820.851,-136.563"/>
</g>
<!-- Node11&#45;&gt;Node2 -->
<g id="edge13" class="edge"><title>Node11&#45;&gt;Node2</title>
<path fill="none" stroke="midnightblue" d="M614.145,-56.4435C643.536,-46.8247 691.205,-31.2238 722.331,-21.0372"/>
<polygon fill="midnightblue" stroke="midnightblue" points="723.787,-24.2435 732.202,-17.8067 721.609,-17.5907 723.787,-24.2435"/>
</g>
<!-- Node11&#45;&gt;Node7 -->
<g id="edge14" class="edge"><title>Node11&#45;&gt;Node7</title>
<path fill="none" stroke="midnightblue" d="M563.598,-56.4435C535.679,-46.6537 490.088,-30.6672 461.09,-20.4991"/>
<polygon fill="midnightblue" stroke="midnightblue" points="462.176,-17.1711 451.581,-17.1649 459.86,-23.7768 462.176,-17.1711"/>
</g>
<!-- Node12 -->
<g id="node12" class="node"><title>Node12</title>
<polygon fill="none" stroke="#bfbfbf" points="560,-0.5 560,-19.5 616,-19.5 616,-0.5 560,-0.5"/>
<text text-anchor="middle" x="588" y="-7.5" font-family="Helvetica,sans-Serif" font-size="10.00">Rtypes.h</text>
</g>
<!-- Node11&#45;&gt;Node12 -->
<g id="edge12" class="edge"><title>Node11&#45;&gt;Node12</title>
<path fill="none" stroke="midnightblue" d="M588,-56.083C588,-49.0059 588,-38.8611 588,-29.9865"/>
<polygon fill="midnightblue" stroke="midnightblue" points="591.5,-29.751 588,-19.7511 584.5,-29.7511 591.5,-29.751"/>
</g>
<!-- Node13&#45;&gt;Node7 -->
<g id="edge16" class="edge"><title>Node13&#45;&gt;Node7</title>
<path fill="none" stroke="midnightblue" d="M262.88,-112.219C272.493,-98.4731 292.841,-71.8115 316,-56 331.064,-45.7154 376.391,-29.7909 406.281,-19.9018"/>
<polygon fill="midnightblue" stroke="midnightblue" points="407.72,-23.1134 416.134,-16.6748 405.542,-16.4611 407.72,-23.1134"/>
</g>
<!-- Node13&#45;&gt;Node11 -->
<g id="edge19" class="edge"><title>Node13&#45;&gt;Node11</title>
<path fill="none" stroke="midnightblue" d="M309.448,-112.444C368.158,-102.865 463.228,-87.3556 525.682,-77.1667"/>
<polygon fill="midnightblue" stroke="midnightblue" points="526.491,-80.581 535.797,-75.5164 525.364,-73.6723 526.491,-80.581"/>
</g>
<!-- Node14 -->
<g id="node14" class="node"><title>Node14</title>
<polygon fill="none" stroke="#bfbfbf" points="191.5,-0.5 191.5,-19.5 250.5,-19.5 250.5,-0.5 191.5,-0.5"/>
<text text-anchor="middle" x="221" y="-7.5" font-family="Helvetica,sans-Serif" font-size="10.00">TObject.h</text>
</g>
<!-- Node13&#45;&gt;Node14 -->
<g id="edge17" class="edge"><title>Node13&#45;&gt;Node14</title>
<path fill="none" stroke="midnightblue" d="M253.543,-112.444C249.959,-103.443 244.292,-88.8305 240,-76 234.814,-60.4949 229.655,-42.6547 226.025,-29.5916"/>
<polygon fill="midnightblue" stroke="midnightblue" points="229.387,-28.6172 223.368,-19.8983 222.636,-30.4678 229.387,-28.6172"/>
</g>
<!-- Node15 -->
<g id="node15" class="node"><title>Node15</title>
<polygon fill="none" stroke="#bfbfbf" points="278,-0.5 278,-19.5 394,-19.5 394,-0.5 278,-0.5"/>
<text text-anchor="middle" x="336" y="-7.5" font-family="Helvetica,sans-Serif" font-size="10.00">Common/Exceptions.h</text>
</g>
<!-- Node13&#45;&gt;Node15 -->
<g id="edge18" class="edge"><title>Node13&#45;&gt;Node15</title>
<path fill="none" stroke="midnightblue" d="M258.143,-112.276C260.22,-99.0683 265.605,-73.6696 278,-56 286.807,-43.4454 300.149,-32.7511 311.817,-24.9419"/>
<polygon fill="midnightblue" stroke="midnightblue" points="313.744,-27.8643 320.31,-19.5496 309.992,-21.9547 313.744,-27.8643"/>
</g>
<!-- Node16&#45;&gt;Node2 -->
<g id="edge21" class="edge"><title>Node16&#45;&gt;Node2</title>
<path fill="none" stroke="midnightblue" d="M484.546,-56.4435C551.416,-45.124 667.225,-25.5199 722.254,-16.2047"/>
<polygon fill="midnightblue" stroke="midnightblue" points="723.141,-19.6044 732.417,-14.4843 721.973,-12.7025 723.141,-19.6044"/>
</g>
<!-- Node16&#45;&gt;Node7 -->
<g id="edge22" class="edge"><title>Node16&#45;&gt;Node7</title>
<path fill="none" stroke="midnightblue" d="M434,-56.083C434,-49.0059 434,-38.8611 434,-29.9865"/>
<polygon fill="midnightblue" stroke="midnightblue" points="437.5,-29.751 434,-19.7511 430.5,-29.7511 437.5,-29.751"/>
</g>
<!-- Node16&#45;&gt;Node12 -->
<g id="edge23" class="edge"><title>Node16&#45;&gt;Node12</title>
<path fill="none" stroke="midnightblue" d="M458.402,-56.4435C484.197,-47.3986 525.077,-33.064 554.018,-22.9158"/>
<polygon fill="midnightblue" stroke="midnightblue" points="555.434,-26.1283 563.712,-19.5164 553.118,-19.5226 555.434,-26.1283"/>
</g>
<!-- Node16&#45;&gt;Node14 -->
<g id="edge24" class="edge"><title>Node16&#45;&gt;Node14</title>
<path fill="none" stroke="midnightblue" d="M400.25,-56.4435C362.292,-46.8205 300.718,-31.2102 260.539,-21.0239"/>
<polygon fill="midnightblue" stroke="midnightblue" points="261.366,-17.6229 250.812,-18.558 259.645,-24.4082 261.366,-17.6229"/>
</g>
<!-- Node16&#45;&gt;Node15 -->
<g id="edge25" class="edge"><title>Node16&#45;&gt;Node15</title>
<path fill="none" stroke="midnightblue" d="M418.255,-56.324C402.681,-47.7428 378.623,-34.486 360.541,-24.5224"/>
<polygon fill="midnightblue" stroke="midnightblue" points="362.154,-21.4152 351.706,-19.6545 358.776,-27.546 362.154,-21.4152"/>
</g>
<!-- Node17&#45;&gt;Node2 -->
<g id="edge27" class="edge"><title>Node17&#45;&gt;Node2</title>
<path fill="none" stroke="midnightblue" d="M688.466,-112.314C700.765,-104.271 718.113,-91.2692 729,-76 739.029,-61.9338 745.359,-43.1942 748.983,-29.451"/>
<polygon fill="midnightblue" stroke="midnightblue" points="752.397,-30.2261 751.329,-19.6851 745.59,-28.5909 752.397,-30.2261"/>
</g>
<!-- Node17&#45;&gt;Node7 -->
<g id="edge28" class="edge"><title>Node17&#45;&gt;Node7</title>
<path fill="none" stroke="midnightblue" d="M674.419,-112.42C674.598,-98.4616 672.77,-70.9002 657,-56 629.135,-29.6717 515.3,-17.397 461.9,-13.0015"/>
<polygon fill="midnightblue" stroke="midnightblue" points="462.016,-9.49988 451.772,-12.2032 461.466,-16.4782 462.016,-9.49988"/>
</g>
<!-- Node17&#45;&gt;Node10 -->
<g id="edge29" class="edge"><title>Node17&#45;&gt;Node10</title>
<path fill="none" stroke="midnightblue" d="M697.609,-112.444C722.458,-103.438 761.774,-89.1891 789.754,-79.049"/>
<polygon fill="midnightblue" stroke="midnightblue" points="791.292,-82.2144 799.501,-75.5164 788.907,-75.6332 791.292,-82.2144"/>
</g>
<!-- Node17&#45;&gt;Node11 -->
<g id="edge32" class="edge"><title>Node17&#45;&gt;Node11</title>
<path fill="none" stroke="midnightblue" d="M660.183,-112.324C646.767,-103.9 626.176,-90.9709 610.414,-81.0741"/>
<polygon fill="midnightblue" stroke="midnightblue" points="612.113,-78.0081 601.783,-75.6545 608.391,-83.9364 612.113,-78.0081"/>
</g>
<!-- Node17&#45;&gt;Node12 -->
<g id="edge30" class="edge"><title>Node17&#45;&gt;Node12</title>
<path fill="none" stroke="midnightblue" d="M680.354,-112.299C689.128,-99.1227 702.624,-73.7637 691,-56 676.666,-34.0953 649.071,-22.7908 626.05,-16.9919"/>
<polygon fill="midnightblue" stroke="midnightblue" points="626.713,-13.5537 616.188,-14.7628 625.17,-20.3814 626.713,-13.5537"/>
</g>
<!-- Node17&#45;&gt;Node16 -->
<g id="edge31" class="edge"><title>Node17&#45;&gt;Node16</title>
<path fill="none" stroke="midnightblue" d="M635.971,-112.444C594.192,-103.043 527.018,-87.9291 481.73,-77.7393"/>
<polygon fill="midnightblue" stroke="midnightblue" points="482.375,-74.297 471.851,-75.5164 480.839,-81.1263 482.375,-74.297"/>
</g>
<!-- Node19 -->
<g id="node19" class="node"><title>Node19</title>
<polygon fill="none" stroke="#bfbfbf" points="1101,-56.5 1101,-75.5 1231,-75.5 1231,-56.5 1101,-56.5"/>
<text text-anchor="middle" x="1166" y="-63.5" font-family="Helvetica,sans-Serif" font-size="10.00">InfoLogger/InfoLogger.hxx</text>
</g>
<!-- Node18&#45;&gt;Node19 -->
<g id="edge34" class="edge"><title>Node18&#45;&gt;Node19</title>
<path fill="none" stroke="midnightblue" d="M1067.54,-112.444C1086.62,-103.636 1116.57,-89.8116 1138.44,-79.722"/>
<polygon fill="midnightblue" stroke="midnightblue" points="1139.93,-82.8849 1147.55,-75.5164 1137,-76.5292 1139.93,-82.8849"/>
</g>
<!-- Node20 -->
<g id="node20" class="node"><title>Node20</title>
<polygon fill="none" stroke="#bfbfbf" points="921,-56.5 921,-75.5 1083,-75.5 1083,-56.5 921,-56.5"/>
<text text-anchor="middle" x="1002" y="-63.5" font-family="Helvetica,sans-Serif" font-size="10.00">InfoLogger/InfoLoggerMacros.hxx</text>
</g>
<!-- Node18&#45;&gt;Node20 -->
<g id="edge35" class="edge"><title>Node18&#45;&gt;Node20</title>
<path fill="none" stroke="midnightblue" d="M1041.24,-112.083C1034.46,-104.298 1024.46,-92.8015 1016.24,-83.3665"/>
<polygon fill="midnightblue" stroke="midnightblue" points="1018.82,-80.9963 1009.62,-75.7511 1013.54,-85.592 1018.82,-80.9963"/>
</g>
<!-- Node21&#45;&gt;Node2 -->
<g id="edge37" class="edge"><title>Node21&#45;&gt;Node2</title>
<path fill="none" stroke="midnightblue" d="M884.378,-112.347C886.028,-98.7759 887.118,-72.3499 874,-56 852.111,-28.7181 811.942,-17.9758 783.915,-13.7462"/>
<polygon fill="midnightblue" stroke="midnightblue" points="784.202,-10.2539 773.832,-12.4232 783.291,-17.1945 784.202,-10.2539"/>
</g>
<!-- Node21&#45;&gt;Node10 -->
<g id="edge38" class="edge"><title>Node21&#45;&gt;Node10</title>
<path fill="none" stroke="midnightblue" d="M873.36,-112.324C864.49,-104.341 851.125,-92.3128 840.392,-82.6529"/>
<polygon fill="midnightblue" stroke="midnightblue" points="842.59,-79.922 832.815,-75.8339 837.907,-85.1251 842.59,-79.922"/>
</g>
</g>
</svg>
        <g id="navigator" transform="translate(0 0)" fill="#404254">
                <rect fill="#f2f5e9" fill-opacity="0.5" stroke="#606060" stroke-width=".5" x="0" y="0" width="60" height="60"/>
                <use id="zoomplus" xlink:href="#zoomPlus" x="17" y="9" onmousedown="handleZoom(evt,'in')"/>
                <use id="zoomminus" xlink:href="#zoomMin" x="42" y="9" onmousedown="handleZoom(evt,'out')"/>
                <use id="reset" xlink:href="#resetDef" x="30" y="36" onmousedown="handleReset()"/>
                <g id="arrowUp" xlink:href="#dirArrow" transform="translate(30 24)" onmousedown="handlePan(0,-1)">
                  <use xlink:href="#rim" fill="#404040">
                        <set attributeName="fill" to="#808080" begin="arrowUp.mouseover" end="arrowUp.mouseout"/>
                  </use>
                  <path fill="none" stroke="white" stroke-width="1.5" d="M0,-3.0v7 M-2.5,-0.5L0,-3.0L2.5,-0.5"/>
                </g>
                <g id="arrowRight" xlink:href="#dirArrow" transform="rotate(90) translate(36 -43)" onmousedown="handlePan(1,0)">
                  <use xlink:href="#rim" fill="#404040">
                        <set attributeName="fill" to="#808080" begin="arrowRight.mouseover" end="arrowRight.mouseout"/>
                  </use>
                  <path fill="none" stroke="white" stroke-width="1.5" d="M0,-3.0v7 M-2.5,-0.5L0,-3.0L2.5,-0.5"/>
                </g>
                <g id="arrowDown" xlink:href="#dirArrow" transform="rotate(180) translate(-30 -48)" onmousedown="handlePan(0,1)">
                  <use xlink:href="#rim" fill="#404040">
                        <set attributeName="fill" to="#808080" begin="arrowDown.mouseover" end="arrowDown.mouseout"/>
                  </use>
                  <path fill="none" stroke="white" stroke-width="1.5" d="M0,-3.0v7 M-2.5,-0.5L0,-3.0L2.5,-0.5"/>
                </g>
                <g id="arrowLeft" xlink:href="#dirArrow" transform="rotate(270) translate(-36 17)" onmousedown="handlePan(-1,0)">
                  <use xlink:href="#rim" fill="#404040">
                        <set attributeName="fill" to="#808080" begin="arrowLeft.mouseover" end="arrowLeft.mouseout"/>
                  </use>
                  <path fill="none" stroke="white" stroke-width="1.5" d="M0,-3.0v7 M-2.5,-0.5L0,-3.0L2.5,-0.5"/>
                </g>
        </g>
        <svg viewBox="0 0 15 15" width="100%" height="30px" preserveAspectRatio="xMaxYMin meet">
         <g id="arrow_out" transform="scale(0.3 0.3)">
          <a xlink:href="CheckRunnerFactory_8h__incl_org.svg" target="_base">
           <rect id="button" ry="5" rx="5" y="6" x="6" height="38" width="38"
                fill="#f2f5e9" fill-opacity="0.5" stroke="#606060" stroke-width="1.0"/>
           <path id="arrow"
             d="M 11.500037,31.436501 C 11.940474,20.09759 22.043105,11.32322 32.158766,21.979434 L 37.068811,17.246167 C 37.068811,17.246167 37.088388,32 37.088388,32 L 22.160133,31.978069 C 22.160133,31.978069 26.997745,27.140456 26.997745,27.140456 C 18.528582,18.264221 13.291696,25.230495 11.500037,31.436501 z"
             style="fill:#404040;"/>
          </a>
         </g>
        </svg>
</svg>
