<?xml version="1.0" encoding="UTF-8" standalone="no"?>
<!DOCTYPE svg PUBLIC "-//W3C//DTD SVG 1.1//EN"
 "http://www.w3.org/Graphics/SVG/1.1/DTD/svg11.dtd">
<!-- Generated by graphviz version 2.38.0 (20140413.2041)
 -->
<!-- Title: Modules/TOF/src/CheckDiagnostics.cxx Pages: 1 -->
<!--zoomable 252 -->
<svg id="main" version="1.1" xmlns="http://www.w3.org/2000/svg" xmlns:xlink="http://www.w3.org/1999/xlink" xml:space="preserve" onload="init(evt)">
<style type="text/css"><![CDATA[
.edge:hover path { stroke: red; }
.edge:hover polygon { stroke: red; fill: red; }
]]></style>
<script type="text/javascript"><![CDATA[
var edges = document.getElementsByTagName('g');
if (edges && edges.length) {
  for (var i=0;i<edges.length;i++) {
    if (edges[i].id.substr(0,4)=='edge') {
      edges[i].setAttribute('class','edge');
    }
  }
}
]]></script>
        <defs>
                <circle id="rim" cx="0" cy="0" r="7"/>
                <circle id="rim2" cx="0" cy="0" r="3.5"/>
                <g id="zoomPlus">
                        <use xlink:href="#rim" fill="#404040">
                                <set attributeName="fill" to="#808080" begin="zoomplus.mouseover" end="zoomplus.mouseout"/>
                        </use>
                        <path d="M-4,0h8M0,-4v8" fill="none" stroke="white" stroke-width="1.5" pointer-events="none"/>
                </g>
                <g id="zoomMin">
                        <use xlink:href="#rim" fill="#404040">
                                <set attributeName="fill" to="#808080" begin="zoomminus.mouseover" end="zoomminus.mouseout"/>
                        </use>
                        <path d="M-4,0h8" fill="none" stroke="white" stroke-width="1.5" pointer-events="none"/>
                </g>
                <g id="dirArrow">
                        <path fill="none" stroke="white" stroke-width="1.5" d="M0,-3.0v7 M-2.5,-0.5L0,-3.0L2.5,-0.5"/>
                </g>
               <g id="resetDef">
                       <use xlink:href="#rim2" fill="#404040">
                               <set attributeName="fill" to="#808080" begin="reset.mouseover" end="reset.mouseout"/>
                       </use>
               </g>
        </defs>

<script type="text/javascript">
var viewWidth = 954;
var viewHeight = 252;
var sectionId = 'dynsection-0';
</script>
<script xlink:href="svgpan.js"/>
<svg id="graph" class="graph">
<g id="viewport">
<title>Modules/TOF/src/CheckDiagnostics.cxx</title>
<!-- Node1 -->
<g id="node1" class="node"><title>Node1</title>
<polygon fill="#bfbfbf" stroke="black" points="551,-224.5 551,-243.5 745,-243.5 745,-224.5 551,-224.5"/>
<text text-anchor="middle" x="648" y="-231.5" font-family="Helvetica,sans-Serif" font-size="10.00">Modules/TOF/src/CheckDiagnostics.cxx</text>
</g>
<!-- Node2 -->
<g id="node2" class="node"><title>Node2</title>
<g id="a_node2"><a xlink:href="CheckDiagnostics_8h.html" target="_top" xlink:title="Checker dedicated to the study of low level raw data diagnostics words. ">
<polygon fill="none" stroke="black" points="306,-168.5 306,-187.5 434,-187.5 434,-168.5 306,-168.5"/>
<text text-anchor="middle" x="370" y="-175.5" font-family="Helvetica,sans-Serif" font-size="10.00">TOF/CheckDiagnostics.h</text>
</a>
</g>
</g>
<!-- Node1&#45;&gt;Node2 -->
<g id="edge1" class="edge"><title>Node1&#45;&gt;Node2</title>
<path fill="none" stroke="midnightblue" d="M603.95,-224.444C555.149,-214.964 476.437,-199.675 423.97,-189.483"/>
<polygon fill="midnightblue" stroke="midnightblue" points="424.328,-185.988 413.844,-187.516 422.993,-192.859 424.328,-185.988"/>
</g>
<!-- Node8 -->
<g id="node8" class="node"><title>Node8</title>
<g id="a_node8"><a xlink:href="MonitorObject_8h.html" target="_top" xlink:title="QualityControl/MonitorObject.h">
<polygon fill="none" stroke="black" points="68.5,-56.5 68.5,-75.5 219.5,-75.5 219.5,-56.5 68.5,-56.5"/>
<text text-anchor="middle" x="144" y="-63.5" font-family="Helvetica,sans-Serif" font-size="10.00">QualityControl/MonitorObject.h</text>
</a>
</g>
</g>
<!-- Node1&#45;&gt;Node8 -->
<g id="edge19" class="edge"><title>Node1&#45;&gt;Node8</title>
<path fill="none" stroke="midnightblue" d="M550.829,-232.671C478.667,-229.569 378.975,-219.169 297,-188 237.332,-165.313 182.581,-110.432 157.857,-83.0688"/>
<polygon fill="midnightblue" stroke="midnightblue" points="160.426,-80.691 151.175,-75.5262 155.186,-85.3325 160.426,-80.691"/>
</g>
<!-- Node11 -->
<g id="node11" class="node"><title>Node11</title>
<g id="a_node11"><a xlink:href="Quality_8h.html" target="_top" xlink:title="QualityControl/Quality.h">
<polygon fill="none" stroke="black" points="454.5,-56.5 454.5,-75.5 575.5,-75.5 575.5,-56.5 454.5,-56.5"/>
<text text-anchor="middle" x="515" y="-63.5" font-family="Helvetica,sans-Serif" font-size="10.00">QualityControl/Quality.h</text>
</a>
</g>
</g>
<!-- Node1&#45;&gt;Node11 -->
<g id="edge20" class="edge"><title>Node1&#45;&gt;Node11</title>
<path fill="none" stroke="midnightblue" d="M565.549,-224.413C543.332,-217.887 521.685,-206.774 508,-188 485.875,-157.648 498.007,-110.795 507.381,-85.2089"/>
<polygon fill="midnightblue" stroke="midnightblue" points="510.734,-86.2433 511.121,-75.6555 504.216,-83.6912 510.734,-86.2433"/>
</g>
<!-- Node12 -->
<g id="node12" class="node"><title>Node12</title>
<g id="a_node12"><a xlink:href="QcInfoLogger_8h.html" target="_top" xlink:title="QualityControl/QcInfoLogger.h">
<polygon fill="none" stroke="black" points="516.5,-168.5 516.5,-187.5 665.5,-187.5 665.5,-168.5 516.5,-168.5"/>
<text text-anchor="middle" x="591" y="-175.5" font-family="Helvetica,sans-Serif" font-size="10.00">QualityControl/QcInfoLogger.h</text>
</a>
</g>
</g>
<!-- Node1&#45;&gt;Node12 -->
<g id="edge21" class="edge"><title>Node1&#45;&gt;Node12</title>
<path fill="none" stroke="midnightblue" d="M638.842,-224.324C630.499,-216.42 617.968,-204.548 607.823,-194.938"/>
<polygon fill="midnightblue" stroke="midnightblue" points="609.991,-192.171 600.325,-187.834 605.177,-197.252 609.991,-192.171"/>
</g>
<!-- Node15 -->
<g id="node15" class="node"><title>Node15</title>
<polygon fill="none" stroke="#bfbfbf" points="683,-168.5 683,-187.5 727,-187.5 727,-168.5 683,-168.5"/>
<text text-anchor="middle" x="705" y="-175.5" font-family="Helvetica,sans-Serif" font-size="10.00">TH1.h</text>
</g>
<!-- Node1&#45;&gt;Node15 -->
<g id="edge24" class="edge"><title>Node1&#45;&gt;Node15</title>
<path fill="none" stroke="midnightblue" d="M657.158,-224.324C665.501,-216.42 678.032,-204.548 688.177,-194.938"/>
<polygon fill="midnightblue" stroke="midnightblue" points="690.823,-197.252 695.675,-187.834 686.009,-192.171 690.823,-197.252"/>
</g>
<!-- Node16 -->
<g id="node16" class="node"><title>Node16</title>
<polygon fill="none" stroke="#bfbfbf" points="745,-168.5 745,-187.5 789,-187.5 789,-168.5 745,-168.5"/>
<text text-anchor="middle" x="767" y="-175.5" font-family="Helvetica,sans-Serif" font-size="10.00">TH2.h</text>
</g>
<!-- Node1&#45;&gt;Node16 -->
<g id="edge25" class="edge"><title>Node1&#45;&gt;Node16</title>
<path fill="none" stroke="midnightblue" d="M666.856,-224.444C686.266,-215.636 716.73,-201.812 738.965,-191.722"/>
<polygon fill="midnightblue" stroke="midnightblue" points="740.572,-194.836 748.232,-187.516 737.68,-188.462 740.572,-194.836"/>
</g>
<!-- Node17 -->
<g id="node17" class="node"><title>Node17</title>
<polygon fill="none" stroke="#bfbfbf" points="807.5,-168.5 807.5,-187.5 880.5,-187.5 880.5,-168.5 807.5,-168.5"/>
<text text-anchor="middle" x="844" y="-175.5" font-family="Helvetica,sans-Serif" font-size="10.00">TPaveText.h</text>
</g>
<!-- Node1&#45;&gt;Node17 -->
<g id="edge26" class="edge"><title>Node1&#45;&gt;Node17</title>
<path fill="none" stroke="midnightblue" d="M679.057,-224.444C712.603,-215.201 766.197,-200.436 803.141,-190.257"/>
<polygon fill="midnightblue" stroke="midnightblue" points="804.377,-193.547 813.089,-187.516 802.518,-186.798 804.377,-193.547"/>
</g>
<!-- Node18 -->
<g id="node18" class="node"><title>Node18</title>
<polygon fill="none" stroke="#bfbfbf" points="898.5,-168.5 898.5,-187.5 945.5,-187.5 945.5,-168.5 898.5,-168.5"/>
<text text-anchor="middle" x="922" y="-175.5" font-family="Helvetica,sans-Serif" font-size="10.00">TList.h</text>
</g>
<!-- Node1&#45;&gt;Node18 -->
<g id="edge27" class="edge"><title>Node1&#45;&gt;Node18</title>
<path fill="none" stroke="midnightblue" d="M701.637,-224.456C748.656,-216.643 819.028,-204.172 888.502,-188.201"/>
<polygon fill="midnightblue" stroke="midnightblue" points="889.348,-191.597 898.296,-185.924 887.763,-184.779 889.348,-191.597"/>
</g>
<!-- Node3 -->
<g id="node3" class="node"><title>Node3</title>
<g id="a_node3"><a xlink:href="CheckInterface_8h.html" target="_top" xlink:title="QualityControl/CheckInterface.h">
<polygon fill="none" stroke="black" points="265.5,-112.5 265.5,-131.5 422.5,-131.5 422.5,-112.5 265.5,-112.5"/>
<text text-anchor="middle" x="344" y="-119.5" font-family="Helvetica,sans-Serif" font-size="10.00">QualityControl/CheckInterface.h</text>
</a>
</g>
</g>
<!-- Node2&#45;&gt;Node3 -->
<g id="edge2" class="edge"><title>Node2&#45;&gt;Node3</title>
<path fill="none" stroke="midnightblue" d="M365.707,-168.083C362.148,-160.691 356.978,-149.953 352.576,-140.811"/>
<polygon fill="midnightblue" stroke="midnightblue" points="355.705,-139.243 348.213,-131.751 349.398,-142.279 355.705,-139.243"/>
</g>
<!-- Node2&#45;&gt;Node8 -->
<g id="edge17" class="edge"><title>Node2&#45;&gt;Node8</title>
<path fill="none" stroke="midnightblue" d="M345.081,-168.387C321.673,-160.011 285.876,-146.465 256,-132 223.776,-116.398 188.302,-95.054 166.092,-81.1493"/>
<polygon fill="midnightblue" stroke="midnightblue" points="167.758,-78.0619 157.433,-75.684 164.022,-83.9814 167.758,-78.0619"/>
</g>
<!-- Node2&#45;&gt;Node11 -->
<g id="edge18" class="edge"><title>Node2&#45;&gt;Node11</title>
<path fill="none" stroke="midnightblue" d="M381.753,-168.453C394.081,-159.459 413.99,-144.853 431,-132 453.426,-115.055 478.926,-95.2445 495.89,-81.9883"/>
<polygon fill="midnightblue" stroke="midnightblue" points="498.202,-84.6227 503.921,-75.7034 493.888,-79.1101 498.202,-84.6227"/>
</g>
<!-- Node4 -->
<g id="node4" class="node"><title>Node4</title>
<polygon fill="none" stroke="#bfbfbf" points="352.5,-0.5 352.5,-19.5 393.5,-19.5 393.5,-0.5 352.5,-0.5"/>
<text text-anchor="middle" x="373" y="-7.5" font-family="Helvetica,sans-Serif" font-size="10.00">string</text>
</g>
<!-- Node3&#45;&gt;Node4 -->
<g id="edge3" class="edge"><title>Node3&#45;&gt;Node4</title>
<path fill="none" stroke="midnightblue" d="M349.923,-112.5C355.654,-103.779 364.039,-89.6017 368,-76 372.405,-60.8715 373.498,-42.9741 373.578,-29.7936"/>
<polygon fill="midnightblue" stroke="midnightblue" points="377.076,-29.5667 373.446,-19.6131 370.076,-29.6578 377.076,-29.5667"/>
</g>
<!-- Node5 -->
<g id="node5" class="node"><title>Node5</title>
<polygon fill="none" stroke="#bfbfbf" points="230.5,-0.5 230.5,-19.5 265.5,-19.5 265.5,-0.5 230.5,-0.5"/>
<text text-anchor="middle" x="248" y="-7.5" font-family="Helvetica,sans-Serif" font-size="10.00">map</text>
</g>
<!-- Node3&#45;&gt;Node5 -->
<g id="edge4" class="edge"><title>Node3&#45;&gt;Node5</title>
<path fill="none" stroke="midnightblue" d="M319.843,-112.485C302.746,-105.277 280.535,-93.3267 267,-76 256.606,-62.6944 251.894,-43.862 249.761,-29.8908"/>
<polygon fill="midnightblue" stroke="midnightblue" points="253.23,-29.4283 248.543,-19.9268 246.282,-30.2775 253.23,-29.4283"/>
</g>
<!-- Node6 -->
<g id="node6" class="node"><title>Node6</title>
<polygon fill="none" stroke="#bfbfbf" points="276.5,-56.5 276.5,-75.5 359.5,-75.5 359.5,-56.5 276.5,-56.5"/>
<text text-anchor="middle" x="318" y="-63.5" font-family="Helvetica,sans-Serif" font-size="10.00">unordered_map</text>
</g>
<!-- Node3&#45;&gt;Node6 -->
<g id="edge5" class="edge"><title>Node3&#45;&gt;Node6</title>
<path fill="none" stroke="midnightblue" d="M339.707,-112.083C336.148,-104.691 330.978,-93.9533 326.576,-84.8111"/>
<polygon fill="midnightblue" stroke="midnightblue" points="329.705,-83.2427 322.213,-75.7511 323.398,-86.2795 329.705,-83.2427"/>
</g>
<!-- Node7 -->
<g id="node7" class="node"><title>Node7</title>
<polygon fill="none" stroke="#bfbfbf" points="412,-0.5 412,-19.5 468,-19.5 468,-0.5 412,-0.5"/>
<text text-anchor="middle" x="440" y="-7.5" font-family="Helvetica,sans-Serif" font-size="10.00">Rtypes.h</text>
</g>
<!-- Node3&#45;&gt;Node7 -->
<g id="edge6" class="edge"><title>Node3&#45;&gt;Node7</title>
<path fill="none" stroke="midnightblue" d="M351.708,-112.408C359.792,-103.378 372.848,-88.743 384,-76 398.323,-59.633 414.525,-40.7904 425.804,-27.6209"/>
<polygon fill="midnightblue" stroke="midnightblue" points="428.594,-29.7431 432.435,-19.8689 423.275,-25.1929 428.594,-29.7431"/>
</g>
<!-- Node3&#45;&gt;Node8 -->
<g id="edge7" class="edge"><title>Node3&#45;&gt;Node8</title>
<path fill="none" stroke="midnightblue" d="M312.309,-112.444C277.932,-103.162 222.923,-88.3093 185.211,-78.127"/>
<polygon fill="midnightblue" stroke="midnightblue" points="186.109,-74.7442 175.542,-75.5164 184.284,-81.5022 186.109,-74.7442"/>
</g>
<!-- Node3&#45;&gt;Node11 -->
<g id="edge13" class="edge"><title>Node3&#45;&gt;Node11</title>
<path fill="none" stroke="midnightblue" d="M371.095,-112.444C399.988,-103.32 445.925,-88.8133 478.105,-78.6509"/>
<polygon fill="midnightblue" stroke="midnightblue" points="479.549,-81.8654 488.031,-75.5164 477.441,-75.1903 479.549,-81.8654"/>
</g>
<!-- Node8&#45;&gt;Node4 -->
<g id="edge8" class="edge"><title>Node8&#45;&gt;Node4</title>
<path fill="none" stroke="midnightblue" d="M180.286,-56.4435C225.047,-45.8884 300.357,-28.1298 342.353,-18.2268"/>
<polygon fill="midnightblue" stroke="midnightblue" points="343.343,-21.5893 352.273,-15.8876 341.737,-14.7762 343.343,-21.5893"/>
</g>
<!-- Node8&#45;&gt;Node5 -->
<g id="edge9" class="edge"><title>Node8&#45;&gt;Node5</title>
<path fill="none" stroke="midnightblue" d="M160.709,-56.324C177.312,-47.7034 203.002,-34.3643 222.22,-24.3855"/>
<polygon fill="midnightblue" stroke="midnightblue" points="224.07,-27.3689 231.332,-19.6545 220.844,-21.1565 224.07,-27.3689"/>
</g>
<!-- Node8&#45;&gt;Node7 -->
<g id="edge10" class="edge"><title>Node8&#45;&gt;Node7</title>
<path fill="none" stroke="midnightblue" d="M198.538,-56.4606C250.881,-48.0356 332.076,-34.3651 402,-20 402.1,-19.9795 402.199,-19.959 402.299,-19.9384"/>
<polygon fill="midnightblue" stroke="midnightblue" points="402.79,-23.4135 411.82,-17.8725 401.305,-16.5727 402.79,-23.4135"/>
</g>
<!-- Node9 -->
<g id="node9" class="node"><title>Node9</title>
<polygon fill="none" stroke="#bfbfbf" points="134.5,-0.5 134.5,-19.5 193.5,-19.5 193.5,-0.5 134.5,-0.5"/>
<text text-anchor="middle" x="164" y="-7.5" font-family="Helvetica,sans-Serif" font-size="10.00">TObject.h</text>
</g>
<!-- Node8&#45;&gt;Node9 -->
<g id="edge11" class="edge"><title>Node8&#45;&gt;Node9</title>
<path fill="none" stroke="midnightblue" d="M147.303,-56.083C149.982,-48.8486 153.849,-38.4087 157.186,-29.3968"/>
<polygon fill="midnightblue" stroke="midnightblue" points="160.568,-30.3442 160.759,-19.7511 154.004,-27.9129 160.568,-30.3442"/>
</g>
<!-- Node10 -->
<g id="node10" class="node"><title>Node10</title>
<polygon fill="none" stroke="#bfbfbf" points="0,-0.5 0,-19.5 116,-19.5 116,-0.5 0,-0.5"/>
<text text-anchor="middle" x="58" y="-7.5" font-family="Helvetica,sans-Serif" font-size="10.00">Common/Exceptions.h</text>
</g>
<!-- Node8&#45;&gt;Node10 -->
<g id="edge12" class="edge"><title>Node8&#45;&gt;Node10</title>
<path fill="none" stroke="midnightblue" d="M130.183,-56.324C116.767,-47.9002 96.1759,-34.9709 80.4144,-25.0741"/>
<polygon fill="midnightblue" stroke="midnightblue" points="82.1132,-22.0081 71.7831,-19.6545 78.3908,-27.9364 82.1132,-22.0081"/>
</g>
<!-- Node11&#45;&gt;Node4 -->
<g id="edge15" class="edge"><title>Node11&#45;&gt;Node4</title>
<path fill="none" stroke="midnightblue" d="M492.5,-56.4435C468.368,-47.2666 429.917,-32.6446 403.173,-22.4744"/>
<polygon fill="midnightblue" stroke="midnightblue" points="404.142,-19.0982 393.551,-18.8151 401.654,-25.6411 404.142,-19.0982"/>
</g>
<!-- Node11&#45;&gt;Node5 -->
<g id="edge16" class="edge"><title>Node11&#45;&gt;Node5</title>
<path fill="none" stroke="midnightblue" d="M472.693,-56.4435C417.444,-45.2695 322.278,-26.0225 275.535,-16.569"/>
<polygon fill="midnightblue" stroke="midnightblue" points="276.031,-13.0984 265.536,-14.5465 274.643,-19.9595 276.031,-13.0984"/>
</g>
<!-- Node11&#45;&gt;Node7 -->
<g id="edge14" class="edge"><title>Node11&#45;&gt;Node7</title>
<path fill="none" stroke="midnightblue" d="M502.95,-56.324C491.537,-48.1066 474.169,-35.6017 460.565,-25.8069"/>
<polygon fill="midnightblue" stroke="midnightblue" points="462.43,-22.8366 452.269,-19.8339 458.34,-28.5174 462.43,-22.8366"/>
</g>
<!-- Node13 -->
<g id="node13" class="node"><title>Node13</title>
<polygon fill="none" stroke="#bfbfbf" points="697,-112.5 697,-131.5 827,-131.5 827,-112.5 697,-112.5"/>
<text text-anchor="middle" x="762" y="-119.5" font-family="Helvetica,sans-Serif" font-size="10.00">InfoLogger/InfoLogger.hxx</text>
</g>
<!-- Node12&#45;&gt;Node13 -->
<g id="edge22" class="edge"><title>Node12&#45;&gt;Node13</title>
<path fill="none" stroke="midnightblue" d="M618.095,-168.444C646.988,-159.32 692.925,-144.813 725.105,-134.651"/>
<polygon fill="midnightblue" stroke="midnightblue" points="726.549,-137.865 735.031,-131.516 724.441,-131.19 726.549,-137.865"/>
</g>
<!-- Node14 -->
<g id="node14" class="node"><title>Node14</title>
<polygon fill="none" stroke="#bfbfbf" points="517,-112.5 517,-131.5 679,-131.5 679,-112.5 517,-112.5"/>
<text text-anchor="middle" x="598" y="-119.5" font-family="Helvetica,sans-Serif" font-size="10.00">InfoLogger/InfoLoggerMacros.hxx</text>
</g>
<!-- Node12&#45;&gt;Node14 -->
<g id="edge23" class="edge"><title>Node12&#45;&gt;Node14</title>
<path fill="none" stroke="midnightblue" d="M592.156,-168.083C593.084,-160.927 594.418,-150.635 595.577,-141.691"/>
<polygon fill="midnightblue" stroke="midnightblue" points="599.051,-142.118 596.866,-131.751 592.109,-141.218 599.051,-142.118"/>
</g>
</g>
</svg>
        <g id="navigator" transform="translate(0 0)" fill="#404254">
                <rect fill="#f2f5e9" fill-opacity="0.5" stroke="#606060" stroke-width=".5" x="0" y="0" width="60" height="60"/>
                <use id="zoomplus" xlink:href="#zoomPlus" x="17" y="9" onmousedown="handleZoom(evt,'in')"/>
                <use id="zoomminus" xlink:href="#zoomMin" x="42" y="9" onmousedown="handleZoom(evt,'out')"/>
                <use id="reset" xlink:href="#resetDef" x="30" y="36" onmousedown="handleReset()"/>
                <g id="arrowUp" xlink:href="#dirArrow" transform="translate(30 24)" onmousedown="handlePan(0,-1)">
                  <use xlink:href="#rim" fill="#404040">
                        <set attributeName="fill" to="#808080" begin="arrowUp.mouseover" end="arrowUp.mouseout"/>
                  </use>
                  <path fill="none" stroke="white" stroke-width="1.5" d="M0,-3.0v7 M-2.5,-0.5L0,-3.0L2.5,-0.5"/>
                </g>
                <g id="arrowRight" xlink:href="#dirArrow" transform="rotate(90) translate(36 -43)" onmousedown="handlePan(1,0)">
                  <use xlink:href="#rim" fill="#404040">
                        <set attributeName="fill" to="#808080" begin="arrowRight.mouseover" end="arrowRight.mouseout"/>
                  </use>
                  <path fill="none" stroke="white" stroke-width="1.5" d="M0,-3.0v7 M-2.5,-0.5L0,-3.0L2.5,-0.5"/>
                </g>
                <g id="arrowDown" xlink:href="#dirArrow" transform="rotate(180) translate(-30 -48)" onmousedown="handlePan(0,1)">
                  <use xlink:href="#rim" fill="#404040">
                        <set attributeName="fill" to="#808080" begin="arrowDown.mouseover" end="arrowDown.mouseout"/>
                  </use>
                  <path fill="none" stroke="white" stroke-width="1.5" d="M0,-3.0v7 M-2.5,-0.5L0,-3.0L2.5,-0.5"/>
                </g>
                <g id="arrowLeft" xlink:href="#dirArrow" transform="rotate(270) translate(-36 17)" onmousedown="handlePan(-1,0)">
                  <use xlink:href="#rim" fill="#404040">
                        <set attributeName="fill" to="#808080" begin="arrowLeft.mouseover" end="arrowLeft.mouseout"/>
                  </use>
                  <path fill="none" stroke="white" stroke-width="1.5" d="M0,-3.0v7 M-2.5,-0.5L0,-3.0L2.5,-0.5"/>
                </g>
        </g>
        <svg viewBox="0 0 15 15" width="100%" height="30px" preserveAspectRatio="xMaxYMin meet">
         <g id="arrow_out" transform="scale(0.3 0.3)">
          <a xlink:href="CheckDiagnostics_8cxx__incl_org.svg" target="_base">
           <rect id="button" ry="5" rx="5" y="6" x="6" height="38" width="38"
                fill="#f2f5e9" fill-opacity="0.5" stroke="#606060" stroke-width="1.0"/>
           <path id="arrow"
             d="M 11.500037,31.436501 C 11.940474,20.09759 22.043105,11.32322 32.158766,21.979434 L 37.068811,17.246167 C 37.068811,17.246167 37.088388,32 37.088388,32 L 22.160133,31.978069 C 22.160133,31.978069 26.997745,27.140456 26.997745,27.140456 C 18.528582,18.264221 13.291696,25.230495 11.500037,31.436501 z"
             style="fill:#404040;"/>
          </a>
         </g>
        </svg>
</svg>
