<?xml version="1.0" encoding="UTF-8" standalone="no"?>
<!DOCTYPE svg PUBLIC "-//W3C//DTD SVG 1.1//EN"
 "http://www.w3.org/Graphics/SVG/1.1/DTD/svg11.dtd">
<!-- Generated by graphviz version 2.38.0 (20140413.2041)
 -->
<!-- Title: Task Pages: 1 -->
<svg width="1002pt" height="314pt"
 viewBox="0.00 0.00 1001.50 314.00" xmlns="http://www.w3.org/2000/svg" xmlns:xlink="http://www.w3.org/1999/xlink">
<g id="graph0" class="graph" transform="scale(1 1) rotate(0) translate(4 310)">
<title>Task</title>
<!-- Node1 -->
<g id="node1" class="node"><title>Node1</title>
<polygon fill="#bfbfbf" stroke="black" points="459,-248.5 459,-305.5 497,-305.5 497,-248.5 459,-248.5"/>
<text text-anchor="middle" x="478" y="-293.5" font-family="Helvetica,sans-Serif" font-size="10.00">Task</text>
<polyline fill="none" stroke="black" points="459,-286.5 497,-286.5 "/>
<text text-anchor="middle" x="478" y="-274.5" font-family="Helvetica,sans-Serif" font-size="10.00"> </text>
<polyline fill="none" stroke="black" points="459,-267.5 497,-267.5 "/>
<text text-anchor="middle" x="478" y="-255.5" font-family="Helvetica,sans-Serif" font-size="10.00"> </text>
</g>
<!-- Node2 -->
<g id="node2" class="node"><title>Node2</title>
<g id="a_node2"><a xlink:href="classClustersRootFileReaderMFT.html" target="_top" xlink:title="{ClustersRootFileReaderMFT\n||+ init()\l+ run()\l}">
<polygon fill="none" stroke="black" points="0,-72 0,-140 142,-140 142,-72 0,-72"/>
<text text-anchor="middle" x="71" y="-128" font-family="Helvetica,sans-Serif" font-size="10.00">ClustersRootFileReaderMFT</text>
<polyline fill="none" stroke="black" points="0,-121 142,-121 "/>
<text text-anchor="middle" x="71" y="-109" font-family="Helvetica,sans-Serif" font-size="10.00"> </text>
<polyline fill="none" stroke="black" points="0,-102 142,-102 "/>
<text text-anchor="start" x="8" y="-90" font-family="Helvetica,sans-Serif" font-size="10.00">+ init()</text>
<text text-anchor="start" x="8" y="-79" font-family="Helvetica,sans-Serif" font-size="10.00">+ run()</text>
</a>
</g>
</g>
<!-- Node1&#45;&gt;Node2 -->
<g id="edge1" class="edge"><title>Node1&#45;&gt;Node2</title>
<path fill="none" stroke="midnightblue" d="M448.741,-272.958C378.219,-265.205 200.991,-243.099 151,-212 123.173,-194.689 101.472,-163.955 87.7356,-140.195"/>
<polygon fill="none" stroke="midnightblue" points="448.409,-276.442 458.727,-274.037 449.161,-269.483 448.409,-276.442"/>
</g>
<!-- Node3 -->
<g id="node3" class="node"><title>Node3</title>
<g id="a_node3"><a xlink:href="classDigitsRootFileReaderMFT.html" target="_top" xlink:title="{DigitsRootFileReaderMFT\n||+ init()\l+ run()\l}">
<polygon fill="none" stroke="black" points="160.5,-72 160.5,-140 291.5,-140 291.5,-72 160.5,-72"/>
<text text-anchor="middle" x="226" y="-128" font-family="Helvetica,sans-Serif" font-size="10.00">DigitsRootFileReaderMFT</text>
<polyline fill="none" stroke="black" points="160.5,-121 291.5,-121 "/>
<text text-anchor="middle" x="226" y="-109" font-family="Helvetica,sans-Serif" font-size="10.00"> </text>
<polyline fill="none" stroke="black" points="160.5,-102 291.5,-102 "/>
<text text-anchor="start" x="168.5" y="-90" font-family="Helvetica,sans-Serif" font-size="10.00">+ init()</text>
<text text-anchor="start" x="168.5" y="-79" font-family="Helvetica,sans-Serif" font-size="10.00">+ run()</text>
</a>
</g>
</g>
<!-- Node1&#45;&gt;Node3 -->
<g id="edge2" class="edge"><title>Node1&#45;&gt;Node3</title>
<path fill="none" stroke="midnightblue" d="M448.502,-271.087C410.885,-263.628 345.293,-246.505 300,-212 275.164,-193.08 255.361,-163.451 242.514,-140.484"/>
<polygon fill="none" stroke="midnightblue" points="448.304,-274.611 458.778,-273.02 449.598,-267.731 448.304,-274.611"/>
</g>
<!-- Node4 -->
<g id="node4" class="node"><title>Node4</title>
<g id="a_node4"><a xlink:href="classo2_1_1quality__control_1_1core_1_1TaskRunner.html" target="_top" xlink:title="A class driving the execution of a QC task inside DPL. ">
<polygon fill="none" stroke="black" points="309.5,-0.5 309.5,-211.5 460.5,-211.5 460.5,-0.5 309.5,-0.5"/>
<text text-anchor="start" x="317.5" y="-199.5" font-family="Helvetica,sans-Serif" font-size="10.00">o2::quality_control</text>
<text text-anchor="middle" x="385" y="-188.5" font-family="Helvetica,sans-Serif" font-size="10.00">::core::TaskRunner</text>
<polyline fill="none" stroke="black" points="309.5,-181.5 460.5,-181.5 "/>
<text text-anchor="middle" x="385" y="-169.5" font-family="Helvetica,sans-Serif" font-size="10.00"> </text>
<polyline fill="none" stroke="black" points="309.5,-162.5 460.5,-162.5 "/>
<text text-anchor="start" x="317.5" y="-150.5" font-family="Helvetica,sans-Serif" font-size="10.00">+ TaskRunner()</text>
<text text-anchor="start" x="317.5" y="-139.5" font-family="Helvetica,sans-Serif" font-size="10.00">+ ~TaskRunner()</text>
<text text-anchor="start" x="317.5" y="-128.5" font-family="Helvetica,sans-Serif" font-size="10.00">+ init()</text>
<text text-anchor="start" x="317.5" y="-117.5" font-family="Helvetica,sans-Serif" font-size="10.00">+ run()</text>
<text text-anchor="start" x="317.5" y="-106.5" font-family="Helvetica,sans-Serif" font-size="10.00">+ getDeviceName()</text>
<text text-anchor="start" x="317.5" y="-95.5" font-family="Helvetica,sans-Serif" font-size="10.00">+ getInputsSpecs()</text>
<text text-anchor="start" x="317.5" y="-84.5" font-family="Helvetica,sans-Serif" font-size="10.00">+ getOutputSpec()</text>
<text text-anchor="start" x="317.5" y="-73.5" font-family="Helvetica,sans-Serif" font-size="10.00">+ getOptions()</text>
<text text-anchor="start" x="317.5" y="-62.5" font-family="Helvetica,sans-Serif" font-size="10.00">+ setResetAfterPublish()</text>
<text text-anchor="start" x="317.5" y="-51.5" font-family="Helvetica,sans-Serif" font-size="10.00">+ endOfStream()</text>
<text text-anchor="start" x="317.5" y="-40.5" font-family="Helvetica,sans-Serif" font-size="10.00">+ completionPolicyCallback()</text>
<text text-anchor="start" x="317.5" y="-29.5" font-family="Helvetica,sans-Serif" font-size="10.00">+ createTaskRunnerIdString()</text>
<text text-anchor="start" x="317.5" y="-18.5" font-family="Helvetica,sans-Serif" font-size="10.00">+ createTaskDataOrigin()</text>
<text text-anchor="start" x="317.5" y="-7.5" font-family="Helvetica,sans-Serif" font-size="10.00">+ createTaskDataDescription()</text>
</a>
</g>
</g>
<!-- Node1&#45;&gt;Node4 -->
<g id="edge3" class="edge"><title>Node1&#45;&gt;Node4</title>
<path fill="none" stroke="midnightblue" d="M457.972,-239.606C453.266,-231.053 448.017,-221.515 442.552,-211.584"/>
<polygon fill="none" stroke="midnightblue" points="454.963,-241.397 462.851,-248.471 461.096,-238.023 454.963,-241.397"/>
</g>
<!-- Node5 -->
<g id="node5" class="node"><title>Node5</title>
<g id="a_node5"><a xlink:href="classo2_1_1quality__control_1_1example_1_1ExampleQualityPrinterSpec.html" target="_top" xlink:title="Example DPL task to be plugged after a QC check. ">
<polygon fill="none" stroke="black" points="478.5,-72 478.5,-140 663.5,-140 663.5,-72 478.5,-72"/>
<text text-anchor="start" x="486.5" y="-128" font-family="Helvetica,sans-Serif" font-size="10.00">o2::quality_control</text>
<text text-anchor="middle" x="571" y="-117" font-family="Helvetica,sans-Serif" font-size="10.00">::example::ExampleQualityPrinterSpec</text>
<polyline fill="none" stroke="black" points="478.5,-110 663.5,-110 "/>
<text text-anchor="middle" x="571" y="-98" font-family="Helvetica,sans-Serif" font-size="10.00"> </text>
<polyline fill="none" stroke="black" points="478.5,-91 663.5,-91 "/>
<text text-anchor="start" x="486.5" y="-79" font-family="Helvetica,sans-Serif" font-size="10.00">+ run()</text>
</a>
</g>
</g>
<!-- Node1&#45;&gt;Node5 -->
<g id="edge4" class="edge"><title>Node1&#45;&gt;Node5</title>
<path fill="none" stroke="midnightblue" d="M497.977,-239.698C514.256,-210.115 537.052,-168.691 552.824,-140.029"/>
<polygon fill="none" stroke="midnightblue" points="494.904,-238.023 493.149,-248.471 501.037,-241.397 494.904,-238.023"/>
</g>
<!-- Node6 -->
<g id="node6" class="node"><title>Node6</title>
<g id="a_node6"><a xlink:href="classo2_1_1quality__control__modules_1_1ft0_1_1FT0DataProducer.html" target="_top" xlink:title="{o2::quality_control\l_modules::ft0::FT0DataProducer\n||+ init()\l+ run()\l}">
<polygon fill="none" stroke="black" points="681.5,-66.5 681.5,-145.5 840.5,-145.5 840.5,-66.5 681.5,-66.5"/>
<text text-anchor="start" x="689.5" y="-133.5" font-family="Helvetica,sans-Serif" font-size="10.00">o2::quality_control</text>
<text text-anchor="middle" x="761" y="-122.5" font-family="Helvetica,sans-Serif" font-size="10.00">_modules::ft0::FT0DataProducer</text>
<polyline fill="none" stroke="black" points="681.5,-115.5 840.5,-115.5 "/>
<text text-anchor="middle" x="761" y="-103.5" font-family="Helvetica,sans-Serif" font-size="10.00"> </text>
<polyline fill="none" stroke="black" points="681.5,-96.5 840.5,-96.5 "/>
<text text-anchor="start" x="689.5" y="-84.5" font-family="Helvetica,sans-Serif" font-size="10.00">+ init()</text>
<text text-anchor="start" x="689.5" y="-73.5" font-family="Helvetica,sans-Serif" font-size="10.00">+ run()</text>
</a>
</g>
</g>
<!-- Node1&#45;&gt;Node6 -->
<g id="edge5" class="edge"><title>Node1&#45;&gt;Node6</title>
<path fill="none" stroke="midnightblue" d="M507.215,-271.6C547.412,-264.45 620.729,-247.393 673,-212 698.603,-194.664 720.896,-167.858 736.638,-145.671"/>
<polygon fill="none" stroke="midnightblue" points="506.545,-268.163 497.271,-273.285 507.715,-275.065 506.545,-268.163"/>
</g>
<!-- Node7 -->
<g id="node7" class="node"><title>Node7</title>
<g id="a_node7"><a xlink:href="classTracksRootFileReaderMFT.html" target="_top" xlink:title="{TracksRootFileReaderMFT\n||+ init()\l+ run()\l}">
<polygon fill="none" stroke="black" points="858.5,-72 858.5,-140 993.5,-140 993.5,-72 858.5,-72"/>
<text text-anchor="middle" x="926" y="-128" font-family="Helvetica,sans-Serif" font-size="10.00">TracksRootFileReaderMFT</text>
<polyline fill="none" stroke="black" points="858.5,-121 993.5,-121 "/>
<text text-anchor="middle" x="926" y="-109" font-family="Helvetica,sans-Serif" font-size="10.00"> </text>
<polyline fill="none" stroke="black" points="858.5,-102 993.5,-102 "/>
<text text-anchor="start" x="866.5" y="-90" font-family="Helvetica,sans-Serif" font-size="10.00">+ init()</text>
<text text-anchor="start" x="866.5" y="-79" font-family="Helvetica,sans-Serif" font-size="10.00">+ run()</text>
</a>
</g>
</g>
<!-- Node1&#45;&gt;Node7 -->
<g id="edge6" class="edge"><title>Node1&#45;&gt;Node7</title>
<path fill="none" stroke="midnightblue" d="M507.06,-273.829C584.236,-267.626 792.368,-247.918 850,-212 877.406,-194.92 897.967,-163.996 910.746,-140.115"/>
<polygon fill="none" stroke="midnightblue" points="506.764,-270.341 497.069,-274.615 507.313,-277.32 506.764,-270.341"/>
</g>
</g>
</svg>
