<?xml version="1.0" encoding="UTF-8" standalone="no"?>
<!DOCTYPE svg PUBLIC "-//W3C//DTD SVG 1.1//EN"
 "http://www.w3.org/Graphics/SVG/1.1/DTD/svg11.dtd">
<!-- Generated by graphviz version 2.38.0 (20140413.2041)
 -->
<!-- Title: Modules/Daq/include/Daq/DaqTask.h Pages: 1 -->
<svg width="1296pt" height="274pt"
 viewBox="0.00 0.00 1295.86 274.00" xmlns="http://www.w3.org/2000/svg" xmlns:xlink="http://www.w3.org/1999/xlink">
<g id="graph0" class="graph" transform="scale(1 1) rotate(0) translate(4 270)">
<title>Modules/Daq/include/Daq/DaqTask.h</title>
<!-- Node1 -->
<g id="node1" class="node"><title>Node1</title>
<polygon fill="#bfbfbf" stroke="black" points="552.603,-235.5 552.603,-265.5 660.603,-265.5 660.603,-235.5 552.603,-235.5"/>
<text text-anchor="start" x="560.603" y="-253.5" font-family="Helvetica,sans-Serif" font-size="10.00">Modules/Daq/include</text>
<text text-anchor="middle" x="606.603" y="-242.5" font-family="Helvetica,sans-Serif" font-size="10.00">/Daq/DaqTask.h</text>
</g>
<!-- Node2 -->
<g id="node2" class="node"><title>Node2</title>
<g id="a_node2"><a xlink:href="TaskInterface_8h.html" target="_top" xlink:title="QualityControl/TaskInterface.h">
<polygon fill="none" stroke="black" points="531.603,-179.5 531.603,-198.5 681.603,-198.5 681.603,-179.5 531.603,-179.5"/>
<text text-anchor="middle" x="606.603" y="-186.5" font-family="Helvetica,sans-Serif" font-size="10.00">QualityControl/TaskInterface.h</text>
</a>
</g>
</g>
<!-- Node1&#45;&gt;Node2 -->
<g id="edge1" class="edge"><title>Node1&#45;&gt;Node2</title>
<path fill="none" stroke="midnightblue" d="M606.603,-235.399C606.603,-227.466 606.603,-217.458 606.603,-208.858"/>
<polygon fill="midnightblue" stroke="midnightblue" points="610.103,-208.658 606.603,-198.658 603.103,-208.658 610.103,-208.658"/>
</g>
<!-- Node3 -->
<g id="node3" class="node"><title>Node3</title>
<polygon fill="none" stroke="#bfbfbf" points="165.103,-0.5 165.103,-19.5 200.103,-19.5 200.103,-0.5 165.103,-0.5"/>
<text text-anchor="middle" x="182.603" y="-7.5" font-family="Helvetica,sans-Serif" font-size="10.00">map</text>
</g>
<!-- Node1&#45;&gt;Node3 -->
<g id="edge29" class="edge"><title>Node1&#45;&gt;Node3</title>
<path fill="none" stroke="midnightblue" d="M552.323,-248.309C418.684,-244.118 79.5931,-225.411 10.6031,-143 -37.8335,-85.141 95.0556,-36.9558 154.993,-18.7724"/>
<polygon fill="midnightblue" stroke="midnightblue" points="156.35,-22.0208 164.945,-15.826 154.362,-15.3088 156.35,-22.0208"/>
</g>
<!-- Node23 -->
<g id="node23" class="node"><title>Node23</title>
<polygon fill="none" stroke="#bfbfbf" points="699.103,-179.5 699.103,-198.5 796.103,-198.5 796.103,-179.5 699.103,-179.5"/>
<text text-anchor="middle" x="747.603" y="-186.5" font-family="Helvetica,sans-Serif" font-size="10.00">Headers/DAQID.h</text>
</g>
<!-- Node1&#45;&gt;Node23 -->
<g id="edge28" class="edge"><title>Node1&#45;&gt;Node23</title>
<path fill="none" stroke="midnightblue" d="M640.018,-235.399C663.57,-225.461 694.841,-212.265 717.596,-202.662"/>
<polygon fill="midnightblue" stroke="midnightblue" points="719.234,-205.77 727.086,-198.658 716.512,-199.321 719.234,-205.77"/>
</g>
<!-- Node2&#45;&gt;Node3 -->
<g id="edge2" class="edge"><title>Node2&#45;&gt;Node3</title>
<path fill="none" stroke="midnightblue" d="M606.695,-179.26C606.328,-165.072 603.365,-137.188 586.603,-123 494.199,-44.7855 431.357,-125.569 316.603,-87 273.026,-72.3538 227.556,-43.1119 202.381,-25.478"/>
<polygon fill="midnightblue" stroke="midnightblue" points="204.241,-22.5058 194.065,-19.555 200.18,-28.2073 204.241,-22.5058"/>
</g>
<!-- Node4 -->
<g id="node4" class="node"><title>Node4</title>
<polygon fill="none" stroke="#bfbfbf" points="852.603,-62 852.603,-81 904.603,-81 904.603,-62 852.603,-62"/>
<text text-anchor="middle" x="878.603" y="-69" font-family="Helvetica,sans-Serif" font-size="10.00">memory</text>
</g>
<!-- Node2&#45;&gt;Node4 -->
<g id="edge3" class="edge"><title>Node2&#45;&gt;Node4</title>
<path fill="none" stroke="midnightblue" d="M658.3,-179.468C708.175,-170.665 779.673,-156.372 804.603,-143 829.407,-129.696 851.884,-105.811 865.395,-89.5659"/>
<polygon fill="midnightblue" stroke="midnightblue" points="868.39,-91.4264 871.936,-81.4425 862.938,-87.0362 868.39,-91.4264"/>
</g>
<!-- Node5 -->
<g id="node5" class="node"><title>Node5</title>
<polygon fill="none" stroke="#bfbfbf" points="742.103,-0.5 742.103,-19.5 783.103,-19.5 783.103,-0.5 742.103,-0.5"/>
<text text-anchor="middle" x="762.603" y="-7.5" font-family="Helvetica,sans-Serif" font-size="10.00">string</text>
</g>
<!-- Node2&#45;&gt;Node5 -->
<g id="edge4" class="edge"><title>Node2&#45;&gt;Node5</title>
<path fill="none" stroke="midnightblue" d="M662.785,-179.492C719.423,-170.439 802.627,-155.699 832.603,-143 872.902,-125.928 893.279,-125.76 913.603,-87 920.001,-74.798 921.838,-67.0463 913.603,-56 885.971,-18.9323 829.006,-11.1952 793.485,-10.2168"/>
<polygon fill="midnightblue" stroke="midnightblue" points="793.244,-6.71409 783.206,-10.1052 793.168,-13.7137 793.244,-6.71409"/>
</g>
<!-- Node6 -->
<g id="node6" class="node"><title>Node6</title>
<polygon fill="none" stroke="#bfbfbf" points="1028.1,-0.5 1028.1,-19.5 1111.1,-19.5 1111.1,-0.5 1028.1,-0.5"/>
<text text-anchor="middle" x="1069.6" y="-7.5" font-family="Helvetica,sans-Serif" font-size="10.00">unordered_map</text>
</g>
<!-- Node2&#45;&gt;Node6 -->
<g id="edge5" class="edge"><title>Node2&#45;&gt;Node6</title>
<path fill="none" stroke="midnightblue" d="M681.696,-179.775C684.364,-179.509 687.006,-179.25 689.603,-179 821.688,-166.286 1202.61,-195.076 1279.6,-87 1320.69,-29.3185 1196.24,-15.2583 1121.55,-11.9364"/>
<polygon fill="midnightblue" stroke="midnightblue" points="1121.5,-8.43161 1111.37,-11.5355 1121.22,-15.4262 1121.5,-8.43161"/>
</g>
<!-- Node7 -->
<g id="node7" class="node"><title>Node7</title>
<polygon fill="none" stroke="#bfbfbf" points="20.1031,-123.5 20.1031,-142.5 145.103,-142.5 145.103,-123.5 20.1031,-123.5"/>
<text text-anchor="middle" x="82.6031" y="-130.5" font-family="Helvetica,sans-Serif" font-size="10.00">Framework/InitContext.h</text>
</g>
<!-- Node2&#45;&gt;Node7 -->
<g id="edge6" class="edge"><title>Node2&#45;&gt;Node7</title>
<path fill="none" stroke="midnightblue" d="M531.364,-181.092C443.71,-172.913 294.254,-158.561 155.399,-143.064"/>
<polygon fill="midnightblue" stroke="midnightblue" points="155.748,-139.581 145.421,-141.947 154.969,-146.538 155.748,-139.581"/>
</g>
<!-- Node8 -->
<g id="node8" class="node"><title>Node8</title>
<polygon fill="none" stroke="#bfbfbf" points="163.603,-123.5 163.603,-142.5 323.603,-142.5 323.603,-123.5 163.603,-123.5"/>
<text text-anchor="middle" x="243.603" y="-130.5" font-family="Helvetica,sans-Serif" font-size="10.00">Framework/ProcessingContext.h</text>
</g>
<!-- Node2&#45;&gt;Node8 -->
<g id="edge7" class="edge"><title>Node2&#45;&gt;Node8</title>
<path fill="none" stroke="midnightblue" d="M549.085,-179.444C484.433,-169.826 379.577,-154.228 311.1,-144.041"/>
<polygon fill="midnightblue" stroke="midnightblue" points="311.259,-140.526 300.852,-142.516 310.229,-147.45 311.259,-140.526"/>
</g>
<!-- Node9 -->
<g id="node9" class="node"><title>Node9</title>
<polygon fill="none" stroke="#bfbfbf" points="342.103,-123.5 342.103,-142.5 437.103,-142.5 437.103,-123.5 342.103,-123.5"/>
<text text-anchor="middle" x="389.603" y="-130.5" font-family="Helvetica,sans-Serif" font-size="10.00">CCDB/CcdbApi.h</text>
</g>
<!-- Node2&#45;&gt;Node9 -->
<g id="edge8" class="edge"><title>Node2&#45;&gt;Node9</title>
<path fill="none" stroke="midnightblue" d="M572.219,-179.444C534.681,-170.102 474.472,-155.119 433.536,-144.933"/>
<polygon fill="midnightblue" stroke="midnightblue" points="434.376,-141.535 423.827,-142.516 432.685,-148.328 434.376,-141.535"/>
</g>
<!-- Node10 -->
<g id="node10" class="node"><title>Node10</title>
<g id="a_node10"><a xlink:href="Activity_8h.html" target="_top" xlink:title="QualityControl/Activity.h">
<polygon fill="none" stroke="black" points="455.103,-123.5 455.103,-142.5 578.103,-142.5 578.103,-123.5 455.103,-123.5"/>
<text text-anchor="middle" x="516.603" y="-130.5" font-family="Helvetica,sans-Serif" font-size="10.00">QualityControl/Activity.h</text>
</a>
</g>
</g>
<!-- Node2&#45;&gt;Node10 -->
<g id="edge9" class="edge"><title>Node2&#45;&gt;Node10</title>
<path fill="none" stroke="midnightblue" d="M592.143,-179.324C578.103,-170.9 556.555,-157.971 540.06,-148.074"/>
<polygon fill="midnightblue" stroke="midnightblue" points="541.403,-144.798 531.027,-142.655 537.801,-150.801 541.403,-144.798"/>
</g>
<!-- Node11 -->
<g id="node11" class="node"><title>Node11</title>
<g id="a_node11"><a xlink:href="ObjectsManager_8h.html" target="_top" xlink:title="QualityControl/ObjectsManager.h">
<polygon fill="none" stroke="black" points="635.103,-123.5 635.103,-142.5 796.103,-142.5 796.103,-123.5 635.103,-123.5"/>
<text text-anchor="middle" x="715.603" y="-130.5" font-family="Helvetica,sans-Serif" font-size="10.00">QualityControl/ObjectsManager.h</text>
</a>
</g>
</g>
<!-- Node2&#45;&gt;Node11 -->
<g id="edge10" class="edge"><title>Node2&#45;&gt;Node11</title>
<path fill="none" stroke="midnightblue" d="M624.116,-179.324C641.675,-170.625 668.934,-157.12 689.134,-147.113"/>
<polygon fill="midnightblue" stroke="midnightblue" points="690.727,-150.23 698.134,-142.655 687.619,-143.958 690.727,-150.23"/>
</g>
<!-- Node20 -->
<g id="node20" class="node"><title>Node20</title>
<g id="a_node20"><a xlink:href="QcInfoLogger_8h.html" target="_top" xlink:title="QualityControl/QcInfoLogger.h">
<polygon fill="none" stroke="black" points="960.103,-123.5 960.103,-142.5 1109.1,-142.5 1109.1,-123.5 960.103,-123.5"/>
<text text-anchor="middle" x="1034.6" y="-130.5" font-family="Helvetica,sans-Serif" font-size="10.00">QualityControl/QcInfoLogger.h</text>
</a>
</g>
</g>
<!-- Node2&#45;&gt;Node20 -->
<g id="edge25" class="edge"><title>Node2&#45;&gt;Node20</title>
<path fill="none" stroke="midnightblue" d="M674.421,-179.444C751.276,-169.747 876.315,-153.971 957,-143.791"/>
<polygon fill="midnightblue" stroke="midnightblue" points="957.619,-147.241 967.103,-142.516 956.743,-140.296 957.619,-147.241"/>
</g>
<!-- Node11&#45;&gt;Node4 -->
<g id="edge24" class="edge"><title>Node11&#45;&gt;Node4</title>
<path fill="none" stroke="midnightblue" d="M741.253,-123.443C767.203,-114.679 808.403,-100.468 843.603,-87 845.25,-86.3698 846.936,-85.7126 848.635,-85.0409"/>
<polygon fill="midnightblue" stroke="midnightblue" points="850.362,-88.1177 858.32,-81.1231 847.737,-81.6285 850.362,-88.1177"/>
</g>
<!-- Node11&#45;&gt;Node5 -->
<g id="edge23" class="edge"><title>Node11&#45;&gt;Node5</title>
<path fill="none" stroke="midnightblue" d="M707.155,-123.193C694.258,-108.635 672.471,-78.8844 685.603,-56 695.653,-38.487 715.444,-27.1393 732.445,-20.2201"/>
<polygon fill="midnightblue" stroke="midnightblue" points="733.89,-23.4169 742.038,-16.6448 731.445,-16.8577 733.89,-23.4169"/>
</g>
<!-- Node12 -->
<g id="node12" class="node"><title>Node12</title>
<g id="a_node12"><a xlink:href="MonitorObject_8h.html" target="_top" xlink:title="QualityControl/MonitorObject.h">
<polygon fill="none" stroke="black" points="487.103,-62 487.103,-81 638.103,-81 638.103,-62 487.103,-62"/>
<text text-anchor="middle" x="562.603" y="-69" font-family="Helvetica,sans-Serif" font-size="10.00">QualityControl/MonitorObject.h</text>
</a>
</g>
</g>
<!-- Node11&#45;&gt;Node12 -->
<g id="edge11" class="edge"><title>Node11&#45;&gt;Node12</title>
<path fill="none" stroke="midnightblue" d="M693.682,-123.475C667.551,-113.313 623.691,-96.2564 593.974,-84.6996"/>
<polygon fill="midnightblue" stroke="midnightblue" points="595.072,-81.3716 584.484,-81.0091 592.535,-87.8956 595.072,-81.3716"/>
</g>
<!-- Node16 -->
<g id="node16" class="node"><title>Node16</title>
<g id="a_node16"><a xlink:href="MonitorObjectCollection_8h.html" target="_top" xlink:title="QualityControl/MonitorObject\lCollection.h">
<polygon fill="none" stroke="black" points="326.103,-56.5 326.103,-86.5 469.103,-86.5 469.103,-56.5 326.103,-56.5"/>
<text text-anchor="start" x="334.103" y="-74.5" font-family="Helvetica,sans-Serif" font-size="10.00">QualityControl/MonitorObject</text>
<text text-anchor="middle" x="397.603" y="-63.5" font-family="Helvetica,sans-Serif" font-size="10.00">Collection.h</text>
</a>
</g>
</g>
<!-- Node11&#45;&gt;Node16 -->
<g id="edge17" class="edge"><title>Node11&#45;&gt;Node16</title>
<path fill="none" stroke="midnightblue" d="M670.041,-123.475C620.342,-114.176 539.789,-99.104 479.138,-87.7557"/>
<polygon fill="midnightblue" stroke="midnightblue" points="479.675,-84.2956 469.202,-85.8967 478.388,-91.1762 479.675,-84.2956"/>
</g>
<!-- Node19 -->
<g id="node19" class="node"><title>Node19</title>
<g id="a_node19"><a xlink:href="TaskConfig_8h.html" target="_top" xlink:title="QualityControl/TaskConfig.h">
<polygon fill="none" stroke="black" points="694.603,-62 694.603,-81 834.603,-81 834.603,-62 694.603,-62"/>
<text text-anchor="middle" x="764.603" y="-69" font-family="Helvetica,sans-Serif" font-size="10.00">QualityControl/TaskConfig.h</text>
</a>
</g>
</g>
<!-- Node11&#45;&gt;Node19 -->
<g id="edge20" class="edge"><title>Node11&#45;&gt;Node19</title>
<path fill="none" stroke="midnightblue" d="M722.624,-123.475C730.046,-114.462 741.936,-100.025 751.17,-88.8118"/>
<polygon fill="midnightblue" stroke="midnightblue" points="753.94,-90.9534 757.596,-81.0091 748.537,-86.5034 753.94,-90.9534"/>
</g>
<!-- Node12&#45;&gt;Node3 -->
<g id="edge13" class="edge"><title>Node12&#45;&gt;Node3</title>
<path fill="none" stroke="midnightblue" d="M514.552,-61.9976C502.502,-59.9495 489.59,-57.827 477.603,-56 361.927,-38.3698 328.437,-46.6546 209.998,-19.6613"/>
<polygon fill="midnightblue" stroke="midnightblue" points="210.717,-16.2353 200.186,-17.3895 209.138,-23.0549 210.717,-16.2353"/>
</g>
<!-- Node12&#45;&gt;Node5 -->
<g id="edge12" class="edge"><title>Node12&#45;&gt;Node5</title>
<path fill="none" stroke="midnightblue" d="M591.258,-61.9751C628.578,-50.8725 693.559,-31.5406 731.873,-20.1423"/>
<polygon fill="midnightblue" stroke="midnightblue" points="733.34,-23.3575 741.927,-17.1513 731.344,-16.6481 733.34,-23.3575"/>
</g>
<!-- Node13 -->
<g id="node13" class="node"><title>Node13</title>
<polygon fill="none" stroke="#bfbfbf" points="663.603,-0.5 663.603,-19.5 719.603,-19.5 719.603,-0.5 663.603,-0.5"/>
<text text-anchor="middle" x="691.603" y="-7.5" font-family="Helvetica,sans-Serif" font-size="10.00">Rtypes.h</text>
</g>
<!-- Node12&#45;&gt;Node13 -->
<g id="edge14" class="edge"><title>Node12&#45;&gt;Node13</title>
<path fill="none" stroke="midnightblue" d="M581.086,-61.9751C602.735,-51.9897 638.816,-35.3476 663.836,-23.8075"/>
<polygon fill="midnightblue" stroke="midnightblue" points="665.54,-26.8757 673.155,-19.5091 662.608,-20.5193 665.54,-26.8757"/>
</g>
<!-- Node14 -->
<g id="node14" class="node"><title>Node14</title>
<polygon fill="none" stroke="#bfbfbf" points="452.103,-0.5 452.103,-19.5 511.103,-19.5 511.103,-0.5 452.103,-0.5"/>
<text text-anchor="middle" x="481.603" y="-7.5" font-family="Helvetica,sans-Serif" font-size="10.00">TObject.h</text>
</g>
<!-- Node12&#45;&gt;Node14 -->
<g id="edge15" class="edge"><title>Node12&#45;&gt;Node14</title>
<path fill="none" stroke="midnightblue" d="M550.998,-61.9751C538.126,-52.5199 517.129,-37.0961 501.597,-25.6871"/>
<polygon fill="midnightblue" stroke="midnightblue" points="503.318,-22.6085 493.187,-19.5091 499.174,-28.25 503.318,-22.6085"/>
</g>
<!-- Node15 -->
<g id="node15" class="node"><title>Node15</title>
<polygon fill="none" stroke="#bfbfbf" points="529.603,-0.5 529.603,-19.5 645.603,-19.5 645.603,-0.5 529.603,-0.5"/>
<text text-anchor="middle" x="587.603" y="-7.5" font-family="Helvetica,sans-Serif" font-size="10.00">Common/Exceptions.h</text>
</g>
<!-- Node12&#45;&gt;Node15 -->
<g id="edge16" class="edge"><title>Node12&#45;&gt;Node15</title>
<path fill="none" stroke="midnightblue" d="M566.185,-61.9751C569.786,-53.4035 575.449,-39.9269 580.047,-28.983"/>
<polygon fill="midnightblue" stroke="midnightblue" points="583.381,-30.0842 584.028,-19.5091 576.927,-27.3726 583.381,-30.0842"/>
</g>
<!-- Node17 -->
<g id="node17" class="node"><title>Node17</title>
<polygon fill="none" stroke="#bfbfbf" points="365.103,-0.5 365.103,-19.5 434.103,-19.5 434.103,-0.5 365.103,-0.5"/>
<text text-anchor="middle" x="399.603" y="-7.5" font-family="Helvetica,sans-Serif" font-size="10.00">TObjArray.h</text>
</g>
<!-- Node16&#45;&gt;Node17 -->
<g id="edge18" class="edge"><title>Node16&#45;&gt;Node17</title>
<path fill="none" stroke="midnightblue" d="M398.077,-56.3993C398.344,-48.4664 398.68,-38.458 398.969,-29.8583"/>
<polygon fill="midnightblue" stroke="midnightblue" points="402.474,-29.7697 399.312,-19.6578 395.478,-29.5345 402.474,-29.7697"/>
</g>
<!-- Node18 -->
<g id="node18" class="node"><title>Node18</title>
<polygon fill="none" stroke="#bfbfbf" points="218.603,-0.5 218.603,-19.5 346.603,-19.5 346.603,-0.5 218.603,-0.5"/>
<text text-anchor="middle" x="282.603" y="-7.5" font-family="Helvetica,sans-Serif" font-size="10.00">Mergers/MergeInterface.h</text>
</g>
<!-- Node16&#45;&gt;Node18 -->
<g id="edge19" class="edge"><title>Node16&#45;&gt;Node18</title>
<path fill="none" stroke="midnightblue" d="M370.35,-56.3993C351.572,-46.6837 326.777,-33.8551 308.336,-24.3137"/>
<polygon fill="midnightblue" stroke="midnightblue" points="309.827,-21.1445 299.337,-19.6578 306.61,-27.3617 309.827,-21.1445"/>
</g>
<!-- Node19&#45;&gt;Node5 -->
<g id="edge21" class="edge"><title>Node19&#45;&gt;Node5</title>
<path fill="none" stroke="midnightblue" d="M764.317,-61.9751C764.034,-53.5803 763.594,-40.4806 763.23,-29.6631"/>
<polygon fill="midnightblue" stroke="midnightblue" points="766.723,-29.3858 762.889,-19.5091 759.727,-29.6211 766.723,-29.3858"/>
</g>
<!-- Node19&#45;&gt;Node6 -->
<g id="edge22" class="edge"><title>Node19&#45;&gt;Node6</title>
<path fill="none" stroke="midnightblue" d="M808.302,-61.9751C863.735,-51.1612 959.186,-32.5404 1018.1,-21.0473"/>
<polygon fill="midnightblue" stroke="midnightblue" points="1018.8,-24.4771 1027.94,-19.1271 1017.46,-17.6067 1018.8,-24.4771"/>
</g>
<!-- Node21 -->
<g id="node21" class="node"><title>Node21</title>
<polygon fill="none" stroke="#bfbfbf" points="960.603,-62 960.603,-81 1090.6,-81 1090.6,-62 960.603,-62"/>
<text text-anchor="middle" x="1025.6" y="-69" font-family="Helvetica,sans-Serif" font-size="10.00">InfoLogger/InfoLogger.hxx</text>
</g>
<!-- Node20&#45;&gt;Node21 -->
<g id="edge26" class="edge"><title>Node20&#45;&gt;Node21</title>
<path fill="none" stroke="midnightblue" d="M1033.31,-123.475C1032.04,-115.08 1030.06,-101.981 1028.43,-91.1631"/>
<polygon fill="midnightblue" stroke="midnightblue" points="1031.85,-90.3731 1026.89,-81.0091 1024.93,-91.4201 1031.85,-90.3731"/>
</g>
<!-- Node22 -->
<g id="node22" class="node"><title>Node22</title>
<polygon fill="none" stroke="#bfbfbf" points="1108.6,-62 1108.6,-81 1270.6,-81 1270.6,-62 1108.6,-62"/>
<text text-anchor="middle" x="1189.6" y="-69" font-family="Helvetica,sans-Serif" font-size="10.00">InfoLogger/InfoLoggerMacros.hxx</text>
</g>
<!-- Node20&#45;&gt;Node22 -->
<g id="edge27" class="edge"><title>Node20&#45;&gt;Node22</title>
<path fill="none" stroke="midnightblue" d="M1056.81,-123.475C1083.28,-113.313 1127.72,-96.2564 1157.82,-84.6996"/>
<polygon fill="midnightblue" stroke="midnightblue" points="1159.36,-87.8604 1167.44,-81.0091 1156.85,-81.3254 1159.36,-87.8604"/>
</g>
</g>
</svg>
