<?xml version="1.0" encoding="UTF-8" standalone="no"?>
<!DOCTYPE svg PUBLIC "-//W3C//DTD SVG 1.1//EN"
 "http://www.w3.org/Graphics/SVG/1.1/DTD/svg11.dtd">
<!-- Generated by graphviz version 2.38.0 (20140413.2041)
 -->
<!-- Title: Modules/Daq/src/DaqTask.cxx Pages: 1 -->
<svg width="1962pt" height="319pt"
 viewBox="0.00 0.00 1961.50 319.00" xmlns="http://www.w3.org/2000/svg" xmlns:xlink="http://www.w3.org/1999/xlink">
<g id="graph0" class="graph" transform="scale(1 1) rotate(0) translate(4 315)">
<title>Modules/Daq/src/DaqTask.cxx</title>
<!-- Node1 -->
<g id="node1" class="node"><title>Node1</title>
<polygon fill="#bfbfbf" stroke="black" points="1401.5,-291.5 1401.5,-310.5 1553.5,-310.5 1553.5,-291.5 1401.5,-291.5"/>
<text text-anchor="middle" x="1477.5" y="-298.5" font-family="Helvetica,sans-Serif" font-size="10.00">Modules/Daq/src/DaqTask.cxx</text>
</g>
<!-- Node2 -->
<g id="node2" class="node"><title>Node2</title>
<g id="a_node2"><a xlink:href="DaqTask_8h.html" target="_top" xlink:title="Daq/DaqTask.h">
<polygon fill="none" stroke="black" points="395.5,-235.5 395.5,-254.5 481.5,-254.5 481.5,-235.5 395.5,-235.5"/>
<text text-anchor="middle" x="438.5" y="-242.5" font-family="Helvetica,sans-Serif" font-size="10.00">Daq/DaqTask.h</text>
</a>
</g>
</g>
<!-- Node1&#45;&gt;Node2 -->
<g id="edge1" class="edge"><title>Node1&#45;&gt;Node2</title>
<path fill="none" stroke="midnightblue" d="M1401.1,-296.029C1200.52,-285.604 662.612,-257.648 491.523,-248.756"/>
<polygon fill="midnightblue" stroke="midnightblue" points="491.672,-245.259 481.503,-248.235 491.308,-252.249 491.672,-245.259"/>
</g>
<!-- Node21 -->
<g id="node21" class="node"><title>Node21</title>
<g id="a_node21"><a xlink:href="QcInfoLogger_8h.html" target="_top" xlink:title="QualityControl/QcInfoLogger.h">
<polygon fill="none" stroke="black" points="1285,-123.5 1285,-142.5 1434,-142.5 1434,-123.5 1285,-123.5"/>
<text text-anchor="middle" x="1359.5" y="-130.5" font-family="Helvetica,sans-Serif" font-size="10.00">QualityControl/QcInfoLogger.h</text>
</a>
</g>
</g>
<!-- Node1&#45;&gt;Node21 -->
<g id="edge31" class="edge"><title>Node1&#45;&gt;Node21</title>
<path fill="none" stroke="midnightblue" d="M1470.95,-291.276C1464.4,-282.381 1454.22,-268.07 1446.5,-255 1427.3,-222.482 1431.23,-209.16 1408.5,-179 1400.11,-167.87 1388.75,-157.236 1379.07,-149.102"/>
<polygon fill="midnightblue" stroke="midnightblue" points="1381.09,-146.234 1371.13,-142.648 1376.68,-151.669 1381.09,-146.234"/>
</g>
<!-- Node25 -->
<g id="node25" class="node"><title>Node25</title>
<g id="a_node25"><a xlink:href="stringUtils_8h.html" target="_top" xlink:title="QualityControl/stringUtils.h">
<polygon fill="none" stroke="black" points="1209.5,-235.5 1209.5,-254.5 1343.5,-254.5 1343.5,-235.5 1209.5,-235.5"/>
<text text-anchor="middle" x="1276.5" y="-242.5" font-family="Helvetica,sans-Serif" font-size="10.00">QualityControl/stringUtils.h</text>
</a>
</g>
</g>
<!-- Node1&#45;&gt;Node25 -->
<g id="edge32" class="edge"><title>Node1&#45;&gt;Node25</title>
<path fill="none" stroke="midnightblue" d="M1445.65,-291.444C1411.1,-282.162 1355.82,-267.309 1317.92,-257.127"/>
<polygon fill="midnightblue" stroke="midnightblue" points="1318.77,-253.731 1308.2,-254.516 1316.95,-260.491 1318.77,-253.731"/>
</g>
<!-- Node30 -->
<g id="node30" class="node"><title>Node30</title>
<polygon fill="none" stroke="#bfbfbf" points="1455.5,-235.5 1455.5,-254.5 1499.5,-254.5 1499.5,-235.5 1455.5,-235.5"/>
<text text-anchor="middle" x="1477.5" y="-242.5" font-family="Helvetica,sans-Serif" font-size="10.00">TH1.h</text>
</g>
<!-- Node1&#45;&gt;Node30 -->
<g id="edge38" class="edge"><title>Node1&#45;&gt;Node30</title>
<path fill="none" stroke="midnightblue" d="M1477.5,-291.083C1477.5,-284.006 1477.5,-273.861 1477.5,-264.986"/>
<polygon fill="midnightblue" stroke="midnightblue" points="1481,-264.751 1477.5,-254.751 1474,-264.751 1481,-264.751"/>
</g>
<!-- Node31 -->
<g id="node31" class="node"><title>Node31</title>
<polygon fill="none" stroke="#bfbfbf" points="1517.5,-235.5 1517.5,-254.5 1653.5,-254.5 1653.5,-235.5 1517.5,-235.5"/>
<text text-anchor="middle" x="1585.5" y="-242.5" font-family="Helvetica,sans-Serif" font-size="10.00">DPLUtils/DPLRawParser.h</text>
</g>
<!-- Node1&#45;&gt;Node31 -->
<g id="edge39" class="edge"><title>Node1&#45;&gt;Node31</title>
<path fill="none" stroke="midnightblue" d="M1494.85,-291.324C1512.17,-282.664 1539.02,-269.242 1559,-259.249"/>
<polygon fill="midnightblue" stroke="midnightblue" points="1560.81,-262.257 1568.19,-254.655 1557.68,-255.996 1560.81,-262.257"/>
</g>
<!-- Node32 -->
<g id="node32" class="node"><title>Node32</title>
<polygon fill="none" stroke="#bfbfbf" points="1671.5,-235.5 1671.5,-254.5 1805.5,-254.5 1805.5,-235.5 1671.5,-235.5"/>
<text text-anchor="middle" x="1738.5" y="-242.5" font-family="Helvetica,sans-Serif" font-size="10.00">DetectorsRaw/RDHUtils.h</text>
</g>
<!-- Node1&#45;&gt;Node32 -->
<g id="edge40" class="edge"><title>Node1&#45;&gt;Node32</title>
<path fill="none" stroke="midnightblue" d="M1518.86,-291.444C1564.58,-281.984 1638.26,-266.738 1687.52,-256.547"/>
<polygon fill="midnightblue" stroke="midnightblue" points="1688.25,-259.97 1697.34,-254.516 1686.84,-253.115 1688.25,-259.97"/>
</g>
<!-- Node33 -->
<g id="node33" class="node"><title>Node33</title>
<polygon fill="none" stroke="#bfbfbf" points="1823.5,-235.5 1823.5,-254.5 1953.5,-254.5 1953.5,-235.5 1823.5,-235.5"/>
<text text-anchor="middle" x="1888.5" y="-242.5" font-family="Helvetica,sans-Serif" font-size="10.00">Framework/InputRecord.h</text>
</g>
<!-- Node1&#45;&gt;Node33 -->
<g id="edge41" class="edge"><title>Node1&#45;&gt;Node33</title>
<path fill="none" stroke="midnightblue" d="M1542.62,-291.444C1616.28,-281.767 1736.01,-266.035 1813.51,-255.853"/>
<polygon fill="midnightblue" stroke="midnightblue" points="1814.22,-259.289 1823.68,-254.516 1813.31,-252.349 1814.22,-259.289"/>
</g>
<!-- Node3 -->
<g id="node3" class="node"><title>Node3</title>
<g id="a_node3"><a xlink:href="TaskInterface_8h.html" target="_top" xlink:title="QualityControl/TaskInterface.h">
<polygon fill="none" stroke="black" points="675.5,-179.5 675.5,-198.5 825.5,-198.5 825.5,-179.5 675.5,-179.5"/>
<text text-anchor="middle" x="750.5" y="-186.5" font-family="Helvetica,sans-Serif" font-size="10.00">QualityControl/TaskInterface.h</text>
</a>
</g>
</g>
<!-- Node2&#45;&gt;Node3 -->
<g id="edge2" class="edge"><title>Node2&#45;&gt;Node3</title>
<path fill="none" stroke="midnightblue" d="M481.555,-236.548C536.028,-227.12 630.102,-210.838 691.305,-200.245"/>
<polygon fill="midnightblue" stroke="midnightblue" points="691.951,-203.686 701.208,-198.531 690.758,-196.788 691.951,-203.686"/>
</g>
<!-- Node4 -->
<g id="node4" class="node"><title>Node4</title>
<polygon fill="none" stroke="#bfbfbf" points="84,-0.5 84,-19.5 119,-19.5 119,-0.5 84,-0.5"/>
<text text-anchor="middle" x="101.5" y="-7.5" font-family="Helvetica,sans-Serif" font-size="10.00">map</text>
</g>
<!-- Node2&#45;&gt;Node4 -->
<g id="edge30" class="edge"><title>Node2&#45;&gt;Node4</title>
<path fill="none" stroke="midnightblue" d="M409.294,-235.412C351.127,-217.002 219.536,-168.642 139.5,-87 123.404,-70.5814 112.822,-45.9841 107.006,-29.2528"/>
<polygon fill="midnightblue" stroke="midnightblue" points="110.277,-27.9914 103.862,-19.5588 103.618,-30.1508 110.277,-27.9914"/>
</g>
<!-- Node24 -->
<g id="node24" class="node"><title>Node24</title>
<polygon fill="none" stroke="#bfbfbf" points="0,-179.5 0,-198.5 97,-198.5 97,-179.5 0,-179.5"/>
<text text-anchor="middle" x="48.5" y="-186.5" font-family="Helvetica,sans-Serif" font-size="10.00">Headers/DAQID.h</text>
</g>
<!-- Node2&#45;&gt;Node24 -->
<g id="edge29" class="edge"><title>Node2&#45;&gt;Node24</title>
<path fill="none" stroke="midnightblue" d="M395.379,-238.138C332.815,-229.616 213.225,-213.265 111.5,-199 110.208,-198.819 108.9,-198.635 107.582,-198.45"/>
<polygon fill="midnightblue" stroke="midnightblue" points="107.727,-194.935 97.3355,-197.002 106.747,-201.866 107.727,-194.935"/>
</g>
<!-- Node3&#45;&gt;Node4 -->
<g id="edge3" class="edge"><title>Node3&#45;&gt;Node4</title>
<path fill="none" stroke="midnightblue" d="M675.173,-185.701C590.355,-181.787 448.91,-171.254 330.5,-143 262.091,-126.677 242.174,-124.217 182.5,-87 156.027,-70.4894 130.661,-44.4907 115.578,-27.5925"/>
<polygon fill="midnightblue" stroke="midnightblue" points="117.889,-24.9169 108.677,-19.6837 112.615,-29.5195 117.889,-24.9169"/>
</g>
<!-- Node5 -->
<g id="node5" class="node"><title>Node5</title>
<polygon fill="none" stroke="#bfbfbf" points="951.5,-62 951.5,-81 1003.5,-81 1003.5,-62 951.5,-62"/>
<text text-anchor="middle" x="977.5" y="-69" font-family="Helvetica,sans-Serif" font-size="10.00">memory</text>
</g>
<!-- Node3&#45;&gt;Node5 -->
<g id="edge4" class="edge"><title>Node3&#45;&gt;Node5</title>
<path fill="none" stroke="midnightblue" d="M825.763,-183.325C921.369,-176.606 1076.12,-162.808 1093.5,-143 1120.62,-112.086 1056.86,-90.5585 1013.52,-79.9856"/>
<polygon fill="midnightblue" stroke="midnightblue" points="1014.09,-76.5226 1003.55,-77.6548 1012.49,-83.3389 1014.09,-76.5226"/>
</g>
<!-- Node6 -->
<g id="node6" class="node"><title>Node6</title>
<polygon fill="none" stroke="#bfbfbf" points="767,-0.5 767,-19.5 808,-19.5 808,-0.5 767,-0.5"/>
<text text-anchor="middle" x="787.5" y="-7.5" font-family="Helvetica,sans-Serif" font-size="10.00">string</text>
</g>
<!-- Node3&#45;&gt;Node6 -->
<g id="edge5" class="edge"><title>Node3&#45;&gt;Node6</title>
<path fill="none" stroke="midnightblue" d="M825.859,-183.854C926.104,-177.555 1092.92,-164.037 1111.5,-143 1197.35,-45.7884 914.594,-18.9106 818.393,-12.6674"/>
<polygon fill="midnightblue" stroke="midnightblue" points="818.331,-9.15697 808.134,-12.0347 817.9,-16.1437 818.331,-9.15697"/>
</g>
<!-- Node7 -->
<g id="node7" class="node"><title>Node7</title>
<polygon fill="none" stroke="#bfbfbf" points="657,-0.5 657,-19.5 740,-19.5 740,-0.5 657,-0.5"/>
<text text-anchor="middle" x="698.5" y="-7.5" font-family="Helvetica,sans-Serif" font-size="10.00">unordered_map</text>
</g>
<!-- Node3&#45;&gt;Node7 -->
<g id="edge6" class="edge"><title>Node3&#45;&gt;Node7</title>
<path fill="none" stroke="midnightblue" d="M675.387,-185.13C562.667,-180.04 360.537,-167.575 338.5,-143 332.566,-136.382 332.887,-129.893 338.5,-123 388.364,-61.7628 436.962,-110.033 512.5,-87 570.601,-69.2842 635.717,-40.5065 671.424,-23.9117"/>
<polygon fill="midnightblue" stroke="midnightblue" points="673.114,-26.985 680.685,-19.5735 670.145,-20.6461 673.114,-26.985"/>
</g>
<!-- Node8 -->
<g id="node8" class="node"><title>Node8</title>
<polygon fill="none" stroke="#bfbfbf" points="527,-123.5 527,-142.5 652,-142.5 652,-123.5 527,-123.5"/>
<text text-anchor="middle" x="589.5" y="-130.5" font-family="Helvetica,sans-Serif" font-size="10.00">Framework/InitContext.h</text>
</g>
<!-- Node3&#45;&gt;Node8 -->
<g id="edge7" class="edge"><title>Node3&#45;&gt;Node8</title>
<path fill="none" stroke="midnightblue" d="M724.989,-179.444C697.904,-170.359 654.91,-155.939 624.631,-145.783"/>
<polygon fill="midnightblue" stroke="midnightblue" points="625.486,-142.378 614.892,-142.516 623.26,-149.015 625.486,-142.378"/>
</g>
<!-- Node9 -->
<g id="node9" class="node"><title>Node9</title>
<polygon fill="none" stroke="#bfbfbf" points="670.5,-123.5 670.5,-142.5 830.5,-142.5 830.5,-123.5 670.5,-123.5"/>
<text text-anchor="middle" x="750.5" y="-130.5" font-family="Helvetica,sans-Serif" font-size="10.00">Framework/ProcessingContext.h</text>
</g>
<!-- Node3&#45;&gt;Node9 -->
<g id="edge8" class="edge"><title>Node3&#45;&gt;Node9</title>
<path fill="none" stroke="midnightblue" d="M750.5,-179.083C750.5,-172.006 750.5,-161.861 750.5,-152.986"/>
<polygon fill="midnightblue" stroke="midnightblue" points="754,-152.751 750.5,-142.751 747,-152.751 754,-152.751"/>
</g>
<!-- Node10 -->
<g id="node10" class="node"><title>Node10</title>
<polygon fill="none" stroke="#bfbfbf" points="849,-123.5 849,-142.5 944,-142.5 944,-123.5 849,-123.5"/>
<text text-anchor="middle" x="896.5" y="-130.5" font-family="Helvetica,sans-Serif" font-size="10.00">CCDB/CcdbApi.h</text>
</g>
<!-- Node3&#45;&gt;Node10 -->
<g id="edge9" class="edge"><title>Node3&#45;&gt;Node10</title>
<path fill="none" stroke="midnightblue" d="M773.634,-179.444C797.982,-170.438 836.507,-156.189 863.923,-146.049"/>
<polygon fill="midnightblue" stroke="midnightblue" points="865.309,-149.268 873.474,-142.516 862.881,-142.703 865.309,-149.268"/>
</g>
<!-- Node11 -->
<g id="node11" class="node"><title>Node11</title>
<g id="a_node11"><a xlink:href="Activity_8h.html" target="_top" xlink:title="QualityControl/Activity.h">
<polygon fill="none" stroke="black" points="962,-123.5 962,-142.5 1085,-142.5 1085,-123.5 962,-123.5"/>
<text text-anchor="middle" x="1023.5" y="-130.5" font-family="Helvetica,sans-Serif" font-size="10.00">QualityControl/Activity.h</text>
</a>
</g>
</g>
<!-- Node3&#45;&gt;Node11 -->
<g id="edge10" class="edge"><title>Node3&#45;&gt;Node11</title>
<path fill="none" stroke="midnightblue" d="M793.758,-179.444C841.681,-169.964 918.978,-154.675 970.5,-144.483"/>
<polygon fill="midnightblue" stroke="midnightblue" points="971.314,-147.89 980.445,-142.516 969.956,-141.023 971.314,-147.89"/>
</g>
<!-- Node12 -->
<g id="node12" class="node"><title>Node12</title>
<g id="a_node12"><a xlink:href="ObjectsManager_8h.html" target="_top" xlink:title="QualityControl/ObjectsManager.h">
<polygon fill="none" stroke="black" points="348,-123.5 348,-142.5 509,-142.5 509,-123.5 348,-123.5"/>
<text text-anchor="middle" x="428.5" y="-130.5" font-family="Helvetica,sans-Serif" font-size="10.00">QualityControl/ObjectsManager.h</text>
</a>
</g>
</g>
<!-- Node3&#45;&gt;Node12 -->
<g id="edge11" class="edge"><title>Node3&#45;&gt;Node12</title>
<path fill="none" stroke="midnightblue" d="M699.478,-179.444C642.482,-169.885 550.261,-154.419 489.5,-144.23"/>
<polygon fill="midnightblue" stroke="midnightblue" points="489.724,-140.719 479.283,-142.516 488.567,-147.622 489.724,-140.719"/>
</g>
<!-- Node3&#45;&gt;Node21 -->
<g id="edge26" class="edge"><title>Node3&#45;&gt;Node21</title>
<path fill="none" stroke="midnightblue" d="M825.786,-181.324C939.736,-171.22 1155.34,-152.103 1274.68,-141.521"/>
<polygon fill="midnightblue" stroke="midnightblue" points="1275.21,-144.988 1284.86,-140.618 1274.59,-138.015 1275.21,-144.988"/>
</g>
<!-- Node12&#45;&gt;Node5 -->
<g id="edge25" class="edge"><title>Node12&#45;&gt;Node5</title>
<path fill="none" stroke="midnightblue" d="M507.158,-123.475C627.817,-110.398 853.814,-85.9049 941.467,-76.4052"/>
<polygon fill="midnightblue" stroke="midnightblue" points="941.89,-79.88 951.455,-75.3228 941.136,-72.9207 941.89,-79.88"/>
</g>
<!-- Node12&#45;&gt;Node6 -->
<g id="edge24" class="edge"><title>Node12&#45;&gt;Node6</title>
<path fill="none" stroke="midnightblue" d="M509.093,-123.626C606.56,-113.161 758.88,-95.5866 768.5,-87 784.481,-72.7358 787.989,-47.2563 788.324,-29.7607"/>
<polygon fill="midnightblue" stroke="midnightblue" points="791.821,-29.5655 788.184,-19.6146 784.822,-29.6619 791.821,-29.5655"/>
</g>
<!-- Node13 -->
<g id="node13" class="node"><title>Node13</title>
<g id="a_node13"><a xlink:href="MonitorObject_8h.html" target="_top" xlink:title="QualityControl/MonitorObject.h">
<polygon fill="none" stroke="black" points="353,-62 353,-81 504,-81 504,-62 353,-62"/>
<text text-anchor="middle" x="428.5" y="-69" font-family="Helvetica,sans-Serif" font-size="10.00">QualityControl/MonitorObject.h</text>
</a>
</g>
</g>
<!-- Node12&#45;&gt;Node13 -->
<g id="edge12" class="edge"><title>Node12&#45;&gt;Node13</title>
<path fill="none" stroke="midnightblue" d="M428.5,-123.475C428.5,-115.08 428.5,-101.981 428.5,-91.1631"/>
<polygon fill="midnightblue" stroke="midnightblue" points="432,-91.0091 428.5,-81.0091 425,-91.0091 432,-91.0091"/>
</g>
<!-- Node17 -->
<g id="node17" class="node"><title>Node17</title>
<g id="a_node17"><a xlink:href="MonitorObjectCollection_8h.html" target="_top" xlink:title="QualityControl/MonitorObject\lCollection.h">
<polygon fill="none" stroke="black" points="192,-56.5 192,-86.5 335,-86.5 335,-56.5 192,-56.5"/>
<text text-anchor="start" x="200" y="-74.5" font-family="Helvetica,sans-Serif" font-size="10.00">QualityControl/MonitorObject</text>
<text text-anchor="middle" x="263.5" y="-63.5" font-family="Helvetica,sans-Serif" font-size="10.00">Collection.h</text>
</a>
</g>
</g>
<!-- Node12&#45;&gt;Node17 -->
<g id="edge18" class="edge"><title>Node12&#45;&gt;Node17</title>
<path fill="none" stroke="midnightblue" d="M404.86,-123.475C380.737,-114.776 342.607,-101.026 312.024,-89.9981"/>
<polygon fill="midnightblue" stroke="midnightblue" points="312.982,-86.6228 302.387,-86.523 310.607,-93.2078 312.982,-86.6228"/>
</g>
<!-- Node20 -->
<g id="node20" class="node"><title>Node20</title>
<g id="a_node20"><a xlink:href="TaskConfig_8h.html" target="_top" xlink:title="QualityControl/TaskConfig.h">
<polygon fill="none" stroke="black" points="619.5,-62 619.5,-81 759.5,-81 759.5,-62 619.5,-62"/>
<text text-anchor="middle" x="689.5" y="-69" font-family="Helvetica,sans-Serif" font-size="10.00">QualityControl/TaskConfig.h</text>
</a>
</g>
</g>
<!-- Node12&#45;&gt;Node20 -->
<g id="edge21" class="edge"><title>Node12&#45;&gt;Node20</title>
<path fill="none" stroke="midnightblue" d="M465.895,-123.475C512.313,-112.893 591.524,-94.8356 642.14,-83.2966"/>
<polygon fill="midnightblue" stroke="midnightblue" points="643.203,-86.6443 652.174,-81.0091 641.647,-79.8194 643.203,-86.6443"/>
</g>
<!-- Node13&#45;&gt;Node4 -->
<g id="edge14" class="edge"><title>Node13&#45;&gt;Node4</title>
<path fill="none" stroke="midnightblue" d="M378.615,-61.9575C367.085,-59.9922 354.867,-57.9167 343.5,-56 250.623,-40.3385 223.548,-43.754 128.706,-19.9734"/>
<polygon fill="midnightblue" stroke="midnightblue" points="129.555,-16.578 119,-17.5056 127.83,-23.3621 129.555,-16.578"/>
</g>
<!-- Node13&#45;&gt;Node6 -->
<g id="edge13" class="edge"><title>Node13&#45;&gt;Node6</title>
<path fill="none" stroke="midnightblue" d="M490.97,-61.967C555.635,-52.8242 659.469,-37.2758 748.5,-20 751.314,-19.454 754.234,-18.8503 757.152,-18.2216"/>
<polygon fill="midnightblue" stroke="midnightblue" points="757.919,-21.6365 766.913,-16.0358 756.39,-14.8057 757.919,-21.6365"/>
</g>
<!-- Node14 -->
<g id="node14" class="node"><title>Node14</title>
<polygon fill="none" stroke="#bfbfbf" points="582.5,-0.5 582.5,-19.5 638.5,-19.5 638.5,-0.5 582.5,-0.5"/>
<text text-anchor="middle" x="610.5" y="-7.5" font-family="Helvetica,sans-Serif" font-size="10.00">Rtypes.h</text>
</g>
<!-- Node13&#45;&gt;Node14 -->
<g id="edge15" class="edge"><title>Node13&#45;&gt;Node14</title>
<path fill="none" stroke="midnightblue" d="M454.576,-61.9751C486.066,-51.6804 539.198,-34.3103 574.558,-22.7502"/>
<polygon fill="midnightblue" stroke="midnightblue" points="576.055,-25.9433 584.472,-19.5091 573.88,-19.2898 576.055,-25.9433"/>
</g>
<!-- Node15 -->
<g id="node15" class="node"><title>Node15</title>
<polygon fill="none" stroke="#bfbfbf" points="371,-0.5 371,-19.5 430,-19.5 430,-0.5 371,-0.5"/>
<text text-anchor="middle" x="400.5" y="-7.5" font-family="Helvetica,sans-Serif" font-size="10.00">TObject.h</text>
</g>
<!-- Node13&#45;&gt;Node15 -->
<g id="edge16" class="edge"><title>Node13&#45;&gt;Node15</title>
<path fill="none" stroke="midnightblue" d="M424.488,-61.9751C420.413,-53.3152 413.982,-39.6486 408.804,-28.6453"/>
<polygon fill="midnightblue" stroke="midnightblue" points="411.929,-27.067 404.504,-19.5091 405.595,-30.0476 411.929,-27.067"/>
</g>
<!-- Node16 -->
<g id="node16" class="node"><title>Node16</title>
<polygon fill="none" stroke="#bfbfbf" points="448.5,-0.5 448.5,-19.5 564.5,-19.5 564.5,-0.5 448.5,-0.5"/>
<text text-anchor="middle" x="506.5" y="-7.5" font-family="Helvetica,sans-Serif" font-size="10.00">Common/Exceptions.h</text>
</g>
<!-- Node13&#45;&gt;Node16 -->
<g id="edge17" class="edge"><title>Node13&#45;&gt;Node16</title>
<path fill="none" stroke="midnightblue" d="M439.675,-61.9751C452.071,-52.5199 472.29,-37.0961 487.246,-25.6871"/>
<polygon fill="midnightblue" stroke="midnightblue" points="489.517,-28.357 495.345,-19.5091 485.272,-22.7914 489.517,-28.357"/>
</g>
<!-- Node18 -->
<g id="node18" class="node"><title>Node18</title>
<polygon fill="none" stroke="#bfbfbf" points="137,-0.5 137,-19.5 206,-19.5 206,-0.5 137,-0.5"/>
<text text-anchor="middle" x="171.5" y="-7.5" font-family="Helvetica,sans-Serif" font-size="10.00">TObjArray.h</text>
</g>
<!-- Node17&#45;&gt;Node18 -->
<g id="edge19" class="edge"><title>Node17&#45;&gt;Node18</title>
<path fill="none" stroke="midnightblue" d="M241.697,-56.3993C227.088,-46.9511 207.927,-34.5589 193.315,-25.1089"/>
<polygon fill="midnightblue" stroke="midnightblue" points="195.184,-22.1495 184.887,-19.6578 191.383,-28.0274 195.184,-22.1495"/>
</g>
<!-- Node19 -->
<g id="node19" class="node"><title>Node19</title>
<polygon fill="none" stroke="#bfbfbf" points="224.5,-0.5 224.5,-19.5 352.5,-19.5 352.5,-0.5 224.5,-0.5"/>
<text text-anchor="middle" x="288.5" y="-7.5" font-family="Helvetica,sans-Serif" font-size="10.00">Mergers/MergeInterface.h</text>
</g>
<!-- Node17&#45;&gt;Node19 -->
<g id="edge20" class="edge"><title>Node17&#45;&gt;Node19</title>
<path fill="none" stroke="midnightblue" d="M269.425,-56.3993C272.87,-48.1989 277.248,-37.7809 280.94,-28.9936"/>
<polygon fill="midnightblue" stroke="midnightblue" points="284.215,-30.2328 284.862,-19.6578 277.762,-27.5213 284.215,-30.2328"/>
</g>
<!-- Node20&#45;&gt;Node6 -->
<g id="edge22" class="edge"><title>Node20&#45;&gt;Node6</title>
<path fill="none" stroke="midnightblue" d="M703.541,-61.9751C719.551,-52.2548 745.95,-36.2266 764.874,-24.7372"/>
<polygon fill="midnightblue" stroke="midnightblue" points="766.754,-27.6907 773.485,-19.5091 763.121,-21.7072 766.754,-27.6907"/>
</g>
<!-- Node20&#45;&gt;Node7 -->
<g id="edge23" class="edge"><title>Node20&#45;&gt;Node7</title>
<path fill="none" stroke="midnightblue" d="M690.789,-61.9751C692.059,-53.5803 694.041,-40.4806 695.677,-29.6631"/>
<polygon fill="midnightblue" stroke="midnightblue" points="699.178,-29.9201 697.213,-19.5091 692.257,-28.8731 699.178,-29.9201"/>
</g>
<!-- Node22 -->
<g id="node22" class="node"><title>Node22</title>
<polygon fill="none" stroke="#bfbfbf" points="1255.5,-62 1255.5,-81 1385.5,-81 1385.5,-62 1255.5,-62"/>
<text text-anchor="middle" x="1320.5" y="-69" font-family="Helvetica,sans-Serif" font-size="10.00">InfoLogger/InfoLogger.hxx</text>
</g>
<!-- Node21&#45;&gt;Node22 -->
<g id="edge27" class="edge"><title>Node21&#45;&gt;Node22</title>
<path fill="none" stroke="midnightblue" d="M1353.91,-123.475C1348.12,-114.638 1338.91,-100.589 1331.63,-89.475"/>
<polygon fill="midnightblue" stroke="midnightblue" points="1334.49,-87.4539 1326.08,-81.0091 1328.63,-91.2913 1334.49,-87.4539"/>
</g>
<!-- Node23 -->
<g id="node23" class="node"><title>Node23</title>
<polygon fill="none" stroke="#bfbfbf" points="1403.5,-62 1403.5,-81 1565.5,-81 1565.5,-62 1403.5,-62"/>
<text text-anchor="middle" x="1484.5" y="-69" font-family="Helvetica,sans-Serif" font-size="10.00">InfoLogger/InfoLoggerMacros.hxx</text>
</g>
<!-- Node21&#45;&gt;Node23 -->
<g id="edge28" class="edge"><title>Node21&#45;&gt;Node23</title>
<path fill="none" stroke="midnightblue" d="M1377.41,-123.475C1398.39,-113.49 1433.35,-96.8476 1457.59,-85.3075"/>
<polygon fill="midnightblue" stroke="midnightblue" points="1459.1,-88.4673 1466.62,-81.0091 1456.09,-82.1468 1459.1,-88.4673"/>
</g>
<!-- Node25&#45;&gt;Node6 -->
<g id="edge33" class="edge"><title>Node25&#45;&gt;Node6</title>
<path fill="none" stroke="midnightblue" d="M1259.83,-235.385C1245.21,-227.298 1223.94,-214.191 1208.5,-199 1153.58,-144.962 1176.02,-96.5483 1110.5,-56 1061.96,-25.9579 889.482,-15.323 818.432,-12.1614"/>
<polygon fill="midnightblue" stroke="midnightblue" points="818.462,-8.65962 808.323,-11.732 818.165,-15.6533 818.462,-8.65962"/>
</g>
<!-- Node26 -->
<g id="node26" class="node"><title>Node26</title>
<polygon fill="none" stroke="#bfbfbf" points="1217.5,-179.5 1217.5,-198.5 1269.5,-198.5 1269.5,-179.5 1217.5,-179.5"/>
<text text-anchor="middle" x="1243.5" y="-186.5" font-family="Helvetica,sans-Serif" font-size="10.00">sstream</text>
</g>
<!-- Node25&#45;&gt;Node26 -->
<g id="edge34" class="edge"><title>Node25&#45;&gt;Node26</title>
<path fill="none" stroke="midnightblue" d="M1271.05,-235.083C1266.49,-227.613 1259.83,-216.724 1254.21,-207.52"/>
<polygon fill="midnightblue" stroke="midnightblue" points="1257.05,-205.459 1248.85,-198.751 1251.08,-209.109 1257.05,-205.459"/>
</g>
<!-- Node27 -->
<g id="node27" class="node"><title>Node27</title>
<polygon fill="none" stroke="#bfbfbf" points="1287.5,-179.5 1287.5,-198.5 1331.5,-198.5 1331.5,-179.5 1287.5,-179.5"/>
<text text-anchor="middle" x="1309.5" y="-186.5" font-family="Helvetica,sans-Serif" font-size="10.00">vector</text>
</g>
<!-- Node25&#45;&gt;Node27 -->
<g id="edge35" class="edge"><title>Node25&#45;&gt;Node27</title>
<path fill="none" stroke="midnightblue" d="M1281.95,-235.083C1286.51,-227.613 1293.17,-216.724 1298.79,-207.52"/>
<polygon fill="midnightblue" stroke="midnightblue" points="1301.92,-209.109 1304.15,-198.751 1295.95,-205.459 1301.92,-209.109"/>
</g>
<!-- Node28 -->
<g id="node28" class="node"><title>Node28</title>
<polygon fill="none" stroke="#bfbfbf" points="1349.5,-179.5 1349.5,-198.5 1399.5,-198.5 1399.5,-179.5 1349.5,-179.5"/>
<text text-anchor="middle" x="1374.5" y="-186.5" font-family="Helvetica,sans-Serif" font-size="10.00">iomanip</text>
</g>
<!-- Node25&#45;&gt;Node28 -->
<g id="edge36" class="edge"><title>Node25&#45;&gt;Node28</title>
<path fill="none" stroke="midnightblue" d="M1292.25,-235.324C1307.82,-226.743 1331.88,-213.486 1349.96,-203.522"/>
<polygon fill="midnightblue" stroke="midnightblue" points="1351.72,-206.546 1358.79,-198.655 1348.35,-200.415 1351.72,-206.546"/>
</g>
<!-- Node29 -->
<g id="node29" class="node"><title>Node29</title>
<polygon fill="none" stroke="#bfbfbf" points="1120,-179.5 1120,-198.5 1161,-198.5 1161,-179.5 1120,-179.5"/>
<text text-anchor="middle" x="1140.5" y="-186.5" font-family="Helvetica,sans-Serif" font-size="10.00">bitset</text>
</g>
<!-- Node25&#45;&gt;Node29 -->
<g id="edge37" class="edge"><title>Node25&#45;&gt;Node29</title>
<path fill="none" stroke="midnightblue" d="M1254.95,-235.444C1232.2,-226.412 1196.18,-212.107 1170.62,-201.961"/>
<polygon fill="midnightblue" stroke="midnightblue" points="1171.64,-198.6 1161.06,-198.163 1169.06,-205.106 1171.64,-198.6"/>
</g>
</g>
</svg>
