<?xml version="1.0" encoding="UTF-8" standalone="no"?>
<!DOCTYPE svg PUBLIC "-//W3C//DTD SVG 1.1//EN"
 "http://www.w3.org/Graphics/SVG/1.1/DTD/svg11.dtd">
<!-- Generated by graphviz version 2.38.0 (20140413.2041)
 -->
<!-- Title: Framework/include/QualityControl/DatabaseInterface.h Pages: 1 -->
<!--zoomable 184 -->
<svg id="main" version="1.1" xmlns="http://www.w3.org/2000/svg" xmlns:xlink="http://www.w3.org/1999/xlink" xml:space="preserve" onload="init(evt)">
<style type="text/css"><![CDATA[
.edge:hover path { stroke: red; }
.edge:hover polygon { stroke: red; fill: red; }
]]></style>
<script type="text/javascript"><![CDATA[
var edges = document.getElementsByTagName('g');
if (edges && edges.length) {
  for (var i=0;i<edges.length;i++) {
    if (edges[i].id.substr(0,4)=='edge') {
      edges[i].setAttribute('class','edge');
    }
  }
}
]]></script>
        <defs>
                <circle id="rim" cx="0" cy="0" r="7"/>
                <circle id="rim2" cx="0" cy="0" r="3.5"/>
                <g id="zoomPlus">
                        <use xlink:href="#rim" fill="#404040">
                                <set attributeName="fill" to="#808080" begin="zoomplus.mouseover" end="zoomplus.mouseout"/>
                        </use>
                        <path d="M-4,0h8M0,-4v8" fill="none" stroke="white" stroke-width="1.5" pointer-events="none"/>
                </g>
                <g id="zoomMin">
                        <use xlink:href="#rim" fill="#404040">
                                <set attributeName="fill" to="#808080" begin="zoomminus.mouseover" end="zoomminus.mouseout"/>
                        </use>
                        <path d="M-4,0h8" fill="none" stroke="white" stroke-width="1.5" pointer-events="none"/>
                </g>
                <g id="dirArrow">
                        <path fill="none" stroke="white" stroke-width="1.5" d="M0,-3.0v7 M-2.5,-0.5L0,-3.0L2.5,-0.5"/>
                </g>
               <g id="resetDef">
                       <use xlink:href="#rim2" fill="#404040">
                               <set attributeName="fill" to="#808080" begin="reset.mouseover" end="reset.mouseout"/>
                       </use>
               </g>
        </defs>

<script type="text/javascript">
var viewWidth = 5055;
var viewHeight = 184;
var sectionId = 'dynsection-1';
</script>
<script xlink:href="svgpan.js"/>
<svg id="graph" class="graph">
<g id="viewport">
<title>Framework/include/QualityControl/DatabaseInterface.h</title>
<!-- Node1 -->
<g id="node1" class="node"><title>Node1</title>
<polygon fill="#bfbfbf" stroke="black" points="3943.5,-145.5 3943.5,-175.5 4083.5,-175.5 4083.5,-145.5 3943.5,-145.5"/>
<text text-anchor="start" x="3951.5" y="-163.5" font-family="Helvetica,sans-Serif" font-size="10.00">Framework/include/Quality</text>
<text text-anchor="middle" x="4013.5" y="-152.5" font-family="Helvetica,sans-Serif" font-size="10.00">Control/DatabaseInterface.h</text>
</g>
<!-- Node2 -->
<g id="node2" class="node"><title>Node2</title>
<g id="a_node2"><a xlink:href="CcdbDatabase_8h.html" target="_top" xlink:title="Framework/include/Quality\lControl/CcdbDatabase.h">
<polygon fill="none" stroke="black" points="610,-73 610,-103 743,-103 743,-73 610,-73"/>
<text text-anchor="start" x="618" y="-91" font-family="Helvetica,sans-Serif" font-size="10.00">Framework/include/Quality</text>
<text text-anchor="middle" x="676.5" y="-80" font-family="Helvetica,sans-Serif" font-size="10.00">Control/CcdbDatabase.h</text>
</a>
</g>
</g>
<!-- Node1&#45;&gt;Node2 -->
<g id="edge1" class="edge"><title>Node1&#45;&gt;Node2</title>
<path fill="none" stroke="midnightblue" d="M3933.11,-159.072C3506.49,-156.671 1503.63,-143.706 884.5,-109 837.232,-106.35 784.104,-101.205 743.374,-96.7967"/>
<polygon fill="midnightblue" stroke="midnightblue" points="3933.17,-162.573 3943.19,-159.129 3933.21,-155.573 3933.17,-162.573"/>
</g>
<!-- Node9 -->
<g id="node9" class="node"><title>Node9</title>
<g id="a_node9"><a xlink:href="CheckRunner_8h.html" target="_top" xlink:title="Framework/include/Quality\lControl/CheckRunner.h">
<polygon fill="none" stroke="black" points="2500,-73 2500,-103 2633,-103 2633,-73 2500,-73"/>
<text text-anchor="start" x="2508" y="-91" font-family="Helvetica,sans-Serif" font-size="10.00">Framework/include/Quality</text>
<text text-anchor="middle" x="2566.5" y="-80" font-family="Helvetica,sans-Serif" font-size="10.00">Control/CheckRunner.h</text>
</a>
</g>
</g>
<!-- Node1&#45;&gt;Node9 -->
<g id="edge8" class="edge"><title>Node1&#45;&gt;Node9</title>
<path fill="none" stroke="midnightblue" d="M3933.17,-155.586C3675.13,-143.014 2870.34,-103.804 2633.01,-92.2406"/>
<polygon fill="midnightblue" stroke="midnightblue" points="3933.06,-159.085 3943.22,-156.076 3933.4,-152.093 3933.06,-159.085"/>
</g>
<!-- Node20 -->
<g id="node20" class="node"><title>Node20</title>
<g id="a_node20"><a xlink:href="DatabaseFactory_8h.html" target="_top" xlink:title="Framework/include/Quality\lControl/DatabaseFactory.h">
<polygon fill="none" stroke="black" points="1345.5,-73 1345.5,-103 1479.5,-103 1479.5,-73 1345.5,-73"/>
<text text-anchor="start" x="1353.5" y="-91" font-family="Helvetica,sans-Serif" font-size="10.00">Framework/include/Quality</text>
<text text-anchor="middle" x="1412.5" y="-80" font-family="Helvetica,sans-Serif" font-size="10.00">Control/DatabaseFactory.h</text>
</a>
</g>
</g>
<!-- Node1&#45;&gt;Node20 -->
<g id="edge19" class="edge"><title>Node1&#45;&gt;Node20</title>
<path fill="none" stroke="midnightblue" d="M3933.16,-157.322C3541.81,-146.715 1839.47,-100.573 1479.51,-90.8163"/>
<polygon fill="midnightblue" stroke="midnightblue" points="3933.17,-160.824 3943.26,-157.596 3933.36,-153.826 3933.17,-160.824"/>
</g>
<!-- Node24 -->
<g id="node24" class="node"><title>Node24</title>
<g id="a_node24"><a xlink:href="DummyDatabase_8h.html" target="_top" xlink:title="Framework/include/Quality\lControl/DummyDatabase.h">
<polygon fill="none" stroke="black" points="893.5,-73 893.5,-103 1029.5,-103 1029.5,-73 893.5,-73"/>
<text text-anchor="start" x="901.5" y="-91" font-family="Helvetica,sans-Serif" font-size="10.00">Framework/include/Quality</text>
<text text-anchor="middle" x="961.5" y="-80" font-family="Helvetica,sans-Serif" font-size="10.00">Control/DummyDatabase.h</text>
</a>
</g>
</g>
<!-- Node1&#45;&gt;Node24 -->
<g id="edge28" class="edge"><title>Node1&#45;&gt;Node24</title>
<path fill="none" stroke="midnightblue" d="M3933.17,-158.994C3608.49,-156.734 2361.58,-145.993 1336.5,-109 1229.16,-105.126 1104.67,-97.9552 1029.55,-93.3352"/>
<polygon fill="midnightblue" stroke="midnightblue" points="3933.39,-162.495 3943.42,-159.064 3933.44,-155.495 3933.39,-162.495"/>
</g>
<!-- Node26 -->
<g id="node26" class="node"><title>Node26</title>
<g id="a_node26"><a xlink:href="MySqlDatabase_8h.html" target="_top" xlink:title="Framework/include/Quality\lControl/MySqlDatabase.h">
<polygon fill="none" stroke="black" points="4023,-73 4023,-103 4156,-103 4156,-73 4023,-73"/>
<text text-anchor="start" x="4031" y="-91" font-family="Helvetica,sans-Serif" font-size="10.00">Framework/include/Quality</text>
<text text-anchor="middle" x="4089.5" y="-80" font-family="Helvetica,sans-Serif" font-size="10.00">Control/MySqlDatabase.h</text>
</a>
</g>
</g>
<!-- Node1&#45;&gt;Node26 -->
<g id="edge32" class="edge"><title>Node1&#45;&gt;Node26</title>
<path fill="none" stroke="midnightblue" d="M4036.53,-138.139C4048.81,-126.743 4063.58,-113.041 4074.4,-103.005"/>
<polygon fill="midnightblue" stroke="midnightblue" points="4033.83,-135.866 4028.88,-145.233 4038.59,-140.998 4033.83,-135.866"/>
</g>
<!-- Node28 -->
<g id="node28" class="node"><title>Node28</title>
<g id="a_node28"><a xlink:href="PostProcessingRunner_8h.html" target="_top" xlink:title="Framework/include/Quality\lControl/PostProcessingRunner.h">
<polygon fill="none" stroke="black" points="3670.5,-73 3670.5,-103 3830.5,-103 3830.5,-73 3670.5,-73"/>
<text text-anchor="start" x="3678.5" y="-91" font-family="Helvetica,sans-Serif" font-size="10.00">Framework/include/Quality</text>
<text text-anchor="middle" x="3750.5" y="-80" font-family="Helvetica,sans-Serif" font-size="10.00">Control/PostProcessingRunner.h</text>
</a>
</g>
</g>
<!-- Node1&#45;&gt;Node28 -->
<g id="edge34" class="edge"><title>Node1&#45;&gt;Node28</title>
<path fill="none" stroke="midnightblue" d="M3951.55,-142.894C3906.41,-130.794 3845.93,-114.581 3803.13,-103.107"/>
<polygon fill="midnightblue" stroke="midnightblue" points="3950.66,-146.279 3961.23,-145.487 3952.47,-139.517 3950.66,-146.279"/>
</g>
<!-- Node33 -->
<g id="node33" class="node"><title>Node33</title>
<g id="a_node33"><a xlink:href="RepositoryBenchmark_8h.html" target="_top" xlink:title="Framework/src/Repository\lBenchmark.h">
<polygon fill="none" stroke="black" points="3872.5,-73 3872.5,-103 4004.5,-103 4004.5,-73 3872.5,-73"/>
<text text-anchor="start" x="3880.5" y="-91" font-family="Helvetica,sans-Serif" font-size="10.00">Framework/src/Repository</text>
<text text-anchor="middle" x="3938.5" y="-80" font-family="Helvetica,sans-Serif" font-size="10.00">Benchmark.h</text>
</a>
</g>
</g>
<!-- Node1&#45;&gt;Node33 -->
<g id="edge40" class="edge"><title>Node1&#45;&gt;Node33</title>
<path fill="none" stroke="midnightblue" d="M3990.78,-138.139C3978.65,-126.743 3964.08,-113.041 3953.4,-103.005"/>
<polygon fill="midnightblue" stroke="midnightblue" points="3988.64,-140.934 3998.32,-145.233 3993.43,-135.834 3988.64,-140.934"/>
</g>
<!-- Node35 -->
<g id="node35" class="node"><title>Node35</title>
<g id="a_node35"><a xlink:href="TrendingTask_8cxx.html" target="_top" xlink:title="Framework/src/TrendingTask.cxx">
<polygon fill="none" stroke="black" points="4174,-78.5 4174,-97.5 4337,-97.5 4337,-78.5 4174,-78.5"/>
<text text-anchor="middle" x="4255.5" y="-85.5" font-family="Helvetica,sans-Serif" font-size="10.00">Framework/src/TrendingTask.cxx</text>
</a>
</g>
</g>
<!-- Node1&#45;&gt;Node35 -->
<g id="edge43" class="edge"><title>Node1&#45;&gt;Node35</title>
<path fill="none" stroke="midnightblue" d="M4071.39,-142.635C4120.15,-128.432 4187.88,-108.699 4226.13,-97.555"/>
<polygon fill="midnightblue" stroke="midnightblue" points="4070.22,-139.33 4061.6,-145.487 4072.18,-146.05 4070.22,-139.33"/>
</g>
<!-- Node36 -->
<g id="node36" class="node"><title>Node36</title>
<g id="a_node36"><a xlink:href="TreeReaderPostProcessing_8h.html" target="_top" xlink:title="Modules/FT0/include\l/FT0/TreeReaderPostProcessing.h">
<polygon fill="none" stroke="black" points="4355.5,-73 4355.5,-103 4523.5,-103 4523.5,-73 4355.5,-73"/>
<text text-anchor="start" x="4363.5" y="-91" font-family="Helvetica,sans-Serif" font-size="10.00">Modules/FT0/include</text>
<text text-anchor="middle" x="4439.5" y="-80" font-family="Helvetica,sans-Serif" font-size="10.00">/FT0/TreeReaderPostProcessing.h</text>
</a>
</g>
</g>
<!-- Node1&#45;&gt;Node36 -->
<g id="edge44" class="edge"><title>Node1&#45;&gt;Node36</title>
<path fill="none" stroke="midnightblue" d="M4093.77,-148.636C4161.15,-139.194 4259.85,-124.612 4345.5,-109 4355.43,-107.19 4365.92,-105.118 4376.14,-103.01"/>
<polygon fill="midnightblue" stroke="midnightblue" points="4093.07,-145.2 4083.65,-150.048 4094.04,-152.132 4093.07,-145.2"/>
</g>
<!-- Node38 -->
<g id="node38" class="node"><title>Node38</title>
<g id="a_node38"><a xlink:href="TrendingTaskITSFhr_8cxx.html" target="_top" xlink:title="Modules/ITS/src/Trending\lTaskITSFhr.cxx">
<polygon fill="none" stroke="black" points="4542,-73 4542,-103 4671,-103 4671,-73 4542,-73"/>
<text text-anchor="start" x="4550" y="-91" font-family="Helvetica,sans-Serif" font-size="10.00">Modules/ITS/src/Trending</text>
<text text-anchor="middle" x="4606.5" y="-80" font-family="Helvetica,sans-Serif" font-size="10.00">TaskITSFhr.cxx</text>
</a>
</g>
</g>
<!-- Node1&#45;&gt;Node38 -->
<g id="edge46" class="edge"><title>Node1&#45;&gt;Node38</title>
<path fill="none" stroke="midnightblue" d="M4093.96,-155.841C4196.48,-150.227 4378.81,-137.044 4532.5,-109 4541.14,-107.423 4550.24,-105.33 4559,-103.092"/>
<polygon fill="midnightblue" stroke="midnightblue" points="4093.49,-152.361 4083.69,-156.393 4093.86,-159.351 4093.49,-152.361"/>
</g>
<!-- Node39 -->
<g id="node39" class="node"><title>Node39</title>
<g id="a_node39"><a xlink:href="TrendingTaskITSThr_8cxx.html" target="_top" xlink:title="Modules/ITS/src/Trending\lTaskITSThr.cxx">
<polygon fill="none" stroke="black" points="4689,-73 4689,-103 4818,-103 4818,-73 4689,-73"/>
<text text-anchor="start" x="4697" y="-91" font-family="Helvetica,sans-Serif" font-size="10.00">Modules/ITS/src/Trending</text>
<text text-anchor="middle" x="4753.5" y="-80" font-family="Helvetica,sans-Serif" font-size="10.00">TaskITSThr.cxx</text>
</a>
</g>
</g>
<!-- Node1&#45;&gt;Node39 -->
<g id="edge47" class="edge"><title>Node1&#45;&gt;Node39</title>
<path fill="none" stroke="midnightblue" d="M4093.85,-158.277C4219.61,-155.271 4470.23,-144.884 4679.5,-109 4688.42,-107.471 4697.82,-105.343 4706.82,-103.042"/>
<polygon fill="midnightblue" stroke="midnightblue" points="4093.46,-154.784 4083.54,-158.513 4093.62,-161.783 4093.46,-154.784"/>
</g>
<!-- Node40 -->
<g id="node40" class="node"><title>Node40</title>
<g id="a_node40"><a xlink:href="PostProcessDiagnosticPerCrate_8h.html" target="_top" xlink:title="Post processing to rearrange TOF information at the level of the crate (maybe we should do the opposi...">
<polygon fill="none" stroke="black" points="4885,-67.5 4885,-108.5 5030,-108.5 5030,-67.5 4885,-67.5"/>
<text text-anchor="start" x="4893" y="-96.5" font-family="Helvetica,sans-Serif" font-size="10.00">Modules/TOF/include</text>
<text text-anchor="start" x="4893" y="-85.5" font-family="Helvetica,sans-Serif" font-size="10.00">/TOF/PostProcessDiagnostic</text>
<text text-anchor="middle" x="4957.5" y="-74.5" font-family="Helvetica,sans-Serif" font-size="10.00">PerCrate.h</text>
</a>
</g>
</g>
<!-- Node1&#45;&gt;Node40 -->
<g id="edge48" class="edge"><title>Node1&#45;&gt;Node40</title>
<path fill="none" stroke="midnightblue" d="M4093.77,-156.896C4239.88,-151.627 4558.9,-137.68 4826.5,-109 4845.49,-106.965 4865.93,-104.147 4884.89,-101.268"/>
<polygon fill="midnightblue" stroke="midnightblue" points="4093.42,-153.406 4083.55,-157.261 4093.67,-160.402 4093.42,-153.406"/>
</g>
<!-- Node3 -->
<g id="node3" class="node"><title>Node3</title>
<g id="a_node3"><a xlink:href="CcdbDatabase_8cxx.html" target="_top" xlink:title="Framework/src/CcdbDatabase.cxx">
<polygon fill="none" stroke="black" points="0,-6 0,-25 169,-25 169,-6 0,-6"/>
<text text-anchor="middle" x="84.5" y="-13" font-family="Helvetica,sans-Serif" font-size="10.00">Framework/src/CcdbDatabase.cxx</text>
</a>
</g>
</g>
<!-- Node2&#45;&gt;Node3 -->
<g id="edge2" class="edge"><title>Node2&#45;&gt;Node3</title>
<path fill="none" stroke="midnightblue" d="M599.838,-79.3666C501.944,-69.3924 327.386,-50.8458 178.5,-31 165.078,-29.211 150.611,-27.0803 137.144,-25.0105"/>
<polygon fill="midnightblue" stroke="midnightblue" points="599.636,-82.864 609.938,-80.393 600.343,-75.8998 599.636,-82.864"/>
</g>
<!-- Node4 -->
<g id="node4" class="node"><title>Node4</title>
<g id="a_node4"><a xlink:href="DatabaseFactory_8cxx.html" target="_top" xlink:title="Framework/src/DatabaseFactory.cxx">
<polygon fill="none" stroke="black" points="394,-6 394,-25 573,-25 573,-6 394,-6"/>
<text text-anchor="middle" x="483.5" y="-13" font-family="Helvetica,sans-Serif" font-size="10.00">Framework/src/DatabaseFactory.cxx</text>
</a>
</g>
</g>
<!-- Node2&#45;&gt;Node4 -->
<g id="edge3" class="edge"><title>Node2&#45;&gt;Node4</title>
<path fill="none" stroke="midnightblue" d="M628.382,-69.4231C589.636,-55.2698 536.852,-35.9887 506.861,-25.0336"/>
<polygon fill="midnightblue" stroke="midnightblue" points="627.314,-72.7591 637.907,-72.9027 629.715,-66.184 627.314,-72.7591"/>
</g>
<!-- Node5 -->
<g id="node5" class="node"><title>Node5</title>
<g id="a_node5"><a xlink:href="testCcdbDatabase_8cxx.html" target="_top" xlink:title="Framework/test/testCcdbDatabase.cxx">
<polygon fill="none" stroke="black" points="187.5,-6 187.5,-25 375.5,-25 375.5,-6 187.5,-6"/>
<text text-anchor="middle" x="281.5" y="-13" font-family="Helvetica,sans-Serif" font-size="10.00">Framework/test/testCcdbDatabase.cxx</text>
</a>
</g>
</g>
<!-- Node2&#45;&gt;Node5 -->
<g id="edge4" class="edge"><title>Node2&#45;&gt;Node5</title>
<path fill="none" stroke="midnightblue" d="M599.908,-73.3298C519.817,-59.035 396.605,-37.0441 329.349,-25.0402"/>
<polygon fill="midnightblue" stroke="midnightblue" points="599.481,-76.8088 609.94,-75.1204 600.711,-69.9177 599.481,-76.8088"/>
</g>
<!-- Node6 -->
<g id="node6" class="node"><title>Node6</title>
<g id="a_node6"><a xlink:href="testCcdbDatabaseExtra_8cxx.html" target="_top" xlink:title="Framework/test/testCcdbDatabase\lExtra.cxx">
<polygon fill="none" stroke="black" points="591.5,-0.5 591.5,-30.5 761.5,-30.5 761.5,-0.5 591.5,-0.5"/>
<text text-anchor="start" x="599.5" y="-18.5" font-family="Helvetica,sans-Serif" font-size="10.00">Framework/test/testCcdbDatabase</text>
<text text-anchor="middle" x="676.5" y="-7.5" font-family="Helvetica,sans-Serif" font-size="10.00">Extra.cxx</text>
</a>
</g>
</g>
<!-- Node2&#45;&gt;Node6 -->
<g id="edge5" class="edge"><title>Node2&#45;&gt;Node6</title>
<path fill="none" stroke="midnightblue" d="M676.5,-62.7317C676.5,-52.0679 676.5,-39.9145 676.5,-30.7455"/>
<polygon fill="midnightblue" stroke="midnightblue" points="673,-62.7332 676.5,-72.7333 680,-62.7333 673,-62.7332"/>
</g>
<!-- Node7 -->
<g id="node7" class="node"><title>Node7</title>
<g id="a_node7"><a xlink:href="testDbFactory_8cxx.html" target="_top" xlink:title="Framework/test/testDbFactory.cxx">
<polygon fill="none" stroke="black" points="780,-6 780,-25 949,-25 949,-6 780,-6"/>
<text text-anchor="middle" x="864.5" y="-13" font-family="Helvetica,sans-Serif" font-size="10.00">Framework/test/testDbFactory.cxx</text>
</a>
</g>
</g>
<!-- Node2&#45;&gt;Node7 -->
<g id="edge6" class="edge"><title>Node2&#45;&gt;Node7</title>
<path fill="none" stroke="midnightblue" d="M723.852,-69.2429C761.549,-55.1065 812.654,-35.9423 841.744,-25.0336"/>
<polygon fill="midnightblue" stroke="midnightblue" points="722.227,-66.1143 714.093,-72.9027 724.685,-72.6686 722.227,-66.1143"/>
</g>
<!-- Node8 -->
<g id="node8" class="node"><title>Node8</title>
<g id="a_node8"><a xlink:href="testTriggers_8cxx.html" target="_top" xlink:title="Framework/test/testTriggers.cxx">
<polygon fill="none" stroke="black" points="1165.5,-6 1165.5,-25 1323.5,-25 1323.5,-6 1165.5,-6"/>
<text text-anchor="middle" x="1244.5" y="-13" font-family="Helvetica,sans-Serif" font-size="10.00">Framework/test/testTriggers.cxx</text>
</a>
</g>
</g>
<!-- Node2&#45;&gt;Node8 -->
<g id="edge7" class="edge"><title>Node2&#45;&gt;Node8</title>
<path fill="none" stroke="midnightblue" d="M753.094,-79.1901C847.954,-69.2585 1014.42,-50.9827 1156.5,-31 1169.07,-29.2317 1182.62,-27.1086 1195.23,-25.0393"/>
<polygon fill="midnightblue" stroke="midnightblue" points="752.597,-75.7228 743.015,-80.2422 753.324,-82.685 752.597,-75.7228"/>
</g>
<!-- Node10 -->
<g id="node10" class="node"><title>Node10</title>
<g id="a_node10"><a xlink:href="CheckRunner_8cxx.html" target="_top" xlink:title="Framework/src/CheckRunner.cxx">
<polygon fill="none" stroke="black" points="1501.5,-6 1501.5,-25 1665.5,-25 1665.5,-6 1501.5,-6"/>
<text text-anchor="middle" x="1583.5" y="-13" font-family="Helvetica,sans-Serif" font-size="10.00">Framework/src/CheckRunner.cxx</text>
</a>
</g>
</g>
<!-- Node9&#45;&gt;Node10 -->
<g id="edge9" class="edge"><title>Node9&#45;&gt;Node10</title>
<path fill="none" stroke="midnightblue" d="M2489.39,-84.6342C2334.54,-79.3377 1974.89,-64.2843 1674.5,-31 1660.51,-29.4496 1645.38,-27.2517 1631.56,-25.0346"/>
<polygon fill="midnightblue" stroke="midnightblue" points="2489.62,-88.144 2499.73,-84.984 2489.86,-81.148 2489.62,-88.144"/>
</g>
<!-- Node11 -->
<g id="node11" class="node"><title>Node11</title>
<g id="a_node11"><a xlink:href="CheckRunnerFactory_8cxx.html" target="_top" xlink:title="Framework/src/CheckRunner\lFactory.cxx">
<polygon fill="none" stroke="black" points="2332,-0.5 2332,-30.5 2477,-30.5 2477,-0.5 2332,-0.5"/>
<text text-anchor="start" x="2340" y="-18.5" font-family="Helvetica,sans-Serif" font-size="10.00">Framework/src/CheckRunner</text>
<text text-anchor="middle" x="2404.5" y="-7.5" font-family="Helvetica,sans-Serif" font-size="10.00">Factory.cxx</text>
</a>
</g>
</g>
<!-- Node9&#45;&gt;Node11 -->
<g id="edge10" class="edge"><title>Node9&#45;&gt;Node11</title>
<path fill="none" stroke="midnightblue" d="M2524.78,-68.8431C2497.39,-56.9243 2462.1,-41.5655 2436.84,-30.5729"/>
<polygon fill="midnightblue" stroke="midnightblue" points="2523.54,-72.1216 2534.11,-72.9027 2526.33,-65.703 2523.54,-72.1216"/>
</g>
<!-- Node12 -->
<g id="node12" class="node"><title>Node12</title>
<g id="a_node12"><a xlink:href="InfrastructureGenerator_8cxx.html" target="_top" xlink:title="Framework/src/Infrastructure\lGenerator.cxx">
<polygon fill="none" stroke="black" points="2495,-0.5 2495,-30.5 2638,-30.5 2638,-0.5 2495,-0.5"/>
<text text-anchor="start" x="2503" y="-18.5" font-family="Helvetica,sans-Serif" font-size="10.00">Framework/src/Infrastructure</text>
<text text-anchor="middle" x="2566.5" y="-7.5" font-family="Helvetica,sans-Serif" font-size="10.00">Generator.cxx</text>
</a>
</g>
</g>
<!-- Node9&#45;&gt;Node12 -->
<g id="edge11" class="edge"><title>Node9&#45;&gt;Node12</title>
<path fill="none" stroke="midnightblue" d="M2566.5,-62.7317C2566.5,-52.0679 2566.5,-39.9145 2566.5,-30.7455"/>
<polygon fill="midnightblue" stroke="midnightblue" points="2563,-62.7332 2566.5,-72.7333 2570,-62.7333 2563,-62.7332"/>
</g>
<!-- Node13 -->
<g id="node13" class="node"><title>Node13</title>
<g id="a_node13"><a xlink:href="runBasic_8cxx.html" target="_top" xlink:title="This is an executable showing QC Task&#39;s usage in Data Processing Layer. ">
<polygon fill="none" stroke="black" points="2656.5,-6 2656.5,-25 2798.5,-25 2798.5,-6 2656.5,-6"/>
<text text-anchor="middle" x="2727.5" y="-13" font-family="Helvetica,sans-Serif" font-size="10.00">Framework/src/runBasic.cxx</text>
</a>
</g>
</g>
<!-- Node9&#45;&gt;Node13 -->
<g id="edge12" class="edge"><title>Node9&#45;&gt;Node13</title>
<path fill="none" stroke="midnightblue" d="M2607.88,-68.8809C2640.08,-54.7809 2683.31,-35.8494 2708.01,-25.0336"/>
<polygon fill="midnightblue" stroke="midnightblue" points="2606.45,-65.6854 2598.69,-72.9027 2609.26,-72.0976 2606.45,-65.6854"/>
</g>
<!-- Node14 -->
<g id="node14" class="node"><title>Node14</title>
<g id="a_node14"><a xlink:href="testCheckRunner_8cxx.html" target="_top" xlink:title="Framework/test/testCheck\lRunner.cxx">
<polygon fill="none" stroke="black" points="2817,-0.5 2817,-30.5 2950,-30.5 2950,-0.5 2817,-0.5"/>
<text text-anchor="start" x="2825" y="-18.5" font-family="Helvetica,sans-Serif" font-size="10.00">Framework/test/testCheck</text>
<text text-anchor="middle" x="2883.5" y="-7.5" font-family="Helvetica,sans-Serif" font-size="10.00">Runner.cxx</text>
</a>
</g>
</g>
<!-- Node9&#45;&gt;Node14 -->
<g id="edge13" class="edge"><title>Node9&#45;&gt;Node14</title>
<path fill="none" stroke="midnightblue" d="M2639.48,-70.7692C2694.15,-58.6105 2768.2,-42.1427 2820.34,-30.5465"/>
<polygon fill="midnightblue" stroke="midnightblue" points="2638.51,-67.3996 2629.51,-72.9872 2640.03,-74.2327 2638.51,-67.3996"/>
</g>
<!-- Node15 -->
<g id="node15" class="node"><title>Node15</title>
<g id="a_node15"><a xlink:href="testCheckWorkflow_8cxx.html" target="_top" xlink:title="Framework/test/testCheck\lWorkflow.cxx">
<polygon fill="none" stroke="black" points="2968,-0.5 2968,-30.5 3101,-30.5 3101,-0.5 2968,-0.5"/>
<text text-anchor="start" x="2976" y="-18.5" font-family="Helvetica,sans-Serif" font-size="10.00">Framework/test/testCheck</text>
<text text-anchor="middle" x="3034.5" y="-7.5" font-family="Helvetica,sans-Serif" font-size="10.00">Workflow.cxx</text>
</a>
</g>
</g>
<!-- Node9&#45;&gt;Node15 -->
<g id="edge14" class="edge"><title>Node9&#45;&gt;Node15</title>
<path fill="none" stroke="midnightblue" d="M2643.6,-77.0657C2722.77,-66.6117 2849.47,-49.178 2958.5,-31 2961.55,-30.4919 2964.66,-29.9581 2967.8,-29.4072"/>
<polygon fill="midnightblue" stroke="midnightblue" points="2642.69,-73.6556 2633.23,-78.431 2643.6,-80.5957 2642.69,-73.6556"/>
</g>
<!-- Node16 -->
<g id="node16" class="node"><title>Node16</title>
<g id="a_node16"><a xlink:href="testWorkflow_8cxx.html" target="_top" xlink:title="Framework/test/testWorkflow.cxx">
<polygon fill="none" stroke="black" points="3291.5,-6 3291.5,-25 3455.5,-25 3455.5,-6 3291.5,-6"/>
<text text-anchor="middle" x="3373.5" y="-13" font-family="Helvetica,sans-Serif" font-size="10.00">Framework/test/testWorkflow.cxx</text>
</a>
</g>
</g>
<!-- Node9&#45;&gt;Node16 -->
<g id="edge15" class="edge"><title>Node9&#45;&gt;Node16</title>
<path fill="none" stroke="midnightblue" d="M2643.66,-82.9934C2775.11,-75.715 3050.74,-58.4834 3282.5,-31 3296.16,-29.3798 3310.92,-27.2119 3324.48,-25.0469"/>
<polygon fill="midnightblue" stroke="midnightblue" points="2643.1,-79.5191 2633.31,-83.5629 2643.48,-86.5086 2643.1,-79.5191"/>
</g>
<!-- Node17 -->
<g id="node17" class="node"><title>Node17</title>
<polygon fill="none" stroke="#bfbfbf" points="1683.5,-6 1683.5,-25 1901.5,-25 1901.5,-6 1683.5,-6"/>
<text text-anchor="middle" x="1792.5" y="-13" font-family="Helvetica,sans-Serif" font-size="10.00">Modules/EMCAL/src/runQCEMCALDigits.cxx</text>
</g>
<!-- Node9&#45;&gt;Node17 -->
<g id="edge16" class="edge"><title>Node9&#45;&gt;Node17</title>
<path fill="none" stroke="midnightblue" d="M2489.81,-81.3809C2367.26,-72.1933 2119.77,-52.7827 1910.5,-31 1893.56,-29.2371 1875.29,-27.1046 1858.3,-25.0237"/>
<polygon fill="midnightblue" stroke="midnightblue" points="2489.61,-84.8758 2499.84,-82.1314 2490.13,-77.8953 2489.61,-84.8758"/>
</g>
<!-- Node18 -->
<g id="node18" class="node"><title>Node18</title>
<polygon fill="none" stroke="#bfbfbf" points="1919.5,-6 1919.5,-25 2125.5,-25 2125.5,-6 1919.5,-6"/>
<text text-anchor="middle" x="2022.5" y="-13" font-family="Helvetica,sans-Serif" font-size="10.00">Modules/PHOS/src/runQCPHOSDigits.cxx</text>
</g>
<!-- Node9&#45;&gt;Node18 -->
<g id="edge17" class="edge"><title>Node9&#45;&gt;Node18</title>
<path fill="none" stroke="midnightblue" d="M2489.69,-77.0455C2382.42,-63.1447 2189.59,-38.1545 2088.47,-25.05"/>
<polygon fill="midnightblue" stroke="midnightblue" points="2489.43,-80.541 2499.79,-78.3553 2490.33,-73.599 2489.43,-80.541"/>
</g>
<!-- Node19 -->
<g id="node19" class="node"><title>Node19</title>
<polygon fill="none" stroke="#bfbfbf" points="2143.5,-0.5 2143.5,-30.5 2313.5,-30.5 2313.5,-0.5 2143.5,-0.5"/>
<text text-anchor="start" x="2151.5" y="-18.5" font-family="Helvetica,sans-Serif" font-size="10.00">Modules/TPC/run/runTPCQCTrack</text>
<text text-anchor="middle" x="2228.5" y="-7.5" font-family="Helvetica,sans-Serif" font-size="10.00">Reader.cxx</text>
</g>
<!-- Node9&#45;&gt;Node19 -->
<g id="edge18" class="edge"><title>Node9&#45;&gt;Node19</title>
<path fill="none" stroke="midnightblue" d="M2489.8,-71.0022C2431.36,-58.8124 2351.67,-42.1918 2295.72,-30.5201"/>
<polygon fill="midnightblue" stroke="midnightblue" points="2489.22,-74.4558 2499.72,-73.0715 2490.65,-67.6033 2489.22,-74.4558"/>
</g>
<!-- Node20&#45;&gt;Node4 -->
<g id="edge21" class="edge"><title>Node20&#45;&gt;Node4</title>
<path fill="none" stroke="midnightblue" d="M1335.24,-82.562C1158.17,-72.2646 727.159,-46.45 582.5,-31 567.473,-29.3951 551.226,-27.2063 536.323,-25.0159"/>
<polygon fill="midnightblue" stroke="midnightblue" points="1335.08,-86.0583 1345.26,-83.144 1335.48,-79.0701 1335.08,-86.0583"/>
</g>
<!-- Node20&#45;&gt;Node6 -->
<g id="edge24" class="edge"><title>Node20&#45;&gt;Node6</title>
<path fill="none" stroke="midnightblue" d="M1335.09,-81.9056C1214.28,-73.5818 973.68,-55.5051 770.5,-31 767.549,-30.6441 764.549,-30.2666 761.52,-29.8722"/>
<polygon fill="midnightblue" stroke="midnightblue" points="1335.12,-85.4163 1345.34,-82.6085 1335.6,-78.4327 1335.12,-85.4163"/>
</g>
<!-- Node20&#45;&gt;Node7 -->
<g id="edge25" class="edge"><title>Node20&#45;&gt;Node7</title>
<path fill="none" stroke="midnightblue" d="M1335.33,-78.2033C1244.92,-67.7305 1090.67,-49.3415 958.5,-31 945.415,-29.1843 931.329,-27.0873 918.145,-25.0623"/>
<polygon fill="midnightblue" stroke="midnightblue" points="1335.16,-81.7066 1345.49,-79.3784 1335.96,-74.7529 1335.16,-81.7066"/>
</g>
<!-- Node20&#45;&gt;Node8 -->
<g id="edge27" class="edge"><title>Node20&#45;&gt;Node8</title>
<path fill="none" stroke="midnightblue" d="M1369.32,-68.8809C1335.72,-54.7809 1290.61,-35.8494 1264.84,-25.0336"/>
<polygon fill="midnightblue" stroke="midnightblue" points="1368.33,-72.2605 1378.91,-72.9027 1371.04,-65.8058 1368.33,-72.2605"/>
</g>
<!-- Node20&#45;&gt;Node10 -->
<g id="edge20" class="edge"><title>Node20&#45;&gt;Node10</title>
<path fill="none" stroke="midnightblue" d="M1456.01,-69.0622C1490.25,-54.9436 1536.45,-35.8958 1562.8,-25.0336"/>
<polygon fill="midnightblue" stroke="midnightblue" points="1454.6,-65.8553 1446.69,-72.9027 1457.27,-72.3269 1454.6,-65.8553"/>
</g>
<!-- Node21 -->
<g id="node21" class="node"><title>Node21</title>
<polygon fill="none" stroke="#bfbfbf" points="3119.5,-0.5 3119.5,-30.5 3273.5,-30.5 3273.5,-0.5 3119.5,-0.5"/>
<text text-anchor="start" x="3127.5" y="-18.5" font-family="Helvetica,sans-Serif" font-size="10.00">Framework/src/PostProcessing</text>
<text text-anchor="middle" x="3196.5" y="-7.5" font-family="Helvetica,sans-Serif" font-size="10.00">Runner.cxx</text>
</g>
<!-- Node20&#45;&gt;Node21 -->
<g id="edge22" class="edge"><title>Node20&#45;&gt;Node21</title>
<path fill="none" stroke="midnightblue" d="M1490.25,-85.8007C1778.91,-81.1353 2788.96,-62.8594 3109.5,-31 3112.7,-30.682 3115.96,-30.3185 3119.25,-29.9193"/>
<polygon fill="midnightblue" stroke="midnightblue" points="1489.82,-82.307 1479.88,-85.9675 1489.93,-89.3061 1489.82,-82.307"/>
</g>
<!-- Node22 -->
<g id="node22" class="node"><title>Node22</title>
<g id="a_node22"><a xlink:href="RepositoryBenchmark_8cxx.html" target="_top" xlink:title="Framework/src/Repository\lBenchmark.cxx">
<polygon fill="none" stroke="black" points="4034.5,-0.5 4034.5,-30.5 4166.5,-30.5 4166.5,-0.5 4034.5,-0.5"/>
<text text-anchor="start" x="4042.5" y="-18.5" font-family="Helvetica,sans-Serif" font-size="10.00">Framework/src/Repository</text>
<text text-anchor="middle" x="4100.5" y="-7.5" font-family="Helvetica,sans-Serif" font-size="10.00">Benchmark.cxx</text>
</a>
</g>
</g>
<!-- Node20&#45;&gt;Node22 -->
<g id="edge23" class="edge"><title>Node20&#45;&gt;Node22</title>
<path fill="none" stroke="midnightblue" d="M1489.56,-85.5245C1915.01,-77.3573 3959.85,-37.8122 4024.5,-31 4027.71,-30.6622 4030.98,-30.2603 4034.28,-29.8092"/>
<polygon fill="midnightblue" stroke="midnightblue" points="1489.45,-82.026 1479.52,-85.7173 1489.59,-89.0247 1489.45,-82.026"/>
</g>
<!-- Node23 -->
<g id="node23" class="node"><title>Node23</title>
<g id="a_node23"><a xlink:href="testTrendingTask_8cxx.html" target="_top" xlink:title="Framework/test/testTrending\lTask.cxx">
<polygon fill="none" stroke="black" points="1341.5,-0.5 1341.5,-30.5 1483.5,-30.5 1483.5,-0.5 1341.5,-0.5"/>
<text text-anchor="start" x="1349.5" y="-18.5" font-family="Helvetica,sans-Serif" font-size="10.00">Framework/test/testTrending</text>
<text text-anchor="middle" x="1412.5" y="-7.5" font-family="Helvetica,sans-Serif" font-size="10.00">Task.cxx</text>
</a>
</g>
</g>
<!-- Node20&#45;&gt;Node23 -->
<g id="edge26" class="edge"><title>Node20&#45;&gt;Node23</title>
<path fill="none" stroke="midnightblue" d="M1412.5,-62.7317C1412.5,-52.0679 1412.5,-39.9145 1412.5,-30.7455"/>
<polygon fill="midnightblue" stroke="midnightblue" points="1409,-62.7332 1412.5,-72.7333 1416,-62.7333 1409,-62.7332"/>
</g>
<!-- Node24&#45;&gt;Node4 -->
<g id="edge29" class="edge"><title>Node24&#45;&gt;Node4</title>
<path fill="none" stroke="midnightblue" d="M883.333,-75.4712C787.412,-61.3238 627.005,-37.6655 541.427,-25.0436"/>
<polygon fill="midnightblue" stroke="midnightblue" points="882.865,-78.9399 893.268,-76.9365 883.886,-72.0148 882.865,-78.9399"/>
</g>
<!-- Node24&#45;&gt;Node7 -->
<g id="edge31" class="edge"><title>Node24&#45;&gt;Node7</title>
<path fill="none" stroke="midnightblue" d="M933.593,-66.7172C914.674,-52.9665 890.62,-35.4842 876.458,-25.1911"/>
<polygon fill="midnightblue" stroke="midnightblue" points="931.724,-69.6852 941.871,-72.7333 935.839,-64.0228 931.724,-69.6852"/>
</g>
<!-- Node25 -->
<g id="node25" class="node"><title>Node25</title>
<g id="a_node25"><a xlink:href="DummyDatabase_8cxx.html" target="_top" xlink:title="Framework/src/DummyDatabase.cxx">
<polygon fill="none" stroke="black" points="967.5,-6 967.5,-25 1147.5,-25 1147.5,-6 967.5,-6"/>
<text text-anchor="middle" x="1057.5" y="-13" font-family="Helvetica,sans-Serif" font-size="10.00">Framework/src/DummyDatabase.cxx</text>
</a>
</g>
</g>
<!-- Node24&#45;&gt;Node25 -->
<g id="edge30" class="edge"><title>Node24&#45;&gt;Node25</title>
<path fill="none" stroke="midnightblue" d="M989.119,-66.7172C1007.84,-52.9665 1031.65,-35.4842 1045.67,-25.1911"/>
<polygon fill="midnightblue" stroke="midnightblue" points="986.915,-63.9931 980.927,-72.7333 991.059,-69.6352 986.915,-63.9931"/>
</g>
<!-- Node27 -->
<g id="node27" class="node"><title>Node27</title>
<g id="a_node27"><a xlink:href="MySqlDatabase_8cxx.html" target="_top" xlink:title="Framework/src/MySqlDatabase.cxx">
<polygon fill="none" stroke="black" points="4541,-6 4541,-25 4714,-25 4714,-6 4541,-6"/>
<text text-anchor="middle" x="4627.5" y="-13" font-family="Helvetica,sans-Serif" font-size="10.00">Framework/src/MySqlDatabase.cxx</text>
</a>
</g>
</g>
<!-- Node26&#45;&gt;Node27 -->
<g id="edge33" class="edge"><title>Node26&#45;&gt;Node27</title>
<path fill="none" stroke="midnightblue" d="M4147.74,-70.4821C4153.38,-69.1815 4159.03,-67.9908 4164.5,-67 4325.77,-37.7886 4368.86,-51.2455 4531.5,-31 4545.47,-29.2614 4560.54,-27.1143 4574.5,-25.0102"/>
<polygon fill="midnightblue" stroke="midnightblue" points="4146.55,-67.1687 4137.65,-72.9222 4148.2,-73.9724 4146.55,-67.1687"/>
</g>
<!-- Node28&#45;&gt;Node21 -->
<g id="edge36" class="edge"><title>Node28&#45;&gt;Node21</title>
<path fill="none" stroke="midnightblue" d="M3660.36,-77.5107C3565.99,-67.2735 3413.59,-49.8831 3282.5,-31 3279.65,-30.5898 3276.75,-30.1607 3273.83,-29.7176"/>
<polygon fill="midnightblue" stroke="midnightblue" points="3660.12,-81.0053 3670.44,-78.601 3660.87,-74.0459 3660.12,-81.0053"/>
</g>
<!-- Node29 -->
<g id="node29" class="node"><title>Node29</title>
<g id="a_node29"><a xlink:href="PostProcessingDevice_8cxx.html" target="_top" xlink:title="Framework/src/PostProcessing\lDevice.cxx">
<polygon fill="none" stroke="black" points="3473.5,-0.5 3473.5,-30.5 3627.5,-30.5 3627.5,-0.5 3473.5,-0.5"/>
<text text-anchor="start" x="3481.5" y="-18.5" font-family="Helvetica,sans-Serif" font-size="10.00">Framework/src/PostProcessing</text>
<text text-anchor="middle" x="3550.5" y="-7.5" font-family="Helvetica,sans-Serif" font-size="10.00">Device.cxx</text>
</a>
</g>
</g>
<!-- Node28&#45;&gt;Node29 -->
<g id="edge35" class="edge"><title>Node28&#45;&gt;Node29</title>
<path fill="none" stroke="midnightblue" d="M3700.75,-69.4645C3666.7,-57.4622 3622.15,-41.7576 3590.42,-30.5729"/>
<polygon fill="midnightblue" stroke="midnightblue" points="3699.91,-72.8791 3710.51,-72.9027 3702.24,-66.2772 3699.91,-72.8791"/>
</g>
<!-- Node30 -->
<g id="node30" class="node"><title>Node30</title>
<g id="a_node30"><a xlink:href="runPostProcessing_8cxx.html" target="_top" xlink:title="This is a standalone executable to run postprocessing. ">
<polygon fill="none" stroke="black" points="3645.5,-6 3645.5,-25 3831.5,-25 3831.5,-6 3645.5,-6"/>
<text text-anchor="middle" x="3738.5" y="-13" font-family="Helvetica,sans-Serif" font-size="10.00">Framework/src/runPostProcessing.cxx</text>
</a>
</g>
</g>
<!-- Node28&#45;&gt;Node30 -->
<g id="edge37" class="edge"><title>Node28&#45;&gt;Node30</title>
<path fill="none" stroke="midnightblue" d="M3746.35,-62.5913C3744.15,-49.7136 3741.6,-34.6974 3740.01,-25.3932"/>
<polygon fill="midnightblue" stroke="midnightblue" points="3742.94,-63.4624 3748.07,-72.7333 3749.84,-62.2877 3742.94,-63.4624"/>
</g>
<!-- Node31 -->
<g id="node31" class="node"><title>Node31</title>
<g id="a_node31"><a xlink:href="runPostProcessingOCC_8cxx.html" target="_top" xlink:title="This is an OCC executable to run postprocessing. ">
<polygon fill="none" stroke="black" points="3849,-0.5 3849,-30.5 4016,-30.5 4016,-0.5 3849,-0.5"/>
<text text-anchor="start" x="3857" y="-18.5" font-family="Helvetica,sans-Serif" font-size="10.00">Framework/src/runPostProcessing</text>
<text text-anchor="middle" x="3932.5" y="-7.5" font-family="Helvetica,sans-Serif" font-size="10.00">OCC.cxx</text>
</a>
</g>
</g>
<!-- Node28&#45;&gt;Node31 -->
<g id="edge38" class="edge"><title>Node28&#45;&gt;Node31</title>
<path fill="none" stroke="midnightblue" d="M3796.57,-69.1546C3827.45,-57.1929 3867.54,-41.6615 3896.17,-30.5729"/>
<polygon fill="midnightblue" stroke="midnightblue" points="3794.95,-66.0269 3786.89,-72.9027 3797.48,-72.5543 3794.95,-66.0269"/>
</g>
<!-- Node32 -->
<g id="node32" class="node"><title>Node32</title>
<g id="a_node32"><a xlink:href="testPostProcessingRunner_8cxx.html" target="_top" xlink:title="Framework/test/testPostProcessing\lRunner.cxx">
<polygon fill="none" stroke="black" points="4185,-0.5 4185,-30.5 4358,-30.5 4358,-0.5 4185,-0.5"/>
<text text-anchor="start" x="4193" y="-18.5" font-family="Helvetica,sans-Serif" font-size="10.00">Framework/test/testPostProcessing</text>
<text text-anchor="middle" x="4271.5" y="-7.5" font-family="Helvetica,sans-Serif" font-size="10.00">Runner.cxx</text>
</a>
</g>
</g>
<!-- Node28&#45;&gt;Node32 -->
<g id="edge39" class="edge"><title>Node28&#45;&gt;Node32</title>
<path fill="none" stroke="midnightblue" d="M3836.07,-71.2939C3845.32,-69.7644 3854.6,-68.3004 3863.5,-67 4001.62,-46.8271 4037.13,-49.4263 4175.5,-31 4178.59,-30.5884 4181.74,-30.1605 4184.91,-29.7209"/>
<polygon fill="midnightblue" stroke="midnightblue" points="3835.35,-67.8653 3826.07,-72.9746 3836.52,-74.7685 3835.35,-67.8653"/>
</g>
<!-- Node33&#45;&gt;Node22 -->
<g id="edge41" class="edge"><title>Node33&#45;&gt;Node22</title>
<path fill="none" stroke="midnightblue" d="M3980.22,-68.8431C4007.61,-56.9243 4042.9,-41.5655 4068.16,-30.5729"/>
<polygon fill="midnightblue" stroke="midnightblue" points="3978.67,-65.703 3970.89,-72.9027 3981.46,-72.1216 3978.67,-65.703"/>
</g>
<!-- Node34 -->
<g id="node34" class="node"><title>Node34</title>
<g id="a_node34"><a xlink:href="runRepositoryBenchmark_8cxx.html" target="_top" xlink:title="Framework/src/runRepository\lBenchmark.cxx">
<polygon fill="none" stroke="black" points="4376.5,-0.5 4376.5,-30.5 4522.5,-30.5 4522.5,-0.5 4376.5,-0.5"/>
<text text-anchor="start" x="4384.5" y="-18.5" font-family="Helvetica,sans-Serif" font-size="10.00">Framework/src/runRepository</text>
<text text-anchor="middle" x="4449.5" y="-7.5" font-family="Helvetica,sans-Serif" font-size="10.00">Benchmark.cxx</text>
</a>
</g>
</g>
<!-- Node33&#45;&gt;Node34 -->
<g id="edge42" class="edge"><title>Node33&#45;&gt;Node34</title>
<path fill="none" stroke="midnightblue" d="M3996.74,-70.5043C4002.38,-69.1992 4008.03,-68.0013 4013.5,-67 4168.62,-38.5933 4210.28,-52.5834 4366.5,-31 4369.69,-30.5596 4372.94,-30.0877 4376.22,-29.5932"/>
<polygon fill="midnightblue" stroke="midnightblue" points="3995.55,-67.1917 3986.66,-72.9501 3997.2,-73.9945 3995.55,-67.1917"/>
</g>
<!-- Node37 -->
<g id="node37" class="node"><title>Node37</title>
<g id="a_node37"><a xlink:href="TreeReaderPostProcessing_8cxx.html" target="_top" xlink:title="Modules/FT0/src/TreeReader\lPostProcessing.cxx">
<polygon fill="none" stroke="black" points="4732.5,-0.5 4732.5,-30.5 4876.5,-30.5 4876.5,-0.5 4732.5,-0.5"/>
<text text-anchor="start" x="4740.5" y="-18.5" font-family="Helvetica,sans-Serif" font-size="10.00">Modules/FT0/src/TreeReader</text>
<text text-anchor="middle" x="4804.5" y="-7.5" font-family="Helvetica,sans-Serif" font-size="10.00">PostProcessing.cxx</text>
</a>
</g>
</g>
<!-- Node36&#45;&gt;Node37 -->
<g id="edge45" class="edge"><title>Node36&#45;&gt;Node37</title>
<path fill="none" stroke="midnightblue" d="M4513.54,-70.8793C4519.95,-69.5443 4526.34,-68.2347 4532.5,-67 4600.08,-53.4628 4677.36,-39.2343 4732.23,-29.3431"/>
<polygon fill="midnightblue" stroke="midnightblue" points="4512.55,-67.5106 4503.49,-72.991 4513.99,-74.3611 4512.55,-67.5106"/>
</g>
<!-- Node41 -->
<g id="node41" class="node"><title>Node41</title>
<g id="a_node41"><a xlink:href="PostProcessDiagnosticPerCrate_8cxx.html" target="_top" xlink:title="Post processing to rearrange TOF information at the level of the crate (maybe we should do the opposi...">
<polygon fill="none" stroke="black" points="4894.5,-0.5 4894.5,-30.5 5046.5,-30.5 5046.5,-0.5 4894.5,-0.5"/>
<text text-anchor="start" x="4902.5" y="-18.5" font-family="Helvetica,sans-Serif" font-size="10.00">Modules/TOF/src/PostProcess</text>
<text text-anchor="middle" x="4970.5" y="-7.5" font-family="Helvetica,sans-Serif" font-size="10.00">DiagnosticPerCrate.cxx</text>
</a>
</g>
</g>
<!-- Node40&#45;&gt;Node41 -->
<g id="edge49" class="edge"><title>Node40&#45;&gt;Node41</title>
<path fill="none" stroke="midnightblue" d="M4962.96,-57.3757C4964.65,-48.214 4966.44,-38.5319 4967.85,-30.8916"/>
<polygon fill="midnightblue" stroke="midnightblue" points="4959.49,-56.8929 4961.12,-67.3618 4966.38,-58.1623 4959.49,-56.8929"/>
</g>
</g>
</svg>
        <g id="navigator" transform="translate(0 0)" fill="#404254">
                <rect fill="#f2f5e9" fill-opacity="0.5" stroke="#606060" stroke-width=".5" x="0" y="0" width="60" height="60"/>
                <use id="zoomplus" xlink:href="#zoomPlus" x="17" y="9" onmousedown="handleZoom(evt,'in')"/>
                <use id="zoomminus" xlink:href="#zoomMin" x="42" y="9" onmousedown="handleZoom(evt,'out')"/>
                <use id="reset" xlink:href="#resetDef" x="30" y="36" onmousedown="handleReset()"/>
                <g id="arrowUp" xlink:href="#dirArrow" transform="translate(30 24)" onmousedown="handlePan(0,-1)">
                  <use xlink:href="#rim" fill="#404040">
                        <set attributeName="fill" to="#808080" begin="arrowUp.mouseover" end="arrowUp.mouseout"/>
                  </use>
                  <path fill="none" stroke="white" stroke-width="1.5" d="M0,-3.0v7 M-2.5,-0.5L0,-3.0L2.5,-0.5"/>
                </g>
                <g id="arrowRight" xlink:href="#dirArrow" transform="rotate(90) translate(36 -43)" onmousedown="handlePan(1,0)">
                  <use xlink:href="#rim" fill="#404040">
                        <set attributeName="fill" to="#808080" begin="arrowRight.mouseover" end="arrowRight.mouseout"/>
                  </use>
                  <path fill="none" stroke="white" stroke-width="1.5" d="M0,-3.0v7 M-2.5,-0.5L0,-3.0L2.5,-0.5"/>
                </g>
                <g id="arrowDown" xlink:href="#dirArrow" transform="rotate(180) translate(-30 -48)" onmousedown="handlePan(0,1)">
                  <use xlink:href="#rim" fill="#404040">
                        <set attributeName="fill" to="#808080" begin="arrowDown.mouseover" end="arrowDown.mouseout"/>
                  </use>
                  <path fill="none" stroke="white" stroke-width="1.5" d="M0,-3.0v7 M-2.5,-0.5L0,-3.0L2.5,-0.5"/>
                </g>
                <g id="arrowLeft" xlink:href="#dirArrow" transform="rotate(270) translate(-36 17)" onmousedown="handlePan(-1,0)">
                  <use xlink:href="#rim" fill="#404040">
                        <set attributeName="fill" to="#808080" begin="arrowLeft.mouseover" end="arrowLeft.mouseout"/>
                  </use>
                  <path fill="none" stroke="white" stroke-width="1.5" d="M0,-3.0v7 M-2.5,-0.5L0,-3.0L2.5,-0.5"/>
                </g>
        </g>
        <svg viewBox="0 0 15 15" width="100%" height="30px" preserveAspectRatio="xMaxYMin meet">
         <g id="arrow_out" transform="scale(0.3 0.3)">
          <a xlink:href="DatabaseInterface_8h__dep__incl_org.svg" target="_base">
           <rect id="button" ry="5" rx="5" y="6" x="6" height="38" width="38"
                fill="#f2f5e9" fill-opacity="0.5" stroke="#606060" stroke-width="1.0"/>
           <path id="arrow"
             d="M 11.500037,31.436501 C 11.940474,20.09759 22.043105,11.32322 32.158766,21.979434 L 37.068811,17.246167 C 37.068811,17.246167 37.088388,32 37.088388,32 L 22.160133,31.978069 C 22.160133,31.978069 26.997745,27.140456 26.997745,27.140456 C 18.528582,18.264221 13.291696,25.230495 11.500037,31.436501 z"
             style="fill:#404040;"/>
          </a>
         </g>
        </svg>
</svg>
