<?xml version="1.0" encoding="UTF-8" standalone="no"?>
<!DOCTYPE svg PUBLIC "-//W3C//DTD SVG 1.1//EN"
 "http://www.w3.org/Graphics/SVG/1.1/DTD/svg11.dtd">
<!-- Generated by graphviz version 2.38.0 (20140413.2041)
 -->
<!-- Title: Framework/include/QualityControl/DatabaseFactory.h Pages: 1 -->
<svg width="1404pt" height="106pt"
 viewBox="0.00 0.00 1404.00 106.00" xmlns="http://www.w3.org/2000/svg" xmlns:xlink="http://www.w3.org/1999/xlink">
<g id="graph0" class="graph" transform="scale(1 1) rotate(0) translate(4 102)">
<title>Framework/include/QualityControl/DatabaseFactory.h</title>
<!-- Node1 -->
<g id="node1" class="node"><title>Node1</title>
<polygon fill="#bfbfbf" stroke="black" points="635,-67.5 635,-97.5 769,-97.5 769,-67.5 635,-67.5"/>
<text text-anchor="start" x="643" y="-85.5" font-family="Helvetica,sans-Serif" font-size="10.00">Framework/include/Quality</text>
<text text-anchor="middle" x="702" y="-74.5" font-family="Helvetica,sans-Serif" font-size="10.00">Control/DatabaseFactory.h</text>
</g>
<!-- Node2 -->
<g id="node2" class="node"><title>Node2</title>
<g id="a_node2"><a xlink:href="CheckRunner_8cxx.html" target="_top" xlink:title="Framework/src/CheckRunner.cxx">
<polygon fill="none" stroke="black" points="0,-6 0,-25 164,-25 164,-6 0,-6"/>
<text text-anchor="middle" x="82" y="-13" font-family="Helvetica,sans-Serif" font-size="10.00">Framework/src/CheckRunner.cxx</text>
</a>
</g>
</g>
<!-- Node1&#45;&gt;Node2 -->
<g id="edge1" class="edge"><title>Node1&#45;&gt;Node2</title>
<path fill="none" stroke="midnightblue" d="M624.604,-75.6439C521.391,-67.4842 333.091,-51.3754 173,-31 159.669,-29.3033 145.289,-27.159 131.984,-25.0433"/>
<polygon fill="midnightblue" stroke="midnightblue" points="624.384,-79.1373 634.627,-76.4324 624.933,-72.1588 624.384,-79.1373"/>
</g>
<!-- Node3 -->
<g id="node3" class="node"><title>Node3</title>
<g id="a_node3"><a xlink:href="DatabaseFactory_8cxx.html" target="_top" xlink:title="Framework/src/DatabaseFactory.cxx">
<polygon fill="none" stroke="black" points="182.5,-6 182.5,-25 361.5,-25 361.5,-6 182.5,-6"/>
<text text-anchor="middle" x="272" y="-13" font-family="Helvetica,sans-Serif" font-size="10.00">Framework/src/DatabaseFactory.cxx</text>
</a>
</g>
</g>
<!-- Node1&#45;&gt;Node3 -->
<g id="edge2" class="edge"><title>Node1&#45;&gt;Node3</title>
<path fill="none" stroke="midnightblue" d="M624.669,-69.8104C539.403,-56.9214 404.281,-36.496 328.436,-25.031"/>
<polygon fill="midnightblue" stroke="midnightblue" points="624.402,-73.3097 634.812,-71.3438 625.448,-66.3883 624.402,-73.3097"/>
</g>
<!-- Node4 -->
<g id="node4" class="node"><title>Node4</title>
<polygon fill="none" stroke="#bfbfbf" points="380,-0.5 380,-30.5 534,-30.5 534,-0.5 380,-0.5"/>
<text text-anchor="start" x="388" y="-18.5" font-family="Helvetica,sans-Serif" font-size="10.00">Framework/src/PostProcessing</text>
<text text-anchor="middle" x="457" y="-7.5" font-family="Helvetica,sans-Serif" font-size="10.00">Runner.cxx</text>
</g>
<!-- Node1&#45;&gt;Node4 -->
<g id="edge3" class="edge"><title>Node1&#45;&gt;Node4</title>
<path fill="none" stroke="midnightblue" d="M639.242,-64.8498C599.297,-54.2523 548.13,-40.6775 510.187,-30.6109"/>
<polygon fill="midnightblue" stroke="midnightblue" points="638.577,-68.2945 649.14,-67.476 640.372,-61.5286 638.577,-68.2945"/>
</g>
<!-- Node5 -->
<g id="node5" class="node"><title>Node5</title>
<g id="a_node5"><a xlink:href="RepositoryBenchmark_8cxx.html" target="_top" xlink:title="Framework/src/Repository\lBenchmark.cxx">
<polygon fill="none" stroke="black" points="552,-0.5 552,-30.5 684,-30.5 684,-0.5 552,-0.5"/>
<text text-anchor="start" x="560" y="-18.5" font-family="Helvetica,sans-Serif" font-size="10.00">Framework/src/Repository</text>
<text text-anchor="middle" x="618" y="-7.5" font-family="Helvetica,sans-Serif" font-size="10.00">Benchmark.cxx</text>
</a>
</g>
</g>
<!-- Node1&#45;&gt;Node5 -->
<g id="edge4" class="edge"><title>Node1&#45;&gt;Node5</title>
<path fill="none" stroke="midnightblue" d="M675.724,-61.1677C662.88,-51.2283 647.742,-39.5144 636.191,-30.5765"/>
<polygon fill="midnightblue" stroke="midnightblue" points="673.723,-64.0442 683.773,-67.396 678.006,-58.508 673.723,-64.0442"/>
</g>
<!-- Node6 -->
<g id="node6" class="node"><title>Node6</title>
<g id="a_node6"><a xlink:href="testCcdbDatabaseExtra_8cxx.html" target="_top" xlink:title="Framework/test/testCcdbDatabase\lExtra.cxx">
<polygon fill="none" stroke="black" points="702,-0.5 702,-30.5 872,-30.5 872,-0.5 702,-0.5"/>
<text text-anchor="start" x="710" y="-18.5" font-family="Helvetica,sans-Serif" font-size="10.00">Framework/test/testCcdbDatabase</text>
<text text-anchor="middle" x="787" y="-7.5" font-family="Helvetica,sans-Serif" font-size="10.00">Extra.cxx</text>
</a>
</g>
</g>
<!-- Node1&#45;&gt;Node6 -->
<g id="edge5" class="edge"><title>Node1&#45;&gt;Node6</title>
<path fill="none" stroke="midnightblue" d="M728.588,-61.1677C741.586,-51.2283 756.904,-39.5144 768.592,-30.5765"/>
<polygon fill="midnightblue" stroke="midnightblue" points="726.261,-58.5412 720.444,-67.396 730.513,-64.1017 726.261,-58.5412"/>
</g>
<!-- Node7 -->
<g id="node7" class="node"><title>Node7</title>
<g id="a_node7"><a xlink:href="testDbFactory_8cxx.html" target="_top" xlink:title="Framework/test/testDbFactory.cxx">
<polygon fill="none" stroke="black" points="890.5,-6 890.5,-25 1059.5,-25 1059.5,-6 890.5,-6"/>
<text text-anchor="middle" x="975" y="-13" font-family="Helvetica,sans-Serif" font-size="10.00">Framework/test/testDbFactory.cxx</text>
</a>
</g>
</g>
<!-- Node1&#45;&gt;Node7 -->
<g id="edge6" class="edge"><title>Node1&#45;&gt;Node7</title>
<path fill="none" stroke="midnightblue" d="M770.675,-65.1489C824.244,-52.3942 896.5,-35.1905 939.18,-25.0287"/>
<polygon fill="midnightblue" stroke="midnightblue" points="769.818,-61.7549 760.901,-67.476 771.44,-68.5645 769.818,-61.7549"/>
</g>
<!-- Node8 -->
<g id="node8" class="node"><title>Node8</title>
<g id="a_node8"><a xlink:href="testTrendingTask_8cxx.html" target="_top" xlink:title="Framework/test/testTrending\lTask.cxx">
<polygon fill="none" stroke="black" points="1078,-0.5 1078,-30.5 1220,-30.5 1220,-0.5 1078,-0.5"/>
<text text-anchor="start" x="1086" y="-18.5" font-family="Helvetica,sans-Serif" font-size="10.00">Framework/test/testTrending</text>
<text text-anchor="middle" x="1149" y="-7.5" font-family="Helvetica,sans-Serif" font-size="10.00">Task.cxx</text>
</a>
</g>
</g>
<!-- Node1&#45;&gt;Node8 -->
<g id="edge7" class="edge"><title>Node1&#45;&gt;Node8</title>
<path fill="none" stroke="midnightblue" d="M779.31,-71.8335C853.679,-62.3055 969.212,-46.9014 1069,-31 1071.93,-30.5335 1074.91,-30.046 1077.93,-29.5441"/>
<polygon fill="midnightblue" stroke="midnightblue" points="778.572,-68.3994 769.096,-73.1384 779.459,-75.3429 778.572,-68.3994"/>
</g>
<!-- Node9 -->
<g id="node9" class="node"><title>Node9</title>
<g id="a_node9"><a xlink:href="testTriggers_8cxx.html" target="_top" xlink:title="Framework/test/testTriggers.cxx">
<polygon fill="none" stroke="black" points="1238,-6 1238,-25 1396,-25 1396,-6 1238,-6"/>
<text text-anchor="middle" x="1317" y="-13" font-family="Helvetica,sans-Serif" font-size="10.00">Framework/test/testTriggers.cxx</text>
</a>
</g>
</g>
<!-- Node1&#45;&gt;Node9 -->
<g id="edge8" class="edge"><title>Node1&#45;&gt;Node9</title>
<path fill="none" stroke="midnightblue" d="M779.119,-75.7565C881.959,-67.7213 1069.57,-51.7497 1229,-31 1241.9,-29.3214 1255.81,-27.1832 1268.67,-25.0678"/>
<polygon fill="midnightblue" stroke="midnightblue" points="778.831,-72.2683 769.132,-76.5327 779.373,-79.2472 778.831,-72.2683"/>
</g>
</g>
</svg>
