<?xml version="1.0" encoding="UTF-8" standalone="no"?>
<!DOCTYPE svg PUBLIC "-//W3C//DTD SVG 1.1//EN"
 "http://www.w3.org/Graphics/SVG/1.1/DTD/svg11.dtd">
<!-- Generated by graphviz version 2.38.0 (20140413.2041)
 -->
<!-- Title: Modules/FT0/src/DigitsCheck.cxx Pages: 1 -->
<svg width="1249pt" height="252pt"
 viewBox="0.00 0.00 1249.00 252.00" xmlns="http://www.w3.org/2000/svg" xmlns:xlink="http://www.w3.org/1999/xlink">
<g id="graph0" class="graph" transform="scale(1 1) rotate(0) translate(4 248)">
<title>Modules/FT0/src/DigitsCheck.cxx</title>
<!-- Node1 -->
<g id="node1" class="node"><title>Node1</title>
<polygon fill="#bfbfbf" stroke="black" points="344.5,-224.5 344.5,-243.5 510.5,-243.5 510.5,-224.5 344.5,-224.5"/>
<text text-anchor="middle" x="427.5" y="-231.5" font-family="Helvetica,sans-Serif" font-size="10.00">Modules/FT0/src/DigitsCheck.cxx</text>
</g>
<!-- Node2 -->
<g id="node2" class="node"><title>Node2</title>
<polygon fill="none" stroke="#bfbfbf" points="0,-168.5 0,-187.5 97,-187.5 97,-168.5 0,-168.5"/>
<text text-anchor="middle" x="48.5" y="-175.5" font-family="Helvetica,sans-Serif" font-size="10.00">fairlogger/Logger.h</text>
</g>
<!-- Node1&#45;&gt;Node2 -->
<g id="edge1" class="edge"><title>Node1&#45;&gt;Node2</title>
<path fill="none" stroke="midnightblue" d="M364.215,-224.494C301.469,-215.983 202.313,-202.328 107.094,-188.218"/>
<polygon fill="midnightblue" stroke="midnightblue" points="107.407,-184.726 97.0009,-186.718 106.378,-191.65 107.407,-184.726"/>
</g>
<!-- Node3 -->
<g id="node3" class="node"><title>Node3</title>
<polygon fill="none" stroke="#bfbfbf" points="114.5,-168.5 114.5,-187.5 158.5,-187.5 158.5,-168.5 114.5,-168.5"/>
<text text-anchor="middle" x="136.5" y="-175.5" font-family="Helvetica,sans-Serif" font-size="10.00">TH1.h</text>
</g>
<!-- Node1&#45;&gt;Node3 -->
<g id="edge2" class="edge"><title>Node1&#45;&gt;Node3</title>
<path fill="none" stroke="midnightblue" d="M366.964,-224.473C316.3,-216.893 241.957,-204.743 168.64,-188.062"/>
<polygon fill="midnightblue" stroke="midnightblue" points="169.304,-184.623 158.773,-185.788 167.732,-191.444 169.304,-184.623"/>
</g>
<!-- Node4 -->
<g id="node4" class="node"><title>Node4</title>
<polygon fill="none" stroke="#bfbfbf" points="176.5,-168.5 176.5,-187.5 226.5,-187.5 226.5,-168.5 176.5,-168.5"/>
<text text-anchor="middle" x="201.5" y="-175.5" font-family="Helvetica,sans-Serif" font-size="10.00">TTree.h</text>
</g>
<!-- Node1&#45;&gt;Node4 -->
<g id="edge3" class="edge"><title>Node1&#45;&gt;Node4</title>
<path fill="none" stroke="midnightblue" d="M391.69,-224.444C349.146,-214.278 278.639,-197.431 236.468,-187.355"/>
<polygon fill="midnightblue" stroke="midnightblue" points="237.186,-183.928 226.646,-185.008 235.559,-190.737 237.186,-183.928"/>
</g>
<!-- Node5 -->
<g id="node5" class="node"><title>Node5</title>
<g id="a_node5"><a xlink:href="DigitsCheck_8h_source.html" target="_top" xlink:title="FT0/DigitsCheck.h">
<polygon fill="none" stroke="black" points="302,-168.5 302,-187.5 401,-187.5 401,-168.5 302,-168.5"/>
<text text-anchor="middle" x="351.5" y="-175.5" font-family="Helvetica,sans-Serif" font-size="10.00">FT0/DigitsCheck.h</text>
</a>
</g>
</g>
<!-- Node1&#45;&gt;Node5 -->
<g id="edge4" class="edge"><title>Node1&#45;&gt;Node5</title>
<path fill="none" stroke="midnightblue" d="M415.289,-224.324C403.724,-216.107 386.125,-203.602 372.339,-193.807"/>
<polygon fill="midnightblue" stroke="midnightblue" points="374.112,-190.773 363.933,-187.834 370.057,-196.479 374.112,-190.773"/>
</g>
<!-- Node11 -->
<g id="node11" class="node"><title>Node11</title>
<g id="a_node11"><a xlink:href="MonitorObject_8h.html" target="_top" xlink:title="QualityControl/MonitorObject.h">
<polygon fill="none" stroke="black" points="545,-56.5 545,-75.5 696,-75.5 696,-56.5 545,-56.5"/>
<text text-anchor="middle" x="620.5" y="-63.5" font-family="Helvetica,sans-Serif" font-size="10.00">QualityControl/MonitorObject.h</text>
</a>
</g>
</g>
<!-- Node1&#45;&gt;Node11 -->
<g id="edge20" class="edge"><title>Node1&#45;&gt;Node11</title>
<path fill="none" stroke="midnightblue" d="M481.386,-224.483C566.29,-209.829 724.927,-177.024 757.5,-132 778.285,-103.269 739.267,-86.777 697.625,-77.599"/>
<polygon fill="midnightblue" stroke="midnightblue" points="698.09,-74.1212 687.589,-75.5301 696.676,-80.977 698.09,-74.1212"/>
</g>
<!-- Node14 -->
<g id="node14" class="node"><title>Node14</title>
<g id="a_node14"><a xlink:href="Quality_8h.html" target="_top" xlink:title="QualityControl/Quality.h">
<polygon fill="none" stroke="black" points="228,-56.5 228,-75.5 349,-75.5 349,-56.5 228,-56.5"/>
<text text-anchor="middle" x="288.5" y="-63.5" font-family="Helvetica,sans-Serif" font-size="10.00">QualityControl/Quality.h</text>
</a>
</g>
</g>
<!-- Node1&#45;&gt;Node14 -->
<g id="edge21" class="edge"><title>Node1&#45;&gt;Node14</title>
<path fill="none" stroke="midnightblue" d="M378.027,-224.473C350.785,-217.924 317.528,-206.717 292.5,-188 262.096,-165.263 241.179,-147.911 253.5,-112 257.219,-101.161 264.733,-90.9216 271.849,-82.9566"/>
<polygon fill="midnightblue" stroke="midnightblue" points="274.554,-85.1922 278.944,-75.5497 269.499,-80.3498 274.554,-85.1922"/>
</g>
<!-- Node15 -->
<g id="node15" class="node"><title>Node15</title>
<g id="a_node15"><a xlink:href="QcInfoLogger_8h.html" target="_top" xlink:title="QualityControl/QcInfoLogger.h">
<polygon fill="none" stroke="black" points="429,-168.5 429,-187.5 578,-187.5 578,-168.5 429,-168.5"/>
<text text-anchor="middle" x="503.5" y="-175.5" font-family="Helvetica,sans-Serif" font-size="10.00">QualityControl/QcInfoLogger.h</text>
</a>
</g>
</g>
<!-- Node1&#45;&gt;Node15 -->
<g id="edge22" class="edge"><title>Node1&#45;&gt;Node15</title>
<path fill="none" stroke="midnightblue" d="M439.711,-224.324C451.276,-216.107 468.875,-203.602 482.661,-193.807"/>
<polygon fill="midnightblue" stroke="midnightblue" points="484.943,-196.479 491.067,-187.834 480.888,-190.773 484.943,-196.479"/>
</g>
<!-- Node18 -->
<g id="node18" class="node"><title>Node18</title>
<polygon fill="none" stroke="#bfbfbf" points="804.5,-112.5 804.5,-131.5 926.5,-131.5 926.5,-112.5 804.5,-112.5"/>
<text text-anchor="middle" x="865.5" y="-119.5" font-family="Helvetica,sans-Serif" font-size="10.00">DataFormatsFT0/Digit.h</text>
</g>
<!-- Node1&#45;&gt;Node18 -->
<g id="edge25" class="edge"><title>Node1&#45;&gt;Node18</title>
<path fill="none" stroke="midnightblue" d="M510.64,-228.31C601.922,-222.178 741.983,-209.592 790.5,-188 815.471,-176.887 838.292,-154.59 852.04,-139.235"/>
<polygon fill="midnightblue" stroke="midnightblue" points="854.806,-141.387 858.7,-131.534 849.511,-136.808 854.806,-141.387"/>
</g>
<!-- Node19 -->
<g id="node19" class="node"><title>Node19</title>
<polygon fill="none" stroke="#bfbfbf" points="1082,-112.5 1082,-131.5 1241,-131.5 1241,-112.5 1082,-112.5"/>
<text text-anchor="middle" x="1161.5" y="-119.5" font-family="Helvetica,sans-Serif" font-size="10.00">DataFormatsFT0/ChannelData.h</text>
</g>
<!-- Node1&#45;&gt;Node19 -->
<g id="edge26" class="edge"><title>Node1&#45;&gt;Node19</title>
<path fill="none" stroke="midnightblue" d="M510.536,-230.617C651.691,-225.924 932.376,-213.636 1027.5,-188 1069.3,-176.734 1113.75,-152.399 1139.49,-136.91"/>
<polygon fill="midnightblue" stroke="midnightblue" points="1141.39,-139.851 1148.09,-131.645 1137.74,-133.881 1141.39,-139.851"/>
</g>
<!-- Node20 -->
<g id="node20" class="node"><title>Node20</title>
<g id="a_node20"><a xlink:href="Utilities_8h.html" target="_top" xlink:title="FT0/Utilities.h">
<polygon fill="none" stroke="black" points="940.5,-168.5 940.5,-187.5 1018.5,-187.5 1018.5,-168.5 940.5,-168.5"/>
<text text-anchor="middle" x="979.5" y="-175.5" font-family="Helvetica,sans-Serif" font-size="10.00">FT0/Utilities.h</text>
</a>
</g>
</g>
<!-- Node1&#45;&gt;Node20 -->
<g id="edge27" class="edge"><title>Node1&#45;&gt;Node20</title>
<path fill="none" stroke="midnightblue" d="M510.738,-224.857C627.294,-213.455 835.458,-193.091 930.158,-183.827"/>
<polygon fill="midnightblue" stroke="midnightblue" points="930.708,-187.29 940.319,-182.833 930.026,-180.323 930.708,-187.29"/>
</g>
<!-- Node6 -->
<g id="node6" class="node"><title>Node6</title>
<g id="a_node6"><a xlink:href="CheckInterface_8h.html" target="_top" xlink:title="QualityControl/CheckInterface.h">
<polygon fill="none" stroke="black" points="263,-112.5 263,-131.5 420,-131.5 420,-112.5 263,-112.5"/>
<text text-anchor="middle" x="341.5" y="-119.5" font-family="Helvetica,sans-Serif" font-size="10.00">QualityControl/CheckInterface.h</text>
</a>
</g>
</g>
<!-- Node5&#45;&gt;Node6 -->
<g id="edge5" class="edge"><title>Node5&#45;&gt;Node6</title>
<path fill="none" stroke="midnightblue" d="M349.849,-168.083C348.524,-160.927 346.618,-150.635 344.961,-141.691"/>
<polygon fill="midnightblue" stroke="midnightblue" points="348.383,-140.947 343.121,-131.751 341.5,-142.221 348.383,-140.947"/>
</g>
<!-- Node7 -->
<g id="node7" class="node"><title>Node7</title>
<polygon fill="none" stroke="#bfbfbf" points="443,-0.5 443,-19.5 484,-19.5 484,-0.5 443,-0.5"/>
<text text-anchor="middle" x="463.5" y="-7.5" font-family="Helvetica,sans-Serif" font-size="10.00">string</text>
</g>
<!-- Node6&#45;&gt;Node7 -->
<g id="edge6" class="edge"><title>Node6&#45;&gt;Node7</title>
<path fill="none" stroke="midnightblue" d="M399.844,-112.486C422.066,-106.17 445.409,-95.1664 459.5,-76 469.223,-62.7747 469.204,-43.6435 467.366,-29.5593"/>
<polygon fill="midnightblue" stroke="midnightblue" points="470.791,-28.8211 465.653,-19.5552 463.891,-30.0025 470.791,-28.8211"/>
</g>
<!-- Node8 -->
<g id="node8" class="node"><title>Node8</title>
<polygon fill="none" stroke="#bfbfbf" points="271,-0.5 271,-19.5 306,-19.5 306,-0.5 271,-0.5"/>
<text text-anchor="middle" x="288.5" y="-7.5" font-family="Helvetica,sans-Serif" font-size="10.00">map</text>
</g>
<!-- Node6&#45;&gt;Node8 -->
<g id="edge7" class="edge"><title>Node6&#45;&gt;Node8</title>
<path fill="none" stroke="midnightblue" d="M276.267,-112.47C254.231,-106.123 231.852,-95.103 218.5,-76 202.999,-53.8224 235.689,-33.5114 261.44,-21.696"/>
<polygon fill="midnightblue" stroke="midnightblue" points="263.083,-24.7982 270.855,-17.5975 260.289,-18.38 263.083,-24.7982"/>
</g>
<!-- Node9 -->
<g id="node9" class="node"><title>Node9</title>
<polygon fill="none" stroke="#bfbfbf" points="367,-56.5 367,-75.5 450,-75.5 450,-56.5 367,-56.5"/>
<text text-anchor="middle" x="408.5" y="-63.5" font-family="Helvetica,sans-Serif" font-size="10.00">unordered_map</text>
</g>
<!-- Node6&#45;&gt;Node9 -->
<g id="edge8" class="edge"><title>Node6&#45;&gt;Node9</title>
<path fill="none" stroke="midnightblue" d="M352.265,-112.324C362.266,-104.263 377.387,-92.0765 389.43,-82.3695"/>
<polygon fill="midnightblue" stroke="midnightblue" points="391.95,-84.8343 397.539,-75.8339 387.557,-79.3841 391.95,-84.8343"/>
</g>
<!-- Node10 -->
<g id="node10" class="node"><title>Node10</title>
<polygon fill="none" stroke="#bfbfbf" points="502.5,-0.5 502.5,-19.5 558.5,-19.5 558.5,-0.5 502.5,-0.5"/>
<text text-anchor="middle" x="530.5" y="-7.5" font-family="Helvetica,sans-Serif" font-size="10.00">Rtypes.h</text>
</g>
<!-- Node6&#45;&gt;Node10 -->
<g id="edge9" class="edge"><title>Node6&#45;&gt;Node10</title>
<path fill="none" stroke="midnightblue" d="M387.203,-112.432C414.793,-105.707 449.681,-94.3347 476.5,-76 494.78,-63.5028 510.276,-43.1465 519.917,-28.5429"/>
<polygon fill="midnightblue" stroke="midnightblue" points="522.985,-30.2389 525.377,-19.9174 517.071,-26.495 522.985,-30.2389"/>
</g>
<!-- Node6&#45;&gt;Node11 -->
<g id="edge10" class="edge"><title>Node6&#45;&gt;Node11</title>
<path fill="none" stroke="midnightblue" d="M385.708,-112.444C434.787,-102.944 514.01,-87.611 566.664,-77.4198"/>
<polygon fill="midnightblue" stroke="midnightblue" points="567.346,-80.853 576.498,-75.5164 566.016,-73.9805 567.346,-80.853"/>
</g>
<!-- Node6&#45;&gt;Node14 -->
<g id="edge16" class="edge"><title>Node6&#45;&gt;Node14</title>
<path fill="none" stroke="midnightblue" d="M332.748,-112.083C325.03,-104.22 313.595,-92.5688 304.283,-83.0813"/>
<polygon fill="midnightblue" stroke="midnightblue" points="306.592,-80.4363 297.089,-75.7511 301.596,-85.3396 306.592,-80.4363"/>
</g>
<!-- Node11&#45;&gt;Node7 -->
<g id="edge11" class="edge"><title>Node11&#45;&gt;Node7</title>
<path fill="none" stroke="midnightblue" d="M595.623,-56.4435C568.088,-46.973 523.693,-31.7032 494.063,-21.512"/>
<polygon fill="midnightblue" stroke="midnightblue" points="494.844,-18.0797 484.25,-18.1368 492.568,-24.6991 494.844,-18.0797"/>
</g>
<!-- Node11&#45;&gt;Node8 -->
<g id="edge12" class="edge"><title>Node11&#45;&gt;Node8</title>
<path fill="none" stroke="midnightblue" d="M567.894,-56.4435C496.585,-44.8452 371.802,-24.5492 316.384,-15.5354"/>
<polygon fill="midnightblue" stroke="midnightblue" points="316.694,-12.0398 306.262,-13.889 315.57,-18.949 316.694,-12.0398"/>
</g>
<!-- Node11&#45;&gt;Node10 -->
<g id="edge13" class="edge"><title>Node11&#45;&gt;Node10</title>
<path fill="none" stroke="midnightblue" d="M606.04,-56.324C592,-47.9002 570.452,-34.9709 553.957,-25.0741"/>
<polygon fill="midnightblue" stroke="midnightblue" points="555.3,-21.7983 544.924,-19.6545 551.698,-27.8007 555.3,-21.7983"/>
</g>
<!-- Node12 -->
<g id="node12" class="node"><title>Node12</title>
<polygon fill="none" stroke="#bfbfbf" points="848,-0.5 848,-19.5 907,-19.5 907,-0.5 848,-0.5"/>
<text text-anchor="middle" x="877.5" y="-7.5" font-family="Helvetica,sans-Serif" font-size="10.00">TObject.h</text>
</g>
<!-- Node11&#45;&gt;Node12 -->
<g id="edge14" class="edge"><title>Node11&#45;&gt;Node12</title>
<path fill="none" stroke="midnightblue" d="M661.222,-56.4435C709.616,-46.2753 789.825,-29.422 837.776,-19.3468"/>
<polygon fill="midnightblue" stroke="midnightblue" points="838.718,-22.7253 847.784,-17.2437 837.278,-15.8749 838.718,-22.7253"/>
</g>
<!-- Node13 -->
<g id="node13" class="node"><title>Node13</title>
<polygon fill="none" stroke="#bfbfbf" points="576.5,-0.5 576.5,-19.5 692.5,-19.5 692.5,-0.5 576.5,-0.5"/>
<text text-anchor="middle" x="634.5" y="-7.5" font-family="Helvetica,sans-Serif" font-size="10.00">Common/Exceptions.h</text>
</g>
<!-- Node11&#45;&gt;Node13 -->
<g id="edge15" class="edge"><title>Node11&#45;&gt;Node13</title>
<path fill="none" stroke="midnightblue" d="M622.812,-56.083C624.667,-48.9272 627.335,-38.6353 629.654,-29.6911"/>
<polygon fill="midnightblue" stroke="midnightblue" points="633.109,-30.3094 632.231,-19.7511 626.334,-28.5527 633.109,-30.3094"/>
</g>
<!-- Node14&#45;&gt;Node7 -->
<g id="edge18" class="edge"><title>Node14&#45;&gt;Node7</title>
<path fill="none" stroke="midnightblue" d="M316.229,-56.4435C348.109,-46.6063 400.266,-30.5122 433.193,-20.3518"/>
<polygon fill="midnightblue" stroke="midnightblue" points="434.227,-23.6956 442.751,-17.4026 432.163,-17.0068 434.227,-23.6956"/>
</g>
<!-- Node14&#45;&gt;Node8 -->
<g id="edge19" class="edge"><title>Node14&#45;&gt;Node8</title>
<path fill="none" stroke="midnightblue" d="M288.5,-56.083C288.5,-49.0059 288.5,-38.8611 288.5,-29.9865"/>
<polygon fill="midnightblue" stroke="midnightblue" points="292,-29.751 288.5,-19.7511 285,-29.7511 292,-29.751"/>
</g>
<!-- Node14&#45;&gt;Node10 -->
<g id="edge17" class="edge"><title>Node14&#45;&gt;Node10</title>
<path fill="none" stroke="midnightblue" d="M328.627,-56.4711C367.897,-48.0621 429.671,-34.6698 492.196,-20.2649"/>
<polygon fill="midnightblue" stroke="midnightblue" points="493.279,-23.6069 502.234,-17.9449 491.702,-16.7867 493.279,-23.6069"/>
</g>
<!-- Node16 -->
<g id="node16" class="node"><title>Node16</title>
<polygon fill="none" stroke="#bfbfbf" points="438.5,-112.5 438.5,-131.5 568.5,-131.5 568.5,-112.5 438.5,-112.5"/>
<text text-anchor="middle" x="503.5" y="-119.5" font-family="Helvetica,sans-Serif" font-size="10.00">InfoLogger/InfoLogger.hxx</text>
</g>
<!-- Node15&#45;&gt;Node16 -->
<g id="edge23" class="edge"><title>Node15&#45;&gt;Node16</title>
<path fill="none" stroke="midnightblue" d="M503.5,-168.083C503.5,-161.006 503.5,-150.861 503.5,-141.986"/>
<polygon fill="midnightblue" stroke="midnightblue" points="507,-141.751 503.5,-131.751 500,-141.751 507,-141.751"/>
</g>
<!-- Node17 -->
<g id="node17" class="node"><title>Node17</title>
<polygon fill="none" stroke="#bfbfbf" points="586.5,-112.5 586.5,-131.5 748.5,-131.5 748.5,-112.5 586.5,-112.5"/>
<text text-anchor="middle" x="667.5" y="-119.5" font-family="Helvetica,sans-Serif" font-size="10.00">InfoLogger/InfoLoggerMacros.hxx</text>
</g>
<!-- Node15&#45;&gt;Node17 -->
<g id="edge24" class="edge"><title>Node15&#45;&gt;Node17</title>
<path fill="none" stroke="midnightblue" d="M529.486,-168.444C557.196,-159.32 601.252,-144.813 632.116,-134.651"/>
<polygon fill="midnightblue" stroke="midnightblue" points="633.232,-137.968 641.635,-131.516 631.042,-131.32 633.232,-137.968"/>
</g>
<!-- Node20&#45;&gt;Node10 -->
<g id="edge31" class="edge"><title>Node20&#45;&gt;Node10</title>
<path fill="none" stroke="midnightblue" d="M976.089,-168.335C970.088,-154.254 956.274,-126.521 935.5,-112 931.655,-109.312 668.803,-44.8309 568.666,-20.3293"/>
<polygon fill="midnightblue" stroke="midnightblue" points="569.21,-16.8592 558.665,-17.8827 567.547,-23.6587 569.21,-16.8592"/>
</g>
<!-- Node20&#45;&gt;Node12 -->
<g id="edge32" class="edge"><title>Node20&#45;&gt;Node12</title>
<path fill="none" stroke="midnightblue" d="M996.434,-168.492C1016.66,-157.069 1046.48,-135.479 1035.5,-112 1013.13,-64.1482 955.649,-36.3818 916.549,-22.4624"/>
<polygon fill="midnightblue" stroke="midnightblue" points="917.631,-19.1337 907.036,-19.2182 915.371,-25.7589 917.631,-19.1337"/>
</g>
<!-- Node20&#45;&gt;Node18 -->
<g id="edge29" class="edge"><title>Node20&#45;&gt;Node18</title>
<path fill="none" stroke="midnightblue" d="M961.436,-168.444C942.925,-159.675 913.919,-145.935 892.645,-135.858"/>
<polygon fill="midnightblue" stroke="midnightblue" points="894.015,-132.634 883.479,-131.516 891.018,-138.96 894.015,-132.634"/>
</g>
<!-- Node20&#45;&gt;Node19 -->
<g id="edge30" class="edge"><title>Node20&#45;&gt;Node19</title>
<path fill="none" stroke="midnightblue" d="M1008.34,-168.444C1039.36,-159.241 1088.83,-144.562 1123.12,-134.388"/>
<polygon fill="midnightblue" stroke="midnightblue" points="1124.21,-137.716 1132.8,-131.516 1122.21,-131.006 1124.21,-137.716"/>
</g>
<!-- Node21 -->
<g id="node21" class="node"><title>Node21</title>
<polygon fill="none" stroke="#bfbfbf" points="982.5,-112.5 982.5,-131.5 1026.5,-131.5 1026.5,-112.5 982.5,-112.5"/>
<text text-anchor="middle" x="1004.5" y="-119.5" font-family="Helvetica,sans-Serif" font-size="10.00">vector</text>
</g>
<!-- Node20&#45;&gt;Node21 -->
<g id="edge28" class="edge"><title>Node20&#45;&gt;Node21</title>
<path fill="none" stroke="midnightblue" d="M983.628,-168.083C987.014,-160.77 991.916,-150.181 996.119,-141.103"/>
<polygon fill="midnightblue" stroke="midnightblue" points="999.423,-142.296 1000.45,-131.751 993.071,-139.355 999.423,-142.296"/>
</g>
</g>
</svg>
