<?xml version="1.0" encoding="UTF-8" standalone="no"?>
<!DOCTYPE svg PUBLIC "-//W3C//DTD SVG 1.1//EN"
 "http://www.w3.org/Graphics/SVG/1.1/DTD/svg11.dtd">
<!-- Generated by graphviz version 2.38.0 (20140413.2041)
 -->
<!-- Title: Modules Pages: 1 -->
<!--zoomable 132 -->
<svg id="main" version="1.1" xmlns="http://www.w3.org/2000/svg" xmlns:xlink="http://www.w3.org/1999/xlink" xml:space="preserve" onload="init(evt)">
<style type="text/css"><![CDATA[
.edge:hover path { stroke: red; }
.edge:hover polygon { stroke: red; fill: red; }
]]></style>
<script type="text/javascript"><![CDATA[
var edges = document.getElementsByTagName('g');
if (edges && edges.length) {
  for (var i=0;i<edges.length;i++) {
    if (edges[i].id.substr(0,4)=='edge') {
      edges[i].setAttribute('class','edge');
    }
  }
}
]]></script>
        <defs>
                <circle id="rim" cx="0" cy="0" r="7"/>
                <circle id="rim2" cx="0" cy="0" r="3.5"/>
                <g id="zoomPlus">
                        <use xlink:href="#rim" fill="#404040">
                                <set attributeName="fill" to="#808080" begin="zoomplus.mouseover" end="zoomplus.mouseout"/>
                        </use>
                        <path d="M-4,0h8M0,-4v8" fill="none" stroke="white" stroke-width="1.5" pointer-events="none"/>
                </g>
                <g id="zoomMin">
                        <use xlink:href="#rim" fill="#404040">
                                <set attributeName="fill" to="#808080" begin="zoomminus.mouseover" end="zoomminus.mouseout"/>
                        </use>
                        <path d="M-4,0h8" fill="none" stroke="white" stroke-width="1.5" pointer-events="none"/>
                </g>
                <g id="dirArrow">
                        <path fill="none" stroke="white" stroke-width="1.5" d="M0,-3.0v7 M-2.5,-0.5L0,-3.0L2.5,-0.5"/>
                </g>
               <g id="resetDef">
                       <use xlink:href="#rim2" fill="#404040">
                               <set attributeName="fill" to="#808080" begin="reset.mouseover" end="reset.mouseout"/>
                       </use>
               </g>
        </defs>

<script type="text/javascript">
var viewWidth = 1036;
var viewHeight = 132;
var sectionId = 'dynsection-0';
</script>
<script xlink:href="svgpan.js"/>
<svg id="graph" class="graph">
<g id="viewport">
<title>Modules</title>
<g id="clust1" class="cluster"><title>clusterdir_f2541a3b18981391fa76fac5599e978a</title>
<g id="a_clust1"><a xlink:href="dir_f2541a3b18981391fa76fac5599e978a.html" target="_top">
<polygon fill="#eeeeff" stroke="black" points="8,-64 8,-116 1020,-116 1020,-64 8,-64"/>
</a>
</g>
</g>
<!-- dir_f2541a3b18981391fa76fac5599e978a -->
<g id="node1" class="node"><title>dir_f2541a3b18981391fa76fac5599e978a</title>
<text text-anchor="middle" x="985" y="-87.5" font-family="Helvetica,sans-Serif" font-size="10.00">Modules</text>
</g>
<!-- dir_6b8bd6c02904bc94839ef977dfbf16fd -->
<g id="node2" class="node"><title>dir_6b8bd6c02904bc94839ef977dfbf16fd</title>
<g id="a_node2"><a xlink:href="dir_6b8bd6c02904bc94839ef977dfbf16fd.html" target="_top" xlink:title="Common">
<polygon fill="white" stroke="red" points="940,-108 884,-108 884,-72 940,-72 940,-108"/>
<text text-anchor="middle" x="912" y="-87.5" font-family="Helvetica,sans-Serif" font-size="10.00">Common</text>
</a>
</g>
</g>
<!-- dir_bcbb2cf9a3d3d83e5515c82071a07177 -->
<g id="node15" class="node"><title>dir_bcbb2cf9a3d3d83e5515c82071a07177</title>
<g id="a_node15"><a xlink:href="dir_bcbb2cf9a3d3d83e5515c82071a07177.html" target="_top" xlink:title="Framework">
<polygon fill="none" stroke="red" points="509.5,-36 444.5,-36 444.5,-0 509.5,-0 509.5,-36"/>
<text text-anchor="middle" x="477" y="-15.5" font-family="Helvetica,sans-Serif" font-size="10.00">Framework</text>
</a>
</g>
</g>
<!-- dir_6b8bd6c02904bc94839ef977dfbf16fd&#45;&gt;dir_bcbb2cf9a3d3d83e5515c82071a07177 -->
<g id="edge11" class="edge"><title>dir_6b8bd6c02904bc94839ef977dfbf16fd&#45;&gt;dir_bcbb2cf9a3d3d83e5515c82071a07177</title>
<path fill="none" stroke="black" d="M890.25,-71.8142C885.455,-68.7545 880.237,-65.9318 875,-64 810.519,-40.2137 608.317,-26.3306 519.525,-21.2392"/>
<polygon fill="black" stroke="black" points="519.708,-17.7441 509.527,-20.6757 519.314,-24.733 519.708,-17.7441"/>
<g id="a_edge11&#45;headlabel"><a xlink:href="dir_000004_000000.html" target="_top" xlink:title="17">
<text text-anchor="middle" x="523.457" y="-12.6115" font-family="Helvetica,sans-Serif" font-size="10.00">17</text>
</a>
</g>
</g>
<!-- dir_b4be303506ebb37c6dc24696436a6ab8 -->
<g id="node3" class="node"><title>dir_b4be303506ebb37c6dc24696436a6ab8</title>
<g id="a_node3"><a xlink:href="dir_b4be303506ebb37c6dc24696436a6ab8.html" target="_top" xlink:title="Daq">
<polygon fill="white" stroke="red" points="866,-108 812,-108 812,-72 866,-72 866,-108"/>
<text text-anchor="middle" x="839" y="-87.5" font-family="Helvetica,sans-Serif" font-size="10.00">Daq</text>
</a>
</g>
</g>
<!-- dir_b4be303506ebb37c6dc24696436a6ab8&#45;&gt;dir_bcbb2cf9a3d3d83e5515c82071a07177 -->
<g id="edge13" class="edge"><title>dir_b4be303506ebb37c6dc24696436a6ab8&#45;&gt;dir_bcbb2cf9a3d3d83e5515c82071a07177</title>
<path fill="none" stroke="black" d="M817.851,-71.9071C813.184,-68.8407 808.104,-65.9918 803,-64 706.702,-26.4192 583.686,-19.4815 519.818,-18.6444"/>
<polygon fill="black" stroke="black" points="519.746,-15.1437 509.716,-18.5571 519.686,-22.1435 519.746,-15.1437"/>
<g id="a_edge13&#45;headlabel"><a xlink:href="dir_000007_000000.html" target="_top" xlink:title="3">
<text text-anchor="middle" x="523.365" y="-9.83555" font-family="Helvetica,sans-Serif" font-size="10.00">3</text>
</a>
</g>
</g>
<!-- dir_ed80be2c367d80462ec6a6a3f0ad67d1 -->
<g id="node4" class="node"><title>dir_ed80be2c367d80462ec6a6a3f0ad67d1</title>
<g id="a_node4"><a xlink:href="dir_ed80be2c367d80462ec6a6a3f0ad67d1.html" target="_top" xlink:title="EMCAL">
<polygon fill="white" stroke="red" points="794,-108 740,-108 740,-72 794,-72 794,-108"/>
<text text-anchor="middle" x="767" y="-87.5" font-family="Helvetica,sans-Serif" font-size="10.00">EMCAL</text>
</a>
</g>
</g>
<!-- dir_ed80be2c367d80462ec6a6a3f0ad67d1&#45;&gt;dir_bcbb2cf9a3d3d83e5515c82071a07177 -->
<g id="edge6" class="edge"><title>dir_ed80be2c367d80462ec6a6a3f0ad67d1&#45;&gt;dir_bcbb2cf9a3d3d83e5515c82071a07177</title>
<path fill="none" stroke="black" d="M745.401,-71.8015C740.847,-68.8202 735.924,-66.0308 731,-64 660.506,-34.9271 571.421,-24.6208 519.661,-20.9785"/>
<polygon fill="black" stroke="black" points="519.719,-17.4749 509.513,-20.3166 519.264,-24.4601 519.719,-17.4749"/>
<g id="a_edge6&#45;headlabel"><a xlink:href="dir_000010_000000.html" target="_top" xlink:title="16">
<text text-anchor="middle" x="523.491" y="-12.3755" font-family="Helvetica,sans-Serif" font-size="10.00">16</text>
</a>
</g>
</g>
<!-- dir_5273b6b5b4e75477d91e3579fb65d936 -->
<g id="node5" class="node"><title>dir_5273b6b5b4e75477d91e3579fb65d936</title>
<g id="a_node5"><a xlink:href="dir_5273b6b5b4e75477d91e3579fb65d936.html" target="_top" xlink:title="Example">
<polygon fill="white" stroke="red" points="721.5,-108 666.5,-108 666.5,-72 721.5,-72 721.5,-108"/>
<text text-anchor="middle" x="694" y="-87.5" font-family="Helvetica,sans-Serif" font-size="10.00">Example</text>
</a>
</g>
</g>
<!-- dir_5273b6b5b4e75477d91e3579fb65d936&#45;&gt;dir_bcbb2cf9a3d3d83e5515c82071a07177 -->
<g id="edge7" class="edge"><title>dir_5273b6b5b4e75477d91e3579fb65d936&#45;&gt;dir_bcbb2cf9a3d3d83e5515c82071a07177</title>
<path fill="none" stroke="black" d="M671.234,-71.8294C666.682,-68.9183 661.814,-66.1476 657,-64 612.229,-44.0282 557.074,-31.8986 519.704,-25.3453"/>
<polygon fill="black" stroke="black" points="520.103,-21.8632 509.659,-23.643 518.934,-28.7648 520.103,-21.8632"/>
<g id="a_edge7&#45;headlabel"><a xlink:href="dir_000013_000000.html" target="_top" xlink:title="11">
<text text-anchor="middle" x="524.122" y="-17.1643" font-family="Helvetica,sans-Serif" font-size="10.00">11</text>
</a>
</g>
</g>
<!-- dir_ac48c89599594e65270cafb6e04a1bcc -->
<g id="node6" class="node"><title>dir_ac48c89599594e65270cafb6e04a1bcc</title>
<g id="a_node6"><a xlink:href="dir_ac48c89599594e65270cafb6e04a1bcc.html" target="_top" xlink:title="FT0">
<polygon fill="white" stroke="red" points="648,-108 594,-108 594,-72 648,-72 648,-108"/>
<text text-anchor="middle" x="621" y="-87.5" font-family="Helvetica,sans-Serif" font-size="10.00">FT0</text>
</a>
</g>
</g>
<!-- dir_ac48c89599594e65270cafb6e04a1bcc&#45;&gt;dir_bcbb2cf9a3d3d83e5515c82071a07177 -->
<g id="edge4" class="edge"><title>dir_ac48c89599594e65270cafb6e04a1bcc&#45;&gt;dir_bcbb2cf9a3d3d83e5515c82071a07177</title>
<path fill="none" stroke="black" d="M597.833,-71.8526C593.658,-69.0703 589.272,-66.3386 585,-64 564.176,-52.5998 539.856,-42.2295 519.572,-34.325"/>
<polygon fill="black" stroke="black" points="520.562,-30.9563 509.971,-30.6489 518.058,-37.4934 520.562,-30.9563"/>
<g id="a_edge4&#45;headlabel"><a xlink:href="dir_000016_000000.html" target="_top" xlink:title="18">
<text text-anchor="middle" x="524.934" y="-27.0901" font-family="Helvetica,sans-Serif" font-size="10.00">18</text>
</a>
</g>
</g>
<!-- dir_48a8cb84b7ebf8a30d1487d6c616d7f4 -->
<g id="node7" class="node"><title>dir_48a8cb84b7ebf8a30d1487d6c616d7f4</title>
<g id="a_node7"><a xlink:href="dir_48a8cb84b7ebf8a30d1487d6c616d7f4.html" target="_top" xlink:title="ITS">
<polygon fill="white" stroke="red" points="576,-108 522,-108 522,-72 576,-72 576,-108"/>
<text text-anchor="middle" x="549" y="-87.5" font-family="Helvetica,sans-Serif" font-size="10.00">ITS</text>
</a>
</g>
</g>
<!-- dir_48a8cb84b7ebf8a30d1487d6c616d7f4&#45;&gt;dir_bcbb2cf9a3d3d83e5515c82071a07177 -->
<g id="edge2" class="edge"><title>dir_48a8cb84b7ebf8a30d1487d6c616d7f4&#45;&gt;dir_bcbb2cf9a3d3d83e5515c82071a07177</title>
<path fill="none" stroke="black" d="M531.202,-71.6966C522.396,-63.135 511.618,-52.6562 501.999,-43.3045"/>
<polygon fill="black" stroke="black" points="504.203,-40.5657 494.593,-36.1043 499.323,-45.5846 504.203,-40.5657"/>
<g id="a_edge2&#45;headlabel"><a xlink:href="dir_000019_000000.html" target="_top" xlink:title="30">
<text text-anchor="middle" x="508.759" y="-38.5356" font-family="Helvetica,sans-Serif" font-size="10.00">30</text>
</a>
</g>
</g>
<!-- dir_83d1d206e08935b361e68569931943ec -->
<g id="node8" class="node"><title>dir_83d1d206e08935b361e68569931943ec</title>
<g id="a_node8"><a xlink:href="dir_83d1d206e08935b361e68569931943ec.html" target="_top" xlink:title="MFT">
<polygon fill="white" stroke="red" points="504,-108 450,-108 450,-72 504,-72 504,-108"/>
<text text-anchor="middle" x="477" y="-87.5" font-family="Helvetica,sans-Serif" font-size="10.00">MFT</text>
</a>
</g>
</g>
<!-- dir_83d1d206e08935b361e68569931943ec&#45;&gt;dir_bcbb2cf9a3d3d83e5515c82071a07177 -->
<g id="edge10" class="edge"><title>dir_83d1d206e08935b361e68569931943ec&#45;&gt;dir_bcbb2cf9a3d3d83e5515c82071a07177</title>
<path fill="none" stroke="black" d="M477,-71.6966C477,-63.9827 477,-54.7125 477,-46.1124"/>
<polygon fill="black" stroke="black" points="480.5,-46.1043 477,-36.1043 473.5,-46.1044 480.5,-46.1043"/>
<g id="a_edge10&#45;headlabel"><a xlink:href="dir_000022_000000.html" target="_top" xlink:title="16">
<text text-anchor="middle" x="483.339" y="-47.199" font-family="Helvetica,sans-Serif" font-size="10.00">16</text>
</a>
</g>
</g>
<!-- dir_ed72a712e51ac04ff45d8c7804f27dca -->
<g id="node9" class="node"><title>dir_ed72a712e51ac04ff45d8c7804f27dca</title>
<g id="a_node9"><a xlink:href="dir_ed72a712e51ac04ff45d8c7804f27dca.html" target="_top" xlink:title="MID">
<polygon fill="white" stroke="red" points="432,-108 378,-108 378,-72 432,-72 432,-108"/>
<text text-anchor="middle" x="405" y="-87.5" font-family="Helvetica,sans-Serif" font-size="10.00">MID</text>
</a>
</g>
</g>
<!-- dir_ed72a712e51ac04ff45d8c7804f27dca&#45;&gt;dir_bcbb2cf9a3d3d83e5515c82071a07177 -->
<g id="edge3" class="edge"><title>dir_ed72a712e51ac04ff45d8c7804f27dca&#45;&gt;dir_bcbb2cf9a3d3d83e5515c82071a07177</title>
<path fill="none" stroke="black" d="M422.798,-71.6966C431.604,-63.135 442.382,-52.6562 452.001,-43.3045"/>
<polygon fill="black" stroke="black" points="454.677,-45.5846 459.407,-36.1043 449.797,-40.5657 454.677,-45.5846"/>
<g id="a_edge3&#45;headlabel"><a xlink:href="dir_000025_000000.html" target="_top" xlink:title="10">
<text text-anchor="middle" x="454.079" y="-47.6261" font-family="Helvetica,sans-Serif" font-size="10.00">10</text>
</a>
</g>
</g>
<!-- dir_d3f38a47912c447ca68cc325fcb37be5 -->
<g id="node10" class="node"><title>dir_d3f38a47912c447ca68cc325fcb37be5</title>
<g id="a_node10"><a xlink:href="dir_d3f38a47912c447ca68cc325fcb37be5.html" target="_top" xlink:title="MUON">
<polygon fill="white" stroke="red" points="360,-108 306,-108 306,-72 360,-72 360,-108"/>
<text text-anchor="middle" x="333" y="-87.5" font-family="Helvetica,sans-Serif" font-size="10.00">MUON</text>
</a>
</g>
</g>
<!-- dir_d3f38a47912c447ca68cc325fcb37be5&#45;&gt;dir_bcbb2cf9a3d3d83e5515c82071a07177 -->
<g id="edge9" class="edge"><title>dir_d3f38a47912c447ca68cc325fcb37be5&#45;&gt;dir_bcbb2cf9a3d3d83e5515c82071a07177</title>
<path fill="none" stroke="black" d="M356.167,-71.8526C360.342,-69.0703 364.728,-66.3386 369,-64 389.824,-52.5998 414.144,-42.2295 434.428,-34.325"/>
<polygon fill="black" stroke="black" points="435.942,-37.4934 444.029,-30.6489 433.438,-30.9563 435.942,-37.4934"/>
<g id="a_edge9&#45;headlabel"><a xlink:href="dir_000028_000000.html" target="_top" xlink:title="18">
<text text-anchor="middle" x="433.6" y="-38.9303" font-family="Helvetica,sans-Serif" font-size="10.00">18</text>
</a>
</g>
</g>
<!-- dir_e5d84f0709a9c6ad9e00d771422a7ef2 -->
<g id="node11" class="node"><title>dir_e5d84f0709a9c6ad9e00d771422a7ef2</title>
<g id="a_node11"><a xlink:href="dir_e5d84f0709a9c6ad9e00d771422a7ef2.html" target="_top" xlink:title="PHOS">
<polygon fill="white" stroke="red" points="288,-108 234,-108 234,-72 288,-72 288,-108"/>
<text text-anchor="middle" x="261" y="-87.5" font-family="Helvetica,sans-Serif" font-size="10.00">PHOS</text>
</a>
</g>
</g>
<!-- dir_e5d84f0709a9c6ad9e00d771422a7ef2&#45;&gt;dir_bcbb2cf9a3d3d83e5515c82071a07177 -->
<g id="edge5" class="edge"><title>dir_e5d84f0709a9c6ad9e00d771422a7ef2&#45;&gt;dir_bcbb2cf9a3d3d83e5515c82071a07177</title>
<path fill="none" stroke="black" d="M283.106,-71.8139C287.539,-68.9042 292.288,-66.1381 297,-64 341.642,-43.7427 396.822,-31.667 434.233,-25.2045"/>
<polygon fill="black" stroke="black" points="435.001,-28.6248 444.289,-23.5284 433.85,-21.72 435.001,-28.6248"/>
<g id="a_edge5&#45;headlabel"><a xlink:href="dir_000032_000000.html" target="_top" xlink:title="14">
<text text-anchor="middle" x="431.922" y="-29.5163" font-family="Helvetica,sans-Serif" font-size="10.00">14</text>
</a>
</g>
</g>
<!-- dir_cc72967e88078b463843b5977855e60d -->
<g id="node12" class="node"><title>dir_cc72967e88078b463843b5977855e60d</title>
<g id="a_node12"><a xlink:href="dir_cc72967e88078b463843b5977855e60d.html" target="_top" xlink:title="Skeleton">
<polygon fill="white" stroke="red" points="215.5,-108 160.5,-108 160.5,-72 215.5,-72 215.5,-108"/>
<text text-anchor="middle" x="188" y="-87.5" font-family="Helvetica,sans-Serif" font-size="10.00">Skeleton</text>
</a>
</g>
</g>
<!-- dir_cc72967e88078b463843b5977855e60d&#45;&gt;dir_bcbb2cf9a3d3d83e5515c82071a07177 -->
<g id="edge8" class="edge"><title>dir_cc72967e88078b463843b5977855e60d&#45;&gt;dir_bcbb2cf9a3d3d83e5515c82071a07177</title>
<path fill="none" stroke="black" d="M210.25,-71.8167C214.926,-68.8341 219.971,-66.0404 225,-64 294.926,-35.6268 382.958,-25.095 434.312,-21.2195"/>
<polygon fill="black" stroke="black" points="434.657,-24.7039 444.386,-20.5096 434.165,-17.7213 434.657,-24.7039"/>
<g id="a_edge8&#45;headlabel"><a xlink:href="dir_000035_000000.html" target="_top" xlink:title="10">
<text text-anchor="middle" x="431.271" y="-25.2888" font-family="Helvetica,sans-Serif" font-size="10.00">10</text>
</a>
</g>
</g>
<!-- dir_d97bc60669e70ebe18802fd5c1c1d939 -->
<g id="node13" class="node"><title>dir_d97bc60669e70ebe18802fd5c1c1d939</title>
<g id="a_node13"><a xlink:href="dir_d97bc60669e70ebe18802fd5c1c1d939.html" target="_top" xlink:title="TOF">
<polygon fill="white" stroke="red" points="142,-108 88,-108 88,-72 142,-72 142,-108"/>
<text text-anchor="middle" x="115" y="-87.5" font-family="Helvetica,sans-Serif" font-size="10.00">TOF</text>
</a>
</g>
</g>
<!-- dir_d97bc60669e70ebe18802fd5c1c1d939&#45;&gt;dir_bcbb2cf9a3d3d83e5515c82071a07177 -->
<g id="edge12" class="edge"><title>dir_d97bc60669e70ebe18802fd5c1c1d939&#45;&gt;dir_bcbb2cf9a3d3d83e5515c82071a07177</title>
<path fill="none" stroke="black" d="M136.788,-71.9154C141.581,-68.8484 146.788,-65.9971 152,-64 248.238,-27.1262 370.779,-19.8962 434.374,-18.8268"/>
<polygon fill="black" stroke="black" points="434.477,-22.3259 444.432,-18.7014 434.389,-15.3264 434.477,-22.3259"/>
<g id="a_edge12&#45;headlabel"><a xlink:href="dir_000038_000000.html" target="_top" xlink:title="32">
<text text-anchor="middle" x="430.918" y="-22.7097" font-family="Helvetica,sans-Serif" font-size="10.00">32</text>
</a>
</g>
</g>
<!-- dir_1daf86e93d49a76fe0702a1348efb120 -->
<g id="node14" class="node"><title>dir_1daf86e93d49a76fe0702a1348efb120</title>
<g id="a_node14"><a xlink:href="dir_1daf86e93d49a76fe0702a1348efb120.html" target="_top" xlink:title="TPC">
<polygon fill="white" stroke="red" points="70,-108 16,-108 16,-72 70,-72 70,-108"/>
<text text-anchor="middle" x="43" y="-87.5" font-family="Helvetica,sans-Serif" font-size="10.00">TPC</text>
</a>
</g>
</g>
<!-- dir_1daf86e93d49a76fe0702a1348efb120&#45;&gt;dir_bcbb2cf9a3d3d83e5515c82071a07177 -->
<g id="edge1" class="edge"><title>dir_1daf86e93d49a76fe0702a1348efb120&#45;&gt;dir_bcbb2cf9a3d3d83e5515c82071a07177</title>
<path fill="none" stroke="black" d="M64.1117,-71.8097C68.781,-68.7503 73.8721,-65.9289 79,-64 143.328,-39.8024 345.614,-26.1432 434.451,-21.1751"/>
<polygon fill="black" stroke="black" points="434.661,-24.669 444.454,-20.6258 434.278,-17.6795 434.661,-24.669"/>
<g id="a_edge1&#45;headlabel"><a xlink:href="dir_000041_000000.html" target="_top" xlink:title="17">
<text text-anchor="middle" x="431.228" y="-25.201" font-family="Helvetica,sans-Serif" font-size="10.00">17</text>
</a>
</g>
</g>
</g>
</svg>
        <g id="navigator" transform="translate(0 0)" fill="#404254">
                <rect fill="#f2f5e9" fill-opacity="0.5" stroke="#606060" stroke-width=".5" x="0" y="0" width="60" height="60"/>
                <use id="zoomplus" xlink:href="#zoomPlus" x="17" y="9" onmousedown="handleZoom(evt,'in')"/>
                <use id="zoomminus" xlink:href="#zoomMin" x="42" y="9" onmousedown="handleZoom(evt,'out')"/>
                <use id="reset" xlink:href="#resetDef" x="30" y="36" onmousedown="handleReset()"/>
                <g id="arrowUp" xlink:href="#dirArrow" transform="translate(30 24)" onmousedown="handlePan(0,-1)">
                  <use xlink:href="#rim" fill="#404040">
                        <set attributeName="fill" to="#808080" begin="arrowUp.mouseover" end="arrowUp.mouseout"/>
                  </use>
                  <path fill="none" stroke="white" stroke-width="1.5" d="M0,-3.0v7 M-2.5,-0.5L0,-3.0L2.5,-0.5"/>
                </g>
                <g id="arrowRight" xlink:href="#dirArrow" transform="rotate(90) translate(36 -43)" onmousedown="handlePan(1,0)">
                  <use xlink:href="#rim" fill="#404040">
                        <set attributeName="fill" to="#808080" begin="arrowRight.mouseover" end="arrowRight.mouseout"/>
                  </use>
                  <path fill="none" stroke="white" stroke-width="1.5" d="M0,-3.0v7 M-2.5,-0.5L0,-3.0L2.5,-0.5"/>
                </g>
                <g id="arrowDown" xlink:href="#dirArrow" transform="rotate(180) translate(-30 -48)" onmousedown="handlePan(0,1)">
                  <use xlink:href="#rim" fill="#404040">
                        <set attributeName="fill" to="#808080" begin="arrowDown.mouseover" end="arrowDown.mouseout"/>
                  </use>
                  <path fill="none" stroke="white" stroke-width="1.5" d="M0,-3.0v7 M-2.5,-0.5L0,-3.0L2.5,-0.5"/>
                </g>
                <g id="arrowLeft" xlink:href="#dirArrow" transform="rotate(270) translate(-36 17)" onmousedown="handlePan(-1,0)">
                  <use xlink:href="#rim" fill="#404040">
                        <set attributeName="fill" to="#808080" begin="arrowLeft.mouseover" end="arrowLeft.mouseout"/>
                  </use>
                  <path fill="none" stroke="white" stroke-width="1.5" d="M0,-3.0v7 M-2.5,-0.5L0,-3.0L2.5,-0.5"/>
                </g>
        </g>
        <svg viewBox="0 0 15 15" width="100%" height="30px" preserveAspectRatio="xMaxYMin meet">
         <g id="arrow_out" transform="scale(0.3 0.3)">
          <a xlink:href="dir_f2541a3b18981391fa76fac5599e978a_dep_org.svg" target="_base">
           <rect id="button" ry="5" rx="5" y="6" x="6" height="38" width="38"
                fill="#f2f5e9" fill-opacity="0.5" stroke="#606060" stroke-width="1.0"/>
           <path id="arrow"
             d="M 11.500037,31.436501 C 11.940474,20.09759 22.043105,11.32322 32.158766,21.979434 L 37.068811,17.246167 C 37.068811,17.246167 37.088388,32 37.088388,32 L 22.160133,31.978069 C 22.160133,31.978069 26.997745,27.140456 26.997745,27.140456 C 18.528582,18.264221 13.291696,25.230495 11.500037,31.436501 z"
             style="fill:#404040;"/>
          </a>
         </g>
        </svg>
</svg>
