<?xml version="1.0" encoding="UTF-8" standalone="no"?>
<!DOCTYPE svg PUBLIC "-//W3C//DTD SVG 1.1//EN"
 "http://www.w3.org/Graphics/SVG/1.1/DTD/svg11.dtd">
<!-- Generated by graphviz version 2.38.0 (20140413.2041)
 -->
<!-- Title: Graphical Class Hierarchy Pages: 1 -->
<svg width="331pt" height="1414pt"
 viewBox="0.00 0.00 331.00 1414.00" xmlns="http://www.w3.org/2000/svg" xmlns:xlink="http://www.w3.org/1999/xlink">
<g id="graph0" class="graph" transform="scale(1 1) rotate(0) translate(4 1410)">
<title>Graphical Class Hierarchy</title>
<!-- Node1 -->
<g id="node1" class="node"><title>Node1</title>
<g id="a_node1"><a xlink:href="classo2_1_1quality__control_1_1core_1_1TaskInterface.html" target="_top" xlink:title="Skeleton of a QC task. ">
<polygon fill="none" stroke="black" points="0,-703.5 0,-733.5 107,-733.5 107,-703.5 0,-703.5"/>
<text text-anchor="start" x="8" y="-721.5" font-family="Helvetica,sans-Serif" font-size="10.00">o2::quality_control</text>
<text text-anchor="middle" x="53.5" y="-710.5" font-family="Helvetica,sans-Serif" font-size="10.00">::core::TaskInterface</text>
</a>
</g>
</g>
<!-- Node2 -->
<g id="node2" class="node"><title>Node2</title>
<g id="a_node2"><a xlink:href="classo2_1_1quality__control_1_1test_1_1TestTask.html" target="_top" xlink:title="o2::quality_control\l::test::TestTask">
<polygon fill="none" stroke="black" points="185,-1375.5 185,-1405.5 281,-1405.5 281,-1375.5 185,-1375.5"/>
<text text-anchor="start" x="193" y="-1393.5" font-family="Helvetica,sans-Serif" font-size="10.00">o2::quality_control</text>
<text text-anchor="middle" x="233" y="-1382.5" font-family="Helvetica,sans-Serif" font-size="10.00">::test::TestTask</text>
</a>
</g>
</g>
<!-- Node1&#45;&gt;Node2 -->
<g id="edge1" class="edge"><title>Node1&#45;&gt;Node2</title>
<path fill="none" stroke="midnightblue" d="M54.3634,-743.836C54.3029,-851.718 59.5135,-1271.61 143,-1366.5 153.571,-1378.51 169.464,-1384.81 184.908,-1388.01"/>
<polygon fill="midnightblue" stroke="midnightblue" points="57.8638,-743.591 54.3864,-733.583 50.8638,-743.575 57.8638,-743.591"/>
</g>
<!-- Node3 -->
<g id="node3" class="node"><title>Node3</title>
<g id="a_node3"><a xlink:href="classo2_1_1quality__control__modules_1_1daq_1_1DaqTask.html" target="_top" xlink:title="Dataflow task It does only look at the header and plots sizes (e.g. payload). It also can print the h...">
<polygon fill="none" stroke="black" points="170,-1326.5 170,-1356.5 296,-1356.5 296,-1326.5 170,-1326.5"/>
<text text-anchor="start" x="178" y="-1344.5" font-family="Helvetica,sans-Serif" font-size="10.00">o2::quality_control</text>
<text text-anchor="middle" x="233" y="-1333.5" font-family="Helvetica,sans-Serif" font-size="10.00">_modules::daq::DaqTask</text>
</a>
</g>
</g>
<!-- Node1&#45;&gt;Node3 -->
<g id="edge2" class="edge"><title>Node1&#45;&gt;Node3</title>
<path fill="none" stroke="midnightblue" d="M54.6737,-743.56C55.8954,-845.863 65.6422,-1230.54 143,-1317.5 150.127,-1325.51 159.619,-1330.97 169.751,-1334.67"/>
<polygon fill="midnightblue" stroke="midnightblue" points="58.1733,-743.493 54.5712,-733.53 51.1737,-743.565 58.1733,-743.493"/>
</g>
<!-- Node4 -->
<g id="node4" class="node"><title>Node4</title>
<g id="a_node4"><a xlink:href="classo2_1_1quality__control__modules_1_1emcal_1_1DigitsQcTask.html" target="_top" xlink:title="QC Task for EMCAL digits. ">
<polygon fill="none" stroke="black" points="154.5,-1277.5 154.5,-1307.5 311.5,-1307.5 311.5,-1277.5 154.5,-1277.5"/>
<text text-anchor="start" x="162.5" y="-1295.5" font-family="Helvetica,sans-Serif" font-size="10.00">o2::quality_control</text>
<text text-anchor="middle" x="233" y="-1284.5" font-family="Helvetica,sans-Serif" font-size="10.00">_modules::emcal::DigitsQcTask</text>
</a>
</g>
</g>
<!-- Node1&#45;&gt;Node4 -->
<g id="edge3" class="edge"><title>Node1&#45;&gt;Node4</title>
<path fill="none" stroke="midnightblue" d="M55.0407,-743.673C57.6383,-840.783 71.8512,-1189.55 143,-1268.5 146.321,-1272.19 150.143,-1275.33 154.296,-1278.01"/>
<polygon fill="midnightblue" stroke="midnightblue" points="58.5377,-743.506 54.7895,-733.596 51.5399,-743.681 58.5377,-743.506"/>
</g>
<!-- Node5 -->
<g id="node5" class="node"><title>Node5</title>
<g id="a_node5"><a xlink:href="classo2_1_1quality__control__modules_1_1emcal_1_1RawTask.html" target="_top" xlink:title="Example Quality Control DPL Task It is final because there is no reason to derive from it...">
<polygon fill="none" stroke="black" points="163.5,-1228.5 163.5,-1258.5 302.5,-1258.5 302.5,-1228.5 163.5,-1228.5"/>
<text text-anchor="start" x="171.5" y="-1246.5" font-family="Helvetica,sans-Serif" font-size="10.00">o2::quality_control</text>
<text text-anchor="middle" x="233" y="-1235.5" font-family="Helvetica,sans-Serif" font-size="10.00">_modules::emcal::RawTask</text>
</a>
</g>
</g>
<!-- Node1&#45;&gt;Node5 -->
<g id="edge4" class="edge"><title>Node1&#45;&gt;Node5</title>
<path fill="none" stroke="midnightblue" d="M55.4807,-743.78C59.5458,-835.419 78.0352,-1148.51 143,-1219.5 148.618,-1225.64 155.626,-1230.27 163.227,-1233.76"/>
<polygon fill="midnightblue" stroke="midnightblue" points="58.9753,-743.576 55.0543,-733.734 51.9816,-743.873 58.9753,-743.576"/>
</g>
<!-- Node6 -->
<g id="node6" class="node"><title>Node6</title>
<g id="a_node6"><a xlink:href="classo2_1_1quality__control__modules_1_1example_1_1BenchmarkTask.html" target="_top" xlink:title="Quality Control Task for benchmarking It publishes a number of TH1F (configurable, see example.ini in module QualityControl). The histos are reset and refilled (1000 random) at EOC. They have 1000 bins. The monitoring of data blocks is empty (sleep 100 ms). ">
<polygon fill="none" stroke="black" points="143.5,-1179.5 143.5,-1209.5 322.5,-1209.5 322.5,-1179.5 143.5,-1179.5"/>
<text text-anchor="start" x="151.5" y="-1197.5" font-family="Helvetica,sans-Serif" font-size="10.00">o2::quality_control</text>
<text text-anchor="middle" x="233" y="-1186.5" font-family="Helvetica,sans-Serif" font-size="10.00">_modules::example::BenchmarkTask</text>
</a>
</g>
</g>
<!-- Node1&#45;&gt;Node6 -->
<g id="edge5" class="edge"><title>Node1&#45;&gt;Node6</title>
<path fill="none" stroke="midnightblue" d="M56.0286,-744.065C61.6863,-830.13 84.2328,-1107.47 143,-1170.5 146.165,-1173.89 149.755,-1176.83 153.633,-1179.36"/>
<polygon fill="midnightblue" stroke="midnightblue" points="59.5088,-743.642 55.3804,-733.884 52.523,-744.086 59.5088,-743.642"/>
</g>
<!-- Node7 -->
<g id="node7" class="node"><title>Node7</title>
<g id="a_node7"><a xlink:href="classo2_1_1quality__control__modules_1_1example_1_1ExampleTask.html" target="_top" xlink:title="Example Quality Control Task It is final because there is no reason to derive from it...">
<polygon fill="none" stroke="black" points="149.5,-1130.5 149.5,-1160.5 316.5,-1160.5 316.5,-1130.5 149.5,-1130.5"/>
<text text-anchor="start" x="157.5" y="-1148.5" font-family="Helvetica,sans-Serif" font-size="10.00">o2::quality_control</text>
<text text-anchor="middle" x="233" y="-1137.5" font-family="Helvetica,sans-Serif" font-size="10.00">_modules::example::ExampleTask</text>
</a>
</g>
</g>
<!-- Node1&#45;&gt;Node7 -->
<g id="edge6" class="edge"><title>Node1&#45;&gt;Node7</title>
<path fill="none" stroke="midnightblue" d="M56.6478,-743.603C63.9312,-822.921 90.2308,-1066.18 143,-1121.5 146.203,-1124.86 149.823,-1127.76 153.723,-1130.28"/>
<polygon fill="midnightblue" stroke="midnightblue" points="60.1243,-743.183 55.7455,-733.536 53.1522,-743.808 60.1243,-743.183"/>
</g>
<!-- Node8 -->
<g id="node8" class="node"><title>Node8</title>
<g id="a_node8"><a xlink:href="classo2_1_1quality__control__modules_1_1ft0_1_1BasicDigitQcTask.html" target="_top" xlink:title="o2::quality_control\l_modules::ft0::BasicDigitQcTask">
<polygon fill="none" stroke="black" points="152.5,-1081.5 152.5,-1111.5 313.5,-1111.5 313.5,-1081.5 152.5,-1081.5"/>
<text text-anchor="start" x="160.5" y="-1099.5" font-family="Helvetica,sans-Serif" font-size="10.00">o2::quality_control</text>
<text text-anchor="middle" x="233" y="-1088.5" font-family="Helvetica,sans-Serif" font-size="10.00">_modules::ft0::BasicDigitQcTask</text>
</a>
</g>
</g>
<!-- Node1&#45;&gt;Node8 -->
<g id="edge7" class="edge"><title>Node1&#45;&gt;Node8</title>
<path fill="none" stroke="midnightblue" d="M57.5044,-743.866C66.6414,-816.817 96.354,-1024.99 143,-1072.5 146.363,-1075.93 150.161,-1078.88 154.244,-1081.42"/>
<polygon fill="midnightblue" stroke="midnightblue" points="60.9537,-743.239 56.2604,-733.74 54.006,-744.093 60.9537,-743.239"/>
</g>
<!-- Node9 -->
<g id="node9" class="node"><title>Node9</title>
<g id="a_node9"><a xlink:href="classo2_1_1quality__control__modules_1_1its_1_1ITSClusterTask.html" target="_top" xlink:title="o2::quality_control\l_modules::its::ITSClusterTask">
<polygon fill="none" stroke="black" points="158,-1032.5 158,-1062.5 308,-1062.5 308,-1032.5 158,-1032.5"/>
<text text-anchor="start" x="166" y="-1050.5" font-family="Helvetica,sans-Serif" font-size="10.00">o2::quality_control</text>
<text text-anchor="middle" x="233" y="-1039.5" font-family="Helvetica,sans-Serif" font-size="10.00">_modules::its::ITSClusterTask</text>
</a>
</g>
</g>
<!-- Node1&#45;&gt;Node9 -->
<g id="edge8" class="edge"><title>Node1&#45;&gt;Node9</title>
<path fill="none" stroke="midnightblue" d="M54.0455,-743.9C54.4481,-802.065 63.8786,-945.869 143,-1023.5 147.341,-1027.76 152.354,-1031.28 157.744,-1034.19"/>
<polygon fill="midnightblue" stroke="midnightblue" points="57.5457,-743.769 54.0639,-733.762 50.5457,-743.756 57.5457,-743.769"/>
</g>
<!-- Node10 -->
<g id="node10" class="node"><title>Node10</title>
<g id="a_node10"><a xlink:href="classo2_1_1quality__control__modules_1_1its_1_1ITSFeeTask.html" target="_top" xlink:title="ITS FEE task aiming at 100% online data integrity checking. ">
<polygon fill="none" stroke="black" points="165.5,-983.5 165.5,-1013.5 300.5,-1013.5 300.5,-983.5 165.5,-983.5"/>
<text text-anchor="start" x="173.5" y="-1001.5" font-family="Helvetica,sans-Serif" font-size="10.00">o2::quality_control</text>
<text text-anchor="middle" x="233" y="-990.5" font-family="Helvetica,sans-Serif" font-size="10.00">_modules::its::ITSFeeTask</text>
</a>
</g>
</g>
<!-- Node1&#45;&gt;Node10 -->
<g id="edge9" class="edge"><title>Node1&#45;&gt;Node10</title>
<path fill="none" stroke="midnightblue" d="M55.7198,-744.014C59.5891,-795.389 75.7253,-911.742 143,-974.5 149.436,-980.504 157.215,-985.036 165.462,-988.451"/>
<polygon fill="midnightblue" stroke="midnightblue" points="59.1971,-743.551 55.0509,-733.801 52.2121,-744.009 59.1971,-743.551"/>
</g>
<!-- Node11 -->
<g id="node11" class="node"><title>Node11</title>
<g id="a_node11"><a xlink:href="classo2_1_1quality__control__modules_1_1its_1_1ITSFhrTask.html" target="_top" xlink:title="ITS Fake&#45;hit rate real&#45;time data processing task Working with the chain of &quot;Detector &#45;&gt; RU &#45;&gt; CRU &#45;&gt; ...">
<polygon fill="none" stroke="black" points="166.5,-934.5 166.5,-964.5 299.5,-964.5 299.5,-934.5 166.5,-934.5"/>
<text text-anchor="start" x="174.5" y="-952.5" font-family="Helvetica,sans-Serif" font-size="10.00">o2::quality_control</text>
<text text-anchor="middle" x="233" y="-941.5" font-family="Helvetica,sans-Serif" font-size="10.00">_modules::its::ITSFhrTask</text>
</a>
</g>
</g>
<!-- Node1&#45;&gt;Node11 -->
<g id="edge10" class="edge"><title>Node1&#45;&gt;Node11</title>
<path fill="none" stroke="midnightblue" d="M58.0537,-743.673C65.5717,-787.335 87.2308,-877.069 143,-925.5 149.767,-931.376 157.831,-935.83 166.303,-939.202"/>
<polygon fill="midnightblue" stroke="midnightblue" points="61.48,-742.934 56.4349,-733.618 54.569,-744.047 61.48,-742.934"/>
</g>
<!-- Node12 -->
<g id="node12" class="node"><title>Node12</title>
<g id="a_node12"><a xlink:href="classo2_1_1quality__control__modules_1_1its_1_1ITSRawTask.html" target="_top" xlink:title="o2::quality_control\l_modules::its::ITSRawTask">
<polygon fill="none" stroke="black" points="163.5,-885.5 163.5,-915.5 302.5,-915.5 302.5,-885.5 163.5,-885.5"/>
<text text-anchor="start" x="171.5" y="-903.5" font-family="Helvetica,sans-Serif" font-size="10.00">o2::quality_control</text>
<text text-anchor="middle" x="233" y="-892.5" font-family="Helvetica,sans-Serif" font-size="10.00">_modules::its::ITSRawTask</text>
</a>
</g>
</g>
<!-- Node1&#45;&gt;Node12 -->
<g id="edge11" class="edge"><title>Node1&#45;&gt;Node12</title>
<path fill="none" stroke="midnightblue" d="M61.743,-743.673C73.1581,-778.78 98.719,-842.005 143,-876.5 149.06,-881.221 155.976,-885.015 163.215,-888.064"/>
<polygon fill="midnightblue" stroke="midnightblue" points="64.9656,-742.25 58.6495,-733.743 58.2825,-744.332 64.9656,-742.25"/>
</g>
<!-- Node13 -->
<g id="node13" class="node"><title>Node13</title>
<g id="a_node13"><a xlink:href="classo2_1_1quality__control__modules_1_1its_1_1ITSTrackTask.html" target="_top" xlink:title="o2::quality_control\l_modules::its::ITSTrackTask">
<polygon fill="none" stroke="black" points="161.5,-836.5 161.5,-866.5 304.5,-866.5 304.5,-836.5 161.5,-836.5"/>
<text text-anchor="start" x="169.5" y="-854.5" font-family="Helvetica,sans-Serif" font-size="10.00">o2::quality_control</text>
<text text-anchor="middle" x="233" y="-843.5" font-family="Helvetica,sans-Serif" font-size="10.00">_modules::its::ITSTrackTask</text>
</a>
</g>
</g>
<!-- Node1&#45;&gt;Node13 -->
<g id="edge12" class="edge"><title>Node1&#45;&gt;Node13</title>
<path fill="none" stroke="midnightblue" d="M67.818,-742.562C82.8615,-767.51 109.649,-805.834 143,-827.5 148.636,-831.162 154.819,-834.268 161.217,-836.902"/>
<polygon fill="midnightblue" stroke="midnightblue" points="70.7122,-740.578 62.6383,-733.718 64.6719,-744.116 70.7122,-740.578"/>
</g>
<!-- Node14 -->
<g id="node14" class="node"><title>Node14</title>
<g id="a_node14"><a xlink:href="classo2_1_1quality__control__modules_1_1mft_1_1BasicClusterQcTask.html" target="_top" xlink:title="MFT Cluster QC task. ">
<polygon fill="none" stroke="black" points="162.5,-777 162.5,-818 303.5,-818 303.5,-777 162.5,-777"/>
<text text-anchor="start" x="170.5" y="-806" font-family="Helvetica,sans-Serif" font-size="10.00">o2::quality_control</text>
<text text-anchor="start" x="170.5" y="-795" font-family="Helvetica,sans-Serif" font-size="10.00">_modules::mft::BasicCluster</text>
<text text-anchor="middle" x="233" y="-784" font-family="Helvetica,sans-Serif" font-size="10.00">QcTask</text>
</a>
</g>
</g>
<!-- Node1&#45;&gt;Node14 -->
<g id="edge13" class="edge"><title>Node1&#45;&gt;Node14</title>
<path fill="none" stroke="midnightblue" d="M86.9083,-738.872C103.316,-748.647 123.784,-760.042 143,-768.5 149.693,-771.446 156.783,-774.252 163.924,-776.877"/>
<polygon fill="midnightblue" stroke="midnightblue" points="88.6136,-735.813 78.2447,-733.636 84.9931,-741.804 88.6136,-735.813"/>
</g>
<!-- Node15 -->
<g id="node15" class="node"><title>Node15</title>
<g id="a_node15"><a xlink:href="classo2_1_1quality__control__modules_1_1mft_1_1BasicDigitQcTask.html" target="_top" xlink:title="MFT Digit QC task. ">
<polygon fill="none" stroke="black" points="151,-728.5 151,-758.5 315,-758.5 315,-728.5 151,-728.5"/>
<text text-anchor="start" x="159" y="-746.5" font-family="Helvetica,sans-Serif" font-size="10.00">o2::quality_control</text>
<text text-anchor="middle" x="233" y="-735.5" font-family="Helvetica,sans-Serif" font-size="10.00">_modules::mft::BasicDigitQcTask</text>
</a>
</g>
</g>
<!-- Node1&#45;&gt;Node15 -->
<g id="edge14" class="edge"><title>Node1&#45;&gt;Node15</title>
<path fill="none" stroke="midnightblue" d="M117.443,-727.365C128.252,-728.888 139.619,-730.489 150.825,-732.067"/>
<polygon fill="midnightblue" stroke="midnightblue" points="117.666,-723.862 107.275,-725.933 116.689,-730.794 117.666,-723.862"/>
</g>
<!-- Node16 -->
<g id="node16" class="node"><title>Node16</title>
<g id="a_node16"><a xlink:href="classo2_1_1quality__control__modules_1_1mft_1_1BasicTrackQcTask.html" target="_top" xlink:title="MFT Track QC task. ">
<polygon fill="none" stroke="black" points="148.5,-679.5 148.5,-709.5 317.5,-709.5 317.5,-679.5 148.5,-679.5"/>
<text text-anchor="start" x="156.5" y="-697.5" font-family="Helvetica,sans-Serif" font-size="10.00">o2::quality_control</text>
<text text-anchor="middle" x="233" y="-686.5" font-family="Helvetica,sans-Serif" font-size="10.00">_modules::mft::BasicTrackQcTask</text>
</a>
</g>
</g>
<!-- Node1&#45;&gt;Node16 -->
<g id="edge15" class="edge"><title>Node1&#45;&gt;Node16</title>
<path fill="none" stroke="midnightblue" d="M117.453,-709.988C127.407,-708.642 137.835,-707.232 148.174,-705.834"/>
<polygon fill="midnightblue" stroke="midnightblue" points="116.716,-706.556 107.275,-711.364 117.654,-713.493 116.716,-706.556"/>
</g>
<!-- Node17 -->
<g id="node17" class="node"><title>Node17</title>
<g id="a_node17"><a xlink:href="classo2_1_1quality__control__modules_1_1mid_1_1RawQcTask.html" target="_top" xlink:title="Count number of digits per detector elements. ">
<polygon fill="none" stroke="black" points="162.5,-630.5 162.5,-660.5 303.5,-660.5 303.5,-630.5 162.5,-630.5"/>
<text text-anchor="start" x="170.5" y="-648.5" font-family="Helvetica,sans-Serif" font-size="10.00">o2::quality_control</text>
<text text-anchor="middle" x="233" y="-637.5" font-family="Helvetica,sans-Serif" font-size="10.00">_modules::mid::RawQcTask</text>
</a>
</g>
</g>
<!-- Node1&#45;&gt;Node17 -->
<g id="edge16" class="edge"><title>Node1&#45;&gt;Node17</title>
<path fill="none" stroke="midnightblue" d="M88.0155,-698.021C104.212,-688.728 124.18,-678.135 143,-670.5 152.072,-666.82 161.874,-663.474 171.543,-660.512"/>
<polygon fill="midnightblue" stroke="midnightblue" points="85.8251,-695.246 78.9522,-703.31 89.3532,-701.292 85.8251,-695.246"/>
</g>
<!-- Node18 -->
<g id="node18" class="node"><title>Node18</title>
<g id="a_node18"><a xlink:href="classo2_1_1quality__control__modules_1_1muonchambers_1_1PedestalsTask.html" target="_top" xlink:title="Quality Control Task for the analysis of MCH pedestal data. ">
<polygon fill="none" stroke="black" points="167.5,-571 167.5,-612 298.5,-612 298.5,-571 167.5,-571"/>
<text text-anchor="start" x="175.5" y="-600" font-family="Helvetica,sans-Serif" font-size="10.00">o2::quality_control</text>
<text text-anchor="start" x="175.5" y="-589" font-family="Helvetica,sans-Serif" font-size="10.00">_modules::muonchambers</text>
<text text-anchor="middle" x="233" y="-578" font-family="Helvetica,sans-Serif" font-size="10.00">::PedestalsTask</text>
</a>
</g>
</g>
<!-- Node1&#45;&gt;Node18 -->
<g id="edge17" class="edge"><title>Node1&#45;&gt;Node18</title>
<path fill="none" stroke="midnightblue" d="M70.6917,-694.743C86.7188,-672.884 113.133,-640.989 143,-621.5 150.511,-616.599 158.902,-612.419 167.449,-608.877"/>
<polygon fill="midnightblue" stroke="midnightblue" points="67.6502,-692.979 64.6768,-703.148 73.3428,-697.053 67.6502,-692.979"/>
</g>
<!-- Node19 -->
<g id="node19" class="node"><title>Node19</title>
<g id="a_node19"><a xlink:href="classo2_1_1quality__control__modules_1_1muonchambers_1_1PhysicsTaskDigits.html" target="_top" xlink:title="Quality Control Task for the analysis of MCH physics data. ">
<polygon fill="none" stroke="black" points="167.5,-511 167.5,-552 298.5,-552 298.5,-511 167.5,-511"/>
<text text-anchor="start" x="175.5" y="-540" font-family="Helvetica,sans-Serif" font-size="10.00">o2::quality_control</text>
<text text-anchor="start" x="175.5" y="-529" font-family="Helvetica,sans-Serif" font-size="10.00">_modules::muonchambers</text>
<text text-anchor="middle" x="233" y="-518" font-family="Helvetica,sans-Serif" font-size="10.00">::PhysicsTaskDigits</text>
</a>
</g>
</g>
<!-- Node1&#45;&gt;Node19 -->
<g id="edge18" class="edge"><title>Node1&#45;&gt;Node19</title>
<path fill="none" stroke="midnightblue" d="M62.2663,-693.327C74.1766,-658.78 100.183,-596.933 143,-561.5 150.16,-555.575 158.544,-550.8 167.252,-546.959"/>
<polygon fill="midnightblue" stroke="midnightblue" points="58.8467,-692.52 59.0195,-703.113 65.4905,-694.724 58.8467,-692.52"/>
</g>
<!-- Node20 -->
<g id="node20" class="node"><title>Node20</title>
<g id="a_node20"><a xlink:href="classo2_1_1quality__control__modules_1_1muonchambers_1_1PhysicsTaskPreclusters.html" target="_top" xlink:title="Quality Control Task for the analysis of MCH physics data. ">
<polygon fill="none" stroke="black" points="167.5,-451 167.5,-492 298.5,-492 298.5,-451 167.5,-451"/>
<text text-anchor="start" x="175.5" y="-480" font-family="Helvetica,sans-Serif" font-size="10.00">o2::quality_control</text>
<text text-anchor="start" x="175.5" y="-469" font-family="Helvetica,sans-Serif" font-size="10.00">_modules::muonchambers</text>
<text text-anchor="middle" x="233" y="-458" font-family="Helvetica,sans-Serif" font-size="10.00">::PhysicsTaskPreclusters</text>
</a>
</g>
</g>
<!-- Node1&#45;&gt;Node20 -->
<g id="edge19" class="edge"><title>Node1&#45;&gt;Node20</title>
<path fill="none" stroke="midnightblue" d="M57.8454,-693.441C65.1339,-648.634 86.5751,-554.524 143,-501.5 150.011,-494.912 158.517,-489.767 167.457,-485.75"/>
<polygon fill="midnightblue" stroke="midnightblue" points="54.3639,-693.056 56.3195,-703.468 61.2842,-694.109 54.3639,-693.056"/>
</g>
<!-- Node21 -->
<g id="node21" class="node"><title>Node21</title>
<g id="a_node21"><a xlink:href="classo2_1_1quality__control__modules_1_1phos_1_1DigitsQcTask.html" target="_top" xlink:title="QC Task for PHOS digits. ">
<polygon fill="none" stroke="black" points="157,-402.5 157,-432.5 309,-432.5 309,-402.5 157,-402.5"/>
<text text-anchor="start" x="165" y="-420.5" font-family="Helvetica,sans-Serif" font-size="10.00">o2::quality_control</text>
<text text-anchor="middle" x="233" y="-409.5" font-family="Helvetica,sans-Serif" font-size="10.00">_modules::phos::DigitsQcTask</text>
</a>
</g>
</g>
<!-- Node1&#45;&gt;Node21 -->
<g id="edge20" class="edge"><title>Node1&#45;&gt;Node21</title>
<path fill="none" stroke="midnightblue" d="M54.9267,-693.196C57.2596,-638.923 70.593,-510.661 143,-441.5 147.05,-437.631 151.657,-434.372 156.592,-431.627"/>
<polygon fill="midnightblue" stroke="midnightblue" points="51.4245,-693.204 54.5854,-703.316 58.4206,-693.439 51.4245,-693.204"/>
</g>
<!-- Node22 -->
<g id="node22" class="node"><title>Node22</title>
<g id="a_node22"><a xlink:href="classo2_1_1quality__control__modules_1_1phos_1_1RawTask.html" target="_top" xlink:title="PHOS Quality Control DPL Task. ">
<polygon fill="none" stroke="black" points="166,-353.5 166,-383.5 300,-383.5 300,-353.5 166,-353.5"/>
<text text-anchor="start" x="174" y="-371.5" font-family="Helvetica,sans-Serif" font-size="10.00">o2::quality_control</text>
<text text-anchor="middle" x="233" y="-360.5" font-family="Helvetica,sans-Serif" font-size="10.00">_modules::phos::RawTask</text>
</a>
</g>
</g>
<!-- Node1&#45;&gt;Node22 -->
<g id="edge21" class="edge"><title>Node1&#45;&gt;Node22</title>
<path fill="none" stroke="midnightblue" d="M58.0971,-693.411C68.4065,-624.88 100.095,-436.749 143,-393.5 149.443,-387.006 157.429,-382.164 165.951,-378.561"/>
<polygon fill="midnightblue" stroke="midnightblue" points="54.6291,-692.938 56.6276,-703.342 61.5537,-693.962 54.6291,-692.938"/>
</g>
<!-- Node23 -->
<g id="node23" class="node"><title>Node23</title>
<g id="a_node23"><a xlink:href="classo2_1_1quality__control__modules_1_1skeleton_1_1SkeletonTask.html" target="_top" xlink:title="Example Quality Control DPL Task. ">
<polygon fill="none" stroke="black" points="179.5,-294 179.5,-335 286.5,-335 286.5,-294 179.5,-294"/>
<text text-anchor="start" x="187.5" y="-323" font-family="Helvetica,sans-Serif" font-size="10.00">o2::quality_control</text>
<text text-anchor="start" x="187.5" y="-312" font-family="Helvetica,sans-Serif" font-size="10.00">_modules::skeleton::</text>
<text text-anchor="middle" x="233" y="-301" font-family="Helvetica,sans-Serif" font-size="10.00">SkeletonTask</text>
</a>
</g>
</g>
<!-- Node1&#45;&gt;Node23 -->
<g id="edge22" class="edge"><title>Node1&#45;&gt;Node23</title>
<path fill="none" stroke="midnightblue" d="M57.2728,-693.354C66.0444,-618.105 95.4522,-396.676 143,-344.5 152.555,-334.015 165.895,-327.191 179.343,-322.752"/>
<polygon fill="midnightblue" stroke="midnightblue" points="53.7877,-693.025 56.1287,-703.358 60.7424,-693.821 53.7877,-693.025"/>
</g>
<!-- Node24 -->
<g id="node24" class="node"><title>Node24</title>
<g id="a_node24"><a xlink:href="classo2_1_1quality__control__modules_1_1tof_1_1TaskCompressedData.html" target="_top" xlink:title="TOF Quality Control DPL Task for TOF Compressed data. ">
<polygon fill="none" stroke="black" points="143,-245.5 143,-275.5 323,-275.5 323,-245.5 143,-245.5"/>
<text text-anchor="start" x="151" y="-263.5" font-family="Helvetica,sans-Serif" font-size="10.00">o2::quality_control</text>
<text text-anchor="middle" x="233" y="-252.5" font-family="Helvetica,sans-Serif" font-size="10.00">_modules::tof::TaskCompressedData</text>
</a>
</g>
</g>
<!-- Node1&#45;&gt;Node24 -->
<g id="edge23" class="edge"><title>Node1&#45;&gt;Node24</title>
<path fill="none" stroke="midnightblue" d="M56.2399,-693.134C62.4786,-609.552 86.4325,-344.702 143,-284.5 146.178,-281.118 149.778,-278.194 153.664,-275.668"/>
<polygon fill="midnightblue" stroke="midnightblue" points="52.738,-693.034 55.5053,-703.261 59.7197,-693.541 52.738,-693.034"/>
</g>
<!-- Node25 -->
<g id="node25" class="node"><title>Node25</title>
<g id="a_node25"><a xlink:href="classo2_1_1quality__control__modules_1_1tof_1_1TaskDiagnostics.html" target="_top" xlink:title="TOF Quality Control DPL Task for TOF Compressed data. ">
<polygon fill="none" stroke="black" points="155.5,-196.5 155.5,-226.5 310.5,-226.5 310.5,-196.5 155.5,-196.5"/>
<text text-anchor="start" x="163.5" y="-214.5" font-family="Helvetica,sans-Serif" font-size="10.00">o2::quality_control</text>
<text text-anchor="middle" x="233" y="-203.5" font-family="Helvetica,sans-Serif" font-size="10.00">_modules::tof::TaskDiagnostics</text>
</a>
</g>
</g>
<!-- Node1&#45;&gt;Node25 -->
<g id="edge24" class="edge"><title>Node1&#45;&gt;Node25</title>
<path fill="none" stroke="midnightblue" d="M55.7089,-693.038C60.4701,-603.477 80.8194,-304.699 143,-236.5 146.568,-232.586 150.696,-229.266 155.179,-226.452"/>
<polygon fill="midnightblue" stroke="midnightblue" points="52.2087,-692.955 55.1926,-703.121 59.1995,-693.313 52.2087,-692.955"/>
</g>
<!-- Node26 -->
<g id="node26" class="node"><title>Node26</title>
<g id="a_node26"><a xlink:href="classo2_1_1quality__control__modules_1_1tof_1_1TaskDigits.html" target="_top" xlink:title="TOF Quality Control DPL Task. ">
<polygon fill="none" stroke="black" points="168.5,-147.5 168.5,-177.5 297.5,-177.5 297.5,-147.5 168.5,-147.5"/>
<text text-anchor="start" x="176.5" y="-165.5" font-family="Helvetica,sans-Serif" font-size="10.00">o2::quality_control</text>
<text text-anchor="middle" x="233" y="-154.5" font-family="Helvetica,sans-Serif" font-size="10.00">_modules::tof::TaskDigits</text>
</a>
</g>
</g>
<!-- Node1&#45;&gt;Node26 -->
<g id="edge25" class="edge"><title>Node1&#45;&gt;Node26</title>
<path fill="none" stroke="midnightblue" d="M55.2265,-693.303C58.4716,-598.355 74.6502,-263.714 143,-187.5 149.858,-179.853 158.849,-174.467 168.479,-170.69"/>
<polygon fill="midnightblue" stroke="midnightblue" points="51.7244,-693.315 54.8994,-703.423 58.7207,-693.541 51.7244,-693.315"/>
</g>
<!-- Node27 -->
<g id="node27" class="node"><title>Node27</title>
<g id="a_node27"><a xlink:href="classo2_1_1quality__control__modules_1_1tpc_1_1Clusters.html" target="_top" xlink:title="Example Quality Control DPL Task It is final because there is no reason to derive from it...">
<polygon fill="none" stroke="black" points="172.5,-98.5 172.5,-128.5 293.5,-128.5 293.5,-98.5 172.5,-98.5"/>
<text text-anchor="start" x="180.5" y="-116.5" font-family="Helvetica,sans-Serif" font-size="10.00">o2::quality_control</text>
<text text-anchor="middle" x="233" y="-105.5" font-family="Helvetica,sans-Serif" font-size="10.00">_modules::tpc::Clusters</text>
</a>
</g>
</g>
<!-- Node1&#45;&gt;Node27 -->
<g id="edge26" class="edge"><title>Node1&#45;&gt;Node27</title>
<path fill="none" stroke="midnightblue" d="M54.8356,-693.295C56.6839,-592.88 68.5218,-222.704 143,-138.5 150.762,-129.724 161.334,-123.921 172.483,-120.107"/>
<polygon fill="midnightblue" stroke="midnightblue" points="51.3341,-693.364 54.6671,-703.421 58.3331,-693.481 51.3341,-693.364"/>
</g>
<!-- Node28 -->
<g id="node28" class="node"><title>Node28</title>
<g id="a_node28"><a xlink:href="classo2_1_1quality__control__modules_1_1tpc_1_1PID.html" target="_top" xlink:title="TPC PID QC Task It is final because there is no reason to derive from it. Just remove it if needed...">
<polygon fill="none" stroke="black" points="182.5,-49.5 182.5,-79.5 283.5,-79.5 283.5,-49.5 182.5,-49.5"/>
<text text-anchor="start" x="190.5" y="-67.5" font-family="Helvetica,sans-Serif" font-size="10.00">o2::quality_control</text>
<text text-anchor="middle" x="233" y="-56.5" font-family="Helvetica,sans-Serif" font-size="10.00">_modules::tpc::PID</text>
</a>
</g>
</g>
<!-- Node1&#45;&gt;Node28 -->
<g id="edge27" class="edge"><title>Node1&#45;&gt;Node28</title>
<path fill="none" stroke="midnightblue" d="M54.5043,-693.237C55.0379,-587.503 62.3864,-181.716 143,-89.5 152.929,-78.1417 167.566,-71.754 182.115,-68.218"/>
<polygon fill="midnightblue" stroke="midnightblue" points="51.0042,-693.296 54.4703,-703.308 58.0042,-693.32 51.0042,-693.296"/>
</g>
<!-- Node29 -->
<g id="node29" class="node"><title>Node29</title>
<g id="a_node29"><a xlink:href="classo2_1_1quality__control__modules_1_1tpc_1_1Tracks.html" target="_top" xlink:title="Quality Control DPL Task for QC Module TPC for track related observables. ">
<polygon fill="none" stroke="black" points="176,-0.5 176,-30.5 290,-30.5 290,-0.5 176,-0.5"/>
<text text-anchor="start" x="184" y="-18.5" font-family="Helvetica,sans-Serif" font-size="10.00">o2::quality_control</text>
<text text-anchor="middle" x="233" y="-7.5" font-family="Helvetica,sans-Serif" font-size="10.00">_modules::tpc::Tracks</text>
</a>
</g>
</g>
<!-- Node1&#45;&gt;Node29 -->
<g id="edge28" class="edge"><title>Node1&#45;&gt;Node29</title>
<path fill="none" stroke="midnightblue" d="M54.218,-693.09C53.5074,-582.076 56.2579,-140.732 143,-40.5 151.402,-30.7913 163.244,-24.7091 175.556,-20.935"/>
<polygon fill="midnightblue" stroke="midnightblue" points="50.72,-693.36 54.3002,-703.331 57.7197,-693.303 50.72,-693.36"/>
</g>
</g>
</svg>
