<?xml version="1.0" encoding="UTF-8" standalone="no"?>
<!DOCTYPE svg PUBLIC "-//W3C//DTD SVG 1.1//EN"
 "http://www.w3.org/Graphics/SVG/1.1/DTD/svg11.dtd">
<!-- Generated by graphviz version 2.38.0 (20140413.2041)
 -->
<!-- Title: Graphical Class Hierarchy Pages: 1 -->
<svg width="361pt" height="1386pt"
 viewBox="0.00 0.00 361.00 1385.50" xmlns="http://www.w3.org/2000/svg" xmlns:xlink="http://www.w3.org/1999/xlink">
<g id="graph0" class="graph" transform="scale(1 1) rotate(0) translate(4 1381.5)">
<title>Graphical Class Hierarchy</title>
<!-- Node1 -->
<g id="node1" class="node"><title>Node1</title>
<g id="a_node1"><a xlink:href="classo2_1_1quality__control_1_1checker_1_1CheckInterface.html" target="_top" xlink:title="Skeleton of a check. ">
<polygon fill="none" stroke="black" points="0,-668 0,-698 130,-698 130,-668 0,-668"/>
<text text-anchor="start" x="8" y="-686" font-family="Helvetica,sans-Serif" font-size="10.00">o2::quality_control</text>
<text text-anchor="middle" x="65" y="-675" font-family="Helvetica,sans-Serif" font-size="10.00">::checker::CheckInterface</text>
</a>
</g>
</g>
<!-- Node2 -->
<g id="node2" class="node"><title>Node2</title>
<g id="a_node2"><a xlink:href="classo2_1_1quality__control_1_1test_1_1TestCheck.html" target="_top" xlink:title="o2::quality_control\l::test::TestCheck">
<polygon fill="none" stroke="black" points="211.5,-1347 211.5,-1377 307.5,-1377 307.5,-1347 211.5,-1347"/>
<text text-anchor="start" x="219.5" y="-1365" font-family="Helvetica,sans-Serif" font-size="10.00">o2::quality_control</text>
<text text-anchor="middle" x="259.5" y="-1354" font-family="Helvetica,sans-Serif" font-size="10.00">::test::TestCheck</text>
</a>
</g>
</g>
<!-- Node1&#45;&gt;Node2 -->
<g id="edge1" class="edge"><title>Node1&#45;&gt;Node2</title>
<path fill="none" stroke="midnightblue" d="M66.2762,-708.323C67.9808,-817.021 80.1228,-1242.85 166,-1338 177.449,-1350.69 194.66,-1357.05 211.141,-1360.12"/>
<polygon fill="midnightblue" stroke="midnightblue" points="69.7752,-708.222 66.1349,-698.273 62.7759,-708.321 69.7752,-708.222"/>
</g>
<!-- Node3 -->
<g id="node3" class="node"><title>Node3</title>
<g id="a_node3"><a xlink:href="classo2_1_1quality__control__modules_1_1common_1_1EverIncreasingGraph.html" target="_top" xlink:title="Check whether a plot is empty or not. ">
<polygon fill="none" stroke="black" points="173,-1287.5 173,-1328.5 346,-1328.5 346,-1287.5 173,-1287.5"/>
<text text-anchor="start" x="181" y="-1316.5" font-family="Helvetica,sans-Serif" font-size="10.00">o2::quality_control</text>
<text text-anchor="start" x="181" y="-1305.5" font-family="Helvetica,sans-Serif" font-size="10.00">_modules::common::EverIncreasing</text>
<text text-anchor="middle" x="259.5" y="-1294.5" font-family="Helvetica,sans-Serif" font-size="10.00">Graph</text>
</a>
</g>
</g>
<!-- Node1&#45;&gt;Node3 -->
<g id="edge2" class="edge"><title>Node1&#45;&gt;Node3</title>
<path fill="none" stroke="midnightblue" d="M66.8164,-708.209C70.6192,-810.268 89.7843,-1191.51 166,-1279 168.653,-1282.05 171.622,-1284.78 174.823,-1287.22"/>
<polygon fill="midnightblue" stroke="midnightblue" points="70.3135,-708.061 66.4599,-698.192 63.3179,-708.31 70.3135,-708.061"/>
</g>
<!-- Node4 -->
<g id="node4" class="node"><title>Node4</title>
<g id="a_node4"><a xlink:href="classo2_1_1quality__control__modules_1_1common_1_1MeanIsAbove.html" target="_top" xlink:title="Check whether the mean of the plot is above a certain limit. ">
<polygon fill="none" stroke="black" points="175.5,-1239 175.5,-1269 343.5,-1269 343.5,-1239 175.5,-1239"/>
<text text-anchor="start" x="183.5" y="-1257" font-family="Helvetica,sans-Serif" font-size="10.00">o2::quality_control</text>
<text text-anchor="middle" x="259.5" y="-1246" font-family="Helvetica,sans-Serif" font-size="10.00">_modules::common::MeanIsAbove</text>
</a>
</g>
</g>
<!-- Node1&#45;&gt;Node4 -->
<g id="edge3" class="edge"><title>Node1&#45;&gt;Node4</title>
<path fill="none" stroke="midnightblue" d="M67.1015,-708.085C71.8575,-804.847 93.7744,-1152.3 166,-1230 169.163,-1233.4 172.74,-1236.35 176.604,-1238.9"/>
<polygon fill="midnightblue" stroke="midnightblue" points="70.5952,-707.867 66.6262,-698.044 63.6031,-708.198 70.5952,-707.867"/>
</g>
<!-- Node5 -->
<g id="node5" class="node"><title>Node5</title>
<g id="a_node5"><a xlink:href="classo2_1_1quality__control__modules_1_1common_1_1NonEmpty.html" target="_top" xlink:title="Check whether a plot is empty or not. ">
<polygon fill="none" stroke="black" points="182,-1190 182,-1220 337,-1220 337,-1190 182,-1190"/>
<text text-anchor="start" x="190" y="-1208" font-family="Helvetica,sans-Serif" font-size="10.00">o2::quality_control</text>
<text text-anchor="middle" x="259.5" y="-1197" font-family="Helvetica,sans-Serif" font-size="10.00">_modules::common::NonEmpty</text>
</a>
</g>
</g>
<!-- Node1&#45;&gt;Node5 -->
<g id="edge4" class="edge"><title>Node1&#45;&gt;Node5</title>
<path fill="none" stroke="midnightblue" d="M67.6203,-708.482C73.9591,-800.134 100.056,-1111.28 166,-1181 170.56,-1185.82 175.953,-1189.72 181.808,-1192.87"/>
<polygon fill="midnightblue" stroke="midnightblue" points="71.1071,-708.167 66.9439,-698.424 64.1229,-708.637 71.1071,-708.167"/>
</g>
<!-- Node6 -->
<g id="node6" class="node"><title>Node6</title>
<g id="a_node6"><a xlink:href="classo2_1_1quality__control__modules_1_1emcal_1_1DigitCheck.html" target="_top" xlink:title="Check whether a plot is empty or not. ">
<polygon fill="none" stroke="black" points="186.5,-1141 186.5,-1171 332.5,-1171 332.5,-1141 186.5,-1141"/>
<text text-anchor="start" x="194.5" y="-1159" font-family="Helvetica,sans-Serif" font-size="10.00">o2::quality_control</text>
<text text-anchor="middle" x="259.5" y="-1148" font-family="Helvetica,sans-Serif" font-size="10.00">_modules::emcal::DigitCheck</text>
</a>
</g>
</g>
<!-- Node1&#45;&gt;Node6 -->
<g id="edge5" class="edge"><title>Node1&#45;&gt;Node6</title>
<path fill="none" stroke="midnightblue" d="M68.2221,-708.448C76.2082,-794.113 106.204,-1070.09 166,-1132 171.763,-1137.97 178.803,-1142.52 186.402,-1145.98"/>
<polygon fill="midnightblue" stroke="midnightblue" points="71.6918,-707.955 67.2982,-698.315 64.7207,-708.591 71.6918,-707.955"/>
</g>
<!-- Node7 -->
<g id="node7" class="node"><title>Node7</title>
<g id="a_node7"><a xlink:href="classo2_1_1quality__control__modules_1_1emcal_1_1RawCheck.html" target="_top" xlink:title="EMCAL raw data check It is final because there is no reason to derive from it. Just remove it if need...">
<polygon fill="none" stroke="black" points="186.5,-1092 186.5,-1122 332.5,-1122 332.5,-1092 186.5,-1092"/>
<text text-anchor="start" x="194.5" y="-1110" font-family="Helvetica,sans-Serif" font-size="10.00">o2::quality_control</text>
<text text-anchor="middle" x="259.5" y="-1099" font-family="Helvetica,sans-Serif" font-size="10.00">_modules::emcal::RawCheck</text>
</a>
</g>
</g>
<!-- Node1&#45;&gt;Node7 -->
<g id="edge6" class="edge"><title>Node1&#45;&gt;Node7</title>
<path fill="none" stroke="midnightblue" d="M68.9764,-708.502C78.7495,-787.94 112.338,-1028.86 166,-1083 171.723,-1088.77 178.644,-1093.22 186.094,-1096.63"/>
<polygon fill="midnightblue" stroke="midnightblue" points="72.4302,-707.909 67.7558,-698.401 65.4808,-708.748 72.4302,-707.909"/>
</g>
<!-- Node8 -->
<g id="node8" class="node"><title>Node8</title>
<g id="a_node8"><a xlink:href="classo2_1_1quality__control__modules_1_1example_1_1FakeCheck.html" target="_top" xlink:title="Check whether a plot is empty or not. ">
<polygon fill="none" stroke="black" points="180.5,-1043 180.5,-1073 338.5,-1073 338.5,-1043 180.5,-1043"/>
<text text-anchor="start" x="188.5" y="-1061" font-family="Helvetica,sans-Serif" font-size="10.00">o2::quality_control</text>
<text text-anchor="middle" x="259.5" y="-1050" font-family="Helvetica,sans-Serif" font-size="10.00">_modules::example::FakeCheck</text>
</a>
</g>
</g>
<!-- Node1&#45;&gt;Node8 -->
<g id="edge7" class="edge"><title>Node1&#45;&gt;Node8</title>
<path fill="none" stroke="midnightblue" d="M65.2614,-708.311C64.8378,-772.54 73.0104,-943.187 166,-1034 170.273,-1038.17 175.174,-1041.65 180.44,-1044.54"/>
<polygon fill="midnightblue" stroke="midnightblue" points="68.7615,-708.317 65.4064,-698.268 61.7623,-708.216 68.7615,-708.317"/>
</g>
<!-- Node9 -->
<g id="node9" class="node"><title>Node9</title>
<g id="a_node9"><a xlink:href="classo2_1_1quality__control__modules_1_1ft0_1_1ChannelsCheck.html" target="_top" xlink:title="o2::quality_control\l_modules::ft0::ChannelsCheck">
<polygon fill="none" stroke="black" points="183.5,-994 183.5,-1024 335.5,-1024 335.5,-994 183.5,-994"/>
<text text-anchor="start" x="191.5" y="-1012" font-family="Helvetica,sans-Serif" font-size="10.00">o2::quality_control</text>
<text text-anchor="middle" x="259.5" y="-1001" font-family="Helvetica,sans-Serif" font-size="10.00">_modules::ft0::ChannelsCheck</text>
</a>
</g>
</g>
<!-- Node1&#45;&gt;Node9 -->
<g id="edge8" class="edge"><title>Node1&#45;&gt;Node9</title>
<path fill="none" stroke="midnightblue" d="M66.6401,-708.286C69.524,-766.165 84.9414,-909.115 166,-985 171.087,-989.762 176.994,-993.608 183.316,-996.709"/>
<polygon fill="midnightblue" stroke="midnightblue" points="70.1332,-708.044 66.2245,-698.196 63.1391,-708.332 70.1332,-708.044"/>
</g>
<!-- Node10 -->
<g id="node10" class="node"><title>Node10</title>
<g id="a_node10"><a xlink:href="classo2_1_1quality__control__modules_1_1ft0_1_1DigitsCheck.html" target="_top" xlink:title="o2::quality_control\l_modules::ft0::DigitsCheck">
<polygon fill="none" stroke="black" points="191.5,-945 191.5,-975 327.5,-975 327.5,-945 191.5,-945"/>
<text text-anchor="start" x="199.5" y="-963" font-family="Helvetica,sans-Serif" font-size="10.00">o2::quality_control</text>
<text text-anchor="middle" x="259.5" y="-952" font-family="Helvetica,sans-Serif" font-size="10.00">_modules::ft0::DigitsCheck</text>
</a>
</g>
</g>
<!-- Node1&#45;&gt;Node10 -->
<g id="edge9" class="edge"><title>Node1&#45;&gt;Node10</title>
<path fill="none" stroke="midnightblue" d="M68.5121,-708.35C74.9563,-759.369 96.7825,-874.785 166,-936 173.208,-942.375 181.898,-947.093 191.029,-950.578"/>
<polygon fill="midnightblue" stroke="midnightblue" points="71.9641,-707.733 67.3294,-698.206 65.0112,-708.544 71.9641,-707.733"/>
</g>
<!-- Node11 -->
<g id="node11" class="node"><title>Node11</title>
<g id="a_node11"><a xlink:href="classo2_1_1quality__control__modules_1_1ft0_1_1MergedTreeCheck.html" target="_top" xlink:title="o2::quality_control\l_modules::ft0::MergedTreeCheck">
<polygon fill="none" stroke="black" points="178.5,-896 178.5,-926 340.5,-926 340.5,-896 178.5,-896"/>
<text text-anchor="start" x="186.5" y="-914" font-family="Helvetica,sans-Serif" font-size="10.00">o2::quality_control</text>
<text text-anchor="middle" x="259.5" y="-903" font-family="Helvetica,sans-Serif" font-size="10.00">_modules::ft0::MergedTreeCheck</text>
</a>
</g>
</g>
<!-- Node1&#45;&gt;Node11 -->
<g id="edge10" class="edge"><title>Node1&#45;&gt;Node11</title>
<path fill="none" stroke="midnightblue" d="M71.1724,-708.248C81.3981,-751.585 108.389,-839.987 166,-887 170.242,-890.461 174.927,-893.429 179.871,-895.973"/>
<polygon fill="midnightblue" stroke="midnightblue" points="74.5338,-707.243 68.9254,-698.254 67.7042,-708.779 74.5338,-707.243"/>
</g>
<!-- Node12 -->
<g id="node12" class="node"><title>Node12</title>
<g id="a_node12"><a xlink:href="classo2_1_1quality__control__modules_1_1mft_1_1BasicClusterQcCheck.html" target="_top" xlink:title="MFT Cluster Check. ">
<polygon fill="none" stroke="black" points="189,-836.5 189,-877.5 330,-877.5 330,-836.5 189,-836.5"/>
<text text-anchor="start" x="197" y="-865.5" font-family="Helvetica,sans-Serif" font-size="10.00">o2::quality_control</text>
<text text-anchor="start" x="197" y="-854.5" font-family="Helvetica,sans-Serif" font-size="10.00">_modules::mft::BasicCluster</text>
<text text-anchor="middle" x="259.5" y="-843.5" font-family="Helvetica,sans-Serif" font-size="10.00">QcCheck</text>
</a>
</g>
</g>
<!-- Node1&#45;&gt;Node12 -->
<g id="edge11" class="edge"><title>Node1&#45;&gt;Node12</title>
<path fill="none" stroke="midnightblue" d="M76.642,-707.144C91.9204,-739.097 123.037,-795.098 166,-827 172.913,-832.133 180.742,-836.411 188.849,-839.972"/>
<polygon fill="midnightblue" stroke="midnightblue" points="79.8045,-705.644 72.4134,-698.053 73.4575,-708.597 79.8045,-705.644"/>
</g>
<!-- Node13 -->
<g id="node13" class="node"><title>Node13</title>
<g id="a_node13"><a xlink:href="classo2_1_1quality__control__modules_1_1mft_1_1BasicDigitQcCheck.html" target="_top" xlink:title="MFT Digit Check. ">
<polygon fill="none" stroke="black" points="188,-776.5 188,-817.5 331,-817.5 331,-776.5 188,-776.5"/>
<text text-anchor="start" x="196" y="-805.5" font-family="Helvetica,sans-Serif" font-size="10.00">o2::quality_control</text>
<text text-anchor="start" x="196" y="-794.5" font-family="Helvetica,sans-Serif" font-size="10.00">_modules::mft::BasicDigitQc</text>
<text text-anchor="middle" x="259.5" y="-783.5" font-family="Helvetica,sans-Serif" font-size="10.00">Check</text>
</a>
</g>
</g>
<!-- Node1&#45;&gt;Node13 -->
<g id="edge12" class="edge"><title>Node1&#45;&gt;Node13</title>
<path fill="none" stroke="midnightblue" d="M87.4909,-705.361C106.578,-724.1 136.022,-750.383 166,-767 172.792,-770.765 180.13,-774.146 187.598,-777.158"/>
<polygon fill="midnightblue" stroke="midnightblue" points="89.7641,-702.684 80.2172,-698.09 84.8154,-707.635 89.7641,-702.684"/>
</g>
<!-- Node14 -->
<g id="node14" class="node"><title>Node14</title>
<g id="a_node14"><a xlink:href="classo2_1_1quality__control__modules_1_1mft_1_1BasicTrackQcCheck.html" target="_top" xlink:title="MFT Track Check. ">
<polygon fill="none" stroke="black" points="186,-716.5 186,-757.5 333,-757.5 333,-716.5 186,-716.5"/>
<text text-anchor="start" x="194" y="-745.5" font-family="Helvetica,sans-Serif" font-size="10.00">o2::quality_control</text>
<text text-anchor="start" x="194" y="-734.5" font-family="Helvetica,sans-Serif" font-size="10.00">_modules::mft::BasicTrackQc</text>
<text text-anchor="middle" x="259.5" y="-723.5" font-family="Helvetica,sans-Serif" font-size="10.00">Check</text>
</a>
</g>
</g>
<!-- Node1&#45;&gt;Node14 -->
<g id="edge13" class="edge"><title>Node1&#45;&gt;Node14</title>
<path fill="none" stroke="midnightblue" d="M129.434,-700.795C147.453,-705.849 167.216,-711.393 185.741,-716.59"/>
<polygon fill="midnightblue" stroke="midnightblue" points="130.196,-697.373 119.622,-698.042 128.305,-704.113 130.196,-697.373"/>
</g>
<!-- Node15 -->
<g id="node15" class="node"><title>Node15</title>
<g id="a_node15"><a xlink:href="classo2_1_1quality__control__modules_1_1mid_1_1RawQcCheck.html" target="_top" xlink:title="Count number of digits per detector elements. ">
<polygon fill="none" stroke="black" points="185.5,-668 185.5,-698 333.5,-698 333.5,-668 185.5,-668"/>
<text text-anchor="start" x="193.5" y="-686" font-family="Helvetica,sans-Serif" font-size="10.00">o2::quality_control</text>
<text text-anchor="middle" x="259.5" y="-675" font-family="Helvetica,sans-Serif" font-size="10.00">_modules::mid::RawQcCheck</text>
</a>
</g>
</g>
<!-- Node1&#45;&gt;Node15 -->
<g id="edge14" class="edge"><title>Node1&#45;&gt;Node15</title>
<path fill="none" stroke="midnightblue" d="M140.221,-683C155.037,-683 170.589,-683 185.368,-683"/>
<polygon fill="midnightblue" stroke="midnightblue" points="140.1,-679.5 130.1,-683 140.1,-686.5 140.1,-679.5"/>
</g>
<!-- Node16 -->
<g id="node16" class="node"><title>Node16</title>
<g id="a_node16"><a xlink:href="classo2_1_1quality__control__modules_1_1muonchambers_1_1PedestalsCheck.html" target="_top" xlink:title="Check whether a plot is empty or not. ">
<polygon fill="none" stroke="black" points="194,-608.5 194,-649.5 325,-649.5 325,-608.5 194,-608.5"/>
<text text-anchor="start" x="202" y="-637.5" font-family="Helvetica,sans-Serif" font-size="10.00">o2::quality_control</text>
<text text-anchor="start" x="202" y="-626.5" font-family="Helvetica,sans-Serif" font-size="10.00">_modules::muonchambers</text>
<text text-anchor="middle" x="259.5" y="-615.5" font-family="Helvetica,sans-Serif" font-size="10.00">::PedestalsCheck</text>
</a>
</g>
</g>
<!-- Node1&#45;&gt;Node16 -->
<g id="edge15" class="edge"><title>Node1&#45;&gt;Node16</title>
<path fill="none" stroke="midnightblue" d="M129.278,-665.249C150.007,-659.434 173.057,-652.968 193.884,-647.126"/>
<polygon fill="midnightblue" stroke="midnightblue" points="128.305,-661.887 119.622,-667.958 130.196,-668.627 128.305,-661.887"/>
</g>
<!-- Node17 -->
<g id="node17" class="node"><title>Node17</title>
<g id="a_node17"><a xlink:href="classo2_1_1quality__control__modules_1_1muonchambers_1_1PhysicsCheck.html" target="_top" xlink:title="Check if the occupancy on each pad is between the two specified values. ">
<polygon fill="none" stroke="black" points="194,-548.5 194,-589.5 325,-589.5 325,-548.5 194,-548.5"/>
<text text-anchor="start" x="202" y="-577.5" font-family="Helvetica,sans-Serif" font-size="10.00">o2::quality_control</text>
<text text-anchor="start" x="202" y="-566.5" font-family="Helvetica,sans-Serif" font-size="10.00">_modules::muonchambers</text>
<text text-anchor="middle" x="259.5" y="-555.5" font-family="Helvetica,sans-Serif" font-size="10.00">::PhysicsCheck</text>
</a>
</g>
</g>
<!-- Node1&#45;&gt;Node17 -->
<g id="edge16" class="edge"><title>Node1&#45;&gt;Node17</title>
<path fill="none" stroke="midnightblue" d="M87.4909,-660.639C106.578,-641.9 136.022,-615.617 166,-599 174.712,-594.171 184.321,-589.974 193.952,-586.375"/>
<polygon fill="midnightblue" stroke="midnightblue" points="84.8154,-658.365 80.2172,-667.91 89.7641,-663.316 84.8154,-658.365"/>
</g>
<!-- Node18 -->
<g id="node18" class="node"><title>Node18</title>
<g id="a_node18"><a xlink:href="classo2_1_1quality__control__modules_1_1phos_1_1DigitCheck.html" target="_top" xlink:title="Check mos: appearence of dead regions in occupancy plots, mean and RMS etc. ">
<polygon fill="none" stroke="black" points="189.5,-500 189.5,-530 329.5,-530 329.5,-500 189.5,-500"/>
<text text-anchor="start" x="197.5" y="-518" font-family="Helvetica,sans-Serif" font-size="10.00">o2::quality_control</text>
<text text-anchor="middle" x="259.5" y="-507" font-family="Helvetica,sans-Serif" font-size="10.00">_modules::phos::DigitCheck</text>
</a>
</g>
</g>
<!-- Node1&#45;&gt;Node18 -->
<g id="edge17" class="edge"><title>Node1&#45;&gt;Node18</title>
<path fill="none" stroke="midnightblue" d="M76.3671,-658.474C91.3353,-626.09 122.103,-569.604 166,-539 173.077,-534.066 181.096,-530.146 189.381,-527.032"/>
<polygon fill="midnightblue" stroke="midnightblue" points="73.1303,-657.138 72.232,-667.695 79.5175,-660.002 73.1303,-657.138"/>
</g>
<!-- Node19 -->
<g id="node19" class="node"><title>Node19</title>
<g id="a_node19"><a xlink:href="classo2_1_1quality__control__modules_1_1phos_1_1RawCheck.html" target="_top" xlink:title="PHOS raw data check It is final because there is no reason to derive from it. Just remove it if neede...">
<polygon fill="none" stroke="black" points="189.5,-451 189.5,-481 329.5,-481 329.5,-451 189.5,-451"/>
<text text-anchor="start" x="197.5" y="-469" font-family="Helvetica,sans-Serif" font-size="10.00">o2::quality_control</text>
<text text-anchor="middle" x="259.5" y="-458" font-family="Helvetica,sans-Serif" font-size="10.00">_modules::phos::RawCheck</text>
</a>
</g>
</g>
<!-- Node1&#45;&gt;Node19 -->
<g id="edge18" class="edge"><title>Node1&#45;&gt;Node19</title>
<path fill="none" stroke="midnightblue" d="M71.9877,-658.104C83.1951,-616.966 111.307,-534.984 166,-491 172.871,-485.475 180.861,-481.166 189.213,-477.806"/>
<polygon fill="midnightblue" stroke="midnightblue" points="68.5786,-657.307 69.4389,-667.867 75.3516,-659.076 68.5786,-657.307"/>
</g>
<!-- Node20 -->
<g id="node20" class="node"><title>Node20</title>
<g id="a_node20"><a xlink:href="classo2_1_1quality__control__modules_1_1skeleton_1_1SkeletonCheck.html" target="_top" xlink:title="Example QC Check. ">
<polygon fill="none" stroke="black" points="206,-391.5 206,-432.5 313,-432.5 313,-391.5 206,-391.5"/>
<text text-anchor="start" x="214" y="-420.5" font-family="Helvetica,sans-Serif" font-size="10.00">o2::quality_control</text>
<text text-anchor="start" x="214" y="-409.5" font-family="Helvetica,sans-Serif" font-size="10.00">_modules::skeleton::</text>
<text text-anchor="middle" x="259.5" y="-398.5" font-family="Helvetica,sans-Serif" font-size="10.00">SkeletonCheck</text>
</a>
</g>
</g>
<!-- Node1&#45;&gt;Node20 -->
<g id="edge19" class="edge"><title>Node1&#45;&gt;Node20</title>
<path fill="none" stroke="midnightblue" d="M69.4134,-657.809C77.3372,-609.1 101.486,-501.567 166,-442 177.039,-431.807 191.583,-425.076 205.86,-420.63"/>
<polygon fill="midnightblue" stroke="midnightblue" points="65.9368,-657.391 67.8836,-667.805 72.8562,-658.45 65.9368,-657.391"/>
</g>
<!-- Node21 -->
<g id="node21" class="node"><title>Node21</title>
<g id="a_node21"><a xlink:href="classo2_1_1quality__control__modules_1_1tof_1_1CheckCompressedData.html" target="_top" xlink:title="Checker for the data produced by the TOF compressor (i.e. checking raw data) ">
<polygon fill="none" stroke="black" points="166,-343 166,-373 353,-373 353,-343 166,-343"/>
<text text-anchor="start" x="174" y="-361" font-family="Helvetica,sans-Serif" font-size="10.00">o2::quality_control</text>
<text text-anchor="middle" x="259.5" y="-350" font-family="Helvetica,sans-Serif" font-size="10.00">_modules::tof::CheckCompressedData</text>
</a>
</g>
</g>
<!-- Node1&#45;&gt;Node21 -->
<g id="edge20" class="edge"><title>Node1&#45;&gt;Node21</title>
<path fill="none" stroke="midnightblue" d="M66.6683,-657.795C69.6117,-600.104 85.1458,-457.619 166,-382 169.635,-378.6 173.689,-375.668 178.012,-373.14"/>
<polygon fill="midnightblue" stroke="midnightblue" points="63.1688,-657.713 66.242,-667.853 70.1625,-658.01 63.1688,-657.713"/>
</g>
<!-- Node22 -->
<g id="node22" class="node"><title>Node22</title>
<g id="a_node22"><a xlink:href="classo2_1_1quality__control__modules_1_1tof_1_1CheckDiagnostics.html" target="_top" xlink:title="Checker for diagnostic histogram of TOF Raw data. ">
<polygon fill="none" stroke="black" points="178.5,-294 178.5,-324 340.5,-324 340.5,-294 178.5,-294"/>
<text text-anchor="start" x="186.5" y="-312" font-family="Helvetica,sans-Serif" font-size="10.00">o2::quality_control</text>
<text text-anchor="middle" x="259.5" y="-301" font-family="Helvetica,sans-Serif" font-size="10.00">_modules::tof::CheckDiagnostics</text>
</a>
</g>
</g>
<!-- Node1&#45;&gt;Node22 -->
<g id="edge21" class="edge"><title>Node1&#45;&gt;Node22</title>
<path fill="none" stroke="midnightblue" d="M65.3645,-657.489C65.2234,-593.443 74.0797,-424.543 166,-334 169.911,-330.148 174.351,-326.873 179.118,-324.091"/>
<polygon fill="midnightblue" stroke="midnightblue" points="61.8683,-657.888 65.4712,-667.851 68.8679,-657.816 61.8683,-657.888"/>
</g>
<!-- Node23 -->
<g id="node23" class="node"><title>Node23</title>
<g id="a_node23"><a xlink:href="classo2_1_1quality__control__modules_1_1tof_1_1CheckRawMultiplicity.html" target="_top" xlink:title="Check whether a plot is empty or not. ">
<polygon fill="none" stroke="black" points="171,-245 171,-275 348,-275 348,-245 171,-245"/>
<text text-anchor="start" x="179" y="-263" font-family="Helvetica,sans-Serif" font-size="10.00">o2::quality_control</text>
<text text-anchor="middle" x="259.5" y="-252" font-family="Helvetica,sans-Serif" font-size="10.00">_modules::tof::CheckRawMultiplicity</text>
</a>
</g>
</g>
<!-- Node1&#45;&gt;Node23 -->
<g id="edge22" class="edge"><title>Node1&#45;&gt;Node23</title>
<path fill="none" stroke="midnightblue" d="M69.0181,-657.647C78.9153,-578.67 112.832,-339.123 166,-285 169.73,-281.203 173.974,-277.964 178.543,-275.203"/>
<polygon fill="midnightblue" stroke="midnightblue" points="65.53,-657.337 67.7815,-667.69 72.4775,-658.192 65.53,-657.337"/>
</g>
<!-- Node24 -->
<g id="node24" class="node"><title>Node24</title>
<g id="a_node24"><a xlink:href="classo2_1_1quality__control__modules_1_1tof_1_1CheckRawTime.html" target="_top" xlink:title="o2::quality_control\l_modules::tof::CheckRawTime">
<polygon fill="none" stroke="black" points="183.5,-196 183.5,-226 335.5,-226 335.5,-196 183.5,-196"/>
<text text-anchor="start" x="191.5" y="-214" font-family="Helvetica,sans-Serif" font-size="10.00">o2::quality_control</text>
<text text-anchor="middle" x="259.5" y="-203" font-family="Helvetica,sans-Serif" font-size="10.00">_modules::tof::CheckRawTime</text>
</a>
</g>
</g>
<!-- Node1&#45;&gt;Node24 -->
<g id="edge23" class="edge"><title>Node1&#45;&gt;Node24</title>
<path fill="none" stroke="midnightblue" d="M68.2623,-657.686C76.3777,-572.472 106.741,-297.918 166,-236 170.946,-230.832 176.84,-226.695 183.224,-223.388"/>
<polygon fill="midnightblue" stroke="midnightblue" points="64.766,-657.485 67.3228,-667.767 71.7358,-658.135 64.766,-657.485"/>
</g>
<!-- Node25 -->
<g id="node25" class="node"><title>Node25</title>
<g id="a_node25"><a xlink:href="classo2_1_1quality__control__modules_1_1tof_1_1CheckRawToT.html" target="_top" xlink:title="o2::quality_control\l_modules::tof::CheckRawToT">
<polygon fill="none" stroke="black" points="185.5,-147 185.5,-177 333.5,-177 333.5,-147 185.5,-147"/>
<text text-anchor="start" x="193.5" y="-165" font-family="Helvetica,sans-Serif" font-size="10.00">o2::quality_control</text>
<text text-anchor="middle" x="259.5" y="-154" font-family="Helvetica,sans-Serif" font-size="10.00">_modules::tof::CheckRawToT</text>
</a>
</g>
</g>
<!-- Node1&#45;&gt;Node25 -->
<g id="edge24" class="edge"><title>Node1&#45;&gt;Node25</title>
<path fill="none" stroke="midnightblue" d="M67.6593,-657.641C74.1326,-566.432 100.636,-256.759 166,-187 171.46,-181.173 178.124,-176.653 185.349,-173.153"/>
<polygon fill="midnightblue" stroke="midnightblue" points="64.1654,-657.433 66.9679,-667.651 71.1488,-657.916 64.1654,-657.433"/>
</g>
<!-- Node26 -->
<g id="node26" class="node"><title>Node26</title>
<g id="a_node26"><a xlink:href="classo2_1_1quality__control__modules_1_1tpc_1_1PIDClusterCheck.html" target="_top" xlink:title="Check whether the cluster number for a track is smaller than 159 in PID task. ">
<polygon fill="none" stroke="black" points="179,-98 179,-128 340,-128 340,-98 179,-98"/>
<text text-anchor="start" x="187" y="-116" font-family="Helvetica,sans-Serif" font-size="10.00">o2::quality_control</text>
<text text-anchor="middle" x="259.5" y="-105" font-family="Helvetica,sans-Serif" font-size="10.00">_modules::tpc::PIDClusterCheck</text>
</a>
</g>
</g>
<!-- Node1&#45;&gt;Node26 -->
<g id="edge25" class="edge"><title>Node1&#45;&gt;Node26</title>
<path fill="none" stroke="midnightblue" d="M67.155,-657.71C72.0827,-560.94 94.4751,-215.683 166,-138 169.718,-133.961 174.015,-130.549 178.679,-127.668"/>
<polygon fill="midnightblue" stroke="midnightblue" points="63.6562,-657.603 66.6613,-667.762 70.6478,-657.946 63.6562,-657.603"/>
</g>
<!-- Node27 -->
<g id="node27" class="node"><title>Node27</title>
<g id="a_node27"><a xlink:href="classo2_1_1quality__control__modules_1_1tpc_1_1TrackClusterCheck.html" target="_top" xlink:title="Check whether the cluster number for a track is smaller than 40 or 20 in Track task. ">
<polygon fill="none" stroke="black" points="189.5,-38.5 189.5,-79.5 329.5,-79.5 329.5,-38.5 189.5,-38.5"/>
<text text-anchor="start" x="197.5" y="-67.5" font-family="Helvetica,sans-Serif" font-size="10.00">o2::quality_control</text>
<text text-anchor="start" x="197.5" y="-56.5" font-family="Helvetica,sans-Serif" font-size="10.00">_modules::tpc::TrackCluster</text>
<text text-anchor="middle" x="259.5" y="-45.5" font-family="Helvetica,sans-Serif" font-size="10.00">Check</text>
</a>
</g>
</g>
<!-- Node1&#45;&gt;Node27 -->
<g id="edge26" class="edge"><title>Node1&#45;&gt;Node27</title>
<path fill="none" stroke="midnightblue" d="M66.8647,-657.586C70.8367,-555.488 90.5142,-176.471 166,-89 172.287,-81.7147 180.36,-76.1864 189.112,-71.9938"/>
<polygon fill="midnightblue" stroke="midnightblue" points="63.3564,-657.748 66.4821,-667.871 70.3515,-658.008 63.3564,-657.748"/>
</g>
<!-- Node28 -->
<g id="node28" class="node"><title>Node28</title>
<g id="a_node28"><a xlink:href="classTestCheck.html" target="_top" xlink:title="TestCheck">
<polygon fill="none" stroke="black" points="227,-0.5 227,-19.5 292,-19.5 292,-0.5 227,-0.5"/>
<text text-anchor="middle" x="259.5" y="-7.5" font-family="Helvetica,sans-Serif" font-size="10.00">TestCheck</text>
</a>
</g>
</g>
<!-- Node1&#45;&gt;Node28 -->
<g id="edge27" class="edge"><title>Node1&#45;&gt;Node28</title>
<path fill="none" stroke="midnightblue" d="M66.157,-657.956C67.3652,-549.53 77.7375,-121.869 166,-29 181.36,-12.8384 206.506,-8.4862 226.705,-7.95714"/>
<polygon fill="midnightblue" stroke="midnightblue" points="62.6571,-657.939 66.0622,-667.971 69.6568,-658.005 62.6571,-657.939"/>
</g>
</g>
</svg>
