<?xml version="1.0" encoding="UTF-8" standalone="no"?>
<!DOCTYPE svg PUBLIC "-//W3C//DTD SVG 1.1//EN"
 "http://www.w3.org/Graphics/SVG/1.1/DTD/svg11.dtd">
<!-- Generated by graphviz version 2.38.0 (20140413.2041)
 -->
<!-- Title: Modules/FT0/src/MergedTreeCheck.cxx Pages: 1 -->
<!--zoomable 263 -->
<svg id="main" version="1.1" xmlns="http://www.w3.org/2000/svg" xmlns:xlink="http://www.w3.org/1999/xlink" xml:space="preserve" onload="init(evt)">
<style type="text/css"><![CDATA[
.edge:hover path { stroke: red; }
.edge:hover polygon { stroke: red; fill: red; }
]]></style>
<script type="text/javascript"><![CDATA[
var edges = document.getElementsByTagName('g');
if (edges && edges.length) {
  for (var i=0;i<edges.length;i++) {
    if (edges[i].id.substr(0,4)=='edge') {
      edges[i].setAttribute('class','edge');
    }
  }
}
]]></script>
        <defs>
                <circle id="rim" cx="0" cy="0" r="7"/>
                <circle id="rim2" cx="0" cy="0" r="3.5"/>
                <g id="zoomPlus">
                        <use xlink:href="#rim" fill="#404040">
                                <set attributeName="fill" to="#808080" begin="zoomplus.mouseover" end="zoomplus.mouseout"/>
                        </use>
                        <path d="M-4,0h8M0,-4v8" fill="none" stroke="white" stroke-width="1.5" pointer-events="none"/>
                </g>
                <g id="zoomMin">
                        <use xlink:href="#rim" fill="#404040">
                                <set attributeName="fill" to="#808080" begin="zoomminus.mouseover" end="zoomminus.mouseout"/>
                        </use>
                        <path d="M-4,0h8" fill="none" stroke="white" stroke-width="1.5" pointer-events="none"/>
                </g>
                <g id="dirArrow">
                        <path fill="none" stroke="white" stroke-width="1.5" d="M0,-3.0v7 M-2.5,-0.5L0,-3.0L2.5,-0.5"/>
                </g>
               <g id="resetDef">
                       <use xlink:href="#rim2" fill="#404040">
                               <set attributeName="fill" to="#808080" begin="reset.mouseover" end="reset.mouseout"/>
                       </use>
               </g>
        </defs>

<script type="text/javascript">
var viewWidth = 1259;
var viewHeight = 263;
var sectionId = 'dynsection-0';
</script>
<script xlink:href="svgpan.js"/>
<svg id="graph" class="graph">
<g id="viewport">
<title>Modules/FT0/src/MergedTreeCheck.cxx</title>
<!-- Node1 -->
<g id="node1" class="node"><title>Node1</title>
<polygon fill="#bfbfbf" stroke="black" points="362,-224.5 362,-254.5 507,-254.5 507,-224.5 362,-224.5"/>
<text text-anchor="start" x="370" y="-242.5" font-family="Helvetica,sans-Serif" font-size="10.00">Modules/FT0/src/MergedTree</text>
<text text-anchor="middle" x="434.5" y="-231.5" font-family="Helvetica,sans-Serif" font-size="10.00">Check.cxx</text>
</g>
<!-- Node2 -->
<g id="node2" class="node"><title>Node2</title>
<polygon fill="none" stroke="#bfbfbf" points="0,-168.5 0,-187.5 97,-187.5 97,-168.5 0,-168.5"/>
<text text-anchor="middle" x="48.5" y="-175.5" font-family="Helvetica,sans-Serif" font-size="10.00">fairlogger/Logger.h</text>
</g>
<!-- Node1&#45;&gt;Node2 -->
<g id="edge1" class="edge"><title>Node1&#45;&gt;Node2</title>
<path fill="none" stroke="midnightblue" d="M361.959,-227.457C297.565,-217.633 200.62,-202.792 106.94,-188.219"/>
<polygon fill="midnightblue" stroke="midnightblue" points="107.427,-184.753 97.0077,-186.674 106.35,-191.67 107.427,-184.753"/>
</g>
<!-- Node3 -->
<g id="node3" class="node"><title>Node3</title>
<polygon fill="none" stroke="#bfbfbf" points="114.5,-168.5 114.5,-187.5 158.5,-187.5 158.5,-168.5 114.5,-168.5"/>
<text text-anchor="middle" x="136.5" y="-175.5" font-family="Helvetica,sans-Serif" font-size="10.00">TH1.h</text>
</g>
<!-- Node1&#45;&gt;Node3 -->
<g id="edge2" class="edge"><title>Node1&#45;&gt;Node3</title>
<path fill="none" stroke="midnightblue" d="M361.859,-226.694C310.363,-217.878 239.478,-204.844 168.759,-188.129"/>
<polygon fill="midnightblue" stroke="midnightblue" points="169.323,-184.665 158.783,-185.746 167.696,-191.473 169.323,-184.665"/>
</g>
<!-- Node4 -->
<g id="node4" class="node"><title>Node4</title>
<polygon fill="none" stroke="#bfbfbf" points="176.5,-168.5 176.5,-187.5 226.5,-187.5 226.5,-168.5 176.5,-168.5"/>
<text text-anchor="middle" x="201.5" y="-175.5" font-family="Helvetica,sans-Serif" font-size="10.00">TTree.h</text>
</g>
<!-- Node1&#45;&gt;Node4 -->
<g id="edge3" class="edge"><title>Node1&#45;&gt;Node4</title>
<path fill="none" stroke="midnightblue" d="M379.577,-224.475C335.428,-213.2 274.721,-197.698 236.816,-188.019"/>
<polygon fill="midnightblue" stroke="midnightblue" points="237.318,-184.534 226.763,-185.451 235.586,-191.317 237.318,-184.534"/>
</g>
<!-- Node5 -->
<g id="node5" class="node"><title>Node5</title>
<g id="a_node5"><a xlink:href="MergedTreeCheck_8h.html" target="_top" xlink:title="FT0/MergedTreeCheck.h">
<polygon fill="none" stroke="black" points="293,-168.5 293,-187.5 418,-187.5 418,-168.5 293,-168.5"/>
<text text-anchor="middle" x="355.5" y="-175.5" font-family="Helvetica,sans-Serif" font-size="10.00">FT0/MergedTreeCheck.h</text>
</a>
</g>
</g>
<!-- Node1&#45;&gt;Node5 -->
<g id="edge4" class="edge"><title>Node1&#45;&gt;Node5</title>
<path fill="none" stroke="midnightblue" d="M415.778,-224.399C403.588,-215.218 387.708,-203.258 375.307,-193.918"/>
<polygon fill="midnightblue" stroke="midnightblue" points="377.089,-190.878 366.995,-187.658 372.877,-196.47 377.089,-190.878"/>
</g>
<!-- Node11 -->
<g id="node11" class="node"><title>Node11</title>
<g id="a_node11"><a xlink:href="MonitorObject_8h.html" target="_top" xlink:title="QualityControl/MonitorObject.h">
<polygon fill="none" stroke="black" points="555,-56.5 555,-75.5 706,-75.5 706,-56.5 555,-56.5"/>
<text text-anchor="middle" x="630.5" y="-63.5" font-family="Helvetica,sans-Serif" font-size="10.00">QualityControl/MonitorObject.h</text>
</a>
</g>
</g>
<!-- Node1&#45;&gt;Node11 -->
<g id="edge20" class="edge"><title>Node1&#45;&gt;Node11</title>
<path fill="none" stroke="midnightblue" d="M507.11,-225.589C595.47,-208.22 736.726,-174.538 767.5,-132 788.285,-103.269 749.267,-86.777 707.625,-77.599"/>
<polygon fill="midnightblue" stroke="midnightblue" points="708.09,-74.1212 697.589,-75.5301 706.676,-80.977 708.09,-74.1212"/>
</g>
<!-- Node14 -->
<g id="node14" class="node"><title>Node14</title>
<g id="a_node14"><a xlink:href="Quality_8h.html" target="_top" xlink:title="QualityControl/Quality.h">
<polygon fill="none" stroke="black" points="238,-56.5 238,-75.5 359,-75.5 359,-56.5 238,-56.5"/>
<text text-anchor="middle" x="298.5" y="-63.5" font-family="Helvetica,sans-Serif" font-size="10.00">QualityControl/Quality.h</text>
</a>
</g>
</g>
<!-- Node1&#45;&gt;Node14 -->
<g id="edge21" class="edge"><title>Node1&#45;&gt;Node14</title>
<path fill="none" stroke="midnightblue" d="M361.925,-227.653C334.76,-220.38 305.443,-208.242 284.5,-188 259.303,-163.646 252.127,-145.147 263.5,-112 267.219,-101.161 274.733,-90.9216 281.849,-82.9566"/>
<polygon fill="midnightblue" stroke="midnightblue" points="284.554,-85.1922 288.944,-75.5497 279.499,-80.3498 284.554,-85.1922"/>
</g>
<!-- Node15 -->
<g id="node15" class="node"><title>Node15</title>
<g id="a_node15"><a xlink:href="QcInfoLogger_8h.html" target="_top" xlink:title="QualityControl/QcInfoLogger.h">
<polygon fill="none" stroke="black" points="439,-168.5 439,-187.5 588,-187.5 588,-168.5 439,-168.5"/>
<text text-anchor="middle" x="513.5" y="-175.5" font-family="Helvetica,sans-Serif" font-size="10.00">QualityControl/QcInfoLogger.h</text>
</a>
</g>
</g>
<!-- Node1&#45;&gt;Node15 -->
<g id="edge22" class="edge"><title>Node1&#45;&gt;Node15</title>
<path fill="none" stroke="midnightblue" d="M453.222,-224.399C465.412,-215.218 481.292,-203.258 493.693,-193.918"/>
<polygon fill="midnightblue" stroke="midnightblue" points="496.123,-196.47 502.005,-187.658 491.911,-190.878 496.123,-196.47"/>
</g>
<!-- Node18 -->
<g id="node18" class="node"><title>Node18</title>
<polygon fill="none" stroke="#bfbfbf" points="814.5,-112.5 814.5,-131.5 936.5,-131.5 936.5,-112.5 814.5,-112.5"/>
<text text-anchor="middle" x="875.5" y="-119.5" font-family="Helvetica,sans-Serif" font-size="10.00">DataFormatsFT0/Digit.h</text>
</g>
<!-- Node1&#45;&gt;Node18 -->
<g id="edge25" class="edge"><title>Node1&#45;&gt;Node18</title>
<path fill="none" stroke="midnightblue" d="M507.06,-233.398C598.423,-226.133 749.6,-211.073 800.5,-188 825.129,-176.836 847.747,-154.932 861.564,-139.651"/>
<polygon fill="midnightblue" stroke="midnightblue" points="864.346,-141.787 868.291,-131.954 859.075,-137.18 864.346,-141.787"/>
</g>
<!-- Node19 -->
<g id="node19" class="node"><title>Node19</title>
<polygon fill="none" stroke="#bfbfbf" points="1092,-112.5 1092,-131.5 1251,-131.5 1251,-112.5 1092,-112.5"/>
<text text-anchor="middle" x="1171.5" y="-119.5" font-family="Helvetica,sans-Serif" font-size="10.00">DataFormatsFT0/ChannelData.h</text>
</g>
<!-- Node1&#45;&gt;Node19 -->
<g id="edge26" class="edge"><title>Node1&#45;&gt;Node19</title>
<path fill="none" stroke="midnightblue" d="M507.247,-235.745C645.13,-229.974 939.478,-214.875 1037.5,-188 1079.25,-176.553 1123.71,-152.274 1149.48,-136.845"/>
<polygon fill="midnightblue" stroke="midnightblue" points="1151.36,-139.794 1158.08,-131.602 1147.72,-133.816 1151.36,-139.794"/>
</g>
<!-- Node20 -->
<g id="node20" class="node"><title>Node20</title>
<g id="a_node20"><a xlink:href="Utilities_8h.html" target="_top" xlink:title="FT0/Utilities.h">
<polygon fill="none" stroke="black" points="950.5,-168.5 950.5,-187.5 1028.5,-187.5 1028.5,-168.5 950.5,-168.5"/>
<text text-anchor="middle" x="989.5" y="-175.5" font-family="Helvetica,sans-Serif" font-size="10.00">FT0/Utilities.h</text>
</a>
</g>
</g>
<!-- Node1&#45;&gt;Node20 -->
<g id="edge27" class="edge"><title>Node1&#45;&gt;Node20</title>
<path fill="none" stroke="midnightblue" d="M507.057,-230.721C621.731,-218.427 841.903,-194.823 940.108,-184.295"/>
<polygon fill="midnightblue" stroke="midnightblue" points="940.776,-187.744 950.346,-183.198 940.03,-180.784 940.776,-187.744"/>
</g>
<!-- Node6 -->
<g id="node6" class="node"><title>Node6</title>
<g id="a_node6"><a xlink:href="CheckInterface_8h.html" target="_top" xlink:title="QualityControl/CheckInterface.h">
<polygon fill="none" stroke="black" points="273,-112.5 273,-131.5 430,-131.5 430,-112.5 273,-112.5"/>
<text text-anchor="middle" x="351.5" y="-119.5" font-family="Helvetica,sans-Serif" font-size="10.00">QualityControl/CheckInterface.h</text>
</a>
</g>
</g>
<!-- Node5&#45;&gt;Node6 -->
<g id="edge5" class="edge"><title>Node5&#45;&gt;Node6</title>
<path fill="none" stroke="midnightblue" d="M354.839,-168.083C354.315,-161.006 353.564,-150.861 352.906,-141.986"/>
<polygon fill="midnightblue" stroke="midnightblue" points="356.377,-141.465 352.148,-131.751 349.397,-141.982 356.377,-141.465"/>
</g>
<!-- Node7 -->
<g id="node7" class="node"><title>Node7</title>
<polygon fill="none" stroke="#bfbfbf" points="453,-0.5 453,-19.5 494,-19.5 494,-0.5 453,-0.5"/>
<text text-anchor="middle" x="473.5" y="-7.5" font-family="Helvetica,sans-Serif" font-size="10.00">string</text>
</g>
<!-- Node6&#45;&gt;Node7 -->
<g id="edge6" class="edge"><title>Node6&#45;&gt;Node7</title>
<path fill="none" stroke="midnightblue" d="M409.844,-112.486C432.066,-106.17 455.409,-95.1664 469.5,-76 479.223,-62.7747 479.204,-43.6435 477.366,-29.5593"/>
<polygon fill="midnightblue" stroke="midnightblue" points="480.791,-28.8211 475.653,-19.5552 473.891,-30.0025 480.791,-28.8211"/>
</g>
<!-- Node8 -->
<g id="node8" class="node"><title>Node8</title>
<polygon fill="none" stroke="#bfbfbf" points="281,-0.5 281,-19.5 316,-19.5 316,-0.5 281,-0.5"/>
<text text-anchor="middle" x="298.5" y="-7.5" font-family="Helvetica,sans-Serif" font-size="10.00">map</text>
</g>
<!-- Node6&#45;&gt;Node8 -->
<g id="edge7" class="edge"><title>Node6&#45;&gt;Node8</title>
<path fill="none" stroke="midnightblue" d="M286.267,-112.47C264.231,-106.123 241.852,-95.103 228.5,-76 212.999,-53.8224 245.689,-33.5114 271.44,-21.696"/>
<polygon fill="midnightblue" stroke="midnightblue" points="273.083,-24.7982 280.855,-17.5975 270.289,-18.38 273.083,-24.7982"/>
</g>
<!-- Node9 -->
<g id="node9" class="node"><title>Node9</title>
<polygon fill="none" stroke="#bfbfbf" points="377,-56.5 377,-75.5 460,-75.5 460,-56.5 377,-56.5"/>
<text text-anchor="middle" x="418.5" y="-63.5" font-family="Helvetica,sans-Serif" font-size="10.00">unordered_map</text>
</g>
<!-- Node6&#45;&gt;Node9 -->
<g id="edge8" class="edge"><title>Node6&#45;&gt;Node9</title>
<path fill="none" stroke="midnightblue" d="M362.265,-112.324C372.266,-104.263 387.387,-92.0765 399.43,-82.3695"/>
<polygon fill="midnightblue" stroke="midnightblue" points="401.95,-84.8343 407.539,-75.8339 397.557,-79.3841 401.95,-84.8343"/>
</g>
<!-- Node10 -->
<g id="node10" class="node"><title>Node10</title>
<polygon fill="none" stroke="#bfbfbf" points="512.5,-0.5 512.5,-19.5 568.5,-19.5 568.5,-0.5 512.5,-0.5"/>
<text text-anchor="middle" x="540.5" y="-7.5" font-family="Helvetica,sans-Serif" font-size="10.00">Rtypes.h</text>
</g>
<!-- Node6&#45;&gt;Node10 -->
<g id="edge9" class="edge"><title>Node6&#45;&gt;Node10</title>
<path fill="none" stroke="midnightblue" d="M397.203,-112.432C424.793,-105.707 459.681,-94.3347 486.5,-76 504.78,-63.5028 520.276,-43.1465 529.917,-28.5429"/>
<polygon fill="midnightblue" stroke="midnightblue" points="532.985,-30.2389 535.377,-19.9174 527.071,-26.495 532.985,-30.2389"/>
</g>
<!-- Node6&#45;&gt;Node11 -->
<g id="edge10" class="edge"><title>Node6&#45;&gt;Node11</title>
<path fill="none" stroke="midnightblue" d="M395.708,-112.444C444.787,-102.944 524.01,-87.611 576.664,-77.4198"/>
<polygon fill="midnightblue" stroke="midnightblue" points="577.346,-80.853 586.498,-75.5164 576.016,-73.9805 577.346,-80.853"/>
</g>
<!-- Node6&#45;&gt;Node14 -->
<g id="edge16" class="edge"><title>Node6&#45;&gt;Node14</title>
<path fill="none" stroke="midnightblue" d="M342.748,-112.083C335.03,-104.22 323.595,-92.5688 314.283,-83.0813"/>
<polygon fill="midnightblue" stroke="midnightblue" points="316.592,-80.4363 307.089,-75.7511 311.596,-85.3396 316.592,-80.4363"/>
</g>
<!-- Node11&#45;&gt;Node7 -->
<g id="edge11" class="edge"><title>Node11&#45;&gt;Node7</title>
<path fill="none" stroke="midnightblue" d="M605.623,-56.4435C578.088,-46.973 533.693,-31.7032 504.063,-21.512"/>
<polygon fill="midnightblue" stroke="midnightblue" points="504.844,-18.0797 494.25,-18.1368 502.568,-24.6991 504.844,-18.0797"/>
</g>
<!-- Node11&#45;&gt;Node8 -->
<g id="edge12" class="edge"><title>Node11&#45;&gt;Node8</title>
<path fill="none" stroke="midnightblue" d="M577.894,-56.4435C506.585,-44.8452 381.802,-24.5492 326.384,-15.5354"/>
<polygon fill="midnightblue" stroke="midnightblue" points="326.694,-12.0398 316.262,-13.889 325.57,-18.949 326.694,-12.0398"/>
</g>
<!-- Node11&#45;&gt;Node10 -->
<g id="edge13" class="edge"><title>Node11&#45;&gt;Node10</title>
<path fill="none" stroke="midnightblue" d="M616.04,-56.324C602,-47.9002 580.452,-34.9709 563.957,-25.0741"/>
<polygon fill="midnightblue" stroke="midnightblue" points="565.3,-21.7983 554.924,-19.6545 561.698,-27.8007 565.3,-21.7983"/>
</g>
<!-- Node12 -->
<g id="node12" class="node"><title>Node12</title>
<polygon fill="none" stroke="#bfbfbf" points="858,-0.5 858,-19.5 917,-19.5 917,-0.5 858,-0.5"/>
<text text-anchor="middle" x="887.5" y="-7.5" font-family="Helvetica,sans-Serif" font-size="10.00">TObject.h</text>
</g>
<!-- Node11&#45;&gt;Node12 -->
<g id="edge14" class="edge"><title>Node11&#45;&gt;Node12</title>
<path fill="none" stroke="midnightblue" d="M671.222,-56.4435C719.616,-46.2753 799.825,-29.422 847.776,-19.3468"/>
<polygon fill="midnightblue" stroke="midnightblue" points="848.718,-22.7253 857.784,-17.2437 847.278,-15.8749 848.718,-22.7253"/>
</g>
<!-- Node13 -->
<g id="node13" class="node"><title>Node13</title>
<polygon fill="none" stroke="#bfbfbf" points="586.5,-0.5 586.5,-19.5 702.5,-19.5 702.5,-0.5 586.5,-0.5"/>
<text text-anchor="middle" x="644.5" y="-7.5" font-family="Helvetica,sans-Serif" font-size="10.00">Common/Exceptions.h</text>
</g>
<!-- Node11&#45;&gt;Node13 -->
<g id="edge15" class="edge"><title>Node11&#45;&gt;Node13</title>
<path fill="none" stroke="midnightblue" d="M632.812,-56.083C634.667,-48.9272 637.335,-38.6353 639.654,-29.6911"/>
<polygon fill="midnightblue" stroke="midnightblue" points="643.109,-30.3094 642.231,-19.7511 636.334,-28.5527 643.109,-30.3094"/>
</g>
<!-- Node14&#45;&gt;Node7 -->
<g id="edge18" class="edge"><title>Node14&#45;&gt;Node7</title>
<path fill="none" stroke="midnightblue" d="M326.229,-56.4435C358.109,-46.6063 410.266,-30.5122 443.193,-20.3518"/>
<polygon fill="midnightblue" stroke="midnightblue" points="444.227,-23.6956 452.751,-17.4026 442.163,-17.0068 444.227,-23.6956"/>
</g>
<!-- Node14&#45;&gt;Node8 -->
<g id="edge19" class="edge"><title>Node14&#45;&gt;Node8</title>
<path fill="none" stroke="midnightblue" d="M298.5,-56.083C298.5,-49.0059 298.5,-38.8611 298.5,-29.9865"/>
<polygon fill="midnightblue" stroke="midnightblue" points="302,-29.751 298.5,-19.7511 295,-29.7511 302,-29.751"/>
</g>
<!-- Node14&#45;&gt;Node10 -->
<g id="edge17" class="edge"><title>Node14&#45;&gt;Node10</title>
<path fill="none" stroke="midnightblue" d="M338.627,-56.4711C377.897,-48.0621 439.671,-34.6698 502.196,-20.2649"/>
<polygon fill="midnightblue" stroke="midnightblue" points="503.279,-23.6069 512.234,-17.9449 501.702,-16.7867 503.279,-23.6069"/>
</g>
<!-- Node16 -->
<g id="node16" class="node"><title>Node16</title>
<polygon fill="none" stroke="#bfbfbf" points="448.5,-112.5 448.5,-131.5 578.5,-131.5 578.5,-112.5 448.5,-112.5"/>
<text text-anchor="middle" x="513.5" y="-119.5" font-family="Helvetica,sans-Serif" font-size="10.00">InfoLogger/InfoLogger.hxx</text>
</g>
<!-- Node15&#45;&gt;Node16 -->
<g id="edge23" class="edge"><title>Node15&#45;&gt;Node16</title>
<path fill="none" stroke="midnightblue" d="M513.5,-168.083C513.5,-161.006 513.5,-150.861 513.5,-141.986"/>
<polygon fill="midnightblue" stroke="midnightblue" points="517,-141.751 513.5,-131.751 510,-141.751 517,-141.751"/>
</g>
<!-- Node17 -->
<g id="node17" class="node"><title>Node17</title>
<polygon fill="none" stroke="#bfbfbf" points="596.5,-112.5 596.5,-131.5 758.5,-131.5 758.5,-112.5 596.5,-112.5"/>
<text text-anchor="middle" x="677.5" y="-119.5" font-family="Helvetica,sans-Serif" font-size="10.00">InfoLogger/InfoLoggerMacros.hxx</text>
</g>
<!-- Node15&#45;&gt;Node17 -->
<g id="edge24" class="edge"><title>Node15&#45;&gt;Node17</title>
<path fill="none" stroke="midnightblue" d="M539.486,-168.444C567.196,-159.32 611.252,-144.813 642.116,-134.651"/>
<polygon fill="midnightblue" stroke="midnightblue" points="643.232,-137.968 651.635,-131.516 641.042,-131.32 643.232,-137.968"/>
</g>
<!-- Node20&#45;&gt;Node10 -->
<g id="edge31" class="edge"><title>Node20&#45;&gt;Node10</title>
<path fill="none" stroke="midnightblue" d="M986.089,-168.335C980.088,-154.254 966.274,-126.521 945.5,-112 941.655,-109.312 678.803,-44.8309 578.666,-20.3293"/>
<polygon fill="midnightblue" stroke="midnightblue" points="579.21,-16.8592 568.665,-17.8827 577.547,-23.6587 579.21,-16.8592"/>
</g>
<!-- Node20&#45;&gt;Node12 -->
<g id="edge32" class="edge"><title>Node20&#45;&gt;Node12</title>
<path fill="none" stroke="midnightblue" d="M1006.43,-168.492C1026.66,-157.069 1056.48,-135.479 1045.5,-112 1023.13,-64.1482 965.649,-36.3818 926.549,-22.4624"/>
<polygon fill="midnightblue" stroke="midnightblue" points="927.631,-19.1337 917.036,-19.2182 925.371,-25.7589 927.631,-19.1337"/>
</g>
<!-- Node20&#45;&gt;Node18 -->
<g id="edge29" class="edge"><title>Node20&#45;&gt;Node18</title>
<path fill="none" stroke="midnightblue" d="M971.436,-168.444C952.925,-159.675 923.919,-145.935 902.645,-135.858"/>
<polygon fill="midnightblue" stroke="midnightblue" points="904.015,-132.634 893.479,-131.516 901.018,-138.96 904.015,-132.634"/>
</g>
<!-- Node20&#45;&gt;Node19 -->
<g id="edge30" class="edge"><title>Node20&#45;&gt;Node19</title>
<path fill="none" stroke="midnightblue" d="M1018.34,-168.444C1049.36,-159.241 1098.83,-144.562 1133.12,-134.388"/>
<polygon fill="midnightblue" stroke="midnightblue" points="1134.21,-137.716 1142.8,-131.516 1132.21,-131.006 1134.21,-137.716"/>
</g>
<!-- Node21 -->
<g id="node21" class="node"><title>Node21</title>
<polygon fill="none" stroke="#bfbfbf" points="992.5,-112.5 992.5,-131.5 1036.5,-131.5 1036.5,-112.5 992.5,-112.5"/>
<text text-anchor="middle" x="1014.5" y="-119.5" font-family="Helvetica,sans-Serif" font-size="10.00">vector</text>
</g>
<!-- Node20&#45;&gt;Node21 -->
<g id="edge28" class="edge"><title>Node20&#45;&gt;Node21</title>
<path fill="none" stroke="midnightblue" d="M993.628,-168.083C997.014,-160.77 1001.92,-150.181 1006.12,-141.103"/>
<polygon fill="midnightblue" stroke="midnightblue" points="1009.42,-142.296 1010.45,-131.751 1003.07,-139.355 1009.42,-142.296"/>
</g>
</g>
</svg>
        <g id="navigator" transform="translate(0 0)" fill="#404254">
                <rect fill="#f2f5e9" fill-opacity="0.5" stroke="#606060" stroke-width=".5" x="0" y="0" width="60" height="60"/>
                <use id="zoomplus" xlink:href="#zoomPlus" x="17" y="9" onmousedown="handleZoom(evt,'in')"/>
                <use id="zoomminus" xlink:href="#zoomMin" x="42" y="9" onmousedown="handleZoom(evt,'out')"/>
                <use id="reset" xlink:href="#resetDef" x="30" y="36" onmousedown="handleReset()"/>
                <g id="arrowUp" xlink:href="#dirArrow" transform="translate(30 24)" onmousedown="handlePan(0,-1)">
                  <use xlink:href="#rim" fill="#404040">
                        <set attributeName="fill" to="#808080" begin="arrowUp.mouseover" end="arrowUp.mouseout"/>
                  </use>
                  <path fill="none" stroke="white" stroke-width="1.5" d="M0,-3.0v7 M-2.5,-0.5L0,-3.0L2.5,-0.5"/>
                </g>
                <g id="arrowRight" xlink:href="#dirArrow" transform="rotate(90) translate(36 -43)" onmousedown="handlePan(1,0)">
                  <use xlink:href="#rim" fill="#404040">
                        <set attributeName="fill" to="#808080" begin="arrowRight.mouseover" end="arrowRight.mouseout"/>
                  </use>
                  <path fill="none" stroke="white" stroke-width="1.5" d="M0,-3.0v7 M-2.5,-0.5L0,-3.0L2.5,-0.5"/>
                </g>
                <g id="arrowDown" xlink:href="#dirArrow" transform="rotate(180) translate(-30 -48)" onmousedown="handlePan(0,1)">
                  <use xlink:href="#rim" fill="#404040">
                        <set attributeName="fill" to="#808080" begin="arrowDown.mouseover" end="arrowDown.mouseout"/>
                  </use>
                  <path fill="none" stroke="white" stroke-width="1.5" d="M0,-3.0v7 M-2.5,-0.5L0,-3.0L2.5,-0.5"/>
                </g>
                <g id="arrowLeft" xlink:href="#dirArrow" transform="rotate(270) translate(-36 17)" onmousedown="handlePan(-1,0)">
                  <use xlink:href="#rim" fill="#404040">
                        <set attributeName="fill" to="#808080" begin="arrowLeft.mouseover" end="arrowLeft.mouseout"/>
                  </use>
                  <path fill="none" stroke="white" stroke-width="1.5" d="M0,-3.0v7 M-2.5,-0.5L0,-3.0L2.5,-0.5"/>
                </g>
        </g>
        <svg viewBox="0 0 15 15" width="100%" height="30px" preserveAspectRatio="xMaxYMin meet">
         <g id="arrow_out" transform="scale(0.3 0.3)">
          <a xlink:href="MergedTreeCheck_8cxx__incl_org.svg" target="_base">
           <rect id="button" ry="5" rx="5" y="6" x="6" height="38" width="38"
                fill="#f2f5e9" fill-opacity="0.5" stroke="#606060" stroke-width="1.0"/>
           <path id="arrow"
             d="M 11.500037,31.436501 C 11.940474,20.09759 22.043105,11.32322 32.158766,21.979434 L 37.068811,17.246167 C 37.068811,17.246167 37.088388,32 37.088388,32 L 22.160133,31.978069 C 22.160133,31.978069 26.997745,27.140456 26.997745,27.140456 C 18.528582,18.264221 13.291696,25.230495 11.500037,31.436501 z"
             style="fill:#404040;"/>
          </a>
         </g>
        </svg>
</svg>
