<?xml version="1.0" encoding="UTF-8" standalone="no"?>
<!DOCTYPE svg PUBLIC "-//W3C//DTD SVG 1.1//EN"
 "http://www.w3.org/Graphics/SVG/1.1/DTD/svg11.dtd">
<!-- Generated by graphviz version 2.38.0 (20140413.2041)
 -->
<!-- Title: Modules/MUON/MCH/src/PhysicsCheck.cxx Pages: 1 -->
<!--zoomable 274 -->
<svg id="main" version="1.1" xmlns="http://www.w3.org/2000/svg" xmlns:xlink="http://www.w3.org/1999/xlink" xml:space="preserve" onload="init(evt)">
<style type="text/css"><![CDATA[
.edge:hover path { stroke: red; }
.edge:hover polygon { stroke: red; fill: red; }
]]></style>
<script type="text/javascript"><![CDATA[
var edges = document.getElementsByTagName('g');
if (edges && edges.length) {
  for (var i=0;i<edges.length;i++) {
    if (edges[i].id.substr(0,4)=='edge') {
      edges[i].setAttribute('class','edge');
    }
  }
}
]]></script>
        <defs>
                <circle id="rim" cx="0" cy="0" r="7"/>
                <circle id="rim2" cx="0" cy="0" r="3.5"/>
                <g id="zoomPlus">
                        <use xlink:href="#rim" fill="#404040">
                                <set attributeName="fill" to="#808080" begin="zoomplus.mouseover" end="zoomplus.mouseout"/>
                        </use>
                        <path d="M-4,0h8M0,-4v8" fill="none" stroke="white" stroke-width="1.5" pointer-events="none"/>
                </g>
                <g id="zoomMin">
                        <use xlink:href="#rim" fill="#404040">
                                <set attributeName="fill" to="#808080" begin="zoomminus.mouseover" end="zoomminus.mouseout"/>
                        </use>
                        <path d="M-4,0h8" fill="none" stroke="white" stroke-width="1.5" pointer-events="none"/>
                </g>
                <g id="dirArrow">
                        <path fill="none" stroke="white" stroke-width="1.5" d="M0,-3.0v7 M-2.5,-0.5L0,-3.0L2.5,-0.5"/>
                </g>
               <g id="resetDef">
                       <use xlink:href="#rim2" fill="#404040">
                               <set attributeName="fill" to="#808080" begin="reset.mouseover" end="reset.mouseout"/>
                       </use>
               </g>
        </defs>

<script type="text/javascript">
var viewWidth = 1084;
var viewHeight = 274;
var sectionId = 'dynsection-0';
</script>
<script xlink:href="svgpan.js"/>
<svg id="graph" class="graph">
<g id="viewport">
<title>Modules/MUON/MCH/src/PhysicsCheck.cxx</title>
<!-- Node1 -->
<g id="node1" class="node"><title>Node1</title>
<polygon fill="#bfbfbf" stroke="black" points="589.5,-235.5 589.5,-265.5 719.5,-265.5 719.5,-235.5 589.5,-235.5"/>
<text text-anchor="start" x="597.5" y="-253.5" font-family="Helvetica,sans-Serif" font-size="10.00">Modules/MUON/MCH/src</text>
<text text-anchor="middle" x="654.5" y="-242.5" font-family="Helvetica,sans-Serif" font-size="10.00">/PhysicsCheck.cxx</text>
</g>
<!-- Node2 -->
<g id="node2" class="node"><title>Node2</title>
<polygon fill="none" stroke="#bfbfbf" points="0,-168.5 0,-198.5 115,-198.5 115,-168.5 0,-168.5"/>
<text text-anchor="start" x="8" y="-186.5" font-family="Helvetica,sans-Serif" font-size="10.00">MCHMappingInterface</text>
<text text-anchor="middle" x="57.5" y="-175.5" font-family="Helvetica,sans-Serif" font-size="10.00">/Segmentation.h</text>
</g>
<!-- Node1&#45;&gt;Node2 -->
<g id="edge1" class="edge"><title>Node1&#45;&gt;Node2</title>
<path fill="none" stroke="midnightblue" d="M589.329,-245.778C490.935,-239.608 298.468,-225.405 125.229,-198.984"/>
<polygon fill="midnightblue" stroke="midnightblue" points="125.579,-195.497 115.163,-197.432 124.512,-202.415 125.579,-195.497"/>
</g>
<!-- Node3 -->
<g id="node3" class="node"><title>Node3</title>
<polygon fill="none" stroke="#bfbfbf" points="133.5,-168.5 133.5,-198.5 297.5,-198.5 297.5,-168.5 133.5,-168.5"/>
<text text-anchor="start" x="141.5" y="-186.5" font-family="Helvetica,sans-Serif" font-size="10.00">MCHMappingSegContour</text>
<text text-anchor="middle" x="215.5" y="-175.5" font-family="Helvetica,sans-Serif" font-size="10.00">/CathodeSegmentationContours.h</text>
</g>
<!-- Node1&#45;&gt;Node3 -->
<g id="edge2" class="edge"><title>Node1&#45;&gt;Node3</title>
<path fill="none" stroke="midnightblue" d="M589.372,-239.985C520.369,-229.887 408.24,-213.427 311.5,-199 310.234,-198.811 308.959,-198.621 307.676,-198.429"/>
<polygon fill="midnightblue" stroke="midnightblue" points="308.124,-194.957 297.716,-196.939 307.088,-201.88 308.124,-194.957"/>
</g>
<!-- Node4 -->
<g id="node4" class="node"><title>Node4</title>
<g id="a_node4"><a xlink:href="PhysicsCheck_8h.html" target="_top" xlink:title="MCH/PhysicsCheck.h">
<polygon fill="none" stroke="black" points="354,-174 354,-193 469,-193 469,-174 354,-174"/>
<text text-anchor="middle" x="411.5" y="-181" font-family="Helvetica,sans-Serif" font-size="10.00">MCH/PhysicsCheck.h</text>
</a>
</g>
</g>
<!-- Node1&#45;&gt;Node4 -->
<g id="edge3" class="edge"><title>Node1&#45;&gt;Node4</title>
<path fill="none" stroke="midnightblue" d="M602.072,-235.476C557.474,-223.547 494.285,-206.644 453.1,-195.628"/>
<polygon fill="midnightblue" stroke="midnightblue" points="453.949,-192.232 443.384,-193.029 452.14,-198.994 453.949,-192.232"/>
</g>
<!-- Node6 -->
<g id="node6" class="node"><title>Node6</title>
<polygon fill="none" stroke="#bfbfbf" points="381,-0.5 381,-19.5 422,-19.5 422,-0.5 381,-0.5"/>
<text text-anchor="middle" x="401.5" y="-7.5" font-family="Helvetica,sans-Serif" font-size="10.00">string</text>
</g>
<!-- Node1&#45;&gt;Node6 -->
<g id="edge30" class="edge"><title>Node1&#45;&gt;Node6</title>
<path fill="none" stroke="midnightblue" d="M589.268,-248.412C507.779,-245.513 375.275,-235.193 344.5,-199 300.711,-147.501 358.895,-63.0525 387.4,-27.546"/>
<polygon fill="midnightblue" stroke="midnightblue" points="390.27,-29.5669 393.927,-19.6233 384.867,-25.1158 390.27,-29.5669"/>
</g>
<!-- Node14 -->
<g id="node14" class="node"><title>Node14</title>
<polygon fill="none" stroke="#bfbfbf" points="487,-174 487,-193 584,-193 584,-174 487,-174"/>
<text text-anchor="middle" x="535.5" y="-181" font-family="Helvetica,sans-Serif" font-size="10.00">fairlogger/Logger.h</text>
</g>
<!-- Node1&#45;&gt;Node14 -->
<g id="edge22" class="edge"><title>Node1&#45;&gt;Node14</title>
<path fill="none" stroke="midnightblue" d="M628.679,-235.396C608.261,-224.243 579.953,-208.781 559.911,-197.834"/>
<polygon fill="midnightblue" stroke="midnightblue" points="561.528,-194.729 551.074,-193.007 558.173,-200.872 561.528,-194.729"/>
</g>
<!-- Node15 -->
<g id="node15" class="node"><title>Node15</title>
<polygon fill="none" stroke="#bfbfbf" points="601.5,-174 601.5,-193 645.5,-193 645.5,-174 601.5,-174"/>
<text text-anchor="middle" x="623.5" y="-181" font-family="Helvetica,sans-Serif" font-size="10.00">TH1.h</text>
</g>
<!-- Node1&#45;&gt;Node15 -->
<g id="edge23" class="edge"><title>Node1&#45;&gt;Node15</title>
<path fill="none" stroke="midnightblue" d="M647.773,-235.396C643.179,-225.763 637.052,-212.914 632.102,-202.537"/>
<polygon fill="midnightblue" stroke="midnightblue" points="635.111,-200.714 627.647,-193.195 628.792,-203.727 635.111,-200.714"/>
</g>
<!-- Node16 -->
<g id="node16" class="node"><title>Node16</title>
<polygon fill="none" stroke="#bfbfbf" points="663.5,-174 663.5,-193 707.5,-193 707.5,-174 663.5,-174"/>
<text text-anchor="middle" x="685.5" y="-181" font-family="Helvetica,sans-Serif" font-size="10.00">TH2.h</text>
</g>
<!-- Node1&#45;&gt;Node16 -->
<g id="edge24" class="edge"><title>Node1&#45;&gt;Node16</title>
<path fill="none" stroke="midnightblue" d="M661.227,-235.396C665.821,-225.763 671.948,-212.914 676.898,-202.537"/>
<polygon fill="midnightblue" stroke="midnightblue" points="680.208,-203.727 681.353,-193.195 673.889,-200.714 680.208,-203.727"/>
</g>
<!-- Node17 -->
<g id="node17" class="node"><title>Node17</title>
<polygon fill="none" stroke="#bfbfbf" points="726,-174 726,-193 773,-193 773,-174 726,-174"/>
<text text-anchor="middle" x="749.5" y="-181" font-family="Helvetica,sans-Serif" font-size="10.00">TList.h</text>
</g>
<!-- Node1&#45;&gt;Node17 -->
<g id="edge25" class="edge"><title>Node1&#45;&gt;Node17</title>
<path fill="none" stroke="midnightblue" d="M675.114,-235.396C690.897,-224.597 712.587,-209.756 728.473,-198.887"/>
<polygon fill="midnightblue" stroke="midnightblue" points="730.79,-201.542 737.067,-193.007 726.837,-195.765 730.79,-201.542"/>
</g>
<!-- Node18 -->
<g id="node18" class="node"><title>Node18</title>
<polygon fill="none" stroke="#bfbfbf" points="791,-174 791,-193 844,-193 844,-174 791,-174"/>
<text text-anchor="middle" x="817.5" y="-181" font-family="Helvetica,sans-Serif" font-size="10.00">TMath.h</text>
</g>
<!-- Node1&#45;&gt;Node18 -->
<g id="edge26" class="edge"><title>Node1&#45;&gt;Node18</title>
<path fill="none" stroke="midnightblue" d="M690.703,-235.406C716.372,-225.366 751.605,-211.493 782.5,-199 784.093,-198.356 785.725,-197.692 787.372,-197.02"/>
<polygon fill="midnightblue" stroke="midnightblue" points="788.878,-200.185 796.796,-193.146 786.216,-193.711 788.878,-200.185"/>
</g>
<!-- Node19 -->
<g id="node19" class="node"><title>Node19</title>
<polygon fill="none" stroke="#bfbfbf" points="862,-174 862,-193 935,-193 935,-174 862,-174"/>
<text text-anchor="middle" x="898.5" y="-181" font-family="Helvetica,sans-Serif" font-size="10.00">TPaveText.h</text>
</g>
<!-- Node1&#45;&gt;Node19 -->
<g id="edge27" class="edge"><title>Node1&#45;&gt;Node19</title>
<path fill="none" stroke="midnightblue" d="M713.975,-235.448C753.663,-225.817 806.914,-212.402 853.5,-199 856.655,-198.092 859.923,-197.114 863.191,-196.11"/>
<polygon fill="midnightblue" stroke="midnightblue" points="864.395,-199.401 872.885,-193.063 862.296,-192.723 864.395,-199.401"/>
</g>
<!-- Node20 -->
<g id="node20" class="node"><title>Node20</title>
<polygon fill="none" stroke="#bfbfbf" points="953.5,-174 953.5,-193 1007.5,-193 1007.5,-174 953.5,-174"/>
<text text-anchor="middle" x="980.5" y="-181" font-family="Helvetica,sans-Serif" font-size="10.00">iostream</text>
</g>
<!-- Node1&#45;&gt;Node20 -->
<g id="edge28" class="edge"><title>Node1&#45;&gt;Node20</title>
<path fill="none" stroke="midnightblue" d="M719.592,-242.149C778.951,-234.51 868.69,-220.607 944.5,-199 946.938,-198.305 949.437,-197.501 951.927,-196.636"/>
<polygon fill="midnightblue" stroke="midnightblue" points="953.209,-199.893 961.331,-193.089 950.739,-193.343 953.209,-199.893"/>
</g>
<!-- Node21 -->
<g id="node21" class="node"><title>Node21</title>
<polygon fill="none" stroke="#bfbfbf" points="1025.5,-174 1025.5,-193 1075.5,-193 1075.5,-174 1025.5,-174"/>
<text text-anchor="middle" x="1050.5" y="-181" font-family="Helvetica,sans-Serif" font-size="10.00">fstream</text>
</g>
<!-- Node1&#45;&gt;Node21 -->
<g id="edge29" class="edge"><title>Node1&#45;&gt;Node21</title>
<path fill="none" stroke="midnightblue" d="M719.633,-245.614C792.925,-240.051 915.004,-227.184 1016.5,-199 1018.8,-198.363 1021.14,-197.605 1023.47,-196.776"/>
<polygon fill="midnightblue" stroke="midnightblue" points="1024.8,-200.013 1032.82,-193.086 1022.23,-193.502 1024.8,-200.013"/>
</g>
<!-- Node5 -->
<g id="node5" class="node"><title>Node5</title>
<g id="a_node5"><a xlink:href="CheckInterface_8h.html" target="_top" xlink:title="QualityControl/CheckInterface.h">
<polygon fill="none" stroke="black" points="532,-112.5 532,-131.5 689,-131.5 689,-112.5 532,-112.5"/>
<text text-anchor="middle" x="610.5" y="-119.5" font-family="Helvetica,sans-Serif" font-size="10.00">QualityControl/CheckInterface.h</text>
</a>
</g>
</g>
<!-- Node4&#45;&gt;Node5 -->
<g id="edge4" class="edge"><title>Node4&#45;&gt;Node5</title>
<path fill="none" stroke="midnightblue" d="M440.012,-173.975C474.738,-163.592 533.537,-146.012 572.192,-134.454"/>
<polygon fill="midnightblue" stroke="midnightblue" points="573.463,-137.727 582.041,-131.509 571.457,-131.02 573.463,-137.727"/>
</g>
<!-- Node4&#45;&gt;Node6 -->
<g id="edge21" class="edge"><title>Node4&#45;&gt;Node6</title>
<path fill="none" stroke="midnightblue" d="M410.99,-173.76C409.439,-147.151 404.749,-66.7148 402.598,-29.8382"/>
<polygon fill="midnightblue" stroke="midnightblue" points="406.073,-29.2986 401.997,-19.5194 399.085,-29.7062 406.073,-29.2986"/>
</g>
<!-- Node10 -->
<g id="node10" class="node"><title>Node10</title>
<g id="a_node10"><a xlink:href="MonitorObject_8h.html" target="_top" xlink:title="QualityControl/MonitorObject.h">
<polygon fill="none" stroke="black" points="747,-56.5 747,-75.5 898,-75.5 898,-56.5 747,-56.5"/>
<text text-anchor="middle" x="822.5" y="-63.5" font-family="Helvetica,sans-Serif" font-size="10.00">QualityControl/MonitorObject.h</text>
</a>
</g>
</g>
<!-- Node4&#45;&gt;Node10 -->
<g id="edge19" class="edge"><title>Node4&#45;&gt;Node10</title>
<path fill="none" stroke="midnightblue" d="M449.345,-173.958C458.844,-171.911 469.029,-169.798 478.5,-168 575.839,-149.515 604.53,-163.402 698.5,-132 736.354,-119.35 776.663,-96.1859 800.704,-81.1998"/>
<polygon fill="midnightblue" stroke="midnightblue" points="802.799,-84.0158 809.374,-75.708 799.054,-78.1023 802.799,-84.0158"/>
</g>
<!-- Node13 -->
<g id="node13" class="node"><title>Node13</title>
<g id="a_node13"><a xlink:href="Quality_8h.html" target="_top" xlink:title="QualityControl/Quality.h">
<polygon fill="none" stroke="black" points="430,-56.5 430,-75.5 551,-75.5 551,-56.5 430,-56.5"/>
<text text-anchor="middle" x="490.5" y="-63.5" font-family="Helvetica,sans-Serif" font-size="10.00">QualityControl/Quality.h</text>
</a>
</g>
</g>
<!-- Node4&#45;&gt;Node13 -->
<g id="edge20" class="edge"><title>Node4&#45;&gt;Node13</title>
<path fill="none" stroke="midnightblue" d="M417.438,-173.819C430.42,-154.839 461.535,-109.348 478.675,-84.2882"/>
<polygon fill="midnightblue" stroke="midnightblue" points="481.737,-86.0119 484.493,-75.782 475.959,-82.06 481.737,-86.0119"/>
</g>
<!-- Node5&#45;&gt;Node6 -->
<g id="edge5" class="edge"><title>Node5&#45;&gt;Node6</title>
<path fill="none" stroke="midnightblue" d="M545.266,-112.465C498.009,-105.023 439.404,-92.7805 421.5,-76 408.857,-64.1501 404.137,-44.5234 402.411,-29.9316"/>
<polygon fill="midnightblue" stroke="midnightblue" points="405.866,-29.2399 401.574,-19.5535 398.889,-29.8024 405.866,-29.2399"/>
</g>
<!-- Node7 -->
<g id="node7" class="node"><title>Node7</title>
<polygon fill="none" stroke="#bfbfbf" points="637,-0.5 637,-19.5 672,-19.5 672,-0.5 637,-0.5"/>
<text text-anchor="middle" x="654.5" y="-7.5" font-family="Helvetica,sans-Serif" font-size="10.00">map</text>
</g>
<!-- Node5&#45;&gt;Node7 -->
<g id="edge6" class="edge"><title>Node5&#45;&gt;Node7</title>
<path fill="none" stroke="midnightblue" d="M626.234,-112.236C638.389,-104.481 654.312,-91.9292 661.5,-76 668.131,-61.3063 665.249,-42.9092 661.369,-29.4409"/>
<polygon fill="midnightblue" stroke="midnightblue" points="664.665,-28.2596 658.206,-19.8612 658.018,-30.4543 664.665,-28.2596"/>
</g>
<!-- Node8 -->
<g id="node8" class="node"><title>Node8</title>
<polygon fill="none" stroke="#bfbfbf" points="569,-56.5 569,-75.5 652,-75.5 652,-56.5 569,-56.5"/>
<text text-anchor="middle" x="610.5" y="-63.5" font-family="Helvetica,sans-Serif" font-size="10.00">unordered_map</text>
</g>
<!-- Node5&#45;&gt;Node8 -->
<g id="edge7" class="edge"><title>Node5&#45;&gt;Node8</title>
<path fill="none" stroke="midnightblue" d="M610.5,-112.083C610.5,-105.006 610.5,-94.8611 610.5,-85.9865"/>
<polygon fill="midnightblue" stroke="midnightblue" points="614,-85.751 610.5,-75.7511 607,-85.7511 614,-85.751"/>
</g>
<!-- Node9 -->
<g id="node9" class="node"><title>Node9</title>
<polygon fill="none" stroke="#bfbfbf" points="690.5,-0.5 690.5,-19.5 746.5,-19.5 746.5,-0.5 690.5,-0.5"/>
<text text-anchor="middle" x="718.5" y="-7.5" font-family="Helvetica,sans-Serif" font-size="10.00">Rtypes.h</text>
</g>
<!-- Node5&#45;&gt;Node9 -->
<g id="edge8" class="edge"><title>Node5&#45;&gt;Node9</title>
<path fill="none" stroke="midnightblue" d="M626.759,-112.384C641.002,-104.295 661.683,-91.1882 676.5,-76 690.24,-61.9153 702.005,-42.6727 709.558,-28.7834"/>
<polygon fill="midnightblue" stroke="midnightblue" points="712.741,-30.2485 714.281,-19.7661 706.541,-27.0005 712.741,-30.2485"/>
</g>
<!-- Node5&#45;&gt;Node10 -->
<g id="edge9" class="edge"><title>Node5&#45;&gt;Node10</title>
<path fill="none" stroke="midnightblue" d="M644.092,-112.444C680.687,-103.122 739.338,-88.1828 779.326,-77.9972"/>
<polygon fill="midnightblue" stroke="midnightblue" points="780.239,-81.3766 789.065,-75.5164 778.511,-74.5932 780.239,-81.3766"/>
</g>
<!-- Node5&#45;&gt;Node13 -->
<g id="edge15" class="edge"><title>Node5&#45;&gt;Node13</title>
<path fill="none" stroke="midnightblue" d="M591.486,-112.444C571.912,-103.636 541.192,-89.8116 518.771,-79.722"/>
<polygon fill="midnightblue" stroke="midnightblue" points="519.981,-76.4284 509.425,-75.5164 517.108,-82.8119 519.981,-76.4284"/>
</g>
<!-- Node10&#45;&gt;Node6 -->
<g id="edge10" class="edge"><title>Node10&#45;&gt;Node6</title>
<path fill="none" stroke="midnightblue" d="M755.791,-56.4435C663.357,-44.5873 500.063,-23.6423 432.303,-14.951"/>
<polygon fill="midnightblue" stroke="midnightblue" points="432.638,-11.4654 422.274,-13.6646 431.748,-18.4085 432.638,-11.4654"/>
</g>
<!-- Node10&#45;&gt;Node7 -->
<g id="edge11" class="edge"><title>Node10&#45;&gt;Node7</title>
<path fill="none" stroke="midnightblue" d="M795.436,-56.4759C768.913,-48.0972 727.1,-34.8233 681.9,-20.101"/>
<polygon fill="midnightblue" stroke="midnightblue" points="682.8,-16.7132 672.208,-16.9387 680.629,-23.368 682.8,-16.7132"/>
</g>
<!-- Node10&#45;&gt;Node9 -->
<g id="edge12" class="edge"><title>Node10&#45;&gt;Node9</title>
<path fill="none" stroke="midnightblue" d="M805.791,-56.324C789.188,-47.7034 763.498,-34.3643 744.28,-24.3855"/>
<polygon fill="midnightblue" stroke="midnightblue" points="745.656,-21.1565 735.168,-19.6545 742.43,-27.3689 745.656,-21.1565"/>
</g>
<!-- Node11 -->
<g id="node11" class="node"><title>Node11</title>
<polygon fill="none" stroke="#bfbfbf" points="899,-0.5 899,-19.5 958,-19.5 958,-0.5 899,-0.5"/>
<text text-anchor="middle" x="928.5" y="-7.5" font-family="Helvetica,sans-Serif" font-size="10.00">TObject.h</text>
</g>
<!-- Node10&#45;&gt;Node11 -->
<g id="edge13" class="edge"><title>Node10&#45;&gt;Node11</title>
<path fill="none" stroke="midnightblue" d="M839.531,-56.324C856.53,-47.6641 882.876,-34.2424 902.493,-24.249"/>
<polygon fill="midnightblue" stroke="midnightblue" points="904.19,-27.3125 911.512,-19.6545 901.012,-21.0752 904.19,-27.3125"/>
</g>
<!-- Node12 -->
<g id="node12" class="node"><title>Node12</title>
<polygon fill="none" stroke="#bfbfbf" points="764.5,-0.5 764.5,-19.5 880.5,-19.5 880.5,-0.5 764.5,-0.5"/>
<text text-anchor="middle" x="822.5" y="-7.5" font-family="Helvetica,sans-Serif" font-size="10.00">Common/Exceptions.h</text>
</g>
<!-- Node10&#45;&gt;Node12 -->
<g id="edge14" class="edge"><title>Node10&#45;&gt;Node12</title>
<path fill="none" stroke="midnightblue" d="M822.5,-56.083C822.5,-49.0059 822.5,-38.8611 822.5,-29.9865"/>
<polygon fill="midnightblue" stroke="midnightblue" points="826,-29.751 822.5,-19.7511 819,-29.7511 826,-29.751"/>
</g>
<!-- Node13&#45;&gt;Node6 -->
<g id="edge17" class="edge"><title>Node13&#45;&gt;Node6</title>
<path fill="none" stroke="midnightblue" d="M476.201,-56.324C462.317,-47.9002 441.008,-34.9709 424.696,-25.0741"/>
<polygon fill="midnightblue" stroke="midnightblue" points="426.129,-21.8495 415.764,-19.6545 422.498,-27.8341 426.129,-21.8495"/>
</g>
<!-- Node13&#45;&gt;Node7 -->
<g id="edge18" class="edge"><title>Node13&#45;&gt;Node7</title>
<path fill="none" stroke="midnightblue" d="M516.486,-56.4435C546.673,-46.5041 596.259,-30.1771 627.054,-20.037"/>
<polygon fill="midnightblue" stroke="midnightblue" points="628.319,-23.3056 636.723,-16.8536 626.13,-16.6567 628.319,-23.3056"/>
</g>
<!-- Node13&#45;&gt;Node9 -->
<g id="edge16" class="edge"><title>Node13&#45;&gt;Node9</title>
<path fill="none" stroke="midnightblue" d="M527.135,-56.4517C563.57,-47.9316 621.33,-34.3752 680.357,-20.2619"/>
<polygon fill="midnightblue" stroke="midnightblue" points="681.313,-23.632 690.223,-17.9004 679.683,-16.8243 681.313,-23.632"/>
</g>
</g>
</svg>
        <g id="navigator" transform="translate(0 0)" fill="#404254">
                <rect fill="#f2f5e9" fill-opacity="0.5" stroke="#606060" stroke-width=".5" x="0" y="0" width="60" height="60"/>
                <use id="zoomplus" xlink:href="#zoomPlus" x="17" y="9" onmousedown="handleZoom(evt,'in')"/>
                <use id="zoomminus" xlink:href="#zoomMin" x="42" y="9" onmousedown="handleZoom(evt,'out')"/>
                <use id="reset" xlink:href="#resetDef" x="30" y="36" onmousedown="handleReset()"/>
                <g id="arrowUp" xlink:href="#dirArrow" transform="translate(30 24)" onmousedown="handlePan(0,-1)">
                  <use xlink:href="#rim" fill="#404040">
                        <set attributeName="fill" to="#808080" begin="arrowUp.mouseover" end="arrowUp.mouseout"/>
                  </use>
                  <path fill="none" stroke="white" stroke-width="1.5" d="M0,-3.0v7 M-2.5,-0.5L0,-3.0L2.5,-0.5"/>
                </g>
                <g id="arrowRight" xlink:href="#dirArrow" transform="rotate(90) translate(36 -43)" onmousedown="handlePan(1,0)">
                  <use xlink:href="#rim" fill="#404040">
                        <set attributeName="fill" to="#808080" begin="arrowRight.mouseover" end="arrowRight.mouseout"/>
                  </use>
                  <path fill="none" stroke="white" stroke-width="1.5" d="M0,-3.0v7 M-2.5,-0.5L0,-3.0L2.5,-0.5"/>
                </g>
                <g id="arrowDown" xlink:href="#dirArrow" transform="rotate(180) translate(-30 -48)" onmousedown="handlePan(0,1)">
                  <use xlink:href="#rim" fill="#404040">
                        <set attributeName="fill" to="#808080" begin="arrowDown.mouseover" end="arrowDown.mouseout"/>
                  </use>
                  <path fill="none" stroke="white" stroke-width="1.5" d="M0,-3.0v7 M-2.5,-0.5L0,-3.0L2.5,-0.5"/>
                </g>
                <g id="arrowLeft" xlink:href="#dirArrow" transform="rotate(270) translate(-36 17)" onmousedown="handlePan(-1,0)">
                  <use xlink:href="#rim" fill="#404040">
                        <set attributeName="fill" to="#808080" begin="arrowLeft.mouseover" end="arrowLeft.mouseout"/>
                  </use>
                  <path fill="none" stroke="white" stroke-width="1.5" d="M0,-3.0v7 M-2.5,-0.5L0,-3.0L2.5,-0.5"/>
                </g>
        </g>
        <svg viewBox="0 0 15 15" width="100%" height="30px" preserveAspectRatio="xMaxYMin meet">
         <g id="arrow_out" transform="scale(0.3 0.3)">
          <a xlink:href="PhysicsCheck_8cxx__incl_org.svg" target="_base">
           <rect id="button" ry="5" rx="5" y="6" x="6" height="38" width="38"
                fill="#f2f5e9" fill-opacity="0.5" stroke="#606060" stroke-width="1.0"/>
           <path id="arrow"
             d="M 11.500037,31.436501 C 11.940474,20.09759 22.043105,11.32322 32.158766,21.979434 L 37.068811,17.246167 C 37.068811,17.246167 37.088388,32 37.088388,32 L 22.160133,31.978069 C 22.160133,31.978069 26.997745,27.140456 26.997745,27.140456 C 18.528582,18.264221 13.291696,25.230495 11.500037,31.436501 z"
             style="fill:#404040;"/>
          </a>
         </g>
        </svg>
</svg>
