<?xml version="1.0" encoding="UTF-8" standalone="no"?>
<!DOCTYPE svg PUBLIC "-//W3C//DTD SVG 1.1//EN"
 "http://www.w3.org/Graphics/SVG/1.1/DTD/svg11.dtd">
<!-- Generated by graphviz version 2.38.0 (20140413.2041)
 -->
<!-- Title: Modules/MUON/MCH/include/MCH/PhysicsCheck.h Pages: 1 -->
<!--zoomable 207 -->
<svg id="main" version="1.1" xmlns="http://www.w3.org/2000/svg" xmlns:xlink="http://www.w3.org/1999/xlink" xml:space="preserve" onload="init(evt)">
<style type="text/css"><![CDATA[
.edge:hover path { stroke: red; }
.edge:hover polygon { stroke: red; fill: red; }
]]></style>
<script type="text/javascript"><![CDATA[
var edges = document.getElementsByTagName('g');
if (edges && edges.length) {
  for (var i=0;i<edges.length;i++) {
    if (edges[i].id.substr(0,4)=='edge') {
      edges[i].setAttribute('class','edge');
    }
  }
}
]]></script>
        <defs>
                <circle id="rim" cx="0" cy="0" r="7"/>
                <circle id="rim2" cx="0" cy="0" r="3.5"/>
                <g id="zoomPlus">
                        <use xlink:href="#rim" fill="#404040">
                                <set attributeName="fill" to="#808080" begin="zoomplus.mouseover" end="zoomplus.mouseout"/>
                        </use>
                        <path d="M-4,0h8M0,-4v8" fill="none" stroke="white" stroke-width="1.5" pointer-events="none"/>
                </g>
                <g id="zoomMin">
                        <use xlink:href="#rim" fill="#404040">
                                <set attributeName="fill" to="#808080" begin="zoomminus.mouseover" end="zoomminus.mouseout"/>
                        </use>
                        <path d="M-4,0h8" fill="none" stroke="white" stroke-width="1.5" pointer-events="none"/>
                </g>
                <g id="dirArrow">
                        <path fill="none" stroke="white" stroke-width="1.5" d="M0,-3.0v7 M-2.5,-0.5L0,-3.0L2.5,-0.5"/>
                </g>
               <g id="resetDef">
                       <use xlink:href="#rim2" fill="#404040">
                               <set attributeName="fill" to="#808080" begin="reset.mouseover" end="reset.mouseout"/>
                       </use>
               </g>
        </defs>

<script type="text/javascript">
var viewWidth = 575;
var viewHeight = 207;
var sectionId = 'dynsection-0';
</script>
<script xlink:href="svgpan.js"/>
<svg id="graph" class="graph">
<g id="viewport">
<title>Modules/MUON/MCH/include/MCH/PhysicsCheck.h</title>
<!-- Node1 -->
<g id="node1" class="node"><title>Node1</title>
<polygon fill="#bfbfbf" stroke="black" points="73.4111,-168.5 73.4111,-198.5 220.411,-198.5 220.411,-168.5 73.4111,-168.5"/>
<text text-anchor="start" x="81.4111" y="-186.5" font-family="Helvetica,sans-Serif" font-size="10.00">Modules/MUON/MCH/include</text>
<text text-anchor="middle" x="146.911" y="-175.5" font-family="Helvetica,sans-Serif" font-size="10.00">/MCH/PhysicsCheck.h</text>
</g>
<!-- Node2 -->
<g id="node2" class="node"><title>Node2</title>
<g id="a_node2"><a xlink:href="CheckInterface_8h.html" target="_top" xlink:title="QualityControl/CheckInterface.h">
<polygon fill="none" stroke="black" points="122.411,-112.5 122.411,-131.5 279.411,-131.5 279.411,-112.5 122.411,-112.5"/>
<text text-anchor="middle" x="200.911" y="-119.5" font-family="Helvetica,sans-Serif" font-size="10.00">QualityControl/CheckInterface.h</text>
</a>
</g>
</g>
<!-- Node1&#45;&gt;Node2 -->
<g id="edge1" class="edge"><title>Node1&#45;&gt;Node2</title>
<path fill="none" stroke="midnightblue" d="M159.708,-168.399C167.636,-159.664 177.848,-148.413 186.121,-139.296"/>
<polygon fill="midnightblue" stroke="midnightblue" points="188.925,-141.415 193.054,-131.658 183.741,-136.711 188.925,-141.415"/>
</g>
<!-- Node3 -->
<g id="node3" class="node"><title>Node3</title>
<polygon fill="none" stroke="#bfbfbf" points="15.4111,-0.5 15.4111,-19.5 56.4111,-19.5 56.4111,-0.5 15.4111,-0.5"/>
<text text-anchor="middle" x="35.9111" y="-7.5" font-family="Helvetica,sans-Serif" font-size="10.00">string</text>
</g>
<!-- Node1&#45;&gt;Node3 -->
<g id="edge18" class="edge"><title>Node1&#45;&gt;Node3</title>
<path fill="none" stroke="midnightblue" d="M112.741,-168.465C77.8691,-152.058 25.7294,-121.257 2.91106,-76 -5.48773,-59.3422 6.72684,-40.3168 18.6008,-27.1733"/>
<polygon fill="midnightblue" stroke="midnightblue" points="21.2905,-29.4282 25.7627,-19.8235 16.2771,-24.5429 21.2905,-29.4282"/>
</g>
<!-- Node7 -->
<g id="node7" class="node"><title>Node7</title>
<g id="a_node7"><a xlink:href="MonitorObject_8h.html" target="_top" xlink:title="QualityControl/MonitorObject.h">
<polygon fill="none" stroke="black" points="337.411,-56.5 337.411,-75.5 488.411,-75.5 488.411,-56.5 337.411,-56.5"/>
<text text-anchor="middle" x="412.911" y="-63.5" font-family="Helvetica,sans-Serif" font-size="10.00">QualityControl/MonitorObject.h</text>
</a>
</g>
</g>
<!-- Node1&#45;&gt;Node7 -->
<g id="edge16" class="edge"><title>Node1&#45;&gt;Node7</title>
<path fill="none" stroke="midnightblue" d="M191.017,-168.419C219.122,-159.028 256.099,-145.891 287.911,-132 323.927,-116.272 363.973,-94.6826 388.803,-80.7843"/>
<polygon fill="midnightblue" stroke="midnightblue" points="390.85,-83.6482 397.842,-75.6879 387.412,-77.5507 390.85,-83.6482"/>
</g>
<!-- Node10 -->
<g id="node10" class="node"><title>Node10</title>
<g id="a_node10"><a xlink:href="Quality_8h.html" target="_top" xlink:title="QualityControl/Quality.h">
<polygon fill="none" stroke="black" points="20.4111,-56.5 20.4111,-75.5 141.411,-75.5 141.411,-56.5 20.4111,-56.5"/>
<text text-anchor="middle" x="80.9111" y="-63.5" font-family="Helvetica,sans-Serif" font-size="10.00">QualityControl/Quality.h</text>
</a>
</g>
</g>
<!-- Node1&#45;&gt;Node10 -->
<g id="edge17" class="edge"><title>Node1&#45;&gt;Node10</title>
<path fill="none" stroke="midnightblue" d="M136.559,-168.248C129.531,-158.31 120.222,-144.621 112.911,-132 103.957,-116.541 95.0882,-98.2279 88.9666,-84.986"/>
<polygon fill="midnightblue" stroke="midnightblue" points="92.0251,-83.2566 84.697,-75.6048 85.6539,-86.1563 92.0251,-83.2566"/>
</g>
<!-- Node2&#45;&gt;Node3 -->
<g id="edge2" class="edge"><title>Node2&#45;&gt;Node3</title>
<path fill="none" stroke="midnightblue" d="M123.976,-112.487C77.7452,-105.608 25.1833,-94.0473 10.9111,-76 -0.392479,-61.7066 10.2793,-41.7132 20.9687,-27.6859"/>
<polygon fill="midnightblue" stroke="midnightblue" points="23.7828,-29.7743 27.4304,-19.8271 18.3758,-25.3285 23.7828,-29.7743"/>
</g>
<!-- Node4 -->
<g id="node4" class="node"><title>Node4</title>
<polygon fill="none" stroke="#bfbfbf" points="301.411,-0.5 301.411,-19.5 336.411,-19.5 336.411,-0.5 301.411,-0.5"/>
<text text-anchor="middle" x="318.911" y="-7.5" font-family="Helvetica,sans-Serif" font-size="10.00">map</text>
</g>
<!-- Node2&#45;&gt;Node4 -->
<g id="edge3" class="edge"><title>Node2&#45;&gt;Node4</title>
<path fill="none" stroke="midnightblue" d="M216.537,-112.415C230.792,-104.159 251.997,-90.78 267.911,-76 283.453,-61.5657 298.056,-42.1188 307.62,-28.2664"/>
<polygon fill="midnightblue" stroke="midnightblue" points="310.705,-29.9507 313.385,-19.7005 304.898,-26.0422 310.705,-29.9507"/>
</g>
<!-- Node5 -->
<g id="node5" class="node"><title>Node5</title>
<polygon fill="none" stroke="#bfbfbf" points="159.411,-56.5 159.411,-75.5 242.411,-75.5 242.411,-56.5 159.411,-56.5"/>
<text text-anchor="middle" x="200.911" y="-63.5" font-family="Helvetica,sans-Serif" font-size="10.00">unordered_map</text>
</g>
<!-- Node2&#45;&gt;Node5 -->
<g id="edge4" class="edge"><title>Node2&#45;&gt;Node5</title>
<path fill="none" stroke="midnightblue" d="M200.911,-112.083C200.911,-105.006 200.911,-94.8611 200.911,-85.9865"/>
<polygon fill="midnightblue" stroke="midnightblue" points="204.411,-85.751 200.911,-75.7511 197.411,-85.7511 204.411,-85.751"/>
</g>
<!-- Node6 -->
<g id="node6" class="node"><title>Node6</title>
<polygon fill="none" stroke="#bfbfbf" points="226.911,-0.5 226.911,-19.5 282.911,-19.5 282.911,-0.5 226.911,-0.5"/>
<text text-anchor="middle" x="254.911" y="-7.5" font-family="Helvetica,sans-Serif" font-size="10.00">Rtypes.h</text>
</g>
<!-- Node2&#45;&gt;Node6 -->
<g id="edge5" class="edge"><title>Node2&#45;&gt;Node6</title>
<path fill="none" stroke="midnightblue" d="M215.612,-112.358C227.439,-104.514 243.296,-91.7759 250.911,-76 257.899,-61.5226 258.359,-43.0754 257.386,-29.5343"/>
<polygon fill="midnightblue" stroke="midnightblue" points="260.859,-29.093 256.344,-19.5085 253.897,-29.8168 260.859,-29.093"/>
</g>
<!-- Node2&#45;&gt;Node7 -->
<g id="edge6" class="edge"><title>Node2&#45;&gt;Node7</title>
<path fill="none" stroke="midnightblue" d="M234.503,-112.444C271.098,-103.122 329.749,-88.1828 369.737,-77.9972"/>
<polygon fill="midnightblue" stroke="midnightblue" points="370.65,-81.3766 379.476,-75.5164 368.922,-74.5932 370.65,-81.3766"/>
</g>
<!-- Node2&#45;&gt;Node10 -->
<g id="edge12" class="edge"><title>Node2&#45;&gt;Node10</title>
<path fill="none" stroke="midnightblue" d="M181.897,-112.444C162.323,-103.636 131.603,-89.8116 109.182,-79.722"/>
<polygon fill="midnightblue" stroke="midnightblue" points="110.392,-76.4284 99.8365,-75.5164 107.519,-82.8119 110.392,-76.4284"/>
</g>
<!-- Node7&#45;&gt;Node3 -->
<g id="edge7" class="edge"><title>Node7&#45;&gt;Node3</title>
<path fill="none" stroke="midnightblue" d="M353.174,-56.4435C271.722,-44.7767 128.827,-24.309 66.4672,-15.3767"/>
<polygon fill="midnightblue" stroke="midnightblue" points="66.8757,-11.8996 56.4805,-13.9463 65.8832,-18.8289 66.8757,-11.8996"/>
</g>
<!-- Node7&#45;&gt;Node4 -->
<g id="edge8" class="edge"><title>Node7&#45;&gt;Node4</title>
<path fill="none" stroke="midnightblue" d="M397.808,-56.324C383.008,-47.8215 360.217,-34.7288 342.929,-24.7975"/>
<polygon fill="midnightblue" stroke="midnightblue" points="344.391,-21.6009 333.976,-19.6545 340.904,-27.6707 344.391,-21.6009"/>
</g>
<!-- Node7&#45;&gt;Node6 -->
<g id="edge9" class="edge"><title>Node7&#45;&gt;Node6</title>
<path fill="none" stroke="midnightblue" d="M387.875,-56.4435C361.295,-47.3591 319.102,-32.9388 289.388,-22.7831"/>
<polygon fill="midnightblue" stroke="midnightblue" points="290.424,-19.4386 279.83,-19.5164 288.16,-26.0625 290.424,-19.4386"/>
</g>
<!-- Node8 -->
<g id="node8" class="node"><title>Node8</title>
<polygon fill="none" stroke="#bfbfbf" points="373.411,-0.5 373.411,-19.5 432.411,-19.5 432.411,-0.5 373.411,-0.5"/>
<text text-anchor="middle" x="402.911" y="-7.5" font-family="Helvetica,sans-Serif" font-size="10.00">TObject.h</text>
</g>
<!-- Node7&#45;&gt;Node8 -->
<g id="edge10" class="edge"><title>Node7&#45;&gt;Node8</title>
<path fill="none" stroke="midnightblue" d="M411.26,-56.083C409.935,-48.9272 408.029,-38.6353 406.372,-29.6911"/>
<polygon fill="midnightblue" stroke="midnightblue" points="409.794,-28.9466 404.532,-19.7511 402.911,-30.2212 409.794,-28.9466"/>
</g>
<!-- Node9 -->
<g id="node9" class="node"><title>Node9</title>
<polygon fill="none" stroke="#bfbfbf" points="450.911,-0.5 450.911,-19.5 566.911,-19.5 566.911,-0.5 450.911,-0.5"/>
<text text-anchor="middle" x="508.911" y="-7.5" font-family="Helvetica,sans-Serif" font-size="10.00">Common/Exceptions.h</text>
</g>
<!-- Node7&#45;&gt;Node9 -->
<g id="edge11" class="edge"><title>Node7&#45;&gt;Node9</title>
<path fill="none" stroke="midnightblue" d="M428.335,-56.324C443.451,-47.8215 466.726,-34.7288 484.382,-24.7975"/>
<polygon fill="midnightblue" stroke="midnightblue" points="486.525,-27.6077 493.525,-19.6545 483.094,-21.5066 486.525,-27.6077"/>
</g>
<!-- Node10&#45;&gt;Node3 -->
<g id="edge14" class="edge"><title>Node10&#45;&gt;Node3</title>
<path fill="none" stroke="midnightblue" d="M73.4802,-56.083C67.0584,-48.3768 57.6055,-37.0333 49.7886,-27.6531"/>
<polygon fill="midnightblue" stroke="midnightblue" points="52.2943,-25.1927 43.2036,-19.7511 46.9167,-29.674 52.2943,-25.1927"/>
</g>
<!-- Node10&#45;&gt;Node4 -->
<g id="edge15" class="edge"><title>Node10&#45;&gt;Node4</title>
<path fill="none" stroke="midnightblue" d="M128.203,-56.481C169.022,-48.7769 229.707,-36.4876 291.376,-19.8918"/>
<polygon fill="midnightblue" stroke="midnightblue" points="292.552,-23.1989 301.279,-17.1913 290.71,-16.4455 292.552,-23.1989"/>
</g>
<!-- Node10&#45;&gt;Node6 -->
<g id="edge13" class="edge"><title>Node10&#45;&gt;Node6</title>
<path fill="none" stroke="midnightblue" d="M108.482,-56.4435C138.008,-47.2801 185.029,-32.6876 217.794,-22.5192"/>
<polygon fill="midnightblue" stroke="midnightblue" points="218.956,-25.8232 227.469,-19.5164 216.881,-19.1378 218.956,-25.8232"/>
</g>
</g>
</svg>
        <g id="navigator" transform="translate(0 0)" fill="#404254">
                <rect fill="#f2f5e9" fill-opacity="0.5" stroke="#606060" stroke-width=".5" x="0" y="0" width="60" height="60"/>
                <use id="zoomplus" xlink:href="#zoomPlus" x="17" y="9" onmousedown="handleZoom(evt,'in')"/>
                <use id="zoomminus" xlink:href="#zoomMin" x="42" y="9" onmousedown="handleZoom(evt,'out')"/>
                <use id="reset" xlink:href="#resetDef" x="30" y="36" onmousedown="handleReset()"/>
                <g id="arrowUp" xlink:href="#dirArrow" transform="translate(30 24)" onmousedown="handlePan(0,-1)">
                  <use xlink:href="#rim" fill="#404040">
                        <set attributeName="fill" to="#808080" begin="arrowUp.mouseover" end="arrowUp.mouseout"/>
                  </use>
                  <path fill="none" stroke="white" stroke-width="1.5" d="M0,-3.0v7 M-2.5,-0.5L0,-3.0L2.5,-0.5"/>
                </g>
                <g id="arrowRight" xlink:href="#dirArrow" transform="rotate(90) translate(36 -43)" onmousedown="handlePan(1,0)">
                  <use xlink:href="#rim" fill="#404040">
                        <set attributeName="fill" to="#808080" begin="arrowRight.mouseover" end="arrowRight.mouseout"/>
                  </use>
                  <path fill="none" stroke="white" stroke-width="1.5" d="M0,-3.0v7 M-2.5,-0.5L0,-3.0L2.5,-0.5"/>
                </g>
                <g id="arrowDown" xlink:href="#dirArrow" transform="rotate(180) translate(-30 -48)" onmousedown="handlePan(0,1)">
                  <use xlink:href="#rim" fill="#404040">
                        <set attributeName="fill" to="#808080" begin="arrowDown.mouseover" end="arrowDown.mouseout"/>
                  </use>
                  <path fill="none" stroke="white" stroke-width="1.5" d="M0,-3.0v7 M-2.5,-0.5L0,-3.0L2.5,-0.5"/>
                </g>
                <g id="arrowLeft" xlink:href="#dirArrow" transform="rotate(270) translate(-36 17)" onmousedown="handlePan(-1,0)">
                  <use xlink:href="#rim" fill="#404040">
                        <set attributeName="fill" to="#808080" begin="arrowLeft.mouseover" end="arrowLeft.mouseout"/>
                  </use>
                  <path fill="none" stroke="white" stroke-width="1.5" d="M0,-3.0v7 M-2.5,-0.5L0,-3.0L2.5,-0.5"/>
                </g>
        </g>
        <svg viewBox="0 0 15 15" width="100%" height="30px" preserveAspectRatio="xMaxYMin meet">
         <g id="arrow_out" transform="scale(0.3 0.3)">
          <a xlink:href="PhysicsCheck_8h__incl_org.svg" target="_base">
           <rect id="button" ry="5" rx="5" y="6" x="6" height="38" width="38"
                fill="#f2f5e9" fill-opacity="0.5" stroke="#606060" stroke-width="1.0"/>
           <path id="arrow"
             d="M 11.500037,31.436501 C 11.940474,20.09759 22.043105,11.32322 32.158766,21.979434 L 37.068811,17.246167 C 37.068811,17.246167 37.088388,32 37.088388,32 L 22.160133,31.978069 C 22.160133,31.978069 26.997745,27.140456 26.997745,27.140456 C 18.528582,18.264221 13.291696,25.230495 11.500037,31.436501 z"
             style="fill:#404040;"/>
          </a>
         </g>
        </svg>
</svg>
