<?xml version="1.0" encoding="UTF-8" standalone="no"?>
<!DOCTYPE svg PUBLIC "-//W3C//DTD SVG 1.1//EN"
 "http://www.w3.org/Graphics/SVG/1.1/DTD/svg11.dtd">
<!-- Generated by graphviz version 2.38.0 (20140413.2041)
 -->
<!-- Title: Modules/MID/src/runMID.cxx Pages: 1 -->
<svg width="2658pt" height="274pt"
 viewBox="0.00 0.00 2657.72 274.00" xmlns="http://www.w3.org/2000/svg" xmlns:xlink="http://www.w3.org/1999/xlink">
<g id="graph0" class="graph" transform="scale(1 1) rotate(0) translate(4 270)">
<title>Modules/MID/src/runMID.cxx</title>
<!-- Node1 -->
<g id="node1" class="node"><title>Node1</title>
<polygon fill="#bfbfbf" stroke="black" points="1690.22,-246.5 1690.22,-265.5 1836.22,-265.5 1836.22,-246.5 1690.22,-246.5"/>
<text text-anchor="middle" x="1763.22" y="-253.5" font-family="Helvetica,sans-Serif" font-size="10.00">Modules/MID/src/runMID.cxx</text>
</g>
<!-- Node2 -->
<g id="node2" class="node"><title>Node2</title>
<polygon fill="none" stroke="#bfbfbf" points="14.7159,-185 14.7159,-204 165.716,-204 165.716,-185 14.7159,-185"/>
<text text-anchor="middle" x="90.2159" y="-192" font-family="Helvetica,sans-Serif" font-size="10.00">DataSampling/DataSampling.h</text>
</g>
<!-- Node1&#45;&gt;Node2 -->
<g id="edge1" class="edge"><title>Node1&#45;&gt;Node2</title>
<path fill="none" stroke="midnightblue" d="M1689.81,-254.292C1418.82,-251.462 474.897,-239.659 175.216,-210 164.83,-208.972 153.796,-207.429 143.238,-205.727"/>
<polygon fill="midnightblue" stroke="midnightblue" points="143.74,-202.262 133.299,-204.058 142.581,-209.165 143.74,-202.262"/>
</g>
<!-- Node3 -->
<g id="node3" class="node"><title>Node3</title>
<g id="a_node3"><a xlink:href="InfrastructureGenerator_8h.html" target="_top" xlink:title="QualityControl/Infrastructure\lGenerator.h">
<polygon fill="none" stroke="black" points="184.216,-179.5 184.216,-209.5 324.216,-209.5 324.216,-179.5 184.216,-179.5"/>
<text text-anchor="start" x="192.216" y="-197.5" font-family="Helvetica,sans-Serif" font-size="10.00">QualityControl/Infrastructure</text>
<text text-anchor="middle" x="254.216" y="-186.5" font-family="Helvetica,sans-Serif" font-size="10.00">Generator.h</text>
</a>
</g>
</g>
<!-- Node1&#45;&gt;Node3 -->
<g id="edge2" class="edge"><title>Node1&#45;&gt;Node3</title>
<path fill="none" stroke="midnightblue" d="M1690.18,-252.12C1437.14,-242.143 599.02,-209.096 334.763,-198.676"/>
<polygon fill="midnightblue" stroke="midnightblue" points="334.612,-195.167 324.481,-198.271 334.336,-202.162 334.612,-195.167"/>
</g>
<!-- Node8 -->
<g id="node8" class="node"><title>Node8</title>
<polygon fill="none" stroke="#bfbfbf" points="1791.72,-185 1791.72,-204 1862.72,-204 1862.72,-185 1791.72,-185"/>
<text text-anchor="middle" x="1827.22" y="-192" font-family="Helvetica,sans-Serif" font-size="10.00">FairLogger.h</text>
</g>
<!-- Node1&#45;&gt;Node8 -->
<g id="edge7" class="edge"><title>Node1&#45;&gt;Node8</title>
<path fill="none" stroke="midnightblue" d="M1772.39,-246.475C1782.37,-237.197 1798.53,-222.171 1810.73,-210.831"/>
<polygon fill="midnightblue" stroke="midnightblue" points="1813.12,-213.381 1818.06,-204.009 1808.36,-208.255 1813.12,-213.381"/>
</g>
<!-- Node9 -->
<g id="node9" class="node"><title>Node9</title>
<polygon fill="none" stroke="#bfbfbf" points="1822.22,-123.5 1822.22,-142.5 1872.22,-142.5 1872.22,-123.5 1822.22,-123.5"/>
<text text-anchor="middle" x="1847.22" y="-130.5" font-family="Helvetica,sans-Serif" font-size="10.00">TH1F.h</text>
</g>
<!-- Node1&#45;&gt;Node9 -->
<g id="edge8" class="edge"><title>Node1&#45;&gt;Node9</title>
<path fill="none" stroke="midnightblue" d="M1757.9,-246.256C1749.53,-231.267 1735.6,-200.233 1749.22,-179 1756.58,-167.521 1787.29,-154.536 1812.4,-145.475"/>
<polygon fill="midnightblue" stroke="midnightblue" points="1813.76,-148.707 1822.03,-142.087 1811.44,-142.103 1813.76,-148.707"/>
</g>
<!-- Node10 -->
<g id="node10" class="node"><title>Node10</title>
<polygon fill="none" stroke="#bfbfbf" points="1192.22,-123.5 1192.22,-142.5 1244.22,-142.5 1244.22,-123.5 1192.22,-123.5"/>
<text text-anchor="middle" x="1218.22" y="-130.5" font-family="Helvetica,sans-Serif" font-size="10.00">memory</text>
</g>
<!-- Node1&#45;&gt;Node10 -->
<g id="edge9" class="edge"><title>Node1&#45;&gt;Node10</title>
<path fill="none" stroke="midnightblue" d="M1690.05,-250.504C1619.37,-244.989 1509.72,-233.333 1417.22,-210 1354.01,-194.059 1283.51,-164.044 1245.72,-146.89"/>
<polygon fill="midnightblue" stroke="midnightblue" points="1246.95,-143.604 1236.4,-142.619 1244.03,-149.967 1246.95,-143.604"/>
</g>
<!-- Node11 -->
<g id="node11" class="node"><title>Node11</title>
<polygon fill="none" stroke="#bfbfbf" points="1880.72,-185 1880.72,-204 1929.72,-204 1929.72,-185 1880.72,-185"/>
<text text-anchor="middle" x="1905.22" y="-192" font-family="Helvetica,sans-Serif" font-size="10.00">random</text>
</g>
<!-- Node1&#45;&gt;Node11 -->
<g id="edge10" class="edge"><title>Node1&#45;&gt;Node11</title>
<path fill="none" stroke="midnightblue" d="M1784.58,-246.346C1806.6,-237.387 1841.89,-222.92 1872.22,-210 1873.62,-209.402 1875.05,-208.787 1876.5,-208.162"/>
<polygon fill="midnightblue" stroke="midnightblue" points="1878.28,-211.206 1886.05,-204.007 1875.49,-204.788 1878.28,-211.206"/>
</g>
<!-- Node12 -->
<g id="node12" class="node"><title>Node12</title>
<polygon fill="none" stroke="#bfbfbf" points="1948.22,-185 1948.22,-204 2108.22,-204 2108.22,-185 1948.22,-185"/>
<text text-anchor="middle" x="2028.22" y="-192" font-family="Helvetica,sans-Serif" font-size="10.00">Framework/runDataProcessing.h</text>
</g>
<!-- Node1&#45;&gt;Node12 -->
<g id="edge11" class="edge"><title>Node1&#45;&gt;Node12</title>
<path fill="none" stroke="midnightblue" d="M1801.18,-246.475C1848.41,-235.871 1929.07,-217.76 1980.45,-206.224"/>
<polygon fill="midnightblue" stroke="midnightblue" points="1981.33,-209.615 1990.32,-204.009 1979.79,-202.785 1981.33,-209.615"/>
</g>
<!-- Node13 -->
<g id="node13" class="node"><title>Node13</title>
<g id="a_node13"><a xlink:href="Check_8h_source.html" target="_top" xlink:title="QualityControl/Check.h">
<polygon fill="none" stroke="black" points="921.716,-185 921.716,-204 1040.72,-204 1040.72,-185 921.716,-185"/>
<text text-anchor="middle" x="981.216" y="-192" font-family="Helvetica,sans-Serif" font-size="10.00">QualityControl/Check.h</text>
</a>
</g>
</g>
<!-- Node1&#45;&gt;Node13 -->
<g id="edge12" class="edge"><title>Node1&#45;&gt;Node13</title>
<path fill="none" stroke="midnightblue" d="M1690,-249.429C1539.74,-237.996 1198.3,-212.017 1051,-200.81"/>
<polygon fill="midnightblue" stroke="midnightblue" points="1050.97,-197.297 1040.74,-200.029 1050.44,-204.277 1050.97,-197.297"/>
</g>
<!-- Node28 -->
<g id="node28" class="node"><title>Node28</title>
<g id="a_node28"><a xlink:href="runnerUtils_8h.html" target="_top" xlink:title="QualityControl/runnerUtils.h">
<polygon fill="none" stroke="black" points="1463.72,-67.5 1463.72,-86.5 1600.72,-86.5 1600.72,-67.5 1463.72,-67.5"/>
<text text-anchor="middle" x="1532.22" y="-74.5" font-family="Helvetica,sans-Serif" font-size="10.00">QualityControl/runnerUtils.h</text>
</a>
</g>
</g>
<!-- Node1&#45;&gt;Node28 -->
<g id="edge47" class="edge"><title>Node1&#45;&gt;Node28</title>
<path fill="none" stroke="midnightblue" d="M1763.04,-246.274C1763.21,-230.752 1765.77,-198.178 1783.22,-179 1816.97,-141.888 1914.34,-160.672 1881.22,-123 1863.66,-103.033 1708.59,-89.4124 1611.15,-82.7403"/>
<polygon fill="midnightblue" stroke="midnightblue" points="1611.24,-79.2387 1601.03,-82.0581 1610.77,-86.2229 1611.24,-79.2387"/>
</g>
<!-- Node30 -->
<g id="node30" class="node"><title>Node30</title>
<g id="a_node30"><a xlink:href="ExamplePrinterSpec_8h.html" target="_top" xlink:title="QualityControl/ExamplePrinter\lSpec.h">
<polygon fill="none" stroke="black" points="1426.72,-179.5 1426.72,-209.5 1575.72,-209.5 1575.72,-179.5 1426.72,-179.5"/>
<text text-anchor="start" x="1434.72" y="-197.5" font-family="Helvetica,sans-Serif" font-size="10.00">QualityControl/ExamplePrinter</text>
<text text-anchor="middle" x="1501.22" y="-186.5" font-family="Helvetica,sans-Serif" font-size="10.00">Spec.h</text>
</a>
</g>
</g>
<!-- Node1&#45;&gt;Node30 -->
<g id="edge51" class="edge"><title>Node1&#45;&gt;Node30</title>
<path fill="none" stroke="midnightblue" d="M1725.68,-246.475C1685.97,-237.456 1622.34,-223.008 1572.96,-211.792"/>
<polygon fill="midnightblue" stroke="midnightblue" points="1573.49,-208.325 1562.96,-209.523 1571.94,-215.151 1573.49,-208.325"/>
</g>
<!-- Node34 -->
<g id="node34" class="node"><title>Node34</title>
<polygon fill="none" stroke="#bfbfbf" points="2126.72,-185 2126.72,-204 2299.72,-204 2299.72,-185 2126.72,-185"/>
<text text-anchor="middle" x="2213.22" y="-192" font-family="Helvetica,sans-Serif" font-size="10.00">DetectorsBase/GeometryManager.h</text>
</g>
<!-- Node1&#45;&gt;Node34 -->
<g id="edge60" class="edge"><title>Node1&#45;&gt;Node34</title>
<path fill="none" stroke="midnightblue" d="M1834.14,-246.481C1905.66,-237.774 2019.19,-223.632 2117.22,-210 2127.34,-208.593 2138.05,-207.038 2148.5,-205.486"/>
<polygon fill="midnightblue" stroke="midnightblue" points="2149.05,-208.944 2158.42,-204.003 2148.01,-202.021 2149.05,-208.944"/>
</g>
<!-- Node35 -->
<g id="node35" class="node"><title>Node35</title>
<polygon fill="none" stroke="#bfbfbf" points="2317.72,-179.5 2317.72,-209.5 2464.72,-209.5 2464.72,-179.5 2317.72,-179.5"/>
<text text-anchor="start" x="2325.72" y="-197.5" font-family="Helvetica,sans-Serif" font-size="10.00">MIDWorkflow/RawAggregator</text>
<text text-anchor="middle" x="2391.22" y="-186.5" font-family="Helvetica,sans-Serif" font-size="10.00">Spec.h</text>
</g>
<!-- Node1&#45;&gt;Node35 -->
<g id="edge61" class="edge"><title>Node1&#45;&gt;Node35</title>
<path fill="none" stroke="midnightblue" d="M1836.3,-251.138C1939.26,-245.216 2133.05,-232.312 2307.38,-210.166"/>
<polygon fill="midnightblue" stroke="midnightblue" points="2308.04,-213.611 2317.51,-208.866 2307.14,-206.668 2308.04,-213.611"/>
</g>
<!-- Node36 -->
<g id="node36" class="node"><title>Node36</title>
<polygon fill="none" stroke="#bfbfbf" points="2482.72,-185 2482.72,-204 2649.72,-204 2649.72,-185 2482.72,-185"/>
<text text-anchor="middle" x="2566.22" y="-192" font-family="Helvetica,sans-Serif" font-size="10.00">MIDWorkflow/RawDecoderSpec.h</text>
</g>
<!-- Node1&#45;&gt;Node36 -->
<g id="edge62" class="edge"><title>Node1&#45;&gt;Node36</title>
<path fill="none" stroke="midnightblue" d="M1836.34,-252.619C1965.42,-247.915 2242.01,-235.591 2474.22,-210 2485.04,-208.807 2496.55,-207.237 2507.62,-205.572"/>
<polygon fill="midnightblue" stroke="midnightblue" points="2508.28,-209.011 2517.63,-204.024 2507.21,-202.093 2508.28,-209.011"/>
</g>
<!-- Node4 -->
<g id="node4" class="node"><title>Node4</title>
<polygon fill="none" stroke="#bfbfbf" points="171.216,-123.5 171.216,-142.5 215.216,-142.5 215.216,-123.5 171.216,-123.5"/>
<text text-anchor="middle" x="193.216" y="-130.5" font-family="Helvetica,sans-Serif" font-size="10.00">vector</text>
</g>
<!-- Node3&#45;&gt;Node4 -->
<g id="edge3" class="edge"><title>Node3&#45;&gt;Node4</title>
<path fill="none" stroke="midnightblue" d="M239.76,-179.399C230.622,-170.486 218.797,-158.952 209.354,-149.741"/>
<polygon fill="midnightblue" stroke="midnightblue" points="211.694,-147.135 202.092,-142.658 206.807,-152.146 211.694,-147.135"/>
</g>
<!-- Node5 -->
<g id="node5" class="node"><title>Node5</title>
<polygon fill="none" stroke="#bfbfbf" points="853.716,-6 853.716,-25 894.716,-25 894.716,-6 853.716,-6"/>
<text text-anchor="middle" x="874.216" y="-13" font-family="Helvetica,sans-Serif" font-size="10.00">string</text>
</g>
<!-- Node3&#45;&gt;Node5 -->
<g id="edge4" class="edge"><title>Node3&#45;&gt;Node5</title>
<path fill="none" stroke="midnightblue" d="M183.994,-180.42C111.065,-166.673 7.12063,-146.55 4.21589,-143 -1.41296,-136.12 -1.38997,-129.898 4.21589,-123 58.4007,-56.3226 694.11,-24.4033 843.107,-17.8093"/>
<polygon fill="midnightblue" stroke="midnightblue" points="843.524,-21.2945 853.362,-17.3617 843.219,-14.3012 843.524,-21.2945"/>
</g>
<!-- Node6 -->
<g id="node6" class="node"><title>Node6</title>
<polygon fill="none" stroke="#bfbfbf" points="13.2159,-123.5 13.2159,-142.5 153.216,-142.5 153.216,-123.5 13.2159,-123.5"/>
<text text-anchor="middle" x="83.2159" y="-130.5" font-family="Helvetica,sans-Serif" font-size="10.00">Framework/WorkflowSpec.h</text>
</g>
<!-- Node3&#45;&gt;Node6 -->
<g id="edge5" class="edge"><title>Node3&#45;&gt;Node6</title>
<path fill="none" stroke="midnightblue" d="M213.691,-179.399C184.488,-169.238 145.499,-155.672 117.767,-146.022"/>
<polygon fill="midnightblue" stroke="midnightblue" points="118.693,-142.639 108.098,-142.658 116.392,-149.25 118.693,-142.639"/>
</g>
<!-- Node7 -->
<g id="node7" class="node"><title>Node7</title>
<polygon fill="none" stroke="#bfbfbf" points="233.216,-123.5 233.216,-142.5 397.216,-142.5 397.216,-123.5 233.216,-123.5"/>
<text text-anchor="middle" x="315.216" y="-130.5" font-family="Helvetica,sans-Serif" font-size="10.00">Framework/DataProcessorSpec.h</text>
</g>
<!-- Node3&#45;&gt;Node7 -->
<g id="edge6" class="edge"><title>Node3&#45;&gt;Node7</title>
<path fill="none" stroke="midnightblue" d="M268.672,-179.399C277.81,-170.486 289.635,-158.952 299.078,-149.741"/>
<polygon fill="midnightblue" stroke="midnightblue" points="301.625,-152.146 306.34,-142.658 296.737,-147.135 301.625,-152.146"/>
</g>
<!-- Node13&#45;&gt;Node4 -->
<g id="edge15" class="edge"><title>Node13&#45;&gt;Node4</title>
<path fill="none" stroke="midnightblue" d="M921.314,-193.873C794.28,-193.724 488.615,-188.381 225.557,-142.849"/>
<polygon fill="midnightblue" stroke="midnightblue" points="225.886,-139.353 215.431,-141.073 224.676,-146.248 225.886,-139.353"/>
</g>
<!-- Node13&#45;&gt;Node7 -->
<g id="edge18" class="edge"><title>Node13&#45;&gt;Node7</title>
<path fill="none" stroke="midnightblue" d="M921.597,-188.481C818.936,-179.791 601.878,-161.208 407.661,-143.127"/>
<polygon fill="midnightblue" stroke="midnightblue" points="407.834,-139.628 397.552,-142.184 407.184,-146.597 407.834,-139.628"/>
</g>
<!-- Node13&#45;&gt;Node10 -->
<g id="edge16" class="edge"><title>Node13&#45;&gt;Node10</title>
<path fill="none" stroke="midnightblue" d="M1015.17,-184.975C1059.56,-173.832 1136.96,-154.4 1182.29,-143.018"/>
<polygon fill="midnightblue" stroke="midnightblue" points="1183.16,-146.411 1192,-140.581 1181.45,-139.621 1183.16,-146.411"/>
</g>
<!-- Node14 -->
<g id="node14" class="node"><title>Node14</title>
<polygon fill="none" stroke="#bfbfbf" points="786.716,-123.5 786.716,-142.5 845.716,-142.5 845.716,-123.5 786.716,-123.5"/>
<text text-anchor="middle" x="816.216" y="-130.5" font-family="Helvetica,sans-Serif" font-size="10.00">functional</text>
</g>
<!-- Node13&#45;&gt;Node14 -->
<g id="edge13" class="edge"><title>Node13&#45;&gt;Node14</title>
<path fill="none" stroke="midnightblue" d="M957.575,-184.975C929.272,-174.769 881.683,-157.608 849.63,-146.049"/>
<polygon fill="midnightblue" stroke="midnightblue" points="850.407,-142.609 839.813,-142.509 848.032,-149.194 850.407,-142.609"/>
</g>
<!-- Node15 -->
<g id="node15" class="node"><title>Node15</title>
<polygon fill="none" stroke="#bfbfbf" points="1110.72,-6 1110.72,-25 1145.72,-25 1145.72,-6 1110.72,-6"/>
<text text-anchor="middle" x="1128.22" y="-13" font-family="Helvetica,sans-Serif" font-size="10.00">map</text>
</g>
<!-- Node13&#45;&gt;Node15 -->
<g id="edge14" class="edge"><title>Node13&#45;&gt;Node15</title>
<path fill="none" stroke="midnightblue" d="M1013.15,-184.971C1035.83,-177.393 1065.47,-164.171 1084.22,-143 1111.87,-111.776 1122.37,-62.2024 1126.18,-35.3231"/>
<polygon fill="midnightblue" stroke="midnightblue" points="1129.67,-35.67 1127.44,-25.3126 1122.72,-34.8002 1129.67,-35.67"/>
</g>
<!-- Node16 -->
<g id="node16" class="node"><title>Node16</title>
<polygon fill="none" stroke="#bfbfbf" points="716.716,-67.5 716.716,-86.5 799.716,-86.5 799.716,-67.5 716.716,-67.5"/>
<text text-anchor="middle" x="758.216" y="-74.5" font-family="Helvetica,sans-Serif" font-size="10.00">unordered_map</text>
</g>
<!-- Node13&#45;&gt;Node16 -->
<g id="edge17" class="edge"><title>Node13&#45;&gt;Node16</title>
<path fill="none" stroke="midnightblue" d="M921.553,-185.421C869.015,-177.143 797.755,-162.699 777.216,-143 764.763,-131.056 760.344,-111.443 758.84,-96.8801"/>
<polygon fill="midnightblue" stroke="midnightblue" points="762.308,-96.2762 758.161,-86.5267 755.323,-96.7343 762.308,-96.2762"/>
</g>
<!-- Node17 -->
<g id="node17" class="node"><title>Node17</title>
<g id="a_node17"><a xlink:href="Quality_8h.html" target="_top" xlink:title="QualityControl/Quality.h">
<polygon fill="none" stroke="black" points="940.716,-67.5 940.716,-86.5 1061.72,-86.5 1061.72,-67.5 940.716,-67.5"/>
<text text-anchor="middle" x="1001.22" y="-74.5" font-family="Helvetica,sans-Serif" font-size="10.00">QualityControl/Quality.h</text>
</a>
</g>
</g>
<!-- Node13&#45;&gt;Node17 -->
<g id="edge19" class="edge"><title>Node13&#45;&gt;Node17</title>
<path fill="none" stroke="midnightblue" d="M1011.1,-184.842C1031.14,-177.305 1056.02,-164.189 1068.22,-143 1080.44,-121.769 1054.86,-102.946 1031.87,-91.0911"/>
<polygon fill="midnightblue" stroke="midnightblue" points="1033.14,-87.818 1022.62,-86.5997 1030.08,-94.1153 1033.14,-87.818"/>
</g>
<!-- Node19 -->
<g id="node19" class="node"><title>Node19</title>
<g id="a_node19"><a xlink:href="QualityObject_8h_source.html" target="_top" xlink:title="QualityControl/QualityObject.h">
<polygon fill="none" stroke="black" points="1299.72,-123.5 1299.72,-142.5 1448.72,-142.5 1448.72,-123.5 1299.72,-123.5"/>
<text text-anchor="middle" x="1374.22" y="-130.5" font-family="Helvetica,sans-Serif" font-size="10.00">QualityControl/QualityObject.h</text>
</a>
</g>
</g>
<!-- Node13&#45;&gt;Node19 -->
<g id="edge23" class="edge"><title>Node13&#45;&gt;Node19</title>
<path fill="none" stroke="midnightblue" d="M1037.52,-184.975C1109.02,-174.15 1232.19,-155.502 1308.09,-144.012"/>
<polygon fill="midnightblue" stroke="midnightblue" points="1308.65,-147.467 1318.01,-142.509 1307.6,-140.546 1308.65,-147.467"/>
</g>
<!-- Node22 -->
<g id="node22" class="node"><title>Node22</title>
<g id="a_node22"><a xlink:href="MonitorObject_8h.html" target="_top" xlink:title="QualityControl/MonitorObject.h">
<polygon fill="none" stroke="black" points="1156.72,-67.5 1156.72,-86.5 1307.72,-86.5 1307.72,-67.5 1156.72,-67.5"/>
<text text-anchor="middle" x="1232.22" y="-74.5" font-family="Helvetica,sans-Serif" font-size="10.00">QualityControl/MonitorObject.h</text>
</a>
</g>
</g>
<!-- Node13&#45;&gt;Node22 -->
<g id="edge28" class="edge"><title>Node13&#45;&gt;Node22</title>
<path fill="none" stroke="midnightblue" d="M1019.1,-184.971C1052.13,-176.725 1100.79,-162.596 1140.22,-143 1168.06,-129.16 1196.8,-107.441 1214.59,-92.967"/>
<polygon fill="midnightblue" stroke="midnightblue" points="1216.92,-95.5828 1222.39,-86.5098 1212.45,-90.1908 1216.92,-95.5828"/>
</g>
<!-- Node23 -->
<g id="node23" class="node"><title>Node23</title>
<g id="a_node23"><a xlink:href="CheckInterface_8h.html" target="_top" xlink:title="QualityControl/CheckInterface.h">
<polygon fill="none" stroke="black" points="902.716,-123.5 902.716,-142.5 1059.72,-142.5 1059.72,-123.5 902.716,-123.5"/>
<text text-anchor="middle" x="981.216" y="-130.5" font-family="Helvetica,sans-Serif" font-size="10.00">QualityControl/CheckInterface.h</text>
</a>
</g>
</g>
<!-- Node13&#45;&gt;Node23 -->
<g id="edge34" class="edge"><title>Node13&#45;&gt;Node23</title>
<path fill="none" stroke="midnightblue" d="M981.216,-184.975C981.216,-176.58 981.216,-163.481 981.216,-152.663"/>
<polygon fill="midnightblue" stroke="midnightblue" points="984.716,-152.509 981.216,-142.509 977.716,-152.509 984.716,-152.509"/>
</g>
<!-- Node24 -->
<g id="node24" class="node"><title>Node24</title>
<g id="a_node24"><a xlink:href="QcInfoLogger_8h.html" target="_top" xlink:title="QualityControl/QcInfoLogger.h">
<polygon fill="none" stroke="black" points="415.716,-123.5 415.716,-142.5 564.716,-142.5 564.716,-123.5 415.716,-123.5"/>
<text text-anchor="middle" x="490.216" y="-130.5" font-family="Helvetica,sans-Serif" font-size="10.00">QualityControl/QcInfoLogger.h</text>
</a>
</g>
</g>
<!-- Node13&#45;&gt;Node24 -->
<g id="edge41" class="edge"><title>Node13&#45;&gt;Node24</title>
<path fill="none" stroke="midnightblue" d="M921.501,-186.264C833.627,-175.615 669.277,-155.699 570.795,-143.765"/>
<polygon fill="midnightblue" stroke="midnightblue" points="570.941,-140.257 560.593,-142.528 570.099,-147.206 570.941,-140.257"/>
</g>
<!-- Node27 -->
<g id="node27" class="node"><title>Node27</title>
<g id="a_node27"><a xlink:href="CheckConfig_8h.html" target="_top" xlink:title="QualityControl/CheckConfig.h">
<polygon fill="none" stroke="black" points="582.716,-123.5 582.716,-142.5 729.716,-142.5 729.716,-123.5 582.716,-123.5"/>
<text text-anchor="middle" x="656.216" y="-130.5" font-family="Helvetica,sans-Serif" font-size="10.00">QualityControl/CheckConfig.h</text>
</a>
</g>
</g>
<!-- Node13&#45;&gt;Node27 -->
<g id="edge44" class="edge"><title>Node13&#45;&gt;Node27</title>
<path fill="none" stroke="midnightblue" d="M934.651,-184.975C876.127,-174.261 775.74,-155.882 712.837,-144.366"/>
<polygon fill="midnightblue" stroke="midnightblue" points="713.161,-140.867 702.694,-142.509 711.9,-147.753 713.161,-140.867"/>
</g>
<!-- Node17&#45;&gt;Node5 -->
<g id="edge21" class="edge"><title>Node17&#45;&gt;Node5</title>
<path fill="none" stroke="midnightblue" d="M983.02,-67.4751C961.706,-57.4897 926.185,-40.8476 901.553,-29.3075"/>
<polygon fill="midnightblue" stroke="midnightblue" points="902.918,-26.0822 892.378,-25.0091 899.949,-32.4211 902.918,-26.0822"/>
</g>
<!-- Node17&#45;&gt;Node15 -->
<g id="edge22" class="edge"><title>Node17&#45;&gt;Node15</title>
<path fill="none" stroke="midnightblue" d="M1019.41,-67.4751C1040.85,-57.4329 1076.65,-40.6583 1101.3,-29.1113"/>
<polygon fill="midnightblue" stroke="midnightblue" points="1102.89,-32.2292 1110.46,-24.8173 1099.92,-25.8904 1102.89,-32.2292"/>
</g>
<!-- Node18 -->
<g id="node18" class="node"><title>Node18</title>
<polygon fill="none" stroke="#bfbfbf" points="973.216,-6 973.216,-25 1029.22,-25 1029.22,-6 973.216,-6"/>
<text text-anchor="middle" x="1001.22" y="-13" font-family="Helvetica,sans-Serif" font-size="10.00">Rtypes.h</text>
</g>
<!-- Node17&#45;&gt;Node18 -->
<g id="edge20" class="edge"><title>Node17&#45;&gt;Node18</title>
<path fill="none" stroke="midnightblue" d="M1001.22,-67.4751C1001.22,-59.0803 1001.22,-45.9806 1001.22,-35.1631"/>
<polygon fill="midnightblue" stroke="midnightblue" points="1004.72,-35.0091 1001.22,-25.0091 997.716,-35.0091 1004.72,-35.0091"/>
</g>
<!-- Node19&#45;&gt;Node15 -->
<g id="edge24" class="edge"><title>Node19&#45;&gt;Node15</title>
<path fill="none" stroke="midnightblue" d="M1368.95,-123.389C1359.93,-109.385 1340.16,-81.7596 1316.22,-67 1265.07,-35.4753 1194.29,-23.3809 1155.82,-18.9333"/>
<polygon fill="midnightblue" stroke="midnightblue" points="1156.18,-15.4523 1145.86,-17.8719 1155.44,-22.4128 1156.18,-15.4523"/>
</g>
<!-- Node19&#45;&gt;Node17 -->
<g id="edge27" class="edge"><title>Node19&#45;&gt;Node17</title>
<path fill="none" stroke="midnightblue" d="M1315.11,-123.444C1248.54,-113.806 1140.49,-98.1635 1070.14,-87.9782"/>
<polygon fill="midnightblue" stroke="midnightblue" points="1070.44,-84.4854 1060.04,-86.5164 1069.44,-91.4132 1070.44,-84.4854"/>
</g>
<!-- Node20 -->
<g id="node20" class="node"><title>Node20</title>
<polygon fill="none" stroke="#bfbfbf" points="1233.72,-6 1233.72,-25 1292.72,-25 1292.72,-6 1233.72,-6"/>
<text text-anchor="middle" x="1263.22" y="-13" font-family="Helvetica,sans-Serif" font-size="10.00">TObject.h</text>
</g>
<!-- Node19&#45;&gt;Node20 -->
<g id="edge25" class="edge"><title>Node19&#45;&gt;Node20</title>
<path fill="none" stroke="midnightblue" d="M1372.97,-123.487C1370.63,-110.107 1364.46,-83.9392 1350.22,-67 1336.08,-50.1971 1314.85,-37.7186 1296.9,-29.3696"/>
<polygon fill="midnightblue" stroke="midnightblue" points="1297.89,-25.9824 1287.33,-25.1548 1295.07,-32.3886 1297.89,-25.9824"/>
</g>
<!-- Node21 -->
<g id="node21" class="node"><title>Node21</title>
<polygon fill="none" stroke="#bfbfbf" points="1342.22,-6 1342.22,-25 1458.22,-25 1458.22,-6 1342.22,-6"/>
<text text-anchor="middle" x="1400.22" y="-13" font-family="Helvetica,sans-Serif" font-size="10.00">Common/Exceptions.h</text>
</g>
<!-- Node19&#45;&gt;Node21 -->
<g id="edge26" class="edge"><title>Node19&#45;&gt;Node21</title>
<path fill="none" stroke="midnightblue" d="M1377.24,-123.468C1380.34,-114.486 1385.13,-99.89 1388.22,-87 1392.37,-69.6605 1395.64,-49.5893 1397.71,-35.3077"/>
<polygon fill="midnightblue" stroke="midnightblue" points="1401.2,-35.645 1399.11,-25.2583 1394.26,-34.6809 1401.2,-35.645"/>
</g>
<!-- Node22&#45;&gt;Node5 -->
<g id="edge29" class="edge"><title>Node22&#45;&gt;Node5</title>
<path fill="none" stroke="midnightblue" d="M1180.92,-67.4751C1105.41,-54.9254 966.642,-31.8612 905.055,-21.6255"/>
<polygon fill="midnightblue" stroke="midnightblue" points="905.265,-18.1125 894.827,-19.9256 904.118,-25.0178 905.265,-18.1125"/>
</g>
<!-- Node22&#45;&gt;Node15 -->
<g id="edge30" class="edge"><title>Node22&#45;&gt;Node15</title>
<path fill="none" stroke="midnightblue" d="M1217.32,-67.4751C1200.25,-57.7106 1172.05,-41.5807 1151.95,-30.0808"/>
<polygon fill="midnightblue" stroke="midnightblue" points="1153.51,-26.9371 1143.09,-25.0091 1150.03,-33.013 1153.51,-26.9371"/>
</g>
<!-- Node22&#45;&gt;Node18 -->
<g id="edge31" class="edge"><title>Node22&#45;&gt;Node18</title>
<path fill="none" stroke="midnightblue" d="M1199.12,-67.4751C1156.87,-56.594 1083.94,-37.8086 1039.39,-26.3338"/>
<polygon fill="midnightblue" stroke="midnightblue" points="1040.09,-22.8977 1029.53,-23.7926 1038.34,-29.6764 1040.09,-22.8977"/>
</g>
<!-- Node22&#45;&gt;Node20 -->
<g id="edge32" class="edge"><title>Node22&#45;&gt;Node20</title>
<path fill="none" stroke="midnightblue" d="M1236.66,-67.4751C1241.17,-58.8152 1248.29,-45.1486 1254.02,-34.1453"/>
<polygon fill="midnightblue" stroke="midnightblue" points="1257.27,-35.4948 1258.78,-25.0091 1251.06,-32.2604 1257.27,-35.4948"/>
</g>
<!-- Node22&#45;&gt;Node21 -->
<g id="edge33" class="edge"><title>Node22&#45;&gt;Node21</title>
<path fill="none" stroke="midnightblue" d="M1256.29,-67.4751C1285.23,-57.2246 1333.98,-39.9593 1366.62,-28.3994"/>
<polygon fill="midnightblue" stroke="midnightblue" points="1367.93,-31.6468 1376.19,-25.0091 1365.6,-25.0484 1367.93,-31.6468"/>
</g>
<!-- Node23&#45;&gt;Node5 -->
<g id="edge35" class="edge"><title>Node23&#45;&gt;Node5</title>
<path fill="none" stroke="midnightblue" d="M968.393,-123.22C956.484,-114.727 938.621,-101.102 925.216,-87 909.506,-70.474 894.593,-48.9277 884.997,-34.0259"/>
<polygon fill="midnightblue" stroke="midnightblue" points="887.798,-31.9057 879.505,-25.3124 881.876,-35.6384 887.798,-31.9057"/>
</g>
<!-- Node23&#45;&gt;Node15 -->
<g id="edge36" class="edge"><title>Node23&#45;&gt;Node15</title>
<path fill="none" stroke="midnightblue" d="M1004.31,-123.439C1023.23,-115.725 1050.08,-103.126 1070.22,-87 1089.27,-71.7397 1106.39,-49.3204 1117.01,-33.8817"/>
<polygon fill="midnightblue" stroke="midnightblue" points="1120.1,-35.5581 1122.74,-25.2974 1114.28,-31.6724 1120.1,-35.5581"/>
</g>
<!-- Node23&#45;&gt;Node16 -->
<g id="edge37" class="edge"><title>Node23&#45;&gt;Node16</title>
<path fill="none" stroke="midnightblue" d="M945.881,-123.444C907.305,-114.102 845.431,-99.1194 803.363,-88.9326"/>
<polygon fill="midnightblue" stroke="midnightblue" points="803.928,-85.4683 793.386,-86.5164 802.281,-92.2717 803.928,-85.4683"/>
</g>
<!-- Node23&#45;&gt;Node17 -->
<g id="edge40" class="edge"><title>Node23&#45;&gt;Node17</title>
<path fill="none" stroke="midnightblue" d="M984.518,-123.083C987.198,-115.849 991.065,-105.409 994.402,-96.3968"/>
<polygon fill="midnightblue" stroke="midnightblue" points="997.784,-97.3442 997.975,-86.7511 991.219,-94.9129 997.784,-97.3442"/>
</g>
<!-- Node23&#45;&gt;Node18 -->
<g id="edge38" class="edge"><title>Node23&#45;&gt;Node18</title>
<path fill="none" stroke="midnightblue" d="M966.275,-123.46C947.715,-111.665 919.803,-89.3072 931.216,-67 939.694,-50.4286 956.426,-38.049 971.406,-29.6948"/>
<polygon fill="midnightblue" stroke="midnightblue" points="973.157,-32.7291 980.416,-25.0119 969.929,-26.5178 973.157,-32.7291"/>
</g>
<!-- Node23&#45;&gt;Node22 -->
<g id="edge39" class="edge"><title>Node23&#45;&gt;Node22</title>
<path fill="none" stroke="midnightblue" d="M1020.99,-123.444C1064.77,-114.023 1135.23,-98.8656 1182.6,-88.6752"/>
<polygon fill="midnightblue" stroke="midnightblue" points="1183.59,-92.0415 1192.63,-86.5164 1182.12,-85.1981 1183.59,-92.0415"/>
</g>
<!-- Node25 -->
<g id="node25" class="node"><title>Node25</title>
<polygon fill="none" stroke="#bfbfbf" points="461.216,-67.5 461.216,-86.5 591.216,-86.5 591.216,-67.5 461.216,-67.5"/>
<text text-anchor="middle" x="526.216" y="-74.5" font-family="Helvetica,sans-Serif" font-size="10.00">InfoLogger/InfoLogger.hxx</text>
</g>
<!-- Node24&#45;&gt;Node25 -->
<g id="edge42" class="edge"><title>Node24&#45;&gt;Node25</title>
<path fill="none" stroke="midnightblue" d="M496.161,-123.083C501.193,-115.534 508.553,-104.495 514.729,-95.2298"/>
<polygon fill="midnightblue" stroke="midnightblue" points="517.747,-97.0131 520.382,-86.7511 511.923,-93.1301 517.747,-97.0131"/>
</g>
<!-- Node26 -->
<g id="node26" class="node"><title>Node26</title>
<polygon fill="none" stroke="#bfbfbf" points="281.216,-67.5 281.216,-86.5 443.216,-86.5 443.216,-67.5 281.216,-67.5"/>
<text text-anchor="middle" x="362.216" y="-74.5" font-family="Helvetica,sans-Serif" font-size="10.00">InfoLogger/InfoLoggerMacros.hxx</text>
</g>
<!-- Node24&#45;&gt;Node26 -->
<g id="edge43" class="edge"><title>Node24&#45;&gt;Node26</title>
<path fill="none" stroke="midnightblue" d="M469.934,-123.444C448.869,-114.557 415.699,-100.563 391.73,-90.4514"/>
<polygon fill="midnightblue" stroke="midnightblue" points="392.977,-87.1787 382.403,-86.5164 390.256,-93.6283 392.977,-87.1787"/>
</g>
<!-- Node27&#45;&gt;Node5 -->
<g id="edge45" class="edge"><title>Node27&#45;&gt;Node5</title>
<path fill="none" stroke="midnightblue" d="M660.63,-123.455C668.248,-109.546 685.19,-82.055 707.216,-67 749.141,-38.3436 807.779,-25.5622 843.257,-20.1532"/>
<polygon fill="midnightblue" stroke="midnightblue" points="844.071,-23.5728 853.48,-18.7019 843.087,-16.6423 844.071,-23.5728"/>
</g>
<!-- Node27&#45;&gt;Node16 -->
<g id="edge46" class="edge"><title>Node27&#45;&gt;Node16</title>
<path fill="none" stroke="midnightblue" d="M672.604,-123.324C688.887,-114.703 714.083,-101.364 732.932,-91.3855"/>
<polygon fill="midnightblue" stroke="midnightblue" points="734.668,-94.4267 741.868,-86.6545 731.393,-88.2402 734.668,-94.4267"/>
</g>
<!-- Node28&#45;&gt;Node5 -->
<g id="edge48" class="edge"><title>Node28&#45;&gt;Node5</title>
<path fill="none" stroke="midnightblue" d="M1463.4,-72.3446C1356.39,-66.2551 1143.71,-52.5333 964.216,-31 944.436,-28.627 922.349,-25.082 905.005,-22.0912"/>
<polygon fill="midnightblue" stroke="midnightblue" points="905.336,-18.596 894.882,-20.3161 904.127,-25.4908 905.336,-18.596"/>
</g>
<!-- Node28&#45;&gt;Node21 -->
<g id="edge50" class="edge"><title>Node28&#45;&gt;Node21</title>
<path fill="none" stroke="midnightblue" d="M1513.3,-67.4751C1491.05,-57.4455 1453.9,-40.7002 1428.29,-29.1546"/>
<polygon fill="midnightblue" stroke="midnightblue" points="1429.65,-25.9277 1419.09,-25.0091 1426.77,-32.3094 1429.65,-25.9277"/>
</g>
<!-- Node29 -->
<g id="node29" class="node"><title>Node29</title>
<polygon fill="none" stroke="#bfbfbf" points="1476.72,-0.5 1476.72,-30.5 1611.72,-30.5 1611.72,-0.5 1476.72,-0.5"/>
<text text-anchor="start" x="1484.72" y="-18.5" font-family="Helvetica,sans-Serif" font-size="10.00">Configuration/Configuration</text>
<text text-anchor="middle" x="1544.22" y="-7.5" font-family="Helvetica,sans-Serif" font-size="10.00">Factory.h</text>
</g>
<!-- Node28&#45;&gt;Node29 -->
<g id="edge49" class="edge"><title>Node28&#45;&gt;Node29</title>
<path fill="none" stroke="midnightblue" d="M1533.94,-67.4751C1535.36,-60.3957 1537.47,-49.9705 1539.4,-40.3896"/>
<polygon fill="midnightblue" stroke="midnightblue" points="1542.84,-41.0176 1541.39,-30.523 1535.98,-39.6336 1542.84,-41.0176"/>
</g>
<!-- Node30&#45;&gt;Node5 -->
<g id="edge52" class="edge"><title>Node30&#45;&gt;Node5</title>
<path fill="none" stroke="midnightblue" d="M1426.46,-192.392C1272.54,-189.389 931.4,-178.736 893.216,-143 863.716,-115.391 866.55,-63.1339 870.659,-35.2065"/>
<polygon fill="midnightblue" stroke="midnightblue" points="874.138,-35.6194 872.349,-25.1768 867.236,-34.4563 874.138,-35.6194"/>
</g>
<!-- Node30&#45;&gt;Node9 -->
<g id="edge54" class="edge"><title>Node30&#45;&gt;Node9</title>
<path fill="none" stroke="midnightblue" d="M1575.99,-183.505C1637.08,-174.855 1725.83,-161.188 1812.07,-143.075"/>
<polygon fill="midnightblue" stroke="midnightblue" points="1812.98,-146.462 1822.03,-140.962 1811.52,-139.614 1812.98,-146.462"/>
</g>
<!-- Node30&#45;&gt;Node10 -->
<g id="edge53" class="edge"><title>Node30&#45;&gt;Node10</title>
<path fill="none" stroke="midnightblue" d="M1432.28,-179.488C1383.6,-169.517 1316.86,-155.69 1258.22,-143 1256.96,-142.729 1255.69,-142.452 1254.4,-142.17"/>
<polygon fill="midnightblue" stroke="midnightblue" points="1254.97,-138.711 1244.45,-139.968 1253.46,-145.546 1254.97,-138.711"/>
</g>
<!-- Node30&#45;&gt;Node19 -->
<g id="edge59" class="edge"><title>Node30&#45;&gt;Node19</title>
<path fill="none" stroke="midnightblue" d="M1471.12,-179.399C1450.1,-169.55 1422.24,-156.501 1401.8,-146.922"/>
<polygon fill="midnightblue" stroke="midnightblue" points="1403.24,-143.731 1392.7,-142.658 1400.27,-150.07 1403.24,-143.731"/>
</g>
<!-- Node30&#45;&gt;Node22 -->
<g id="edge58" class="edge"><title>Node30&#45;&gt;Node22</title>
<path fill="none" stroke="midnightblue" d="M1426.26,-186.721C1383.94,-180.256 1331.44,-167.633 1290.22,-143 1270.22,-131.051 1253.29,-109.95 1242.97,-95.0352"/>
<polygon fill="midnightblue" stroke="midnightblue" points="1245.88,-93.0863 1237.44,-86.6855 1240.05,-96.9543 1245.88,-93.0863"/>
</g>
<!-- Node31 -->
<g id="node31" class="node"><title>Node31</title>
<polygon fill="none" stroke="#bfbfbf" points="1466.72,-123.5 1466.72,-142.5 1535.72,-142.5 1535.72,-123.5 1466.72,-123.5"/>
<text text-anchor="middle" x="1501.22" y="-130.5" font-family="Helvetica,sans-Serif" font-size="10.00">TObjArray.h</text>
</g>
<!-- Node30&#45;&gt;Node31 -->
<g id="edge55" class="edge"><title>Node30&#45;&gt;Node31</title>
<path fill="none" stroke="midnightblue" d="M1501.22,-179.399C1501.22,-171.466 1501.22,-161.458 1501.22,-152.858"/>
<polygon fill="midnightblue" stroke="midnightblue" points="1504.72,-152.658 1501.22,-142.658 1497.72,-152.658 1504.72,-152.658"/>
</g>
<!-- Node32 -->
<g id="node32" class="node"><title>Node32</title>
<polygon fill="none" stroke="#bfbfbf" points="1554.22,-123.5 1554.22,-142.5 1652.22,-142.5 1652.22,-123.5 1554.22,-123.5"/>
<text text-anchor="middle" x="1603.22" y="-130.5" font-family="Helvetica,sans-Serif" font-size="10.00">Framework/Task.h</text>
</g>
<!-- Node30&#45;&gt;Node32 -->
<g id="edge56" class="edge"><title>Node30&#45;&gt;Node32</title>
<path fill="none" stroke="midnightblue" d="M1525.39,-179.399C1541.74,-169.862 1563.23,-157.325 1579.49,-147.842"/>
<polygon fill="midnightblue" stroke="midnightblue" points="1581.5,-150.72 1588.37,-142.658 1577.97,-144.673 1581.5,-150.72"/>
</g>
<!-- Node33 -->
<g id="node33" class="node"><title>Node33</title>
<polygon fill="none" stroke="#bfbfbf" points="1670.22,-123.5 1670.22,-142.5 1804.22,-142.5 1804.22,-123.5 1670.22,-123.5"/>
<text text-anchor="middle" x="1737.22" y="-130.5" font-family="Helvetica,sans-Serif" font-size="10.00">Framework/DataRefUtils.h</text>
</g>
<!-- Node30&#45;&gt;Node33 -->
<g id="edge57" class="edge"><title>Node30&#45;&gt;Node33</title>
<path fill="none" stroke="midnightblue" d="M1556.85,-179.475C1598.63,-168.941 1655.05,-154.716 1693.59,-144.998"/>
<polygon fill="midnightblue" stroke="midnightblue" points="1694.64,-148.345 1703.48,-142.506 1692.92,-141.557 1694.64,-148.345"/>
</g>
</g>
</svg>
