<?xml version="1.0" encoding="UTF-8" standalone="no"?>
<!DOCTYPE svg PUBLIC "-//W3C//DTD SVG 1.1//EN"
 "http://www.w3.org/Graphics/SVG/1.1/DTD/svg11.dtd">
<!-- Generated by graphviz version 2.38.0 (20140413.2041)
 -->
<!-- Title: Framework/include/QualityControl/TaskFactory.h Pages: 1 -->
<svg width="2420pt" height="106pt"
 viewBox="0.00 0.00 2419.50 106.00" xmlns="http://www.w3.org/2000/svg" xmlns:xlink="http://www.w3.org/1999/xlink">
<g id="graph0" class="graph" transform="scale(1 1) rotate(0) translate(4 102)">
<title>Framework/include/QualityControl/TaskFactory.h</title>
<!-- Node1 -->
<g id="node1" class="node"><title>Node1</title>
<polygon fill="#bfbfbf" stroke="black" points="1131.5,-67.5 1131.5,-97.5 1264.5,-97.5 1264.5,-67.5 1131.5,-67.5"/>
<text text-anchor="start" x="1139.5" y="-85.5" font-family="Helvetica,sans-Serif" font-size="10.00">Framework/include/Quality</text>
<text text-anchor="middle" x="1198" y="-74.5" font-family="Helvetica,sans-Serif" font-size="10.00">Control/TaskFactory.h</text>
</g>
<!-- Node2 -->
<g id="node2" class="node"><title>Node2</title>
<g id="a_node2"><a xlink:href="TaskFactory_8cxx.html" target="_top" xlink:title="Framework/src/TaskFactory.cxx">
<polygon fill="none" stroke="black" points="0,-6 0,-25 158,-25 158,-6 0,-6"/>
<text text-anchor="middle" x="79" y="-13" font-family="Helvetica,sans-Serif" font-size="10.00">Framework/src/TaskFactory.cxx</text>
</a>
</g>
</g>
<!-- Node1&#45;&gt;Node2 -->
<g id="edge1" class="edge"><title>Node1&#45;&gt;Node2</title>
<path fill="none" stroke="midnightblue" d="M1121.27,-80.7376C949.736,-78.3779 522.376,-68.8561 167,-31 153.143,-29.5239 138.153,-27.2935 124.539,-25.0217"/>
<polygon fill="midnightblue" stroke="midnightblue" points="1121.41,-84.2397 1131.46,-80.8734 1121.5,-77.2403 1121.41,-84.2397"/>
</g>
<!-- Node3 -->
<g id="node3" class="node"><title>Node3</title>
<g id="a_node3"><a xlink:href="TaskRunner_8cxx.html" target="_top" xlink:title="Framework/src/TaskRunner.cxx">
<polygon fill="none" stroke="black" points="176.5,-6 176.5,-25 333.5,-25 333.5,-6 176.5,-6"/>
<text text-anchor="middle" x="255" y="-13" font-family="Helvetica,sans-Serif" font-size="10.00">Framework/src/TaskRunner.cxx</text>
</a>
</g>
</g>
<!-- Node1&#45;&gt;Node3 -->
<g id="edge2" class="edge"><title>Node1&#45;&gt;Node3</title>
<path fill="none" stroke="midnightblue" d="M1121.44,-79.7098C971.446,-75.6 628.515,-63.2355 342,-31 328.457,-29.4763 313.816,-27.2595 300.476,-25.0157"/>
<polygon fill="midnightblue" stroke="midnightblue" points="1121.38,-83.2093 1131.47,-79.9801 1121.57,-76.2119 1121.38,-83.2093"/>
</g>
<!-- Node4 -->
<g id="node4" class="node"><title>Node4</title>
<g id="a_node4"><a xlink:href="testTaskInterface_8cxx.html" target="_top" xlink:title="Framework/test/testTaskInterface.cxx">
<polygon fill="none" stroke="black" points="351.5,-6 351.5,-25 534.5,-25 534.5,-6 351.5,-6"/>
<text text-anchor="middle" x="443" y="-13" font-family="Helvetica,sans-Serif" font-size="10.00">Framework/test/testTaskInterface.cxx</text>
</a>
</g>
</g>
<!-- Node1&#45;&gt;Node4 -->
<g id="edge3" class="edge"><title>Node1&#45;&gt;Node4</title>
<path fill="none" stroke="midnightblue" d="M1121.48,-77.222C999.214,-70.0203 752.361,-53.9762 544,-31 528.945,-29.3399 512.681,-27.1713 497.693,-25.019"/>
<polygon fill="midnightblue" stroke="midnightblue" points="1121.3,-80.7177 1131.49,-77.8084 1121.71,-73.7297 1121.3,-80.7177"/>
</g>
<!-- Node5 -->
<g id="node5" class="node"><title>Node5</title>
<g id="a_node5"><a xlink:href="testEMCAL_8cxx.html" target="_top" xlink:title="Modules/EMCAL/test\l/testEMCAL.cxx">
<polygon fill="none" stroke="black" points="553,-0.5 553,-30.5 663,-30.5 663,-0.5 553,-0.5"/>
<text text-anchor="start" x="561" y="-18.5" font-family="Helvetica,sans-Serif" font-size="10.00">Modules/EMCAL/test</text>
<text text-anchor="middle" x="608" y="-7.5" font-family="Helvetica,sans-Serif" font-size="10.00">/testEMCAL.cxx</text>
</a>
</g>
</g>
<!-- Node1&#45;&gt;Node5 -->
<g id="edge4" class="edge"><title>Node1&#45;&gt;Node5</title>
<path fill="none" stroke="midnightblue" d="M1120.94,-77.1777C1018.09,-70.7084 830.503,-56.4585 672,-31 669.075,-30.5303 666.085,-30.0064 663.071,-29.4442"/>
<polygon fill="midnightblue" stroke="midnightblue" points="1121.03,-80.6902 1131.23,-77.8169 1121.46,-73.7037 1121.03,-80.6902"/>
</g>
<!-- Node6 -->
<g id="node6" class="node"><title>Node6</title>
<polygon fill="none" stroke="#bfbfbf" points="681,-0.5 681,-30.5 795,-30.5 795,-0.5 681,-0.5"/>
<text text-anchor="start" x="689" y="-18.5" font-family="Helvetica,sans-Serif" font-size="10.00">Modules/Example/test</text>
<text text-anchor="middle" x="738" y="-7.5" font-family="Helvetica,sans-Serif" font-size="10.00">/testFactory.cxx</text>
</g>
<!-- Node1&#45;&gt;Node6 -->
<g id="edge5" class="edge"><title>Node1&#45;&gt;Node6</title>
<path fill="none" stroke="midnightblue" d="M1121.21,-73.6989C1041.58,-65.1325 913.631,-50.0299 804,-31 801.11,-30.4984 798.156,-29.9565 795.176,-29.3869"/>
<polygon fill="midnightblue" stroke="midnightblue" points="1120.84,-77.1793 1131.15,-74.7619 1121.58,-70.2189 1120.84,-77.1793"/>
</g>
<!-- Node7 -->
<g id="node7" class="node"><title>Node7</title>
<g id="a_node7"><a xlink:href="testQcExample_8cxx.html" target="_top" xlink:title="Modules/Example/test\l/testQcExample.cxx">
<polygon fill="none" stroke="black" points="813,-0.5 813,-30.5 927,-30.5 927,-0.5 813,-0.5"/>
<text text-anchor="start" x="821" y="-18.5" font-family="Helvetica,sans-Serif" font-size="10.00">Modules/Example/test</text>
<text text-anchor="middle" x="870" y="-7.5" font-family="Helvetica,sans-Serif" font-size="10.00">/testQcExample.cxx</text>
</a>
</g>
</g>
<!-- Node1&#45;&gt;Node7 -->
<g id="edge6" class="edge"><title>Node1&#45;&gt;Node7</title>
<path fill="none" stroke="midnightblue" d="M1121.54,-67.3013C1069.23,-57.4556 998.335,-43.8526 936,-31 933.128,-30.4077 930.187,-29.7929 927.218,-29.1654"/>
<polygon fill="midnightblue" stroke="midnightblue" points="1120.94,-70.7499 1131.41,-69.1569 1122.23,-63.8703 1120.94,-70.7499"/>
</g>
<!-- Node8 -->
<g id="node8" class="node"><title>Node8</title>
<polygon fill="none" stroke="#bfbfbf" points="945.5,-6 945.5,-25 1106.5,-25 1106.5,-6 945.5,-6"/>
<text text-anchor="middle" x="1026" y="-13" font-family="Helvetica,sans-Serif" font-size="10.00">Modules/FT0/test/testQcFT0.cxx</text>
</g>
<!-- Node1&#45;&gt;Node8 -->
<g id="edge7" class="edge"><title>Node1&#45;&gt;Node8</title>
<path fill="none" stroke="midnightblue" d="M1151.12,-63.7838C1117.77,-51.1807 1074.45,-34.8082 1048.51,-25.007"/>
<polygon fill="midnightblue" stroke="midnightblue" points="1150.09,-67.1349 1160.68,-67.396 1152.56,-60.5868 1150.09,-67.1349"/>
</g>
<!-- Node9 -->
<g id="node9" class="node"><title>Node9</title>
<g id="a_node9"><a xlink:href="testITS_8cxx.html" target="_top" xlink:title="Modules/ITS/test/testITS.cxx">
<polygon fill="none" stroke="black" points="1125,-6 1125,-25 1271,-25 1271,-6 1125,-6"/>
<text text-anchor="middle" x="1198" y="-13" font-family="Helvetica,sans-Serif" font-size="10.00">Modules/ITS/test/testITS.cxx</text>
</a>
</g>
</g>
<!-- Node1&#45;&gt;Node9 -->
<g id="edge8" class="edge"><title>Node1&#45;&gt;Node9</title>
<path fill="none" stroke="midnightblue" d="M1198,-57.2495C1198,-46.017 1198,-33.3767 1198,-25.1945"/>
<polygon fill="midnightblue" stroke="midnightblue" points="1194.5,-57.3959 1198,-67.396 1201.5,-57.396 1194.5,-57.3959"/>
</g>
<!-- Node10 -->
<g id="node10" class="node"><title>Node10</title>
<polygon fill="none" stroke="#bfbfbf" points="1289.5,-6 1289.5,-25 1456.5,-25 1456.5,-6 1289.5,-6"/>
<text text-anchor="middle" x="1373" y="-13" font-family="Helvetica,sans-Serif" font-size="10.00">Modules/MFT/test/testQcMFT.cxx</text>
</g>
<!-- Node1&#45;&gt;Node10 -->
<g id="edge9" class="edge"><title>Node1&#45;&gt;Node10</title>
<path fill="none" stroke="midnightblue" d="M1245.7,-63.7838C1279.63,-51.1807 1323.71,-34.8082 1350.1,-25.007"/>
<polygon fill="midnightblue" stroke="midnightblue" points="1244.13,-60.633 1235.97,-67.396 1246.57,-67.195 1244.13,-60.633"/>
</g>
<!-- Node11 -->
<g id="node11" class="node"><title>Node11</title>
<polygon fill="none" stroke="#bfbfbf" points="1475,-6 1475,-25 1639,-25 1639,-6 1475,-6"/>
<text text-anchor="middle" x="1557" y="-13" font-family="Helvetica,sans-Serif" font-size="10.00">Modules/MID/test/testQcMID.cxx</text>
</g>
<!-- Node1&#45;&gt;Node11 -->
<g id="edge10" class="edge"><title>Node1&#45;&gt;Node11</title>
<path fill="none" stroke="midnightblue" d="M1274.96,-67.5656C1346.28,-54.6534 1450.08,-35.8584 1509.85,-25.0377"/>
<polygon fill="midnightblue" stroke="midnightblue" points="1273.9,-64.2006 1264.68,-69.4263 1275.15,-71.0886 1273.9,-64.2006"/>
</g>
<!-- Node12 -->
<g id="node12" class="node"><title>Node12</title>
<g id="a_node12"><a xlink:href="testMuonChambers_8cxx.html" target="_top" xlink:title="Modules/MUON/MCH/test\l/testMuonChambers.cxx">
<polygon fill="none" stroke="black" points="1657.5,-0.5 1657.5,-30.5 1790.5,-30.5 1790.5,-0.5 1657.5,-0.5"/>
<text text-anchor="start" x="1665.5" y="-18.5" font-family="Helvetica,sans-Serif" font-size="10.00">Modules/MUON/MCH/test</text>
<text text-anchor="middle" x="1724" y="-7.5" font-family="Helvetica,sans-Serif" font-size="10.00">/testMuonChambers.cxx</text>
</a>
</g>
</g>
<!-- Node1&#45;&gt;Node12 -->
<g id="edge11" class="edge"><title>Node1&#45;&gt;Node12</title>
<path fill="none" stroke="midnightblue" d="M1274.63,-74.7073C1364.38,-66.3347 1517.39,-50.7579 1648,-31 1651.05,-30.5379 1654.17,-30.0418 1657.32,-29.5215"/>
<polygon fill="midnightblue" stroke="midnightblue" points="1274.18,-71.2344 1264.54,-75.6431 1274.82,-78.2045 1274.18,-71.2344"/>
</g>
<!-- Node13 -->
<g id="node13" class="node"><title>Node13</title>
<polygon fill="none" stroke="#bfbfbf" points="1809,-0.5 1809,-30.5 1923,-30.5 1923,-0.5 1809,-0.5"/>
<text text-anchor="start" x="1817" y="-18.5" font-family="Helvetica,sans-Serif" font-size="10.00">Modules/Skeleton/test</text>
<text text-anchor="middle" x="1866" y="-7.5" font-family="Helvetica,sans-Serif" font-size="10.00">/.testEmpty.cxx</text>
</g>
<!-- Node1&#45;&gt;Node13 -->
<g id="edge12" class="edge"><title>Node1&#45;&gt;Node13</title>
<path fill="none" stroke="midnightblue" d="M1274.8,-78.3211C1389.59,-72.8333 1612.51,-59.3317 1800,-31 1802.9,-30.5618 1805.86,-30.0709 1808.85,-29.5417"/>
<polygon fill="midnightblue" stroke="midnightblue" points="1274.53,-74.8299 1264.7,-78.7963 1274.85,-81.8221 1274.53,-74.8299"/>
</g>
<!-- Node14 -->
<g id="node14" class="node"><title>Node14</title>
<g id="a_node14"><a xlink:href="testQcSkeleton_8cxx.html" target="_top" xlink:title="Modules/Skeleton/test\l/testQcSkeleton.cxx">
<polygon fill="none" stroke="black" points="1941,-0.5 1941,-30.5 2055,-30.5 2055,-0.5 1941,-0.5"/>
<text text-anchor="start" x="1949" y="-18.5" font-family="Helvetica,sans-Serif" font-size="10.00">Modules/Skeleton/test</text>
<text text-anchor="middle" x="1998" y="-7.5" font-family="Helvetica,sans-Serif" font-size="10.00">/testQcSkeleton.cxx</text>
</a>
</g>
</g>
<!-- Node1&#45;&gt;Node14 -->
<g id="edge13" class="edge"><title>Node1&#45;&gt;Node14</title>
<path fill="none" stroke="midnightblue" d="M1274.8,-79.9406C1408.83,-76.3907 1693.86,-65.1605 1932,-31 1934.9,-30.5835 1937.87,-30.1101 1940.86,-29.5949"/>
<polygon fill="midnightblue" stroke="midnightblue" points="1274.55,-76.446 1264.64,-80.2027 1274.73,-83.4437 1274.55,-76.446"/>
</g>
<!-- Node15 -->
<g id="node15" class="node"><title>Node15</title>
<g id="a_node15"><a xlink:href="testTOF_8cxx.html" target="_top" xlink:title="Modules/TOF/test/testTOF.cxx">
<polygon fill="none" stroke="black" points="2073.5,-6 2073.5,-25 2226.5,-25 2226.5,-6 2073.5,-6"/>
<text text-anchor="middle" x="2150" y="-13" font-family="Helvetica,sans-Serif" font-size="10.00">Modules/TOF/test/testTOF.cxx</text>
</a>
</g>
</g>
<!-- Node1&#45;&gt;Node15 -->
<g id="edge14" class="edge"><title>Node1&#45;&gt;Node15</title>
<path fill="none" stroke="midnightblue" d="M1274.88,-79.8224C1426.34,-75.8983 1773.8,-63.827 2064,-31 2077.39,-29.4853 2091.86,-27.2712 2105.05,-25.0272"/>
<polygon fill="midnightblue" stroke="midnightblue" points="1274.67,-76.3268 1264.76,-80.0802 1274.84,-83.3245 1274.67,-76.3268"/>
</g>
<!-- Node16 -->
<g id="node16" class="node"><title>Node16</title>
<polygon fill="none" stroke="#bfbfbf" points="2244.5,-6 2244.5,-25 2411.5,-25 2411.5,-6 2244.5,-6"/>
<text text-anchor="middle" x="2328" y="-13" font-family="Helvetica,sans-Serif" font-size="10.00">Modules/TPC/test/testQcTPC.cxx</text>
</g>
<!-- Node1&#45;&gt;Node16 -->
<g id="edge15" class="edge"><title>Node1&#45;&gt;Node16</title>
<path fill="none" stroke="midnightblue" d="M1274.92,-80.5884C1447.36,-77.9254 1877.86,-67.8268 2236,-31 2250.48,-29.5115 2266.14,-27.2774 2280.38,-25.006"/>
<polygon fill="midnightblue" stroke="midnightblue" points="1274.62,-77.0923 1264.67,-80.7424 1274.73,-84.0915 1274.62,-77.0923"/>
</g>
</g>
</svg>
