<?xml version="1.0" encoding="UTF-8" standalone="no"?>
<!DOCTYPE svg PUBLIC "-//W3C//DTD SVG 1.1//EN"
 "http://www.w3.org/Graphics/SVG/1.1/DTD/svg11.dtd">
<!-- Generated by graphviz version 2.38.0 (20140413.2041)
 -->
<!-- Title: Modules/Daq/test/testQcDaq.cxx Pages: 1 -->
<svg width="1296pt" height="319pt"
 viewBox="0.00 0.00 1295.96 319.00" xmlns="http://www.w3.org/2000/svg" xmlns:xlink="http://www.w3.org/1999/xlink">
<g id="graph0" class="graph" transform="scale(1 1) rotate(0) translate(4 315)">
<title>Modules/Daq/test/testQcDaq.cxx</title>
<!-- Node1 -->
<g id="node1" class="node"><title>Node1</title>
<polygon fill="#bfbfbf" stroke="black" points="585.194,-291.5 585.194,-310.5 748.194,-310.5 748.194,-291.5 585.194,-291.5"/>
<text text-anchor="middle" x="666.694" y="-298.5" font-family="Helvetica,sans-Serif" font-size="10.00">Modules/Daq/test/testQcDaq.cxx</text>
</g>
<!-- Node2 -->
<g id="node2" class="node"><title>Node2</title>
<g id="a_node2"><a xlink:href="DaqTask_8h.html" target="_top" xlink:title="Daq/DaqTask.h">
<polygon fill="none" stroke="black" points="563.694,-235.5 563.694,-254.5 649.694,-254.5 649.694,-235.5 563.694,-235.5"/>
<text text-anchor="middle" x="606.694" y="-242.5" font-family="Helvetica,sans-Serif" font-size="10.00">Daq/DaqTask.h</text>
</a>
</g>
</g>
<!-- Node1&#45;&gt;Node2 -->
<g id="edge1" class="edge"><title>Node1&#45;&gt;Node2</title>
<path fill="none" stroke="midnightblue" d="M657.054,-291.324C648.184,-283.341 634.819,-271.313 624.086,-261.653"/>
<polygon fill="midnightblue" stroke="midnightblue" points="626.284,-258.922 616.509,-254.834 621.601,-264.125 626.284,-258.922"/>
</g>
<!-- Node25 -->
<g id="node25" class="node"><title>Node25</title>
<polygon fill="none" stroke="#bfbfbf" points="668.194,-235.5 668.194,-254.5 787.194,-254.5 787.194,-235.5 668.194,-235.5"/>
<text text-anchor="middle" x="727.694" y="-242.5" font-family="Helvetica,sans-Serif" font-size="10.00">boost/test/unit_test.hpp</text>
</g>
<!-- Node1&#45;&gt;Node25 -->
<g id="edge31" class="edge"><title>Node1&#45;&gt;Node25</title>
<path fill="none" stroke="midnightblue" d="M676.495,-291.324C685.512,-283.341 699.1,-271.313 710.012,-261.653"/>
<polygon fill="midnightblue" stroke="midnightblue" points="712.547,-264.083 717.715,-254.834 707.907,-258.842 712.547,-264.083"/>
</g>
<!-- Node3 -->
<g id="node3" class="node"><title>Node3</title>
<g id="a_node3"><a xlink:href="TaskInterface_8h.html" target="_top" xlink:title="QualityControl/TaskInterface.h">
<polygon fill="none" stroke="black" points="531.694,-179.5 531.694,-198.5 681.694,-198.5 681.694,-179.5 531.694,-179.5"/>
<text text-anchor="middle" x="606.694" y="-186.5" font-family="Helvetica,sans-Serif" font-size="10.00">QualityControl/TaskInterface.h</text>
</a>
</g>
</g>
<!-- Node2&#45;&gt;Node3 -->
<g id="edge2" class="edge"><title>Node2&#45;&gt;Node3</title>
<path fill="none" stroke="midnightblue" d="M606.694,-235.083C606.694,-228.006 606.694,-217.861 606.694,-208.986"/>
<polygon fill="midnightblue" stroke="midnightblue" points="610.194,-208.751 606.694,-198.751 603.194,-208.751 610.194,-208.751"/>
</g>
<!-- Node4 -->
<g id="node4" class="node"><title>Node4</title>
<polygon fill="none" stroke="#bfbfbf" points="165.194,-0.5 165.194,-19.5 200.194,-19.5 200.194,-0.5 165.194,-0.5"/>
<text text-anchor="middle" x="182.694" y="-7.5" font-family="Helvetica,sans-Serif" font-size="10.00">map</text>
</g>
<!-- Node2&#45;&gt;Node4 -->
<g id="edge30" class="edge"><title>Node2&#45;&gt;Node4</title>
<path fill="none" stroke="midnightblue" d="M563.66,-243.559C439.001,-241.282 81.9761,-227.378 10.694,-143 -38.102,-85.2392 95.586,-36.8502 155.419,-18.6901"/>
<polygon fill="midnightblue" stroke="midnightblue" points="156.419,-22.0442 165.012,-15.8459 154.429,-15.3329 156.419,-22.0442"/>
</g>
<!-- Node24 -->
<g id="node24" class="node"><title>Node24</title>
<polygon fill="none" stroke="#bfbfbf" points="699.194,-179.5 699.194,-198.5 796.194,-198.5 796.194,-179.5 699.194,-179.5"/>
<text text-anchor="middle" x="747.694" y="-186.5" font-family="Helvetica,sans-Serif" font-size="10.00">Headers/DAQID.h</text>
</g>
<!-- Node2&#45;&gt;Node24 -->
<g id="edge29" class="edge"><title>Node2&#45;&gt;Node24</title>
<path fill="none" stroke="midnightblue" d="M629.036,-235.444C652.447,-226.478 689.43,-212.314 715.884,-202.183"/>
<polygon fill="midnightblue" stroke="midnightblue" points="717.37,-205.361 725.457,-198.516 714.866,-198.824 717.37,-205.361"/>
</g>
<!-- Node3&#45;&gt;Node4 -->
<g id="edge3" class="edge"><title>Node3&#45;&gt;Node4</title>
<path fill="none" stroke="midnightblue" d="M606.785,-179.26C606.419,-165.072 603.456,-137.188 586.694,-123 494.29,-44.7855 431.448,-125.569 316.694,-87 273.117,-72.3538 227.647,-43.1119 202.472,-25.478"/>
<polygon fill="midnightblue" stroke="midnightblue" points="204.332,-22.5058 194.156,-19.555 200.271,-28.2073 204.332,-22.5058"/>
</g>
<!-- Node5 -->
<g id="node5" class="node"><title>Node5</title>
<polygon fill="none" stroke="#bfbfbf" points="852.694,-62 852.694,-81 904.694,-81 904.694,-62 852.694,-62"/>
<text text-anchor="middle" x="878.694" y="-69" font-family="Helvetica,sans-Serif" font-size="10.00">memory</text>
</g>
<!-- Node3&#45;&gt;Node5 -->
<g id="edge4" class="edge"><title>Node3&#45;&gt;Node5</title>
<path fill="none" stroke="midnightblue" d="M658.391,-179.468C708.266,-170.665 779.764,-156.372 804.694,-143 829.498,-129.696 851.975,-105.811 865.485,-89.5659"/>
<polygon fill="midnightblue" stroke="midnightblue" points="868.481,-91.4264 872.027,-81.4425 863.029,-87.0362 868.481,-91.4264"/>
</g>
<!-- Node6 -->
<g id="node6" class="node"><title>Node6</title>
<polygon fill="none" stroke="#bfbfbf" points="742.194,-0.5 742.194,-19.5 783.194,-19.5 783.194,-0.5 742.194,-0.5"/>
<text text-anchor="middle" x="762.694" y="-7.5" font-family="Helvetica,sans-Serif" font-size="10.00">string</text>
</g>
<!-- Node3&#45;&gt;Node6 -->
<g id="edge5" class="edge"><title>Node3&#45;&gt;Node6</title>
<path fill="none" stroke="midnightblue" d="M662.876,-179.492C719.514,-170.439 802.718,-155.699 832.694,-143 872.993,-125.928 893.369,-125.76 913.694,-87 920.092,-74.798 921.928,-67.0463 913.694,-56 886.062,-18.9323 829.097,-11.1952 793.576,-10.2168"/>
<polygon fill="midnightblue" stroke="midnightblue" points="793.335,-6.71409 783.297,-10.1052 793.259,-13.7137 793.335,-6.71409"/>
</g>
<!-- Node7 -->
<g id="node7" class="node"><title>Node7</title>
<polygon fill="none" stroke="#bfbfbf" points="1028.19,-0.5 1028.19,-19.5 1111.19,-19.5 1111.19,-0.5 1028.19,-0.5"/>
<text text-anchor="middle" x="1069.69" y="-7.5" font-family="Helvetica,sans-Serif" font-size="10.00">unordered_map</text>
</g>
<!-- Node3&#45;&gt;Node7 -->
<g id="edge6" class="edge"><title>Node3&#45;&gt;Node7</title>
<path fill="none" stroke="midnightblue" d="M681.787,-179.775C684.455,-179.509 687.097,-179.25 689.694,-179 821.779,-166.286 1202.7,-195.076 1279.69,-87 1320.79,-29.3185 1196.33,-15.2583 1121.64,-11.9364"/>
<polygon fill="midnightblue" stroke="midnightblue" points="1121.59,-8.43161 1111.46,-11.5355 1121.31,-15.4262 1121.59,-8.43161"/>
</g>
<!-- Node8 -->
<g id="node8" class="node"><title>Node8</title>
<polygon fill="none" stroke="#bfbfbf" points="20.194,-123.5 20.194,-142.5 145.194,-142.5 145.194,-123.5 20.194,-123.5"/>
<text text-anchor="middle" x="82.694" y="-130.5" font-family="Helvetica,sans-Serif" font-size="10.00">Framework/InitContext.h</text>
</g>
<!-- Node3&#45;&gt;Node8 -->
<g id="edge7" class="edge"><title>Node3&#45;&gt;Node8</title>
<path fill="none" stroke="midnightblue" d="M531.455,-181.092C443.801,-172.913 294.345,-158.561 155.49,-143.064"/>
<polygon fill="midnightblue" stroke="midnightblue" points="155.839,-139.581 145.512,-141.947 155.06,-146.538 155.839,-139.581"/>
</g>
<!-- Node9 -->
<g id="node9" class="node"><title>Node9</title>
<polygon fill="none" stroke="#bfbfbf" points="163.694,-123.5 163.694,-142.5 323.694,-142.5 323.694,-123.5 163.694,-123.5"/>
<text text-anchor="middle" x="243.694" y="-130.5" font-family="Helvetica,sans-Serif" font-size="10.00">Framework/ProcessingContext.h</text>
</g>
<!-- Node3&#45;&gt;Node9 -->
<g id="edge8" class="edge"><title>Node3&#45;&gt;Node9</title>
<path fill="none" stroke="midnightblue" d="M549.176,-179.444C484.524,-169.826 379.668,-154.228 311.191,-144.041"/>
<polygon fill="midnightblue" stroke="midnightblue" points="311.349,-140.526 300.943,-142.516 310.319,-147.45 311.349,-140.526"/>
</g>
<!-- Node10 -->
<g id="node10" class="node"><title>Node10</title>
<polygon fill="none" stroke="#bfbfbf" points="342.194,-123.5 342.194,-142.5 437.194,-142.5 437.194,-123.5 342.194,-123.5"/>
<text text-anchor="middle" x="389.694" y="-130.5" font-family="Helvetica,sans-Serif" font-size="10.00">CCDB/CcdbApi.h</text>
</g>
<!-- Node3&#45;&gt;Node10 -->
<g id="edge9" class="edge"><title>Node3&#45;&gt;Node10</title>
<path fill="none" stroke="midnightblue" d="M572.31,-179.444C534.772,-170.102 474.563,-155.119 433.627,-144.933"/>
<polygon fill="midnightblue" stroke="midnightblue" points="434.467,-141.535 423.917,-142.516 432.776,-148.328 434.467,-141.535"/>
</g>
<!-- Node11 -->
<g id="node11" class="node"><title>Node11</title>
<g id="a_node11"><a xlink:href="Activity_8h.html" target="_top" xlink:title="QualityControl/Activity.h">
<polygon fill="none" stroke="black" points="455.194,-123.5 455.194,-142.5 578.194,-142.5 578.194,-123.5 455.194,-123.5"/>
<text text-anchor="middle" x="516.694" y="-130.5" font-family="Helvetica,sans-Serif" font-size="10.00">QualityControl/Activity.h</text>
</a>
</g>
</g>
<!-- Node3&#45;&gt;Node11 -->
<g id="edge10" class="edge"><title>Node3&#45;&gt;Node11</title>
<path fill="none" stroke="midnightblue" d="M592.234,-179.324C578.194,-170.9 556.646,-157.971 540.151,-148.074"/>
<polygon fill="midnightblue" stroke="midnightblue" points="541.494,-144.798 531.118,-142.655 537.892,-150.801 541.494,-144.798"/>
</g>
<!-- Node12 -->
<g id="node12" class="node"><title>Node12</title>
<g id="a_node12"><a xlink:href="ObjectsManager_8h.html" target="_top" xlink:title="QualityControl/ObjectsManager.h">
<polygon fill="none" stroke="black" points="635.194,-123.5 635.194,-142.5 796.194,-142.5 796.194,-123.5 635.194,-123.5"/>
<text text-anchor="middle" x="715.694" y="-130.5" font-family="Helvetica,sans-Serif" font-size="10.00">QualityControl/ObjectsManager.h</text>
</a>
</g>
</g>
<!-- Node3&#45;&gt;Node12 -->
<g id="edge11" class="edge"><title>Node3&#45;&gt;Node12</title>
<path fill="none" stroke="midnightblue" d="M624.207,-179.324C641.766,-170.625 669.025,-157.12 689.225,-147.113"/>
<polygon fill="midnightblue" stroke="midnightblue" points="690.818,-150.23 698.225,-142.655 687.71,-143.958 690.818,-150.23"/>
</g>
<!-- Node21 -->
<g id="node21" class="node"><title>Node21</title>
<g id="a_node21"><a xlink:href="QcInfoLogger_8h.html" target="_top" xlink:title="QualityControl/QcInfoLogger.h">
<polygon fill="none" stroke="black" points="960.194,-123.5 960.194,-142.5 1109.19,-142.5 1109.19,-123.5 960.194,-123.5"/>
<text text-anchor="middle" x="1034.69" y="-130.5" font-family="Helvetica,sans-Serif" font-size="10.00">QualityControl/QcInfoLogger.h</text>
</a>
</g>
</g>
<!-- Node3&#45;&gt;Node21 -->
<g id="edge26" class="edge"><title>Node3&#45;&gt;Node21</title>
<path fill="none" stroke="midnightblue" d="M674.512,-179.444C751.367,-169.747 876.406,-153.971 957.091,-143.791"/>
<polygon fill="midnightblue" stroke="midnightblue" points="957.71,-147.241 967.193,-142.516 956.834,-140.296 957.71,-147.241"/>
</g>
<!-- Node12&#45;&gt;Node5 -->
<g id="edge25" class="edge"><title>Node12&#45;&gt;Node5</title>
<path fill="none" stroke="midnightblue" d="M741.344,-123.443C767.294,-114.679 808.494,-100.468 843.694,-87 845.341,-86.3698 847.027,-85.7126 848.726,-85.0409"/>
<polygon fill="midnightblue" stroke="midnightblue" points="850.453,-88.1177 858.411,-81.1231 847.828,-81.6285 850.453,-88.1177"/>
</g>
<!-- Node12&#45;&gt;Node6 -->
<g id="edge24" class="edge"><title>Node12&#45;&gt;Node6</title>
<path fill="none" stroke="midnightblue" d="M707.246,-123.193C694.349,-108.635 672.562,-78.8844 685.694,-56 695.744,-38.487 715.535,-27.1393 732.536,-20.2201"/>
<polygon fill="midnightblue" stroke="midnightblue" points="733.981,-23.4169 742.128,-16.6448 731.536,-16.8577 733.981,-23.4169"/>
</g>
<!-- Node13 -->
<g id="node13" class="node"><title>Node13</title>
<g id="a_node13"><a xlink:href="MonitorObject_8h.html" target="_top" xlink:title="QualityControl/MonitorObject.h">
<polygon fill="none" stroke="black" points="487.194,-62 487.194,-81 638.194,-81 638.194,-62 487.194,-62"/>
<text text-anchor="middle" x="562.694" y="-69" font-family="Helvetica,sans-Serif" font-size="10.00">QualityControl/MonitorObject.h</text>
</a>
</g>
</g>
<!-- Node12&#45;&gt;Node13 -->
<g id="edge12" class="edge"><title>Node12&#45;&gt;Node13</title>
<path fill="none" stroke="midnightblue" d="M693.773,-123.475C667.642,-113.313 623.782,-96.2564 594.064,-84.6996"/>
<polygon fill="midnightblue" stroke="midnightblue" points="595.163,-81.3716 584.574,-81.0091 592.626,-87.8956 595.163,-81.3716"/>
</g>
<!-- Node17 -->
<g id="node17" class="node"><title>Node17</title>
<g id="a_node17"><a xlink:href="MonitorObjectCollection_8h.html" target="_top" xlink:title="QualityControl/MonitorObject\lCollection.h">
<polygon fill="none" stroke="black" points="326.194,-56.5 326.194,-86.5 469.194,-86.5 469.194,-56.5 326.194,-56.5"/>
<text text-anchor="start" x="334.194" y="-74.5" font-family="Helvetica,sans-Serif" font-size="10.00">QualityControl/MonitorObject</text>
<text text-anchor="middle" x="397.694" y="-63.5" font-family="Helvetica,sans-Serif" font-size="10.00">Collection.h</text>
</a>
</g>
</g>
<!-- Node12&#45;&gt;Node17 -->
<g id="edge18" class="edge"><title>Node12&#45;&gt;Node17</title>
<path fill="none" stroke="midnightblue" d="M670.132,-123.475C620.433,-114.176 539.88,-99.104 479.229,-87.7557"/>
<polygon fill="midnightblue" stroke="midnightblue" points="479.766,-84.2956 469.293,-85.8967 478.479,-91.1762 479.766,-84.2956"/>
</g>
<!-- Node20 -->
<g id="node20" class="node"><title>Node20</title>
<g id="a_node20"><a xlink:href="TaskConfig_8h.html" target="_top" xlink:title="QualityControl/TaskConfig.h">
<polygon fill="none" stroke="black" points="694.694,-62 694.694,-81 834.694,-81 834.694,-62 694.694,-62"/>
<text text-anchor="middle" x="764.694" y="-69" font-family="Helvetica,sans-Serif" font-size="10.00">QualityControl/TaskConfig.h</text>
</a>
</g>
</g>
<!-- Node12&#45;&gt;Node20 -->
<g id="edge21" class="edge"><title>Node12&#45;&gt;Node20</title>
<path fill="none" stroke="midnightblue" d="M722.714,-123.475C730.137,-114.462 742.027,-100.025 751.261,-88.8118"/>
<polygon fill="midnightblue" stroke="midnightblue" points="754.031,-90.9534 757.687,-81.0091 748.628,-86.5034 754.031,-90.9534"/>
</g>
<!-- Node13&#45;&gt;Node4 -->
<g id="edge14" class="edge"><title>Node13&#45;&gt;Node4</title>
<path fill="none" stroke="midnightblue" d="M514.643,-61.9976C502.593,-59.9495 489.681,-57.827 477.694,-56 362.018,-38.3698 328.528,-46.6546 210.089,-19.6613"/>
<polygon fill="midnightblue" stroke="midnightblue" points="210.808,-16.2353 200.277,-17.3895 209.229,-23.0549 210.808,-16.2353"/>
</g>
<!-- Node13&#45;&gt;Node6 -->
<g id="edge13" class="edge"><title>Node13&#45;&gt;Node6</title>
<path fill="none" stroke="midnightblue" d="M591.349,-61.9751C628.669,-50.8725 693.65,-31.5406 731.963,-20.1423"/>
<polygon fill="midnightblue" stroke="midnightblue" points="733.431,-23.3575 742.017,-17.1513 731.435,-16.6481 733.431,-23.3575"/>
</g>
<!-- Node14 -->
<g id="node14" class="node"><title>Node14</title>
<polygon fill="none" stroke="#bfbfbf" points="663.694,-0.5 663.694,-19.5 719.694,-19.5 719.694,-0.5 663.694,-0.5"/>
<text text-anchor="middle" x="691.694" y="-7.5" font-family="Helvetica,sans-Serif" font-size="10.00">Rtypes.h</text>
</g>
<!-- Node13&#45;&gt;Node14 -->
<g id="edge15" class="edge"><title>Node13&#45;&gt;Node14</title>
<path fill="none" stroke="midnightblue" d="M581.177,-61.9751C602.826,-51.9897 638.907,-35.3476 663.926,-23.8075"/>
<polygon fill="midnightblue" stroke="midnightblue" points="665.631,-26.8757 673.246,-19.5091 662.699,-20.5193 665.631,-26.8757"/>
</g>
<!-- Node15 -->
<g id="node15" class="node"><title>Node15</title>
<polygon fill="none" stroke="#bfbfbf" points="452.194,-0.5 452.194,-19.5 511.194,-19.5 511.194,-0.5 452.194,-0.5"/>
<text text-anchor="middle" x="481.694" y="-7.5" font-family="Helvetica,sans-Serif" font-size="10.00">TObject.h</text>
</g>
<!-- Node13&#45;&gt;Node15 -->
<g id="edge16" class="edge"><title>Node13&#45;&gt;Node15</title>
<path fill="none" stroke="midnightblue" d="M551.089,-61.9751C538.217,-52.5199 517.22,-37.0961 501.688,-25.6871"/>
<polygon fill="midnightblue" stroke="midnightblue" points="503.409,-22.6085 493.278,-19.5091 499.265,-28.25 503.409,-22.6085"/>
</g>
<!-- Node16 -->
<g id="node16" class="node"><title>Node16</title>
<polygon fill="none" stroke="#bfbfbf" points="529.694,-0.5 529.694,-19.5 645.694,-19.5 645.694,-0.5 529.694,-0.5"/>
<text text-anchor="middle" x="587.694" y="-7.5" font-family="Helvetica,sans-Serif" font-size="10.00">Common/Exceptions.h</text>
</g>
<!-- Node13&#45;&gt;Node16 -->
<g id="edge17" class="edge"><title>Node13&#45;&gt;Node16</title>
<path fill="none" stroke="midnightblue" d="M566.276,-61.9751C569.877,-53.4035 575.54,-39.9269 580.138,-28.983"/>
<polygon fill="midnightblue" stroke="midnightblue" points="583.472,-30.0842 584.119,-19.5091 577.018,-27.3726 583.472,-30.0842"/>
</g>
<!-- Node18 -->
<g id="node18" class="node"><title>Node18</title>
<polygon fill="none" stroke="#bfbfbf" points="365.194,-0.5 365.194,-19.5 434.194,-19.5 434.194,-0.5 365.194,-0.5"/>
<text text-anchor="middle" x="399.694" y="-7.5" font-family="Helvetica,sans-Serif" font-size="10.00">TObjArray.h</text>
</g>
<!-- Node17&#45;&gt;Node18 -->
<g id="edge19" class="edge"><title>Node17&#45;&gt;Node18</title>
<path fill="none" stroke="midnightblue" d="M398.168,-56.3993C398.435,-48.4664 398.771,-38.458 399.06,-29.8583"/>
<polygon fill="midnightblue" stroke="midnightblue" points="402.565,-29.7697 399.403,-19.6578 395.569,-29.5345 402.565,-29.7697"/>
</g>
<!-- Node19 -->
<g id="node19" class="node"><title>Node19</title>
<polygon fill="none" stroke="#bfbfbf" points="218.694,-0.5 218.694,-19.5 346.694,-19.5 346.694,-0.5 218.694,-0.5"/>
<text text-anchor="middle" x="282.694" y="-7.5" font-family="Helvetica,sans-Serif" font-size="10.00">Mergers/MergeInterface.h</text>
</g>
<!-- Node17&#45;&gt;Node19 -->
<g id="edge20" class="edge"><title>Node17&#45;&gt;Node19</title>
<path fill="none" stroke="midnightblue" d="M370.441,-56.3993C351.662,-46.6837 326.868,-33.8551 308.426,-24.3137"/>
<polygon fill="midnightblue" stroke="midnightblue" points="309.918,-21.1445 299.428,-19.6578 306.701,-27.3617 309.918,-21.1445"/>
</g>
<!-- Node20&#45;&gt;Node6 -->
<g id="edge22" class="edge"><title>Node20&#45;&gt;Node6</title>
<path fill="none" stroke="midnightblue" d="M764.407,-61.9751C764.125,-53.5803 763.685,-40.4806 763.321,-29.6631"/>
<polygon fill="midnightblue" stroke="midnightblue" points="766.814,-29.3858 762.98,-19.5091 759.818,-29.6211 766.814,-29.3858"/>
</g>
<!-- Node20&#45;&gt;Node7 -->
<g id="edge23" class="edge"><title>Node20&#45;&gt;Node7</title>
<path fill="none" stroke="midnightblue" d="M808.393,-61.9751C863.826,-51.1612 959.277,-32.5404 1018.19,-21.0473"/>
<polygon fill="midnightblue" stroke="midnightblue" points="1018.89,-24.4771 1028.03,-19.1271 1017.55,-17.6067 1018.89,-24.4771"/>
</g>
<!-- Node22 -->
<g id="node22" class="node"><title>Node22</title>
<polygon fill="none" stroke="#bfbfbf" points="960.694,-62 960.694,-81 1090.69,-81 1090.69,-62 960.694,-62"/>
<text text-anchor="middle" x="1025.69" y="-69" font-family="Helvetica,sans-Serif" font-size="10.00">InfoLogger/InfoLogger.hxx</text>
</g>
<!-- Node21&#45;&gt;Node22 -->
<g id="edge27" class="edge"><title>Node21&#45;&gt;Node22</title>
<path fill="none" stroke="midnightblue" d="M1033.4,-123.475C1032.13,-115.08 1030.15,-101.981 1028.52,-91.1631"/>
<polygon fill="midnightblue" stroke="midnightblue" points="1031.94,-90.3731 1026.98,-81.0091 1025.02,-91.4201 1031.94,-90.3731"/>
</g>
<!-- Node23 -->
<g id="node23" class="node"><title>Node23</title>
<polygon fill="none" stroke="#bfbfbf" points="1108.69,-62 1108.69,-81 1270.69,-81 1270.69,-62 1108.69,-62"/>
<text text-anchor="middle" x="1189.69" y="-69" font-family="Helvetica,sans-Serif" font-size="10.00">InfoLogger/InfoLoggerMacros.hxx</text>
</g>
<!-- Node21&#45;&gt;Node23 -->
<g id="edge28" class="edge"><title>Node21&#45;&gt;Node23</title>
<path fill="none" stroke="midnightblue" d="M1056.9,-123.475C1083.37,-113.313 1127.81,-96.2564 1157.91,-84.6996"/>
<polygon fill="midnightblue" stroke="midnightblue" points="1159.45,-87.8604 1167.53,-81.0091 1156.94,-81.3254 1159.45,-87.8604"/>
</g>
</g>
</svg>
