<?xml version="1.0" encoding="UTF-8" standalone="no"?>
<!DOCTYPE svg PUBLIC "-//W3C//DTD SVG 1.1//EN"
 "http://www.w3.org/Graphics/SVG/1.1/DTD/svg11.dtd">
<!-- Generated by graphviz version 2.38.0 (20140413.2041)
 -->
<!-- Title: Framework/test/testWorkflow.cxx Pages: 1 -->
<svg width="2435pt" height="330pt"
 viewBox="0.00 0.00 2435.09 330.00" xmlns="http://www.w3.org/2000/svg" xmlns:xlink="http://www.w3.org/1999/xlink">
<g id="graph0" class="graph" transform="scale(1 1) rotate(0) translate(4 326)">
<title>Framework/test/testWorkflow.cxx</title>
<!-- Node1 -->
<g id="node1" class="node"><title>Node1</title>
<polygon fill="#bfbfbf" stroke="black" points="1910.09,-302.5 1910.09,-321.5 2074.09,-321.5 2074.09,-302.5 1910.09,-302.5"/>
<text text-anchor="middle" x="1992.09" y="-309.5" font-family="Helvetica,sans-Serif" font-size="10.00">Framework/test/testWorkflow.cxx</text>
</g>
<!-- Node2 -->
<g id="node2" class="node"><title>Node2</title>
<polygon fill="none" stroke="#bfbfbf" points="722.594,-246.5 722.594,-265.5 873.594,-265.5 873.594,-246.5 722.594,-246.5"/>
<text text-anchor="middle" x="798.094" y="-253.5" font-family="Helvetica,sans-Serif" font-size="10.00">DataSampling/DataSampling.h</text>
</g>
<!-- Node1&#45;&gt;Node2 -->
<g id="edge1" class="edge"><title>Node1&#45;&gt;Node2</title>
<path fill="none" stroke="midnightblue" d="M1909.91,-309.49C1727.4,-305.741 1274.32,-294.245 883.701,-265.988"/>
<polygon fill="midnightblue" stroke="midnightblue" points="883.843,-262.489 873.615,-265.253 883.335,-269.471 883.843,-262.489"/>
</g>
<!-- Node3 -->
<g id="node3" class="node"><title>Node3</title>
<g id="a_node3"><a xlink:href="InfrastructureGenerator_8h.html" target="_top" xlink:title="QualityControl/Infrastructure\lGenerator.h">
<polygon fill="none" stroke="black" points="1805.09,-179.5 1805.09,-209.5 1945.09,-209.5 1945.09,-179.5 1805.09,-179.5"/>
<text text-anchor="start" x="1813.09" y="-197.5" font-family="Helvetica,sans-Serif" font-size="10.00">QualityControl/Infrastructure</text>
<text text-anchor="middle" x="1875.09" y="-186.5" font-family="Helvetica,sans-Serif" font-size="10.00">Generator.h</text>
</a>
</g>
</g>
<!-- Node1&#45;&gt;Node3 -->
<g id="edge2" class="edge"><title>Node1&#45;&gt;Node3</title>
<path fill="none" stroke="midnightblue" d="M1988.54,-302.146C1982.83,-288.77 1970.58,-263.153 1954.09,-246 1942.34,-233.773 1927.07,-223.134 1913.09,-214.816"/>
<polygon fill="midnightblue" stroke="midnightblue" points="1914.56,-211.623 1904.15,-209.691 1911.08,-217.698 1914.56,-211.623"/>
</g>
<!-- Node8 -->
<g id="node8" class="node"><title>Node8</title>
<polygon fill="none" stroke="#bfbfbf" points="1825.59,-246.5 1825.59,-265.5 1944.59,-265.5 1944.59,-246.5 1825.59,-246.5"/>
<text text-anchor="middle" x="1885.09" y="-253.5" font-family="Helvetica,sans-Serif" font-size="10.00">getTestDataDirectory.h</text>
</g>
<!-- Node1&#45;&gt;Node8 -->
<g id="edge7" class="edge"><title>Node1&#45;&gt;Node8</title>
<path fill="none" stroke="midnightblue" d="M1974.9,-302.324C1957.74,-293.664 1931.15,-280.242 1911.35,-270.249"/>
<polygon fill="midnightblue" stroke="midnightblue" points="1912.75,-267.035 1902.24,-265.655 1909.59,-273.285 1912.75,-267.035"/>
</g>
<!-- Node9 -->
<g id="node9" class="node"><title>Node9</title>
<g id="a_node9"><a xlink:href="CheckRunner_8h.html" target="_top" xlink:title="QualityControl/CheckRunner.h">
<polygon fill="none" stroke="black" points="892.094,-246.5 892.094,-265.5 1042.09,-265.5 1042.09,-246.5 892.094,-246.5"/>
<text text-anchor="middle" x="967.094" y="-253.5" font-family="Helvetica,sans-Serif" font-size="10.00">QualityControl/CheckRunner.h</text>
</a>
</g>
</g>
<!-- Node1&#45;&gt;Node9 -->
<g id="edge8" class="edge"><title>Node1&#45;&gt;Node9</title>
<path fill="none" stroke="midnightblue" d="M1909.95,-306.672C1718.95,-296.61 1246.52,-271.721 1052.43,-261.496"/>
<polygon fill="midnightblue" stroke="midnightblue" points="1052.45,-257.992 1042.28,-260.961 1052.08,-264.982 1052.45,-257.992"/>
</g>
<!-- Node36 -->
<g id="node36" class="node"><title>Node36</title>
<g id="a_node36"><a xlink:href="runnerUtils_8h.html" target="_top" xlink:title="QualityControl/runnerUtils.h">
<polygon fill="none" stroke="black" points="1971.59,-67.5 1971.59,-86.5 2108.59,-86.5 2108.59,-67.5 1971.59,-67.5"/>
<text text-anchor="middle" x="2040.09" y="-74.5" font-family="Helvetica,sans-Serif" font-size="10.00">QualityControl/runnerUtils.h</text>
</a>
</g>
</g>
<!-- Node1&#45;&gt;Node36 -->
<g id="edge72" class="edge"><title>Node1&#45;&gt;Node36</title>
<path fill="none" stroke="midnightblue" d="M1993.86,-302.431C2000.81,-268.683 2026.4,-144.47 2036.22,-96.7991"/>
<polygon fill="midnightblue" stroke="midnightblue" points="2039.67,-97.3963 2038.26,-86.8958 2032.82,-95.9839 2039.67,-97.3963"/>
</g>
<!-- Node38 -->
<g id="node38" class="node"><title>Node38</title>
<polygon fill="none" stroke="#bfbfbf" points="2039.09,-246.5 2039.09,-265.5 2199.09,-265.5 2199.09,-246.5 2039.09,-246.5"/>
<text text-anchor="middle" x="2119.09" y="-253.5" font-family="Helvetica,sans-Serif" font-size="10.00">Framework/runDataProcessing.h</text>
</g>
<!-- Node1&#45;&gt;Node38 -->
<g id="edge76" class="edge"><title>Node1&#45;&gt;Node38</title>
<path fill="none" stroke="midnightblue" d="M2012.22,-302.444C2033.12,-293.557 2066.03,-279.563 2089.81,-269.451"/>
<polygon fill="midnightblue" stroke="midnightblue" points="2091.23,-272.65 2099.07,-265.516 2088.49,-266.208 2091.23,-272.65"/>
</g>
<!-- Node39 -->
<g id="node39" class="node"><title>Node39</title>
<polygon fill="none" stroke="#bfbfbf" points="2217.59,-246.5 2217.59,-265.5 2358.59,-265.5 2358.59,-246.5 2217.59,-246.5"/>
<text text-anchor="middle" x="2288.09" y="-253.5" font-family="Helvetica,sans-Serif" font-size="10.00">Framework/ControlService.h</text>
</g>
<!-- Node1&#45;&gt;Node39 -->
<g id="edge77" class="edge"><title>Node1&#45;&gt;Node39</title>
<path fill="none" stroke="midnightblue" d="M2039,-302.444C2091.17,-292.925 2175.47,-277.547 2231.33,-267.356"/>
<polygon fill="midnightblue" stroke="midnightblue" points="2232.2,-270.754 2241.41,-265.516 2230.95,-263.868 2232.2,-270.754"/>
</g>
<!-- Node40 -->
<g id="node40" class="node"><title>Node40</title>
<polygon fill="none" stroke="#bfbfbf" points="2377.09,-246.5 2377.09,-265.5 2427.09,-265.5 2427.09,-246.5 2377.09,-246.5"/>
<text text-anchor="middle" x="2402.09" y="-253.5" font-family="Helvetica,sans-Serif" font-size="10.00">TH1F.h</text>
</g>
<!-- Node1&#45;&gt;Node40 -->
<g id="edge78" class="edge"><title>Node1&#45;&gt;Node40</title>
<path fill="none" stroke="midnightblue" d="M2074.38,-304.484C2148.59,-297.846 2260.8,-285.92 2367.01,-265.971"/>
<polygon fill="midnightblue" stroke="midnightblue" points="2367.77,-269.389 2376.93,-264.079 2366.46,-262.513 2367.77,-269.389"/>
</g>
<!-- Node4 -->
<g id="node4" class="node"><title>Node4</title>
<polygon fill="none" stroke="#bfbfbf" points="1243.09,-123.5 1243.09,-142.5 1287.09,-142.5 1287.09,-123.5 1243.09,-123.5"/>
<text text-anchor="middle" x="1265.09" y="-130.5" font-family="Helvetica,sans-Serif" font-size="10.00">vector</text>
</g>
<!-- Node3&#45;&gt;Node4 -->
<g id="edge3" class="edge"><title>Node3&#45;&gt;Node4</title>
<path fill="none" stroke="midnightblue" d="M1804.82,-186.646C1672.85,-173.773 1392.67,-146.443 1297.5,-137.161"/>
<polygon fill="midnightblue" stroke="midnightblue" points="1297.64,-133.658 1287.35,-136.17 1296.96,-140.625 1297.64,-133.658"/>
</g>
<!-- Node5 -->
<g id="node5" class="node"><title>Node5</title>
<polygon fill="none" stroke="#bfbfbf" points="1214.59,-6 1214.59,-25 1255.59,-25 1255.59,-6 1214.59,-6"/>
<text text-anchor="middle" x="1235.09" y="-13" font-family="Helvetica,sans-Serif" font-size="10.00">string</text>
</g>
<!-- Node3&#45;&gt;Node5 -->
<g id="edge4" class="edge"><title>Node3&#45;&gt;Node5</title>
<path fill="none" stroke="midnightblue" d="M1911.38,-179.436C1939.23,-166.467 1970.38,-145.817 1954.09,-123 1909.59,-60.6536 1866,-83.0245 1791.09,-67 1594.28,-24.8967 1350.94,-17.8703 1266.04,-16.7181"/>
<polygon fill="midnightblue" stroke="midnightblue" points="1265.85,-13.2157 1255.81,-16.598 1265.77,-20.2152 1265.85,-13.2157"/>
</g>
<!-- Node6 -->
<g id="node6" class="node"><title>Node6</title>
<polygon fill="none" stroke="#bfbfbf" points="1805.09,-123.5 1805.09,-142.5 1945.09,-142.5 1945.09,-123.5 1805.09,-123.5"/>
<text text-anchor="middle" x="1875.09" y="-130.5" font-family="Helvetica,sans-Serif" font-size="10.00">Framework/WorkflowSpec.h</text>
</g>
<!-- Node3&#45;&gt;Node6 -->
<g id="edge5" class="edge"><title>Node3&#45;&gt;Node6</title>
<path fill="none" stroke="midnightblue" d="M1875.09,-179.399C1875.09,-171.466 1875.09,-161.458 1875.09,-152.858"/>
<polygon fill="midnightblue" stroke="midnightblue" points="1878.59,-152.658 1875.09,-142.658 1871.59,-152.658 1878.59,-152.658"/>
</g>
<!-- Node7 -->
<g id="node7" class="node"><title>Node7</title>
<polygon fill="none" stroke="#bfbfbf" points="1585.09,-123.5 1585.09,-142.5 1749.09,-142.5 1749.09,-123.5 1585.09,-123.5"/>
<text text-anchor="middle" x="1667.09" y="-130.5" font-family="Helvetica,sans-Serif" font-size="10.00">Framework/DataProcessorSpec.h</text>
</g>
<!-- Node3&#45;&gt;Node7 -->
<g id="edge6" class="edge"><title>Node3&#45;&gt;Node7</title>
<path fill="none" stroke="midnightblue" d="M1826.06,-179.475C1789.71,-169.075 1740.78,-155.078 1706.85,-145.372"/>
<polygon fill="midnightblue" stroke="midnightblue" points="1707.41,-141.892 1696.83,-142.506 1705.48,-148.622 1707.41,-141.892"/>
</g>
<!-- Node9&#45;&gt;Node4 -->
<g id="edge13" class="edge"><title>Node9&#45;&gt;Node4</title>
<path fill="none" stroke="midnightblue" d="M1042.37,-253.794C1119.35,-250.825 1231.58,-241.106 1260.09,-210 1274.1,-194.729 1272.83,-169.683 1269.74,-152.547"/>
<polygon fill="midnightblue" stroke="midnightblue" points="1273.13,-151.643 1267.59,-142.61 1266.29,-153.124 1273.13,-151.643"/>
</g>
<!-- Node9&#45;&gt;Node5 -->
<g id="edge11" class="edge"><title>Node9&#45;&gt;Node5</title>
<path fill="none" stroke="midnightblue" d="M1042.28,-255.439C1156.15,-254.736 1378.63,-247.999 1563.09,-210 1652.85,-191.511 1704.85,-217.588 1758.09,-143 1817.95,-59.1372 1386.32,-25.8745 1265.78,-18.2775"/>
<polygon fill="midnightblue" stroke="midnightblue" points="1265.93,-14.7805 1255.73,-17.6591 1265.5,-21.7672 1265.93,-14.7805"/>
</g>
<!-- Node9&#45;&gt;Node7 -->
<g id="edge20" class="edge"><title>Node9&#45;&gt;Node7</title>
<path fill="none" stroke="midnightblue" d="M1042.28,-252.248C1170.44,-246.98 1425.72,-233.824 1512.09,-210 1562.41,-196.122 1616,-165.954 1645.12,-148.083"/>
<polygon fill="midnightblue" stroke="midnightblue" points="1647.05,-151.007 1653.68,-142.748 1643.35,-145.066 1647.05,-151.007"/>
</g>
<!-- Node10 -->
<g id="node10" class="node"><title>Node10</title>
<polygon fill="none" stroke="#bfbfbf" points="213.094,-185 213.094,-204 259.094,-204 259.094,-185 213.094,-185"/>
<text text-anchor="middle" x="236.094" y="-192" font-family="Helvetica,sans-Serif" font-size="10.00">chrono</text>
</g>
<!-- Node9&#45;&gt;Node10 -->
<g id="edge9" class="edge"><title>Node9&#45;&gt;Node10</title>
<path fill="none" stroke="midnightblue" d="M892.025,-246.86C888.67,-246.557 885.348,-246.268 882.094,-246 611.872,-223.719 537.917,-268.183 273.094,-210 270.092,-209.34 267.013,-208.471 263.976,-207.485"/>
<polygon fill="midnightblue" stroke="midnightblue" points="265.155,-204.189 254.561,-204.051 262.756,-210.765 265.155,-204.189"/>
</g>
<!-- Node11 -->
<g id="node11" class="node"><title>Node11</title>
<polygon fill="none" stroke="#bfbfbf" points="281.094,-123.5 281.094,-142.5 333.094,-142.5 333.094,-123.5 281.094,-123.5"/>
<text text-anchor="middle" x="307.094" y="-130.5" font-family="Helvetica,sans-Serif" font-size="10.00">memory</text>
</g>
<!-- Node9&#45;&gt;Node11 -->
<g id="edge10" class="edge"><title>Node9&#45;&gt;Node11</title>
<path fill="none" stroke="midnightblue" d="M892.023,-246.887C888.669,-246.576 885.347,-246.279 882.094,-246 821.297,-240.786 382.763,-246.808 334.094,-210 316.421,-196.634 310.28,-170.751 308.168,-152.934"/>
<polygon fill="midnightblue" stroke="midnightblue" points="311.643,-152.495 307.293,-142.834 304.669,-153.099 311.643,-152.495"/>
</g>
<!-- Node12 -->
<g id="node12" class="node"><title>Node12</title>
<polygon fill="none" stroke="#bfbfbf" points="871.594,-6 871.594,-25 906.594,-25 906.594,-6 871.594,-6"/>
<text text-anchor="middle" x="889.094" y="-13" font-family="Helvetica,sans-Serif" font-size="10.00">map</text>
</g>
<!-- Node9&#45;&gt;Node12 -->
<g id="edge12" class="edge"><title>Node9&#45;&gt;Node12</title>
<path fill="none" stroke="midnightblue" d="M1042.37,-253.654C1123.72,-250.603 1246.28,-240.85 1280.09,-210 1309.14,-183.502 1320.12,-154.12 1296.09,-123 1284.13,-107.496 1006.4,-43.1871 916.734,-22.7584"/>
<polygon fill="midnightblue" stroke="midnightblue" points="917.289,-19.2953 906.762,-20.4908 915.737,-26.1211 917.289,-19.2953"/>
</g>
<!-- Node13 -->
<g id="node13" class="node"><title>Node13</title>
<polygon fill="none" stroke="#bfbfbf" points="353.094,-185 353.094,-204 431.094,-204 431.094,-185 353.094,-185"/>
<text text-anchor="middle" x="392.094" y="-192" font-family="Helvetica,sans-Serif" font-size="10.00">unordered_set</text>
</g>
<!-- Node9&#45;&gt;Node13 -->
<g id="edge14" class="edge"><title>Node9&#45;&gt;Node13</title>
<path fill="none" stroke="midnightblue" d="M892.017,-246.951C888.664,-246.623 885.345,-246.304 882.094,-246 685.858,-227.622 633.742,-246.704 440.094,-210 435.644,-209.157 431.02,-208.057 426.477,-206.84"/>
<polygon fill="midnightblue" stroke="midnightblue" points="427.336,-203.445 416.758,-204.043 425.4,-210.172 427.336,-203.445"/>
</g>
<!-- Node14 -->
<g id="node14" class="node"><title>Node14</title>
<polygon fill="none" stroke="#bfbfbf" points="449.094,-185 449.094,-204 541.094,-204 541.094,-185 449.094,-185"/>
<text text-anchor="middle" x="495.094" y="-192" font-family="Helvetica,sans-Serif" font-size="10.00">Common/Timer.h</text>
</g>
<!-- Node9&#45;&gt;Node14 -->
<g id="edge15" class="edge"><title>Node9&#45;&gt;Node14</title>
<path fill="none" stroke="midnightblue" d="M892.002,-247.041C774.197,-234.534 558.407,-211.535 550.094,-210 544.946,-209.049 539.572,-207.87 534.285,-206.599"/>
<polygon fill="midnightblue" stroke="midnightblue" points="534.863,-203.135 524.31,-204.074 533.146,-209.921 534.863,-203.135"/>
</g>
<!-- Node15 -->
<g id="node15" class="node"><title>Node15</title>
<polygon fill="none" stroke="#bfbfbf" points="559.094,-185 559.094,-204 657.094,-204 657.094,-185 559.094,-185"/>
<text text-anchor="middle" x="608.094" y="-192" font-family="Helvetica,sans-Serif" font-size="10.00">Framework/Task.h</text>
</g>
<!-- Node9&#45;&gt;Node15 -->
<g id="edge16" class="edge"><title>Node9&#45;&gt;Node15</title>
<path fill="none" stroke="midnightblue" d="M897.122,-246.486C835.905,-238.574 744.73,-225.669 666.094,-210 660.75,-208.935 655.159,-207.697 649.646,-206.402"/>
<polygon fill="midnightblue" stroke="midnightblue" points="650.422,-202.989 639.879,-204.034 648.773,-209.792 650.422,-202.989"/>
</g>
<!-- Node16 -->
<g id="node16" class="node"><title>Node16</title>
<polygon fill="none" stroke="#bfbfbf" points="675.594,-185 675.594,-204 792.594,-204 792.594,-185 675.594,-185"/>
<text text-anchor="middle" x="734.094" y="-192" font-family="Helvetica,sans-Serif" font-size="10.00">Headers/DataHeader.h</text>
</g>
<!-- Node9&#45;&gt;Node16 -->
<g id="edge17" class="edge"><title>Node9&#45;&gt;Node16</title>
<path fill="none" stroke="midnightblue" d="M933.711,-246.475C892.532,-235.959 822.445,-218.062 777.226,-206.514"/>
<polygon fill="midnightblue" stroke="midnightblue" points="777.971,-203.092 767.416,-204.009 776.239,-209.875 777.971,-203.092"/>
</g>
<!-- Node17 -->
<g id="node17" class="node"><title>Node17</title>
<polygon fill="none" stroke="#bfbfbf" points="810.594,-185 810.594,-204 961.594,-204 961.594,-185 810.594,-185"/>
<text text-anchor="middle" x="886.094" y="-192" font-family="Helvetica,sans-Serif" font-size="10.00">Monitoring/MonitoringFactory.h</text>
</g>
<!-- Node9&#45;&gt;Node17 -->
<g id="edge18" class="edge"><title>Node9&#45;&gt;Node17</title>
<path fill="none" stroke="midnightblue" d="M955.489,-246.475C942.617,-237.02 921.62,-221.596 906.089,-210.187"/>
<polygon fill="midnightblue" stroke="midnightblue" points="907.81,-207.108 897.678,-204.009 903.666,-212.75 907.81,-207.108"/>
</g>
<!-- Node18 -->
<g id="node18" class="node"><title>Node18</title>
<polygon fill="none" stroke="#bfbfbf" points="979.594,-179.5 979.594,-209.5 1114.59,-209.5 1114.59,-179.5 979.594,-179.5"/>
<text text-anchor="start" x="987.594" y="-197.5" font-family="Helvetica,sans-Serif" font-size="10.00">Configuration/Configuration</text>
<text text-anchor="middle" x="1047.09" y="-186.5" font-family="Helvetica,sans-Serif" font-size="10.00">Interface.h</text>
</g>
<!-- Node9&#45;&gt;Node18 -->
<g id="edge19" class="edge"><title>Node9&#45;&gt;Node18</title>
<path fill="none" stroke="midnightblue" d="M978.557,-246.475C989.29,-238.492 1005.74,-226.254 1019.84,-215.77"/>
<polygon fill="midnightblue" stroke="midnightblue" points="1022.3,-218.299 1028.24,-209.523 1018.13,-212.682 1022.3,-218.299"/>
</g>
<!-- Node19 -->
<g id="node19" class="node"><title>Node19</title>
<g id="a_node19"><a xlink:href="CheckInterface_8h.html" target="_top" xlink:title="QualityControl/CheckInterface.h">
<polygon fill="none" stroke="black" points="671.594,-123.5 671.594,-142.5 828.594,-142.5 828.594,-123.5 671.594,-123.5"/>
<text text-anchor="middle" x="750.094" y="-130.5" font-family="Helvetica,sans-Serif" font-size="10.00">QualityControl/CheckInterface.h</text>
</a>
</g>
</g>
<!-- Node9&#45;&gt;Node19 -->
<g id="edge21" class="edge"><title>Node9&#45;&gt;Node19</title>
<path fill="none" stroke="midnightblue" d="M892.022,-246.892C888.668,-246.58 885.347,-246.281 882.094,-246 822.405,-240.845 385.02,-253.755 344.094,-210 334.683,-199.938 334.904,-189.265 344.094,-179 364.872,-155.792 548.369,-143.244 661.443,-137.655"/>
<polygon fill="midnightblue" stroke="midnightblue" points="661.664,-141.148 671.483,-137.168 661.325,-134.157 661.664,-141.148"/>
</g>
<!-- Node22 -->
<g id="node22" class="node"><title>Node22</title>
<g id="a_node22"><a xlink:href="MonitorObject_8h.html" target="_top" xlink:title="QualityControl/MonitorObject.h">
<polygon fill="none" stroke="black" points="493.594,-67.5 493.594,-86.5 644.594,-86.5 644.594,-67.5 493.594,-67.5"/>
<text text-anchor="middle" x="569.094" y="-74.5" font-family="Helvetica,sans-Serif" font-size="10.00">QualityControl/MonitorObject.h</text>
</a>
</g>
</g>
<!-- Node9&#45;&gt;Node22 -->
<g id="edge48" class="edge"><title>Node9&#45;&gt;Node22</title>
<path fill="none" stroke="midnightblue" d="M892.031,-246.789C888.674,-246.505 885.35,-246.24 882.094,-246 834.072,-242.463 49.4289,-244.749 16.0945,-210 -35.1664,-156.564 52.5725,-139.024 96.0945,-123 164.942,-97.6508 366.484,-85.8027 483.074,-80.9321"/>
<polygon fill="midnightblue" stroke="midnightblue" points="483.544,-84.416 493.393,-80.51 483.258,-77.4218 483.544,-84.416"/>
</g>
<!-- Node26 -->
<g id="node26" class="node"><title>Node26</title>
<g id="a_node26"><a xlink:href="DatabaseInterface_8h.html" target="_top" xlink:title="QualityControl/DatabaseInterface.h">
<polygon fill="none" stroke="black" points="25.0945,-185 25.0945,-204 195.094,-204 195.094,-185 25.0945,-185"/>
<text text-anchor="middle" x="110.094" y="-192" font-family="Helvetica,sans-Serif" font-size="10.00">QualityControl/DatabaseInterface.h</text>
</a>
</g>
</g>
<!-- Node9&#45;&gt;Node26 -->
<g id="edge36" class="edge"><title>Node9&#45;&gt;Node26</title>
<path fill="none" stroke="midnightblue" d="M892.027,-246.836C888.672,-246.539 885.349,-246.259 882.094,-246 581.284,-222.105 504.252,-241.041 204.094,-210 192.788,-208.831 180.766,-207.242 169.23,-205.544"/>
<polygon fill="midnightblue" stroke="midnightblue" points="169.659,-202.069 159.248,-204.031 168.611,-208.99 169.659,-202.069"/>
</g>
<!-- Node29 -->
<g id="node29" class="node"><title>Node29</title>
<g id="a_node29"><a xlink:href="QcInfoLogger_8h.html" target="_top" xlink:title="QualityControl/QcInfoLogger.h">
<polygon fill="none" stroke="black" points="1380.59,-123.5 1380.59,-142.5 1529.59,-142.5 1529.59,-123.5 1380.59,-123.5"/>
<text text-anchor="middle" x="1455.09" y="-130.5" font-family="Helvetica,sans-Serif" font-size="10.00">QualityControl/QcInfoLogger.h</text>
</a>
</g>
</g>
<!-- Node9&#45;&gt;Node29 -->
<g id="edge49" class="edge"><title>Node9&#45;&gt;Node29</title>
<path fill="none" stroke="midnightblue" d="M1042.1,-254.101C1180.58,-251.657 1465.09,-242.673 1495.09,-210 1511.62,-192.001 1490.59,-165.897 1473.32,-149.444"/>
<polygon fill="midnightblue" stroke="midnightblue" points="1475.56,-146.748 1465.8,-142.627 1470.86,-151.936 1475.56,-146.748"/>
</g>
<!-- Node32 -->
<g id="node32" class="node"><title>Node32</title>
<g id="a_node32"><a xlink:href="Check_8h_source.html" target="_top" xlink:title="QualityControl/Check.h">
<polygon fill="none" stroke="black" points="1132.59,-185 1132.59,-204 1251.59,-204 1251.59,-185 1132.59,-185"/>
<text text-anchor="middle" x="1192.09" y="-192" font-family="Helvetica,sans-Serif" font-size="10.00">QualityControl/Check.h</text>
</a>
</g>
</g>
<!-- Node9&#45;&gt;Node32 -->
<g id="edge52" class="edge"><title>Node9&#45;&gt;Node32</title>
<path fill="none" stroke="midnightblue" d="M999.331,-246.475C1039.01,-235.982 1106.49,-218.137 1150.17,-206.587"/>
<polygon fill="midnightblue" stroke="midnightblue" points="1151.14,-209.949 1159.92,-204.009 1149.35,-203.182 1151.14,-209.949"/>
</g>
<!-- Node35 -->
<g id="node35" class="node"><title>Node35</title>
<g id="a_node35"><a xlink:href="UpdatePolicyManager_8h.html" target="_top" xlink:title="QualityControl/UpdatePolicy\lManager.h">
<polygon fill="none" stroke="black" points="1346.09,-179.5 1346.09,-209.5 1486.09,-209.5 1486.09,-179.5 1346.09,-179.5"/>
<text text-anchor="start" x="1354.09" y="-197.5" font-family="Helvetica,sans-Serif" font-size="10.00">QualityControl/UpdatePolicy</text>
<text text-anchor="middle" x="1416.09" y="-186.5" font-family="Helvetica,sans-Serif" font-size="10.00">Manager.h</text>
</a>
</g>
</g>
<!-- Node9&#45;&gt;Node35 -->
<g id="edge67" class="edge"><title>Node9&#45;&gt;Node35</title>
<path fill="none" stroke="midnightblue" d="M1042.39,-246.792C1116.29,-238.482 1232.14,-224.779 1332.09,-210 1333.37,-209.811 1334.66,-209.619 1335.95,-209.422"/>
<polygon fill="midnightblue" stroke="midnightblue" points="1336.67,-212.854 1346.01,-207.858 1335.59,-205.937 1336.67,-212.854"/>
</g>
<!-- Node19&#45;&gt;Node5 -->
<g id="edge22" class="edge"><title>Node19&#45;&gt;Node5</title>
<path fill="none" stroke="midnightblue" d="M812.575,-123.479C865.327,-115.729 942.664,-103.06 1009.09,-87 1080.29,-69.788 1161.88,-42.3746 1204.9,-27.3043"/>
<polygon fill="midnightblue" stroke="midnightblue" points="1206.2,-30.5545 1214.47,-23.9294 1203.88,-23.9525 1206.2,-30.5545"/>
</g>
<!-- Node19&#45;&gt;Node12 -->
<g id="edge23" class="edge"><title>Node19&#45;&gt;Node12</title>
<path fill="none" stroke="midnightblue" d="M779.907,-123.378C800.595,-116.234 827.796,-104.408 847.094,-87 863.082,-72.5787 874.83,-50.6155 881.773,-35.0404"/>
<polygon fill="midnightblue" stroke="midnightblue" points="885.156,-36.0245 885.805,-25.4496 878.703,-33.3118 885.156,-36.0245"/>
</g>
<!-- Node20 -->
<g id="node20" class="node"><title>Node20</title>
<polygon fill="none" stroke="#bfbfbf" points="917.594,-67.5 917.594,-86.5 1000.59,-86.5 1000.59,-67.5 917.594,-67.5"/>
<text text-anchor="middle" x="959.094" y="-74.5" font-family="Helvetica,sans-Serif" font-size="10.00">unordered_map</text>
</g>
<!-- Node19&#45;&gt;Node20 -->
<g id="edge24" class="edge"><title>Node19&#45;&gt;Node20</title>
<path fill="none" stroke="midnightblue" d="M783.211,-123.444C819.212,-114.142 876.864,-99.246 916.28,-89.062"/>
<polygon fill="midnightblue" stroke="midnightblue" points="917.326,-92.4068 926.133,-86.5164 915.575,-85.6294 917.326,-92.4068"/>
</g>
<!-- Node21 -->
<g id="node21" class="node"><title>Node21</title>
<polygon fill="none" stroke="#bfbfbf" points="734.094,-6 734.094,-25 790.094,-25 790.094,-6 734.094,-6"/>
<text text-anchor="middle" x="762.094" y="-13" font-family="Helvetica,sans-Serif" font-size="10.00">Rtypes.h</text>
</g>
<!-- Node19&#45;&gt;Node21 -->
<g id="edge25" class="edge"><title>Node19&#45;&gt;Node21</title>
<path fill="none" stroke="midnightblue" d="M781.117,-123.436C799.127,-116.694 820.326,-105.302 831.094,-87 844.726,-63.8334 815.708,-42.574 791.212,-29.5909"/>
<polygon fill="midnightblue" stroke="midnightblue" points="792.65,-26.3966 782.143,-25.0335 789.507,-32.6512 792.65,-26.3966"/>
</g>
<!-- Node19&#45;&gt;Node22 -->
<g id="edge26" class="edge"><title>Node19&#45;&gt;Node22</title>
<path fill="none" stroke="midnightblue" d="M721.414,-123.444C690.568,-114.241 641.366,-99.5617 607.265,-89.3879"/>
<polygon fill="midnightblue" stroke="midnightblue" points="608.224,-86.0215 597.64,-86.5164 606.222,-92.7293 608.224,-86.0215"/>
</g>
<!-- Node25 -->
<g id="node25" class="node"><title>Node25</title>
<g id="a_node25"><a xlink:href="Quality_8h.html" target="_top" xlink:title="QualityControl/Quality.h">
<polygon fill="none" stroke="black" points="701.594,-67.5 701.594,-86.5 822.594,-86.5 822.594,-67.5 701.594,-67.5"/>
<text text-anchor="middle" x="762.094" y="-74.5" font-family="Helvetica,sans-Serif" font-size="10.00">QualityControl/Quality.h</text>
</a>
</g>
</g>
<!-- Node19&#45;&gt;Node25 -->
<g id="edge32" class="edge"><title>Node19&#45;&gt;Node25</title>
<path fill="none" stroke="midnightblue" d="M752.076,-123.083C753.666,-115.927 755.953,-105.635 757.941,-96.6911"/>
<polygon fill="midnightblue" stroke="midnightblue" points="761.397,-97.2722 760.15,-86.7511 754.564,-95.7537 761.397,-97.2722"/>
</g>
<!-- Node22&#45;&gt;Node5 -->
<g id="edge27" class="edge"><title>Node22&#45;&gt;Node5</title>
<path fill="none" stroke="midnightblue" d="M644.845,-69.2325C790.733,-56.199 1105.05,-28.118 1204.36,-19.2454"/>
<polygon fill="midnightblue" stroke="midnightblue" points="1204.7,-22.7298 1214.35,-18.3537 1204.07,-15.7575 1204.7,-22.7298"/>
</g>
<!-- Node22&#45;&gt;Node12 -->
<g id="edge28" class="edge"><title>Node22&#45;&gt;Node12</title>
<path fill="none" stroke="midnightblue" d="M614.943,-67.4751C682.342,-54.9431 806.13,-31.9263 861.296,-21.6689"/>
<polygon fill="midnightblue" stroke="midnightblue" points="862.185,-25.0635 871.377,-19.7944 860.905,-18.1815 862.185,-25.0635"/>
</g>
<!-- Node22&#45;&gt;Node21 -->
<g id="edge29" class="edge"><title>Node22&#45;&gt;Node21</title>
<path fill="none" stroke="midnightblue" d="M596.747,-67.4751C630.283,-57.1362 686.967,-39.6611 724.462,-28.1017"/>
<polygon fill="midnightblue" stroke="midnightblue" points="725.969,-31.2999 734.494,-25.0091 723.906,-24.6106 725.969,-31.2999"/>
</g>
<!-- Node23 -->
<g id="node23" class="node"><title>Node23</title>
<polygon fill="none" stroke="#bfbfbf" points="415.594,-6 415.594,-25 474.594,-25 474.594,-6 415.594,-6"/>
<text text-anchor="middle" x="445.094" y="-13" font-family="Helvetica,sans-Serif" font-size="10.00">TObject.h</text>
</g>
<!-- Node22&#45;&gt;Node23 -->
<g id="edge30" class="edge"><title>Node22&#45;&gt;Node23</title>
<path fill="none" stroke="midnightblue" d="M551.328,-67.4751C530.61,-57.5338 496.142,-40.9947 472.106,-29.461"/>
<polygon fill="midnightblue" stroke="midnightblue" points="473.358,-26.1797 462.828,-25.0091 470.329,-32.4908 473.358,-26.1797"/>
</g>
<!-- Node24 -->
<g id="node24" class="node"><title>Node24</title>
<polygon fill="none" stroke="#bfbfbf" points="511.094,-6 511.094,-25 627.094,-25 627.094,-6 511.094,-6"/>
<text text-anchor="middle" x="569.094" y="-13" font-family="Helvetica,sans-Serif" font-size="10.00">Common/Exceptions.h</text>
</g>
<!-- Node22&#45;&gt;Node24 -->
<g id="edge31" class="edge"><title>Node22&#45;&gt;Node24</title>
<path fill="none" stroke="midnightblue" d="M569.094,-67.4751C569.094,-59.0803 569.094,-45.9806 569.094,-35.1631"/>
<polygon fill="midnightblue" stroke="midnightblue" points="572.595,-35.0091 569.094,-25.0091 565.595,-35.0091 572.595,-35.0091"/>
</g>
<!-- Node25&#45;&gt;Node5 -->
<g id="edge34" class="edge"><title>Node25&#45;&gt;Node5</title>
<path fill="none" stroke="midnightblue" d="M822.963,-68.3432C925.194,-55.4832 1127.73,-30.0052 1204.57,-20.3399"/>
<polygon fill="midnightblue" stroke="midnightblue" points="1205.07,-23.8048 1214.55,-19.084 1204.19,-16.8595 1205.07,-23.8048"/>
</g>
<!-- Node25&#45;&gt;Node12 -->
<g id="edge35" class="edge"><title>Node25&#45;&gt;Node12</title>
<path fill="none" stroke="midnightblue" d="M780.29,-67.4751C801.725,-57.4329 837.53,-40.6583 862.176,-29.1113"/>
<polygon fill="midnightblue" stroke="midnightblue" points="863.771,-32.2292 871.342,-24.8173 860.801,-25.8904 863.771,-32.2292"/>
</g>
<!-- Node25&#45;&gt;Node21 -->
<g id="edge33" class="edge"><title>Node25&#45;&gt;Node21</title>
<path fill="none" stroke="midnightblue" d="M762.094,-67.4751C762.094,-59.0803 762.094,-45.9806 762.094,-35.1631"/>
<polygon fill="midnightblue" stroke="midnightblue" points="765.595,-35.0091 762.094,-25.0091 758.595,-35.0091 765.595,-35.0091"/>
</g>
<!-- Node26&#45;&gt;Node4 -->
<g id="edge39" class="edge"><title>Node26&#45;&gt;Node4</title>
<path fill="none" stroke="midnightblue" d="M158.262,-184.952C172.932,-182.65 189.134,-180.411 204.094,-179 656.35,-136.358 779.143,-212.324 1232.77,-142.554"/>
<polygon fill="midnightblue" stroke="midnightblue" points="1233.52,-145.979 1242.87,-140.985 1232.45,-139.062 1233.52,-145.979"/>
</g>
<!-- Node26&#45;&gt;Node5 -->
<g id="edge37" class="edge"><title>Node26&#45;&gt;Node5</title>
<path fill="none" stroke="midnightblue" d="M158.751,-184.933C173.294,-182.66 189.303,-180.441 204.094,-179 397.787,-160.136 890.011,-189.046 1079.09,-143 1136.28,-129.074 1156.75,-127.872 1199.09,-87 1214.04,-72.577 1223.88,-50.614 1229.44,-35.0396"/>
<polygon fill="midnightblue" stroke="midnightblue" points="1232.8,-36.0424 1232.62,-25.4491 1226.15,-33.8432 1232.8,-36.0424"/>
</g>
<!-- Node26&#45;&gt;Node11 -->
<g id="edge38" class="edge"><title>Node26&#45;&gt;Node11</title>
<path fill="none" stroke="midnightblue" d="M138.32,-184.975C173.283,-174.415 232.896,-156.41 271.111,-144.868"/>
<polygon fill="midnightblue" stroke="midnightblue" points="272.249,-148.181 280.81,-141.939 270.225,-141.479 272.249,-148.181"/>
</g>
<!-- Node26&#45;&gt;Node20 -->
<g id="edge40" class="edge"><title>Node26&#45;&gt;Node20</title>
<path fill="none" stroke="midnightblue" d="M159.738,-184.929C174.02,-182.711 189.643,-180.522 204.094,-179 344.214,-164.243 701.425,-181.011 837.094,-143 875.653,-132.197 915.774,-107.864 939.042,-92.2272"/>
<polygon fill="midnightblue" stroke="midnightblue" points="941.107,-95.0548 947.374,-86.5118 937.148,-89.2823 941.107,-95.0548"/>
</g>
<!-- Node26&#45;&gt;Node22 -->
<g id="edge47" class="edge"><title>Node26&#45;&gt;Node22</title>
<path fill="none" stroke="midnightblue" d="M106.472,-184.829C100.957,-170.079 92.628,-140.05 108.094,-123 132.753,-95.8173 356.673,-84.5194 483.125,-80.2743"/>
<polygon fill="midnightblue" stroke="midnightblue" points="483.298,-83.7706 493.178,-79.9447 483.069,-76.7743 483.298,-83.7706"/>
</g>
<!-- Node27 -->
<g id="node27" class="node"><title>Node27</title>
<polygon fill="none" stroke="#bfbfbf" points="117.094,-123.5 117.094,-142.5 263.094,-142.5 263.094,-123.5 117.094,-123.5"/>
<text text-anchor="middle" x="190.094" y="-130.5" font-family="Helvetica,sans-Serif" font-size="10.00">Framework/ServiceRegistry.h</text>
</g>
<!-- Node26&#45;&gt;Node27 -->
<g id="edge41" class="edge"><title>Node26&#45;&gt;Node27</title>
<path fill="none" stroke="midnightblue" d="M121.557,-184.975C134.269,-175.52 155.007,-160.096 170.347,-148.687"/>
<polygon fill="midnightblue" stroke="midnightblue" points="172.718,-151.285 178.654,-142.509 168.541,-145.669 172.718,-151.285"/>
</g>
<!-- Node28 -->
<g id="node28" class="node"><title>Node28</title>
<g id="a_node28"><a xlink:href="QualityObject_8h_source.html" target="_top" xlink:title="QualityControl/QualityObject.h">
<polygon fill="none" stroke="black" points="397.594,-123.5 397.594,-142.5 546.594,-142.5 546.594,-123.5 397.594,-123.5"/>
<text text-anchor="middle" x="472.094" y="-130.5" font-family="Helvetica,sans-Serif" font-size="10.00">QualityControl/QualityObject.h</text>
</a>
</g>
</g>
<!-- Node26&#45;&gt;Node28 -->
<g id="edge42" class="edge"><title>Node26&#45;&gt;Node28</title>
<path fill="none" stroke="midnightblue" d="M161.96,-184.975C227.551,-174.194 340.348,-155.654 410.322,-144.153"/>
<polygon fill="midnightblue" stroke="midnightblue" points="411.025,-147.585 420.325,-142.509 409.89,-140.677 411.025,-147.585"/>
</g>
<!-- Node28&#45;&gt;Node12 -->
<g id="edge43" class="edge"><title>Node28&#45;&gt;Node12</title>
<path fill="none" stroke="midnightblue" d="M518.732,-123.486C555.822,-115.986 608.678,-103.656 653.094,-87 671.334,-80.1603 673.88,-73.9058 692.094,-67 750.789,-44.7467 822.971,-29.0462 861.6,-21.5297"/>
<polygon fill="midnightblue" stroke="midnightblue" points="862.4,-24.9403 871.567,-19.628 861.088,-18.0644 862.4,-24.9403"/>
</g>
<!-- Node28&#45;&gt;Node23 -->
<g id="edge44" class="edge"><title>Node28&#45;&gt;Node23</title>
<path fill="none" stroke="midnightblue" d="M466.95,-123.384C461.965,-114.574 454.651,-100.328 451.094,-87 446.546,-69.9556 445.213,-49.8484 444.919,-35.4784"/>
<polygon fill="midnightblue" stroke="midnightblue" points="448.418,-35.3329 444.864,-25.352 441.418,-35.3708 448.418,-35.3329"/>
</g>
<!-- Node28&#45;&gt;Node24 -->
<g id="edge45" class="edge"><title>Node28&#45;&gt;Node24</title>
<path fill="none" stroke="midnightblue" d="M471.53,-123.141C471.126,-109.759 472.153,-84.1349 484.094,-67 496.184,-49.652 516.321,-37.3063 533.961,-29.1656"/>
<polygon fill="midnightblue" stroke="midnightblue" points="535.646,-32.2504 543.437,-25.0706 532.869,-25.8247 535.646,-32.2504"/>
</g>
<!-- Node28&#45;&gt;Node25 -->
<g id="edge46" class="edge"><title>Node28&#45;&gt;Node25</title>
<path fill="none" stroke="midnightblue" d="M518.046,-123.444C569.166,-113.925 651.748,-98.5472 706.477,-88.3563"/>
<polygon fill="midnightblue" stroke="midnightblue" points="707.168,-91.788 716.358,-86.5164 705.886,-84.9063 707.168,-91.788"/>
</g>
<!-- Node30 -->
<g id="node30" class="node"><title>Node30</title>
<polygon fill="none" stroke="#bfbfbf" points="1481.09,-67.5 1481.09,-86.5 1611.09,-86.5 1611.09,-67.5 1481.09,-67.5"/>
<text text-anchor="middle" x="1546.09" y="-74.5" font-family="Helvetica,sans-Serif" font-size="10.00">InfoLogger/InfoLogger.hxx</text>
</g>
<!-- Node29&#45;&gt;Node30 -->
<g id="edge50" class="edge"><title>Node29&#45;&gt;Node30</title>
<path fill="none" stroke="midnightblue" d="M1469.72,-123.324C1484.04,-114.822 1506.11,-101.729 1522.84,-91.7975"/>
<polygon fill="midnightblue" stroke="midnightblue" points="1524.7,-94.7677 1531.51,-86.6545 1521.12,-88.7478 1524.7,-94.7677"/>
</g>
<!-- Node31 -->
<g id="node31" class="node"><title>Node31</title>
<polygon fill="none" stroke="#bfbfbf" points="1301.09,-67.5 1301.09,-86.5 1463.09,-86.5 1463.09,-67.5 1301.09,-67.5"/>
<text text-anchor="middle" x="1382.09" y="-74.5" font-family="Helvetica,sans-Serif" font-size="10.00">InfoLogger/InfoLoggerMacros.hxx</text>
</g>
<!-- Node29&#45;&gt;Node31 -->
<g id="edge51" class="edge"><title>Node29&#45;&gt;Node31</title>
<path fill="none" stroke="midnightblue" d="M1443.37,-123.324C1432.26,-115.107 1415.35,-102.602 1402.11,-92.8069"/>
<polygon fill="midnightblue" stroke="midnightblue" points="1404.16,-89.9671 1394.04,-86.8339 1399.99,-95.5948 1404.16,-89.9671"/>
</g>
<!-- Node32&#45;&gt;Node4 -->
<g id="edge55" class="edge"><title>Node32&#45;&gt;Node4</title>
<path fill="none" stroke="midnightblue" d="M1202.55,-184.975C1214.05,-175.608 1232.72,-160.384 1246.68,-149.008"/>
<polygon fill="midnightblue" stroke="midnightblue" points="1249.11,-151.54 1254.65,-142.509 1244.69,-146.114 1249.11,-151.54"/>
</g>
<!-- Node32&#45;&gt;Node7 -->
<g id="edge58" class="edge"><title>Node32&#45;&gt;Node7</title>
<path fill="none" stroke="midnightblue" d="M1251.77,-186.025C1337.24,-175.319 1494.59,-155.609 1589.15,-143.763"/>
<polygon fill="midnightblue" stroke="midnightblue" points="1589.75,-147.216 1599.23,-142.501 1588.88,-140.271 1589.75,-147.216"/>
</g>
<!-- Node32&#45;&gt;Node11 -->
<g id="edge56" class="edge"><title>Node32&#45;&gt;Node11</title>
<path fill="none" stroke="midnightblue" d="M1156.82,-184.967C1146.05,-182.666 1134.14,-180.422 1123.09,-179 798.713,-137.239 714.112,-169.071 388.094,-143 373.484,-141.832 357.434,-140.135 343.502,-138.529"/>
<polygon fill="midnightblue" stroke="midnightblue" points="343.661,-135.024 333.32,-137.329 342.842,-141.976 343.661,-135.024"/>
</g>
<!-- Node32&#45;&gt;Node12 -->
<g id="edge54" class="edge"><title>Node32&#45;&gt;Node12</title>
<path fill="none" stroke="midnightblue" d="M1181.47,-184.971C1154.1,-163.286 1078.52,-105.069 1009.09,-67 978.437,-50.1888 941.015,-35.2555 916.197,-26.0687"/>
<polygon fill="midnightblue" stroke="midnightblue" points="917.301,-22.746 906.707,-22.6089 914.904,-29.3226 917.301,-22.746"/>
</g>
<!-- Node32&#45;&gt;Node19 -->
<g id="edge62" class="edge"><title>Node32&#45;&gt;Node19</title>
<path fill="none" stroke="midnightblue" d="M1154.24,-184.927C1144.16,-182.811 1133.24,-180.675 1123.09,-179 1026.24,-163.013 914.36,-150.271 838.589,-142.484"/>
<polygon fill="midnightblue" stroke="midnightblue" points="838.909,-138.998 828.606,-141.465 838.199,-145.962 838.909,-138.998"/>
</g>
<!-- Node32&#45;&gt;Node20 -->
<g id="edge57" class="edge"><title>Node32&#45;&gt;Node20</title>
<path fill="none" stroke="midnightblue" d="M1152.74,-184.97C1143.06,-182.944 1132.71,-180.838 1123.09,-179 1076.8,-170.152 944.459,-179.042 914.094,-143 900.339,-126.673 919.913,-106.19 937.392,-92.6286"/>
<polygon fill="midnightblue" stroke="midnightblue" points="939.653,-95.3109 945.649,-86.576 935.514,-89.6652 939.653,-95.3109"/>
</g>
<!-- Node32&#45;&gt;Node22 -->
<g id="edge61" class="edge"><title>Node32&#45;&gt;Node22</title>
<path fill="none" stroke="midnightblue" d="M1155.73,-184.928C1145.24,-182.71 1133.76,-180.521 1123.09,-179 1019.17,-164.174 749.95,-180.992 652.094,-143 624.78,-132.395 599.168,-109.634 583.812,-94.0678"/>
<polygon fill="midnightblue" stroke="midnightblue" points="586.2,-91.5004 576.762,-86.6861 581.138,-96.3352 586.2,-91.5004"/>
</g>
<!-- Node32&#45;&gt;Node25 -->
<g id="edge59" class="edge"><title>Node32&#45;&gt;Node25</title>
<path fill="none" stroke="midnightblue" d="M1155.73,-184.939C1145.24,-182.722 1133.76,-180.53 1123.09,-179 1072.24,-171.702 696.981,-180.718 662.094,-143 640.375,-119.518 681.28,-100.708 717.139,-89.4809"/>
<polygon fill="midnightblue" stroke="midnightblue" points="718.483,-92.7325 727.063,-86.5179 716.48,-86.025 718.483,-92.7325"/>
</g>
<!-- Node32&#45;&gt;Node28 -->
<g id="edge60" class="edge"><title>Node32&#45;&gt;Node28</title>
<path fill="none" stroke="midnightblue" d="M1156.45,-184.999C1145.78,-182.728 1134.01,-180.493 1123.09,-179 877.749,-145.452 813.94,-162.68 567.094,-143 563.792,-142.737 560.425,-142.46 557.025,-142.172"/>
<polygon fill="midnightblue" stroke="midnightblue" points="557.017,-138.659 546.753,-141.285 556.414,-145.633 557.017,-138.659"/>
</g>
<!-- Node32&#45;&gt;Node29 -->
<g id="edge63" class="edge"><title>Node32&#45;&gt;Node29</title>
<path fill="none" stroke="midnightblue" d="M1229.78,-184.975C1276.65,-174.371 1356.7,-156.26 1407.69,-144.724"/>
<polygon fill="midnightblue" stroke="midnightblue" points="1408.5,-148.129 1417.48,-142.509 1406.96,-141.302 1408.5,-148.129"/>
</g>
<!-- Node33 -->
<g id="node33" class="node"><title>Node33</title>
<polygon fill="none" stroke="#bfbfbf" points="1165.59,-123.5 1165.59,-142.5 1224.59,-142.5 1224.59,-123.5 1165.59,-123.5"/>
<text text-anchor="middle" x="1195.09" y="-130.5" font-family="Helvetica,sans-Serif" font-size="10.00">functional</text>
</g>
<!-- Node32&#45;&gt;Node33 -->
<g id="edge53" class="edge"><title>Node32&#45;&gt;Node33</title>
<path fill="none" stroke="midnightblue" d="M1192.52,-184.975C1192.95,-176.58 1193.61,-163.481 1194.15,-152.663"/>
<polygon fill="midnightblue" stroke="midnightblue" points="1197.66,-152.673 1194.67,-142.509 1190.67,-152.32 1197.66,-152.673"/>
</g>
<!-- Node34 -->
<g id="node34" class="node"><title>Node34</title>
<g id="a_node34"><a xlink:href="CheckConfig_8h.html" target="_top" xlink:title="QualityControl/CheckConfig.h">
<polygon fill="none" stroke="black" points="923.594,-123.5 923.594,-142.5 1070.59,-142.5 1070.59,-123.5 923.594,-123.5"/>
<text text-anchor="middle" x="997.094" y="-130.5" font-family="Helvetica,sans-Serif" font-size="10.00">QualityControl/CheckConfig.h</text>
</a>
</g>
</g>
<!-- Node32&#45;&gt;Node34 -->
<g id="edge64" class="edge"><title>Node32&#45;&gt;Node34</title>
<path fill="none" stroke="midnightblue" d="M1164.16,-184.975C1130.13,-174.592 1072.51,-157.012 1034.63,-145.454"/>
<polygon fill="midnightblue" stroke="midnightblue" points="1035.57,-142.08 1024.98,-142.509 1033.52,-148.775 1035.57,-142.08"/>
</g>
<!-- Node34&#45;&gt;Node5 -->
<g id="edge65" class="edge"><title>Node34&#45;&gt;Node5</title>
<path fill="none" stroke="midnightblue" d="M1069.45,-123.499C1102.84,-117.151 1141.9,-106.119 1173.09,-87 1194.93,-73.6135 1213.32,-50.0939 1224.27,-33.9273"/>
<polygon fill="midnightblue" stroke="midnightblue" points="1227.3,-35.6813 1229.82,-25.3905 1221.44,-31.8638 1227.3,-35.6813"/>
</g>
<!-- Node34&#45;&gt;Node20 -->
<g id="edge66" class="edge"><title>Node34&#45;&gt;Node20</title>
<path fill="none" stroke="midnightblue" d="M990.82,-123.083C985.452,-115.455 977.577,-104.264 971.016,-94.9408"/>
<polygon fill="midnightblue" stroke="midnightblue" points="973.87,-92.9149 965.253,-86.7511 968.145,-96.9434 973.87,-92.9149"/>
</g>
<!-- Node35&#45;&gt;Node4 -->
<g id="edge70" class="edge"><title>Node35&#45;&gt;Node4</title>
<path fill="none" stroke="midnightblue" d="M1380.31,-179.399C1354.86,-169.372 1321,-156.028 1296.58,-146.405"/>
<polygon fill="midnightblue" stroke="midnightblue" points="1297.65,-143.068 1287.07,-142.658 1295.09,-149.58 1297.65,-143.068"/>
</g>
<!-- Node35&#45;&gt;Node5 -->
<g id="edge68" class="edge"><title>Node35&#45;&gt;Node5</title>
<path fill="none" stroke="midnightblue" d="M1455.78,-179.461C1480.11,-170.274 1511.58,-157.341 1538.09,-143 1557.5,-132.502 1609.79,-106.513 1620.09,-87 1624.24,-79.1396 1625.96,-73.6816 1620.09,-67 1596.75,-40.3977 1352.65,-23.4587 1265.67,-18.2294"/>
<polygon fill="midnightblue" stroke="midnightblue" points="1265.82,-14.7323 1255.63,-17.6363 1265.41,-21.7202 1265.82,-14.7323"/>
</g>
<!-- Node35&#45;&gt;Node12 -->
<g id="edge69" class="edge"><title>Node35&#45;&gt;Node12</title>
<path fill="none" stroke="midnightblue" d="M1402.3,-179.309C1386.13,-163.446 1357.88,-138.021 1329.09,-123 1185.94,-48.2882 989.165,-24.9011 917.039,-18.5783"/>
<polygon fill="midnightblue" stroke="midnightblue" points="917.198,-15.0794 906.941,-17.7348 916.615,-22.0551 917.198,-15.0794"/>
</g>
<!-- Node35&#45;&gt;Node33 -->
<g id="edge71" class="edge"><title>Node35&#45;&gt;Node33</title>
<path fill="none" stroke="midnightblue" d="M1364,-179.475C1324.34,-168.797 1270.6,-154.327 1234.48,-144.603"/>
<polygon fill="midnightblue" stroke="midnightblue" points="1235.35,-141.213 1224.78,-141.993 1233.53,-147.973 1235.35,-141.213"/>
</g>
<!-- Node36&#45;&gt;Node5 -->
<g id="edge73" class="edge"><title>Node36&#45;&gt;Node5</title>
<path fill="none" stroke="midnightblue" d="M1971.27,-68.3328C1966.48,-67.8614 1961.71,-67.4119 1957.09,-67 1689.62,-43.1527 1365.55,-23.9273 1265.79,-18.2265"/>
<polygon fill="midnightblue" stroke="midnightblue" points="1265.98,-14.7314 1255.79,-17.6576 1265.58,-21.7201 1265.98,-14.7314"/>
</g>
<!-- Node36&#45;&gt;Node24 -->
<g id="edge75" class="edge"><title>Node36&#45;&gt;Node24</title>
<path fill="none" stroke="midnightblue" d="M1971.44,-74.1822C1737.31,-67.8996 971.162,-46.6327 725.094,-31 696.33,-29.1726 664.651,-26.3738 637.398,-23.7207"/>
<polygon fill="midnightblue" stroke="midnightblue" points="637.48,-20.2119 627.185,-22.7134 636.793,-27.1781 637.48,-20.2119"/>
</g>
<!-- Node37 -->
<g id="node37" class="node"><title>Node37</title>
<polygon fill="none" stroke="#bfbfbf" points="1972.59,-0.5 1972.59,-30.5 2107.59,-30.5 2107.59,-0.5 1972.59,-0.5"/>
<text text-anchor="start" x="1980.59" y="-18.5" font-family="Helvetica,sans-Serif" font-size="10.00">Configuration/Configuration</text>
<text text-anchor="middle" x="2040.09" y="-7.5" font-family="Helvetica,sans-Serif" font-size="10.00">Factory.h</text>
</g>
<!-- Node36&#45;&gt;Node37 -->
<g id="edge74" class="edge"><title>Node36&#45;&gt;Node37</title>
<path fill="none" stroke="midnightblue" d="M2040.09,-67.4751C2040.09,-60.471 2040.09,-50.1919 2040.09,-40.6956"/>
<polygon fill="midnightblue" stroke="midnightblue" points="2043.59,-40.5229 2040.09,-30.523 2036.59,-40.523 2043.59,-40.5229"/>
</g>
</g>
</svg>
