<?xml version="1.0" encoding="UTF-8" standalone="no"?>
<!DOCTYPE svg PUBLIC "-//W3C//DTD SVG 1.1//EN"
 "http://www.w3.org/Graphics/SVG/1.1/DTD/svg11.dtd">
<!-- Generated by graphviz version 2.38.0 (20140413.2041)
 -->
<!-- Title: Framework/test/testCheckRunner.cxx Pages: 1 -->
<svg width="1811pt" height="341pt"
 viewBox="0.00 0.00 1811.02 341.00" xmlns="http://www.w3.org/2000/svg" xmlns:xlink="http://www.w3.org/1999/xlink">
<g id="graph0" class="graph" transform="scale(1 1) rotate(0) translate(4 337)">
<title>Framework/test/testCheckRunner.cxx</title>
<!-- Node1 -->
<g id="node1" class="node"><title>Node1</title>
<polygon fill="#bfbfbf" stroke="black" points="886.683,-302.5 886.683,-332.5 1019.68,-332.5 1019.68,-302.5 886.683,-302.5"/>
<text text-anchor="start" x="894.683" y="-320.5" font-family="Helvetica,sans-Serif" font-size="10.00">Framework/test/testCheck</text>
<text text-anchor="middle" x="953.183" y="-309.5" font-family="Helvetica,sans-Serif" font-size="10.00">Runner.cxx</text>
</g>
<!-- Node2 -->
<g id="node2" class="node"><title>Node2</title>
<g id="a_node2"><a xlink:href="CheckRunnerFactory_8h.html" target="_top" xlink:title="QualityControl/CheckRunner\lFactory.h">
<polygon fill="none" stroke="black" points="125.183,-235.5 125.183,-265.5 267.183,-265.5 267.183,-235.5 125.183,-235.5"/>
<text text-anchor="start" x="133.183" y="-253.5" font-family="Helvetica,sans-Serif" font-size="10.00">QualityControl/CheckRunner</text>
<text text-anchor="middle" x="196.183" y="-242.5" font-family="Helvetica,sans-Serif" font-size="10.00">Factory.h</text>
</a>
</g>
</g>
<!-- Node1&#45;&gt;Node2 -->
<g id="edge1" class="edge"><title>Node1&#45;&gt;Node2</title>
<path fill="none" stroke="midnightblue" d="M886.668,-310.789C747.888,-298.872 427.899,-271.396 277.317,-258.467"/>
<polygon fill="midnightblue" stroke="midnightblue" points="277.472,-254.967 267.209,-257.599 276.873,-261.941 277.472,-254.967"/>
</g>
<!-- Node23 -->
<g id="node23" class="node"><title>Node23</title>
<g id="a_node23"><a xlink:href="CheckRunner_8h.html" target="_top" xlink:title="QualityControl/CheckRunner.h">
<polygon fill="none" stroke="black" points="878.183,-241 878.183,-260 1028.18,-260 1028.18,-241 878.183,-241"/>
<text text-anchor="middle" x="953.183" y="-248" font-family="Helvetica,sans-Serif" font-size="10.00">QualityControl/CheckRunner.h</text>
</a>
</g>
</g>
<!-- Node1&#45;&gt;Node23 -->
<g id="edge40" class="edge"><title>Node1&#45;&gt;Node23</title>
<path fill="none" stroke="midnightblue" d="M953.183,-302.396C953.183,-293.064 953.183,-280.714 953.183,-270.517"/>
<polygon fill="midnightblue" stroke="midnightblue" points="956.683,-270.195 953.183,-260.195 949.683,-270.195 956.683,-270.195"/>
</g>
<!-- Node34 -->
<g id="node34" class="node"><title>Node34</title>
<polygon fill="none" stroke="#bfbfbf" points="1046.68,-241 1046.68,-260 1165.68,-260 1165.68,-241 1046.68,-241"/>
<text text-anchor="middle" x="1106.18" y="-248" font-family="Helvetica,sans-Serif" font-size="10.00">boost/test/unit_test.hpp</text>
</g>
<!-- Node1&#45;&gt;Node34 -->
<g id="edge70" class="edge"><title>Node1&#45;&gt;Node34</title>
<path fill="none" stroke="midnightblue" d="M986.382,-302.396C1013.35,-290.941 1051.01,-274.938 1076.87,-263.952"/>
<polygon fill="midnightblue" stroke="midnightblue" points="1078.32,-267.139 1086.16,-260.007 1075.59,-260.696 1078.32,-267.139"/>
</g>
<!-- Node3 -->
<g id="node3" class="node"><title>Node3</title>
<polygon fill="none" stroke="#bfbfbf" points="622.683,-0.5 622.683,-19.5 663.683,-19.5 663.683,-0.5 622.683,-0.5"/>
<text text-anchor="middle" x="643.183" y="-7.5" font-family="Helvetica,sans-Serif" font-size="10.00">string</text>
</g>
<!-- Node2&#45;&gt;Node3 -->
<g id="edge2" class="edge"><title>Node2&#45;&gt;Node3</title>
<path fill="none" stroke="midnightblue" d="M125.009,-245.431C60.4149,-238.447 -21.0331,-219.483 5.18335,-168 62.0915,-56.2454 491.929,-20.6412 612.072,-12.8198"/>
<polygon fill="midnightblue" stroke="midnightblue" points="612.639,-16.291 622.398,-12.167 612.197,-9.30498 612.639,-16.291"/>
</g>
<!-- Node4 -->
<g id="node4" class="node"><title>Node4</title>
<polygon fill="none" stroke="#bfbfbf" points="91.1833,-112.5 91.1833,-131.5 255.183,-131.5 255.183,-112.5 91.1833,-112.5"/>
<text text-anchor="middle" x="173.183" y="-119.5" font-family="Helvetica,sans-Serif" font-size="10.00">Framework/DataProcessorSpec.h</text>
</g>
<!-- Node2&#45;&gt;Node4 -->
<g id="edge3" class="edge"><title>Node2&#45;&gt;Node4</title>
<path fill="none" stroke="midnightblue" d="M193.634,-235.479C189.477,-212.616 181.237,-167.296 176.586,-141.713"/>
<polygon fill="midnightblue" stroke="midnightblue" points="180.014,-141.001 174.781,-131.789 173.127,-142.253 180.014,-141.001"/>
</g>
<!-- Node5 -->
<g id="node5" class="node"><title>Node5</title>
<polygon fill="none" stroke="#bfbfbf" points="14.6833,-174 14.6833,-193 167.683,-193 167.683,-174 14.6833,-174"/>
<text text-anchor="middle" x="91.1833" y="-181" font-family="Helvetica,sans-Serif" font-size="10.00">Framework/CompletionPolicy.h</text>
</g>
<!-- Node2&#45;&gt;Node5 -->
<g id="edge4" class="edge"><title>Node2&#45;&gt;Node5</title>
<path fill="none" stroke="midnightblue" d="M173.4,-235.396C155.629,-224.395 131.084,-209.2 113.446,-198.282"/>
<polygon fill="midnightblue" stroke="midnightblue" points="115.27,-195.295 104.925,-193.007 111.586,-201.247 115.27,-195.295"/>
</g>
<!-- Node6 -->
<g id="node6" class="node"><title>Node6</title>
<g id="a_node6"><a xlink:href="Check_8h_source.html" target="_top" xlink:title="QualityControl/Check.h">
<polygon fill="none" stroke="black" points="458.683,-174 458.683,-193 577.683,-193 577.683,-174 458.683,-174"/>
<text text-anchor="middle" x="518.183" y="-181" font-family="Helvetica,sans-Serif" font-size="10.00">QualityControl/Check.h</text>
</a>
</g>
</g>
<!-- Node2&#45;&gt;Node6 -->
<g id="edge5" class="edge"><title>Node2&#45;&gt;Node6</title>
<path fill="none" stroke="midnightblue" d="M267.379,-235.489C318.097,-225.459 387.863,-211.563 449.183,-199 455.322,-197.742 461.764,-196.408 468.143,-195.078"/>
<polygon fill="midnightblue" stroke="midnightblue" points="468.991,-198.476 478.063,-193.003 467.558,-191.625 468.991,-198.476"/>
</g>
<!-- Node6&#45;&gt;Node4 -->
<g id="edge11" class="edge"><title>Node6&#45;&gt;Node4</title>
<path fill="none" stroke="midnightblue" d="M479.2,-173.985C469.417,-171.937 458.93,-169.818 449.183,-168 378.082,-154.74 296.265,-141.673 240.283,-133.066"/>
<polygon fill="midnightblue" stroke="midnightblue" points="240.554,-129.567 230.139,-131.512 239.493,-136.486 240.554,-129.567"/>
</g>
<!-- Node7 -->
<g id="node7" class="node"><title>Node7</title>
<polygon fill="none" stroke="#bfbfbf" points="398.683,-112.5 398.683,-131.5 457.683,-131.5 457.683,-112.5 398.683,-112.5"/>
<text text-anchor="middle" x="428.183" y="-119.5" font-family="Helvetica,sans-Serif" font-size="10.00">functional</text>
</g>
<!-- Node6&#45;&gt;Node7 -->
<g id="edge6" class="edge"><title>Node6&#45;&gt;Node7</title>
<path fill="none" stroke="midnightblue" d="M505.289,-173.975C490.719,-164.343 466.781,-148.517 449.438,-137.052"/>
<polygon fill="midnightblue" stroke="midnightblue" points="451.326,-134.104 441.054,-131.509 447.466,-139.944 451.326,-134.104"/>
</g>
<!-- Node8 -->
<g id="node8" class="node"><title>Node8</title>
<polygon fill="none" stroke="#bfbfbf" points="909.683,-0.5 909.683,-19.5 944.683,-19.5 944.683,-0.5 909.683,-0.5"/>
<text text-anchor="middle" x="927.183" y="-7.5" font-family="Helvetica,sans-Serif" font-size="10.00">map</text>
</g>
<!-- Node6&#45;&gt;Node8 -->
<g id="edge7" class="edge"><title>Node6&#45;&gt;Node8</title>
<path fill="none" stroke="midnightblue" d="M541.863,-173.855C568.069,-164.159 611.458,-147.726 648.183,-132 721.292,-100.694 737.022,-87.1835 810.183,-56 840.664,-43.008 876.273,-29.5529 900.128,-20.7808"/>
<polygon fill="midnightblue" stroke="midnightblue" points="901.394,-24.0448 909.583,-17.323 898.989,-17.4706 901.394,-24.0448"/>
</g>
<!-- Node9 -->
<g id="node9" class="node"><title>Node9</title>
<polygon fill="none" stroke="#bfbfbf" points="975.183,-112.5 975.183,-131.5 1019.18,-131.5 1019.18,-112.5 975.183,-112.5"/>
<text text-anchor="middle" x="997.183" y="-119.5" font-family="Helvetica,sans-Serif" font-size="10.00">vector</text>
</g>
<!-- Node6&#45;&gt;Node9 -->
<g id="edge8" class="edge"><title>Node6&#45;&gt;Node9</title>
<path fill="none" stroke="midnightblue" d="M577.853,-174.12C593.261,-172.037 609.831,-169.867 625.183,-168 773.395,-149.974 812.03,-157.254 959.183,-132 961.138,-131.665 963.142,-131.288 965.158,-130.885"/>
<polygon fill="midnightblue" stroke="midnightblue" points="966.149,-134.251 975.176,-128.705 964.661,-127.411 966.149,-134.251"/>
</g>
<!-- Node10 -->
<g id="node10" class="node"><title>Node10</title>
<polygon fill="none" stroke="#bfbfbf" points="1076.18,-112.5 1076.18,-131.5 1128.18,-131.5 1128.18,-112.5 1076.18,-112.5"/>
<text text-anchor="middle" x="1102.18" y="-119.5" font-family="Helvetica,sans-Serif" font-size="10.00">memory</text>
</g>
<!-- Node6&#45;&gt;Node10 -->
<g id="edge9" class="edge"><title>Node6&#45;&gt;Node10</title>
<path fill="none" stroke="midnightblue" d="M577.55,-173.965C593.038,-171.872 609.721,-169.737 625.183,-168 803.883,-147.921 849.351,-150.858 1028.18,-132 1040.53,-130.698 1054.01,-129.109 1066.04,-127.63"/>
<polygon fill="midnightblue" stroke="midnightblue" points="1066.69,-131.077 1076.18,-126.369 1065.82,-124.13 1066.69,-131.077"/>
</g>
<!-- Node11 -->
<g id="node11" class="node"><title>Node11</title>
<polygon fill="none" stroke="#bfbfbf" points="577.683,-56.5 577.683,-75.5 660.683,-75.5 660.683,-56.5 577.683,-56.5"/>
<text text-anchor="middle" x="619.183" y="-63.5" font-family="Helvetica,sans-Serif" font-size="10.00">unordered_map</text>
</g>
<!-- Node6&#45;&gt;Node11 -->
<g id="edge10" class="edge"><title>Node6&#45;&gt;Node11</title>
<path fill="none" stroke="midnightblue" d="M565.479,-173.983C589.504,-167.005 616.629,-154.447 631.183,-132 640.327,-117.899 635.081,-98.6586 628.918,-84.7743"/>
<polygon fill="midnightblue" stroke="midnightblue" points="632.031,-83.1731 624.46,-75.761 625.756,-86.2763 632.031,-83.1731"/>
</g>
<!-- Node12 -->
<g id="node12" class="node"><title>Node12</title>
<g id="a_node12"><a xlink:href="Quality_8h.html" target="_top" xlink:title="QualityControl/Quality.h">
<polygon fill="none" stroke="black" points="898.683,-56.5 898.683,-75.5 1019.68,-75.5 1019.68,-56.5 898.683,-56.5"/>
<text text-anchor="middle" x="959.183" y="-63.5" font-family="Helvetica,sans-Serif" font-size="10.00">QualityControl/Quality.h</text>
</a>
</g>
</g>
<!-- Node6&#45;&gt;Node12 -->
<g id="edge12" class="edge"><title>Node6&#45;&gt;Node12</title>
<path fill="none" stroke="midnightblue" d="M577.871,-174.265C593.279,-172.179 609.844,-169.972 625.183,-168 690.905,-159.551 865.808,-168.391 921.183,-132 937.533,-121.255 947.754,-100.856 953.424,-85.7642"/>
<polygon fill="midnightblue" stroke="midnightblue" points="956.864,-86.5214 956.771,-75.9269 950.237,-84.2667 956.864,-86.5214"/>
</g>
<!-- Node14 -->
<g id="node14" class="node"><title>Node14</title>
<g id="a_node14"><a xlink:href="QualityObject_8h_source.html" target="_top" xlink:title="QualityControl/QualityObject.h">
<polygon fill="none" stroke="black" points="1183.68,-112.5 1183.68,-131.5 1332.68,-131.5 1332.68,-112.5 1183.68,-112.5"/>
<text text-anchor="middle" x="1258.18" y="-119.5" font-family="Helvetica,sans-Serif" font-size="10.00">QualityControl/QualityObject.h</text>
</a>
</g>
</g>
<!-- Node6&#45;&gt;Node14 -->
<g id="edge16" class="edge"><title>Node6&#45;&gt;Node14</title>
<path fill="none" stroke="midnightblue" d="M575.854,-173.991C591.809,-171.826 609.146,-169.649 625.183,-168 852.105,-144.671 909.661,-148.46 1137.18,-132 1148.92,-131.151 1161.29,-130.244 1173.47,-129.345"/>
<polygon fill="midnightblue" stroke="midnightblue" points="1173.92,-132.821 1183.64,-128.592 1173.4,-125.84 1173.92,-132.821"/>
</g>
<!-- Node17 -->
<g id="node17" class="node"><title>Node17</title>
<g id="a_node17"><a xlink:href="MonitorObject_8h.html" target="_top" xlink:title="QualityControl/MonitorObject.h">
<polygon fill="none" stroke="black" points="1480.68,-56.5 1480.68,-75.5 1631.68,-75.5 1631.68,-56.5 1480.68,-56.5"/>
<text text-anchor="middle" x="1556.18" y="-63.5" font-family="Helvetica,sans-Serif" font-size="10.00">QualityControl/MonitorObject.h</text>
</a>
</g>
</g>
<!-- Node6&#45;&gt;Node17 -->
<g id="edge21" class="edge"><title>Node6&#45;&gt;Node17</title>
<path fill="none" stroke="midnightblue" d="M573.607,-173.981C590.162,-171.709 608.377,-169.478 625.183,-168 722.998,-159.398 1421.44,-178.016 1508.18,-132 1527.29,-121.862 1540.8,-100.349 1548.52,-84.8463"/>
<polygon fill="midnightblue" stroke="midnightblue" points="1551.72,-86.2508 1552.75,-75.7061 1545.37,-83.307 1551.72,-86.2508"/>
</g>
<!-- Node18 -->
<g id="node18" class="node"><title>Node18</title>
<g id="a_node18"><a xlink:href="CheckInterface_8h.html" target="_top" xlink:title="QualityControl/CheckInterface.h">
<polygon fill="none" stroke="black" points="755.683,-112.5 755.683,-131.5 912.683,-131.5 912.683,-112.5 755.683,-112.5"/>
<text text-anchor="middle" x="834.183" y="-119.5" font-family="Helvetica,sans-Serif" font-size="10.00">QualityControl/CheckInterface.h</text>
</a>
</g>
</g>
<!-- Node6&#45;&gt;Node18 -->
<g id="edge27" class="edge"><title>Node6&#45;&gt;Node18</title>
<path fill="none" stroke="midnightblue" d="M561.213,-173.996C571.365,-172.009 582.153,-169.915 592.183,-168 655.472,-155.915 728.157,-142.456 777.215,-133.433"/>
<polygon fill="midnightblue" stroke="midnightblue" points="778.111,-136.827 787.313,-131.577 776.845,-129.943 778.111,-136.827"/>
</g>
<!-- Node19 -->
<g id="node19" class="node"><title>Node19</title>
<g id="a_node19"><a xlink:href="QcInfoLogger_8h.html" target="_top" xlink:title="QualityControl/QcInfoLogger.h">
<polygon fill="none" stroke="black" points="1350.68,-112.5 1350.68,-131.5 1499.68,-131.5 1499.68,-112.5 1350.68,-112.5"/>
<text text-anchor="middle" x="1425.18" y="-119.5" font-family="Helvetica,sans-Serif" font-size="10.00">QualityControl/QcInfoLogger.h</text>
</a>
</g>
</g>
<!-- Node6&#45;&gt;Node19 -->
<g id="edge34" class="edge"><title>Node6&#45;&gt;Node19</title>
<path fill="none" stroke="midnightblue" d="M574.446,-173.968C590.778,-171.737 608.664,-169.532 625.183,-168 939.193,-138.882 1021.85,-156.61 1340.57,-131.996"/>
<polygon fill="midnightblue" stroke="midnightblue" points="1340.85,-135.485 1350.55,-131.218 1340.31,-128.506 1340.85,-135.485"/>
</g>
<!-- Node22 -->
<g id="node22" class="node"><title>Node22</title>
<g id="a_node22"><a xlink:href="CheckConfig_8h.html" target="_top" xlink:title="QualityControl/CheckConfig.h">
<polygon fill="none" stroke="black" points="475.683,-112.5 475.683,-131.5 622.683,-131.5 622.683,-112.5 475.683,-112.5"/>
<text text-anchor="middle" x="549.183" y="-119.5" font-family="Helvetica,sans-Serif" font-size="10.00">QualityControl/CheckConfig.h</text>
</a>
</g>
</g>
<!-- Node6&#45;&gt;Node22 -->
<g id="edge37" class="edge"><title>Node6&#45;&gt;Node22</title>
<path fill="none" stroke="midnightblue" d="M522.625,-173.975C527.137,-165.315 534.257,-151.649 539.99,-140.645"/>
<polygon fill="midnightblue" stroke="midnightblue" points="543.233,-141.995 544.75,-131.509 537.025,-138.76 543.233,-141.995"/>
</g>
<!-- Node12&#45;&gt;Node3 -->
<g id="edge14" class="edge"><title>Node12&#45;&gt;Node3</title>
<path fill="none" stroke="midnightblue" d="M909.112,-56.4435C843.035,-45.1519 728.717,-25.6164 674.044,-16.2737"/>
<polygon fill="midnightblue" stroke="midnightblue" points="674.384,-12.781 663.937,-14.5465 673.205,-19.681 674.384,-12.781"/>
</g>
<!-- Node12&#45;&gt;Node8 -->
<g id="edge15" class="edge"><title>Node12&#45;&gt;Node8</title>
<path fill="none" stroke="midnightblue" d="M953.899,-56.083C949.472,-48.6127 943.02,-37.7244 937.565,-28.5199"/>
<polygon fill="midnightblue" stroke="midnightblue" points="940.478,-26.5697 932.369,-19.7511 934.456,-30.1383 940.478,-26.5697"/>
</g>
<!-- Node13 -->
<g id="node13" class="node"><title>Node13</title>
<polygon fill="none" stroke="#bfbfbf" points="963.183,-0.5 963.183,-19.5 1019.18,-19.5 1019.18,-0.5 963.183,-0.5"/>
<text text-anchor="middle" x="991.183" y="-7.5" font-family="Helvetica,sans-Serif" font-size="10.00">Rtypes.h</text>
</g>
<!-- Node12&#45;&gt;Node13 -->
<g id="edge13" class="edge"><title>Node12&#45;&gt;Node13</title>
<path fill="none" stroke="midnightblue" d="M964.467,-56.083C968.894,-48.6127 975.347,-37.7244 980.801,-28.5199"/>
<polygon fill="midnightblue" stroke="midnightblue" points="983.91,-30.1383 985.998,-19.7511 977.888,-26.5697 983.91,-30.1383"/>
</g>
<!-- Node14&#45;&gt;Node8 -->
<g id="edge17" class="edge"><title>Node14&#45;&gt;Node8</title>
<path fill="none" stroke="midnightblue" d="M1232.56,-112.496C1181.72,-95.6214 1064.25,-56.6234 954.478,-20.0957"/>
<polygon fill="midnightblue" stroke="midnightblue" points="955.495,-16.7454 944.901,-16.9087 953.285,-23.3873 955.495,-16.7454"/>
</g>
<!-- Node14&#45;&gt;Node12 -->
<g id="edge20" class="edge"><title>Node14&#45;&gt;Node12</title>
<path fill="none" stroke="midnightblue" d="M1210.81,-112.444C1158.1,-102.925 1072.95,-87.5472 1016.53,-77.3563"/>
<polygon fill="midnightblue" stroke="midnightblue" points="1016.8,-73.8495 1006.34,-75.5164 1015.56,-80.7381 1016.8,-73.8495"/>
</g>
<!-- Node15 -->
<g id="node15" class="node"><title>Node15</title>
<polygon fill="none" stroke="#bfbfbf" points="1578.68,-0.5 1578.68,-19.5 1637.68,-19.5 1637.68,-0.5 1578.68,-0.5"/>
<text text-anchor="middle" x="1608.18" y="-7.5" font-family="Helvetica,sans-Serif" font-size="10.00">TObject.h</text>
</g>
<!-- Node14&#45;&gt;Node15 -->
<g id="edge18" class="edge"><title>Node14&#45;&gt;Node15</title>
<path fill="none" stroke="midnightblue" d="M1333.04,-112.806C1443.53,-100.623 1637.65,-78.8539 1640.18,-76 1653.02,-61.5652 1638.94,-41.0593 1625.62,-26.9599"/>
<polygon fill="midnightblue" stroke="midnightblue" points="1628.03,-24.4263 1618.47,-19.8653 1623.1,-29.3943 1628.03,-24.4263"/>
</g>
<!-- Node16 -->
<g id="node16" class="node"><title>Node16</title>
<polygon fill="none" stroke="#bfbfbf" points="1255.18,-0.5 1255.18,-19.5 1371.18,-19.5 1371.18,-0.5 1255.18,-0.5"/>
<text text-anchor="middle" x="1313.18" y="-7.5" font-family="Helvetica,sans-Serif" font-size="10.00">Common/Exceptions.h</text>
</g>
<!-- Node14&#45;&gt;Node16 -->
<g id="edge19" class="edge"><title>Node14&#45;&gt;Node16</title>
<path fill="none" stroke="midnightblue" d="M1211.2,-112.431C1170.38,-102.858 1121.01,-84.8049 1143.18,-56 1155.9,-39.4818 1203.42,-27.7818 1244.99,-20.4598"/>
<polygon fill="midnightblue" stroke="midnightblue" points="1245.59,-23.9095 1254.86,-18.783 1244.41,-17.0085 1245.59,-23.9095"/>
</g>
<!-- Node17&#45;&gt;Node3 -->
<g id="edge22" class="edge"><title>Node17&#45;&gt;Node3</title>
<path fill="none" stroke="midnightblue" d="M1480.66,-56.8005C1477.46,-56.5172 1474.29,-56.2487 1471.18,-56 1160.41,-31.1188 782.893,-16.1307 673.954,-12.1033"/>
<polygon fill="midnightblue" stroke="midnightblue" points="673.815,-8.59601 663.694,-11.7272 673.559,-15.5913 673.815,-8.59601"/>
</g>
<!-- Node17&#45;&gt;Node8 -->
<g id="edge23" class="edge"><title>Node17&#45;&gt;Node8</title>
<path fill="none" stroke="midnightblue" d="M1480.65,-56.8602C1477.45,-56.5606 1474.29,-56.2723 1471.18,-56 1244.98,-36.1554 1181.9,-63.9659 954.626,-19.5168"/>
<polygon fill="midnightblue" stroke="midnightblue" points="955.22,-16.0665 944.73,-17.5564 953.859,-22.933 955.22,-16.0665"/>
</g>
<!-- Node17&#45;&gt;Node13 -->
<g id="edge24" class="edge"><title>Node17&#45;&gt;Node13</title>
<path fill="none" stroke="midnightblue" d="M1480.64,-56.9542C1477.45,-56.6288 1474.28,-56.3095 1471.18,-56 1306.99,-39.6113 1111.02,-21.7766 1029.59,-14.4428"/>
<polygon fill="midnightblue" stroke="midnightblue" points="1029.6,-10.9298 1019.33,-13.5195 1028.97,-17.9016 1029.6,-10.9298"/>
</g>
<!-- Node17&#45;&gt;Node15 -->
<g id="edge25" class="edge"><title>Node17&#45;&gt;Node15</title>
<path fill="none" stroke="midnightblue" d="M1564.77,-56.083C1572.34,-48.2195 1583.56,-36.5688 1592.7,-27.0813"/>
<polygon fill="midnightblue" stroke="midnightblue" points="1595.34,-29.3821 1599.76,-19.7511 1590.3,-24.5266 1595.34,-29.3821"/>
</g>
<!-- Node17&#45;&gt;Node16 -->
<g id="edge26" class="edge"><title>Node17&#45;&gt;Node16</title>
<path fill="none" stroke="midnightblue" d="M1517.68,-56.4435C1475.38,-47.0431 1407.36,-31.9291 1361.51,-21.7393"/>
<polygon fill="midnightblue" stroke="midnightblue" points="1362.03,-18.2692 1351.51,-19.5164 1360.51,-25.1025 1362.03,-18.2692"/>
</g>
<!-- Node18&#45;&gt;Node3 -->
<g id="edge28" class="edge"><title>Node18&#45;&gt;Node3</title>
<path fill="none" stroke="midnightblue" d="M819.196,-112.368C786.141,-93.3318 706.761,-47.6153 666.886,-24.6505"/>
<polygon fill="midnightblue" stroke="midnightblue" points="668.514,-21.5492 658.101,-19.5914 665.02,-27.6151 668.514,-21.5492"/>
</g>
<!-- Node18&#45;&gt;Node8 -->
<g id="edge29" class="edge"><title>Node18&#45;&gt;Node8</title>
<path fill="none" stroke="midnightblue" d="M827.997,-112.253C819.471,-99.0164 806.422,-73.5798 818.183,-56 836.193,-29.0803 873.571,-18.2468 899.5,-13.8982"/>
<polygon fill="midnightblue" stroke="midnightblue" points="900.094,-17.3488 909.485,-12.445 899.085,-10.4218 900.094,-17.3488"/>
</g>
<!-- Node18&#45;&gt;Node11 -->
<g id="edge30" class="edge"><title>Node18&#45;&gt;Node11</title>
<path fill="none" stroke="midnightblue" d="M800.116,-112.444C763.003,-103.122 703.522,-88.1828 662.969,-77.9972"/>
<polygon fill="midnightblue" stroke="midnightblue" points="663.643,-74.5579 653.091,-75.5164 661.938,-81.347 663.643,-74.5579"/>
</g>
<!-- Node18&#45;&gt;Node12 -->
<g id="edge33" class="edge"><title>Node18&#45;&gt;Node12</title>
<path fill="none" stroke="midnightblue" d="M853.99,-112.444C874.47,-103.596 906.666,-89.6875 930.048,-79.5865"/>
<polygon fill="midnightblue" stroke="midnightblue" points="931.677,-82.6953 939.469,-75.5164 928.901,-76.2692 931.677,-82.6953"/>
</g>
<!-- Node18&#45;&gt;Node13 -->
<g id="edge31" class="edge"><title>Node18&#45;&gt;Node13</title>
<path fill="none" stroke="midnightblue" d="M839.618,-112.332C848.517,-98.7408 867.399,-72.2875 889.183,-56 908.499,-41.5577 933.178,-30.5133 953.422,-22.9806"/>
<polygon fill="midnightblue" stroke="midnightblue" points="954.726,-26.2314 962.961,-19.5654 952.366,-19.6411 954.726,-26.2314"/>
</g>
<!-- Node18&#45;&gt;Node17 -->
<g id="edge32" class="edge"><title>Node18&#45;&gt;Node17</title>
<path fill="none" stroke="midnightblue" d="M912.93,-115.592C1064.15,-105.186 1386.93,-82.8614 1470.66,-75.9837"/>
<polygon fill="midnightblue" stroke="midnightblue" points="1470.98,-79.4689 1480.65,-75.1358 1470.39,-72.494 1470.98,-79.4689"/>
</g>
<!-- Node20 -->
<g id="node20" class="node"><title>Node20</title>
<polygon fill="none" stroke="#bfbfbf" points="1332.18,-56.5 1332.18,-75.5 1462.18,-75.5 1462.18,-56.5 1332.18,-56.5"/>
<text text-anchor="middle" x="1397.18" y="-63.5" font-family="Helvetica,sans-Serif" font-size="10.00">InfoLogger/InfoLogger.hxx</text>
</g>
<!-- Node19&#45;&gt;Node20 -->
<g id="edge35" class="edge"><title>Node19&#45;&gt;Node20</title>
<path fill="none" stroke="midnightblue" d="M1420.56,-112.083C1416.73,-104.691 1411.16,-93.9533 1406.42,-84.8111"/>
<polygon fill="midnightblue" stroke="midnightblue" points="1409.43,-83.0175 1401.72,-75.7511 1403.22,-86.2398 1409.43,-83.0175"/>
</g>
<!-- Node21 -->
<g id="node21" class="node"><title>Node21</title>
<polygon fill="none" stroke="#bfbfbf" points="1152.18,-56.5 1152.18,-75.5 1314.18,-75.5 1314.18,-56.5 1152.18,-56.5"/>
<text text-anchor="middle" x="1233.18" y="-63.5" font-family="Helvetica,sans-Serif" font-size="10.00">InfoLogger/InfoLoggerMacros.hxx</text>
</g>
<!-- Node19&#45;&gt;Node21 -->
<g id="edge36" class="edge"><title>Node19&#45;&gt;Node21</title>
<path fill="none" stroke="midnightblue" d="M1394.76,-112.444C1361.9,-103.201 1309.4,-88.4356 1273.21,-78.2572"/>
<polygon fill="midnightblue" stroke="midnightblue" points="1274.04,-74.8547 1263.46,-75.5164 1272.14,-81.5932 1274.04,-74.8547"/>
</g>
<!-- Node22&#45;&gt;Node3 -->
<g id="edge38" class="edge"><title>Node22&#45;&gt;Node3</title>
<path fill="none" stroke="midnightblue" d="M549.751,-112.092C551.021,-98.6455 555.108,-72.9383 568.183,-56 579.709,-41.0687 597.708,-30.0324 613.185,-22.6268"/>
<polygon fill="midnightblue" stroke="midnightblue" points="614.726,-25.7716 622.415,-18.4826 611.858,-19.3858 614.726,-25.7716"/>
</g>
<!-- Node22&#45;&gt;Node11 -->
<g id="edge39" class="edge"><title>Node22&#45;&gt;Node11</title>
<path fill="none" stroke="midnightblue" d="M560.43,-112.324C570.981,-104.185 586.984,-91.8395 599.626,-82.0874"/>
<polygon fill="midnightblue" stroke="midnightblue" points="601.952,-84.7132 607.732,-75.8339 597.676,-79.1707 601.952,-84.7132"/>
</g>
<!-- Node23&#45;&gt;Node3 -->
<g id="edge43" class="edge"><title>Node23&#45;&gt;Node3</title>
<path fill="none" stroke="midnightblue" d="M877.942,-249.378C712.851,-248.326 330.379,-241.3 291.183,-199 253.404,-158.229 265.916,-113.493 342.183,-56 384.436,-24.1486 544.815,-14.5918 612.622,-11.9406"/>
<polygon fill="midnightblue" stroke="midnightblue" points="612.812,-15.4361 622.677,-11.5721 612.556,-8.44078 612.812,-15.4361"/>
</g>
<!-- Node23&#45;&gt;Node4 -->
<g id="edge52" class="edge"><title>Node23&#45;&gt;Node4</title>
<path fill="none" stroke="midnightblue" d="M878.123,-250.1C722.106,-250.372 368.17,-245.637 258.183,-199 227.799,-186.116 200.94,-157.78 185.901,-139.583"/>
<polygon fill="midnightblue" stroke="midnightblue" points="188.48,-137.204 179.504,-131.576 183.011,-141.573 188.48,-137.204"/>
</g>
<!-- Node23&#45;&gt;Node6 -->
<g id="edge64" class="edge"><title>Node23&#45;&gt;Node6</title>
<path fill="none" stroke="midnightblue" d="M884.142,-240.979C811.36,-231.73 693.446,-215.991 592.183,-199 584.822,-197.765 577.069,-196.361 569.464,-194.924"/>
<polygon fill="midnightblue" stroke="midnightblue" points="570.078,-191.478 559.597,-193.028 568.757,-198.352 570.078,-191.478"/>
</g>
<!-- Node23&#45;&gt;Node8 -->
<g id="edge44" class="edge"><title>Node23&#45;&gt;Node8</title>
<path fill="none" stroke="midnightblue" d="M997.972,-240.992C1010.62,-238.802 1024.41,-236.611 1037.18,-235 1086.84,-228.737 1452.24,-235.777 1486.18,-199 1495.53,-188.876 1495.5,-178.151 1486.18,-168 1422.99,-99.1476 1144.78,-184.087 1067.18,-132 1035.66,-110.84 1055.76,-82.0977 1028.18,-56 1017.04,-45.4574 980.462,-30.5438 954.538,-20.8232"/>
<polygon fill="midnightblue" stroke="midnightblue" points="955.455,-17.431 944.862,-17.249 953.029,-23.9973 955.455,-17.431"/>
</g>
<!-- Node23&#45;&gt;Node9 -->
<g id="edge45" class="edge"><title>Node23&#45;&gt;Node9</title>
<path fill="none" stroke="midnightblue" d="M998.412,-240.945C1010.94,-238.78 1024.56,-236.614 1037.18,-235 1084.85,-228.907 1435.65,-234.366 1468.18,-199 1477.51,-188.86 1477.51,-178.137 1468.18,-168 1435.41,-132.398 1081.95,-139.742 1034.18,-132 1032.67,-131.755 1031.14,-131.482 1029.59,-131.186"/>
<polygon fill="midnightblue" stroke="midnightblue" points="1029.89,-127.67 1019.37,-128.992 1028.42,-134.514 1029.89,-127.67"/>
</g>
<!-- Node23&#45;&gt;Node10 -->
<g id="edge42" class="edge"><title>Node23&#45;&gt;Node10</title>
<path fill="none" stroke="midnightblue" d="M997.528,-240.996C1010.29,-238.78 1024.26,-236.574 1037.18,-235 1092.8,-228.226 1502,-240.01 1540.18,-199 1549.57,-188.916 1549.48,-178.172 1540.18,-168 1510.23,-135.219 1186.05,-138.888 1142.18,-132 1140.92,-131.801 1139.63,-131.586 1138.34,-131.357"/>
<polygon fill="midnightblue" stroke="midnightblue" points="1138.82,-127.887 1128.34,-129.401 1137.48,-134.756 1138.82,-127.887"/>
</g>
<!-- Node23&#45;&gt;Node17 -->
<g id="edge62" class="edge"><title>Node23&#45;&gt;Node17</title>
<path fill="none" stroke="midnightblue" d="M996.637,-240.95C1009.63,-238.678 1023.94,-236.454 1037.18,-235 1078.76,-230.434 1760.32,-229.274 1789.18,-199 1848.43,-136.85 1700.92,-95.6724 1614.14,-77.554"/>
<polygon fill="midnightblue" stroke="midnightblue" points="1614.64,-74.0825 1604.14,-75.5105 1613.24,-80.9409 1614.64,-74.0825"/>
</g>
<!-- Node23&#45;&gt;Node18 -->
<g id="edge53" class="edge"><title>Node23&#45;&gt;Node18</title>
<path fill="none" stroke="midnightblue" d="M878.182,-248.828C791.643,-246.273 657.116,-236.225 625.183,-199 585.989,-153.309 672.064,-135.083 745.356,-127.815"/>
<polygon fill="midnightblue" stroke="midnightblue" points="745.967,-131.273 755.599,-126.861 745.317,-124.304 745.967,-131.273"/>
</g>
<!-- Node23&#45;&gt;Node19 -->
<g id="edge63" class="edge"><title>Node23&#45;&gt;Node19</title>
<path fill="none" stroke="midnightblue" d="M996.638,-240.96C1009.63,-238.688 1023.94,-236.462 1037.18,-235 1077.76,-230.519 1743.03,-228.568 1771.18,-199 1780.68,-189.022 1780.28,-178.352 1771.18,-168 1762.6,-158.224 1609.62,-141.295 1509.98,-131.222"/>
<polygon fill="midnightblue" stroke="midnightblue" points="1510.21,-127.727 1499.91,-130.209 1509.51,-134.692 1510.21,-127.727"/>
</g>
<!-- Node24 -->
<g id="node24" class="node"><title>Node24</title>
<polygon fill="none" stroke="#bfbfbf" points="634.183,-174 634.183,-193 680.183,-193 680.183,-174 634.183,-174"/>
<text text-anchor="middle" x="657.183" y="-181" font-family="Helvetica,sans-Serif" font-size="10.00">chrono</text>
</g>
<!-- Node23&#45;&gt;Node24 -->
<g id="edge41" class="edge"><title>Node23&#45;&gt;Node24</title>
<path fill="none" stroke="midnightblue" d="M885.09,-240.993C831.122,-233.178 754.234,-219.639 689.183,-199 687.308,-198.405 685.398,-197.73 683.491,-197.004"/>
<polygon fill="midnightblue" stroke="midnightblue" points="684.737,-193.732 674.161,-193.092 682.03,-200.187 684.737,-193.732"/>
</g>
<!-- Node25 -->
<g id="node25" class="node"><title>Node25</title>
<polygon fill="none" stroke="#bfbfbf" points="698.183,-174 698.183,-193 776.183,-193 776.183,-174 698.183,-174"/>
<text text-anchor="middle" x="737.183" y="-181" font-family="Helvetica,sans-Serif" font-size="10.00">unordered_set</text>
</g>
<!-- Node23&#45;&gt;Node25 -->
<g id="edge46" class="edge"><title>Node23&#45;&gt;Node25</title>
<path fill="none" stroke="midnightblue" d="M924.643,-240.934C891.215,-230.898 834.173,-213.763 785.183,-199 781.874,-198.003 778.437,-196.966 774.991,-195.926"/>
<polygon fill="midnightblue" stroke="midnightblue" points="775.939,-192.557 765.355,-193.017 773.916,-199.258 775.939,-192.557"/>
</g>
<!-- Node26 -->
<g id="node26" class="node"><title>Node26</title>
<polygon fill="none" stroke="#bfbfbf" points="794.183,-174 794.183,-193 886.183,-193 886.183,-174 794.183,-174"/>
<text text-anchor="middle" x="840.183" y="-181" font-family="Helvetica,sans-Serif" font-size="10.00">Common/Timer.h</text>
</g>
<!-- Node23&#45;&gt;Node26 -->
<g id="edge47" class="edge"><title>Node23&#45;&gt;Node26</title>
<path fill="none" stroke="midnightblue" d="M937.944,-240.734C918.967,-229.818 886.337,-211.049 864.037,-198.221"/>
<polygon fill="midnightblue" stroke="midnightblue" points="865.595,-195.08 855.182,-193.127 862.105,-201.147 865.595,-195.08"/>
</g>
<!-- Node27 -->
<g id="node27" class="node"><title>Node27</title>
<polygon fill="none" stroke="#bfbfbf" points="904.183,-174 904.183,-193 1002.18,-193 1002.18,-174 904.183,-174"/>
<text text-anchor="middle" x="953.183" y="-181" font-family="Helvetica,sans-Serif" font-size="10.00">Framework/Task.h</text>
</g>
<!-- Node23&#45;&gt;Node27 -->
<g id="edge48" class="edge"><title>Node23&#45;&gt;Node27</title>
<path fill="none" stroke="midnightblue" d="M953.183,-240.734C953.183,-231.183 953.183,-215.618 953.183,-203.283"/>
<polygon fill="midnightblue" stroke="midnightblue" points="956.683,-203.127 953.183,-193.127 949.683,-203.127 956.683,-203.127"/>
</g>
<!-- Node28 -->
<g id="node28" class="node"><title>Node28</title>
<polygon fill="none" stroke="#bfbfbf" points="1020.68,-174 1020.68,-193 1137.68,-193 1137.68,-174 1020.68,-174"/>
<text text-anchor="middle" x="1079.18" y="-181" font-family="Helvetica,sans-Serif" font-size="10.00">Headers/DataHeader.h</text>
</g>
<!-- Node23&#45;&gt;Node28 -->
<g id="edge49" class="edge"><title>Node23&#45;&gt;Node28</title>
<path fill="none" stroke="midnightblue" d="M969.915,-240.869C991.284,-229.845 1028.48,-210.655 1053.46,-197.768"/>
<polygon fill="midnightblue" stroke="midnightblue" points="1055.1,-200.862 1062.38,-193.167 1051.89,-194.641 1055.1,-200.862"/>
</g>
<!-- Node29 -->
<g id="node29" class="node"><title>Node29</title>
<polygon fill="none" stroke="#bfbfbf" points="1155.68,-174 1155.68,-193 1306.68,-193 1306.68,-174 1155.68,-174"/>
<text text-anchor="middle" x="1231.18" y="-181" font-family="Helvetica,sans-Serif" font-size="10.00">Monitoring/MonitoringFactory.h</text>
</g>
<!-- Node23&#45;&gt;Node29 -->
<g id="edge50" class="edge"><title>Node23&#45;&gt;Node29</title>
<path fill="none" stroke="midnightblue" d="M989.813,-240.936C1039.92,-229.22 1129.85,-208.193 1184.66,-195.377"/>
<polygon fill="midnightblue" stroke="midnightblue" points="1185.53,-198.768 1194.47,-193.083 1183.94,-191.952 1185.53,-198.768"/>
</g>
<!-- Node30 -->
<g id="node30" class="node"><title>Node30</title>
<polygon fill="none" stroke="#bfbfbf" points="1324.68,-168.5 1324.68,-198.5 1459.68,-198.5 1459.68,-168.5 1324.68,-168.5"/>
<text text-anchor="start" x="1332.68" y="-186.5" font-family="Helvetica,sans-Serif" font-size="10.00">Configuration/Configuration</text>
<text text-anchor="middle" x="1392.18" y="-175.5" font-family="Helvetica,sans-Serif" font-size="10.00">Interface.h</text>
</g>
<!-- Node23&#45;&gt;Node30 -->
<g id="edge51" class="edge"><title>Node23&#45;&gt;Node30</title>
<path fill="none" stroke="midnightblue" d="M1000.66,-240.945C1012.57,-238.898 1025.33,-236.79 1037.18,-235 1157.25,-216.872 1190.47,-218.441 1314.72,-199.013"/>
<polygon fill="midnightblue" stroke="midnightblue" points="1315.28,-202.467 1324.62,-197.451 1314.19,-195.552 1315.28,-202.467"/>
</g>
<!-- Node31 -->
<g id="node31" class="node"><title>Node31</title>
<g id="a_node31"><a xlink:href="DatabaseInterface_8h.html" target="_top" xlink:title="QualityControl/DatabaseInterface.h">
<polygon fill="none" stroke="black" points="1592.18,-174 1592.18,-193 1762.18,-193 1762.18,-174 1592.18,-174"/>
<text text-anchor="middle" x="1677.18" y="-181" font-family="Helvetica,sans-Serif" font-size="10.00">QualityControl/DatabaseInterface.h</text>
</a>
</g>
</g>
<!-- Node23&#45;&gt;Node31 -->
<g id="edge54" class="edge"><title>Node23&#45;&gt;Node31</title>
<path fill="none" stroke="midnightblue" d="M997.523,-240.955C1010.28,-238.737 1024.25,-236.542 1037.18,-235 1276.46,-206.466 1338.56,-224.481 1578.18,-199 1589.92,-197.752 1602.41,-196.144 1614.42,-194.456"/>
<polygon fill="midnightblue" stroke="midnightblue" points="1614.96,-197.913 1624.36,-193.025 1613.96,-190.985 1614.96,-197.913"/>
</g>
<!-- Node33 -->
<g id="node33" class="node"><title>Node33</title>
<g id="a_node33"><a xlink:href="UpdatePolicyManager_8h.html" target="_top" xlink:title="QualityControl/UpdatePolicy\lManager.h">
<polygon fill="none" stroke="black" points="300.183,-168.5 300.183,-198.5 440.183,-198.5 440.183,-168.5 300.183,-168.5"/>
<text text-anchor="start" x="308.183" y="-186.5" font-family="Helvetica,sans-Serif" font-size="10.00">QualityControl/UpdatePolicy</text>
<text text-anchor="middle" x="370.183" y="-175.5" font-family="Helvetica,sans-Serif" font-size="10.00">Manager.h</text>
</a>
</g>
</g>
<!-- Node23&#45;&gt;Node33 -->
<g id="edge65" class="edge"><title>Node23&#45;&gt;Node33</title>
<path fill="none" stroke="midnightblue" d="M877.811,-243.88C781.195,-236.243 608.312,-221.125 450.704,-199.143"/>
<polygon fill="midnightblue" stroke="midnightblue" points="450.736,-195.613 440.346,-197.685 449.761,-202.545 450.736,-195.613"/>
</g>
<!-- Node31&#45;&gt;Node3 -->
<g id="edge55" class="edge"><title>Node31&#45;&gt;Node3</title>
<path fill="none" stroke="midnightblue" d="M1609.88,-173.969C1593.01,-171.921 1574.94,-169.806 1558.18,-168 1387.76,-149.632 1338.22,-181.758 1174.18,-132 1156.3,-126.574 1154.93,-117.878 1137.18,-112 1031.45,-76.9799 998.313,-98.2625 889.183,-76 810.516,-59.9517 719.552,-33.9269 673.406,-20.1812"/>
<polygon fill="midnightblue" stroke="midnightblue" points="674.313,-16.7994 663.729,-17.2828 672.305,-23.5051 674.313,-16.7994"/>
</g>
<!-- Node31&#45;&gt;Node9 -->
<g id="edge57" class="edge"><title>Node31&#45;&gt;Node9</title>
<path fill="none" stroke="midnightblue" d="M1592.18,-175.455C1563.58,-173.086 1531.5,-170.428 1502.18,-168 1308.85,-151.991 1260.1,-152.374 1067.18,-132 1054.74,-130.686 1041.09,-128.989 1029.17,-127.423"/>
<polygon fill="midnightblue" stroke="midnightblue" points="1029.6,-123.948 1019.22,-126.094 1028.67,-130.887 1029.6,-123.948"/>
</g>
<!-- Node31&#45;&gt;Node10 -->
<g id="edge56" class="edge"><title>Node31&#45;&gt;Node10</title>
<path fill="none" stroke="midnightblue" d="M1623.31,-173.98C1608.7,-171.841 1592.85,-169.678 1578.18,-168 1385.01,-145.9 1334.38,-161.412 1142.18,-132 1140.92,-131.806 1139.63,-131.595 1138.33,-131.37"/>
<polygon fill="midnightblue" stroke="midnightblue" points="1138.82,-127.899 1128.33,-129.431 1137.48,-134.771 1138.82,-127.899"/>
</g>
<!-- Node31&#45;&gt;Node11 -->
<g id="edge58" class="edge"><title>Node31&#45;&gt;Node11</title>
<path fill="none" stroke="midnightblue" d="M1592.04,-176.217C1554.14,-173.516 1508.94,-170.43 1468.18,-168 1307.82,-158.44 901.368,-173.521 746.183,-132 706.084,-121.271 664.059,-96.7328 639.815,-81.0638"/>
<polygon fill="midnightblue" stroke="midnightblue" points="641.71,-78.1212 631.434,-75.54 637.858,-83.9658 641.71,-78.1212"/>
</g>
<!-- Node31&#45;&gt;Node14 -->
<g id="edge60" class="edge"><title>Node31&#45;&gt;Node14</title>
<path fill="none" stroke="midnightblue" d="M1619.35,-173.972C1605.84,-171.996 1591.51,-169.913 1578.18,-168 1492.79,-155.742 1394.52,-141.974 1329.66,-132.932"/>
<polygon fill="midnightblue" stroke="midnightblue" points="1329.93,-129.436 1319.54,-131.523 1328.97,-136.369 1329.93,-129.436"/>
</g>
<!-- Node31&#45;&gt;Node17 -->
<g id="edge61" class="edge"><title>Node31&#45;&gt;Node17</title>
<path fill="none" stroke="midnightblue" d="M1687.09,-173.628C1701.52,-159.612 1725.1,-131.896 1710.18,-112 1698.87,-96.9113 1656.45,-85.1952 1618.98,-77.5051"/>
<polygon fill="midnightblue" stroke="midnightblue" points="1619.57,-74.0543 1609.08,-75.5404 1618.21,-80.9203 1619.57,-74.0543"/>
</g>
<!-- Node32 -->
<g id="node32" class="node"><title>Node32</title>
<polygon fill="none" stroke="#bfbfbf" points="1555.18,-112.5 1555.18,-131.5 1701.18,-131.5 1701.18,-112.5 1555.18,-112.5"/>
<text text-anchor="middle" x="1628.18" y="-119.5" font-family="Helvetica,sans-Serif" font-size="10.00">Framework/ServiceRegistry.h</text>
</g>
<!-- Node31&#45;&gt;Node32 -->
<g id="edge59" class="edge"><title>Node31&#45;&gt;Node32</title>
<path fill="none" stroke="midnightblue" d="M1670.16,-173.975C1662.74,-164.962 1650.85,-150.525 1641.62,-139.312"/>
<polygon fill="midnightblue" stroke="midnightblue" points="1644.25,-137.003 1635.19,-131.509 1638.85,-141.453 1644.25,-137.003"/>
</g>
<!-- Node33&#45;&gt;Node3 -->
<g id="edge66" class="edge"><title>Node33&#45;&gt;Node3</title>
<path fill="none" stroke="midnightblue" d="M362.628,-168.378C350.045,-142.703 328.75,-88.0703 356.183,-56 388.87,-17.7893 544.757,-11.8024 612.092,-11.0229"/>
<polygon fill="midnightblue" stroke="midnightblue" points="612.507,-14.5197 622.478,-10.9365 612.449,-7.51995 612.507,-14.5197"/>
</g>
<!-- Node33&#45;&gt;Node7 -->
<g id="edge69" class="edge"><title>Node33&#45;&gt;Node7</title>
<path fill="none" stroke="midnightblue" d="M383.929,-168.399C392.53,-159.575 403.635,-148.183 412.569,-139.018"/>
<polygon fill="midnightblue" stroke="midnightblue" points="415.27,-141.262 419.744,-131.658 410.257,-136.375 415.27,-141.262"/>
</g>
<!-- Node33&#45;&gt;Node8 -->
<g id="edge67" class="edge"><title>Node33&#45;&gt;Node8</title>
<path fill="none" stroke="midnightblue" d="M370.158,-168.397C370.9,-152.615 374.516,-127.265 389.183,-112 460.819,-37.4434 799.358,-16.6612 899.326,-12.1035"/>
<polygon fill="midnightblue" stroke="midnightblue" points="899.698,-15.5906 909.536,-11.6573 899.393,-8.59729 899.698,-15.5906"/>
</g>
<!-- Node33&#45;&gt;Node9 -->
<g id="edge68" class="edge"><title>Node33&#45;&gt;Node9</title>
<path fill="none" stroke="midnightblue" d="M440.334,-169.228C443.32,-168.788 446.279,-168.376 449.183,-168 657.827,-140.972 711.785,-152.375 921.183,-132 935.479,-130.609 951.253,-128.788 964.708,-127.148"/>
<polygon fill="midnightblue" stroke="midnightblue" points="965.434,-130.585 974.929,-125.883 964.575,-123.638 965.434,-130.585"/>
</g>
</g>
</svg>
