<?xml version="1.0" encoding="UTF-8" standalone="no"?>
<!DOCTYPE svg PUBLIC "-//W3C//DTD SVG 1.1//EN"
 "http://www.w3.org/Graphics/SVG/1.1/DTD/svg11.dtd">
<!-- Generated by graphviz version 2.38.0 (20140413.2041)
 -->
<!-- Title: Framework/test/testCheck.cxx Pages: 1 -->
<!--zoomable 319 -->
<svg id="main" version="1.1" xmlns="http://www.w3.org/2000/svg" xmlns:xlink="http://www.w3.org/1999/xlink" xml:space="preserve" onload="init(evt)">
<style type="text/css"><![CDATA[
.edge:hover path { stroke: red; }
.edge:hover polygon { stroke: red; fill: red; }
]]></style>
<script type="text/javascript"><![CDATA[
var edges = document.getElementsByTagName('g');
if (edges && edges.length) {
  for (var i=0;i<edges.length;i++) {
    if (edges[i].id.substr(0,4)=='edge') {
      edges[i].setAttribute('class','edge');
    }
  }
}
]]></script>
        <defs>
                <circle id="rim" cx="0" cy="0" r="7"/>
                <circle id="rim2" cx="0" cy="0" r="3.5"/>
                <g id="zoomPlus">
                        <use xlink:href="#rim" fill="#404040">
                                <set attributeName="fill" to="#808080" begin="zoomplus.mouseover" end="zoomplus.mouseout"/>
                        </use>
                        <path d="M-4,0h8M0,-4v8" fill="none" stroke="white" stroke-width="1.5" pointer-events="none"/>
                </g>
                <g id="zoomMin">
                        <use xlink:href="#rim" fill="#404040">
                                <set attributeName="fill" to="#808080" begin="zoomminus.mouseover" end="zoomminus.mouseout"/>
                        </use>
                        <path d="M-4,0h8" fill="none" stroke="white" stroke-width="1.5" pointer-events="none"/>
                </g>
                <g id="dirArrow">
                        <path fill="none" stroke="white" stroke-width="1.5" d="M0,-3.0v7 M-2.5,-0.5L0,-3.0L2.5,-0.5"/>
                </g>
               <g id="resetDef">
                       <use xlink:href="#rim2" fill="#404040">
                               <set attributeName="fill" to="#808080" begin="reset.mouseover" end="reset.mouseout"/>
                       </use>
               </g>
        </defs>

<script type="text/javascript">
var viewWidth = 1294;
var viewHeight = 319;
var sectionId = 'dynsection-0';
</script>
<script xlink:href="svgpan.js"/>
<svg id="graph" class="graph">
<g id="viewport">
<title>Framework/test/testCheck.cxx</title>
<!-- Node1 -->
<g id="node1" class="node"><title>Node1</title>
<polygon fill="#bfbfbf" stroke="black" points="511,-291.5 511,-310.5 663,-310.5 663,-291.5 511,-291.5"/>
<text text-anchor="middle" x="587" y="-298.5" font-family="Helvetica,sans-Serif" font-size="10.00">Framework/test/testCheck.cxx</text>
</g>
<!-- Node2 -->
<g id="node2" class="node"><title>Node2</title>
<g id="a_node2"><a xlink:href="CheckRunnerFactory_8h.html" target="_top" xlink:title="QualityControl/CheckRunner\lFactory.h">
<polygon fill="none" stroke="black" points="367,-224.5 367,-254.5 509,-254.5 509,-224.5 367,-224.5"/>
<text text-anchor="start" x="375" y="-242.5" font-family="Helvetica,sans-Serif" font-size="10.00">QualityControl/CheckRunner</text>
<text text-anchor="middle" x="438" y="-231.5" font-family="Helvetica,sans-Serif" font-size="10.00">Factory.h</text>
</a>
</g>
</g>
<!-- Node1&#45;&gt;Node2 -->
<g id="edge1" class="edge"><title>Node1&#45;&gt;Node2</title>
<path fill="none" stroke="midnightblue" d="M565.652,-291.475C544.057,-282.852 510.031,-269.264 482.538,-258.285"/>
<polygon fill="midnightblue" stroke="midnightblue" points="483.701,-254.981 473.116,-254.523 481.105,-261.482 483.701,-254.981"/>
</g>
<!-- Node16 -->
<g id="node16" class="node"><title>Node16</title>
<polygon fill="none" stroke="#bfbfbf" points="124,-0.5 124,-19.5 240,-19.5 240,-0.5 124,-0.5"/>
<text text-anchor="middle" x="182" y="-7.5" font-family="Helvetica,sans-Serif" font-size="10.00">Common/Exceptions.h</text>
</g>
<!-- Node1&#45;&gt;Node16 -->
<g id="edge43" class="edge"><title>Node1&#45;&gt;Node16</title>
<path fill="none" stroke="midnightblue" d="M510.862,-300.052C352.034,-298.1 0,-282.142 0,-179 0,-179 0,-179 0,-121 0,-63.4235 67.5395,-35.1749 120.332,-21.8889"/>
<polygon fill="midnightblue" stroke="midnightblue" points="121.418,-25.228 130.333,-19.5027 119.794,-18.4191 121.418,-25.228"/>
</g>
<!-- Node17 -->
<g id="node17" class="node"><title>Node17</title>
<g id="a_node17"><a xlink:href="MonitorObject_8h.html" target="_top" xlink:title="QualityControl/MonitorObject.h">
<polygon fill="none" stroke="black" points="324.5,-56.5 324.5,-75.5 475.5,-75.5 475.5,-56.5 324.5,-56.5"/>
<text text-anchor="middle" x="400" y="-63.5" font-family="Helvetica,sans-Serif" font-size="10.00">QualityControl/MonitorObject.h</text>
</a>
</g>
</g>
<!-- Node1&#45;&gt;Node17 -->
<g id="edge40" class="edge"><title>Node1&#45;&gt;Node17</title>
<path fill="none" stroke="midnightblue" d="M532.998,-291.454C409.181,-270.6 111.289,-212.831 57,-132 52.044,-124.621 51.1376,-118.682 57,-112 73.7609,-92.8966 218.3,-79.3828 314.324,-72.4182"/>
<polygon fill="midnightblue" stroke="midnightblue" points="314.603,-75.9073 324.328,-71.7035 314.104,-68.9251 314.603,-75.9073"/>
</g>
<!-- Node23 -->
<g id="node23" class="node"><title>Node23</title>
<polygon fill="none" stroke="#bfbfbf" points="527.5,-230 527.5,-249 646.5,-249 646.5,-230 527.5,-230"/>
<text text-anchor="middle" x="587" y="-237" font-family="Helvetica,sans-Serif" font-size="10.00">getTestDataDirectory.h</text>
</g>
<!-- Node1&#45;&gt;Node23 -->
<g id="edge41" class="edge"><title>Node1&#45;&gt;Node23</title>
<path fill="none" stroke="midnightblue" d="M587,-291.475C587,-283.08 587,-269.981 587,-259.163"/>
<polygon fill="midnightblue" stroke="midnightblue" points="590.5,-259.009 587,-249.009 583.5,-259.009 590.5,-259.009"/>
</g>
<!-- Node24 -->
<g id="node24" class="node"><title>Node24</title>
<polygon fill="none" stroke="#bfbfbf" points="664.5,-230 664.5,-249 815.5,-249 815.5,-230 664.5,-230"/>
<text text-anchor="middle" x="740" y="-237" font-family="Helvetica,sans-Serif" font-size="10.00">DataSampling/DataSampling.h</text>
</g>
<!-- Node1&#45;&gt;Node24 -->
<g id="edge42" class="edge"><title>Node1&#45;&gt;Node24</title>
<path fill="none" stroke="midnightblue" d="M608.921,-291.475C635.052,-281.313 678.912,-264.256 708.63,-252.7"/>
<polygon fill="midnightblue" stroke="midnightblue" points="710.068,-255.896 718.119,-249.009 707.531,-249.372 710.068,-255.896"/>
</g>
<!-- Node25 -->
<g id="node25" class="node"><title>Node25</title>
<polygon fill="none" stroke="#bfbfbf" points="834,-230 834,-249 884,-249 884,-230 834,-230"/>
<text text-anchor="middle" x="859" y="-237" font-family="Helvetica,sans-Serif" font-size="10.00">TH1F.h</text>
</g>
<!-- Node1&#45;&gt;Node25 -->
<g id="edge44" class="edge"><title>Node1&#45;&gt;Node25</title>
<path fill="none" stroke="midnightblue" d="M650.97,-291.492C699.154,-284.212 766.514,-272.167 824,-255 826.287,-254.317 828.628,-253.537 830.963,-252.7"/>
<polygon fill="midnightblue" stroke="midnightblue" points="832.311,-255.931 840.366,-249.049 829.777,-249.406 832.311,-255.931"/>
</g>
<!-- Node26 -->
<g id="node26" class="node"><title>Node26</title>
<polygon fill="none" stroke="#bfbfbf" points="902.5,-230 902.5,-249 1021.5,-249 1021.5,-230 902.5,-230"/>
<text text-anchor="middle" x="962" y="-237" font-family="Helvetica,sans-Serif" font-size="10.00">boost/test/unit_test.hpp</text>
</g>
<!-- Node1&#45;&gt;Node26 -->
<g id="edge45" class="edge"><title>Node1&#45;&gt;Node26</title>
<path fill="none" stroke="midnightblue" d="M653.147,-291.461C715.252,-283.162 810.668,-269.69 893,-255 899.639,-253.815 906.616,-252.469 913.479,-251.086"/>
<polygon fill="midnightblue" stroke="midnightblue" points="914.308,-254.488 923.398,-249.046 912.898,-247.632 914.308,-254.488"/>
</g>
<!-- Node3 -->
<g id="node3" class="node"><title>Node3</title>
<polygon fill="none" stroke="#bfbfbf" points="699.5,-0.5 699.5,-19.5 740.5,-19.5 740.5,-0.5 699.5,-0.5"/>
<text text-anchor="middle" x="720" y="-7.5" font-family="Helvetica,sans-Serif" font-size="10.00">string</text>
</g>
<!-- Node2&#45;&gt;Node3 -->
<g id="edge2" class="edge"><title>Node2&#45;&gt;Node3</title>
<path fill="none" stroke="midnightblue" d="M509.064,-225.397C512.081,-224.911 515.069,-224.443 518,-224 685.554,-198.656 1162.63,-258.849 1275,-132 1306.11,-96.8748 1263.86,-76.5223 1221,-56 1137.19,-15.8704 846.539,-11.3623 750.827,-10.9836"/>
<polygon fill="midnightblue" stroke="midnightblue" points="750.662,-7.48322 740.653,-10.9564 750.643,-14.4832 750.662,-7.48322"/>
</g>
<!-- Node4 -->
<g id="node4" class="node"><title>Node4</title>
<polygon fill="none" stroke="#bfbfbf" points="66,-112.5 66,-131.5 230,-131.5 230,-112.5 66,-112.5"/>
<text text-anchor="middle" x="148" y="-119.5" font-family="Helvetica,sans-Serif" font-size="10.00">Framework/DataProcessorSpec.h</text>
</g>
<!-- Node2&#45;&gt;Node4 -->
<g id="edge3" class="edge"><title>Node2&#45;&gt;Node4</title>
<path fill="none" stroke="midnightblue" d="M402.73,-224.453C345.462,-201.645 233.201,-156.933 178.889,-135.302"/>
<polygon fill="midnightblue" stroke="midnightblue" points="180.033,-131.991 169.448,-131.542 177.443,-138.494 180.033,-131.991"/>
</g>
<!-- Node5 -->
<g id="node5" class="node"><title>Node5</title>
<polygon fill="none" stroke="#bfbfbf" points="630.5,-168.5 630.5,-187.5 783.5,-187.5 783.5,-168.5 630.5,-168.5"/>
<text text-anchor="middle" x="707" y="-175.5" font-family="Helvetica,sans-Serif" font-size="10.00">Framework/CompletionPolicy.h</text>
</g>
<!-- Node2&#45;&gt;Node5 -->
<g id="edge4" class="edge"><title>Node2&#45;&gt;Node5</title>
<path fill="none" stroke="midnightblue" d="M501.409,-224.475C549.539,-213.829 614.714,-199.413 658.674,-189.689"/>
<polygon fill="midnightblue" stroke="midnightblue" points="659.535,-193.084 668.543,-187.506 658.023,-186.249 659.535,-193.084"/>
</g>
<!-- Node6 -->
<g id="node6" class="node"><title>Node6</title>
<g id="a_node6"><a xlink:href="Check_8h_source.html" target="_top" xlink:title="QualityControl/Check.h">
<polygon fill="none" stroke="black" points="493.5,-168.5 493.5,-187.5 612.5,-187.5 612.5,-168.5 493.5,-168.5"/>
<text text-anchor="middle" x="553" y="-175.5" font-family="Helvetica,sans-Serif" font-size="10.00">QualityControl/Check.h</text>
</a>
</g>
</g>
<!-- Node2&#45;&gt;Node6 -->
<g id="edge5" class="edge"><title>Node2&#45;&gt;Node6</title>
<path fill="none" stroke="midnightblue" d="M465.253,-224.399C484.032,-214.684 508.826,-201.855 527.268,-192.314"/>
<polygon fill="midnightblue" stroke="midnightblue" points="528.993,-195.362 536.266,-187.658 525.776,-189.145 528.993,-195.362"/>
</g>
<!-- Node6&#45;&gt;Node4 -->
<g id="edge11" class="edge"><title>Node6&#45;&gt;Node4</title>
<path fill="none" stroke="midnightblue" d="M493.241,-169.032C421.223,-159.43 300.195,-143.293 222.25,-132.9"/>
<polygon fill="midnightblue" stroke="midnightblue" points="222.395,-129.388 212.02,-131.536 221.469,-136.327 222.395,-129.388"/>
</g>
<!-- Node7 -->
<g id="node7" class="node"><title>Node7</title>
<polygon fill="none" stroke="#bfbfbf" points="1074.5,-112.5 1074.5,-131.5 1133.5,-131.5 1133.5,-112.5 1074.5,-112.5"/>
<text text-anchor="middle" x="1104" y="-119.5" font-family="Helvetica,sans-Serif" font-size="10.00">functional</text>
</g>
<!-- Node6&#45;&gt;Node7 -->
<g id="edge6" class="edge"><title>Node6&#45;&gt;Node7</title>
<path fill="none" stroke="midnightblue" d="M612.684,-168.927C615.493,-168.601 618.276,-168.29 621,-168 814.596,-147.353 867.608,-161.84 1064.2,-131.885"/>
<polygon fill="midnightblue" stroke="midnightblue" points="1064.93,-135.314 1074.28,-130.33 1063.86,-128.396 1064.93,-135.314"/>
</g>
<!-- Node8 -->
<g id="node8" class="node"><title>Node8</title>
<polygon fill="none" stroke="#bfbfbf" points="382.5,-0.5 382.5,-19.5 417.5,-19.5 417.5,-0.5 382.5,-0.5"/>
<text text-anchor="middle" x="400" y="-7.5" font-family="Helvetica,sans-Serif" font-size="10.00">map</text>
</g>
<!-- Node6&#45;&gt;Node8 -->
<g id="edge7" class="edge"><title>Node6&#45;&gt;Node8</title>
<path fill="none" stroke="midnightblue" d="M493.455,-176.011C420.545,-173.392 303.346,-164.147 276,-132 255.428,-107.816 288.734,-74.0669 308,-56 326.445,-38.7036 352.787,-26.7372 372.561,-19.5166"/>
<polygon fill="midnightblue" stroke="midnightblue" points="373.922,-22.7494 382.227,-16.1702 371.632,-16.1347 373.922,-22.7494"/>
</g>
<!-- Node9 -->
<g id="node9" class="node"><title>Node9</title>
<polygon fill="none" stroke="#bfbfbf" points="1152,-112.5 1152,-131.5 1196,-131.5 1196,-112.5 1152,-112.5"/>
<text text-anchor="middle" x="1174" y="-119.5" font-family="Helvetica,sans-Serif" font-size="10.00">vector</text>
</g>
<!-- Node6&#45;&gt;Node9 -->
<g id="edge8" class="edge"><title>Node6&#45;&gt;Node9</title>
<path fill="none" stroke="midnightblue" d="M612.679,-168.886C615.49,-168.571 618.275,-168.274 621,-168 849.108,-145.062 912.25,-171.87 1141.79,-131.833"/>
<polygon fill="midnightblue" stroke="midnightblue" points="1142.55,-135.254 1151.78,-130.066 1141.33,-128.361 1142.55,-135.254"/>
</g>
<!-- Node10 -->
<g id="node10" class="node"><title>Node10</title>
<polygon fill="none" stroke="#bfbfbf" points="1214,-112.5 1214,-131.5 1266,-131.5 1266,-112.5 1214,-112.5"/>
<text text-anchor="middle" x="1240" y="-119.5" font-family="Helvetica,sans-Serif" font-size="10.00">memory</text>
</g>
<!-- Node6&#45;&gt;Node10 -->
<g id="edge9" class="edge"><title>Node6&#45;&gt;Node10</title>
<path fill="none" stroke="midnightblue" d="M612.677,-168.861C615.489,-168.553 618.274,-168.264 621,-168 876.55,-143.243 946.37,-171.821 1203.72,-131.898"/>
<polygon fill="midnightblue" stroke="midnightblue" points="1204.4,-135.333 1213.74,-130.324 1203.32,-128.418 1204.4,-135.333"/>
</g>
<!-- Node11 -->
<g id="node11" class="node"><title>Node11</title>
<polygon fill="none" stroke="#bfbfbf" points="748.5,-56.5 748.5,-75.5 831.5,-75.5 831.5,-56.5 748.5,-56.5"/>
<text text-anchor="middle" x="790" y="-63.5" font-family="Helvetica,sans-Serif" font-size="10.00">unordered_map</text>
</g>
<!-- Node6&#45;&gt;Node11 -->
<g id="edge10" class="edge"><title>Node6&#45;&gt;Node11</title>
<path fill="none" stroke="midnightblue" d="M589.438,-168.447C618.574,-160.888 660.022,-148.5 694,-132 722.76,-118.034 752.79,-96.3746 771.441,-81.9457"/>
<polygon fill="midnightblue" stroke="midnightblue" points="773.696,-84.6248 779.396,-75.6937 769.371,-79.1211 773.696,-84.6248"/>
</g>
<!-- Node12 -->
<g id="node12" class="node"><title>Node12</title>
<g id="a_node12"><a xlink:href="Quality_8h.html" target="_top" xlink:title="QualityControl/Quality.h">
<polygon fill="none" stroke="black" points="532.5,-56.5 532.5,-75.5 653.5,-75.5 653.5,-56.5 532.5,-56.5"/>
<text text-anchor="middle" x="593" y="-63.5" font-family="Helvetica,sans-Serif" font-size="10.00">QualityControl/Quality.h</text>
</a>
</g>
</g>
<!-- Node6&#45;&gt;Node12 -->
<g id="edge12" class="edge"><title>Node6&#45;&gt;Node12</title>
<path fill="none" stroke="midnightblue" d="M542.819,-168.498C529.138,-155.999 507.765,-131.982 519,-112 527.221,-97.3782 542.331,-86.9543 556.763,-79.8465"/>
<polygon fill="midnightblue" stroke="midnightblue" points="558.397,-82.9491 566.071,-75.6437 555.516,-76.5693 558.397,-82.9491"/>
</g>
<!-- Node14 -->
<g id="node14" class="node"><title>Node14</title>
<g id="a_node14"><a xlink:href="QualityObject_8h_source.html" target="_top" xlink:title="QualityControl/QualityObject.h">
<polygon fill="none" stroke="black" points="285.5,-112.5 285.5,-131.5 434.5,-131.5 434.5,-112.5 285.5,-112.5"/>
<text text-anchor="middle" x="360" y="-119.5" font-family="Helvetica,sans-Serif" font-size="10.00">QualityControl/QualityObject.h</text>
</a>
</g>
</g>
<!-- Node6&#45;&gt;Node14 -->
<g id="edge16" class="edge"><title>Node6&#45;&gt;Node14</title>
<path fill="none" stroke="midnightblue" d="M522.419,-168.444C489.385,-159.201 436.612,-144.436 400.234,-134.257"/>
<polygon fill="midnightblue" stroke="midnightblue" points="401.012,-130.84 390.438,-131.516 399.125,-137.582 401.012,-130.84"/>
</g>
<!-- Node6&#45;&gt;Node17 -->
<g id="edge21" class="edge"><title>Node6&#45;&gt;Node17</title>
<path fill="none" stroke="midnightblue" d="M540.994,-168.368C514.851,-149.573 452.532,-104.768 420.215,-81.5334"/>
<polygon fill="midnightblue" stroke="midnightblue" points="422.112,-78.5871 411.95,-75.5914 418.026,-84.2707 422.112,-78.5871"/>
</g>
<!-- Node18 -->
<g id="node18" class="node"><title>Node18</title>
<g id="a_node18"><a xlink:href="CheckInterface_8h.html" target="_top" xlink:title="QualityControl/CheckInterface.h">
<polygon fill="none" stroke="black" points="528.5,-112.5 528.5,-131.5 685.5,-131.5 685.5,-112.5 528.5,-112.5"/>
<text text-anchor="middle" x="607" y="-119.5" font-family="Helvetica,sans-Serif" font-size="10.00">QualityControl/CheckInterface.h</text>
</a>
</g>
</g>
<!-- Node6&#45;&gt;Node18 -->
<g id="edge27" class="edge"><title>Node6&#45;&gt;Node18</title>
<path fill="none" stroke="midnightblue" d="M561.917,-168.083C569.78,-160.22 581.431,-148.569 590.919,-139.081"/>
<polygon fill="midnightblue" stroke="midnightblue" points="593.653,-141.297 598.249,-131.751 588.703,-136.347 593.653,-141.297"/>
</g>
<!-- Node19 -->
<g id="node19" class="node"><title>Node19</title>
<g id="a_node19"><a xlink:href="QcInfoLogger_8h.html" target="_top" xlink:title="QualityControl/QcInfoLogger.h">
<polygon fill="none" stroke="black" points="907.5,-112.5 907.5,-131.5 1056.5,-131.5 1056.5,-112.5 907.5,-112.5"/>
<text text-anchor="middle" x="982" y="-119.5" font-family="Helvetica,sans-Serif" font-size="10.00">QualityControl/QcInfoLogger.h</text>
</a>
</g>
</g>
<!-- Node6&#45;&gt;Node19 -->
<g id="edge34" class="edge"><title>Node6&#45;&gt;Node19</title>
<path fill="none" stroke="midnightblue" d="M612.701,-169.072C615.506,-168.708 618.283,-168.349 621,-168 717.774,-155.564 829.211,-141.75 902.373,-132.75"/>
<polygon fill="midnightblue" stroke="midnightblue" points="902.939,-136.207 912.437,-131.513 902.085,-129.259 902.939,-136.207"/>
</g>
<!-- Node22 -->
<g id="node22" class="node"><title>Node22</title>
<g id="a_node22"><a xlink:href="CheckConfig_8h.html" target="_top" xlink:title="QualityControl/CheckConfig.h">
<polygon fill="none" stroke="black" points="742.5,-112.5 742.5,-131.5 889.5,-131.5 889.5,-112.5 742.5,-112.5"/>
<text text-anchor="middle" x="816" y="-119.5" font-family="Helvetica,sans-Serif" font-size="10.00">QualityControl/CheckConfig.h</text>
</a>
</g>
</g>
<!-- Node6&#45;&gt;Node22 -->
<g id="edge37" class="edge"><title>Node6&#45;&gt;Node22</title>
<path fill="none" stroke="midnightblue" d="M594.673,-168.444C640.745,-158.984 714.996,-143.738 764.631,-133.547"/>
<polygon fill="midnightblue" stroke="midnightblue" points="765.43,-136.956 774.522,-131.516 764.022,-130.099 765.43,-136.956"/>
</g>
<!-- Node12&#45;&gt;Node3 -->
<g id="edge14" class="edge"><title>Node12&#45;&gt;Node3</title>
<path fill="none" stroke="midnightblue" d="M613.124,-56.4435C634.024,-47.5566 666.935,-33.5632 690.716,-23.4514"/>
<polygon fill="midnightblue" stroke="midnightblue" points="692.138,-26.6504 699.971,-19.5164 689.398,-20.2085 692.138,-26.6504"/>
</g>
<!-- Node12&#45;&gt;Node8 -->
<g id="edge15" class="edge"><title>Node12&#45;&gt;Node8</title>
<path fill="none" stroke="midnightblue" d="M562.419,-56.4435C525.27,-46.0496 463.156,-28.6707 427.471,-18.6861"/>
<polygon fill="midnightblue" stroke="midnightblue" points="428.298,-15.2833 417.725,-15.9593 426.412,-22.0244 428.298,-15.2833"/>
</g>
<!-- Node13 -->
<g id="node13" class="node"><title>Node13</title>
<polygon fill="none" stroke="#bfbfbf" points="565,-0.5 565,-19.5 621,-19.5 621,-0.5 565,-0.5"/>
<text text-anchor="middle" x="593" y="-7.5" font-family="Helvetica,sans-Serif" font-size="10.00">Rtypes.h</text>
</g>
<!-- Node12&#45;&gt;Node13 -->
<g id="edge13" class="edge"><title>Node12&#45;&gt;Node13</title>
<path fill="none" stroke="midnightblue" d="M593,-56.083C593,-49.0059 593,-38.8611 593,-29.9865"/>
<polygon fill="midnightblue" stroke="midnightblue" points="596.5,-29.751 593,-19.7511 589.5,-29.7511 596.5,-29.751"/>
</g>
<!-- Node14&#45;&gt;Node8 -->
<g id="edge17" class="edge"><title>Node14&#45;&gt;Node8</title>
<path fill="none" stroke="midnightblue" d="M346.503,-112.403C329.077,-100.179 302.398,-76.93 315,-56 327.395,-35.4135 352.716,-23.7517 372.513,-17.4862"/>
<polygon fill="midnightblue" stroke="midnightblue" points="373.621,-20.8096 382.265,-14.683 371.687,-14.0821 373.621,-20.8096"/>
</g>
<!-- Node14&#45;&gt;Node12 -->
<g id="edge20" class="edge"><title>Node14&#45;&gt;Node12</title>
<path fill="none" stroke="midnightblue" d="M396.92,-112.444C437.395,-103.063 502.421,-87.9926 546.384,-77.8036"/>
<polygon fill="midnightblue" stroke="midnightblue" points="547.302,-81.1839 556.253,-75.5164 545.721,-74.3646 547.302,-81.1839"/>
</g>
<!-- Node15 -->
<g id="node15" class="node"><title>Node15</title>
<polygon fill="none" stroke="#bfbfbf" points="282.5,-0.5 282.5,-19.5 341.5,-19.5 341.5,-0.5 282.5,-0.5"/>
<text text-anchor="middle" x="312" y="-7.5" font-family="Helvetica,sans-Serif" font-size="10.00">TObject.h</text>
</g>
<!-- Node14&#45;&gt;Node15 -->
<g id="edge18" class="edge"><title>Node14&#45;&gt;Node15</title>
<path fill="none" stroke="midnightblue" d="M344.217,-112.467C331.797,-104.769 315.395,-92.179 308,-76 301.391,-61.5397 303.25,-43.3523 306.268,-29.8959"/>
<polygon fill="midnightblue" stroke="midnightblue" points="309.74,-30.4536 308.915,-19.8909 302.973,-28.6629 309.74,-30.4536"/>
</g>
<!-- Node14&#45;&gt;Node16 -->
<g id="edge19" class="edge"><title>Node14&#45;&gt;Node16</title>
<path fill="none" stroke="midnightblue" d="M346.033,-112.368C315.358,-93.4121 241.874,-48.0006 204.561,-24.9424"/>
<polygon fill="midnightblue" stroke="midnightblue" points="206.249,-21.8711 195.902,-19.5914 202.569,-27.8258 206.249,-21.8711"/>
</g>
<!-- Node17&#45;&gt;Node3 -->
<g id="edge22" class="edge"><title>Node17&#45;&gt;Node3</title>
<path fill="none" stroke="midnightblue" d="M450.705,-56.4435C517.784,-45.124 633.956,-25.5199 689.157,-16.2047"/>
<polygon fill="midnightblue" stroke="midnightblue" points="690.074,-19.5996 699.352,-14.4843 688.909,-12.6972 690.074,-19.5996"/>
</g>
<!-- Node17&#45;&gt;Node8 -->
<g id="edge23" class="edge"><title>Node17&#45;&gt;Node8</title>
<path fill="none" stroke="midnightblue" d="M400,-56.083C400,-49.0059 400,-38.8611 400,-29.9865"/>
<polygon fill="midnightblue" stroke="midnightblue" points="403.5,-29.751 400,-19.7511 396.5,-29.7511 403.5,-29.751"/>
</g>
<!-- Node17&#45;&gt;Node13 -->
<g id="edge24" class="edge"><title>Node17&#45;&gt;Node13</title>
<path fill="none" stroke="midnightblue" d="M430.581,-56.4435C464.295,-47.0108 518.569,-31.8252 554.992,-21.6345"/>
<polygon fill="midnightblue" stroke="midnightblue" points="556.072,-24.9666 564.759,-18.9015 554.186,-18.2255 556.072,-24.9666"/>
</g>
<!-- Node17&#45;&gt;Node15 -->
<g id="edge25" class="edge"><title>Node17&#45;&gt;Node15</title>
<path fill="none" stroke="midnightblue" d="M385.861,-56.324C372.134,-47.9002 351.064,-34.9709 334.936,-25.0741"/>
<polygon fill="midnightblue" stroke="midnightblue" points="336.457,-21.9016 326.104,-19.6545 332.796,-27.8678 336.457,-21.9016"/>
</g>
<!-- Node17&#45;&gt;Node16 -->
<g id="edge26" class="edge"><title>Node17&#45;&gt;Node16</title>
<path fill="none" stroke="midnightblue" d="M365.457,-56.4435C327.747,-47.1024 267.26,-32.1194 226.135,-21.9326"/>
<polygon fill="midnightblue" stroke="midnightblue" points="226.929,-18.5236 216.381,-19.5164 225.246,-25.3182 226.929,-18.5236"/>
</g>
<!-- Node18&#45;&gt;Node3 -->
<g id="edge28" class="edge"><title>Node18&#45;&gt;Node3</title>
<path fill="none" stroke="midnightblue" d="M624.833,-112.486C640.17,-104.553 662.246,-91.6164 678,-76 691.974,-62.1475 703.705,-42.8715 711.186,-28.9109"/>
<polygon fill="midnightblue" stroke="midnightblue" points="714.391,-30.3319 715.854,-19.8385 708.167,-27.1295 714.391,-30.3319"/>
</g>
<!-- Node18&#45;&gt;Node8 -->
<g id="edge29" class="edge"><title>Node18&#45;&gt;Node8</title>
<path fill="none" stroke="midnightblue" d="M590.757,-112.368C554.782,-93.2515 468.176,-47.229 425.143,-24.361"/>
<polygon fill="midnightblue" stroke="midnightblue" points="426.641,-21.1933 416.167,-19.5914 423.356,-27.3748 426.641,-21.1933"/>
</g>
<!-- Node18&#45;&gt;Node11 -->
<g id="edge30" class="edge"><title>Node18&#45;&gt;Node11</title>
<path fill="none" stroke="midnightblue" d="M635.997,-112.444C667.185,-103.241 716.93,-88.5617 751.408,-78.3879"/>
<polygon fill="midnightblue" stroke="midnightblue" points="752.538,-81.7036 761.139,-75.5164 750.557,-74.9898 752.538,-81.7036"/>
</g>
<!-- Node18&#45;&gt;Node12 -->
<g id="edge33" class="edge"><title>Node18&#45;&gt;Node12</title>
<path fill="none" stroke="midnightblue" d="M604.688,-112.083C602.833,-104.927 600.165,-94.6353 597.846,-85.6911"/>
<polygon fill="midnightblue" stroke="midnightblue" points="601.166,-84.5527 595.269,-75.7511 594.391,-86.3094 601.166,-84.5527"/>
</g>
<!-- Node18&#45;&gt;Node13 -->
<g id="edge31" class="edge"><title>Node18&#45;&gt;Node13</title>
<path fill="none" stroke="midnightblue" d="M623.735,-112.428C644.096,-100.769 674.322,-78.7464 662,-56 654.251,-41.6958 639.766,-31.2188 626.06,-23.992"/>
<polygon fill="midnightblue" stroke="midnightblue" points="627.314,-20.7104 616.788,-19.501 624.262,-27.0103 627.314,-20.7104"/>
</g>
<!-- Node18&#45;&gt;Node17 -->
<g id="edge32" class="edge"><title>Node18&#45;&gt;Node17</title>
<path fill="none" stroke="midnightblue" d="M574.2,-112.444C538.62,-103.162 481.686,-88.3093 442.653,-78.127"/>
<polygon fill="midnightblue" stroke="midnightblue" points="443.206,-74.6541 432.646,-75.5164 441.439,-81.4274 443.206,-74.6541"/>
</g>
<!-- Node20 -->
<g id="node20" class="node"><title>Node20</title>
<polygon fill="none" stroke="#bfbfbf" points="902,-56.5 902,-75.5 1032,-75.5 1032,-56.5 902,-56.5"/>
<text text-anchor="middle" x="967" y="-63.5" font-family="Helvetica,sans-Serif" font-size="10.00">InfoLogger/InfoLogger.hxx</text>
</g>
<!-- Node19&#45;&gt;Node20 -->
<g id="edge35" class="edge"><title>Node19&#45;&gt;Node20</title>
<path fill="none" stroke="midnightblue" d="M979.523,-112.083C977.514,-104.849 974.614,-94.4087 972.11,-85.3968"/>
<polygon fill="midnightblue" stroke="midnightblue" points="975.48,-84.4495 969.431,-75.7511 968.735,-86.323 975.48,-84.4495"/>
</g>
<!-- Node21 -->
<g id="node21" class="node"><title>Node21</title>
<polygon fill="none" stroke="#bfbfbf" points="1050,-56.5 1050,-75.5 1212,-75.5 1212,-56.5 1050,-56.5"/>
<text text-anchor="middle" x="1131" y="-63.5" font-family="Helvetica,sans-Serif" font-size="10.00">InfoLogger/InfoLoggerMacros.hxx</text>
</g>
<!-- Node19&#45;&gt;Node21 -->
<g id="edge36" class="edge"><title>Node19&#45;&gt;Node21</title>
<path fill="none" stroke="midnightblue" d="M1005.61,-112.444C1030.46,-103.438 1069.77,-89.1891 1097.75,-79.049"/>
<polygon fill="midnightblue" stroke="midnightblue" points="1099.29,-82.2144 1107.5,-75.5164 1096.91,-75.6332 1099.29,-82.2144"/>
</g>
<!-- Node22&#45;&gt;Node3 -->
<g id="edge38" class="edge"><title>Node22&#45;&gt;Node3</title>
<path fill="none" stroke="midnightblue" d="M823.983,-112.357C835.079,-99.2563 852.47,-73.9948 840,-56 820.109,-27.2974 779.503,-16.8747 751.059,-13.1063"/>
<polygon fill="midnightblue" stroke="midnightblue" points="751.148,-9.59456 740.821,-11.9635 750.371,-16.5514 751.148,-9.59456"/>
</g>
<!-- Node22&#45;&gt;Node11 -->
<g id="edge39" class="edge"><title>Node22&#45;&gt;Node11</title>
<path fill="none" stroke="midnightblue" d="M811.707,-112.083C808.148,-104.691 802.978,-93.9533 798.576,-84.8111"/>
<polygon fill="midnightblue" stroke="midnightblue" points="801.705,-83.2427 794.213,-75.7511 795.398,-86.2795 801.705,-83.2427"/>
</g>
</g>
</svg>
        <g id="navigator" transform="translate(0 0)" fill="#404254">
                <rect fill="#f2f5e9" fill-opacity="0.5" stroke="#606060" stroke-width=".5" x="0" y="0" width="60" height="60"/>
                <use id="zoomplus" xlink:href="#zoomPlus" x="17" y="9" onmousedown="handleZoom(evt,'in')"/>
                <use id="zoomminus" xlink:href="#zoomMin" x="42" y="9" onmousedown="handleZoom(evt,'out')"/>
                <use id="reset" xlink:href="#resetDef" x="30" y="36" onmousedown="handleReset()"/>
                <g id="arrowUp" xlink:href="#dirArrow" transform="translate(30 24)" onmousedown="handlePan(0,-1)">
                  <use xlink:href="#rim" fill="#404040">
                        <set attributeName="fill" to="#808080" begin="arrowUp.mouseover" end="arrowUp.mouseout"/>
                  </use>
                  <path fill="none" stroke="white" stroke-width="1.5" d="M0,-3.0v7 M-2.5,-0.5L0,-3.0L2.5,-0.5"/>
                </g>
                <g id="arrowRight" xlink:href="#dirArrow" transform="rotate(90) translate(36 -43)" onmousedown="handlePan(1,0)">
                  <use xlink:href="#rim" fill="#404040">
                        <set attributeName="fill" to="#808080" begin="arrowRight.mouseover" end="arrowRight.mouseout"/>
                  </use>
                  <path fill="none" stroke="white" stroke-width="1.5" d="M0,-3.0v7 M-2.5,-0.5L0,-3.0L2.5,-0.5"/>
                </g>
                <g id="arrowDown" xlink:href="#dirArrow" transform="rotate(180) translate(-30 -48)" onmousedown="handlePan(0,1)">
                  <use xlink:href="#rim" fill="#404040">
                        <set attributeName="fill" to="#808080" begin="arrowDown.mouseover" end="arrowDown.mouseout"/>
                  </use>
                  <path fill="none" stroke="white" stroke-width="1.5" d="M0,-3.0v7 M-2.5,-0.5L0,-3.0L2.5,-0.5"/>
                </g>
                <g id="arrowLeft" xlink:href="#dirArrow" transform="rotate(270) translate(-36 17)" onmousedown="handlePan(-1,0)">
                  <use xlink:href="#rim" fill="#404040">
                        <set attributeName="fill" to="#808080" begin="arrowLeft.mouseover" end="arrowLeft.mouseout"/>
                  </use>
                  <path fill="none" stroke="white" stroke-width="1.5" d="M0,-3.0v7 M-2.5,-0.5L0,-3.0L2.5,-0.5"/>
                </g>
        </g>
        <svg viewBox="0 0 15 15" width="100%" height="30px" preserveAspectRatio="xMaxYMin meet">
         <g id="arrow_out" transform="scale(0.3 0.3)">
          <a xlink:href="testCheck_8cxx__incl_org.svg" target="_base">
           <rect id="button" ry="5" rx="5" y="6" x="6" height="38" width="38"
                fill="#f2f5e9" fill-opacity="0.5" stroke="#606060" stroke-width="1.0"/>
           <path id="arrow"
             d="M 11.500037,31.436501 C 11.940474,20.09759 22.043105,11.32322 32.158766,21.979434 L 37.068811,17.246167 C 37.068811,17.246167 37.088388,32 37.088388,32 L 22.160133,31.978069 C 22.160133,31.978069 26.997745,27.140456 26.997745,27.140456 C 18.528582,18.264221 13.291696,25.230495 11.500037,31.436501 z"
             style="fill:#404040;"/>
          </a>
         </g>
        </svg>
</svg>
