<?xml version="1.0" encoding="UTF-8" standalone="no"?>
<!DOCTYPE svg PUBLIC "-//W3C//DTD SVG 1.1//EN"
 "http://www.w3.org/Graphics/SVG/1.1/DTD/svg11.dtd">
<!-- Generated by graphviz version 2.38.0 (20140413.2041)
 -->
<!-- Title: Framework/test/testCheckWorkflow.cxx Pages: 1 -->
<svg width="2436pt" height="352pt"
 viewBox="0.00 0.00 2435.50 352.00" xmlns="http://www.w3.org/2000/svg" xmlns:xlink="http://www.w3.org/1999/xlink">
<g id="graph0" class="graph" transform="scale(1 1) rotate(0) translate(4 348)">
<title>Framework/test/testCheckWorkflow.cxx</title>
<!-- Node1 -->
<g id="node1" class="node"><title>Node1</title>
<polygon fill="#bfbfbf" stroke="black" points="1213,-313.5 1213,-343.5 1346,-343.5 1346,-313.5 1213,-313.5"/>
<text text-anchor="start" x="1221" y="-331.5" font-family="Helvetica,sans-Serif" font-size="10.00">Framework/test/testCheck</text>
<text text-anchor="middle" x="1279.5" y="-320.5" font-family="Helvetica,sans-Serif" font-size="10.00">Workflow.cxx</text>
</g>
<!-- Node2 -->
<g id="node2" class="node"><title>Node2</title>
<polygon fill="none" stroke="#bfbfbf" points="0,-252 0,-271 151,-271 151,-252 0,-252"/>
<text text-anchor="middle" x="75.5" y="-259" font-family="Helvetica,sans-Serif" font-size="10.00">DataSampling/DataSampling.h</text>
</g>
<!-- Node1&#45;&gt;Node2 -->
<g id="edge1" class="edge"><title>Node1&#45;&gt;Node2</title>
<path fill="none" stroke="midnightblue" d="M1212.69,-327.415C1038.68,-326.559 557.401,-320.14 159.5,-277 149.569,-275.923 139.035,-274.406 128.907,-272.756"/>
<polygon fill="midnightblue" stroke="midnightblue" points="129.394,-269.289 118.951,-271.073 128.227,-276.191 129.394,-269.289"/>
</g>
<!-- Node3 -->
<g id="node3" class="node"><title>Node3</title>
<polygon fill="none" stroke="#bfbfbf" points="169,-246.5 169,-276.5 314,-276.5 314,-246.5 169,-246.5"/>
<text text-anchor="start" x="177" y="-264.5" font-family="Helvetica,sans-Serif" font-size="10.00">Framework/CompletionPolicy</text>
<text text-anchor="middle" x="241.5" y="-253.5" font-family="Helvetica,sans-Serif" font-size="10.00">Helpers.h</text>
</g>
<!-- Node1&#45;&gt;Node3 -->
<g id="edge2" class="edge"><title>Node1&#45;&gt;Node3</title>
<path fill="none" stroke="midnightblue" d="M1212.91,-326.779C1058.48,-324.504 663.831,-315.222 324.338,-276.991"/>
<polygon fill="midnightblue" stroke="midnightblue" points="324.641,-273.503 314.31,-275.851 323.851,-280.458 324.641,-273.503"/>
</g>
<!-- Node4 -->
<g id="node4" class="node"><title>Node4</title>
<polygon fill="none" stroke="#bfbfbf" points="332.5,-252 332.5,-271 462.5,-271 462.5,-252 332.5,-252"/>
<text text-anchor="middle" x="397.5" y="-259" font-family="Helvetica,sans-Serif" font-size="10.00">Framework/DeviceSpec.h</text>
</g>
<!-- Node1&#45;&gt;Node4 -->
<g id="edge3" class="edge"><title>Node1&#45;&gt;Node4</title>
<path fill="none" stroke="midnightblue" d="M1212.89,-325.983C1075,-322.256 748.416,-310.385 476.5,-277 467.454,-275.889 457.878,-274.401 448.631,-272.799"/>
<polygon fill="midnightblue" stroke="midnightblue" points="449.229,-269.351 438.768,-271.03 447.993,-276.241 449.229,-269.351"/>
</g>
<!-- Node5 -->
<g id="node5" class="node"><title>Node5</title>
<g id="a_node5"><a xlink:href="InfrastructureGenerator_8h.html" target="_top" xlink:title="QualityControl/Infrastructure\lGenerator.h">
<polygon fill="none" stroke="black" points="2287.5,-179.5 2287.5,-209.5 2427.5,-209.5 2427.5,-179.5 2287.5,-179.5"/>
<text text-anchor="start" x="2295.5" y="-197.5" font-family="Helvetica,sans-Serif" font-size="10.00">QualityControl/Infrastructure</text>
<text text-anchor="middle" x="2357.5" y="-186.5" font-family="Helvetica,sans-Serif" font-size="10.00">Generator.h</text>
</a>
</g>
</g>
<!-- Node1&#45;&gt;Node5 -->
<g id="edge4" class="edge"><title>Node1&#45;&gt;Node5</title>
<path fill="none" stroke="midnightblue" d="M1346.11,-326.591C1485.01,-323.966 1801.04,-313.993 1901.5,-277 1923.61,-268.859 1922.51,-254.45 1944.5,-246 2081.81,-193.246 2127.84,-230.521 2273.5,-210 2274.78,-209.82 2276.07,-209.635 2277.36,-209.447"/>
<polygon fill="midnightblue" stroke="midnightblue" points="2278.06,-212.882 2287.42,-207.93 2277.01,-205.96 2278.06,-212.882"/>
</g>
<!-- Node6 -->
<g id="node6" class="node"><title>Node6</title>
<polygon fill="none" stroke="#bfbfbf" points="1919.5,-123.5 1919.5,-142.5 1963.5,-142.5 1963.5,-123.5 1919.5,-123.5"/>
<text text-anchor="middle" x="1941.5" y="-130.5" font-family="Helvetica,sans-Serif" font-size="10.00">vector</text>
</g>
<!-- Node1&#45;&gt;Node6 -->
<g id="edge82" class="edge"><title>Node1&#45;&gt;Node6</title>
<path fill="none" stroke="midnightblue" d="M1346.29,-318.709C1548.45,-292.063 2140.2,-213.782 2143.5,-210 2152.56,-199.622 2152.12,-189.75 2143.5,-179 2132.89,-165.761 2027.94,-147.557 1973.67,-138.925"/>
<polygon fill="midnightblue" stroke="midnightblue" points="1973.95,-135.427 1963.53,-137.33 1972.86,-142.342 1973.95,-135.427"/>
</g>
<!-- Node10 -->
<g id="node10" class="node"><title>Node10</title>
<polygon fill="none" stroke="#bfbfbf" points="1144,-252 1144,-271 1263,-271 1263,-252 1144,-252"/>
<text text-anchor="middle" x="1203.5" y="-259" font-family="Helvetica,sans-Serif" font-size="10.00">getTestDataDirectory.h</text>
</g>
<!-- Node1&#45;&gt;Node10 -->
<g id="edge9" class="edge"><title>Node1&#45;&gt;Node10</title>
<path fill="none" stroke="midnightblue" d="M1263.01,-313.396C1250.81,-302.96 1234.19,-288.751 1221.62,-277.998"/>
<polygon fill="midnightblue" stroke="midnightblue" points="1223.54,-275.034 1213.67,-271.195 1218.99,-280.354 1223.54,-275.034"/>
</g>
<!-- Node11 -->
<g id="node11" class="node"><title>Node11</title>
<g id="a_node11"><a xlink:href="CheckRunner_8h.html" target="_top" xlink:title="QualityControl/CheckRunner.h">
<polygon fill="none" stroke="black" points="1281.5,-252 1281.5,-271 1431.5,-271 1431.5,-252 1281.5,-252"/>
<text text-anchor="middle" x="1356.5" y="-259" font-family="Helvetica,sans-Serif" font-size="10.00">QualityControl/CheckRunner.h</text>
</a>
</g>
</g>
<!-- Node1&#45;&gt;Node11 -->
<g id="edge10" class="edge"><title>Node1&#45;&gt;Node11</title>
<path fill="none" stroke="midnightblue" d="M1296.21,-313.396C1308.69,-302.86 1325.73,-288.477 1338.51,-277.689"/>
<polygon fill="midnightblue" stroke="midnightblue" points="1340.82,-280.32 1346.2,-271.195 1336.3,-274.971 1340.82,-280.32"/>
</g>
<!-- Node30 -->
<g id="node30" class="node"><title>Node30</title>
<g id="a_node30"><a xlink:href="QualityObject_8h_source.html" target="_top" xlink:title="QualityControl/QualityObject.h">
<polygon fill="none" stroke="black" points="504,-123.5 504,-142.5 653,-142.5 653,-123.5 504,-123.5"/>
<text text-anchor="middle" x="578.5" y="-130.5" font-family="Helvetica,sans-Serif" font-size="10.00">QualityControl/QualityObject.h</text>
</a>
</g>
</g>
<!-- Node1&#45;&gt;Node30 -->
<g id="edge74" class="edge"><title>Node1&#45;&gt;Node30</title>
<path fill="none" stroke="midnightblue" d="M1212.66,-323.431C1099.79,-314.59 866.066,-287.717 685.5,-210 650.339,-194.866 615.246,-166.865 595.274,-149.403"/>
<polygon fill="midnightblue" stroke="midnightblue" points="597.476,-146.677 587.684,-142.632 592.817,-151.901 597.476,-146.677"/>
</g>
<!-- Node38 -->
<g id="node38" class="node"><title>Node38</title>
<g id="a_node38"><a xlink:href="runnerUtils_8h.html" target="_top" xlink:title="QualityControl/runnerUtils.h">
<polygon fill="none" stroke="black" points="370,-67.5 370,-86.5 507,-86.5 507,-67.5 370,-67.5"/>
<text text-anchor="middle" x="438.5" y="-74.5" font-family="Helvetica,sans-Serif" font-size="10.00">QualityControl/runnerUtils.h</text>
</a>
</g>
</g>
<!-- Node1&#45;&gt;Node38 -->
<g id="edge75" class="edge"><title>Node1&#45;&gt;Node38</title>
<path fill="none" stroke="midnightblue" d="M1212.87,-324.37C1051.02,-315.626 642.388,-286.381 532.5,-210 489.705,-180.254 459.623,-124.437 446.265,-95.8575"/>
<polygon fill="midnightblue" stroke="midnightblue" points="449.415,-94.33 442.107,-86.6591 443.036,-97.2131 449.415,-94.33"/>
</g>
<!-- Node40 -->
<g id="node40" class="node"><title>Node40</title>
<polygon fill="none" stroke="#bfbfbf" points="1953.5,-252 1953.5,-271 2113.5,-271 2113.5,-252 1953.5,-252"/>
<text text-anchor="middle" x="2033.5" y="-259" font-family="Helvetica,sans-Serif" font-size="10.00">Framework/runDataProcessing.h</text>
</g>
<!-- Node1&#45;&gt;Node40 -->
<g id="edge79" class="edge"><title>Node1&#45;&gt;Node40</title>
<path fill="none" stroke="midnightblue" d="M1346.17,-324.093C1465.46,-317.621 1723.16,-301.925 1939.5,-277 1950.3,-275.756 1961.76,-274.192 1972.83,-272.556"/>
<polygon fill="midnightblue" stroke="midnightblue" points="1973.5,-275.996 1982.86,-271.04 1972.45,-269.074 1973.5,-275.996"/>
</g>
<!-- Node41 -->
<g id="node41" class="node"><title>Node41</title>
<polygon fill="none" stroke="#bfbfbf" points="2132,-252 2132,-271 2273,-271 2273,-252 2132,-252"/>
<text text-anchor="middle" x="2202.5" y="-259" font-family="Helvetica,sans-Serif" font-size="10.00">Framework/ControlService.h</text>
</g>
<!-- Node1&#45;&gt;Node41 -->
<g id="edge80" class="edge"><title>Node1&#45;&gt;Node41</title>
<path fill="none" stroke="midnightblue" d="M1346.13,-326.211C1488.92,-322.857 1834.82,-311.563 2122.5,-277 2131.66,-275.9 2141.36,-274.416 2150.72,-272.816"/>
<polygon fill="midnightblue" stroke="midnightblue" points="2151.47,-276.238 2160.71,-271.048 2150.25,-269.345 2151.47,-276.238"/>
</g>
<!-- Node42 -->
<g id="node42" class="node"><title>Node42</title>
<polygon fill="none" stroke="#bfbfbf" points="2291.5,-252 2291.5,-271 2321.5,-271 2321.5,-252 2291.5,-252"/>
<text text-anchor="middle" x="2306.5" y="-259" font-family="Helvetica,sans-Serif" font-size="10.00">set</text>
</g>
<!-- Node1&#45;&gt;Node42 -->
<g id="edge81" class="edge"><title>Node1&#45;&gt;Node42</title>
<path fill="none" stroke="midnightblue" d="M1346.26,-326.029C1556.08,-321.144 2193.56,-304.209 2282.5,-277 2283.57,-276.672 2284.64,-276.287 2285.71,-275.856"/>
<polygon fill="midnightblue" stroke="midnightblue" points="2287.58,-278.827 2294.84,-271.115 2284.36,-272.614 2287.58,-278.827"/>
</g>
<!-- Node5&#45;&gt;Node6 -->
<g id="edge5" class="edge"><title>Node5&#45;&gt;Node6</title>
<path fill="none" stroke="midnightblue" d="M2287.4,-181.205C2282.7,-180.44 2278.03,-179.698 2273.5,-179 2163.91,-162.12 2033.43,-145.426 1973.95,-138.002"/>
<polygon fill="midnightblue" stroke="midnightblue" points="1974.04,-134.487 1963.69,-136.725 1973.18,-141.433 1974.04,-134.487"/>
</g>
<!-- Node7 -->
<g id="node7" class="node"><title>Node7</title>
<polygon fill="none" stroke="#bfbfbf" points="1260,-6 1260,-25 1301,-25 1301,-6 1260,-6"/>
<text text-anchor="middle" x="1280.5" y="-13" font-family="Helvetica,sans-Serif" font-size="10.00">string</text>
</g>
<!-- Node5&#45;&gt;Node7 -->
<g id="edge6" class="edge"><title>Node5&#45;&gt;Node7</title>
<path fill="none" stroke="midnightblue" d="M2375.72,-179.245C2392.11,-164.655 2411.74,-141.554 2398.5,-123 2354,-60.6536 2310.69,-81.6079 2235.5,-67 2052.23,-31.3971 1453.96,-19.3748 1311.26,-16.9787"/>
<polygon fill="midnightblue" stroke="midnightblue" points="1311.11,-13.4758 1301.05,-16.8108 1310.99,-20.4749 1311.11,-13.4758"/>
</g>
<!-- Node8 -->
<g id="node8" class="node"><title>Node8</title>
<polygon fill="none" stroke="#bfbfbf" points="2249.5,-123.5 2249.5,-142.5 2389.5,-142.5 2389.5,-123.5 2249.5,-123.5"/>
<text text-anchor="middle" x="2319.5" y="-130.5" font-family="Helvetica,sans-Serif" font-size="10.00">Framework/WorkflowSpec.h</text>
</g>
<!-- Node5&#45;&gt;Node8 -->
<g id="edge7" class="edge"><title>Node5&#45;&gt;Node8</title>
<path fill="none" stroke="midnightblue" d="M2348.49,-179.399C2343.09,-170.932 2336.17,-160.099 2330.45,-151.139"/>
<polygon fill="midnightblue" stroke="midnightblue" points="2333.36,-149.202 2325.03,-142.658 2327.46,-152.97 2333.36,-149.202"/>
</g>
<!-- Node9 -->
<g id="node9" class="node"><title>Node9</title>
<polygon fill="none" stroke="#bfbfbf" points="2029.5,-123.5 2029.5,-142.5 2193.5,-142.5 2193.5,-123.5 2029.5,-123.5"/>
<text text-anchor="middle" x="2111.5" y="-130.5" font-family="Helvetica,sans-Serif" font-size="10.00">Framework/DataProcessorSpec.h</text>
</g>
<!-- Node5&#45;&gt;Node9 -->
<g id="edge8" class="edge"><title>Node5&#45;&gt;Node9</title>
<path fill="none" stroke="midnightblue" d="M2299.51,-179.475C2255.78,-168.896 2196.65,-154.595 2156.46,-144.874"/>
<polygon fill="midnightblue" stroke="midnightblue" points="2157.21,-141.455 2146.67,-142.506 2155.57,-148.259 2157.21,-141.455"/>
</g>
<!-- Node11&#45;&gt;Node6 -->
<g id="edge15" class="edge"><title>Node11&#45;&gt;Node6</title>
<path fill="none" stroke="midnightblue" d="M1431.82,-258.312C1621.04,-252.451 2102.98,-235.117 2126.5,-210 2135.92,-199.944 2135.01,-189.833 2126.5,-179 2107.84,-155.261 2021.61,-142.487 1973.74,-137.117"/>
<polygon fill="midnightblue" stroke="midnightblue" points="1973.9,-133.615 1963.58,-136.025 1973.15,-140.575 1973.9,-133.615"/>
</g>
<!-- Node11&#45;&gt;Node7 -->
<g id="edge13" class="edge"><title>Node11&#45;&gt;Node7</title>
<path fill="none" stroke="midnightblue" d="M1431.84,-259.655C1619.81,-257 2098.87,-246.677 2160.5,-210 2197.4,-188.043 2230.46,-155.587 2202.5,-123 2143.01,-53.6567 1465.23,-23.5895 1311.41,-17.6337"/>
<polygon fill="midnightblue" stroke="midnightblue" points="1311.39,-14.1302 1301.26,-17.2464 1311.12,-21.1252 1311.39,-14.1302"/>
</g>
<!-- Node11&#45;&gt;Node9 -->
<g id="edge22" class="edge"><title>Node11&#45;&gt;Node9</title>
<path fill="none" stroke="midnightblue" d="M1431.73,-258.426C1623.88,-252.765 2119.37,-235.731 2143.5,-210 2159.49,-192.95 2142.07,-166.732 2127.35,-149.977"/>
<polygon fill="midnightblue" stroke="midnightblue" points="2129.86,-147.544 2120.49,-142.594 2124.73,-152.305 2129.86,-147.544"/>
</g>
<!-- Node12 -->
<g id="node12" class="node"><title>Node12</title>
<polygon fill="none" stroke="#bfbfbf" points="730.5,-185 730.5,-204 776.5,-204 776.5,-185 730.5,-185"/>
<text text-anchor="middle" x="753.5" y="-192" font-family="Helvetica,sans-Serif" font-size="10.00">chrono</text>
</g>
<!-- Node11&#45;&gt;Node12 -->
<g id="edge11" class="edge"><title>Node11&#45;&gt;Node12</title>
<path fill="none" stroke="midnightblue" d="M1311.18,-251.949C1298.39,-249.758 1284.43,-247.578 1271.5,-246 1056.5,-219.759 995.375,-263.522 785.5,-210 783.291,-209.437 781.045,-208.729 778.82,-207.931"/>
<polygon fill="midnightblue" stroke="midnightblue" points="779.956,-204.613 769.378,-204.021 777.278,-211.08 779.956,-204.613"/>
</g>
<!-- Node13 -->
<g id="node13" class="node"><title>Node13</title>
<polygon fill="none" stroke="#bfbfbf" points="910.5,-123.5 910.5,-142.5 962.5,-142.5 962.5,-123.5 910.5,-123.5"/>
<text text-anchor="middle" x="936.5" y="-130.5" font-family="Helvetica,sans-Serif" font-size="10.00">memory</text>
</g>
<!-- Node11&#45;&gt;Node13 -->
<g id="edge12" class="edge"><title>Node11&#45;&gt;Node13</title>
<path fill="none" stroke="midnightblue" d="M1311.63,-251.952C1298.72,-249.735 1284.58,-247.54 1271.5,-246 1210.68,-238.841 763.366,-254.696 721.5,-210 712.081,-199.945 712.813,-189.694 721.5,-179 732.728,-165.178 842.029,-147.57 900.311,-139.059"/>
<polygon fill="midnightblue" stroke="midnightblue" points="900.828,-142.52 910.225,-137.627 899.828,-135.592 900.828,-142.52"/>
</g>
<!-- Node14 -->
<g id="node14" class="node"><title>Node14</title>
<polygon fill="none" stroke="#bfbfbf" points="971,-6 971,-25 1006,-25 1006,-6 971,-6"/>
<text text-anchor="middle" x="988.5" y="-13" font-family="Helvetica,sans-Serif" font-size="10.00">map</text>
</g>
<!-- Node11&#45;&gt;Node14 -->
<g id="edge14" class="edge"><title>Node11&#45;&gt;Node14</title>
<path fill="none" stroke="midnightblue" d="M1312.07,-251.994C1299.04,-249.75 1284.74,-247.531 1271.5,-246 1098.48,-225.986 595.236,-285.091 494.5,-143 437.824,-63.0577 848.587,-26.7793 960.728,-18.4288"/>
<polygon fill="midnightblue" stroke="midnightblue" points="961.19,-21.9045 970.909,-17.687 960.681,-14.9231 961.19,-21.9045"/>
</g>
<!-- Node15 -->
<g id="node15" class="node"><title>Node15</title>
<polygon fill="none" stroke="#bfbfbf" points="1020.5,-185 1020.5,-204 1098.5,-204 1098.5,-185 1020.5,-185"/>
<text text-anchor="middle" x="1059.5" y="-192" font-family="Helvetica,sans-Serif" font-size="10.00">unordered_set</text>
</g>
<!-- Node11&#45;&gt;Node15 -->
<g id="edge16" class="edge"><title>Node11&#45;&gt;Node15</title>
<path fill="none" stroke="midnightblue" d="M1307.53,-251.964C1257.1,-242.847 1176.37,-227.345 1107.5,-210 1103.82,-209.074 1100.01,-208.043 1096.21,-206.97"/>
<polygon fill="midnightblue" stroke="midnightblue" points="1096.87,-203.517 1086.29,-204.074 1094.91,-210.236 1096.87,-203.517"/>
</g>
<!-- Node16 -->
<g id="node16" class="node"><title>Node16</title>
<polygon fill="none" stroke="#bfbfbf" points="1254.5,-185 1254.5,-204 1346.5,-204 1346.5,-185 1254.5,-185"/>
<text text-anchor="middle" x="1300.5" y="-192" font-family="Helvetica,sans-Serif" font-size="10.00">Common/Timer.h</text>
</g>
<!-- Node11&#45;&gt;Node16 -->
<g id="edge17" class="edge"><title>Node11&#45;&gt;Node16</title>
<path fill="none" stroke="midnightblue" d="M1348.95,-251.734C1340.22,-241.598 1325.65,-224.69 1314.76,-212.056"/>
<polygon fill="midnightblue" stroke="midnightblue" points="1317.11,-209.419 1307.93,-204.127 1311.81,-213.988 1317.11,-209.419"/>
</g>
<!-- Node17 -->
<g id="node17" class="node"><title>Node17</title>
<polygon fill="none" stroke="#bfbfbf" points="1364.5,-185 1364.5,-204 1462.5,-204 1462.5,-185 1364.5,-185"/>
<text text-anchor="middle" x="1413.5" y="-192" font-family="Helvetica,sans-Serif" font-size="10.00">Framework/Task.h</text>
</g>
<!-- Node11&#45;&gt;Node17 -->
<g id="edge18" class="edge"><title>Node11&#45;&gt;Node17</title>
<path fill="none" stroke="midnightblue" d="M1364.19,-251.734C1373.16,-241.5 1388.19,-224.364 1399.3,-211.692"/>
<polygon fill="midnightblue" stroke="midnightblue" points="1401.97,-213.954 1405.93,-204.127 1396.71,-209.338 1401.97,-213.954"/>
</g>
<!-- Node18 -->
<g id="node18" class="node"><title>Node18</title>
<polygon fill="none" stroke="#bfbfbf" points="1481,-185 1481,-204 1598,-204 1598,-185 1481,-185"/>
<text text-anchor="middle" x="1539.5" y="-192" font-family="Helvetica,sans-Serif" font-size="10.00">Headers/DataHeader.h</text>
</g>
<!-- Node11&#45;&gt;Node18 -->
<g id="edge19" class="edge"><title>Node11&#45;&gt;Node18</title>
<path fill="none" stroke="midnightblue" d="M1380.8,-251.869C1412.88,-240.473 1469.53,-220.353 1505.75,-207.487"/>
<polygon fill="midnightblue" stroke="midnightblue" points="1507.14,-210.709 1515.39,-204.064 1504.8,-204.113 1507.14,-210.709"/>
</g>
<!-- Node19 -->
<g id="node19" class="node"><title>Node19</title>
<polygon fill="none" stroke="#bfbfbf" points="1813,-185 1813,-204 1964,-204 1964,-185 1813,-185"/>
<text text-anchor="middle" x="1888.5" y="-192" font-family="Helvetica,sans-Serif" font-size="10.00">Monitoring/MonitoringFactory.h</text>
</g>
<!-- Node11&#45;&gt;Node19 -->
<g id="edge20" class="edge"><title>Node11&#45;&gt;Node19</title>
<path fill="none" stroke="midnightblue" d="M1431.8,-253.303C1520.78,-244.496 1673.21,-228.458 1803.5,-210 1812.53,-208.72 1822.09,-207.228 1831.39,-205.696"/>
<polygon fill="midnightblue" stroke="midnightblue" points="1832.08,-209.13 1841.37,-204.028 1830.93,-202.226 1832.08,-209.13"/>
</g>
<!-- Node20 -->
<g id="node20" class="node"><title>Node20</title>
<polygon fill="none" stroke="#bfbfbf" points="1982,-179.5 1982,-209.5 2117,-209.5 2117,-179.5 1982,-179.5"/>
<text text-anchor="start" x="1990" y="-197.5" font-family="Helvetica,sans-Serif" font-size="10.00">Configuration/Configuration</text>
<text text-anchor="middle" x="2049.5" y="-186.5" font-family="Helvetica,sans-Serif" font-size="10.00">Interface.h</text>
</g>
<!-- Node11&#45;&gt;Node20 -->
<g id="edge21" class="edge"><title>Node11&#45;&gt;Node20</title>
<path fill="none" stroke="midnightblue" d="M1431.81,-256.935C1546.39,-250.935 1771.51,-236.894 1971.5,-210.189"/>
<polygon fill="midnightblue" stroke="midnightblue" points="1972.16,-213.631 1981.61,-208.826 1971.23,-206.694 1972.16,-213.631"/>
</g>
<!-- Node21 -->
<g id="node21" class="node"><title>Node21</title>
<g id="a_node21"><a xlink:href="CheckInterface_8h.html" target="_top" xlink:title="QualityControl/CheckInterface.h">
<polygon fill="none" stroke="black" points="1095,-123.5 1095,-142.5 1252,-142.5 1252,-123.5 1095,-123.5"/>
<text text-anchor="middle" x="1173.5" y="-130.5" font-family="Helvetica,sans-Serif" font-size="10.00">QualityControl/CheckInterface.h</text>
</a>
</g>
</g>
<!-- Node11&#45;&gt;Node21 -->
<g id="edge23" class="edge"><title>Node11&#45;&gt;Node21</title>
<path fill="none" stroke="midnightblue" d="M1308,-251.956C1296.07,-249.93 1283.34,-247.828 1271.5,-246 1213.85,-237.095 1049.81,-253.982 1011.5,-210 980.99,-174.974 1041.38,-154.937 1096.9,-144.328"/>
<polygon fill="midnightblue" stroke="midnightblue" points="1097.62,-147.755 1106.83,-142.518 1096.36,-140.869 1097.62,-147.755"/>
</g>
<!-- Node24 -->
<g id="node24" class="node"><title>Node24</title>
<g id="a_node24"><a xlink:href="MonitorObject_8h.html" target="_top" xlink:title="QualityControl/MonitorObject.h">
<polygon fill="none" stroke="black" points="809,-67.5 809,-86.5 960,-86.5 960,-67.5 809,-67.5"/>
<text text-anchor="middle" x="884.5" y="-74.5" font-family="Helvetica,sans-Serif" font-size="10.00">QualityControl/MonitorObject.h</text>
</a>
</g>
</g>
<!-- Node11&#45;&gt;Node24 -->
<g id="edge50" class="edge"><title>Node11&#45;&gt;Node24</title>
<path fill="none" stroke="midnightblue" d="M1311.63,-251.942C1298.72,-249.725 1284.58,-247.532 1271.5,-246 1209.57,-238.748 758.008,-251.528 711.5,-210 682.385,-184.003 675.381,-153.689 699.5,-123 712.527,-106.424 758.507,-95.1939 801.364,-88.098"/>
<polygon fill="midnightblue" stroke="midnightblue" points="801.98,-91.5441 811.305,-86.5145 800.879,-84.6312 801.98,-91.5441"/>
</g>
<!-- Node28 -->
<g id="node28" class="node"><title>Node28</title>
<g id="a_node28"><a xlink:href="DatabaseInterface_8h.html" target="_top" xlink:title="QualityControl/DatabaseInterface.h">
<polygon fill="none" stroke="black" points="794.5,-185 794.5,-204 964.5,-204 964.5,-185 794.5,-185"/>
<text text-anchor="middle" x="879.5" y="-192" font-family="Helvetica,sans-Serif" font-size="10.00">QualityControl/DatabaseInterface.h</text>
</a>
</g>
</g>
<!-- Node11&#45;&gt;Node28 -->
<g id="edge38" class="edge"><title>Node11&#45;&gt;Node28</title>
<path fill="none" stroke="midnightblue" d="M1308.91,-251.979C1296.73,-249.909 1283.65,-247.781 1271.5,-246 1141.69,-226.963 1108.53,-227.508 978.5,-210 968.063,-208.595 957.017,-207.042 946.236,-205.49"/>
<polygon fill="midnightblue" stroke="midnightblue" points="946.408,-201.978 936.01,-204.007 945.404,-208.906 946.408,-201.978"/>
</g>
<!-- Node31 -->
<g id="node31" class="node"><title>Node31</title>
<g id="a_node31"><a xlink:href="QcInfoLogger_8h.html" target="_top" xlink:title="QualityControl/QcInfoLogger.h">
<polygon fill="none" stroke="black" points="1550,-123.5 1550,-142.5 1699,-142.5 1699,-123.5 1550,-123.5"/>
<text text-anchor="middle" x="1624.5" y="-130.5" font-family="Helvetica,sans-Serif" font-size="10.00">QualityControl/QcInfoLogger.h</text>
</a>
</g>
</g>
<!-- Node11&#45;&gt;Node31 -->
<g id="edge51" class="edge"><title>Node11&#45;&gt;Node31</title>
<path fill="none" stroke="midnightblue" d="M1431.7,-254.339C1496.34,-247.482 1582.92,-234.056 1607.5,-210 1622.64,-195.183 1625.62,-170.035 1625.65,-152.751"/>
<polygon fill="midnightblue" stroke="midnightblue" points="1629.14,-152.605 1625.34,-142.717 1622.15,-152.82 1629.14,-152.605"/>
</g>
<!-- Node34 -->
<g id="node34" class="node"><title>Node34</title>
<g id="a_node34"><a xlink:href="Check_8h_source.html" target="_top" xlink:title="QualityControl/Check.h">
<polygon fill="none" stroke="black" points="1117,-185 1117,-204 1236,-204 1236,-185 1117,-185"/>
<text text-anchor="middle" x="1176.5" y="-192" font-family="Helvetica,sans-Serif" font-size="10.00">QualityControl/Check.h</text>
</a>
</g>
</g>
<!-- Node11&#45;&gt;Node34 -->
<g id="edge54" class="edge"><title>Node11&#45;&gt;Node34</title>
<path fill="none" stroke="midnightblue" d="M1332.6,-251.869C1301.04,-240.473 1245.32,-220.353 1209.69,-207.487"/>
<polygon fill="midnightblue" stroke="midnightblue" points="1210.81,-204.168 1200.21,-204.064 1208.43,-210.752 1210.81,-204.168"/>
</g>
<!-- Node37 -->
<g id="node37" class="node"><title>Node37</title>
<g id="a_node37"><a xlink:href="UpdatePolicyManager_8h.html" target="_top" xlink:title="QualityControl/UpdatePolicy\lManager.h">
<polygon fill="none" stroke="black" points="1654.5,-179.5 1654.5,-209.5 1794.5,-209.5 1794.5,-179.5 1654.5,-179.5"/>
<text text-anchor="start" x="1662.5" y="-197.5" font-family="Helvetica,sans-Serif" font-size="10.00">QualityControl/UpdatePolicy</text>
<text text-anchor="middle" x="1724.5" y="-186.5" font-family="Helvetica,sans-Serif" font-size="10.00">Manager.h</text>
</a>
</g>
</g>
<!-- Node11&#45;&gt;Node37 -->
<g id="edge69" class="edge"><title>Node11&#45;&gt;Node37</title>
<path fill="none" stroke="midnightblue" d="M1404.99,-251.936C1465.94,-241.169 1571.42,-222.539 1644.42,-209.644"/>
<polygon fill="midnightblue" stroke="midnightblue" points="1645.26,-213.051 1654.5,-207.864 1644.04,-206.157 1645.26,-213.051"/>
</g>
<!-- Node21&#45;&gt;Node7 -->
<g id="edge24" class="edge"><title>Node21&#45;&gt;Node7</title>
<path fill="none" stroke="midnightblue" d="M1181.54,-123.319C1199.36,-104.088 1242.39,-57.641 1265.39,-32.8054"/>
<polygon fill="midnightblue" stroke="midnightblue" points="1268.14,-34.9965 1272.36,-25.282 1263,-30.2393 1268.14,-34.9965"/>
</g>
<!-- Node21&#45;&gt;Node14 -->
<g id="edge25" class="edge"><title>Node21&#45;&gt;Node14</title>
<path fill="none" stroke="midnightblue" d="M1172.22,-123.078C1169.76,-109.137 1163.05,-82.2142 1146.5,-67 1141.56,-62.4561 1059.92,-37.7194 1015.99,-24.6313"/>
<polygon fill="midnightblue" stroke="midnightblue" points="1016.79,-21.2185 1006.21,-21.7245 1014.8,-27.9284 1016.79,-21.2185"/>
</g>
<!-- Node22 -->
<g id="node22" class="node"><title>Node22</title>
<polygon fill="none" stroke="#bfbfbf" points="1312,-67.5 1312,-86.5 1395,-86.5 1395,-67.5 1312,-67.5"/>
<text text-anchor="middle" x="1353.5" y="-74.5" font-family="Helvetica,sans-Serif" font-size="10.00">unordered_map</text>
</g>
<!-- Node21&#45;&gt;Node22 -->
<g id="edge26" class="edge"><title>Node21&#45;&gt;Node22</title>
<path fill="none" stroke="midnightblue" d="M1202.02,-123.444C1232.57,-114.28 1281.21,-99.6876 1315.1,-89.5192"/>
<polygon fill="midnightblue" stroke="midnightblue" points="1316.54,-92.7424 1325.11,-86.5164 1314.53,-86.0376 1316.54,-92.7424"/>
</g>
<!-- Node23 -->
<g id="node23" class="node"><title>Node23</title>
<polygon fill="none" stroke="#bfbfbf" points="1049.5,-6 1049.5,-25 1105.5,-25 1105.5,-6 1049.5,-6"/>
<text text-anchor="middle" x="1077.5" y="-13" font-family="Helvetica,sans-Serif" font-size="10.00">Rtypes.h</text>
</g>
<!-- Node21&#45;&gt;Node23 -->
<g id="edge27" class="edge"><title>Node21&#45;&gt;Node23</title>
<path fill="none" stroke="midnightblue" d="M1177.66,-123.24C1183.28,-109.987 1191.43,-84.5294 1180.5,-67 1166.37,-44.3286 1138.76,-31.5506 1115.69,-24.5228"/>
<polygon fill="midnightblue" stroke="midnightblue" points="1116.37,-21.0801 1105.8,-21.7672 1114.49,-27.8231 1116.37,-21.0801"/>
</g>
<!-- Node21&#45;&gt;Node24 -->
<g id="edge28" class="edge"><title>Node21&#45;&gt;Node24</title>
<path fill="none" stroke="midnightblue" d="M1127.71,-123.444C1076.76,-113.925 994.466,-98.5472 939.926,-88.3563"/>
<polygon fill="midnightblue" stroke="midnightblue" points="940.551,-84.9128 930.079,-86.5164 939.266,-91.7937 940.551,-84.9128"/>
</g>
<!-- Node27 -->
<g id="node27" class="node"><title>Node27</title>
<g id="a_node27"><a xlink:href="Quality_8h.html" target="_top" xlink:title="QualityControl/Quality.h">
<polygon fill="none" stroke="black" points="1017,-67.5 1017,-86.5 1138,-86.5 1138,-67.5 1017,-67.5"/>
<text text-anchor="middle" x="1077.5" y="-74.5" font-family="Helvetica,sans-Serif" font-size="10.00">QualityControl/Quality.h</text>
</a>
</g>
</g>
<!-- Node21&#45;&gt;Node27 -->
<g id="edge34" class="edge"><title>Node21&#45;&gt;Node27</title>
<path fill="none" stroke="midnightblue" d="M1158.08,-123.324C1142.96,-114.822 1119.68,-101.729 1102.03,-91.7975"/>
<polygon fill="midnightblue" stroke="midnightblue" points="1103.32,-88.5066 1092.89,-86.6545 1099.89,-94.6077 1103.32,-88.5066"/>
</g>
<!-- Node24&#45;&gt;Node7 -->
<g id="edge29" class="edge"><title>Node24&#45;&gt;Node7</title>
<path fill="none" stroke="midnightblue" d="M941.237,-67.4751C1026.12,-54.7212 1183.28,-31.108 1249.64,-21.1362"/>
<polygon fill="midnightblue" stroke="midnightblue" points="1250.49,-24.549 1259.86,-19.6019 1249.45,-17.6267 1250.49,-24.549"/>
</g>
<!-- Node24&#45;&gt;Node14 -->
<g id="edge30" class="edge"><title>Node24&#45;&gt;Node14</title>
<path fill="none" stroke="midnightblue" d="M899.401,-67.4751C916.468,-57.7106 944.661,-41.5807 964.762,-30.0808"/>
<polygon fill="midnightblue" stroke="midnightblue" points="966.685,-33.013 973.627,-25.0091 963.209,-26.9371 966.685,-33.013"/>
</g>
<!-- Node24&#45;&gt;Node23 -->
<g id="edge31" class="edge"><title>Node24&#45;&gt;Node23</title>
<path fill="none" stroke="midnightblue" d="M912.152,-67.4751C945.688,-57.1362 1002.37,-39.6611 1039.87,-28.1017"/>
<polygon fill="midnightblue" stroke="midnightblue" points="1041.37,-31.2999 1049.9,-25.0091 1039.31,-24.6106 1041.37,-31.2999"/>
</g>
<!-- Node25 -->
<g id="node25" class="node"><title>Node25</title>
<polygon fill="none" stroke="#bfbfbf" points="755,-6 755,-25 814,-25 814,-6 755,-6"/>
<text text-anchor="middle" x="784.5" y="-13" font-family="Helvetica,sans-Serif" font-size="10.00">TObject.h</text>
</g>
<!-- Node24&#45;&gt;Node25 -->
<g id="edge32" class="edge"><title>Node24&#45;&gt;Node25</title>
<path fill="none" stroke="midnightblue" d="M870.172,-67.4751C853.836,-57.7548 826.898,-41.7266 807.588,-30.2372"/>
<polygon fill="midnightblue" stroke="midnightblue" points="809.185,-27.1146 798.801,-25.0091 805.605,-33.1303 809.185,-27.1146"/>
</g>
<!-- Node26 -->
<g id="node26" class="node"><title>Node26</title>
<polygon fill="none" stroke="#bfbfbf" points="501.5,-6 501.5,-25 617.5,-25 617.5,-6 501.5,-6"/>
<text text-anchor="middle" x="559.5" y="-13" font-family="Helvetica,sans-Serif" font-size="10.00">Common/Exceptions.h</text>
</g>
<!-- Node24&#45;&gt;Node26 -->
<g id="edge33" class="edge"><title>Node24&#45;&gt;Node26</title>
<path fill="none" stroke="midnightblue" d="M837.935,-67.4751C779.411,-56.7606 679.024,-38.3821 616.121,-26.8661"/>
<polygon fill="midnightblue" stroke="midnightblue" points="616.445,-23.3672 605.978,-25.0091 615.184,-30.2528 616.445,-23.3672"/>
</g>
<!-- Node27&#45;&gt;Node7 -->
<g id="edge36" class="edge"><title>Node27&#45;&gt;Node7</title>
<path fill="none" stroke="midnightblue" d="M1106.58,-67.4751C1144.73,-56.2956 1211.34,-36.7722 1250.11,-25.4065"/>
<polygon fill="midnightblue" stroke="midnightblue" points="1251.19,-28.7382 1259.8,-22.5667 1249.22,-22.0208 1251.19,-28.7382"/>
</g>
<!-- Node27&#45;&gt;Node14 -->
<g id="edge37" class="edge"><title>Node27&#45;&gt;Node14</title>
<path fill="none" stroke="midnightblue" d="M1064.75,-67.4751C1050.47,-57.9315 1027.1,-42.3073 1009.99,-30.8683"/>
<polygon fill="midnightblue" stroke="midnightblue" points="1011.49,-27.6572 1001.23,-25.0091 1007.6,-33.4766 1011.49,-27.6572"/>
</g>
<!-- Node27&#45;&gt;Node23 -->
<g id="edge35" class="edge"><title>Node27&#45;&gt;Node23</title>
<path fill="none" stroke="midnightblue" d="M1077.5,-67.4751C1077.5,-59.0803 1077.5,-45.9806 1077.5,-35.1631"/>
<polygon fill="midnightblue" stroke="midnightblue" points="1081,-35.0091 1077.5,-25.0091 1074,-35.0091 1081,-35.0091"/>
</g>
<!-- Node28&#45;&gt;Node6 -->
<g id="edge41" class="edge"><title>Node28&#45;&gt;Node6</title>
<path fill="none" stroke="midnightblue" d="M949.64,-184.965C969.604,-182.762 991.389,-180.571 1011.5,-179 1354.83,-152.185 1441.59,-160.918 1785.5,-143 1828.15,-140.778 1877.34,-137.885 1908.9,-135.987"/>
<polygon fill="midnightblue" stroke="midnightblue" points="1909.52,-139.456 1919.29,-135.36 1909.09,-132.469 1909.52,-139.456"/>
</g>
<!-- Node28&#45;&gt;Node7 -->
<g id="edge39" class="edge"><title>Node28&#45;&gt;Node7</title>
<path fill="none" stroke="midnightblue" d="M952.102,-184.982C1061.11,-172.037 1255.01,-148.35 1260.5,-143 1289.46,-114.756 1287.36,-62.7664 1283.72,-35.047"/>
<polygon fill="midnightblue" stroke="midnightblue" points="1287.17,-34.4566 1282.2,-25.0974 1280.25,-35.5103 1287.17,-34.4566"/>
</g>
<!-- Node28&#45;&gt;Node13 -->
<g id="edge40" class="edge"><title>Node28&#45;&gt;Node13</title>
<path fill="none" stroke="midnightblue" d="M887.667,-184.975C896.386,-175.873 910.404,-161.241 921.189,-149.983"/>
<polygon fill="midnightblue" stroke="midnightblue" points="923.958,-152.151 928.348,-142.509 918.903,-147.309 923.958,-152.151"/>
</g>
<!-- Node28&#45;&gt;Node22 -->
<g id="edge42" class="edge"><title>Node28&#45;&gt;Node22</title>
<path fill="none" stroke="midnightblue" d="M954.885,-184.999C1072.48,-171.645 1287.03,-146.866 1294.5,-143 1315.57,-132.098 1332.84,-110.416 1343.13,-95.0975"/>
<polygon fill="midnightblue" stroke="midnightblue" points="1346.17,-96.8449 1348.61,-86.5355 1340.27,-93.0714 1346.17,-96.8449"/>
</g>
<!-- Node28&#45;&gt;Node24 -->
<g id="edge49" class="edge"><title>Node28&#45;&gt;Node24</title>
<path fill="none" stroke="midnightblue" d="M879.876,-184.819C880.679,-166.257 882.581,-122.339 883.679,-96.9734"/>
<polygon fill="midnightblue" stroke="midnightblue" points="887.184,-96.9241 884.12,-86.782 880.191,-96.6212 887.184,-96.9241"/>
</g>
<!-- Node29 -->
<g id="node29" class="node"><title>Node29</title>
<polygon fill="none" stroke="#bfbfbf" points="708.5,-123.5 708.5,-142.5 854.5,-142.5 854.5,-123.5 708.5,-123.5"/>
<text text-anchor="middle" x="781.5" y="-130.5" font-family="Helvetica,sans-Serif" font-size="10.00">Framework/ServiceRegistry.h</text>
</g>
<!-- Node28&#45;&gt;Node29 -->
<g id="edge43" class="edge"><title>Node28&#45;&gt;Node29</title>
<path fill="none" stroke="midnightblue" d="M865.459,-184.975C849.449,-175.255 823.05,-159.227 804.126,-147.737"/>
<polygon fill="midnightblue" stroke="midnightblue" points="805.879,-144.707 795.515,-142.509 802.246,-150.691 805.879,-144.707"/>
</g>
<!-- Node28&#45;&gt;Node30 -->
<g id="edge44" class="edge"><title>Node28&#45;&gt;Node30</title>
<path fill="none" stroke="midnightblue" d="M836.374,-184.975C782.395,-174.305 689.964,-156.034 631.663,-144.509"/>
<polygon fill="midnightblue" stroke="midnightblue" points="632.035,-141.015 621.546,-142.509 630.677,-147.882 632.035,-141.015"/>
</g>
<!-- Node30&#45;&gt;Node14 -->
<g id="edge45" class="edge"><title>Node30&#45;&gt;Node14</title>
<path fill="none" stroke="midnightblue" d="M606.693,-123.463C648.637,-110.818 729.997,-86.5032 799.5,-67 856.644,-50.9648 923.841,-33.2901 960.739,-23.6861"/>
<polygon fill="midnightblue" stroke="midnightblue" points="961.942,-26.9896 970.741,-21.0872 960.182,-20.2145 961.942,-26.9896"/>
</g>
<!-- Node30&#45;&gt;Node25 -->
<g id="edge46" class="edge"><title>Node30&#45;&gt;Node25</title>
<path fill="none" stroke="midnightblue" d="M593.983,-123.319C629.563,-103.37 717.374,-54.1364 760.212,-30.1178"/>
<polygon fill="midnightblue" stroke="midnightblue" points="762.107,-33.0679 769.118,-25.1245 758.684,-26.9622 762.107,-33.0679"/>
</g>
<!-- Node30&#45;&gt;Node26 -->
<g id="edge47" class="edge"><title>Node30&#45;&gt;Node26</title>
<path fill="none" stroke="midnightblue" d="M577.072,-123.319C574.018,-104.757 566.794,-60.8391 562.621,-35.4734"/>
<polygon fill="midnightblue" stroke="midnightblue" points="566.022,-34.5812 560.945,-25.282 559.114,-35.7175 566.022,-34.5812"/>
</g>
<!-- Node30&#45;&gt;Node27 -->
<g id="edge48" class="edge"><title>Node30&#45;&gt;Node27</title>
<path fill="none" stroke="midnightblue" d="M653.205,-123.916C748.823,-113.568 913.271,-95.7723 1006.88,-85.6424"/>
<polygon fill="midnightblue" stroke="midnightblue" points="1007.26,-89.122 1016.82,-84.5663 1006.5,-82.1626 1007.26,-89.122"/>
</g>
<!-- Node32 -->
<g id="node32" class="node"><title>Node32</title>
<polygon fill="none" stroke="#bfbfbf" points="1462.5,-67.5 1462.5,-86.5 1592.5,-86.5 1592.5,-67.5 1462.5,-67.5"/>
<text text-anchor="middle" x="1527.5" y="-74.5" font-family="Helvetica,sans-Serif" font-size="10.00">InfoLogger/InfoLogger.hxx</text>
</g>
<!-- Node31&#45;&gt;Node32 -->
<g id="edge52" class="edge"><title>Node31&#45;&gt;Node32</title>
<path fill="none" stroke="midnightblue" d="M1608.92,-123.324C1593.5,-114.743 1569.69,-101.486 1551.79,-91.5224"/>
<polygon fill="midnightblue" stroke="midnightblue" points="1553.49,-88.4606 1543.05,-86.6545 1550.08,-94.5767 1553.49,-88.4606"/>
</g>
<!-- Node33 -->
<g id="node33" class="node"><title>Node33</title>
<polygon fill="none" stroke="#bfbfbf" points="1610.5,-67.5 1610.5,-86.5 1772.5,-86.5 1772.5,-67.5 1610.5,-67.5"/>
<text text-anchor="middle" x="1691.5" y="-74.5" font-family="Helvetica,sans-Serif" font-size="10.00">InfoLogger/InfoLoggerMacros.hxx</text>
</g>
<!-- Node31&#45;&gt;Node33 -->
<g id="edge53" class="edge"><title>Node31&#45;&gt;Node33</title>
<path fill="none" stroke="midnightblue" d="M1635.26,-123.324C1645.27,-115.263 1660.39,-103.077 1672.43,-93.3695"/>
<polygon fill="midnightblue" stroke="midnightblue" points="1674.95,-95.8343 1680.54,-86.8339 1670.56,-90.3841 1674.95,-95.8343"/>
</g>
<!-- Node34&#45;&gt;Node6 -->
<g id="edge57" class="edge"><title>Node34&#45;&gt;Node6</title>
<path fill="none" stroke="midnightblue" d="M1212.14,-184.998C1222.82,-182.727 1234.58,-180.492 1245.5,-179 1278.72,-174.459 1775.6,-144.082 1908.84,-135.982"/>
<polygon fill="midnightblue" stroke="midnightblue" points="1909.42,-139.453 1919.19,-135.352 1909,-132.465 1909.42,-139.453"/>
</g>
<!-- Node34&#45;&gt;Node9 -->
<g id="edge60" class="edge"><title>Node34&#45;&gt;Node9</title>
<path fill="none" stroke="midnightblue" d="M1211.77,-184.97C1222.54,-182.669 1234.45,-180.425 1245.5,-179 1566.35,-137.606 1649.52,-161.452 1972.5,-143 1987.55,-142.14 2003.52,-141.165 2019.06,-140.182"/>
<polygon fill="midnightblue" stroke="midnightblue" points="2019.44,-143.665 2029.19,-139.537 2018.99,-136.68 2019.44,-143.665"/>
</g>
<!-- Node34&#45;&gt;Node13 -->
<g id="edge58" class="edge"><title>Node34&#45;&gt;Node13</title>
<path fill="none" stroke="midnightblue" d="M1142.11,-184.975C1097.05,-173.802 1018.36,-154.295 972.507,-142.927"/>
<polygon fill="midnightblue" stroke="midnightblue" points="973.243,-139.503 962.695,-140.494 971.559,-146.298 973.243,-139.503"/>
</g>
<!-- Node34&#45;&gt;Node14 -->
<g id="edge56" class="edge"><title>Node34&#45;&gt;Node14</title>
<path fill="none" stroke="midnightblue" d="M1149.87,-184.935C1111.41,-171.052 1041.22,-139.738 1007.5,-87 997.487,-71.3411 992.711,-50.4923 990.458,-35.5355"/>
<polygon fill="midnightblue" stroke="midnightblue" points="993.907,-34.9126 989.182,-25.43 986.962,-35.7897 993.907,-34.9126"/>
</g>
<!-- Node34&#45;&gt;Node21 -->
<g id="edge64" class="edge"><title>Node34&#45;&gt;Node21</title>
<path fill="none" stroke="midnightblue" d="M1176.07,-184.975C1175.65,-176.58 1174.99,-163.481 1174.44,-152.663"/>
<polygon fill="midnightblue" stroke="midnightblue" points="1177.93,-152.32 1173.93,-142.509 1170.94,-152.673 1177.93,-152.32"/>
</g>
<!-- Node34&#45;&gt;Node22 -->
<g id="edge59" class="edge"><title>Node34&#45;&gt;Node22</title>
<path fill="none" stroke="midnightblue" d="M1216.44,-184.932C1256.98,-175.494 1316.05,-159.46 1332.5,-143 1344.67,-130.822 1349.79,-111.55 1351.94,-97.1478"/>
<polygon fill="midnightblue" stroke="midnightblue" points="1355.46,-97.2013 1353.11,-86.8701 1348.5,-96.411 1355.46,-97.2013"/>
</g>
<!-- Node34&#45;&gt;Node24 -->
<g id="edge63" class="edge"><title>Node34&#45;&gt;Node24</title>
<path fill="none" stroke="midnightblue" d="M1143.69,-184.951C1110.57,-175.935 1058.22,-160.611 1014.5,-143 994.243,-134.84 941.947,-107.999 910.199,-91.4688"/>
<polygon fill="midnightblue" stroke="midnightblue" points="911.548,-88.2254 901.064,-86.702 908.31,-94.4313 911.548,-88.2254"/>
</g>
<!-- Node34&#45;&gt;Node27 -->
<g id="edge61" class="edge"><title>Node34&#45;&gt;Node27</title>
<path fill="none" stroke="midnightblue" d="M1146.53,-184.871C1125.9,-177.297 1099.74,-164.122 1085.5,-143 1076.46,-129.596 1075,-111.03 1075.48,-97.171"/>
<polygon fill="midnightblue" stroke="midnightblue" points="1078.99,-97.078 1076.22,-86.8531 1072.01,-96.5768 1078.99,-97.078"/>
</g>
<!-- Node34&#45;&gt;Node30 -->
<g id="edge62" class="edge"><title>Node34&#45;&gt;Node30</title>
<path fill="none" stroke="midnightblue" d="M1140.12,-184.987C1129.64,-182.77 1118.16,-180.567 1107.5,-179 1064.82,-172.725 801.717,-151.566 663.36,-140.646"/>
<polygon fill="midnightblue" stroke="midnightblue" points="663.457,-137.142 653.213,-139.845 662.907,-144.121 663.457,-137.142"/>
</g>
<!-- Node34&#45;&gt;Node31 -->
<g id="edge65" class="edge"><title>Node34&#45;&gt;Node31</title>
<path fill="none" stroke="midnightblue" d="M1213.99,-184.989C1224.18,-182.85 1235.23,-180.685 1245.5,-179 1273.78,-174.359 1436.9,-155.442 1539.71,-143.662"/>
<polygon fill="midnightblue" stroke="midnightblue" points="1540.24,-147.125 1549.78,-142.51 1539.44,-140.17 1540.24,-147.125"/>
</g>
<!-- Node35 -->
<g id="node35" class="node"><title>Node35</title>
<polygon fill="none" stroke="#bfbfbf" points="1717,-123.5 1717,-142.5 1776,-142.5 1776,-123.5 1717,-123.5"/>
<text text-anchor="middle" x="1746.5" y="-130.5" font-family="Helvetica,sans-Serif" font-size="10.00">functional</text>
</g>
<!-- Node34&#45;&gt;Node35 -->
<g id="edge55" class="edge"><title>Node34&#45;&gt;Node35</title>
<path fill="none" stroke="midnightblue" d="M1212.87,-184.937C1223.35,-182.719 1234.84,-180.528 1245.5,-179 1446.52,-150.187 1502.77,-174.083 1706.58,-143.083"/>
<polygon fill="midnightblue" stroke="midnightblue" points="1707.37,-146.503 1716.72,-141.515 1706.3,-139.585 1707.37,-146.503"/>
</g>
<!-- Node36 -->
<g id="node36" class="node"><title>Node36</title>
<g id="a_node36"><a xlink:href="CheckConfig_8h.html" target="_top" xlink:title="QualityControl/CheckConfig.h">
<polygon fill="none" stroke="black" points="1385,-123.5 1385,-142.5 1532,-142.5 1532,-123.5 1385,-123.5"/>
<text text-anchor="middle" x="1458.5" y="-130.5" font-family="Helvetica,sans-Serif" font-size="10.00">QualityControl/CheckConfig.h</text>
</a>
</g>
</g>
<!-- Node34&#45;&gt;Node36 -->
<g id="edge66" class="edge"><title>Node34&#45;&gt;Node36</title>
<path fill="none" stroke="midnightblue" d="M1216.9,-184.975C1267.37,-174.327 1353.71,-156.109 1408.35,-144.581"/>
<polygon fill="midnightblue" stroke="midnightblue" points="1409.11,-147.998 1418.17,-142.509 1407.66,-141.149 1409.11,-147.998"/>
</g>
<!-- Node36&#45;&gt;Node7 -->
<g id="edge67" class="edge"><title>Node36&#45;&gt;Node7</title>
<path fill="none" stroke="midnightblue" d="M1453.11,-123.265C1444.28,-109.581 1425.49,-83.0039 1403.5,-67 1375.16,-46.3762 1337.16,-32.4513 1310.94,-24.5344"/>
<polygon fill="midnightblue" stroke="midnightblue" points="1311.75,-21.1245 1301.17,-21.6976 1309.8,-27.847 1311.75,-21.1245"/>
</g>
<!-- Node36&#45;&gt;Node22 -->
<g id="edge68" class="edge"><title>Node36&#45;&gt;Node22</title>
<path fill="none" stroke="midnightblue" d="M1441.63,-123.324C1424.79,-114.664 1398.69,-101.242 1379.26,-91.249"/>
<polygon fill="midnightblue" stroke="midnightblue" points="1380.82,-88.1155 1370.33,-86.6545 1377.62,-94.3405 1380.82,-88.1155"/>
</g>
<!-- Node37&#45;&gt;Node6 -->
<g id="edge72" class="edge"><title>Node37&#45;&gt;Node6</title>
<path fill="none" stroke="midnightblue" d="M1775.65,-179.475C1817.16,-168.092 1874.39,-152.4 1909.62,-142.742"/>
<polygon fill="midnightblue" stroke="midnightblue" points="1910.65,-146.087 1919.37,-140.068 1908.8,-139.337 1910.65,-146.087"/>
</g>
<!-- Node37&#45;&gt;Node7 -->
<g id="edge70" class="edge"><title>Node37&#45;&gt;Node7</title>
<path fill="none" stroke="midnightblue" d="M1772.62,-179.382C1790.24,-171.626 1808.33,-160.013 1818.5,-143 1835.83,-114.009 1841.24,-91.9756 1818.5,-67 1784.19,-29.3188 1420.53,-19.2221 1311.33,-17.0301"/>
<polygon fill="midnightblue" stroke="midnightblue" points="1311.07,-13.5246 1301.01,-16.8315 1310.94,-20.5233 1311.07,-13.5246"/>
</g>
<!-- Node37&#45;&gt;Node14 -->
<g id="edge71" class="edge"><title>Node37&#45;&gt;Node14</title>
<path fill="none" stroke="midnightblue" d="M1750.64,-179.371C1763.71,-170.757 1778.24,-158.427 1785.5,-143 1793.21,-126.601 1797.19,-82.333 1781.5,-67 1722.55,-9.38002 1121.87,-44.1523 1040.5,-31 1032.39,-29.6899 1023.75,-27.5783 1015.88,-25.3672"/>
<polygon fill="midnightblue" stroke="midnightblue" points="1016.67,-21.9528 1006.09,-22.4623 1014.68,-28.6633 1016.67,-21.9528"/>
</g>
<!-- Node37&#45;&gt;Node35 -->
<g id="edge73" class="edge"><title>Node37&#45;&gt;Node35</title>
<path fill="none" stroke="midnightblue" d="M1729.71,-179.399C1732.71,-171.288 1736.51,-161.007 1739.74,-152.281"/>
<polygon fill="midnightblue" stroke="midnightblue" points="1743.11,-153.251 1743.3,-142.658 1736.55,-150.823 1743.11,-153.251"/>
</g>
<!-- Node38&#45;&gt;Node7 -->
<g id="edge76" class="edge"><title>Node38&#45;&gt;Node7</title>
<path fill="none" stroke="midnightblue" d="M507.143,-71.9006C629.326,-64.4988 892.559,-48.0785 1114.5,-31 1161.74,-27.3649 1216.48,-22.4464 1249.78,-19.3743"/>
<polygon fill="midnightblue" stroke="midnightblue" points="1250.17,-22.8533 1259.81,-18.4458 1249.53,-15.8831 1250.17,-22.8533"/>
</g>
<!-- Node38&#45;&gt;Node26 -->
<g id="edge78" class="edge"><title>Node38&#45;&gt;Node26</title>
<path fill="none" stroke="midnightblue" d="M455.836,-67.4751C476.053,-57.5338 509.687,-40.9947 533.142,-29.461"/>
<polygon fill="midnightblue" stroke="midnightblue" points="534.767,-32.5627 542.196,-25.0091 531.678,-26.281 534.767,-32.5627"/>
</g>
<!-- Node39 -->
<g id="node39" class="node"><title>Node39</title>
<polygon fill="none" stroke="#bfbfbf" points="348,-0.5 348,-30.5 483,-30.5 483,-0.5 348,-0.5"/>
<text text-anchor="start" x="356" y="-18.5" font-family="Helvetica,sans-Serif" font-size="10.00">Configuration/Configuration</text>
<text text-anchor="middle" x="415.5" y="-7.5" font-family="Helvetica,sans-Serif" font-size="10.00">Factory.h</text>
</g>
<!-- Node38&#45;&gt;Node39 -->
<g id="edge77" class="edge"><title>Node38&#45;&gt;Node39</title>
<path fill="none" stroke="midnightblue" d="M435.205,-67.4751C432.439,-60.3204 428.352,-49.7483 424.617,-40.0841"/>
<polygon fill="midnightblue" stroke="midnightblue" points="427.791,-38.5884 420.921,-30.523 421.262,-41.1123 427.791,-38.5884"/>
</g>
</g>
</svg>
