<?xml version="1.0" encoding="UTF-8" standalone="no"?>
<!DOCTYPE svg PUBLIC "-//W3C//DTD SVG 1.1//EN"
 "http://www.w3.org/Graphics/SVG/1.1/DTD/svg11.dtd">
<!-- Generated by graphviz version 2.38.0 (20140413.2041)
 -->
<!-- Title: Framework/test/testPolicyManager.cxx Pages: 1 -->
<svg width="693pt" height="162pt"
 viewBox="0.00 0.00 693.00 162.00" xmlns="http://www.w3.org/2000/svg" xmlns:xlink="http://www.w3.org/1999/xlink">
<g id="graph0" class="graph" transform="scale(1 1) rotate(0) translate(4 158)">
<title>Framework/test/testPolicyManager.cxx</title>
<!-- Node1 -->
<g id="node1" class="node"><title>Node1</title>
<polygon fill="#bfbfbf" stroke="black" points="356,-123.5 356,-153.5 487,-153.5 487,-123.5 356,-123.5"/>
<text text-anchor="start" x="364" y="-141.5" font-family="Helvetica,sans-Serif" font-size="10.00">Framework/test/testPolicy</text>
<text text-anchor="middle" x="421.5" y="-130.5" font-family="Helvetica,sans-Serif" font-size="10.00">Manager.cxx</text>
</g>
<!-- Node2 -->
<g id="node2" class="node"><title>Node2</title>
<g id="a_node2"><a xlink:href="UpdatePolicyManager_8h.html" target="_top" xlink:title="QualityControl/UpdatePolicy\lManager.h">
<polygon fill="none" stroke="black" points="35.5,-56.5 35.5,-86.5 175.5,-86.5 175.5,-56.5 35.5,-56.5"/>
<text text-anchor="start" x="43.5" y="-74.5" font-family="Helvetica,sans-Serif" font-size="10.00">QualityControl/UpdatePolicy</text>
<text text-anchor="middle" x="105.5" y="-63.5" font-family="Helvetica,sans-Serif" font-size="10.00">Manager.h</text>
</a>
</g>
</g>
<!-- Node1&#45;&gt;Node2 -->
<g id="edge1" class="edge"><title>Node1&#45;&gt;Node2</title>
<path fill="none" stroke="midnightblue" d="M355.641,-123.953C305.597,-113.659 236.597,-99.4661 183.739,-88.5936"/>
<polygon fill="midnightblue" stroke="midnightblue" points="184.23,-85.1213 173.73,-86.5347 182.82,-91.9778 184.23,-85.1213"/>
</g>
<!-- Node7 -->
<g id="node7" class="node"><title>Node7</title>
<polygon fill="none" stroke="#bfbfbf" points="194,-62 194,-81 345,-81 345,-62 194,-62"/>
<text text-anchor="middle" x="269.5" y="-69" font-family="Helvetica,sans-Serif" font-size="10.00">DataSampling/DataSampling.h</text>
</g>
<!-- Node1&#45;&gt;Node7 -->
<g id="edge6" class="edge"><title>Node1&#45;&gt;Node7</title>
<path fill="none" stroke="midnightblue" d="M388.518,-123.396C361.73,-111.941 324.31,-95.9385 298.619,-84.9521"/>
<polygon fill="midnightblue" stroke="midnightblue" points="299.964,-81.7208 289.393,-81.007 297.212,-88.1571 299.964,-81.7208"/>
</g>
<!-- Node8 -->
<g id="node8" class="node"><title>Node8</title>
<polygon fill="none" stroke="#bfbfbf" points="363.5,-62 363.5,-81 479.5,-81 479.5,-62 363.5,-62"/>
<text text-anchor="middle" x="421.5" y="-69" font-family="Helvetica,sans-Serif" font-size="10.00">Common/Exceptions.h</text>
</g>
<!-- Node1&#45;&gt;Node8 -->
<g id="edge7" class="edge"><title>Node1&#45;&gt;Node8</title>
<path fill="none" stroke="midnightblue" d="M421.5,-123.396C421.5,-114.064 421.5,-101.714 421.5,-91.5173"/>
<polygon fill="midnightblue" stroke="midnightblue" points="425,-91.1945 421.5,-81.1945 418,-91.1946 425,-91.1945"/>
</g>
<!-- Node9 -->
<g id="node9" class="node"><title>Node9</title>
<polygon fill="none" stroke="#bfbfbf" points="497.5,-62 497.5,-81 547.5,-81 547.5,-62 497.5,-62"/>
<text text-anchor="middle" x="522.5" y="-69" font-family="Helvetica,sans-Serif" font-size="10.00">TH1F.h</text>
</g>
<!-- Node1&#45;&gt;Node9 -->
<g id="edge8" class="edge"><title>Node1&#45;&gt;Node9</title>
<path fill="none" stroke="midnightblue" d="M443.415,-123.396C460.353,-112.496 483.687,-97.4787 500.616,-86.5835"/>
<polygon fill="midnightblue" stroke="midnightblue" points="502.766,-89.362 509.281,-81.007 498.978,-83.4756 502.766,-89.362"/>
</g>
<!-- Node10 -->
<g id="node10" class="node"><title>Node10</title>
<polygon fill="none" stroke="#bfbfbf" points="566,-62 566,-81 685,-81 685,-62 566,-62"/>
<text text-anchor="middle" x="625.5" y="-69" font-family="Helvetica,sans-Serif" font-size="10.00">boost/test/unit_test.hpp</text>
</g>
<!-- Node1&#45;&gt;Node10 -->
<g id="edge9" class="edge"><title>Node1&#45;&gt;Node10</title>
<path fill="none" stroke="midnightblue" d="M465.514,-123.476C502.4,-111.723 554.435,-95.1433 589.03,-84.1205"/>
<polygon fill="midnightblue" stroke="midnightblue" points="590.268,-87.3994 598.733,-81.0287 588.143,-80.7298 590.268,-87.3994"/>
</g>
<!-- Node3 -->
<g id="node3" class="node"><title>Node3</title>
<polygon fill="none" stroke="#bfbfbf" points="0,-0.5 0,-19.5 41,-19.5 41,-0.5 0,-0.5"/>
<text text-anchor="middle" x="20.5" y="-7.5" font-family="Helvetica,sans-Serif" font-size="10.00">string</text>
</g>
<!-- Node2&#45;&gt;Node3 -->
<g id="edge2" class="edge"><title>Node2&#45;&gt;Node3</title>
<path fill="none" stroke="midnightblue" d="M85.3562,-56.3993C72.1133,-47.1293 54.8221,-35.0254 41.4241,-25.6469"/>
<polygon fill="midnightblue" stroke="midnightblue" points="43.0677,-22.5251 32.8683,-19.6578 39.0535,-28.2598 43.0677,-22.5251"/>
</g>
<!-- Node4 -->
<g id="node4" class="node"><title>Node4</title>
<polygon fill="none" stroke="#bfbfbf" points="59,-0.5 59,-19.5 94,-19.5 94,-0.5 59,-0.5"/>
<text text-anchor="middle" x="76.5" y="-7.5" font-family="Helvetica,sans-Serif" font-size="10.00">map</text>
</g>
<!-- Node2&#45;&gt;Node4 -->
<g id="edge3" class="edge"><title>Node2&#45;&gt;Node4</title>
<path fill="none" stroke="midnightblue" d="M98.6274,-56.3993C94.5871,-48.1098 89.4424,-37.5542 85.1306,-28.7077"/>
<polygon fill="midnightblue" stroke="midnightblue" points="88.2473,-27.1135 80.7198,-19.6578 81.9549,-30.1804 88.2473,-27.1135"/>
</g>
<!-- Node5 -->
<g id="node5" class="node"><title>Node5</title>
<polygon fill="none" stroke="#bfbfbf" points="112.5,-0.5 112.5,-19.5 156.5,-19.5 156.5,-0.5 112.5,-0.5"/>
<text text-anchor="middle" x="134.5" y="-7.5" font-family="Helvetica,sans-Serif" font-size="10.00">vector</text>
</g>
<!-- Node2&#45;&gt;Node5 -->
<g id="edge4" class="edge"><title>Node2&#45;&gt;Node5</title>
<path fill="none" stroke="midnightblue" d="M112.373,-56.3993C116.413,-48.1098 121.558,-37.5542 125.869,-28.7077"/>
<polygon fill="midnightblue" stroke="midnightblue" points="129.045,-30.1804 130.28,-19.6578 122.753,-27.1135 129.045,-30.1804"/>
</g>
<!-- Node6 -->
<g id="node6" class="node"><title>Node6</title>
<polygon fill="none" stroke="#bfbfbf" points="175,-0.5 175,-19.5 234,-19.5 234,-0.5 175,-0.5"/>
<text text-anchor="middle" x="204.5" y="-7.5" font-family="Helvetica,sans-Serif" font-size="10.00">functional</text>
</g>
<!-- Node2&#45;&gt;Node6 -->
<g id="edge5" class="edge"><title>Node2&#45;&gt;Node6</title>
<path fill="none" stroke="midnightblue" d="M128.962,-56.3993C144.831,-46.8619 165.691,-34.3248 181.468,-24.8422"/>
<polygon fill="midnightblue" stroke="midnightblue" points="183.326,-27.809 190.095,-19.6578 179.721,-21.8093 183.326,-27.809"/>
</g>
</g>
</svg>
