<?xml version="1.0" encoding="UTF-8" standalone="no"?>
<!DOCTYPE svg PUBLIC "-//W3C//DTD SVG 1.1//EN"
 "http://www.w3.org/Graphics/SVG/1.1/DTD/svg11.dtd">
<!-- Generated by graphviz version 2.38.0 (20140413.2041)
 -->
<!-- Title: Framework/src/UpdatePolicyManager.cxx Pages: 1 -->
<svg width="571pt" height="162pt"
 viewBox="0.00 0.00 570.50 162.00" xmlns="http://www.w3.org/2000/svg" xmlns:xlink="http://www.w3.org/1999/xlink">
<g id="graph0" class="graph" transform="scale(1 1) rotate(0) translate(4 158)">
<title>Framework/src/UpdatePolicyManager.cxx</title>
<!-- Node1 -->
<g id="node1" class="node"><title>Node1</title>
<polygon fill="#bfbfbf" stroke="black" points="246,-123.5 246,-153.5 389,-153.5 389,-123.5 246,-123.5"/>
<text text-anchor="start" x="254" y="-141.5" font-family="Helvetica,sans-Serif" font-size="10.00">Framework/src/UpdatePolicy</text>
<text text-anchor="middle" x="317.5" y="-130.5" font-family="Helvetica,sans-Serif" font-size="10.00">Manager.cxx</text>
</g>
<!-- Node2 -->
<g id="node2" class="node"><title>Node2</title>
<g id="a_node2"><a xlink:href="UpdatePolicyManager_8h.html" target="_top" xlink:title="QualityControl/UpdatePolicy\lManager.h">
<polygon fill="none" stroke="black" points="64.5,-56.5 64.5,-86.5 204.5,-86.5 204.5,-56.5 64.5,-56.5"/>
<text text-anchor="start" x="72.5" y="-74.5" font-family="Helvetica,sans-Serif" font-size="10.00">QualityControl/UpdatePolicy</text>
<text text-anchor="middle" x="134.5" y="-63.5" font-family="Helvetica,sans-Serif" font-size="10.00">Manager.h</text>
</a>
</g>
</g>
<!-- Node1&#45;&gt;Node2 -->
<g id="edge1" class="edge"><title>Node1&#45;&gt;Node2</title>
<path fill="none" stroke="midnightblue" d="M277.792,-123.396C250.214,-113.601 213.277,-100.481 183.812,-90.0153"/>
<polygon fill="midnightblue" stroke="midnightblue" points="184.726,-86.6255 174.131,-86.5765 182.383,-93.2218 184.726,-86.6255"/>
</g>
<!-- Node7 -->
<g id="node7" class="node"><title>Node7</title>
<g id="a_node7"><a xlink:href="QcInfoLogger_8h.html" target="_top" xlink:title="QualityControl/QcInfoLogger.h">
<polygon fill="none" stroke="black" points="243,-62 243,-81 392,-81 392,-62 243,-62"/>
<text text-anchor="middle" x="317.5" y="-69" font-family="Helvetica,sans-Serif" font-size="10.00">QualityControl/QcInfoLogger.h</text>
</a>
</g>
</g>
<!-- Node1&#45;&gt;Node7 -->
<g id="edge6" class="edge"><title>Node1&#45;&gt;Node7</title>
<path fill="none" stroke="midnightblue" d="M317.5,-123.396C317.5,-114.064 317.5,-101.714 317.5,-91.5173"/>
<polygon fill="midnightblue" stroke="midnightblue" points="321,-91.1945 317.5,-81.1945 314,-91.1946 321,-91.1945"/>
</g>
<!-- Node10 -->
<g id="node10" class="node"><title>Node10</title>
<polygon fill="none" stroke="#bfbfbf" points="409.5,-62 409.5,-81 525.5,-81 525.5,-62 409.5,-62"/>
<text text-anchor="middle" x="467.5" y="-69" font-family="Helvetica,sans-Serif" font-size="10.00">Common/Exceptions.h</text>
</g>
<!-- Node1&#45;&gt;Node10 -->
<g id="edge9" class="edge"><title>Node1&#45;&gt;Node10</title>
<path fill="none" stroke="midnightblue" d="M350.048,-123.396C376.367,-111.991 413.086,-96.0794 438.429,-85.0976"/>
<polygon fill="midnightblue" stroke="midnightblue" points="440.085,-88.1946 447.868,-81.007 437.301,-81.7717 440.085,-88.1946"/>
</g>
<!-- Node3 -->
<g id="node3" class="node"><title>Node3</title>
<polygon fill="none" stroke="#bfbfbf" points="0,-0.5 0,-19.5 41,-19.5 41,-0.5 0,-0.5"/>
<text text-anchor="middle" x="20.5" y="-7.5" font-family="Helvetica,sans-Serif" font-size="10.00">string</text>
</g>
<!-- Node2&#45;&gt;Node3 -->
<g id="edge2" class="edge"><title>Node2&#45;&gt;Node3</title>
<path fill="none" stroke="midnightblue" d="M107.484,-56.3993C88.8687,-46.6837 64.2895,-33.8551 46.0087,-24.3137"/>
<polygon fill="midnightblue" stroke="midnightblue" points="47.5726,-21.182 37.088,-19.6578 44.3337,-27.3876 47.5726,-21.182"/>
</g>
<!-- Node4 -->
<g id="node4" class="node"><title>Node4</title>
<polygon fill="none" stroke="#bfbfbf" points="59,-0.5 59,-19.5 94,-19.5 94,-0.5 59,-0.5"/>
<text text-anchor="middle" x="76.5" y="-7.5" font-family="Helvetica,sans-Serif" font-size="10.00">map</text>
</g>
<!-- Node2&#45;&gt;Node4 -->
<g id="edge3" class="edge"><title>Node2&#45;&gt;Node4</title>
<path fill="none" stroke="midnightblue" d="M120.755,-56.3993C112.153,-47.575 101.048,-36.1827 92.114,-27.0178"/>
<polygon fill="midnightblue" stroke="midnightblue" points="94.426,-24.3755 84.9395,-19.6578 89.4135,-29.2616 94.426,-24.3755"/>
</g>
<!-- Node5 -->
<g id="node5" class="node"><title>Node5</title>
<polygon fill="none" stroke="#bfbfbf" points="112.5,-0.5 112.5,-19.5 156.5,-19.5 156.5,-0.5 112.5,-0.5"/>
<text text-anchor="middle" x="134.5" y="-7.5" font-family="Helvetica,sans-Serif" font-size="10.00">vector</text>
</g>
<!-- Node2&#45;&gt;Node5 -->
<g id="edge4" class="edge"><title>Node2&#45;&gt;Node5</title>
<path fill="none" stroke="midnightblue" d="M134.5,-56.3993C134.5,-48.4664 134.5,-38.458 134.5,-29.8583"/>
<polygon fill="midnightblue" stroke="midnightblue" points="138,-29.6577 134.5,-19.6578 131,-29.6578 138,-29.6577"/>
</g>
<!-- Node6 -->
<g id="node6" class="node"><title>Node6</title>
<polygon fill="none" stroke="#bfbfbf" points="175,-0.5 175,-19.5 234,-19.5 234,-0.5 175,-0.5"/>
<text text-anchor="middle" x="204.5" y="-7.5" font-family="Helvetica,sans-Serif" font-size="10.00">functional</text>
</g>
<!-- Node2&#45;&gt;Node6 -->
<g id="edge5" class="edge"><title>Node2&#45;&gt;Node6</title>
<path fill="none" stroke="midnightblue" d="M151.089,-56.3993C161.785,-47.3076 175.688,-35.4899 186.628,-26.1909"/>
<polygon fill="midnightblue" stroke="midnightblue" points="188.962,-28.8011 194.314,-19.6578 184.428,-23.4675 188.962,-28.8011"/>
</g>
<!-- Node8 -->
<g id="node8" class="node"><title>Node8</title>
<polygon fill="none" stroke="#bfbfbf" points="252.5,-0.5 252.5,-19.5 382.5,-19.5 382.5,-0.5 252.5,-0.5"/>
<text text-anchor="middle" x="317.5" y="-7.5" font-family="Helvetica,sans-Serif" font-size="10.00">InfoLogger/InfoLogger.hxx</text>
</g>
<!-- Node7&#45;&gt;Node8 -->
<g id="edge7" class="edge"><title>Node7&#45;&gt;Node8</title>
<path fill="none" stroke="midnightblue" d="M317.5,-61.9751C317.5,-53.5803 317.5,-40.4806 317.5,-29.6631"/>
<polygon fill="midnightblue" stroke="midnightblue" points="321,-29.5091 317.5,-19.5091 314,-29.5091 321,-29.5091"/>
</g>
<!-- Node9 -->
<g id="node9" class="node"><title>Node9</title>
<polygon fill="none" stroke="#bfbfbf" points="400.5,-0.5 400.5,-19.5 562.5,-19.5 562.5,-0.5 400.5,-0.5"/>
<text text-anchor="middle" x="481.5" y="-7.5" font-family="Helvetica,sans-Serif" font-size="10.00">InfoLogger/InfoLoggerMacros.hxx</text>
</g>
<!-- Node7&#45;&gt;Node9 -->
<g id="edge8" class="edge"><title>Node7&#45;&gt;Node9</title>
<path fill="none" stroke="midnightblue" d="M340.997,-61.9751C369.129,-51.7687 416.429,-34.608 448.289,-23.0492"/>
<polygon fill="midnightblue" stroke="midnightblue" points="449.84,-26.2098 458.046,-19.5091 447.452,-19.6295 449.84,-26.2098"/>
</g>
</g>
</svg>
